# MagicaVoxel @ Ephtracy

# group
o 

# material
mtllib Astro_Walk2.vox.mtl
usemtl palette

# normals
vn -1 0 0
vn 1 0 0
vn 0 0 1
vn 0 0 -1
vn 0 -1 0
vn 0 1 0

# texcoords
vt 0.0839844 0.5
vt 0.287109 0.5
vt 0.291016 0.5
vt 0.310547 0.5
vt 0.365234 0.5
vt 0.431641 0.5
vt 0.958984 0.5
vt 0.982422 0.5
vt 0.994141 0.5

# verts
v -0.6 1.3 0.4
v -0.6 1.3 -0.3
v -0.6 1.5 0.4
v -0.6 1.5 -0.3
v -0.5 0.3 0.1
v -0.5 0.3 -0.1
v -0.5 0.4 0.1
v -0.5 0.4 -0.1
v -0.5 0.7 0.1
v -0.5 0.7 -0.1
v -0.5 0.9 0.3
v -0.5 0.9 0
v -0.5 0.9 -0.4
v -0.5 1.3 0.3
v -0.5 1.3 0
v -0.5 1.3 -0.3
v -0.5 1.5 0.4
v -0.5 1.5 -0.3
v -0.5 1.5 -0.4
v -0.5 1.6 0.4
v -0.5 1.6 -0.3
v -0.4 0.2 0.1
v -0.4 0.2 -0.1
v -0.4 0.3 0.2
v -0.4 0.3 0.1
v -0.4 0.3 -0.1
v -0.4 0.3 -0.2
v -0.4 0.4 0.2
v -0.4 0.4 0.1
v -0.4 0.4 -0.1
v -0.4 0.4 -0.2
v -0.4 0.4 -0.3
v -0.4 0.5 -0.1
v -0.4 0.5 -0.2
v -0.4 0.6 0.2
v -0.4 0.6 0.1
v -0.4 0.6 -0.2
v -0.4 0.6 -0.3
v -0.4 0.7 0.2
v -0.4 0.7 0.1
v -0.4 0.7 -0.1
v -0.4 0.7 -0.2
v -0.4 0.8 0.3
v -0.4 0.8 0.1
v -0.4 0.8 0
v -0.4 0.8 -0.1
v -0.4 0.8 -0.2
v -0.4 0.9 0.3
v -0.4 0.9 0
v -0.4 0.9 -0.2
v -0.4 1.6 0.3
v -0.4 1.6 -0.2
v -0.4 1.7 0.3
v -0.4 1.7 -0.2
v -0.3 0.1 0.4
v -0.3 0.1 0.3
v -0.3 0.1 -0.1
v -0.3 0.2 0.3
v -0.3 0.2 0.2
v -0.3 0.2 0.1
v -0.3 0.2 -0.1
v -0.3 0.3 0.3
v -0.3 0.3 0.2
v -0.3 0.3 0.1
v -0.3 0.3 -0.2
v -0.3 0.3 -0.4
v -0.3 0.4 0.4
v -0.3 0.4 0.3
v -0.3 0.4 0.2
v -0.3 0.4 0.1
v -0.3 0.4 -0.1
v -0.3 0.4 -0.2
v -0.3 0.4 -0.3
v -0.3 0.5 -0.1
v -0.3 0.5 -0.2
v -0.3 0.6 0.3
v -0.3 0.6 0.2
v -0.3 0.6 0.1
v -0.3 0.6 -0.2
v -0.3 0.6 -0.3
v -0.3 0.6 -0.4
v -0.3 0.7 0.2
v -0.3 0.7 0.1
v -0.3 0.7 -0.1
v -0.3 0.7 -0.2
v -0.3 0.7 -0.3
v -0.3 0.8 0.2
v -0.3 0.8 0.1
v -0.3 0.8 -0.1
v -0.3 0.8 -0.2
v -0.3 0.8 -0.3
v -0.3 0.9 -0.2
v -0.3 0.9 -0.3
v -0.2 0.6 0.3
v -0.2 0.6 0.2
v -0.2 0.7 0.3
v -0.2 0.7 0.2
v -0.1 0.4 0.3
v -0.1 0.4 0.2
v -0.1 0.5 0.3
v -0.1 0.5 0.2
v 0.1 0 0.2
v 0.1 0 -0.1
v 0.1 0.1 0.2
v 0.1 0.1 0.1
v 0.1 0.1 0
v 0.1 0.1 -0.1
v 0.1 0.2 0.1
v 0.1 0.2 0
v 0.1 0.3 0.1
v 0.1 0.3 -0.1
v 0.1 0.3 -0.2
v 0.1 0.3 -0.4
v 0.1 0.4 -0.2
v 0.1 0.4 -0.4
v 0.1 0.5 -0.3
v 0.1 0.5 -0.4
v 0.1 0.6 -0.2
v 0.1 0.6 -0.3
v 0.1 0.6 -0.4
v 0.1 0.7 -0.2
v 0.1 0.7 -0.3
v 0.2 0.4 0.3
v 0.2 0.4 0.2
v 0.2 0.5 0.3
v 0.2 0.5 0.2
v 0.2 0.7 0.3
v 0.2 0.7 0.2
v 0.2 0.8 0.3
v 0.2 0.8 0.2
v 0.3 0.5 0.4
v 0.3 0.5 0.3
v 0.3 0.6 0.3
v 0.3 0.6 0.2
v 0.3 0.7 0.4
v 0.3 0.7 0.3
v 0.3 0.7 0.2
v 0.4 1.3 0.4
v 0.4 1.3 0.3
v 0.4 1.4 0.4
v 0.4 1.4 0.3
v -0.4 1.3 0.4
v -0.4 1.3 0.3
v -0.4 1.4 0.4
v -0.4 1.4 0.3
v -0.2 0.4 0.3
v -0.2 0.4 0.2
v -0.2 0.5 0.3
v -0.2 0.5 0.2
v -0.1 0.1 0.4
v -0.1 0.1 0.3
v -0.1 0.1 -0.1
v -0.1 0.2 0.3
v -0.1 0.2 0.2
v -0.1 0.3 0.3
v -0.1 0.3 0.2
v -0.1 0.3 -0.1
v -0.1 0.3 -0.2
v -0.1 0.3 -0.4
v -0.1 0.4 0.4
v -0.1 0.4 0.3
v -0.1 0.4 -0.2
v -0.1 0.4 -0.4
v -0.1 0.5 -0.3
v -0.1 0.5 -0.4
v -0.1 0.6 -0.2
v -0.1 0.6 -0.3
v -0.1 0.6 -0.4
v -0.1 0.7 -0.2
v -0.1 0.7 -0.3
v 0.1 0.4 0.3
v 0.1 0.4 0.2
v 0.1 0.5 0.3
v 0.1 0.5 0.2
v 0.2 0.6 0.3
v 0.2 0.6 0.2
v 0.2 0.7 0.3
v 0.2 0.7 0.2
v 0.3 0 0.2
v 0.3 0 -0.1
v 0.3 0.1 0.2
v 0.3 0.1 0.1
v 0.3 0.1 0
v 0.3 0.1 -0.1
v 0.3 0.2 0.1
v 0.3 0.2 0
v 0.3 0.2 -0.1
v 0.3 0.3 0.1
v 0.3 0.3 -0.1
v 0.3 0.3 -0.2
v 0.3 0.3 -0.4
v 0.3 0.4 0.3
v 0.3 0.4 0.2
v 0.3 0.4 0.1
v 0.3 0.4 -0.1
v 0.3 0.4 -0.2
v 0.3 0.4 -0.3
v 0.3 0.5 0.3
v 0.3 0.5 0.2
v 0.3 0.5 -0.1
v 0.3 0.5 -0.2
v 0.3 0.6 -0.2
v 0.3 0.6 -0.3
v 0.3 0.6 -0.4
v 0.3 0.7 0.3
v 0.3 0.7 0.2
v 0.3 0.7 -0.1
v 0.3 0.7 -0.2
v 0.3 0.7 -0.3
v 0.3 0.8 0.3
v 0.3 0.8 0.2
v 0.3 0.8 -0.1
v 0.3 0.8 -0.2
v 0.3 0.8 -0.3
v 0.3 0.9 -0.2
v 0.3 0.9 -0.3
v 0.4 0.2 0.1
v 0.4 0.2 -0.1
v 0.4 0.3 0.2
v 0.4 0.3 0.1
v 0.4 0.3 -0.1
v 0.4 0.3 -0.2
v 0.4 0.4 0.2
v 0.4 0.4 0.1
v 0.4 0.4 -0.1
v 0.4 0.4 -0.2
v 0.4 0.4 -0.3
v 0.4 0.5 -0.1
v 0.4 0.5 -0.2
v 0.4 0.6 -0.2
v 0.4 0.6 -0.3
v 0.4 0.7 0.2
v 0.4 0.7 -0.1
v 0.4 0.7 -0.2
v 0.4 0.8 0.3
v 0.4 0.8 0.2
v 0.4 0.8 0
v 0.4 0.8 -0.1
v 0.4 0.8 -0.2
v 0.4 0.9 0.3
v 0.4 0.9 0
v 0.4 0.9 -0.2
v 0.4 1.6 0.3
v 0.4 1.6 -0.2
v 0.4 1.7 0.3
v 0.4 1.7 -0.2
v 0.5 0.5 0.4
v 0.5 0.5 0.3
v 0.5 0.5 -0.1
v 0.5 0.7 0.4
v 0.5 0.7 0.3
v 0.5 0.7 -0.1
v 0.5 0.9 0.3
v 0.5 0.9 0
v 0.5 0.9 -0.4
v 0.5 1.3 0.3
v 0.5 1.3 0
v 0.5 1.3 -0.3
v 0.5 1.5 0.4
v 0.5 1.5 -0.3
v 0.5 1.5 -0.4
v 0.5 1.6 0.4
v 0.5 1.6 -0.3
v 0.6 1.3 0.4
v 0.6 1.3 -0.3
v 0.6 1.5 0.4
v 0.6 1.5 -0.3
v -0.6 1.3 0.4
v -0.6 1.5 0.4
v -0.5 1.5 0.4
v -0.5 1.6 0.4
v -0.4 1.3 0.4
v -0.4 1.4 0.4
v -0.3 0.1 0.4
v -0.3 0.4 0.4
v -0.1 0.1 0.4
v -0.1 0.4 0.4
v 0.3 0.5 0.4
v 0.3 0.7 0.4
v 0.4 1.3 0.4
v 0.4 1.4 0.4
v 0.5 0.5 0.4
v 0.5 0.7 0.4
v 0.5 1.5 0.4
v 0.5 1.6 0.4
v 0.6 1.3 0.4
v 0.6 1.5 0.4
v -0.5 0.9 0.3
v -0.5 1.3 0.3
v -0.4 0.8 0.3
v -0.4 0.9 0.3
v -0.4 1.3 0.3
v -0.4 1.4 0.3
v -0.4 1.6 0.3
v -0.4 1.7 0.3
v -0.3 0.4 0.3
v -0.3 0.6 0.3
v -0.3 1.1 0.3
v -0.3 1.3 0.3
v -0.2 0.4 0.3
v -0.2 0.5 0.3
v -0.2 0.6 0.3
v -0.2 0.7 0.3
v -0.2 1.1 0.3
v -0.2 1.3 0.3
v -0.1 0.4 0.3
v -0.1 0.5 0.3
v -0.1 0.9 0.3
v -0.1 1 0.3
v -0.1 1.1 0.3
v -0.1 1.3 0.3
v 0.1 0.4 0.3
v 0.1 0.5 0.3
v 0.1 0.9 0.3
v 0.1 1 0.3
v 0.1 1.1 0.3
v 0.1 1.3 0.3
v 0.2 0.4 0.3
v 0.2 0.5 0.3
v 0.2 0.6 0.3
v 0.2 0.7 0.3
v 0.2 0.8 0.3
v 0.2 1.1 0.3
v 0.2 1.3 0.3
v 0.3 0.4 0.3
v 0.3 0.5 0.3
v 0.3 0.6 0.3
v 0.3 0.7 0.3
v 0.3 0.8 0.3
v 0.3 1.1 0.3
v 0.3 1.3 0.3
v 0.4 0.8 0.3
v 0.4 0.9 0.3
v 0.4 1.3 0.3
v 0.4 1.4 0.3
v 0.4 1.6 0.3
v 0.4 1.7 0.3
v 0.5 0.9 0.3
v 0.5 1.3 0.3
v -0.4 0.3 0.2
v -0.4 0.4 0.2
v -0.4 0.6 0.2
v -0.4 0.7 0.2
v -0.3 0.3 0.2
v -0.3 0.4 0.2
v -0.3 0.6 0.2
v -0.3 0.7 0.2
v -0.3 0.8 0.2
v -0.2 0.4 0.2
v -0.2 0.5 0.2
v -0.2 0.6 0.2
v -0.2 0.7 0.2
v -0.1 0.3 0.2
v -0.1 0.4 0.2
v -0.1 0.5 0.2
v 0.1 0 0.2
v 0.1 0.1 0.2
v 0.1 0.4 0.2
v 0.1 0.5 0.2
v 0.2 0.4 0.2
v 0.2 0.5 0.2
v 0.2 0.6 0.2
v 0.2 0.7 0.2
v 0.2 0.8 0.2
v 0.3 0 0.2
v 0.3 0.1 0.2
v 0.3 0.3 0.2
v 0.3 0.4 0.2
v 0.3 0.6 0.2
v 0.3 0.7 0.2
v 0.3 0.8 0.2
v 0.4 0.3 0.2
v 0.4 0.4 0.2
v 0.4 0.7 0.2
v 0.4 0.8 0.2
v -0.5 0.3 0.1
v -0.5 0.4 0.1
v -0.5 0.7 0.1
v -0.4 0.2 0.1
v -0.4 0.3 0.1
v -0.4 0.4 0.1
v -0.4 0.6 0.1
v -0.4 0.7 0.1
v -0.4 0.8 0.1
v -0.3 0.2 0.1
v -0.3 0.3 0.1
v -0.3 0.4 0.1
v -0.3 0.6 0.1
v -0.3 0.7 0.1
v -0.3 0.8 0.1
v 0.1 0.1 0.1
v 0.1 0.2 0.1
v 0.1 0.3 0.1
v 0.3 0.1 0.1
v 0.3 0.2 0.1
v 0.3 0.3 0.1
v 0.4 0.2 0.1
v 0.4 0.3 0.1
v 0.3 0.3 -0.1
v 0.3 0.4 -0.1
v 0.4 0.3 -0.1
v 0.4 0.4 -0.1
v -0.4 0.4 -0.2
v -0.4 0.5 -0.2
v -0.3 0.4 -0.2
v -0.3 0.5 -0.2
v 0.3 0.4 -0.2
v 0.3 0.5 -0.2
v 0.4 0.4 -0.2
v 0.4 0.5 -0.2
v -0.3 0.3 0.3
v -0.3 0.4 0.3
v -0.2 0.4 0.3
v -0.1 0.3 0.3
v -0.1 0.4 0.3
v 0.3 0.3 0.1
v 0.3 0.4 0.1
v 0.4 0.3 0.1
v 0.4 0.4 0.1
v -0.5 0.3 -0.1
v -0.5 0.4 -0.1
v -0.5 0.7 -0.1
v -0.4 0.2 -0.1
v -0.4 0.3 -0.1
v -0.4 0.4 -0.1
v -0.4 0.5 -0.1
v -0.4 0.7 -0.1
v -0.4 0.8 -0.1
v -0.3 0.1 -0.1
v -0.3 0.2 -0.1
v -0.3 0.3 -0.1
v -0.3 0.4 -0.1
v -0.3 0.5 -0.1
v -0.3 0.7 -0.1
v -0.3 0.8 -0.1
v -0.1 0.1 -0.1
v -0.1 0.3 -0.1
v 0.1 0 -0.1
v 0.1 0.1 -0.1
v 0.1 0.3 -0.1
v 0.3 0 -0.1
v 0.3 0.1 -0.1
v 0.3 0.2 -0.1
v 0.3 0.3 -0.1
v 0.3 0.7 -0.1
v 0.3 0.8 -0.1
v 0.4 0.2 -0.1
v 0.4 0.3 -0.1
v 0.4 0.5 -0.1
v 0.4 0.7 -0.1
v 0.4 0.8 -0.1
v 0.5 0.5 -0.1
v 0.5 0.7 -0.1
v -0.4 0.3 -0.2
v -0.4 0.4 -0.2
v -0.4 0.6 -0.2
v -0.4 0.7 -0.2
v -0.4 0.8 -0.2
v -0.4 0.9 -0.2
v -0.4 1.6 -0.2
v -0.4 1.7 -0.2
v -0.3 0.3 -0.2
v -0.3 0.4 -0.2
v -0.3 0.6 -0.2
v -0.3 0.7 -0.2
v -0.3 0.8 -0.2
v -0.3 0.9 -0.2
v -0.1 0.3 -0.2
v -0.1 0.4 -0.2
v -0.1 0.6 -0.2
v -0.1 0.7 -0.2
v 0.1 0.3 -0.2
v 0.1 0.4 -0.2
v 0.1 0.6 -0.2
v 0.1 0.7 -0.2
v 0.3 0.3 -0.2
v 0.3 0.4 -0.2
v 0.3 0.6 -0.2
v 0.3 0.7 -0.2
v 0.3 0.8 -0.2
v 0.3 0.9 -0.2
v 0.4 0.3 -0.2
v 0.4 0.4 -0.2
v 0.4 0.6 -0.2
v 0.4 0.7 -0.2
v 0.4 0.8 -0.2
v 0.4 0.9 -0.2
v 0.4 1.6 -0.2
v 0.4 1.7 -0.2
v -0.6 1.3 -0.3
v -0.6 1.5 -0.3
v -0.5 1.3 -0.3
v -0.5 1.5 -0.3
v -0.5 1.6 -0.3
v -0.4 0.4 -0.3
v -0.4 0.6 -0.3
v -0.3 0.4 -0.3
v -0.3 0.6 -0.3
v -0.3 0.7 -0.3
v -0.3 0.8 -0.3
v -0.3 0.9 -0.3
v -0.1 0.5 -0.3
v -0.1 0.6 -0.3
v -0.1 0.7 -0.3
v 0.1 0.5 -0.3
v 0.1 0.6 -0.3
v 0.1 0.7 -0.3
v 0.3 0.4 -0.3
v 0.3 0.6 -0.3
v 0.3 0.7 -0.3
v 0.3 0.8 -0.3
v 0.3 0.9 -0.3
v 0.4 0.4 -0.3
v 0.4 0.6 -0.3
v 0.5 1.3 -0.3
v 0.5 1.5 -0.3
v 0.5 1.6 -0.3
v 0.6 1.3 -0.3
v 0.6 1.5 -0.3
v -0.5 0.9 -0.4
v -0.5 1.5 -0.4
v -0.3 0.3 -0.4
v -0.3 0.6 -0.4
v -0.1 0.3 -0.4
v -0.1 0.4 -0.4
v -0.1 0.5 -0.4
v -0.1 0.6 -0.4
v 0.1 0.3 -0.4
v 0.1 0.4 -0.4
v 0.1 0.5 -0.4
v 0.1 0.6 -0.4
v 0.3 0.3 -0.4
v 0.3 0.6 -0.4
v 0.5 0.9 -0.4
v 0.5 1.5 -0.4
v 0.1 0 0.2
v 0.3 0 0.2
v 0.1 0 -0.1
v 0.3 0 -0.1
v -0.3 0.1 0.4
v -0.1 0.1 0.4
v -0.3 0.1 0.3
v -0.1 0.1 0.3
v -0.3 0.1 -0.1
v -0.1 0.1 -0.1
v -0.4 0.2 0.1
v -0.3 0.2 0.1
v 0.3 0.2 0.1
v 0.4 0.2 0.1
v 0.3 0.2 0
v -0.4 0.2 -0.1
v -0.3 0.2 -0.1
v 0.3 0.2 -0.1
v 0.4 0.2 -0.1
v -0.4 0.3 0.2
v -0.3 0.3 0.2
v -0.1 0.3 0.2
v 0.3 0.3 0.2
v 0.4 0.3 0.2
v -0.5 0.3 0.1
v -0.4 0.3 0.1
v -0.3 0.3 0.1
v 0.1 0.3 0.1
v 0.3 0.3 0.1
v 0.4 0.3 0.1
v -0.5 0.3 -0.1
v -0.4 0.3 -0.1
v -0.3 0.3 -0.1
v -0.1 0.3 -0.1
v 0.1 0.3 -0.1
v 0.3 0.3 -0.1
v 0.4 0.3 -0.1
v -0.4 0.3 -0.2
v -0.3 0.3 -0.2
v -0.1 0.3 -0.2
v 0.1 0.3 -0.2
v 0.3 0.3 -0.2
v 0.4 0.3 -0.2
v -0.3 0.3 -0.4
v -0.1 0.3 -0.4
v 0.1 0.3 -0.4
v 0.3 0.3 -0.4
v -0.3 0.4 0.3
v -0.2 0.4 0.3
v -0.1 0.4 0.3
v 0.1 0.4 0.3
v 0.2 0.4 0.3
v 0.3 0.4 0.3
v -0.3 0.4 0.2
v -0.2 0.4 0.2
v -0.1 0.4 0.2
v 0.1 0.4 0.2
v 0.2 0.4 0.2
v 0.3 0.4 0.2
v -0.4 0.4 -0.2
v -0.3 0.4 -0.2
v -0.1 0.4 -0.2
v 0.1 0.4 -0.2
v 0.3 0.4 -0.2
v 0.4 0.4 -0.2
v -0.4 0.4 -0.3
v -0.3 0.4 -0.3
v 0.3 0.4 -0.3
v 0.4 0.4 -0.3
v -0.1 0.4 -0.4
v 0.1 0.4 -0.4
v 0.3 0.5 0.4
v 0.5 0.5 0.4
v -0.2 0.5 0.3
v -0.1 0.5 0.3
v 0.1 0.5 0.3
v 0.2 0.5 0.3
v 0.3 0.5 0.3
v 0.5 0.5 0.3
v -0.2 0.5 0.2
v -0.1 0.5 0.2
v 0.1 0.5 0.2
v 0.2 0.5 0.2
v 0.3 0.5 0.2
v -0.4 0.5 -0.1
v -0.3 0.5 -0.1
v 0.3 0.5 -0.1
v 0.4 0.5 -0.1
v 0.5 0.5 -0.1
v -0.4 0.5 -0.2
v -0.3 0.5 -0.2
v 0.3 0.5 -0.2
v 0.4 0.5 -0.2
v -0.4 0.6 0.2
v -0.3 0.6 0.2
v -0.4 0.6 0.1
v -0.3 0.6 0.1
v 0.2 0.7 0.3
v 0.3 0.7 0.3
v 0.2 0.7 0.2
v 0.3 0.7 0.2
v -0.4 0.8 0.3
v 0.2 0.8 0.3
v 0.3 0.8 0.3
v 0.4 0.8 0.3
v -0.3 0.8 0.2
v 0.2 0.8 0.2
v 0.3 0.8 0.2
v 0.4 0.8 0.2
v -0.4 0.8 0.1
v -0.3 0.8 0.1
v -0.4 0.8 -0.1
v -0.3 0.8 -0.1
v 0.3 0.8 -0.1
v 0.4 0.8 -0.1
v -0.4 0.8 -0.2
v -0.3 0.8 -0.2
v 0.3 0.8 -0.2
v 0.4 0.8 -0.2
v -0.3 0.8 -0.3
v 0.3 0.8 -0.3
v -0.5 0.9 0.3
v -0.4 0.9 0.3
v 0.4 0.9 0.3
v 0.5 0.9 0.3
v -0.5 0.9 0
v -0.4 0.9 0
v 0.4 0.9 0
v 0.5 0.9 0
v -0.4 0.9 -0.2
v -0.3 0.9 -0.2
v 0.3 0.9 -0.2
v 0.4 0.9 -0.2
v -0.3 0.9 -0.3
v 0.3 0.9 -0.3
v -0.5 0.9 -0.4
v 0.5 0.9 -0.4
v -0.6 1.3 0.4
v -0.4 1.3 0.4
v 0.4 1.3 0.4
v 0.6 1.3 0.4
v -0.5 1.3 0.3
v -0.4 1.3 0.3
v 0.4 1.3 0.3
v 0.5 1.3 0.3
v -0.5 1.3 0
v 0.5 1.3 0
v -0.6 1.3 -0.3
v -0.5 1.3 -0.3
v 0.5 1.3 -0.3
v 0.6 1.3 -0.3
v -0.4 1.4 0.4
v 0.4 1.4 0.4
v -0.4 1.4 0.3
v 0.4 1.4 0.3
v 0.1 0.1 0.2
v 0.3 0.1 0.2
v 0.1 0.1 0.1
v 0.3 0.1 0.1
v -0.3 0.3 0.3
v -0.1 0.3 0.3
v -0.3 0.3 0.2
v -0.1 0.3 0.2
v 0.3 0.3 0.1
v 0.4 0.3 0.1
v 0.3 0.3 -0.1
v 0.4 0.3 -0.1
v -0.3 0.4 0.4
v -0.1 0.4 0.4
v -0.3 0.4 0.3
v -0.2 0.4 0.3
v -0.1 0.4 0.3
v -0.4 0.4 0.2
v -0.3 0.4 0.2
v 0.3 0.4 0.2
v 0.4 0.4 0.2
v -0.4 0.4 0.1
v -0.3 0.4 0.1
v 0.3 0.4 0.1
v 0.4 0.4 0.1
v -0.4 0.4 -0.1
v -0.3 0.4 -0.1
v 0.3 0.4 -0.1
v 0.4 0.4 -0.1
v -0.4 0.4 -0.2
v -0.3 0.4 -0.2
v 0.3 0.4 -0.2
v 0.4 0.4 -0.2
v -0.1 0.5 -0.3
v 0.1 0.5 -0.3
v -0.1 0.5 -0.4
v 0.1 0.5 -0.4
v -0.3 0.6 0.3
v -0.2 0.6 0.3
v 0.2 0.6 0.3
v 0.3 0.6 0.3
v -0.3 0.6 0.2
v -0.2 0.6 0.2
v 0.2 0.6 0.2
v 0.3 0.6 0.2
v -0.4 0.6 -0.2
v -0.3 0.6 -0.2
v -0.1 0.6 -0.2
v 0.1 0.6 -0.2
v 0.3 0.6 -0.2
v 0.4 0.6 -0.2
v -0.4 0.6 -0.3
v -0.3 0.6 -0.3
v -0.1 0.6 -0.3
v 0.1 0.6 -0.3
v 0.3 0.6 -0.3
v 0.4 0.6 -0.3
v -0.3 0.6 -0.4
v -0.1 0.6 -0.4
v 0.1 0.6 -0.4
v 0.3 0.6 -0.4
v 0.3 0.7 0.4
v 0.5 0.7 0.4
v -0.2 0.7 0.3
v 0.2 0.7 0.3
v 0.3 0.7 0.3
v 0.5 0.7 0.3
v -0.4 0.7 0.2
v -0.3 0.7 0.2
v -0.2 0.7 0.2
v 0.2 0.7 0.2
v 0.3 0.7 0.2
v 0.4 0.7 0.2
v -0.5 0.7 0.1
v -0.4 0.7 0.1
v -0.3 0.7 0.1
v -0.5 0.7 -0.1
v -0.4 0.7 -0.1
v -0.3 0.7 -0.1
v 0.3 0.7 -0.1
v 0.4 0.7 -0.1
v 0.5 0.7 -0.1
v -0.4 0.7 -0.2
v -0.3 0.7 -0.2
v -0.1 0.7 -0.2
v 0.1 0.7 -0.2
v 0.3 0.7 -0.2
v 0.4 0.7 -0.2
v -0.3 0.7 -0.3
v -0.1 0.7 -0.3
v 0.1 0.7 -0.3
v 0.3 0.7 -0.3
v -0.6 1.5 0.4
v -0.5 1.5 0.4
v 0.5 1.5 0.4
v 0.6 1.5 0.4
v -0.6 1.5 -0.3
v -0.5 1.5 -0.3
v 0.5 1.5 -0.3
v 0.6 1.5 -0.3
v -0.5 1.5 -0.4
v 0.5 1.5 -0.4
v -0.5 1.6 0.4
v 0.5 1.6 0.4
v -0.4 1.6 0.3
v 0.4 1.6 0.3
v -0.4 1.6 -0.2
v 0.4 1.6 -0.2
v -0.5 1.6 -0.3
v 0.5 1.6 -0.3
v -0.4 1.7 0.3
v 0.4 1.7 0.3
v -0.4 1.7 -0.2
v 0.4 1.7 -0.2

# faces
f 3/4/1 2/4/1 1/4/1
f 4/4/1 2/4/1 3/4/1
f 7/5/1 6/5/1 5/5/1
f 8/5/1 6/5/1 7/5/1
f 9/7/1 8/7/1 7/7/1
f 10/7/1 8/7/1 9/7/1
f 14/2/1 12/2/1 11/2/1
f 15/4/1 13/4/1 12/4/1
f 15/2/1 12/2/1 14/2/1
f 16/4/1 13/4/1 15/4/1
f 18/4/1 13/4/1 16/4/1
f 19/4/1 13/4/1 18/4/1
f 20/4/1 18/4/1 17/4/1
f 21/4/1 18/4/1 20/4/1
f 25/8/1 23/8/1 22/8/1
f 26/8/1 23/8/1 25/8/1
f 28/8/1 25/8/1 24/8/1
f 29/8/1 25/8/1 28/8/1
f 30/8/1 27/8/1 26/8/1
f 31/8/1 27/8/1 30/8/1
f 34/8/1 32/8/1 31/8/1
f 37/8/1 32/8/1 34/8/1
f 37/8/1 34/8/1 33/8/1
f 38/8/1 32/8/1 37/8/1
f 39/8/1 36/8/1 35/8/1
f 40/8/1 36/8/1 39/8/1
f 41/8/1 37/8/1 33/8/1
f 42/8/1 37/8/1 41/8/1
f 44/8/1 41/8/1 40/8/1
f 45/8/1 41/8/1 44/8/1
f 46/8/1 41/8/1 45/8/1
f 48/2/1 44/2/1 43/2/1
f 48/2/1 45/2/1 44/2/1
f 49/4/1 47/4/1 46/4/1
f 49/2/1 45/2/1 48/2/1
f 49/4/1 46/4/1 45/4/1
f 50/4/1 47/4/1 49/4/1
f 53/4/1 52/4/1 51/4/1
f 54/4/1 52/4/1 53/4/1
f 58/8/1 56/8/1 55/8/1
f 58/7/1 57/7/1 56/7/1
f 59/7/1 57/7/1 58/7/1
f 60/7/1 57/7/1 59/7/1
f 61/7/1 57/7/1 60/7/1
f 62/8/1 58/8/1 55/8/1
f 62/6/1 59/6/1 58/6/1
f 63/7/1 60/7/1 59/7/1
f 63/6/1 59/6/1 62/6/1
f 64/7/1 60/7/1 63/7/1
f 67/8/1 62/8/1 55/8/1
f 68/8/1 62/8/1 67/8/1
f 72/6/1 66/6/1 65/6/1
f 73/6/1 66/6/1 72/6/1
f 74/7/1 72/7/1 71/7/1
f 75/7/1 72/7/1 74/7/1
f 76/8/1 69/8/1 68/8/1
f 77/7/1 70/7/1 69/7/1
f 77/8/1 69/8/1 76/8/1
f 78/7/1 70/7/1 77/7/1
f 80/6/1 66/6/1 73/6/1
f 81/6/1 66/6/1 80/6/1
f 85/6/1 80/6/1 79/6/1
f 86/6/1 80/6/1 85/6/1
f 87/7/1 83/7/1 82/7/1
f 88/7/1 83/7/1 87/7/1
f 89/7/1 85/7/1 84/7/1
f 90/7/1 85/7/1 89/7/1
f 92/4/1 91/4/1 90/4/1
f 93/4/1 91/4/1 92/4/1
f 96/8/1 95/8/1 94/8/1
f 97/8/1 95/8/1 96/8/1
f 100/8/1 99/8/1 98/8/1
f 101/8/1 99/8/1 100/8/1
f 104/8/1 103/8/1 102/8/1
f 105/8/1 103/8/1 104/8/1
f 106/8/1 103/8/1 105/8/1
f 107/8/1 103/8/1 106/8/1
f 108/6/1 106/6/1 105/6/1
f 109/7/1 107/7/1 106/7/1
f 109/6/1 106/6/1 108/6/1
f 110/7/1 109/7/1 108/7/1
f 111/7/1 107/7/1 109/7/1
f 111/7/1 109/7/1 110/7/1
f 114/6/1 113/6/1 112/6/1
f 115/6/1 113/6/1 114/6/1
f 119/6/1 117/6/1 116/6/1
f 120/6/1 117/6/1 119/6/1
f 121/6/1 119/6/1 118/6/1
f 122/6/1 119/6/1 121/6/1
f 125/8/1 124/8/1 123/8/1
f 126/8/1 124/8/1 125/8/1
f 129/8/1 128/8/1 127/8/1
f 130/8/1 128/8/1 129/8/1
f 133/5/1 132/5/1 131/5/1
f 135/5/1 133/5/1 131/5/1
f 136/7/1 134/7/1 133/7/1
f 136/5/1 133/5/1 135/5/1
f 137/7/1 134/7/1 136/7/1
f 140/4/1 139/4/1 138/4/1
f 141/4/1 139/4/1 140/4/1
f 142/4/2 143/4/2 144/4/2
f 144/4/2 143/4/2 145/4/2
f 146/8/2 147/8/2 148/8/2
f 148/8/2 147/8/2 149/8/2
f 150/8/2 151/8/2 153/8/2
f 151/7/2 152/7/2 153/7/2
f 153/7/2 152/7/2 154/7/2
f 150/8/2 153/8/2 155/8/2
f 153/6/2 154/6/2 155/6/2
f 154/7/2 152/7/2 156/7/2
f 155/6/2 154/6/2 156/6/2
f 156/7/2 152/7/2 157/7/2
f 150/8/2 155/8/2 160/8/2
f 160/8/2 155/8/2 161/8/2
f 158/6/2 159/6/2 162/6/2
f 162/6/2 159/6/2 163/6/2
f 164/6/2 165/6/2 167/6/2
f 167/6/2 165/6/2 168/6/2
f 166/6/2 167/6/2 169/6/2
f 169/6/2 167/6/2 170/6/2
f 171/8/2 172/8/2 173/8/2
f 173/8/2 172/8/2 174/8/2
f 175/8/2 176/8/2 177/8/2
f 177/8/2 176/8/2 178/8/2
f 179/8/2 180/8/2 181/8/2
f 181/8/2 180/8/2 182/8/2
f 182/8/2 180/8/2 183/8/2
f 183/8/2 180/8/2 184/8/2
f 182/6/2 183/6/2 185/6/2
f 183/7/2 184/7/2 186/7/2
f 185/6/2 183/6/2 186/6/2
f 186/7/2 184/7/2 187/7/2
f 188/7/2 189/7/2 194/7/2
f 194/7/2 189/7/2 195/7/2
f 190/6/2 191/6/2 196/6/2
f 196/6/2 191/6/2 197/6/2
f 192/8/2 193/8/2 198/8/2
f 194/7/2 195/7/2 199/7/2
f 198/8/2 193/8/2 199/8/2
f 193/7/2 194/7/2 199/7/2
f 195/7/2 196/7/2 199/7/2
f 199/7/2 196/7/2 200/7/2
f 200/7/2 196/7/2 201/7/2
f 197/6/2 191/6/2 203/6/2
f 203/6/2 191/6/2 204/6/2
f 202/6/2 203/6/2 208/6/2
f 208/6/2 203/6/2 209/6/2
f 205/8/2 206/8/2 210/8/2
f 210/8/2 206/8/2 211/8/2
f 207/7/2 208/7/2 212/7/2
f 212/7/2 208/7/2 213/7/2
f 213/4/2 214/4/2 215/4/2
f 215/4/2 214/4/2 216/4/2
f 217/8/2 218/8/2 220/8/2
f 220/8/2 218/8/2 221/8/2
f 219/8/2 220/8/2 223/8/2
f 223/8/2 220/8/2 224/8/2
f 221/8/2 222/8/2 225/8/2
f 225/8/2 222/8/2 226/8/2
f 226/8/2 227/8/2 229/8/2
f 229/8/2 227/8/2 230/8/2
f 228/8/2 229/8/2 230/8/2
f 230/8/2 227/8/2 231/8/2
f 228/8/2 230/8/2 233/8/2
f 233/8/2 230/8/2 234/8/2
f 232/8/2 233/8/2 236/8/2
f 236/8/2 233/8/2 237/8/2
f 237/8/2 233/8/2 238/8/2
f 235/2/2 236/2/2 240/2/2
f 236/2/2 237/2/2 240/2/2
f 238/4/2 239/4/2 241/4/2
f 240/2/2 237/2/2 241/2/2
f 237/4/2 238/4/2 241/4/2
f 241/4/2 239/4/2 242/4/2
f 243/4/2 244/4/2 245/4/2
f 245/4/2 244/4/2 246/4/2
f 247/5/2 248/5/2 250/5/2
f 248/7/2 249/7/2 251/7/2
f 250/5/2 248/5/2 251/5/2
f 251/7/2 249/7/2 252/7/2
f 253/2/2 254/2/2 256/2/2
f 254/4/2 255/4/2 257/4/2
f 256/2/2 254/2/2 257/2/2
f 257/4/2 255/4/2 258/4/2
f 258/4/2 255/4/2 260/4/2
f 260/4/2 255/4/2 261/4/2
f 259/4/2 260/4/2 262/4/2
f 262/4/2 260/4/2 263/4/2
f 264/4/2 265/4/2 266/4/2
f 266/4/2 265/4/2 267/4/2
f 270/4/3 269/4/3 268/4/3
f 272/4/3 270/4/3 268/4/3
f 272/4/3 271/4/3 270/4/3
f 273/4/3 271/4/3 272/4/3
f 276/8/3 275/8/3 274/8/3
f 277/8/3 275/8/3 276/8/3
f 281/4/3 271/4/3 273/4/3
f 282/5/3 279/5/3 278/5/3
f 283/5/3 279/5/3 282/5/3
f 284/4/3 281/4/3 280/4/3
f 284/4/3 271/4/3 281/4/3
f 285/4/3 271/4/3 284/4/3
f 286/4/3 284/4/3 280/4/3
f 287/4/3 284/4/3 286/4/3
f 291/2/3 289/2/3 288/2/3
f 292/2/3 289/2/3 291/2/3
f 298/2/3 291/2/3 290/2/3
f 298/2/3 292/2/3 291/2/3
f 298/2/3 293/2/3 292/2/3
f 299/2/3 293/2/3 298/2/3
f 300/8/3 297/8/3 296/8/3
f 301/8/3 297/8/3 300/8/3
f 302/8/3 297/8/3 301/8/3
f 304/2/3 298/2/3 290/2/3
f 304/7/3 299/7/3 298/7/3
f 305/2/3 293/2/3 299/2/3
f 305/7/3 299/7/3 304/7/3
f 307/8/3 303/8/3 302/8/3
f 307/8/3 302/8/3 301/8/3
f 308/2/3 304/2/3 290/2/3
f 309/2/3 304/2/3 308/2/3
f 310/9/3 305/9/3 304/9/3
f 310/2/3 304/2/3 309/2/3
f 311/2/3 293/2/3 305/2/3
f 311/9/3 305/9/3 310/9/3
f 312/8/3 307/8/3 306/8/3
f 313/8/3 303/8/3 307/8/3
f 313/8/3 307/8/3 312/8/3
f 314/1/3 309/1/3 308/1/3
f 314/2/3 308/2/3 290/2/3
f 315/2/3 310/2/3 309/2/3
f 315/1/3 309/1/3 314/1/3
f 315/2/3 311/2/3 310/2/3
f 316/2/3 311/2/3 315/2/3
f 317/2/3 293/2/3 311/2/3
f 317/2/3 311/2/3 316/2/3
f 319/8/3 303/8/3 313/8/3
f 320/8/3 303/8/3 319/8/3
f 321/8/3 303/8/3 320/8/3
f 322/2/3 316/2/3 315/2/3
f 322/2/3 314/2/3 290/2/3
f 322/2/3 315/2/3 314/2/3
f 323/9/3 317/9/3 316/9/3
f 323/2/3 316/2/3 322/2/3
f 324/2/3 293/2/3 317/2/3
f 324/9/3 317/9/3 323/9/3
f 325/8/3 320/8/3 319/8/3
f 325/8/3 319/8/3 318/8/3
f 326/8/3 320/8/3 325/8/3
f 327/8/3 320/8/3 326/8/3
f 328/8/3 322/8/3 321/8/3
f 329/2/3 323/2/3 322/2/3
f 329/8/3 322/8/3 328/8/3
f 330/7/3 324/7/3 323/7/3
f 330/2/3 323/2/3 329/2/3
f 331/2/3 293/2/3 324/2/3
f 331/7/3 324/7/3 330/7/3
f 332/2/3 330/2/3 329/2/3
f 332/2/3 331/2/3 330/2/3
f 333/2/3 331/2/3 332/2/3
f 334/2/3 293/2/3 331/2/3
f 334/2/3 331/2/3 333/2/3
f 335/2/3 293/2/3 334/2/3
f 336/4/3 295/4/3 294/4/3
f 337/4/3 295/4/3 336/4/3
f 338/2/3 334/2/3 333/2/3
f 339/2/3 334/2/3 338/2/3
f 344/8/3 341/8/3 340/8/3
f 345/8/3 341/8/3 344/8/3
f 346/8/3 343/8/3 342/8/3
f 347/8/3 343/8/3 346/8/3
f 349/7/3 345/7/3 344/7/3
f 351/7/3 348/7/3 347/7/3
f 351/7/3 347/7/3 346/7/3
f 352/7/3 348/7/3 351/7/3
f 353/7/3 350/7/3 349/7/3
f 353/7/3 349/7/3 344/7/3
f 354/7/3 350/7/3 353/7/3
f 355/7/3 350/7/3 354/7/3
f 358/7/3 354/7/3 353/7/3
f 360/7/3 358/7/3 353/7/3
f 360/7/3 359/7/3 358/7/3
f 361/7/3 359/7/3 360/7/3
f 363/7/3 348/7/3 352/7/3
f 364/7/3 348/7/3 363/7/3
f 365/8/3 357/8/3 356/8/3
f 366/8/3 357/8/3 365/8/3
f 367/7/3 360/7/3 353/7/3
f 368/7/3 360/7/3 367/7/3
f 369/7/3 363/7/3 362/7/3
f 370/7/3 363/7/3 369/7/3
f 372/8/3 368/8/3 367/8/3
f 373/8/3 368/8/3 372/8/3
f 374/8/3 371/8/3 370/8/3
f 375/8/3 371/8/3 374/8/3
f 380/5/3 377/5/3 376/5/3
f 381/7/3 378/7/3 377/7/3
f 381/5/3 377/5/3 380/5/3
f 382/7/3 378/7/3 381/7/3
f 383/7/3 378/7/3 382/7/3
f 385/8/3 380/8/3 379/8/3
f 386/8/3 380/8/3 385/8/3
f 387/7/3 382/7/3 381/7/3
f 388/7/3 382/7/3 387/7/3
f 389/8/3 384/8/3 383/8/3
f 390/8/3 384/8/3 389/8/3
f 394/6/3 392/6/3 391/6/3
f 395/7/3 393/7/3 392/7/3
f 395/6/3 392/6/3 394/6/3
f 396/7/3 393/7/3 395/7/3
f 397/8/3 396/8/3 395/8/3
f 398/8/3 396/8/3 397/8/3
f 401/8/3 400/8/3 399/8/3
f 402/8/3 400/8/3 401/8/3
f 405/8/3 404/8/3 403/8/3
f 406/8/3 404/8/3 405/8/3
f 409/8/3 408/8/3 407/8/3
f 410/8/3 408/8/3 409/8/3
f 411/8/4 412/8/4 413/8/4
f 411/8/4 413/8/4 414/8/4
f 414/8/4 413/8/4 415/8/4
f 416/8/4 417/8/4 418/8/4
f 418/8/4 417/8/4 419/8/4
f 420/5/4 421/5/4 424/5/4
f 421/7/4 422/7/4 425/7/4
f 424/5/4 421/5/4 425/5/4
f 425/7/4 422/7/4 426/7/4
f 426/7/4 422/7/4 427/7/4
f 423/8/4 424/8/4 430/8/4
f 430/8/4 424/8/4 431/8/4
f 425/7/4 426/7/4 432/7/4
f 432/7/4 426/7/4 433/7/4
f 427/8/4 428/8/4 434/8/4
f 434/8/4 428/8/4 435/8/4
f 430/7/4 431/7/4 436/7/4
f 429/7/4 430/7/4 436/7/4
f 436/7/4 431/7/4 437/7/4
f 438/8/4 439/8/4 441/8/4
f 439/7/4 440/7/4 442/7/4
f 441/8/4 439/8/4 442/8/4
f 442/7/4 440/7/4 443/7/4
f 443/7/4 440/7/4 444/7/4
f 443/8/4 444/8/4 447/8/4
f 447/8/4 444/8/4 448/8/4
f 445/8/4 446/8/4 450/8/4
f 450/8/4 446/8/4 451/8/4
f 449/7/4 450/7/4 452/7/4
f 452/7/4 450/7/4 453/7/4
f 454/8/4 455/8/4 462/8/4
f 462/8/4 455/8/4 463/8/4
f 456/8/4 457/8/4 464/8/4
f 464/8/4 457/8/4 465/8/4
f 458/4/4 459/4/4 466/4/4
f 466/4/4 459/4/4 467/4/4
f 465/7/4 466/7/4 471/7/4
f 468/7/4 469/7/4 472/7/4
f 472/7/4 469/7/4 473/7/4
f 470/7/4 471/7/4 474/7/4
f 471/7/4 466/7/4 475/7/4
f 474/7/4 471/7/4 475/7/4
f 475/7/4 466/7/4 479/7/4
f 479/7/4 466/7/4 480/7/4
f 476/8/4 477/8/4 482/8/4
f 482/8/4 477/8/4 483/8/4
f 478/8/4 479/8/4 484/8/4
f 484/8/4 479/8/4 485/8/4
f 480/4/4 481/4/4 486/4/4
f 486/4/4 481/4/4 487/4/4
f 460/4/4 461/4/4 488/4/4
f 488/4/4 461/4/4 489/4/4
f 490/4/4 491/4/4 492/4/4
f 492/4/4 491/4/4 493/4/4
f 495/8/4 496/8/4 497/8/4
f 497/8/4 496/8/4 498/8/4
f 498/6/4 499/6/4 503/6/4
f 503/6/4 499/6/4 504/6/4
f 502/8/4 503/8/4 505/8/4
f 505/8/4 503/8/4 506/8/4
f 506/6/4 507/6/4 509/6/4
f 509/6/4 507/6/4 510/6/4
f 500/4/4 501/4/4 511/4/4
f 511/4/4 501/4/4 512/4/4
f 508/8/4 509/8/4 513/8/4
f 513/8/4 509/8/4 514/8/4
f 493/4/4 494/4/4 516/4/4
f 516/4/4 494/4/4 517/4/4
f 515/4/4 516/4/4 518/4/4
f 518/4/4 516/4/4 519/4/4
f 522/6/4 523/6/4 524/6/4
f 524/6/4 523/6/4 525/6/4
f 525/6/4 523/6/4 526/6/4
f 526/6/4 523/6/4 527/6/4
f 525/8/4 526/8/4 529/8/4
f 529/8/4 526/8/4 530/8/4
f 528/6/4 529/6/4 532/6/4
f 530/6/4 531/6/4 532/6/4
f 529/6/4 530/6/4 532/6/4
f 532/6/4 531/6/4 533/6/4
f 520/4/4 521/4/4 534/4/4
f 534/4/4 521/4/4 535/4/4
f 538/8/5 537/8/5 536/8/5
f 539/8/5 537/8/5 538/8/5
f 542/8/5 541/8/5 540/8/5
f 543/8/5 541/8/5 542/8/5
f 544/7/5 543/7/5 542/7/5
f 545/7/5 543/7/5 544/7/5
f 550/8/5 549/8/5 548/8/5
f 551/8/5 547/8/5 546/8/5
f 552/8/5 547/8/5 551/8/5
f 553/8/5 549/8/5 550/8/5
f 554/8/5 549/8/5 553/8/5
f 561/8/5 556/8/5 555/8/5
f 562/8/5 556/8/5 561/8/5
f 563/7/5 558/7/5 557/7/5
f 564/8/5 559/8/5 558/8/5
f 564/7/5 558/7/5 563/7/5
f 565/8/5 559/8/5 564/8/5
f 566/5/5 561/5/5 560/5/5
f 567/5/5 561/5/5 566/5/5
f 569/7/5 563/7/5 557/7/5
f 570/7/5 563/7/5 569/7/5
f 573/8/5 568/8/5 567/8/5
f 574/7/5 571/7/5 570/7/5
f 574/8/5 568/8/5 573/8/5
f 574/7/5 569/7/5 568/7/5
f 574/7/5 570/7/5 569/7/5
f 575/7/5 571/7/5 574/7/5
f 576/7/5 571/7/5 575/7/5
f 577/8/5 572/8/5 571/8/5
f 577/7/5 571/7/5 576/7/5
f 578/8/5 572/8/5 577/8/5
f 579/6/5 575/6/5 574/6/5
f 580/6/5 575/6/5 579/6/5
f 581/6/5 577/6/5 576/6/5
f 582/6/5 577/6/5 581/6/5
f 589/8/5 584/8/5 583/8/5
f 590/8/5 584/8/5 589/8/5
f 591/8/5 586/8/5 585/8/5
f 592/8/5 586/8/5 591/8/5
f 593/8/5 588/8/5 587/8/5
f 594/8/5 588/8/5 593/8/5
f 601/8/5 596/8/5 595/8/5
f 602/8/5 596/8/5 601/8/5
f 603/8/5 600/8/5 599/8/5
f 604/8/5 600/8/5 603/8/5
f 605/8/5 598/8/5 597/8/5
f 606/8/5 598/8/5 605/8/5
f 613/5/5 608/5/5 607/5/5
f 614/5/5 608/5/5 613/5/5
f 615/8/5 610/8/5 609/8/5
f 616/8/5 610/8/5 615/8/5
f 617/8/5 612/8/5 611/8/5
f 618/8/5 612/8/5 617/8/5
f 619/7/5 614/7/5 613/7/5
f 622/7/5 614/7/5 619/7/5
f 623/7/5 614/7/5 622/7/5
f 624/7/5 614/7/5 623/7/5
f 625/8/5 621/8/5 620/8/5
f 626/8/5 621/8/5 625/8/5
f 627/8/5 623/8/5 622/8/5
f 628/8/5 623/8/5 627/8/5
f 631/8/5 630/8/5 629/8/5
f 632/8/5 630/8/5 631/8/5
f 635/8/5 634/8/5 633/8/5
f 636/8/5 634/8/5 635/8/5
f 641/2/5 638/2/5 637/2/5
f 642/2/5 638/2/5 641/2/5
f 643/2/5 640/2/5 639/2/5
f 644/2/5 640/2/5 643/2/5
f 645/2/5 641/2/5 637/2/5
f 646/2/5 641/2/5 645/2/5
f 651/4/5 648/4/5 647/4/5
f 652/4/5 648/4/5 651/4/5
f 653/4/5 650/4/5 649/4/5
f 654/4/5 650/4/5 653/4/5
f 655/4/5 653/4/5 652/4/5
f 656/4/5 653/4/5 655/4/5
f 661/2/5 658/2/5 657/2/5
f 662/2/5 658/2/5 661/2/5
f 663/2/5 660/2/5 659/2/5
f 664/2/5 660/2/5 663/2/5
f 665/4/5 662/4/5 661/4/5
f 668/4/5 664/4/5 663/4/5
f 669/4/5 666/4/5 665/4/5
f 670/4/5 668/4/5 667/4/5
f 671/4/5 669/4/5 665/4/5
f 671/4/5 670/4/5 669/4/5
f 671/4/5 665/4/5 661/4/5
f 672/4/5 668/4/5 670/4/5
f 672/4/5 670/4/5 671/4/5
f 672/4/5 664/4/5 668/4/5
f 677/4/5 674/4/5 673/4/5
f 678/4/5 674/4/5 677/4/5
f 679/4/5 676/4/5 675/4/5
f 680/4/5 676/4/5 679/4/5
f 681/4/5 677/4/5 673/4/5
f 682/4/5 676/4/5 680/4/5
f 683/4/5 681/4/5 673/4/5
f 684/4/5 681/4/5 683/4/5
f 685/4/5 676/4/5 682/4/5
f 686/4/5 676/4/5 685/4/5
f 689/4/5 688/4/5 687/4/5
f 690/4/5 688/4/5 689/4/5
f 691/8/6 692/8/6 693/8/6
f 693/8/6 692/8/6 694/8/6
f 695/6/6 696/6/6 697/6/6
f 697/6/6 696/6/6 698/6/6
f 699/8/6 700/8/6 701/8/6
f 701/8/6 700/8/6 702/8/6
f 703/8/6 704/8/6 705/8/6
f 705/8/6 704/8/6 706/8/6
f 706/8/6 704/8/6 707/8/6
f 708/8/6 709/8/6 712/8/6
f 712/8/6 709/8/6 713/8/6
f 710/8/6 711/8/6 714/8/6
f 714/8/6 711/8/6 715/8/6
f 716/8/6 717/8/6 720/8/6
f 720/8/6 717/8/6 721/8/6
f 718/8/6 719/8/6 722/8/6
f 722/8/6 719/8/6 723/8/6
f 724/8/6 725/8/6 726/8/6
f 726/8/6 725/8/6 727/8/6
f 728/8/6 729/8/6 732/8/6
f 732/8/6 729/8/6 733/8/6
f 730/8/6 731/8/6 734/8/6
f 734/8/6 731/8/6 735/8/6
f 736/8/6 737/8/6 742/8/6
f 742/8/6 737/8/6 743/8/6
f 738/8/6 739/8/6 744/8/6
f 744/8/6 739/8/6 745/8/6
f 740/8/6 741/8/6 746/8/6
f 746/8/6 741/8/6 747/8/6
f 743/6/6 744/6/6 748/6/6
f 748/6/6 744/6/6 749/6/6
f 745/6/6 746/6/6 750/6/6
f 750/6/6 746/6/6 751/6/6
f 752/5/6 753/5/6 756/5/6
f 756/5/6 753/5/6 757/5/6
f 754/8/6 755/8/6 760/8/6
f 760/8/6 755/8/6 761/8/6
f 756/7/6 757/7/6 762/7/6
f 762/7/6 757/7/6 763/7/6
f 758/8/6 759/8/6 765/8/6
f 765/8/6 759/8/6 766/8/6
f 764/7/6 765/7/6 767/7/6
f 767/7/6 765/7/6 768/7/6
f 763/7/6 757/7/6 771/7/6
f 771/7/6 757/7/6 772/7/6
f 768/8/6 769/8/6 773/8/6
f 773/8/6 769/8/6 774/8/6
f 770/8/6 771/8/6 777/8/6
f 777/8/6 771/8/6 778/8/6
f 774/6/6 775/6/6 779/6/6
f 779/6/6 775/6/6 780/6/6
f 776/6/6 777/6/6 781/6/6
f 781/6/6 777/6/6 782/6/6
f 783/4/6 784/4/6 787/4/6
f 787/4/6 784/4/6 788/4/6
f 785/4/6 786/4/6 789/4/6
f 789/4/6 786/4/6 790/4/6
f 788/4/6 789/4/6 791/4/6
f 791/4/6 789/4/6 792/4/6
f 793/4/6 794/4/6 795/4/6
f 795/4/6 794/4/6 796/4/6
f 793/4/6 795/4/6 797/4/6
f 796/4/6 794/4/6 798/4/6
f 793/4/6 797/4/6 799/4/6
f 797/4/6 798/4/6 799/4/6
f 798/4/6 794/4/6 800/4/6
f 799/4/6 798/4/6 800/4/6
f 801/4/6 802/4/6 803/4/6
f 803/4/6 802/4/6 804/4/6
