# MagicaVoxel @ Ephtracy

# group
o 

# material
mtllib Astro_Walk1.vox.mtl
usemtl palette

# normals
vn -1 0 0
vn 1 0 0
vn 0 0 1
vn 0 0 -1
vn 0 -1 0
vn 0 1 0

# texcoords
vt 0.0839844 0.5
vt 0.287109 0.5
vt 0.291016 0.5
vt 0.310547 0.5
vt 0.365234 0.5
vt 0.431641 0.5
vt 0.958984 0.5
vt 0.982422 0.5
vt 0.994141 0.5

# verts
v -0.6 1.3 0.4
v -0.6 1.3 -0.3
v -0.6 1.5 0.4
v -0.6 1.5 -0.3
v -0.5 0.5 0.4
v -0.5 0.5 0.3
v -0.5 0.5 -0.1
v -0.5 0.7 0.4
v -0.5 0.7 0.3
v -0.5 0.7 -0.1
v -0.5 0.9 0.3
v -0.5 0.9 0
v -0.5 0.9 -0.4
v -0.5 1.3 0.3
v -0.5 1.3 0
v -0.5 1.3 -0.3
v -0.5 1.5 0.4
v -0.5 1.5 -0.3
v -0.5 1.5 -0.4
v -0.5 1.6 0.4
v -0.5 1.6 -0.3
v -0.4 0.2 0.1
v -0.4 0.2 -0.1
v -0.4 0.3 0.2
v -0.4 0.3 0.1
v -0.4 0.3 -0.1
v -0.4 0.3 -0.2
v -0.4 0.4 0.2
v -0.4 0.4 0.1
v -0.4 0.4 -0.1
v -0.4 0.4 -0.2
v -0.4 0.4 -0.3
v -0.4 0.5 -0.1
v -0.4 0.5 -0.2
v -0.4 0.6 -0.2
v -0.4 0.6 -0.3
v -0.4 0.7 0.2
v -0.4 0.7 -0.1
v -0.4 0.7 -0.2
v -0.4 0.8 0.3
v -0.4 0.8 0.2
v -0.4 0.8 0
v -0.4 0.8 -0.1
v -0.4 0.8 -0.2
v -0.4 0.9 0.3
v -0.4 0.9 0
v -0.4 0.9 -0.2
v -0.4 1.6 0.3
v -0.4 1.6 -0.2
v -0.4 1.7 0.3
v -0.4 1.7 -0.2
v -0.3 0 0.2
v -0.3 0 -0.1
v -0.3 0.1 0.2
v -0.3 0.1 0.1
v -0.3 0.1 0
v -0.3 0.1 -0.1
v -0.3 0.2 0.1
v -0.3 0.2 0
v -0.3 0.2 -0.1
v -0.3 0.3 0.1
v -0.3 0.3 -0.1
v -0.3 0.3 -0.2
v -0.3 0.3 -0.4
v -0.3 0.4 0.3
v -0.3 0.4 0.2
v -0.3 0.4 0.1
v -0.3 0.4 -0.1
v -0.3 0.4 -0.2
v -0.3 0.4 -0.3
v -0.3 0.5 0.3
v -0.3 0.5 0.2
v -0.3 0.5 -0.1
v -0.3 0.5 -0.2
v -0.3 0.6 -0.2
v -0.3 0.6 -0.3
v -0.3 0.6 -0.4
v -0.3 0.7 0.3
v -0.3 0.7 0.2
v -0.3 0.7 -0.1
v -0.3 0.7 -0.2
v -0.3 0.7 -0.3
v -0.3 0.8 0.3
v -0.3 0.8 0.2
v -0.3 0.8 -0.1
v -0.3 0.8 -0.2
v -0.3 0.8 -0.3
v -0.3 0.9 -0.2
v -0.3 0.9 -0.3
v -0.2 0.6 0.3
v -0.2 0.6 0.2
v -0.2 0.7 0.3
v -0.2 0.7 0.2
v -0.1 0.4 0.3
v -0.1 0.4 0.2
v -0.1 0.5 0.3
v -0.1 0.5 0.2
v 0.1 0.1 0.4
v 0.1 0.1 0.3
v 0.1 0.1 -0.1
v 0.1 0.2 0.3
v 0.1 0.2 0.2
v 0.1 0.3 0.3
v 0.1 0.3 0.2
v 0.1 0.3 -0.1
v 0.1 0.3 -0.2
v 0.1 0.3 -0.4
v 0.1 0.4 0.4
v 0.1 0.4 0.3
v 0.1 0.4 -0.2
v 0.1 0.4 -0.4
v 0.1 0.5 -0.3
v 0.1 0.5 -0.4
v 0.1 0.6 -0.2
v 0.1 0.6 -0.3
v 0.1 0.6 -0.4
v 0.1 0.7 -0.2
v 0.1 0.7 -0.3
v 0.2 0.4 0.3
v 0.2 0.4 0.2
v 0.2 0.5 0.3
v 0.2 0.5 0.2
v 0.4 1.3 0.4
v 0.4 1.3 0.3
v 0.4 1.4 0.4
v 0.4 1.4 0.3
v -0.4 1.3 0.4
v -0.4 1.3 0.3
v -0.4 1.4 0.4
v -0.4 1.4 0.3
v -0.3 0.5 0.4
v -0.3 0.5 0.3
v -0.3 0.6 0.3
v -0.3 0.6 0.2
v -0.3 0.7 0.4
v -0.3 0.7 0.3
v -0.3 0.7 0.2
v -0.2 0.4 0.3
v -0.2 0.4 0.2
v -0.2 0.5 0.3
v -0.2 0.5 0.2
v -0.2 0.7 0.3
v -0.2 0.7 0.2
v -0.2 0.8 0.3
v -0.2 0.8 0.2
v -0.1 0 0.2
v -0.1 0 -0.1
v -0.1 0.1 0.2
v -0.1 0.1 0.1
v -0.1 0.1 0
v -0.1 0.1 -0.1
v -0.1 0.2 0.1
v -0.1 0.2 0
v -0.1 0.3 0.1
v -0.1 0.3 -0.1
v -0.1 0.3 -0.2
v -0.1 0.3 -0.4
v -0.1 0.4 -0.2
v -0.1 0.4 -0.4
v -0.1 0.5 -0.3
v -0.1 0.5 -0.4
v -0.1 0.6 -0.2
v -0.1 0.6 -0.3
v -0.1 0.6 -0.4
v -0.1 0.7 -0.2
v -0.1 0.7 -0.3
v 0.1 0.4 0.3
v 0.1 0.4 0.2
v 0.1 0.5 0.3
v 0.1 0.5 0.2
v 0.2 0.6 0.3
v 0.2 0.6 0.2
v 0.2 0.7 0.3
v 0.2 0.7 0.2
v 0.3 0.1 0.4
v 0.3 0.1 0.3
v 0.3 0.1 -0.1
v 0.3 0.2 0.3
v 0.3 0.2 0.2
v 0.3 0.2 0.1
v 0.3 0.2 -0.1
v 0.3 0.3 0.3
v 0.3 0.3 0.2
v 0.3 0.3 0.1
v 0.3 0.3 -0.2
v 0.3 0.3 -0.4
v 0.3 0.4 0.4
v 0.3 0.4 0.3
v 0.3 0.4 0.2
v 0.3 0.4 0.1
v 0.3 0.4 -0.1
v 0.3 0.4 -0.2
v 0.3 0.4 -0.3
v 0.3 0.5 -0.1
v 0.3 0.5 -0.2
v 0.3 0.6 0.3
v 0.3 0.6 0.2
v 0.3 0.6 0.1
v 0.3 0.6 -0.2
v 0.3 0.6 -0.3
v 0.3 0.6 -0.4
v 0.3 0.7 0.2
v 0.3 0.7 0.1
v 0.3 0.7 -0.1
v 0.3 0.7 -0.2
v 0.3 0.7 -0.3
v 0.3 0.8 0.2
v 0.3 0.8 0.1
v 0.3 0.8 -0.1
v 0.3 0.8 -0.2
v 0.3 0.8 -0.3
v 0.3 0.9 -0.2
v 0.3 0.9 -0.3
v 0.4 0.2 0.1
v 0.4 0.2 -0.1
v 0.4 0.3 0.2
v 0.4 0.3 0.1
v 0.4 0.3 -0.1
v 0.4 0.3 -0.2
v 0.4 0.4 0.2
v 0.4 0.4 0.1
v 0.4 0.4 -0.1
v 0.4 0.4 -0.2
v 0.4 0.4 -0.3
v 0.4 0.5 -0.1
v 0.4 0.5 -0.2
v 0.4 0.6 0.2
v 0.4 0.6 0.1
v 0.4 0.6 -0.2
v 0.4 0.6 -0.3
v 0.4 0.7 0.2
v 0.4 0.7 0.1
v 0.4 0.7 -0.1
v 0.4 0.7 -0.2
v 0.4 0.8 0.3
v 0.4 0.8 0.1
v 0.4 0.8 0
v 0.4 0.8 -0.1
v 0.4 0.8 -0.2
v 0.4 0.9 0.3
v 0.4 0.9 0
v 0.4 0.9 -0.2
v 0.4 1.6 0.3
v 0.4 1.6 -0.2
v 0.4 1.7 0.3
v 0.4 1.7 -0.2
v 0.5 0.3 0.1
v 0.5 0.3 -0.1
v 0.5 0.4 0.1
v 0.5 0.4 -0.1
v 0.5 0.7 0.1
v 0.5 0.7 -0.1
v 0.5 0.9 0.3
v 0.5 0.9 0
v 0.5 0.9 -0.4
v 0.5 1.3 0.3
v 0.5 1.3 0
v 0.5 1.3 -0.3
v 0.5 1.5 0.4
v 0.5 1.5 -0.3
v 0.5 1.5 -0.4
v 0.5 1.6 0.4
v 0.5 1.6 -0.3
v 0.6 1.3 0.4
v 0.6 1.3 -0.3
v 0.6 1.5 0.4
v 0.6 1.5 -0.3
v -0.6 1.3 0.4
v -0.6 1.5 0.4
v -0.5 0.5 0.4
v -0.5 0.7 0.4
v -0.5 1.5 0.4
v -0.5 1.6 0.4
v -0.4 1.3 0.4
v -0.4 1.4 0.4
v -0.3 0.5 0.4
v -0.3 0.7 0.4
v 0.1 0.1 0.4
v 0.1 0.4 0.4
v 0.3 0.1 0.4
v 0.3 0.4 0.4
v 0.4 1.3 0.4
v 0.4 1.4 0.4
v 0.5 1.5 0.4
v 0.5 1.6 0.4
v 0.6 1.3 0.4
v 0.6 1.5 0.4
v -0.5 0.9 0.3
v -0.5 1.3 0.3
v -0.4 0.8 0.3
v -0.4 0.9 0.3
v -0.4 1.3 0.3
v -0.4 1.4 0.3
v -0.4 1.6 0.3
v -0.4 1.7 0.3
v -0.3 0.4 0.3
v -0.3 0.5 0.3
v -0.3 0.6 0.3
v -0.3 0.7 0.3
v -0.3 0.8 0.3
v -0.3 1.1 0.3
v -0.3 1.3 0.3
v -0.2 0.4 0.3
v -0.2 0.5 0.3
v -0.2 0.6 0.3
v -0.2 0.7 0.3
v -0.2 0.8 0.3
v -0.2 1.1 0.3
v -0.2 1.3 0.3
v -0.1 0.4 0.3
v -0.1 0.5 0.3
v -0.1 0.9 0.3
v -0.1 1 0.3
v -0.1 1.1 0.3
v -0.1 1.3 0.3
v 0.1 0.4 0.3
v 0.1 0.5 0.3
v 0.1 0.9 0.3
v 0.1 1 0.3
v 0.1 1.1 0.3
v 0.1 1.3 0.3
v 0.2 0.4 0.3
v 0.2 0.5 0.3
v 0.2 0.6 0.3
v 0.2 0.7 0.3
v 0.2 1.1 0.3
v 0.2 1.3 0.3
v 0.3 0.4 0.3
v 0.3 0.6 0.3
v 0.3 1.1 0.3
v 0.3 1.3 0.3
v 0.4 0.8 0.3
v 0.4 0.9 0.3
v 0.4 1.3 0.3
v 0.4 1.4 0.3
v 0.4 1.6 0.3
v 0.4 1.7 0.3
v 0.5 0.9 0.3
v 0.5 1.3 0.3
v -0.4 0.3 0.2
v -0.4 0.4 0.2
v -0.4 0.7 0.2
v -0.4 0.8 0.2
v -0.3 0 0.2
v -0.3 0.1 0.2
v -0.3 0.3 0.2
v -0.3 0.4 0.2
v -0.3 0.6 0.2
v -0.3 0.7 0.2
v -0.3 0.8 0.2
v -0.2 0.4 0.2
v -0.2 0.5 0.2
v -0.2 0.6 0.2
v -0.2 0.7 0.2
v -0.2 0.8 0.2
v -0.1 0 0.2
v -0.1 0.1 0.2
v -0.1 0.4 0.2
v -0.1 0.5 0.2
v 0.1 0.3 0.2
v 0.1 0.4 0.2
v 0.1 0.5 0.2
v 0.2 0.4 0.2
v 0.2 0.5 0.2
v 0.2 0.6 0.2
v 0.2 0.7 0.2
v 0.3 0.3 0.2
v 0.3 0.4 0.2
v 0.3 0.6 0.2
v 0.3 0.7 0.2
v 0.3 0.8 0.2
v 0.4 0.3 0.2
v 0.4 0.4 0.2
v 0.4 0.6 0.2
v 0.4 0.7 0.2
v -0.4 0.2 0.1
v -0.4 0.3 0.1
v -0.3 0.1 0.1
v -0.3 0.2 0.1
v -0.3 0.3 0.1
v -0.1 0.1 0.1
v -0.1 0.2 0.1
v -0.1 0.3 0.1
v 0.3 0.2 0.1
v 0.3 0.3 0.1
v 0.3 0.4 0.1
v 0.3 0.6 0.1
v 0.3 0.7 0.1
v 0.3 0.8 0.1
v 0.4 0.2 0.1
v 0.4 0.3 0.1
v 0.4 0.4 0.1
v 0.4 0.6 0.1
v 0.4 0.7 0.1
v 0.4 0.8 0.1
v 0.5 0.3 0.1
v 0.5 0.4 0.1
v 0.5 0.7 0.1
v -0.4 0.3 -0.1
v -0.4 0.4 -0.1
v -0.3 0.3 -0.1
v -0.3 0.4 -0.1
v -0.4 0.4 -0.2
v -0.4 0.5 -0.2
v -0.3 0.4 -0.2
v -0.3 0.5 -0.2
v 0.3 0.4 -0.2
v 0.3 0.5 -0.2
v 0.4 0.4 -0.2
v 0.4 0.5 -0.2
v 0.1 0.3 0.3
v 0.1 0.4 0.3
v 0.2 0.4 0.3
v 0.3 0.3 0.3
v 0.3 0.4 0.3
v -0.4 0.3 0.1
v -0.4 0.4 0.1
v -0.3 0.3 0.1
v -0.3 0.4 0.1
v -0.5 0.5 -0.1
v -0.5 0.7 -0.1
v -0.4 0.2 -0.1
v -0.4 0.3 -0.1
v -0.4 0.5 -0.1
v -0.4 0.7 -0.1
v -0.4 0.8 -0.1
v -0.3 0 -0.1
v -0.3 0.1 -0.1
v -0.3 0.2 -0.1
v -0.3 0.3 -0.1
v -0.3 0.7 -0.1
v -0.3 0.8 -0.1
v -0.1 0 -0.1
v -0.1 0.1 -0.1
v -0.1 0.3 -0.1
v 0.1 0.1 -0.1
v 0.1 0.3 -0.1
v 0.3 0.1 -0.1
v 0.3 0.2 -0.1
v 0.3 0.3 -0.1
v 0.3 0.4 -0.1
v 0.3 0.5 -0.1
v 0.3 0.7 -0.1
v 0.3 0.8 -0.1
v 0.4 0.2 -0.1
v 0.4 0.3 -0.1
v 0.4 0.4 -0.1
v 0.4 0.5 -0.1
v 0.4 0.7 -0.1
v 0.4 0.8 -0.1
v 0.5 0.3 -0.1
v 0.5 0.4 -0.1
v 0.5 0.7 -0.1
v -0.4 0.3 -0.2
v -0.4 0.4 -0.2
v -0.4 0.6 -0.2
v -0.4 0.7 -0.2
v -0.4 0.8 -0.2
v -0.4 0.9 -0.2
v -0.4 1.6 -0.2
v -0.4 1.7 -0.2
v -0.3 0.3 -0.2
v -0.3 0.4 -0.2
v -0.3 0.6 -0.2
v -0.3 0.7 -0.2
v -0.3 0.8 -0.2
v -0.3 0.9 -0.2
v -0.1 0.3 -0.2
v -0.1 0.4 -0.2
v -0.1 0.6 -0.2
v -0.1 0.7 -0.2
v 0.1 0.3 -0.2
v 0.1 0.4 -0.2
v 0.1 0.6 -0.2
v 0.1 0.7 -0.2
v 0.3 0.3 -0.2
v 0.3 0.4 -0.2
v 0.3 0.6 -0.2
v 0.3 0.7 -0.2
v 0.3 0.8 -0.2
v 0.3 0.9 -0.2
v 0.4 0.3 -0.2
v 0.4 0.4 -0.2
v 0.4 0.6 -0.2
v 0.4 0.7 -0.2
v 0.4 0.8 -0.2
v 0.4 0.9 -0.2
v 0.4 1.6 -0.2
v 0.4 1.7 -0.2
v -0.6 1.3 -0.3
v -0.6 1.5 -0.3
v -0.5 1.3 -0.3
v -0.5 1.5 -0.3
v -0.5 1.6 -0.3
v -0.4 0.4 -0.3
v -0.4 0.6 -0.3
v -0.3 0.4 -0.3
v -0.3 0.6 -0.3
v -0.3 0.7 -0.3
v -0.3 0.8 -0.3
v -0.3 0.9 -0.3
v -0.1 0.5 -0.3
v -0.1 0.6 -0.3
v -0.1 0.7 -0.3
v 0.1 0.5 -0.3
v 0.1 0.6 -0.3
v 0.1 0.7 -0.3
v 0.3 0.4 -0.3
v 0.3 0.6 -0.3
v 0.3 0.7 -0.3
v 0.3 0.8 -0.3
v 0.3 0.9 -0.3
v 0.4 0.4 -0.3
v 0.4 0.6 -0.3
v 0.5 1.3 -0.3
v 0.5 1.5 -0.3
v 0.5 1.6 -0.3
v 0.6 1.3 -0.3
v 0.6 1.5 -0.3
v -0.5 0.9 -0.4
v -0.5 1.5 -0.4
v -0.3 0.3 -0.4
v -0.3 0.6 -0.4
v -0.1 0.3 -0.4
v -0.1 0.4 -0.4
v -0.1 0.5 -0.4
v -0.1 0.6 -0.4
v 0.1 0.3 -0.4
v 0.1 0.4 -0.4
v 0.1 0.5 -0.4
v 0.1 0.6 -0.4
v 0.3 0.3 -0.4
v 0.3 0.6 -0.4
v 0.5 0.9 -0.4
v 0.5 1.5 -0.4
v -0.3 0 0.2
v -0.1 0 0.2
v -0.3 0 -0.1
v -0.1 0 -0.1
v 0.1 0.1 0.4
v 0.3 0.1 0.4
v 0.1 0.1 0.3
v 0.3 0.1 0.3
v 0.1 0.1 -0.1
v 0.3 0.1 -0.1
v -0.4 0.2 0.1
v -0.3 0.2 0.1
v 0.3 0.2 0.1
v 0.4 0.2 0.1
v -0.3 0.2 0
v -0.4 0.2 -0.1
v -0.3 0.2 -0.1
v 0.3 0.2 -0.1
v 0.4 0.2 -0.1
v -0.4 0.3 0.2
v -0.3 0.3 0.2
v 0.1 0.3 0.2
v 0.3 0.3 0.2
v 0.4 0.3 0.2
v -0.4 0.3 0.1
v -0.3 0.3 0.1
v -0.1 0.3 0.1
v 0.3 0.3 0.1
v 0.4 0.3 0.1
v 0.5 0.3 0.1
v -0.4 0.3 -0.1
v -0.3 0.3 -0.1
v -0.1 0.3 -0.1
v 0.1 0.3 -0.1
v 0.3 0.3 -0.1
v 0.4 0.3 -0.1
v 0.5 0.3 -0.1
v -0.4 0.3 -0.2
v -0.3 0.3 -0.2
v -0.1 0.3 -0.2
v 0.1 0.3 -0.2
v 0.3 0.3 -0.2
v 0.4 0.3 -0.2
v -0.3 0.3 -0.4
v -0.1 0.3 -0.4
v 0.1 0.3 -0.4
v 0.3 0.3 -0.4
v -0.3 0.4 0.3
v -0.2 0.4 0.3
v -0.1 0.4 0.3
v 0.1 0.4 0.3
v 0.2 0.4 0.3
v 0.3 0.4 0.3
v -0.3 0.4 0.2
v -0.2 0.4 0.2
v -0.1 0.4 0.2
v 0.1 0.4 0.2
v 0.2 0.4 0.2
v 0.3 0.4 0.2
v -0.4 0.4 -0.2
v -0.3 0.4 -0.2
v -0.1 0.4 -0.2
v 0.1 0.4 -0.2
v 0.3 0.4 -0.2
v 0.4 0.4 -0.2
v -0.4 0.4 -0.3
v -0.3 0.4 -0.3
v 0.3 0.4 -0.3
v 0.4 0.4 -0.3
v -0.1 0.4 -0.4
v 0.1 0.4 -0.4
v -0.5 0.5 0.4
v -0.3 0.5 0.4
v -0.5 0.5 0.3
v -0.3 0.5 0.3
v -0.2 0.5 0.3
v -0.1 0.5 0.3
v 0.1 0.5 0.3
v 0.2 0.5 0.3
v -0.3 0.5 0.2
v -0.2 0.5 0.2
v -0.1 0.5 0.2
v 0.1 0.5 0.2
v 0.2 0.5 0.2
v -0.5 0.5 -0.1
v -0.4 0.5 -0.1
v -0.3 0.5 -0.1
v 0.3 0.5 -0.1
v 0.4 0.5 -0.1
v -0.4 0.5 -0.2
v -0.3 0.5 -0.2
v 0.3 0.5 -0.2
v 0.4 0.5 -0.2
v 0.3 0.6 0.2
v 0.4 0.6 0.2
v 0.3 0.6 0.1
v 0.4 0.6 0.1
v -0.3 0.7 0.3
v -0.2 0.7 0.3
v -0.3 0.7 0.2
v -0.2 0.7 0.2
v -0.4 0.8 0.3
v -0.3 0.8 0.3
v -0.2 0.8 0.3
v 0.4 0.8 0.3
v -0.4 0.8 0.2
v -0.3 0.8 0.2
v -0.2 0.8 0.2
v 0.3 0.8 0.2
v 0.3 0.8 0.1
v 0.4 0.8 0.1
v -0.4 0.8 -0.1
v -0.3 0.8 -0.1
v 0.3 0.8 -0.1
v 0.4 0.8 -0.1
v -0.4 0.8 -0.2
v -0.3 0.8 -0.2
v 0.3 0.8 -0.2
v 0.4 0.8 -0.2
v -0.3 0.8 -0.3
v 0.3 0.8 -0.3
v -0.5 0.9 0.3
v -0.4 0.9 0.3
v 0.4 0.9 0.3
v 0.5 0.9 0.3
v -0.5 0.9 0
v -0.4 0.9 0
v 0.4 0.9 0
v 0.5 0.9 0
v -0.4 0.9 -0.2
v -0.3 0.9 -0.2
v 0.3 0.9 -0.2
v 0.4 0.9 -0.2
v -0.3 0.9 -0.3
v 0.3 0.9 -0.3
v -0.5 0.9 -0.4
v 0.5 0.9 -0.4
v -0.6 1.3 0.4
v -0.4 1.3 0.4
v 0.4 1.3 0.4
v 0.6 1.3 0.4
v -0.5 1.3 0.3
v -0.4 1.3 0.3
v 0.4 1.3 0.3
v 0.5 1.3 0.3
v -0.5 1.3 0
v 0.5 1.3 0
v -0.6 1.3 -0.3
v -0.5 1.3 -0.3
v 0.5 1.3 -0.3
v 0.6 1.3 -0.3
v -0.4 1.4 0.4
v 0.4 1.4 0.4
v -0.4 1.4 0.3
v 0.4 1.4 0.3
v -0.3 0.1 0.2
v -0.1 0.1 0.2
v -0.3 0.1 0.1
v -0.1 0.1 0.1
v 0.1 0.3 0.3
v 0.3 0.3 0.3
v 0.1 0.3 0.2
v 0.3 0.3 0.2
v -0.4 0.3 0.1
v -0.3 0.3 0.1
v -0.4 0.3 -0.1
v -0.3 0.3 -0.1
v 0.1 0.4 0.4
v 0.3 0.4 0.4
v 0.1 0.4 0.3
v 0.2 0.4 0.3
v 0.3 0.4 0.3
v -0.4 0.4 0.2
v -0.3 0.4 0.2
v 0.3 0.4 0.2
v 0.4 0.4 0.2
v -0.4 0.4 0.1
v -0.3 0.4 0.1
v 0.3 0.4 0.1
v 0.4 0.4 0.1
v -0.4 0.4 -0.1
v -0.3 0.4 -0.1
v 0.3 0.4 -0.1
v 0.4 0.4 -0.1
v -0.4 0.4 -0.2
v -0.3 0.4 -0.2
v 0.3 0.4 -0.2
v 0.4 0.4 -0.2
v -0.1 0.5 -0.3
v 0.1 0.5 -0.3
v -0.1 0.5 -0.4
v 0.1 0.5 -0.4
v -0.3 0.6 0.3
v -0.2 0.6 0.3
v 0.2 0.6 0.3
v 0.3 0.6 0.3
v -0.3 0.6 0.2
v -0.2 0.6 0.2
v 0.2 0.6 0.2
v 0.3 0.6 0.2
v -0.4 0.6 -0.2
v -0.3 0.6 -0.2
v -0.1 0.6 -0.2
v 0.1 0.6 -0.2
v 0.3 0.6 -0.2
v 0.4 0.6 -0.2
v -0.4 0.6 -0.3
v -0.3 0.6 -0.3
v -0.1 0.6 -0.3
v 0.1 0.6 -0.3
v 0.3 0.6 -0.3
v 0.4 0.6 -0.3
v -0.3 0.6 -0.4
v -0.1 0.6 -0.4
v 0.1 0.6 -0.4
v 0.3 0.6 -0.4
v -0.5 0.7 0.4
v -0.3 0.7 0.4
v -0.5 0.7 0.3
v -0.3 0.7 0.3
v -0.2 0.7 0.3
v 0.2 0.7 0.3
v -0.4 0.7 0.2
v -0.3 0.7 0.2
v -0.2 0.7 0.2
v 0.2 0.7 0.2
v 0.3 0.7 0.2
v 0.4 0.7 0.2
v 0.3 0.7 0.1
v 0.4 0.7 0.1
v 0.5 0.7 0.1
v -0.5 0.7 -0.1
v -0.4 0.7 -0.1
v -0.3 0.7 -0.1
v 0.3 0.7 -0.1
v 0.4 0.7 -0.1
v 0.5 0.7 -0.1
v -0.4 0.7 -0.2
v -0.3 0.7 -0.2
v -0.1 0.7 -0.2
v 0.1 0.7 -0.2
v 0.3 0.7 -0.2
v 0.4 0.7 -0.2
v -0.3 0.7 -0.3
v -0.1 0.7 -0.3
v 0.1 0.7 -0.3
v 0.3 0.7 -0.3
v -0.6 1.5 0.4
v -0.5 1.5 0.4
v 0.5 1.5 0.4
v 0.6 1.5 0.4
v -0.6 1.5 -0.3
v -0.5 1.5 -0.3
v 0.5 1.5 -0.3
v 0.6 1.5 -0.3
v -0.5 1.5 -0.4
v 0.5 1.5 -0.4
v -0.5 1.6 0.4
v 0.5 1.6 0.4
v -0.4 1.6 0.3
v 0.4 1.6 0.3
v -0.4 1.6 -0.2
v 0.4 1.6 -0.2
v -0.5 1.6 -0.3
v 0.5 1.6 -0.3
v -0.4 1.7 0.3
v 0.4 1.7 0.3
v -0.4 1.7 -0.2
v 0.4 1.7 -0.2

# faces
f 3/4/1 2/4/1 1/4/1
f 4/4/1 2/4/1 3/4/1
f 8/5/1 6/5/1 5/5/1
f 9/7/1 7/7/1 6/7/1
f 9/5/1 6/5/1 8/5/1
f 10/7/1 7/7/1 9/7/1
f 14/2/1 12/2/1 11/2/1
f 15/4/1 13/4/1 12/4/1
f 15/2/1 12/2/1 14/2/1
f 16/4/1 13/4/1 15/4/1
f 18/4/1 13/4/1 16/4/1
f 19/4/1 13/4/1 18/4/1
f 20/4/1 18/4/1 17/4/1
f 21/4/1 18/4/1 20/4/1
f 25/8/1 23/8/1 22/8/1
f 26/8/1 23/8/1 25/8/1
f 28/8/1 25/8/1 24/8/1
f 29/8/1 25/8/1 28/8/1
f 30/8/1 27/8/1 26/8/1
f 31/8/1 27/8/1 30/8/1
f 34/8/1 32/8/1 31/8/1
f 35/8/1 32/8/1 34/8/1
f 35/8/1 34/8/1 33/8/1
f 36/8/1 32/8/1 35/8/1
f 38/8/1 35/8/1 33/8/1
f 39/8/1 35/8/1 38/8/1
f 41/8/1 38/8/1 37/8/1
f 42/8/1 38/8/1 41/8/1
f 43/8/1 38/8/1 42/8/1
f 45/2/1 41/2/1 40/2/1
f 45/2/1 42/2/1 41/2/1
f 46/4/1 44/4/1 43/4/1
f 46/2/1 42/2/1 45/2/1
f 46/4/1 43/4/1 42/4/1
f 47/4/1 44/4/1 46/4/1
f 50/4/1 49/4/1 48/4/1
f 51/4/1 49/4/1 50/4/1
f 54/8/1 53/8/1 52/8/1
f 55/8/1 53/8/1 54/8/1
f 56/8/1 53/8/1 55/8/1
f 57/8/1 53/8/1 56/8/1
f 58/6/1 56/6/1 55/6/1
f 59/7/1 57/7/1 56/7/1
f 59/6/1 56/6/1 58/6/1
f 60/7/1 57/7/1 59/7/1
f 67/7/1 62/7/1 61/7/1
f 68/7/1 62/7/1 67/7/1
f 69/6/1 64/6/1 63/6/1
f 70/6/1 64/6/1 69/6/1
f 71/8/1 66/8/1 65/8/1
f 72/7/1 68/7/1 67/7/1
f 72/8/1 66/8/1 71/8/1
f 72/7/1 67/7/1 66/7/1
f 72/7/1 69/7/1 68/7/1
f 73/7/1 69/7/1 72/7/1
f 74/7/1 69/7/1 73/7/1
f 76/6/1 64/6/1 70/6/1
f 77/6/1 64/6/1 76/6/1
f 81/6/1 76/6/1 75/6/1
f 82/6/1 76/6/1 81/6/1
f 83/8/1 79/8/1 78/8/1
f 84/8/1 79/8/1 83/8/1
f 85/7/1 81/7/1 80/7/1
f 86/7/1 81/7/1 85/7/1
f 88/4/1 87/4/1 86/4/1
f 89/4/1 87/4/1 88/4/1
f 92/8/1 91/8/1 90/8/1
f 93/8/1 91/8/1 92/8/1
f 96/8/1 95/8/1 94/8/1
f 97/8/1 95/8/1 96/8/1
f 101/8/1 99/8/1 98/8/1
f 101/7/1 100/7/1 99/7/1
f 102/7/1 100/7/1 101/7/1
f 103/8/1 101/8/1 98/8/1
f 103/6/1 102/6/1 101/6/1
f 104/7/1 100/7/1 102/7/1
f 104/6/1 102/6/1 103/6/1
f 105/7/1 100/7/1 104/7/1
f 108/8/1 103/8/1 98/8/1
f 109/8/1 103/8/1 108/8/1
f 110/6/1 107/6/1 106/6/1
f 111/6/1 107/6/1 110/6/1
f 115/6/1 113/6/1 112/6/1
f 116/6/1 113/6/1 115/6/1
f 117/6/1 115/6/1 114/6/1
f 118/6/1 115/6/1 117/6/1
f 121/8/1 120/8/1 119/8/1
f 122/8/1 120/8/1 121/8/1
f 125/4/1 124/4/1 123/4/1
f 126/4/1 124/4/1 125/4/1
f 127/4/2 128/4/2 129/4/2
f 129/4/2 128/4/2 130/4/2
f 131/5/2 132/5/2 133/5/2
f 131/5/2 133/5/2 135/5/2
f 133/7/2 134/7/2 136/7/2
f 135/5/2 133/5/2 136/5/2
f 136/7/2 134/7/2 137/7/2
f 138/8/2 139/8/2 140/8/2
f 140/8/2 139/8/2 141/8/2
f 142/8/2 143/8/2 144/8/2
f 144/8/2 143/8/2 145/8/2
f 146/8/2 147/8/2 148/8/2
f 148/8/2 147/8/2 149/8/2
f 149/8/2 147/8/2 150/8/2
f 150/8/2 147/8/2 151/8/2
f 149/6/2 150/6/2 152/6/2
f 150/7/2 151/7/2 153/7/2
f 152/6/2 150/6/2 153/6/2
f 152/7/2 153/7/2 154/7/2
f 153/7/2 151/7/2 155/7/2
f 154/7/2 153/7/2 155/7/2
f 156/6/2 157/6/2 158/6/2
f 158/6/2 157/6/2 159/6/2
f 160/6/2 161/6/2 163/6/2
f 163/6/2 161/6/2 164/6/2
f 162/6/2 163/6/2 165/6/2
f 165/6/2 163/6/2 166/6/2
f 167/8/2 168/8/2 169/8/2
f 169/8/2 168/8/2 170/8/2
f 171/8/2 172/8/2 173/8/2
f 173/8/2 172/8/2 174/8/2
f 175/8/2 176/8/2 178/8/2
f 176/7/2 177/7/2 178/7/2
f 178/7/2 177/7/2 179/7/2
f 179/7/2 177/7/2 180/7/2
f 180/7/2 177/7/2 181/7/2
f 175/8/2 178/8/2 182/8/2
f 178/6/2 179/6/2 182/6/2
f 179/7/2 180/7/2 183/7/2
f 182/6/2 179/6/2 183/6/2
f 183/7/2 180/7/2 184/7/2
f 175/8/2 182/8/2 187/8/2
f 187/8/2 182/8/2 188/8/2
f 185/6/2 186/6/2 192/6/2
f 192/6/2 186/6/2 193/6/2
f 191/7/2 192/7/2 194/7/2
f 194/7/2 192/7/2 195/7/2
f 188/8/2 189/8/2 196/8/2
f 189/7/2 190/7/2 197/7/2
f 196/8/2 189/8/2 197/8/2
f 197/7/2 190/7/2 198/7/2
f 193/6/2 186/6/2 200/6/2
f 200/6/2 186/6/2 201/6/2
f 199/6/2 200/6/2 205/6/2
f 205/6/2 200/6/2 206/6/2
f 202/7/2 203/7/2 207/7/2
f 207/7/2 203/7/2 208/7/2
f 204/7/2 205/7/2 209/7/2
f 209/7/2 205/7/2 210/7/2
f 210/4/2 211/4/2 212/4/2
f 212/4/2 211/4/2 213/4/2
f 214/8/2 215/8/2 217/8/2
f 217/8/2 215/8/2 218/8/2
f 216/8/2 217/8/2 220/8/2
f 220/8/2 217/8/2 221/8/2
f 218/8/2 219/8/2 222/8/2
f 222/8/2 219/8/2 223/8/2
f 223/8/2 224/8/2 226/8/2
f 226/8/2 224/8/2 229/8/2
f 225/8/2 226/8/2 229/8/2
f 229/8/2 224/8/2 230/8/2
f 227/8/2 228/8/2 231/8/2
f 231/8/2 228/8/2 232/8/2
f 225/8/2 229/8/2 233/8/2
f 233/8/2 229/8/2 234/8/2
f 232/8/2 233/8/2 236/8/2
f 236/8/2 233/8/2 237/8/2
f 237/8/2 233/8/2 238/8/2
f 235/2/2 236/2/2 240/2/2
f 236/2/2 237/2/2 240/2/2
f 238/4/2 239/4/2 241/4/2
f 240/2/2 237/2/2 241/2/2
f 237/4/2 238/4/2 241/4/2
f 241/4/2 239/4/2 242/4/2
f 243/4/2 244/4/2 245/4/2
f 245/4/2 244/4/2 246/4/2
f 247/5/2 248/5/2 249/5/2
f 249/5/2 248/5/2 250/5/2
f 249/7/2 250/7/2 251/7/2
f 251/7/2 250/7/2 252/7/2
f 253/2/2 254/2/2 256/2/2
f 254/4/2 255/4/2 257/4/2
f 256/2/2 254/2/2 257/2/2
f 257/4/2 255/4/2 258/4/2
f 258/4/2 255/4/2 260/4/2
f 260/4/2 255/4/2 261/4/2
f 259/4/2 260/4/2 262/4/2
f 262/4/2 260/4/2 263/4/2
f 264/4/2 265/4/2 266/4/2
f 266/4/2 265/4/2 267/4/2
f 272/4/3 269/4/3 268/4/3
f 274/4/3 272/4/3 268/4/3
f 274/4/3 273/4/3 272/4/3
f 275/4/3 273/4/3 274/4/3
f 276/5/3 271/5/3 270/5/3
f 277/5/3 271/5/3 276/5/3
f 280/8/3 279/8/3 278/8/3
f 281/8/3 279/8/3 280/8/3
f 283/4/3 273/4/3 275/4/3
f 284/4/3 273/4/3 283/4/3
f 284/4/3 283/4/3 282/4/3
f 285/4/3 273/4/3 284/4/3
f 286/4/3 284/4/3 282/4/3
f 287/4/3 284/4/3 286/4/3
f 291/2/3 289/2/3 288/2/3
f 292/2/3 289/2/3 291/2/3
f 300/2/3 291/2/3 290/2/3
f 300/2/3 292/2/3 291/2/3
f 300/2/3 293/2/3 292/2/3
f 301/2/3 293/2/3 300/2/3
f 302/2/3 293/2/3 301/2/3
f 303/8/3 298/8/3 297/8/3
f 303/8/3 297/8/3 296/8/3
f 304/8/3 298/8/3 303/8/3
f 305/8/3 298/8/3 304/8/3
f 306/8/3 300/8/3 299/8/3
f 307/2/3 301/2/3 300/2/3
f 307/8/3 300/8/3 306/8/3
f 308/7/3 302/7/3 301/7/3
f 308/2/3 301/2/3 307/2/3
f 309/2/3 293/2/3 302/2/3
f 309/7/3 302/7/3 308/7/3
f 311/8/3 305/8/3 304/8/3
f 311/8/3 306/8/3 305/8/3
f 312/2/3 308/2/3 307/2/3
f 313/2/3 308/2/3 312/2/3
f 314/9/3 309/9/3 308/9/3
f 314/2/3 308/2/3 313/2/3
f 315/2/3 293/2/3 309/2/3
f 315/9/3 309/9/3 314/9/3
f 316/8/3 311/8/3 310/8/3
f 317/8/3 306/8/3 311/8/3
f 317/8/3 311/8/3 316/8/3
f 318/1/3 313/1/3 312/1/3
f 318/2/3 312/2/3 307/2/3
f 319/2/3 314/2/3 313/2/3
f 319/1/3 313/1/3 318/1/3
f 319/2/3 315/2/3 314/2/3
f 320/2/3 315/2/3 319/2/3
f 321/2/3 293/2/3 315/2/3
f 321/2/3 315/2/3 320/2/3
f 323/8/3 306/8/3 317/8/3
f 324/8/3 306/8/3 323/8/3
f 325/8/3 306/8/3 324/8/3
f 326/2/3 320/2/3 319/2/3
f 326/9/3 321/9/3 320/9/3
f 326/2/3 319/2/3 318/2/3
f 327/2/3 293/2/3 321/2/3
f 327/9/3 321/9/3 326/9/3
f 328/8/3 324/8/3 323/8/3
f 328/8/3 323/8/3 322/8/3
f 329/8/3 324/8/3 328/8/3
f 330/7/3 327/7/3 326/7/3
f 330/2/3 326/2/3 318/2/3
f 331/2/3 293/2/3 327/2/3
f 331/7/3 327/7/3 330/7/3
f 332/2/3 330/2/3 318/2/3
f 332/2/3 318/2/3 307/2/3
f 332/2/3 331/2/3 330/2/3
f 333/2/3 331/2/3 332/2/3
f 334/2/3 293/2/3 331/2/3
f 334/2/3 331/2/3 333/2/3
f 335/2/3 293/2/3 334/2/3
f 336/4/3 295/4/3 294/4/3
f 337/4/3 295/4/3 336/4/3
f 338/2/3 334/2/3 333/2/3
f 339/2/3 334/2/3 338/2/3
f 346/8/3 341/8/3 340/8/3
f 347/8/3 341/8/3 346/8/3
f 349/8/3 343/8/3 342/8/3
f 350/8/3 343/8/3 349/8/3
f 351/7/3 347/7/3 346/7/3
f 353/7/3 349/7/3 348/7/3
f 354/7/3 349/7/3 353/7/3
f 356/8/3 345/8/3 344/8/3
f 357/8/3 345/8/3 356/8/3
f 358/7/3 352/7/3 351/7/3
f 358/7/3 351/7/3 346/7/3
f 359/7/3 352/7/3 358/7/3
f 360/7/3 358/7/3 346/7/3
f 361/7/3 358/7/3 360/7/3
f 363/7/3 361/7/3 360/7/3
f 363/7/3 362/7/3 361/7/3
f 364/7/3 362/7/3 363/7/3
f 366/7/3 355/7/3 354/7/3
f 367/7/3 363/7/3 360/7/3
f 368/7/3 363/7/3 367/7/3
f 369/7/3 366/7/3 365/7/3
f 370/7/3 355/7/3 366/7/3
f 370/7/3 366/7/3 369/7/3
f 371/7/3 355/7/3 370/7/3
f 372/8/3 368/8/3 367/8/3
f 373/8/3 368/8/3 372/8/3
f 374/8/3 370/8/3 369/8/3
f 375/8/3 370/8/3 374/8/3
f 379/8/3 377/8/3 376/8/3
f 380/8/3 377/8/3 379/8/3
f 381/6/3 379/6/3 378/6/3
f 382/7/3 380/7/3 379/7/3
f 382/6/3 379/6/3 381/6/3
f 383/7/3 380/7/3 382/7/3
f 390/8/3 385/8/3 384/8/3
f 391/8/3 385/8/3 390/8/3
f 392/7/3 387/7/3 386/7/3
f 393/7/3 387/7/3 392/7/3
f 394/8/3 389/8/3 388/8/3
f 395/8/3 389/8/3 394/8/3
f 396/5/3 392/5/3 391/5/3
f 397/7/3 393/7/3 392/7/3
f 397/5/3 392/5/3 396/5/3
f 397/7/3 394/7/3 393/7/3
f 398/7/3 394/7/3 397/7/3
f 401/8/3 400/8/3 399/8/3
f 402/8/3 400/8/3 401/8/3
f 405/8/3 404/8/3 403/8/3
f 406/8/3 404/8/3 405/8/3
f 409/8/3 408/8/3 407/8/3
f 410/8/3 408/8/3 409/8/3
f 411/8/4 412/8/4 413/8/4
f 411/8/4 413/8/4 414/8/4
f 414/8/4 413/8/4 415/8/4
f 416/8/4 417/8/4 418/8/4
f 418/8/4 417/8/4 419/8/4
f 420/7/4 421/7/4 424/7/4
f 424/7/4 421/7/4 425/7/4
f 422/8/4 423/8/4 429/8/4
f 429/8/4 423/8/4 430/8/4
f 425/8/4 426/8/4 431/8/4
f 431/8/4 426/8/4 432/8/4
f 427/8/4 428/8/4 433/8/4
f 429/7/4 430/7/4 434/7/4
f 433/8/4 428/8/4 434/8/4
f 428/7/4 429/7/4 434/7/4
f 434/7/4 430/7/4 435/7/4
f 436/7/4 437/7/4 438/7/4
f 438/7/4 437/7/4 439/7/4
f 439/7/4 437/7/4 440/7/4
f 439/8/4 440/8/4 445/8/4
f 445/8/4 440/8/4 446/8/4
f 441/7/4 442/7/4 447/7/4
f 447/7/4 442/7/4 448/7/4
f 443/8/4 444/8/4 449/8/4
f 449/8/4 444/8/4 450/8/4
f 446/5/4 447/5/4 451/5/4
f 447/7/4 448/7/4 452/7/4
f 451/5/4 447/5/4 452/5/4
f 448/7/4 449/7/4 452/7/4
f 452/7/4 449/7/4 453/7/4
f 454/8/4 455/8/4 462/8/4
f 462/8/4 455/8/4 463/8/4
f 456/8/4 457/8/4 464/8/4
f 464/8/4 457/8/4 465/8/4
f 458/4/4 459/4/4 466/4/4
f 466/4/4 459/4/4 467/4/4
f 465/7/4 466/7/4 471/7/4
f 468/7/4 469/7/4 472/7/4
f 472/7/4 469/7/4 473/7/4
f 470/7/4 471/7/4 474/7/4
f 471/7/4 466/7/4 475/7/4
f 474/7/4 471/7/4 475/7/4
f 475/7/4 466/7/4 479/7/4
f 479/7/4 466/7/4 480/7/4
f 476/8/4 477/8/4 482/8/4
f 482/8/4 477/8/4 483/8/4
f 478/8/4 479/8/4 484/8/4
f 484/8/4 479/8/4 485/8/4
f 480/4/4 481/4/4 486/4/4
f 486/4/4 481/4/4 487/4/4
f 460/4/4 461/4/4 488/4/4
f 488/4/4 461/4/4 489/4/4
f 490/4/4 491/4/4 492/4/4
f 492/4/4 491/4/4 493/4/4
f 495/8/4 496/8/4 497/8/4
f 497/8/4 496/8/4 498/8/4
f 498/6/4 499/6/4 503/6/4
f 503/6/4 499/6/4 504/6/4
f 502/8/4 503/8/4 505/8/4
f 505/8/4 503/8/4 506/8/4
f 506/6/4 507/6/4 509/6/4
f 509/6/4 507/6/4 510/6/4
f 500/4/4 501/4/4 511/4/4
f 511/4/4 501/4/4 512/4/4
f 508/8/4 509/8/4 513/8/4
f 513/8/4 509/8/4 514/8/4
f 493/4/4 494/4/4 516/4/4
f 516/4/4 494/4/4 517/4/4
f 515/4/4 516/4/4 518/4/4
f 518/4/4 516/4/4 519/4/4
f 522/6/4 523/6/4 524/6/4
f 524/6/4 523/6/4 525/6/4
f 525/6/4 523/6/4 526/6/4
f 526/6/4 523/6/4 527/6/4
f 525/8/4 526/8/4 529/8/4
f 529/8/4 526/8/4 530/8/4
f 528/6/4 529/6/4 532/6/4
f 530/6/4 531/6/4 532/6/4
f 529/6/4 530/6/4 532/6/4
f 532/6/4 531/6/4 533/6/4
f 520/4/4 521/4/4 534/4/4
f 534/4/4 521/4/4 535/4/4
f 538/8/5 537/8/5 536/8/5
f 539/8/5 537/8/5 538/8/5
f 542/8/5 541/8/5 540/8/5
f 543/8/5 541/8/5 542/8/5
f 544/7/5 543/7/5 542/7/5
f 545/7/5 543/7/5 544/7/5
f 550/8/5 547/8/5 546/8/5
f 551/8/5 550/8/5 546/8/5
f 552/8/5 550/8/5 551/8/5
f 553/8/5 549/8/5 548/8/5
f 554/8/5 549/8/5 553/8/5
f 560/8/5 556/8/5 555/8/5
f 561/7/5 557/7/5 556/7/5
f 561/8/5 556/8/5 560/8/5
f 562/7/5 557/7/5 561/7/5
f 563/8/5 559/8/5 558/8/5
f 564/8/5 559/8/5 563/8/5
f 568/7/5 557/7/5 562/7/5
f 569/7/5 557/7/5 568/7/5
f 571/5/5 565/5/5 564/5/5
f 572/5/5 565/5/5 571/5/5
f 573/8/5 567/8/5 566/8/5
f 574/7/5 570/7/5 569/7/5
f 574/8/5 567/8/5 573/8/5
f 574/7/5 568/7/5 567/7/5
f 574/7/5 569/7/5 568/7/5
f 575/7/5 570/7/5 574/7/5
f 576/7/5 570/7/5 575/7/5
f 577/8/5 571/8/5 570/8/5
f 577/7/5 570/7/5 576/7/5
f 578/8/5 571/8/5 577/8/5
f 579/6/5 575/6/5 574/6/5
f 580/6/5 575/6/5 579/6/5
f 581/6/5 577/6/5 576/6/5
f 582/6/5 577/6/5 581/6/5
f 589/8/5 584/8/5 583/8/5
f 590/8/5 584/8/5 589/8/5
f 591/8/5 586/8/5 585/8/5
f 592/8/5 586/8/5 591/8/5
f 593/8/5 588/8/5 587/8/5
f 594/8/5 588/8/5 593/8/5
f 601/8/5 596/8/5 595/8/5
f 602/8/5 596/8/5 601/8/5
f 603/8/5 600/8/5 599/8/5
f 604/8/5 600/8/5 603/8/5
f 605/8/5 598/8/5 597/8/5
f 606/8/5 598/8/5 605/8/5
f 609/5/5 608/5/5 607/5/5
f 610/5/5 608/5/5 609/5/5
f 615/7/5 610/7/5 609/7/5
f 616/8/5 612/8/5 611/8/5
f 617/8/5 612/8/5 616/8/5
f 618/8/5 614/8/5 613/8/5
f 619/8/5 614/8/5 618/8/5
f 620/7/5 615/7/5 609/7/5
f 621/7/5 615/7/5 620/7/5
f 622/7/5 615/7/5 621/7/5
f 625/8/5 622/8/5 621/8/5
f 626/8/5 622/8/5 625/8/5
f 627/8/5 624/8/5 623/8/5
f 628/8/5 624/8/5 627/8/5
f 631/8/5 630/8/5 629/8/5
f 632/8/5 630/8/5 631/8/5
f 635/8/5 634/8/5 633/8/5
f 636/8/5 634/8/5 635/8/5
f 641/2/5 638/2/5 637/2/5
f 642/2/5 638/2/5 641/2/5
f 643/2/5 640/2/5 639/2/5
f 644/2/5 640/2/5 643/2/5
f 645/2/5 640/2/5 644/2/5
f 646/2/5 640/2/5 645/2/5
f 651/4/5 648/4/5 647/4/5
f 652/4/5 648/4/5 651/4/5
f 653/4/5 650/4/5 649/4/5
f 654/4/5 650/4/5 653/4/5
f 655/4/5 653/4/5 652/4/5
f 656/4/5 653/4/5 655/4/5
f 661/2/5 658/2/5 657/2/5
f 662/2/5 658/2/5 661/2/5
f 663/2/5 660/2/5 659/2/5
f 664/2/5 660/2/5 663/2/5
f 665/4/5 662/4/5 661/4/5
f 668/4/5 664/4/5 663/4/5
f 669/4/5 666/4/5 665/4/5
f 670/4/5 668/4/5 667/4/5
f 671/4/5 669/4/5 665/4/5
f 671/4/5 670/4/5 669/4/5
f 671/4/5 665/4/5 661/4/5
f 672/4/5 668/4/5 670/4/5
f 672/4/5 670/4/5 671/4/5
f 672/4/5 664/4/5 668/4/5
f 677/4/5 674/4/5 673/4/5
f 678/4/5 674/4/5 677/4/5
f 679/4/5 676/4/5 675/4/5
f 680/4/5 676/4/5 679/4/5
f 681/4/5 677/4/5 673/4/5
f 682/4/5 676/4/5 680/4/5
f 683/4/5 681/4/5 673/4/5
f 684/4/5 681/4/5 683/4/5
f 685/4/5 676/4/5 682/4/5
f 686/4/5 676/4/5 685/4/5
f 689/4/5 688/4/5 687/4/5
f 690/4/5 688/4/5 689/4/5
f 691/8/6 692/8/6 693/8/6
f 693/8/6 692/8/6 694/8/6
f 695/6/6 696/6/6 697/6/6
f 697/6/6 696/6/6 698/6/6
f 699/8/6 700/8/6 701/8/6
f 701/8/6 700/8/6 702/8/6
f 703/8/6 704/8/6 705/8/6
f 705/8/6 704/8/6 706/8/6
f 706/8/6 704/8/6 707/8/6
f 708/8/6 709/8/6 712/8/6
f 712/8/6 709/8/6 713/8/6
f 710/8/6 711/8/6 714/8/6
f 714/8/6 711/8/6 715/8/6
f 716/8/6 717/8/6 720/8/6
f 720/8/6 717/8/6 721/8/6
f 718/8/6 719/8/6 722/8/6
f 722/8/6 719/8/6 723/8/6
f 724/8/6 725/8/6 726/8/6
f 726/8/6 725/8/6 727/8/6
f 728/8/6 729/8/6 732/8/6
f 732/8/6 729/8/6 733/8/6
f 730/8/6 731/8/6 734/8/6
f 734/8/6 731/8/6 735/8/6
f 736/8/6 737/8/6 742/8/6
f 742/8/6 737/8/6 743/8/6
f 738/8/6 739/8/6 744/8/6
f 744/8/6 739/8/6 745/8/6
f 740/8/6 741/8/6 746/8/6
f 746/8/6 741/8/6 747/8/6
f 743/6/6 744/6/6 748/6/6
f 748/6/6 744/6/6 749/6/6
f 745/6/6 746/6/6 750/6/6
f 750/6/6 746/6/6 751/6/6
f 752/5/6 753/5/6 754/5/6
f 754/5/6 753/5/6 755/5/6
f 754/7/6 755/7/6 758/7/6
f 758/7/6 755/7/6 759/7/6
f 756/8/6 757/8/6 760/8/6
f 760/8/6 757/8/6 761/8/6
f 762/8/6 763/8/6 764/8/6
f 764/8/6 763/8/6 765/8/6
f 754/7/6 758/7/6 767/7/6
f 767/7/6 758/7/6 768/7/6
f 765/7/6 766/7/6 771/7/6
f 771/7/6 766/7/6 772/7/6
f 768/8/6 769/8/6 773/8/6
f 773/8/6 769/8/6 774/8/6
f 770/8/6 771/8/6 777/8/6
f 777/8/6 771/8/6 778/8/6
f 774/6/6 775/6/6 779/6/6
f 779/6/6 775/6/6 780/6/6
f 776/6/6 777/6/6 781/6/6
f 781/6/6 777/6/6 782/6/6
f 783/4/6 784/4/6 787/4/6
f 787/4/6 784/4/6 788/4/6
f 785/4/6 786/4/6 789/4/6
f 789/4/6 786/4/6 790/4/6
f 788/4/6 789/4/6 791/4/6
f 791/4/6 789/4/6 792/4/6
f 793/4/6 794/4/6 795/4/6
f 795/4/6 794/4/6 796/4/6
f 793/4/6 795/4/6 797/4/6
f 796/4/6 794/4/6 798/4/6
f 793/4/6 797/4/6 799/4/6
f 797/4/6 798/4/6 799/4/6
f 798/4/6 794/4/6 800/4/6
f 799/4/6 798/4/6 800/4/6
f 801/4/6 802/4/6 803/4/6
f 803/4/6 802/4/6 804/4/6
