# MagicaVoxel @ Ephtracy

# group
o 

# material
mtllib Astronautman.vox.mtl
usemtl palette

# normals
vn -1 0 0
vn 1 0 0
vn 0 0 1
vn 0 0 -1
vn 0 -1 0
vn 0 1 0

# texcoords
vt 0.0839844 0.5
vt 0.287109 0.5
vt 0.291016 0.5
vt 0.310547 0.5
vt 0.365234 0.5
vt 0.431641 0.5
vt 0.958984 0.5
vt 0.982422 0.5
vt 0.994141 0.5

# verts
v -0.6 1.3 0.4
v -0.6 1.3 -0.3
v -0.6 1.5 0.4
v -0.6 1.5 -0.3
v -0.5 0.3 0.1
v -0.5 0.3 -0.1
v -0.5 0.4 0.1
v -0.5 0.4 -0.1
v -0.5 0.7 0.1
v -0.5 0.7 -0.1
v -0.5 0.9 0.3
v -0.5 0.9 0
v -0.5 0.9 -0.4
v -0.5 1.3 0.3
v -0.5 1.3 0
v -0.5 1.3 -0.3
v -0.5 1.5 0.4
v -0.5 1.5 -0.3
v -0.5 1.5 -0.4
v -0.5 1.6 0.4
v -0.5 1.6 -0.3
v -0.4 0.2 0.1
v -0.4 0.2 -0.1
v -0.4 0.3 0.2
v -0.4 0.3 0.1
v -0.4 0.3 -0.1
v -0.4 0.3 -0.2
v -0.4 0.4 0.2
v -0.4 0.4 0.1
v -0.4 0.4 -0.1
v -0.4 0.4 -0.2
v -0.4 0.4 -0.3
v -0.4 0.5 -0.1
v -0.4 0.5 -0.2
v -0.4 0.6 0.2
v -0.4 0.6 0.1
v -0.4 0.6 -0.2
v -0.4 0.6 -0.3
v -0.4 0.7 0.2
v -0.4 0.7 0.1
v -0.4 0.7 -0.1
v -0.4 0.7 -0.2
v -0.4 0.8 0.3
v -0.4 0.8 0.1
v -0.4 0.8 0
v -0.4 0.8 -0.1
v -0.4 0.8 -0.2
v -0.4 0.9 0.3
v -0.4 0.9 0
v -0.4 0.9 -0.2
v -0.4 1.6 0.3
v -0.4 1.6 -0.2
v -0.4 1.7 0.3
v -0.4 1.7 -0.2
v -0.3 0 0.2
v -0.3 0 -0.1
v -0.3 0.1 0.2
v -0.3 0.1 0.1
v -0.3 0.1 0
v -0.3 0.1 -0.1
v -0.3 0.2 0.1
v -0.3 0.2 0
v -0.3 0.2 -0.1
v -0.3 0.3 -0.2
v -0.3 0.3 -0.4
v -0.3 0.4 0.3
v -0.3 0.4 0.2
v -0.3 0.4 0.1
v -0.3 0.4 -0.1
v -0.3 0.4 -0.2
v -0.3 0.4 -0.3
v -0.3 0.5 -0.1
v -0.3 0.5 -0.2
v -0.3 0.6 0.3
v -0.3 0.6 0.2
v -0.3 0.6 0.1
v -0.3 0.6 -0.2
v -0.3 0.6 -0.3
v -0.3 0.6 -0.4
v -0.3 0.7 0.2
v -0.3 0.7 0.1
v -0.3 0.7 -0.1
v -0.3 0.7 -0.2
v -0.3 0.7 -0.3
v -0.3 0.8 0.2
v -0.3 0.8 0.1
v -0.3 0.8 -0.1
v -0.3 0.8 -0.2
v -0.3 0.8 -0.3
v -0.3 0.9 -0.2
v -0.3 0.9 -0.3
v -0.2 0.6 0.3
v -0.2 0.6 0.2
v -0.2 0.7 0.3
v -0.2 0.7 0.2
v -0.1 0.4 0.3
v -0.1 0.4 0.2
v -0.1 0.5 0.3
v -0.1 0.5 0.2
v 0.1 0 0.2
v 0.1 0 -0.1
v 0.1 0.1 0.2
v 0.1 0.1 0.1
v 0.1 0.1 0
v 0.1 0.1 -0.1
v 0.1 0.2 0.1
v 0.1 0.2 0
v 0.1 0.3 0.1
v 0.1 0.3 -0.1
v 0.1 0.3 -0.2
v 0.1 0.3 -0.4
v 0.1 0.4 -0.2
v 0.1 0.4 -0.4
v 0.1 0.5 -0.3
v 0.1 0.5 -0.4
v 0.1 0.6 -0.2
v 0.1 0.6 -0.3
v 0.1 0.6 -0.4
v 0.1 0.7 -0.2
v 0.1 0.7 -0.3
v 0.2 0.4 0.3
v 0.2 0.4 0.2
v 0.2 0.5 0.3
v 0.2 0.5 0.2
v 0.4 1.3 0.4
v 0.4 1.3 0.3
v 0.4 1.4 0.4
v 0.4 1.4 0.3
v -0.4 1.3 0.4
v -0.4 1.3 0.3
v -0.4 1.4 0.4
v -0.4 1.4 0.3
v -0.2 0.4 0.3
v -0.2 0.4 0.2
v -0.2 0.5 0.3
v -0.2 0.5 0.2
v -0.1 0 0.2
v -0.1 0 -0.1
v -0.1 0.1 0.2
v -0.1 0.1 0.1
v -0.1 0.1 0
v -0.1 0.1 -0.1
v -0.1 0.2 0.1
v -0.1 0.2 0
v -0.1 0.3 0.1
v -0.1 0.3 -0.1
v -0.1 0.3 -0.2
v -0.1 0.3 -0.4
v -0.1 0.4 -0.2
v -0.1 0.4 -0.4
v -0.1 0.5 -0.3
v -0.1 0.5 -0.4
v -0.1 0.6 -0.2
v -0.1 0.6 -0.3
v -0.1 0.6 -0.4
v -0.1 0.7 -0.2
v -0.1 0.7 -0.3
v 0.1 0.4 0.3
v 0.1 0.4 0.2
v 0.1 0.5 0.3
v 0.1 0.5 0.2
v 0.2 0.6 0.3
v 0.2 0.6 0.2
v 0.2 0.7 0.3
v 0.2 0.7 0.2
v 0.3 0 0.2
v 0.3 0 -0.1
v 0.3 0.1 0.2
v 0.3 0.1 0.1
v 0.3 0.1 0
v 0.3 0.1 -0.1
v 0.3 0.2 0.1
v 0.3 0.2 0
v 0.3 0.2 -0.1
v 0.3 0.3 -0.2
v 0.3 0.3 -0.4
v 0.3 0.4 0.3
v 0.3 0.4 0.2
v 0.3 0.4 0.1
v 0.3 0.4 -0.1
v 0.3 0.4 -0.2
v 0.3 0.4 -0.3
v 0.3 0.5 -0.1
v 0.3 0.5 -0.2
v 0.3 0.6 0.3
v 0.3 0.6 0.2
v 0.3 0.6 0.1
v 0.3 0.6 -0.2
v 0.3 0.6 -0.3
v 0.3 0.6 -0.4
v 0.3 0.7 0.2
v 0.3 0.7 0.1
v 0.3 0.7 -0.1
v 0.3 0.7 -0.2
v 0.3 0.7 -0.3
v 0.3 0.8 0.2
v 0.3 0.8 0.1
v 0.3 0.8 -0.1
v 0.3 0.8 -0.2
v 0.3 0.8 -0.3
v 0.3 0.9 -0.2
v 0.3 0.9 -0.3
v 0.4 0.2 0.1
v 0.4 0.2 -0.1
v 0.4 0.3 0.2
v 0.4 0.3 0.1
v 0.4 0.3 -0.1
v 0.4 0.3 -0.2
v 0.4 0.4 0.2
v 0.4 0.4 0.1
v 0.4 0.4 -0.1
v 0.4 0.4 -0.2
v 0.4 0.4 -0.3
v 0.4 0.5 -0.1
v 0.4 0.5 -0.2
v 0.4 0.6 0.2
v 0.4 0.6 0.1
v 0.4 0.6 -0.2
v 0.4 0.6 -0.3
v 0.4 0.7 0.2
v 0.4 0.7 0.1
v 0.4 0.7 -0.1
v 0.4 0.7 -0.2
v 0.4 0.8 0.3
v 0.4 0.8 0.1
v 0.4 0.8 0
v 0.4 0.8 -0.1
v 0.4 0.8 -0.2
v 0.4 0.9 0.3
v 0.4 0.9 0
v 0.4 0.9 -0.2
v 0.4 1.6 0.3
v 0.4 1.6 -0.2
v 0.4 1.7 0.3
v 0.4 1.7 -0.2
v 0.5 0.3 0.1
v 0.5 0.3 -0.1
v 0.5 0.4 0.1
v 0.5 0.4 -0.1
v 0.5 0.7 0.1
v 0.5 0.7 -0.1
v 0.5 0.9 0.3
v 0.5 0.9 0
v 0.5 0.9 -0.4
v 0.5 1.3 0.3
v 0.5 1.3 0
v 0.5 1.3 -0.3
v 0.5 1.5 0.4
v 0.5 1.5 -0.3
v 0.5 1.5 -0.4
v 0.5 1.6 0.4
v 0.5 1.6 -0.3
v 0.6 1.3 0.4
v 0.6 1.3 -0.3
v 0.6 1.5 0.4
v 0.6 1.5 -0.3
v -0.6 1.3 0.4
v -0.6 1.5 0.4
v -0.5 1.5 0.4
v -0.5 1.6 0.4
v -0.4 1.3 0.4
v -0.4 1.4 0.4
v 0.4 1.3 0.4
v 0.4 1.4 0.4
v 0.5 1.5 0.4
v 0.5 1.6 0.4
v 0.6 1.3 0.4
v 0.6 1.5 0.4
v -0.5 0.9 0.3
v -0.5 1.3 0.3
v -0.4 0.8 0.3
v -0.4 0.9 0.3
v -0.4 1.3 0.3
v -0.4 1.4 0.3
v -0.4 1.6 0.3
v -0.4 1.7 0.3
v -0.3 0.4 0.3
v -0.3 0.6 0.3
v -0.3 1.1 0.3
v -0.3 1.3 0.3
v -0.2 0.4 0.3
v -0.2 0.5 0.3
v -0.2 0.6 0.3
v -0.2 0.7 0.3
v -0.2 1.1 0.3
v -0.2 1.3 0.3
v -0.1 0.4 0.3
v -0.1 0.5 0.3
v -0.1 0.9 0.3
v -0.1 1 0.3
v -0.1 1.1 0.3
v -0.1 1.3 0.3
v 0.1 0.4 0.3
v 0.1 0.5 0.3
v 0.1 0.9 0.3
v 0.1 1 0.3
v 0.1 1.1 0.3
v 0.1 1.3 0.3
v 0.2 0.4 0.3
v 0.2 0.5 0.3
v 0.2 0.6 0.3
v 0.2 0.7 0.3
v 0.2 1.1 0.3
v 0.2 1.3 0.3
v 0.3 0.4 0.3
v 0.3 0.6 0.3
v 0.3 1.1 0.3
v 0.3 1.3 0.3
v 0.4 0.8 0.3
v 0.4 0.9 0.3
v 0.4 1.3 0.3
v 0.4 1.4 0.3
v 0.4 1.6 0.3
v 0.4 1.7 0.3
v 0.5 0.9 0.3
v 0.5 1.3 0.3
v -0.4 0.3 0.2
v -0.4 0.4 0.2
v -0.4 0.6 0.2
v -0.4 0.7 0.2
v -0.3 0 0.2
v -0.3 0.1 0.2
v -0.3 0.3 0.2
v -0.3 0.4 0.2
v -0.3 0.6 0.2
v -0.3 0.7 0.2
v -0.3 0.8 0.2
v -0.2 0.4 0.2
v -0.2 0.5 0.2
v -0.2 0.6 0.2
v -0.2 0.7 0.2
v -0.1 0 0.2
v -0.1 0.1 0.2
v -0.1 0.4 0.2
v -0.1 0.5 0.2
v 0.1 0 0.2
v 0.1 0.1 0.2
v 0.1 0.4 0.2
v 0.1 0.5 0.2
v 0.2 0.4 0.2
v 0.2 0.5 0.2
v 0.2 0.6 0.2
v 0.2 0.7 0.2
v 0.3 0 0.2
v 0.3 0.1 0.2
v 0.3 0.3 0.2
v 0.3 0.4 0.2
v 0.3 0.6 0.2
v 0.3 0.7 0.2
v 0.3 0.8 0.2
v 0.4 0.3 0.2
v 0.4 0.4 0.2
v 0.4 0.6 0.2
v 0.4 0.7 0.2
v -0.5 0.3 0.1
v -0.5 0.4 0.1
v -0.5 0.7 0.1
v -0.4 0.2 0.1
v -0.4 0.3 0.1
v -0.4 0.4 0.1
v -0.4 0.6 0.1
v -0.4 0.7 0.1
v -0.4 0.8 0.1
v -0.3 0.1 0.1
v -0.3 0.2 0.1
v -0.3 0.3 0.1
v -0.3 0.4 0.1
v -0.3 0.6 0.1
v -0.3 0.7 0.1
v -0.3 0.8 0.1
v -0.1 0.1 0.1
v -0.1 0.2 0.1
v -0.1 0.3 0.1
v 0.1 0.1 0.1
v 0.1 0.2 0.1
v 0.1 0.3 0.1
v 0.3 0.1 0.1
v 0.3 0.2 0.1
v 0.3 0.3 0.1
v 0.3 0.4 0.1
v 0.3 0.6 0.1
v 0.3 0.7 0.1
v 0.3 0.8 0.1
v 0.4 0.2 0.1
v 0.4 0.3 0.1
v 0.4 0.4 0.1
v 0.4 0.6 0.1
v 0.4 0.7 0.1
v 0.4 0.8 0.1
v 0.5 0.3 0.1
v 0.5 0.4 0.1
v 0.5 0.7 0.1
v -0.4 0.4 -0.2
v -0.4 0.5 -0.2
v -0.3 0.4 -0.2
v -0.3 0.5 -0.2
v 0.3 0.4 -0.2
v 0.3 0.5 -0.2
v 0.4 0.4 -0.2
v 0.4 0.5 -0.2
v -0.5 0.3 -0.1
v -0.5 0.4 -0.1
v -0.5 0.7 -0.1
v -0.4 0.2 -0.1
v -0.4 0.3 -0.1
v -0.4 0.4 -0.1
v -0.4 0.5 -0.1
v -0.4 0.7 -0.1
v -0.4 0.8 -0.1
v -0.3 0 -0.1
v -0.3 0.1 -0.1
v -0.3 0.2 -0.1
v -0.3 0.3 -0.1
v -0.3 0.4 -0.1
v -0.3 0.5 -0.1
v -0.3 0.7 -0.1
v -0.3 0.8 -0.1
v -0.1 0 -0.1
v -0.1 0.1 -0.1
v -0.1 0.3 -0.1
v 0.1 0 -0.1
v 0.1 0.1 -0.1
v 0.1 0.3 -0.1
v 0.3 0 -0.1
v 0.3 0.1 -0.1
v 0.3 0.2 -0.1
v 0.3 0.3 -0.1
v 0.3 0.4 -0.1
v 0.3 0.5 -0.1
v 0.3 0.7 -0.1
v 0.3 0.8 -0.1
v 0.4 0.2 -0.1
v 0.4 0.3 -0.1
v 0.4 0.4 -0.1
v 0.4 0.5 -0.1
v 0.4 0.7 -0.1
v 0.4 0.8 -0.1
v 0.5 0.3 -0.1
v 0.5 0.4 -0.1
v 0.5 0.7 -0.1
v -0.4 0.3 -0.2
v -0.4 0.4 -0.2
v -0.4 0.6 -0.2
v -0.4 0.7 -0.2
v -0.4 0.8 -0.2
v -0.4 0.9 -0.2
v -0.4 1.6 -0.2
v -0.4 1.7 -0.2
v -0.3 0.3 -0.2
v -0.3 0.4 -0.2
v -0.3 0.6 -0.2
v -0.3 0.7 -0.2
v -0.3 0.8 -0.2
v -0.3 0.9 -0.2
v -0.1 0.3 -0.2
v -0.1 0.4 -0.2
v -0.1 0.6 -0.2
v -0.1 0.7 -0.2
v 0.1 0.3 -0.2
v 0.1 0.4 -0.2
v 0.1 0.6 -0.2
v 0.1 0.7 -0.2
v 0.3 0.3 -0.2
v 0.3 0.4 -0.2
v 0.3 0.6 -0.2
v 0.3 0.7 -0.2
v 0.3 0.8 -0.2
v 0.3 0.9 -0.2
v 0.4 0.3 -0.2
v 0.4 0.4 -0.2
v 0.4 0.6 -0.2
v 0.4 0.7 -0.2
v 0.4 0.8 -0.2
v 0.4 0.9 -0.2
v 0.4 1.6 -0.2
v 0.4 1.7 -0.2
v -0.6 1.3 -0.3
v -0.6 1.5 -0.3
v -0.5 1.3 -0.3
v -0.5 1.5 -0.3
v -0.5 1.6 -0.3
v -0.4 0.4 -0.3
v -0.4 0.6 -0.3
v -0.3 0.4 -0.3
v -0.3 0.6 -0.3
v -0.3 0.7 -0.3
v -0.3 0.8 -0.3
v -0.3 0.9 -0.3
v -0.1 0.5 -0.3
v -0.1 0.6 -0.3
v -0.1 0.7 -0.3
v 0.1 0.5 -0.3
v 0.1 0.6 -0.3
v 0.1 0.7 -0.3
v 0.3 0.4 -0.3
v 0.3 0.6 -0.3
v 0.3 0.7 -0.3
v 0.3 0.8 -0.3
v 0.3 0.9 -0.3
v 0.4 0.4 -0.3
v 0.4 0.6 -0.3
v 0.5 1.3 -0.3
v 0.5 1.5 -0.3
v 0.5 1.6 -0.3
v 0.6 1.3 -0.3
v 0.6 1.5 -0.3
v -0.5 0.9 -0.4
v -0.5 1.5 -0.4
v -0.3 0.3 -0.4
v -0.3 0.6 -0.4
v -0.1 0.3 -0.4
v -0.1 0.4 -0.4
v -0.1 0.5 -0.4
v -0.1 0.6 -0.4
v 0.1 0.3 -0.4
v 0.1 0.4 -0.4
v 0.1 0.5 -0.4
v 0.1 0.6 -0.4
v 0.3 0.3 -0.4
v 0.3 0.6 -0.4
v 0.5 0.9 -0.4
v 0.5 1.5 -0.4
v -0.3 0 0.2
v -0.1 0 0.2
v 0.1 0 0.2
v 0.3 0 0.2
v -0.3 0 -0.1
v -0.1 0 -0.1
v 0.1 0 -0.1
v 0.3 0 -0.1
v -0.4 0.2 0.1
v -0.3 0.2 0.1
v 0.3 0.2 0.1
v 0.4 0.2 0.1
v -0.3 0.2 0
v 0.3 0.2 0
v -0.4 0.2 -0.1
v -0.3 0.2 -0.1
v 0.3 0.2 -0.1
v 0.4 0.2 -0.1
v -0.4 0.3 0.2
v -0.3 0.3 0.2
v 0.3 0.3 0.2
v 0.4 0.3 0.2
v -0.5 0.3 0.1
v -0.4 0.3 0.1
v -0.3 0.3 0.1
v -0.1 0.3 0.1
v 0.1 0.3 0.1
v 0.3 0.3 0.1
v 0.4 0.3 0.1
v 0.5 0.3 0.1
v -0.5 0.3 -0.1
v -0.4 0.3 -0.1
v -0.3 0.3 -0.1
v -0.1 0.3 -0.1
v 0.1 0.3 -0.1
v 0.3 0.3 -0.1
v 0.4 0.3 -0.1
v 0.5 0.3 -0.1
v -0.4 0.3 -0.2
v -0.3 0.3 -0.2
v -0.1 0.3 -0.2
v 0.1 0.3 -0.2
v 0.3 0.3 -0.2
v 0.4 0.3 -0.2
v -0.3 0.3 -0.4
v -0.1 0.3 -0.4
v 0.1 0.3 -0.4
v 0.3 0.3 -0.4
v -0.3 0.4 0.3
v -0.2 0.4 0.3
v -0.1 0.4 0.3
v 0.1 0.4 0.3
v 0.2 0.4 0.3
v 0.3 0.4 0.3
v -0.3 0.4 0.2
v -0.2 0.4 0.2
v -0.1 0.4 0.2
v 0.1 0.4 0.2
v 0.2 0.4 0.2
v 0.3 0.4 0.2
v -0.4 0.4 -0.2
v -0.3 0.4 -0.2
v -0.1 0.4 -0.2
v 0.1 0.4 -0.2
v 0.3 0.4 -0.2
v 0.4 0.4 -0.2
v -0.4 0.4 -0.3
v -0.3 0.4 -0.3
v 0.3 0.4 -0.3
v 0.4 0.4 -0.3
v -0.1 0.4 -0.4
v 0.1 0.4 -0.4
v -0.2 0.5 0.3
v -0.1 0.5 0.3
v 0.1 0.5 0.3
v 0.2 0.5 0.3
v -0.2 0.5 0.2
v -0.1 0.5 0.2
v 0.1 0.5 0.2
v 0.2 0.5 0.2
v -0.4 0.5 -0.1
v -0.3 0.5 -0.1
v 0.3 0.5 -0.1
v 0.4 0.5 -0.1
v -0.4 0.5 -0.2
v -0.3 0.5 -0.2
v 0.3 0.5 -0.2
v 0.4 0.5 -0.2
v -0.4 0.6 0.2
v -0.3 0.6 0.2
v 0.3 0.6 0.2
v 0.4 0.6 0.2
v -0.4 0.6 0.1
v -0.3 0.6 0.1
v 0.3 0.6 0.1
v 0.4 0.6 0.1
v -0.4 0.8 0.3
v 0.4 0.8 0.3
v -0.3 0.8 0.2
v 0.3 0.8 0.2
v -0.4 0.8 0.1
v -0.3 0.8 0.1
v 0.3 0.8 0.1
v 0.4 0.8 0.1
v -0.4 0.8 -0.1
v -0.3 0.8 -0.1
v 0.3 0.8 -0.1
v 0.4 0.8 -0.1
v -0.4 0.8 -0.2
v -0.3 0.8 -0.2
v 0.3 0.8 -0.2
v 0.4 0.8 -0.2
v -0.3 0.8 -0.3
v 0.3 0.8 -0.3
v -0.5 0.9 0.3
v -0.4 0.9 0.3
v 0.4 0.9 0.3
v 0.5 0.9 0.3
v -0.5 0.9 0
v -0.4 0.9 0
v 0.4 0.9 0
v 0.5 0.9 0
v -0.4 0.9 -0.2
v -0.3 0.9 -0.2
v 0.3 0.9 -0.2
v 0.4 0.9 -0.2
v -0.3 0.9 -0.3
v 0.3 0.9 -0.3
v -0.5 0.9 -0.4
v 0.5 0.9 -0.4
v -0.6 1.3 0.4
v -0.4 1.3 0.4
v 0.4 1.3 0.4
v 0.6 1.3 0.4
v -0.5 1.3 0.3
v -0.4 1.3 0.3
v 0.4 1.3 0.3
v 0.5 1.3 0.3
v -0.5 1.3 0
v 0.5 1.3 0
v -0.6 1.3 -0.3
v -0.5 1.3 -0.3
v 0.5 1.3 -0.3
v 0.6 1.3 -0.3
v -0.4 1.4 0.4
v 0.4 1.4 0.4
v -0.4 1.4 0.3
v 0.4 1.4 0.3
v -0.3 0.1 0.2
v -0.1 0.1 0.2
v 0.1 0.1 0.2
v 0.3 0.1 0.2
v -0.3 0.1 0.1
v -0.1 0.1 0.1
v 0.1 0.1 0.1
v 0.3 0.1 0.1
v -0.4 0.4 0.2
v -0.3 0.4 0.2
v 0.3 0.4 0.2
v 0.4 0.4 0.2
v -0.4 0.4 0.1
v -0.3 0.4 0.1
v 0.3 0.4 0.1
v 0.4 0.4 0.1
v -0.4 0.4 -0.1
v -0.3 0.4 -0.1
v 0.3 0.4 -0.1
v 0.4 0.4 -0.1
v -0.4 0.4 -0.2
v -0.3 0.4 -0.2
v 0.3 0.4 -0.2
v 0.4 0.4 -0.2
v -0.1 0.5 -0.3
v 0.1 0.5 -0.3
v -0.1 0.5 -0.4
v 0.1 0.5 -0.4
v -0.3 0.6 0.3
v -0.2 0.6 0.3
v 0.2 0.6 0.3
v 0.3 0.6 0.3
v -0.3 0.6 0.2
v -0.2 0.6 0.2
v 0.2 0.6 0.2
v 0.3 0.6 0.2
v -0.4 0.6 -0.2
v -0.3 0.6 -0.2
v -0.1 0.6 -0.2
v 0.1 0.6 -0.2
v 0.3 0.6 -0.2
v 0.4 0.6 -0.2
v -0.4 0.6 -0.3
v -0.3 0.6 -0.3
v -0.1 0.6 -0.3
v 0.1 0.6 -0.3
v 0.3 0.6 -0.3
v 0.4 0.6 -0.3
v -0.3 0.6 -0.4
v -0.1 0.6 -0.4
v 0.1 0.6 -0.4
v 0.3 0.6 -0.4
v -0.2 0.7 0.3
v 0.2 0.7 0.3
v -0.4 0.7 0.2
v -0.3 0.7 0.2
v -0.2 0.7 0.2
v 0.2 0.7 0.2
v 0.3 0.7 0.2
v 0.4 0.7 0.2
v -0.5 0.7 0.1
v -0.4 0.7 0.1
v -0.3 0.7 0.1
v 0.3 0.7 0.1
v 0.4 0.7 0.1
v 0.5 0.7 0.1
v -0.5 0.7 -0.1
v -0.4 0.7 -0.1
v -0.3 0.7 -0.1
v 0.3 0.7 -0.1
v 0.4 0.7 -0.1
v 0.5 0.7 -0.1
v -0.4 0.7 -0.2
v -0.3 0.7 -0.2
v -0.1 0.7 -0.2
v 0.1 0.7 -0.2
v 0.3 0.7 -0.2
v 0.4 0.7 -0.2
v -0.3 0.7 -0.3
v -0.1 0.7 -0.3
v 0.1 0.7 -0.3
v 0.3 0.7 -0.3
v -0.6 1.5 0.4
v -0.5 1.5 0.4
v 0.5 1.5 0.4
v 0.6 1.5 0.4
v -0.6 1.5 -0.3
v -0.5 1.5 -0.3
v 0.5 1.5 -0.3
v 0.6 1.5 -0.3
v -0.5 1.5 -0.4
v 0.5 1.5 -0.4
v -0.5 1.6 0.4
v 0.5 1.6 0.4
v -0.4 1.6 0.3
v 0.4 1.6 0.3
v -0.4 1.6 -0.2
v 0.4 1.6 -0.2
v -0.5 1.6 -0.3
v 0.5 1.6 -0.3
v -0.4 1.7 0.3
v 0.4 1.7 0.3
v -0.4 1.7 -0.2
v 0.4 1.7 -0.2

# faces
f 3/4/1 2/4/1 1/4/1
f 4/4/1 2/4/1 3/4/1
f 7/5/1 6/5/1 5/5/1
f 8/5/1 6/5/1 7/5/1
f 9/7/1 8/7/1 7/7/1
f 10/7/1 8/7/1 9/7/1
f 14/2/1 12/2/1 11/2/1
f 15/4/1 13/4/1 12/4/1
f 15/2/1 12/2/1 14/2/1
f 16/4/1 13/4/1 15/4/1
f 18/4/1 13/4/1 16/4/1
f 19/4/1 13/4/1 18/4/1
f 20/4/1 18/4/1 17/4/1
f 21/4/1 18/4/1 20/4/1
f 25/8/1 23/8/1 22/8/1
f 26/8/1 23/8/1 25/8/1
f 28/8/1 25/8/1 24/8/1
f 29/8/1 25/8/1 28/8/1
f 30/8/1 27/8/1 26/8/1
f 31/8/1 27/8/1 30/8/1
f 34/8/1 32/8/1 31/8/1
f 37/8/1 32/8/1 34/8/1
f 37/8/1 34/8/1 33/8/1
f 38/8/1 32/8/1 37/8/1
f 39/8/1 36/8/1 35/8/1
f 40/8/1 36/8/1 39/8/1
f 41/8/1 37/8/1 33/8/1
f 42/8/1 37/8/1 41/8/1
f 44/8/1 41/8/1 40/8/1
f 45/8/1 41/8/1 44/8/1
f 46/8/1 41/8/1 45/8/1
f 48/2/1 44/2/1 43/2/1
f 48/2/1 45/2/1 44/2/1
f 49/4/1 47/4/1 46/4/1
f 49/2/1 45/2/1 48/2/1
f 49/4/1 46/4/1 45/4/1
f 50/4/1 47/4/1 49/4/1
f 53/4/1 52/4/1 51/4/1
f 54/4/1 52/4/1 53/4/1
f 57/8/1 56/8/1 55/8/1
f 58/8/1 56/8/1 57/8/1
f 59/8/1 56/8/1 58/8/1
f 60/8/1 56/8/1 59/8/1
f 61/6/1 59/6/1 58/6/1
f 62/7/1 60/7/1 59/7/1
f 62/6/1 59/6/1 61/6/1
f 63/7/1 60/7/1 62/7/1
f 70/6/1 65/6/1 64/6/1
f 71/6/1 65/6/1 70/6/1
f 72/7/1 70/7/1 69/7/1
f 73/7/1 70/7/1 72/7/1
f 74/8/1 67/8/1 66/8/1
f 75/7/1 68/7/1 67/7/1
f 75/8/1 67/8/1 74/8/1
f 76/7/1 68/7/1 75/7/1
f 78/6/1 65/6/1 71/6/1
f 79/6/1 65/6/1 78/6/1
f 83/6/1 78/6/1 77/6/1
f 84/6/1 78/6/1 83/6/1
f 85/7/1 81/7/1 80/7/1
f 86/7/1 81/7/1 85/7/1
f 87/7/1 83/7/1 82/7/1
f 88/7/1 83/7/1 87/7/1
f 90/4/1 89/4/1 88/4/1
f 91/4/1 89/4/1 90/4/1
f 94/8/1 93/8/1 92/8/1
f 95/8/1 93/8/1 94/8/1
f 98/8/1 97/8/1 96/8/1
f 99/8/1 97/8/1 98/8/1
f 102/8/1 101/8/1 100/8/1
f 103/8/1 101/8/1 102/8/1
f 104/8/1 101/8/1 103/8/1
f 105/8/1 101/8/1 104/8/1
f 106/6/1 104/6/1 103/6/1
f 107/7/1 105/7/1 104/7/1
f 107/6/1 104/6/1 106/6/1
f 108/7/1 107/7/1 106/7/1
f 109/7/1 105/7/1 107/7/1
f 109/7/1 107/7/1 108/7/1
f 112/6/1 111/6/1 110/6/1
f 113/6/1 111/6/1 112/6/1
f 117/6/1 115/6/1 114/6/1
f 118/6/1 115/6/1 117/6/1
f 119/6/1 117/6/1 116/6/1
f 120/6/1 117/6/1 119/6/1
f 123/8/1 122/8/1 121/8/1
f 124/8/1 122/8/1 123/8/1
f 127/4/1 126/4/1 125/4/1
f 128/4/1 126/4/1 127/4/1
f 129/4/2 130/4/2 131/4/2
f 131/4/2 130/4/2 132/4/2
f 133/8/2 134/8/2 135/8/2
f 135/8/2 134/8/2 136/8/2
f 137/8/2 138/8/2 139/8/2
f 139/8/2 138/8/2 140/8/2
f 140/8/2 138/8/2 141/8/2
f 141/8/2 138/8/2 142/8/2
f 140/6/2 141/6/2 143/6/2
f 141/7/2 142/7/2 144/7/2
f 143/6/2 141/6/2 144/6/2
f 143/7/2 144/7/2 145/7/2
f 144/7/2 142/7/2 146/7/2
f 145/7/2 144/7/2 146/7/2
f 147/6/2 148/6/2 149/6/2
f 149/6/2 148/6/2 150/6/2
f 151/6/2 152/6/2 154/6/2
f 154/6/2 152/6/2 155/6/2
f 153/6/2 154/6/2 156/6/2
f 156/6/2 154/6/2 157/6/2
f 158/8/2 159/8/2 160/8/2
f 160/8/2 159/8/2 161/8/2
f 162/8/2 163/8/2 164/8/2
f 164/8/2 163/8/2 165/8/2
f 166/8/2 167/8/2 168/8/2
f 168/8/2 167/8/2 169/8/2
f 169/8/2 167/8/2 170/8/2
f 170/8/2 167/8/2 171/8/2
f 169/6/2 170/6/2 172/6/2
f 170/7/2 171/7/2 173/7/2
f 172/6/2 170/6/2 173/6/2
f 173/7/2 171/7/2 174/7/2
f 175/6/2 176/6/2 181/6/2
f 181/6/2 176/6/2 182/6/2
f 180/7/2 181/7/2 183/7/2
f 183/7/2 181/7/2 184/7/2
f 177/8/2 178/8/2 185/8/2
f 178/7/2 179/7/2 186/7/2
f 185/8/2 178/8/2 186/8/2
f 186/7/2 179/7/2 187/7/2
f 182/6/2 176/6/2 189/6/2
f 189/6/2 176/6/2 190/6/2
f 188/6/2 189/6/2 194/6/2
f 194/6/2 189/6/2 195/6/2
f 191/7/2 192/7/2 196/7/2
f 196/7/2 192/7/2 197/7/2
f 193/7/2 194/7/2 198/7/2
f 198/7/2 194/7/2 199/7/2
f 199/4/2 200/4/2 201/4/2
f 201/4/2 200/4/2 202/4/2
f 203/8/2 204/8/2 206/8/2
f 206/8/2 204/8/2 207/8/2
f 205/8/2 206/8/2 209/8/2
f 209/8/2 206/8/2 210/8/2
f 207/8/2 208/8/2 211/8/2
f 211/8/2 208/8/2 212/8/2
f 212/8/2 213/8/2 215/8/2
f 215/8/2 213/8/2 218/8/2
f 214/8/2 215/8/2 218/8/2
f 218/8/2 213/8/2 219/8/2
f 216/8/2 217/8/2 220/8/2
f 220/8/2 217/8/2 221/8/2
f 214/8/2 218/8/2 222/8/2
f 222/8/2 218/8/2 223/8/2
f 221/8/2 222/8/2 225/8/2
f 225/8/2 222/8/2 226/8/2
f 226/8/2 222/8/2 227/8/2
f 224/2/2 225/2/2 229/2/2
f 225/2/2 226/2/2 229/2/2
f 227/4/2 228/4/2 230/4/2
f 229/2/2 226/2/2 230/2/2
f 226/4/2 227/4/2 230/4/2
f 230/4/2 228/4/2 231/4/2
f 232/4/2 233/4/2 234/4/2
f 234/4/2 233/4/2 235/4/2
f 236/5/2 237/5/2 238/5/2
f 238/5/2 237/5/2 239/5/2
f 238/7/2 239/7/2 240/7/2
f 240/7/2 239/7/2 241/7/2
f 242/2/2 243/2/2 245/2/2
f 243/4/2 244/4/2 246/4/2
f 245/2/2 243/2/2 246/2/2
f 246/4/2 244/4/2 247/4/2
f 247/4/2 244/4/2 249/4/2
f 249/4/2 244/4/2 250/4/2
f 248/4/2 249/4/2 251/4/2
f 251/4/2 249/4/2 252/4/2
f 253/4/2 254/4/2 255/4/2
f 255/4/2 254/4/2 256/4/2
f 259/4/3 258/4/3 257/4/3
f 261/4/3 259/4/3 257/4/3
f 261/4/3 260/4/3 259/4/3
f 262/4/3 260/4/3 261/4/3
f 264/4/3 260/4/3 262/4/3
f 265/4/3 260/4/3 264/4/3
f 265/4/3 264/4/3 263/4/3
f 266/4/3 260/4/3 265/4/3
f 267/4/3 265/4/3 263/4/3
f 268/4/3 265/4/3 267/4/3
f 272/2/3 270/2/3 269/2/3
f 273/2/3 270/2/3 272/2/3
f 279/2/3 272/2/3 271/2/3
f 279/2/3 273/2/3 272/2/3
f 279/2/3 274/2/3 273/2/3
f 280/2/3 274/2/3 279/2/3
f 281/8/3 278/8/3 277/8/3
f 282/8/3 278/8/3 281/8/3
f 283/8/3 278/8/3 282/8/3
f 285/2/3 279/2/3 271/2/3
f 285/7/3 280/7/3 279/7/3
f 286/2/3 274/2/3 280/2/3
f 286/7/3 280/7/3 285/7/3
f 288/8/3 284/8/3 283/8/3
f 288/8/3 283/8/3 282/8/3
f 289/2/3 285/2/3 271/2/3
f 290/2/3 285/2/3 289/2/3
f 291/9/3 286/9/3 285/9/3
f 291/2/3 285/2/3 290/2/3
f 292/2/3 274/2/3 286/2/3
f 292/9/3 286/9/3 291/9/3
f 293/8/3 288/8/3 287/8/3
f 294/8/3 284/8/3 288/8/3
f 294/8/3 288/8/3 293/8/3
f 295/1/3 290/1/3 289/1/3
f 295/2/3 289/2/3 271/2/3
f 296/2/3 291/2/3 290/2/3
f 296/1/3 290/1/3 295/1/3
f 296/2/3 292/2/3 291/2/3
f 297/2/3 292/2/3 296/2/3
f 298/2/3 274/2/3 292/2/3
f 298/2/3 292/2/3 297/2/3
f 300/8/3 284/8/3 294/8/3
f 301/8/3 284/8/3 300/8/3
f 302/8/3 284/8/3 301/8/3
f 303/2/3 297/2/3 296/2/3
f 303/9/3 298/9/3 297/9/3
f 303/2/3 296/2/3 295/2/3
f 304/2/3 274/2/3 298/2/3
f 304/9/3 298/9/3 303/9/3
f 305/8/3 301/8/3 300/8/3
f 305/8/3 300/8/3 299/8/3
f 306/8/3 301/8/3 305/8/3
f 307/7/3 304/7/3 303/7/3
f 307/2/3 303/2/3 295/2/3
f 308/2/3 274/2/3 304/2/3
f 308/7/3 304/7/3 307/7/3
f 309/2/3 307/2/3 295/2/3
f 309/2/3 308/2/3 307/2/3
f 309/2/3 295/2/3 271/2/3
f 310/2/3 308/2/3 309/2/3
f 311/2/3 274/2/3 308/2/3
f 311/2/3 308/2/3 310/2/3
f 312/2/3 274/2/3 311/2/3
f 313/4/3 276/4/3 275/4/3
f 314/4/3 276/4/3 313/4/3
f 315/2/3 311/2/3 310/2/3
f 316/2/3 311/2/3 315/2/3
f 323/8/3 318/8/3 317/8/3
f 324/8/3 318/8/3 323/8/3
f 325/8/3 320/8/3 319/8/3
f 326/8/3 320/8/3 325/8/3
f 328/7/3 324/7/3 323/7/3
f 330/7/3 327/7/3 326/7/3
f 330/7/3 326/7/3 325/7/3
f 331/7/3 327/7/3 330/7/3
f 332/8/3 322/8/3 321/8/3
f 333/8/3 322/8/3 332/8/3
f 334/7/3 329/7/3 328/7/3
f 334/7/3 328/7/3 323/7/3
f 335/7/3 329/7/3 334/7/3
f 338/7/3 334/7/3 323/7/3
f 340/7/3 338/7/3 323/7/3
f 340/7/3 339/7/3 338/7/3
f 341/7/3 339/7/3 340/7/3
f 343/7/3 327/7/3 331/7/3
f 344/8/3 337/8/3 336/8/3
f 345/8/3 337/8/3 344/8/3
f 346/7/3 340/7/3 323/7/3
f 347/7/3 340/7/3 346/7/3
f 348/7/3 343/7/3 342/7/3
f 349/7/3 327/7/3 343/7/3
f 349/7/3 343/7/3 348/7/3
f 350/7/3 327/7/3 349/7/3
f 351/8/3 347/8/3 346/8/3
f 352/8/3 347/8/3 351/8/3
f 353/8/3 349/8/3 348/8/3
f 354/8/3 349/8/3 353/8/3
f 359/5/3 356/5/3 355/5/3
f 360/7/3 357/7/3 356/7/3
f 360/5/3 356/5/3 359/5/3
f 361/7/3 357/7/3 360/7/3
f 362/7/3 357/7/3 361/7/3
f 365/8/3 359/8/3 358/8/3
f 366/8/3 359/8/3 365/8/3
f 367/7/3 361/7/3 360/7/3
f 368/7/3 361/7/3 367/7/3
f 369/8/3 363/8/3 362/8/3
f 370/8/3 363/8/3 369/8/3
f 371/6/3 365/6/3 364/6/3
f 372/7/3 366/7/3 365/7/3
f 372/6/3 365/6/3 371/6/3
f 373/7/3 366/7/3 372/7/3
f 377/6/3 375/6/3 374/6/3
f 378/7/3 376/7/3 375/7/3
f 378/6/3 375/6/3 377/6/3
f 379/7/3 376/7/3 378/7/3
f 384/8/3 379/8/3 378/8/3
f 385/8/3 379/8/3 384/8/3
f 386/7/3 381/7/3 380/7/3
f 387/7/3 381/7/3 386/7/3
f 388/8/3 383/8/3 382/8/3
f 389/8/3 383/8/3 388/8/3
f 390/5/3 386/5/3 385/5/3
f 391/7/3 387/7/3 386/7/3
f 391/5/3 386/5/3 390/5/3
f 391/7/3 388/7/3 387/7/3
f 392/7/3 388/7/3 391/7/3
f 395/8/3 394/8/3 393/8/3
f 396/8/3 394/8/3 395/8/3
f 399/8/3 398/8/3 397/8/3
f 400/8/3 398/8/3 399/8/3
f 401/5/4 402/5/4 405/5/4
f 402/7/4 403/7/4 406/7/4
f 405/5/4 402/5/4 406/5/4
f 406/7/4 403/7/4 407/7/4
f 407/7/4 403/7/4 408/7/4
f 404/8/4 405/8/4 412/8/4
f 412/8/4 405/8/4 413/8/4
f 406/7/4 407/7/4 414/7/4
f 414/7/4 407/7/4 415/7/4
f 408/8/4 409/8/4 416/8/4
f 416/8/4 409/8/4 417/8/4
f 410/8/4 411/8/4 418/8/4
f 412/7/4 413/7/4 419/7/4
f 418/8/4 411/8/4 419/8/4
f 411/7/4 412/7/4 419/7/4
f 419/7/4 413/7/4 420/7/4
f 421/8/4 422/8/4 424/8/4
f 422/7/4 423/7/4 425/7/4
f 424/8/4 422/8/4 425/8/4
f 425/7/4 423/7/4 426/7/4
f 426/7/4 423/7/4 427/7/4
f 426/8/4 427/8/4 432/8/4
f 432/8/4 427/8/4 433/8/4
f 428/7/4 429/7/4 434/7/4
f 434/7/4 429/7/4 435/7/4
f 430/8/4 431/8/4 436/8/4
f 436/8/4 431/8/4 437/8/4
f 433/5/4 434/5/4 438/5/4
f 434/7/4 435/7/4 439/7/4
f 438/5/4 434/5/4 439/5/4
f 435/7/4 436/7/4 439/7/4
f 439/7/4 436/7/4 440/7/4
f 441/8/4 442/8/4 449/8/4
f 449/8/4 442/8/4 450/8/4
f 443/8/4 444/8/4 451/8/4
f 451/8/4 444/8/4 452/8/4
f 445/4/4 446/4/4 453/4/4
f 453/4/4 446/4/4 454/4/4
f 452/7/4 453/7/4 458/7/4
f 455/7/4 456/7/4 459/7/4
f 459/7/4 456/7/4 460/7/4
f 457/7/4 458/7/4 461/7/4
f 458/7/4 453/7/4 462/7/4
f 461/7/4 458/7/4 462/7/4
f 462/7/4 453/7/4 466/7/4
f 466/7/4 453/7/4 467/7/4
f 463/8/4 464/8/4 469/8/4
f 469/8/4 464/8/4 470/8/4
f 465/8/4 466/8/4 471/8/4
f 471/8/4 466/8/4 472/8/4
f 467/4/4 468/4/4 473/4/4
f 473/4/4 468/4/4 474/4/4
f 447/4/4 448/4/4 475/4/4
f 475/4/4 448/4/4 476/4/4
f 477/4/4 478/4/4 479/4/4
f 479/4/4 478/4/4 480/4/4
f 482/8/4 483/8/4 484/8/4
f 484/8/4 483/8/4 485/8/4
f 485/6/4 486/6/4 490/6/4
f 490/6/4 486/6/4 491/6/4
f 489/8/4 490/8/4 492/8/4
f 492/8/4 490/8/4 493/8/4
f 493/6/4 494/6/4 496/6/4
f 496/6/4 494/6/4 497/6/4
f 487/4/4 488/4/4 498/4/4
f 498/4/4 488/4/4 499/4/4
f 495/8/4 496/8/4 500/8/4
f 500/8/4 496/8/4 501/8/4
f 480/4/4 481/4/4 503/4/4
f 503/4/4 481/4/4 504/4/4
f 502/4/4 503/4/4 505/4/4
f 505/4/4 503/4/4 506/4/4
f 509/6/4 510/6/4 511/6/4
f 511/6/4 510/6/4 512/6/4
f 512/6/4 510/6/4 513/6/4
f 513/6/4 510/6/4 514/6/4
f 512/8/4 513/8/4 516/8/4
f 516/8/4 513/8/4 517/8/4
f 515/6/4 516/6/4 519/6/4
f 517/6/4 518/6/4 519/6/4
f 516/6/4 517/6/4 519/6/4
f 519/6/4 518/6/4 520/6/4
f 507/4/4 508/4/4 521/4/4
f 521/4/4 508/4/4 522/4/4
f 527/8/5 524/8/5 523/8/5
f 528/8/5 524/8/5 527/8/5
f 529/8/5 526/8/5 525/8/5
f 530/8/5 526/8/5 529/8/5
f 535/8/5 532/8/5 531/8/5
f 536/8/5 534/8/5 533/8/5
f 537/8/5 535/8/5 531/8/5
f 538/8/5 535/8/5 537/8/5
f 539/8/5 534/8/5 536/8/5
f 540/8/5 534/8/5 539/8/5
f 546/8/5 542/8/5 541/8/5
f 547/7/5 543/7/5 542/7/5
f 547/8/5 542/8/5 546/8/5
f 548/7/5 543/7/5 547/7/5
f 549/7/5 543/7/5 548/7/5
f 550/8/5 544/8/5 543/8/5
f 550/7/5 543/7/5 549/7/5
f 551/8/5 544/8/5 550/8/5
f 553/5/5 546/5/5 545/5/5
f 554/5/5 546/5/5 553/5/5
f 556/7/5 549/7/5 548/7/5
f 557/7/5 549/7/5 556/7/5
f 559/5/5 552/5/5 551/5/5
f 560/5/5 552/5/5 559/5/5
f 561/8/5 555/8/5 554/8/5
f 562/7/5 558/7/5 557/7/5
f 562/8/5 555/8/5 561/8/5
f 562/7/5 556/7/5 555/7/5
f 562/7/5 557/7/5 556/7/5
f 563/7/5 558/7/5 562/7/5
f 564/7/5 558/7/5 563/7/5
f 565/8/5 559/8/5 558/8/5
f 565/7/5 558/7/5 564/7/5
f 566/8/5 559/8/5 565/8/5
f 567/6/5 563/6/5 562/6/5
f 568/6/5 563/6/5 567/6/5
f 569/6/5 565/6/5 564/6/5
f 570/6/5 565/6/5 569/6/5
f 577/8/5 572/8/5 571/8/5
f 578/8/5 572/8/5 577/8/5
f 579/8/5 574/8/5 573/8/5
f 580/8/5 574/8/5 579/8/5
f 581/8/5 576/8/5 575/8/5
f 582/8/5 576/8/5 581/8/5
f 589/8/5 584/8/5 583/8/5
f 590/8/5 584/8/5 589/8/5
f 591/8/5 588/8/5 587/8/5
f 592/8/5 588/8/5 591/8/5
f 593/8/5 586/8/5 585/8/5
f 594/8/5 586/8/5 593/8/5
f 599/8/5 596/8/5 595/8/5
f 600/8/5 596/8/5 599/8/5
f 601/8/5 598/8/5 597/8/5
f 602/8/5 598/8/5 601/8/5
f 607/8/5 604/8/5 603/8/5
f 608/8/5 604/8/5 607/8/5
f 609/8/5 606/8/5 605/8/5
f 610/8/5 606/8/5 609/8/5
f 615/8/5 612/8/5 611/8/5
f 616/8/5 612/8/5 615/8/5
f 617/8/5 614/8/5 613/8/5
f 618/8/5 614/8/5 617/8/5
f 621/2/5 620/2/5 619/2/5
f 622/2/5 620/2/5 621/2/5
f 623/2/5 621/2/5 619/2/5
f 624/2/5 621/2/5 623/2/5
f 625/2/5 620/2/5 622/2/5
f 626/2/5 620/2/5 625/2/5
f 631/4/5 628/4/5 627/4/5
f 632/4/5 628/4/5 631/4/5
f 633/4/5 630/4/5 629/4/5
f 634/4/5 630/4/5 633/4/5
f 635/4/5 633/4/5 632/4/5
f 636/4/5 633/4/5 635/4/5
f 641/2/5 638/2/5 637/2/5
f 642/2/5 638/2/5 641/2/5
f 643/2/5 640/2/5 639/2/5
f 644/2/5 640/2/5 643/2/5
f 645/4/5 642/4/5 641/4/5
f 648/4/5 644/4/5 643/4/5
f 649/4/5 646/4/5 645/4/5
f 650/4/5 648/4/5 647/4/5
f 651/4/5 649/4/5 645/4/5
f 651/4/5 650/4/5 649/4/5
f 651/4/5 645/4/5 641/4/5
f 652/4/5 648/4/5 650/4/5
f 652/4/5 650/4/5 651/4/5
f 652/4/5 644/4/5 648/4/5
f 657/4/5 654/4/5 653/4/5
f 658/4/5 654/4/5 657/4/5
f 659/4/5 656/4/5 655/4/5
f 660/4/5 656/4/5 659/4/5
f 661/4/5 657/4/5 653/4/5
f 662/4/5 656/4/5 660/4/5
f 663/4/5 661/4/5 653/4/5
f 664/4/5 661/4/5 663/4/5
f 665/4/5 656/4/5 662/4/5
f 666/4/5 656/4/5 665/4/5
f 669/4/5 668/4/5 667/4/5
f 670/4/5 668/4/5 669/4/5
f 671/8/6 672/8/6 675/8/6
f 675/8/6 672/8/6 676/8/6
f 673/8/6 674/8/6 677/8/6
f 677/8/6 674/8/6 678/8/6
f 679/8/6 680/8/6 683/8/6
f 683/8/6 680/8/6 684/8/6
f 681/8/6 682/8/6 685/8/6
f 685/8/6 682/8/6 686/8/6
f 687/8/6 688/8/6 691/8/6
f 691/8/6 688/8/6 692/8/6
f 689/8/6 690/8/6 693/8/6
f 693/8/6 690/8/6 694/8/6
f 695/8/6 696/8/6 697/8/6
f 697/8/6 696/8/6 698/8/6
f 699/8/6 700/8/6 703/8/6
f 703/8/6 700/8/6 704/8/6
f 701/8/6 702/8/6 705/8/6
f 705/8/6 702/8/6 706/8/6
f 707/8/6 708/8/6 713/8/6
f 713/8/6 708/8/6 714/8/6
f 709/8/6 710/8/6 715/8/6
f 715/8/6 710/8/6 716/8/6
f 711/8/6 712/8/6 717/8/6
f 717/8/6 712/8/6 718/8/6
f 714/6/6 715/6/6 719/6/6
f 719/6/6 715/6/6 720/6/6
f 716/6/6 717/6/6 721/6/6
f 721/6/6 717/6/6 722/6/6
f 723/8/6 724/8/6 727/8/6
f 727/8/6 724/8/6 728/8/6
f 725/8/6 726/8/6 732/8/6
f 732/8/6 726/8/6 733/8/6
f 729/8/6 730/8/6 734/8/6
f 734/8/6 730/8/6 735/8/6
f 731/7/6 732/7/6 737/7/6
f 737/7/6 732/7/6 738/7/6
f 735/7/6 736/7/6 741/7/6
f 741/7/6 736/7/6 742/7/6
f 738/8/6 739/8/6 743/8/6
f 743/8/6 739/8/6 744/8/6
f 740/8/6 741/8/6 747/8/6
f 747/8/6 741/8/6 748/8/6
f 744/6/6 745/6/6 749/6/6
f 749/6/6 745/6/6 750/6/6
f 746/6/6 747/6/6 751/6/6
f 751/6/6 747/6/6 752/6/6
f 753/4/6 754/4/6 757/4/6
f 757/4/6 754/4/6 758/4/6
f 755/4/6 756/4/6 759/4/6
f 759/4/6 756/4/6 760/4/6
f 758/4/6 759/4/6 761/4/6
f 761/4/6 759/4/6 762/4/6
f 763/4/6 764/4/6 765/4/6
f 765/4/6 764/4/6 766/4/6
f 763/4/6 765/4/6 767/4/6
f 766/4/6 764/4/6 768/4/6
f 763/4/6 767/4/6 769/4/6
f 767/4/6 768/4/6 769/4/6
f 768/4/6 764/4/6 770/4/6
f 769/4/6 768/4/6 770/4/6
f 771/4/6 772/4/6 773/4/6
f 773/4/6 772/4/6 774/4/6
