# MagicaVoxel @ Ephtracy

# group
o 

# material
mtllib Builder_Walk2.vox.mtl
usemtl palette

# normals
vn -1 0 0
vn 1 0 0
vn 0 0 1
vn 0 0 -1
vn 0 -1 0
vn 0 1 0

# texcoords
vt 0.0839844 0.5
vt 0.283203 0.5
vt 0.287109 0.5
vt 0.291016 0.5
vt 0.310547 0.5
vt 0.349609 0.5
vt 0.365234 0.5
vt 0.373047 0.5
vt 0.412109 0.5
vt 0.478516 0.5
vt 0.748047 0.5
vt 0.958984 0.5
vt 0.994141 0.5

# verts
v -0.7 1.4 0.4
v -0.7 1.4 -0.3
v -0.7 1.6 0.4
v -0.7 1.6 -0.3
v -0.6 1.3 0.4
v -0.6 1.3 -0.3
v -0.6 1.4 0.5
v -0.6 1.4 0.4
v -0.6 1.4 -0.3
v -0.6 1.4 -0.4
v -0.6 1.5 0.5
v -0.6 1.5 0.4
v -0.6 1.5 -0.3
v -0.6 1.5 -0.4
v -0.6 1.6 0.4
v -0.6 1.6 -0.3
v -0.6 1.7 0.4
v -0.6 1.7 -0.3
v -0.5 0.3 0.1
v -0.5 0.3 -0.1
v -0.5 0.4 0.1
v -0.5 0.4 -0.1
v -0.5 0.5 0.1
v -0.5 0.5 -0.1
v -0.5 0.7 0.1
v -0.5 0.7 -0.1
v -0.5 0.9 0.3
v -0.5 0.9 0
v -0.5 0.9 -0.4
v -0.5 1.3 0.3
v -0.5 1.3 0
v -0.5 1.3 -0.3
v -0.5 1.4 -0.3
v -0.5 1.4 -0.4
v -0.5 1.4 -0.5
v -0.5 1.5 0.5
v -0.5 1.5 0.4
v -0.5 1.5 -0.3
v -0.5 1.5 -0.4
v -0.5 1.6 0.5
v -0.5 1.6 0.4
v -0.5 1.6 -0.4
v -0.5 1.6 -0.5
v -0.5 1.7 0.4
v -0.5 1.7 -0.3
v -0.5 1.8 0.4
v -0.5 1.8 -0.4
v -0.4 0.8 0.3
v -0.4 0.8 0
v -0.4 0.8 -0.2
v -0.4 0.9 0.3
v -0.4 0.9 0
v -0.4 0.9 -0.2
v -0.3 0.1 0.4
v -0.3 0.1 0.2
v -0.3 0.1 -0.1
v -0.3 0.3 0.3
v -0.3 0.3 0.2
v -0.3 0.3 0.1
v -0.3 0.3 -0.1
v -0.3 0.3 -0.2
v -0.3 0.4 0.4
v -0.3 0.4 0.3
v -0.3 0.4 0.2
v -0.3 0.4 0.1
v -0.3 0.4 -0.1
v -0.3 0.4 -0.2
v -0.3 0.5 0.1
v -0.3 0.5 -0.1
v -0.3 0.7 0.1
v -0.3 0.7 -0.1
v -0.3 0.8 0.2
v -0.3 0.8 0
v -0.3 0.8 -0.2
v -0.3 0.8 -0.3
v -0.3 0.9 -0.2
v -0.3 0.9 -0.3
v -0.3 1.3 -0.4
v -0.3 1.3 -0.5
v -0.3 1.4 -0.4
v -0.3 1.4 -0.5
v -0.3 1.6 0.5
v -0.3 1.6 0.4
v -0.3 1.6 -0.4
v -0.3 1.6 -0.5
v -0.3 1.7 0.5
v -0.3 1.7 0.4
v -0.3 1.7 -0.4
v -0.3 1.7 -0.5
v -0.3 1.8 0.4
v -0.3 1.8 -0.4
v -0.3 1.9 0.4
v -0.3 1.9 -0.4
v -0.2 1.9 0.4
v -0.2 1.9 -0.4
v -0.2 2 0.4
v -0.2 2 -0.4
v -0.1 1.7 0.5
v -0.1 1.7 0.4
v -0.1 1.7 -0.4
v -0.1 1.7 -0.5
v -0.1 1.8 0.5
v -0.1 1.8 0.4
v -0.1 1.8 -0.4
v -0.1 1.8 -0.5
v 0.1 0 0.2
v 0.1 0 -0.1
v 0.1 0.1 0.2
v 0.1 0.1 0.1
v 0.1 0.2 0.1
v 0.1 0.2 -0.1
v 0.1 0.3 0.1
v 0.1 0.3 -0.1
v 0.2 1.5 0.5
v 0.2 1.5 0.4
v 0.2 1.6 0.5
v 0.2 1.6 0.4
v 0.3 0.5 0.3
v 0.3 0.5 0.2
v 0.3 0.7 0.3
v 0.3 0.7 0.2
v 0.4 1.3 0.4
v 0.4 1.3 0.3
v 0.4 1.4 0.5
v 0.4 1.4 0.4
v 0.4 1.4 0.3
v 0.4 1.5 0.5
v 0.4 1.5 0.4
v -0.4 1.3 0.4
v -0.4 1.3 0.3
v -0.4 1.4 0.5
v -0.4 1.4 0.4
v -0.4 1.4 0.3
v -0.4 1.5 0.5
v -0.4 1.5 0.4
v -0.2 1.5 0.5
v -0.2 1.5 0.4
v -0.2 1.6 0.5
v -0.2 1.6 0.4
v -0.1 0.1 0.4
v -0.1 0.1 0.2
v -0.1 0.1 -0.1
v -0.1 0.3 0.3
v -0.1 0.3 0.2
v -0.1 0.3 0.1
v -0.1 0.3 -0.1
v -0.1 0.4 0.4
v -0.1 0.4 0.3
v 0.1 1.7 0.5
v 0.1 1.7 0.4
v 0.1 1.7 -0.4
v 0.1 1.7 -0.5
v 0.1 1.8 0.5
v 0.1 1.8 0.4
v 0.1 1.8 -0.4
v 0.1 1.8 -0.5
v 0.2 1.9 0.4
v 0.2 1.9 -0.4
v 0.2 2 0.4
v 0.2 2 -0.4
v 0.3 0 0.2
v 0.3 0 -0.1
v 0.3 0.1 0.2
v 0.3 0.1 0.1
v 0.3 0.2 0.1
v 0.3 0.2 -0.1
v 0.3 0.3 0.2
v 0.3 0.3 0.1
v 0.3 0.3 -0.1
v 0.3 0.3 -0.2
v 0.3 0.4 0.2
v 0.3 0.4 -0.2
v 0.3 0.5 0.2
v 0.3 0.5 0.1
v 0.3 0.5 -0.1
v 0.3 0.7 0.2
v 0.3 0.7 0.1
v 0.3 0.7 -0.1
v 0.3 0.8 0.2
v 0.3 0.8 0.1
v 0.3 0.8 0
v 0.3 0.8 -0.1
v 0.3 0.8 -0.2
v 0.3 0.8 -0.3
v 0.3 0.9 -0.2
v 0.3 0.9 -0.3
v 0.3 1.3 -0.4
v 0.3 1.3 -0.5
v 0.3 1.4 -0.4
v 0.3 1.4 -0.5
v 0.3 1.6 0.5
v 0.3 1.6 0.4
v 0.3 1.6 -0.4
v 0.3 1.6 -0.5
v 0.3 1.7 0.5
v 0.3 1.7 0.4
v 0.3 1.7 -0.4
v 0.3 1.7 -0.5
v 0.3 1.8 0.4
v 0.3 1.8 -0.4
v 0.3 1.9 0.4
v 0.3 1.9 -0.4
v 0.4 0.8 0.3
v 0.4 0.8 0
v 0.4 0.8 -0.2
v 0.4 0.9 0.3
v 0.4 0.9 0
v 0.4 0.9 -0.2
v 0.4 1.7 -0.3
v 0.4 1.7 -0.4
v 0.4 1.8 -0.3
v 0.4 1.8 -0.4
v 0.5 0.5 0.3
v 0.5 0.5 0.2
v 0.5 0.5 0.1
v 0.5 0.5 -0.1
v 0.5 0.7 0.3
v 0.5 0.7 0.2
v 0.5 0.7 0.1
v 0.5 0.7 -0.1
v 0.5 0.9 0.3
v 0.5 0.9 0
v 0.5 0.9 -0.4
v 0.5 1.3 0.3
v 0.5 1.3 0
v 0.5 1.3 -0.3
v 0.5 1.4 -0.3
v 0.5 1.4 -0.4
v 0.5 1.4 -0.5
v 0.5 1.5 0.5
v 0.5 1.5 0.4
v 0.5 1.5 -0.3
v 0.5 1.5 -0.4
v 0.5 1.6 0.5
v 0.5 1.6 0.4
v 0.5 1.6 -0.4
v 0.5 1.6 -0.5
v 0.5 1.7 0.4
v 0.5 1.7 -0.3
v 0.5 1.7 -0.4
v 0.5 1.8 0.4
v 0.5 1.8 -0.3
v 0.6 1.3 0.4
v 0.6 1.3 -0.3
v 0.6 1.4 0.5
v 0.6 1.4 0.4
v 0.6 1.4 -0.3
v 0.6 1.4 -0.4
v 0.6 1.5 0.5
v 0.6 1.5 0.4
v 0.6 1.5 -0.3
v 0.6 1.5 -0.4
v 0.6 1.7 0.4
v 0.6 1.7 -0.3
v 0.7 1.4 0.4
v 0.7 1.4 -0.3
v 0.7 1.5 0.4
v 0.7 1.5 -0.3
v -0.6 1.4 0.5
v -0.6 1.5 0.5
v -0.5 1.5 0.5
v -0.5 1.6 0.5
v -0.4 1.4 0.5
v -0.4 1.5 0.5
v -0.3 1.6 0.5
v -0.3 1.7 0.5
v -0.2 1.5 0.5
v -0.2 1.6 0.5
v -0.1 1.7 0.5
v -0.1 1.8 0.5
v 0.1 1.7 0.5
v 0.1 1.8 0.5
v 0.2 1.5 0.5
v 0.2 1.6 0.5
v 0.3 1.6 0.5
v 0.3 1.7 0.5
v 0.4 1.4 0.5
v 0.4 1.5 0.5
v 0.5 1.5 0.5
v 0.5 1.6 0.5
v 0.6 1.4 0.5
v 0.6 1.5 0.5
v -0.7 1.4 0.4
v -0.7 1.6 0.4
v -0.6 1.3 0.4
v -0.6 1.4 0.4
v -0.6 1.5 0.4
v -0.6 1.6 0.4
v -0.6 1.7 0.4
v -0.5 1.5 0.4
v -0.5 1.6 0.4
v -0.5 1.7 0.4
v -0.5 1.8 0.4
v -0.4 1.3 0.4
v -0.4 1.4 0.4
v -0.4 1.5 0.4
v -0.3 0.1 0.4
v -0.3 0.4 0.4
v -0.3 1.6 0.4
v -0.3 1.7 0.4
v -0.3 1.8 0.4
v -0.3 1.9 0.4
v -0.2 1.5 0.4
v -0.2 1.6 0.4
v -0.2 1.9 0.4
v -0.2 2 0.4
v -0.1 0.1 0.4
v -0.1 0.4 0.4
v -0.1 1.7 0.4
v -0.1 1.8 0.4
v 0.1 1.7 0.4
v 0.1 1.8 0.4
v 0.2 1.5 0.4
v 0.2 1.6 0.4
v 0.2 1.9 0.4
v 0.2 2 0.4
v 0.3 1.6 0.4
v 0.3 1.7 0.4
v 0.3 1.8 0.4
v 0.3 1.9 0.4
v 0.4 1.3 0.4
v 0.4 1.4 0.4
v 0.4 1.5 0.4
v 0.5 1.5 0.4
v 0.5 1.6 0.4
v 0.5 1.7 0.4
v 0.5 1.8 0.4
v 0.6 1.3 0.4
v 0.6 1.4 0.4
v 0.6 1.5 0.4
v 0.6 1.7 0.4
v 0.7 1.4 0.4
v 0.7 1.5 0.4
v -0.5 0.9 0.3
v -0.5 1.3 0.3
v -0.4 0.8 0.3
v -0.4 0.9 0.3
v -0.4 1.3 0.3
v -0.4 1.4 0.3
v -0.3 1.1 0.3
v -0.3 1.3 0.3
v -0.2 1.1 0.3
v -0.2 1.3 0.3
v -0.1 0.9 0.3
v -0.1 1 0.3
v -0.1 1.1 0.3
v -0.1 1.3 0.3
v 0.1 0.9 0.3
v 0.1 1 0.3
v 0.1 1.1 0.3
v 0.1 1.3 0.3
v 0.2 1.1 0.3
v 0.2 1.3 0.3
v 0.3 0.5 0.3
v 0.3 0.7 0.3
v 0.3 1.1 0.3
v 0.3 1.3 0.3
v 0.4 0.8 0.3
v 0.4 0.9 0.3
v 0.4 1.3 0.3
v 0.4 1.4 0.3
v 0.5 0.5 0.3
v 0.5 0.7 0.3
v 0.5 0.9 0.3
v 0.5 1.3 0.3
v -0.3 0.3 0.2
v -0.3 0.4 0.2
v -0.3 0.8 0.2
v -0.2 0.7 0.2
v -0.2 0.8 0.2
v -0.1 0.3 0.2
v -0.1 0.4 0.2
v -0.1 0.6 0.2
v -0.1 0.7 0.2
v -0.1 0.8 0.2
v 0.1 0 0.2
v 0.1 0.1 0.2
v 0.1 0.3 0.2
v 0.1 0.4 0.2
v 0.1 0.6 0.2
v 0.1 0.7 0.2
v 0.1 0.8 0.2
v 0.2 0.7 0.2
v 0.2 0.8 0.2
v 0.3 0 0.2
v 0.3 0.1 0.2
v 0.3 0.3 0.2
v 0.3 0.4 0.2
v 0.3 0.5 0.2
v 0.3 0.7 0.2
v 0.3 0.8 0.2
v -0.5 0.3 0.1
v -0.5 0.4 0.1
v -0.5 0.5 0.1
v -0.5 0.7 0.1
v -0.3 0.3 0.1
v -0.3 0.4 0.1
v -0.3 0.5 0.1
v -0.3 0.7 0.1
v 0.1 0.1 0.1
v 0.1 0.2 0.1
v 0.1 0.3 0.1
v 0.3 0.1 0.1
v 0.3 0.2 0.1
v 0.3 0.3 0.1
v -0.3 0.3 0.3
v -0.3 0.4 0.3
v -0.1 0.3 0.3
v -0.1 0.4 0.3
v -0.5 0.3 -0.1
v -0.5 0.4 -0.1
v -0.5 0.5 -0.1
v -0.5 0.7 -0.1
v -0.3 0.1 -0.1
v -0.3 0.3 -0.1
v -0.3 0.4 -0.1
v -0.3 0.5 -0.1
v -0.3 0.7 -0.1
v -0.1 0.1 -0.1
v -0.1 0.3 -0.1
v 0.1 0 -0.1
v 0.1 0.2 -0.1
v 0.1 0.3 -0.1
v 0.3 0 -0.1
v 0.3 0.2 -0.1
v 0.3 0.3 -0.1
v 0.3 0.5 -0.1
v 0.3 0.7 -0.1
v 0.5 0.5 -0.1
v 0.5 0.7 -0.1
v -0.4 0.8 -0.2
v -0.4 0.9 -0.2
v -0.3 0.3 -0.2
v -0.3 0.4 -0.2
v -0.3 0.8 -0.2
v -0.3 0.9 -0.2
v -0.1 0.7 -0.2
v -0.1 0.8 -0.2
v 0.1 0.7 -0.2
v 0.1 0.8 -0.2
v 0.3 0.3 -0.2
v 0.3 0.4 -0.2
v 0.3 0.8 -0.2
v 0.3 0.9 -0.2
v 0.4 0.8 -0.2
v 0.4 0.9 -0.2
v -0.7 1.4 -0.3
v -0.7 1.6 -0.3
v -0.6 1.3 -0.3
v -0.6 1.4 -0.3
v -0.6 1.5 -0.3
v -0.6 1.6 -0.3
v -0.6 1.7 -0.3
v -0.5 1.3 -0.3
v -0.5 1.4 -0.3
v -0.5 1.5 -0.3
v -0.5 1.7 -0.3
v -0.3 0.8 -0.3
v -0.3 0.9 -0.3
v 0.3 0.8 -0.3
v 0.3 0.9 -0.3
v 0.4 1.7 -0.3
v 0.4 1.8 -0.3
v 0.5 1.3 -0.3
v 0.5 1.4 -0.3
v 0.5 1.5 -0.3
v 0.5 1.7 -0.3
v 0.5 1.8 -0.3
v 0.6 1.3 -0.3
v 0.6 1.4 -0.3
v 0.6 1.5 -0.3
v 0.6 1.7 -0.3
v 0.7 1.4 -0.3
v 0.7 1.5 -0.3
v -0.6 1.4 -0.4
v -0.6 1.5 -0.4
v -0.5 0.9 -0.4
v -0.5 1.4 -0.4
v -0.5 1.5 -0.4
v -0.5 1.6 -0.4
v -0.5 1.8 -0.4
v -0.3 1.3 -0.4
v -0.3 1.4 -0.4
v -0.3 1.6 -0.4
v -0.3 1.7 -0.4
v -0.3 1.8 -0.4
v -0.3 1.9 -0.4
v -0.2 1.9 -0.4
v -0.2 2 -0.4
v -0.1 1.7 -0.4
v -0.1 1.8 -0.4
v 0.1 1.7 -0.4
v 0.1 1.8 -0.4
v 0.2 1.9 -0.4
v 0.2 2 -0.4
v 0.3 1.3 -0.4
v 0.3 1.4 -0.4
v 0.3 1.6 -0.4
v 0.3 1.7 -0.4
v 0.3 1.8 -0.4
v 0.3 1.9 -0.4
v 0.4 1.7 -0.4
v 0.4 1.8 -0.4
v 0.5 0.9 -0.4
v 0.5 1.4 -0.4
v 0.5 1.5 -0.4
v 0.5 1.6 -0.4
v 0.5 1.7 -0.4
v 0.6 1.4 -0.4
v 0.6 1.5 -0.4
v -0.5 1.4 -0.5
v -0.5 1.6 -0.5
v -0.3 1.3 -0.5
v -0.3 1.4 -0.5
v -0.3 1.6 -0.5
v -0.3 1.7 -0.5
v -0.1 1.7 -0.5
v -0.1 1.8 -0.5
v 0.1 1.7 -0.5
v 0.1 1.8 -0.5
v 0.3 1.3 -0.5
v 0.3 1.4 -0.5
v 0.3 1.6 -0.5
v 0.3 1.7 -0.5
v 0.5 1.4 -0.5
v 0.5 1.6 -0.5
v 0.1 0 0.2
v 0.3 0 0.2
v 0.1 0 -0.1
v 0.3 0 -0.1
v -0.3 0.1 0.4
v -0.1 0.1 0.4
v -0.3 0.1 0.2
v -0.1 0.1 0.2
v -0.3 0.1 -0.1
v -0.1 0.1 -0.1
v -0.1 0.3 0.2
v 0.1 0.3 0.2
v 0.3 0.3 0.2
v -0.5 0.3 0.1
v -0.3 0.3 0.1
v -0.1 0.3 0.1
v 0.1 0.3 0.1
v 0.3 0.3 0.1
v -0.5 0.3 -0.1
v -0.3 0.3 -0.1
v -0.1 0.3 -0.1
v 0.1 0.3 -0.1
v 0.3 0.3 -0.1
v -0.3 0.3 -0.2
v 0.3 0.3 -0.2
v 0.3 0.5 0.3
v 0.5 0.5 0.3
v 0.3 0.5 0.2
v 0.5 0.5 0.2
v 0.3 0.5 0.1
v 0.5 0.5 0.1
v 0.3 0.5 -0.1
v 0.5 0.5 -0.1
v -0.4 0.8 0.3
v 0.4 0.8 0.3
v -0.3 0.8 0.2
v -0.2 0.8 0.2
v -0.1 0.8 0.2
v 0.1 0.8 0.2
v 0.2 0.8 0.2
v 0.3 0.8 0.2
v 0.3 0.8 0.1
v -0.4 0.8 0
v -0.3 0.8 0
v 0.3 0.8 0
v 0.4 0.8 0
v 0.3 0.8 -0.1
v -0.4 0.8 -0.2
v -0.3 0.8 -0.2
v -0.1 0.8 -0.2
v 0.1 0.8 -0.2
v 0.3 0.8 -0.2
v 0.4 0.8 -0.2
v -0.3 0.8 -0.3
v 0.3 0.8 -0.3
v -0.5 0.9 0.3
v -0.4 0.9 0.3
v 0.4 0.9 0.3
v 0.5 0.9 0.3
v -0.5 0.9 0
v -0.4 0.9 0
v 0.4 0.9 0
v 0.5 0.9 0
v -0.4 0.9 -0.2
v -0.3 0.9 -0.2
v 0.3 0.9 -0.2
v 0.4 0.9 -0.2
v -0.3 0.9 -0.3
v 0.3 0.9 -0.3
v -0.5 0.9 -0.4
v 0.5 0.9 -0.4
v -0.6 1.3 0.4
v -0.4 1.3 0.4
v 0.4 1.3 0.4
v 0.6 1.3 0.4
v -0.5 1.3 0.3
v -0.4 1.3 0.3
v 0.4 1.3 0.3
v 0.5 1.3 0.3
v -0.5 1.3 0
v 0.5 1.3 0
v -0.6 1.3 -0.3
v -0.5 1.3 -0.3
v 0.5 1.3 -0.3
v 0.6 1.3 -0.3
v -0.3 1.3 -0.4
v 0.3 1.3 -0.4
v -0.3 1.3 -0.5
v 0.3 1.3 -0.5
v -0.6 1.4 0.5
v -0.4 1.4 0.5
v 0.4 1.4 0.5
v 0.6 1.4 0.5
v -0.7 1.4 0.4
v -0.6 1.4 0.4
v -0.4 1.4 0.4
v 0.4 1.4 0.4
v 0.6 1.4 0.4
v 0.7 1.4 0.4
v -0.4 1.4 0.3
v 0.4 1.4 0.3
v -0.7 1.4 -0.3
v -0.6 1.4 -0.3
v -0.5 1.4 -0.3
v 0.5 1.4 -0.3
v 0.6 1.4 -0.3
v 0.7 1.4 -0.3
v -0.6 1.4 -0.4
v -0.5 1.4 -0.4
v -0.3 1.4 -0.4
v 0.3 1.4 -0.4
v 0.5 1.4 -0.4
v 0.6 1.4 -0.4
v -0.5 1.4 -0.5
v -0.3 1.4 -0.5
v 0.3 1.4 -0.5
v 0.5 1.4 -0.5
v -0.4 1.5 0.5
v -0.2 1.5 0.5
v 0.2 1.5 0.5
v 0.4 1.5 0.5
v -0.4 1.5 0.4
v -0.2 1.5 0.4
v 0.2 1.5 0.4
v 0.4 1.5 0.4
v -0.2 1.6 0.5
v 0.2 1.6 0.5
v -0.2 1.6 0.4
v 0.2 1.6 0.4
v 0.1 0.1 0.2
v 0.3 0.1 0.2
v 0.1 0.1 0.1
v 0.3 0.1 0.1
v -0.3 0.3 0.3
v -0.1 0.3 0.3
v -0.3 0.3 0.2
v -0.1 0.3 0.2
v -0.3 0.4 0.4
v -0.1 0.4 0.4
v -0.3 0.4 0.3
v -0.1 0.4 0.3
v 0.3 0.7 0.3
v 0.5 0.7 0.3
v 0.3 0.7 0.2
v 0.5 0.7 0.2
v -0.5 0.7 0.1
v -0.3 0.7 0.1
v 0.3 0.7 0.1
v 0.5 0.7 0.1
v -0.5 0.7 -0.1
v -0.3 0.7 -0.1
v 0.3 0.7 -0.1
v 0.5 0.7 -0.1
v -0.6 1.5 0.5
v -0.5 1.5 0.5
v 0.5 1.5 0.5
v 0.6 1.5 0.5
v -0.6 1.5 0.4
v -0.5 1.5 0.4
v 0.5 1.5 0.4
v 0.6 1.5 0.4
v 0.7 1.5 0.4
v -0.6 1.5 -0.3
v -0.5 1.5 -0.3
v 0.5 1.5 -0.3
v 0.6 1.5 -0.3
v 0.7 1.5 -0.3
v -0.6 1.5 -0.4
v -0.5 1.5 -0.4
v 0.5 1.5 -0.4
v 0.6 1.5 -0.4
v -0.5 1.6 0.5
v -0.3 1.6 0.5
v 0.3 1.6 0.5
v 0.5 1.6 0.5
v -0.7 1.6 0.4
v -0.6 1.6 0.4
v -0.5 1.6 0.4
v -0.3 1.6 0.4
v 0.3 1.6 0.4
v 0.5 1.6 0.4
v -0.7 1.6 -0.3
v -0.6 1.6 -0.3
v -0.5 1.6 -0.4
v -0.3 1.6 -0.4
v 0.3 1.6 -0.4
v 0.5 1.6 -0.4
v -0.5 1.6 -0.5
v -0.3 1.6 -0.5
v 0.3 1.6 -0.5
v 0.5 1.6 -0.5
v -0.3 1.7 0.5
v -0.1 1.7 0.5
v 0.1 1.7 0.5
v 0.3 1.7 0.5
v -0.6 1.7 0.4
v -0.5 1.7 0.4
v -0.3 1.7 0.4
v -0.1 1.7 0.4
v 0.1 1.7 0.4
v 0.3 1.7 0.4
v 0.5 1.7 0.4
v 0.6 1.7 0.4
v -0.6 1.7 -0.3
v -0.5 1.7 -0.3
v 0.4 1.7 -0.3
v 0.5 1.7 -0.3
v 0.6 1.7 -0.3
v -0.3 1.7 -0.4
v -0.1 1.7 -0.4
v 0.1 1.7 -0.4
v 0.3 1.7 -0.4
v 0.4 1.7 -0.4
v 0.5 1.7 -0.4
v -0.3 1.7 -0.5
v -0.1 1.7 -0.5
v 0.1 1.7 -0.5
v 0.3 1.7 -0.5
v -0.1 1.8 0.5
v 0.1 1.8 0.5
v -0.5 1.8 0.4
v -0.3 1.8 0.4
v -0.1 1.8 0.4
v 0.1 1.8 0.4
v 0.3 1.8 0.4
v 0.5 1.8 0.4
v 0.4 1.8 -0.3
v 0.5 1.8 -0.3
v -0.5 1.8 -0.4
v -0.3 1.8 -0.4
v -0.1 1.8 -0.4
v 0.1 1.8 -0.4
v 0.3 1.8 -0.4
v 0.4 1.8 -0.4
v -0.1 1.8 -0.5
v 0.1 1.8 -0.5
v -0.3 1.9 0.4
v -0.2 1.9 0.4
v 0.2 1.9 0.4
v 0.3 1.9 0.4
v -0.3 1.9 -0.4
v -0.2 1.9 -0.4
v 0.2 1.9 -0.4
v 0.3 1.9 -0.4
v -0.2 2 0.4
v 0.2 2 0.4
v -0.2 2 -0.4
v 0.2 2 -0.4

# faces
f 3/10/1 2/10/1 1/10/1
f 4/10/1 2/10/1 3/10/1
f 8/5/1 6/5/1 5/5/1
f 9/5/1 6/5/1 8/5/1
f 11/10/1 8/10/1 7/10/1
f 12/10/1 8/10/1 11/10/1
f 13/10/1 10/10/1 9/10/1
f 14/10/1 10/10/1 13/10/1
f 17/10/1 16/10/1 15/10/1
f 18/10/1 16/10/1 17/10/1
f 21/7/1 20/7/1 19/7/1
f 22/7/1 20/7/1 21/7/1
f 23/6/1 22/6/1 21/6/1
f 24/6/1 22/6/1 23/6/1
f 25/11/1 24/11/1 23/11/1
f 26/11/1 24/11/1 25/11/1
f 30/6/1 28/6/1 27/6/1
f 31/5/1 29/5/1 28/5/1
f 31/6/1 28/6/1 30/6/1
f 32/5/1 29/5/1 31/5/1
f 33/5/1 29/5/1 32/5/1
f 34/5/1 29/5/1 33/5/1
f 39/10/1 35/10/1 34/10/1
f 40/10/1 37/10/1 36/10/1
f 41/10/1 37/10/1 40/10/1
f 42/10/1 39/10/1 38/10/1
f 42/10/1 35/10/1 39/10/1
f 43/10/1 35/10/1 42/10/1
f 45/10/1 42/10/1 38/10/1
f 46/10/1 45/10/1 44/10/1
f 47/10/1 42/10/1 45/10/1
f 47/10/1 45/10/1 46/10/1
f 51/6/1 49/6/1 48/6/1
f 52/5/1 50/5/1 49/5/1
f 52/6/1 49/6/1 51/6/1
f 53/5/1 50/5/1 52/5/1
f 57/7/1 55/7/1 54/7/1
f 58/2/1 56/2/1 55/2/1
f 58/7/1 55/7/1 57/7/1
f 59/2/1 56/2/1 58/2/1
f 60/2/1 56/2/1 59/2/1
f 62/7/1 57/7/1 54/7/1
f 63/7/1 57/7/1 62/7/1
f 64/7/1 59/7/1 58/7/1
f 65/7/1 59/7/1 64/7/1
f 66/7/1 61/7/1 60/7/1
f 67/7/1 61/7/1 66/7/1
f 68/2/1 65/2/1 64/2/1
f 69/2/1 67/2/1 66/2/1
f 70/2/1 68/2/1 64/2/1
f 71/2/1 67/2/1 69/2/1
f 72/2/1 70/2/1 64/2/1
f 72/2/1 71/2/1 70/2/1
f 73/2/1 71/2/1 72/2/1
f 74/2/1 67/2/1 71/2/1
f 74/2/1 71/2/1 73/2/1
f 76/5/1 75/5/1 74/5/1
f 77/5/1 75/5/1 76/5/1
f 80/10/1 79/10/1 78/10/1
f 81/10/1 79/10/1 80/10/1
f 86/10/1 83/10/1 82/10/1
f 87/10/1 83/10/1 86/10/1
f 88/10/1 85/10/1 84/10/1
f 89/10/1 85/10/1 88/10/1
f 92/10/1 91/10/1 90/10/1
f 93/10/1 91/10/1 92/10/1
f 96/10/1 95/10/1 94/10/1
f 97/10/1 95/10/1 96/10/1
f 102/10/1 99/10/1 98/10/1
f 103/10/1 99/10/1 102/10/1
f 104/10/1 101/10/1 100/10/1
f 105/10/1 101/10/1 104/10/1
f 108/7/1 107/7/1 106/7/1
f 109/7/1 107/7/1 108/7/1
f 110/7/1 107/7/1 109/7/1
f 111/7/1 107/7/1 110/7/1
f 112/2/1 111/2/1 110/2/1
f 113/2/1 111/2/1 112/2/1
f 116/10/1 115/10/1 114/10/1
f 117/10/1 115/10/1 116/10/1
f 120/7/1 119/7/1 118/7/1
f 121/7/1 119/7/1 120/7/1
f 125/5/1 123/5/1 122/5/1
f 126/5/1 123/5/1 125/5/1
f 127/10/1 125/10/1 124/10/1
f 128/10/1 125/10/1 127/10/1
f 129/5/2 130/5/2 132/5/2
f 132/5/2 130/5/2 133/5/2
f 131/10/2 132/10/2 134/10/2
f 134/10/2 132/10/2 135/10/2
f 136/10/2 137/10/2 138/10/2
f 138/10/2 137/10/2 139/10/2
f 140/7/2 141/7/2 143/7/2
f 141/2/2 142/2/2 144/2/2
f 143/7/2 141/7/2 144/7/2
f 144/2/2 142/2/2 145/2/2
f 145/2/2 142/2/2 146/2/2
f 140/7/2 143/7/2 147/7/2
f 147/7/2 143/7/2 148/7/2
f 149/10/2 150/10/2 153/10/2
f 153/10/2 150/10/2 154/10/2
f 151/10/2 152/10/2 155/10/2
f 155/10/2 152/10/2 156/10/2
f 157/10/2 158/10/2 159/10/2
f 159/10/2 158/10/2 160/10/2
f 161/7/2 162/7/2 163/7/2
f 163/7/2 162/7/2 164/7/2
f 164/7/2 162/7/2 165/7/2
f 165/7/2 162/7/2 166/7/2
f 165/2/2 166/2/2 168/2/2
f 168/2/2 166/2/2 169/2/2
f 168/7/2 169/7/2 171/7/2
f 169/7/2 170/7/2 171/7/2
f 167/7/2 168/7/2 171/7/2
f 171/7/2 170/7/2 172/7/2
f 171/2/2 172/2/2 173/2/2
f 173/2/2 172/2/2 174/2/2
f 174/2/2 172/2/2 175/2/2
f 175/2/2 172/2/2 178/2/2
f 176/2/2 177/2/2 179/2/2
f 177/11/2 178/11/2 180/11/2
f 179/2/2 177/2/2 180/2/2
f 180/11/2 178/11/2 181/11/2
f 178/2/2 172/2/2 182/2/2
f 181/11/2 178/11/2 182/11/2
f 182/2/2 172/2/2 183/2/2
f 183/5/2 184/5/2 185/5/2
f 185/5/2 184/5/2 186/5/2
f 187/10/2 188/10/2 189/10/2
f 189/10/2 188/10/2 190/10/2
f 191/10/2 192/10/2 195/10/2
f 195/10/2 192/10/2 196/10/2
f 193/10/2 194/10/2 197/10/2
f 197/10/2 194/10/2 198/10/2
f 199/10/2 200/10/2 201/10/2
f 201/10/2 200/10/2 202/10/2
f 203/6/2 204/6/2 206/6/2
f 204/5/2 205/5/2 207/5/2
f 206/6/2 204/6/2 207/6/2
f 207/5/2 205/5/2 208/5/2
f 209/10/2 210/10/2 211/10/2
f 211/10/2 210/10/2 212/10/2
f 213/7/2 214/7/2 217/7/2
f 214/6/2 215/6/2 218/6/2
f 217/7/2 214/7/2 218/7/2
f 215/11/2 216/11/2 219/11/2
f 218/6/2 215/6/2 219/6/2
f 219/11/2 216/11/2 220/11/2
f 221/6/2 222/6/2 224/6/2
f 222/5/2 223/5/2 225/5/2
f 224/6/2 222/6/2 225/6/2
f 225/5/2 223/5/2 226/5/2
f 226/5/2 223/5/2 227/5/2
f 227/5/2 223/5/2 228/5/2
f 228/10/2 229/10/2 233/10/2
f 230/10/2 231/10/2 234/10/2
f 234/10/2 231/10/2 235/10/2
f 232/10/2 233/10/2 236/10/2
f 233/10/2 229/10/2 236/10/2
f 236/10/2 229/10/2 237/10/2
f 232/10/2 236/10/2 239/10/2
f 239/10/2 236/10/2 240/10/2
f 238/10/2 239/10/2 241/10/2
f 241/10/2 239/10/2 242/10/2
f 243/5/2 244/5/2 246/5/2
f 246/5/2 244/5/2 247/5/2
f 245/10/2 246/10/2 249/10/2
f 249/10/2 246/10/2 250/10/2
f 247/10/2 248/10/2 251/10/2
f 251/10/2 248/10/2 252/10/2
f 250/10/2 251/10/2 253/10/2
f 253/10/2 251/10/2 254/10/2
f 255/10/2 256/10/2 257/10/2
f 257/10/2 256/10/2 258/10/2
f 261/10/3 260/10/3 259/10/3
f 263/10/3 261/10/3 259/10/3
f 263/10/3 262/10/3 261/10/3
f 264/10/3 262/10/3 263/10/3
f 265/10/3 262/10/3 264/10/3
f 267/10/3 265/10/3 264/10/3
f 267/10/3 266/10/3 265/10/3
f 268/10/3 266/10/3 267/10/3
f 269/10/3 266/10/3 268/10/3
f 271/10/3 269/10/3 268/10/3
f 271/10/3 270/10/3 269/10/3
f 272/10/3 270/10/3 271/10/3
f 274/10/3 271/10/3 268/10/3
f 275/10/3 271/10/3 274/10/3
f 275/10/3 274/10/3 273/10/3
f 276/10/3 271/10/3 275/10/3
f 278/10/3 275/10/3 273/10/3
f 279/10/3 275/10/3 278/10/3
f 279/10/3 278/10/3 277/10/3
f 280/10/3 275/10/3 279/10/3
f 281/10/3 279/10/3 277/10/3
f 282/10/3 279/10/3 281/10/3
f 286/10/3 284/10/3 283/10/3
f 287/10/3 284/10/3 286/10/3
f 288/10/3 284/10/3 287/10/3
f 290/10/3 289/10/3 288/10/3
f 290/10/3 288/10/3 287/10/3
f 291/10/3 289/10/3 290/10/3
f 292/10/3 289/10/3 291/10/3
f 294/5/3 286/5/3 285/5/3
f 295/5/3 286/5/3 294/5/3
f 299/10/3 293/10/3 292/10/3
f 299/10/3 292/10/3 291/10/3
f 300/10/3 293/10/3 299/10/3
f 301/10/3 293/10/3 300/10/3
f 303/5/3 296/5/3 295/5/3
f 305/10/3 302/10/3 301/10/3
f 305/10/3 301/10/3 300/10/3
f 307/7/3 298/7/3 297/7/3
f 308/7/3 298/7/3 307/7/3
f 309/10/3 306/10/3 305/10/3
f 309/10/3 305/10/3 300/10/3
f 310/10/3 306/10/3 309/10/3
f 312/10/3 306/10/3 310/10/3
f 313/5/3 304/5/3 303/5/3
f 313/5/3 303/5/3 295/5/3
f 314/5/3 304/5/3 313/5/3
f 315/10/3 312/10/3 311/10/3
f 315/10/3 306/10/3 312/10/3
f 316/10/3 306/10/3 315/10/3
f 318/10/3 315/10/3 311/10/3
f 319/10/3 315/10/3 318/10/3
f 320/10/3 315/10/3 319/10/3
f 322/5/3 313/5/3 295/5/3
f 323/5/3 313/5/3 322/5/3
f 325/10/3 318/10/3 317/10/3
f 325/10/3 319/10/3 318/10/3
f 326/10/3 319/10/3 325/10/3
f 327/10/3 319/10/3 326/10/3
f 328/5/3 322/5/3 321/5/3
f 329/5/3 322/5/3 328/5/3
f 330/10/3 325/10/3 324/10/3
f 330/10/3 326/10/3 325/10/3
f 331/10/3 326/10/3 330/10/3
f 332/10/3 330/10/3 329/10/3
f 333/10/3 330/10/3 332/10/3
f 337/6/3 335/6/3 334/6/3
f 338/6/3 335/6/3 337/6/3
f 340/6/3 337/6/3 336/6/3
f 340/6/3 339/6/3 338/6/3
f 340/6/3 338/6/3 337/6/3
f 341/6/3 339/6/3 340/6/3
f 342/6/3 340/6/3 336/6/3
f 342/12/3 341/12/3 340/12/3
f 343/6/3 339/6/3 341/6/3
f 343/12/3 341/12/3 342/12/3
f 344/6/3 342/6/3 336/6/3
f 345/6/3 342/6/3 344/6/3
f 346/13/3 343/13/3 342/13/3
f 346/6/3 342/6/3 345/6/3
f 347/6/3 339/6/3 343/6/3
f 347/13/3 343/13/3 346/13/3
f 348/1/3 345/1/3 344/1/3
f 348/6/3 344/6/3 336/6/3
f 349/6/3 346/6/3 345/6/3
f 349/1/3 345/1/3 348/1/3
f 349/6/3 347/6/3 346/6/3
f 350/6/3 347/6/3 349/6/3
f 351/6/3 339/6/3 347/6/3
f 351/6/3 347/6/3 350/6/3
f 352/6/3 350/6/3 349/6/3
f 352/6/3 349/6/3 348/6/3
f 352/13/3 351/13/3 350/13/3
f 353/6/3 339/6/3 351/6/3
f 353/13/3 351/13/3 352/13/3
f 356/6/3 352/6/3 348/6/3
f 356/12/3 353/12/3 352/12/3
f 357/6/3 339/6/3 353/6/3
f 357/12/3 353/12/3 356/12/3
f 358/6/3 348/6/3 336/6/3
f 358/6/3 356/6/3 348/6/3
f 358/6/3 357/6/3 356/6/3
f 359/6/3 357/6/3 358/6/3
f 360/6/3 339/6/3 357/6/3
f 360/6/3 357/6/3 359/6/3
f 361/6/3 339/6/3 360/6/3
f 362/7/3 355/7/3 354/7/3
f 363/7/3 355/7/3 362/7/3
f 364/6/3 360/6/3 359/6/3
f 365/6/3 360/6/3 364/6/3
f 369/2/3 368/2/3 367/2/3
f 370/2/3 368/2/3 369/2/3
f 371/7/3 367/7/3 366/7/3
f 372/2/3 369/2/3 367/2/3
f 372/7/3 367/7/3 371/7/3
f 373/2/3 369/2/3 372/2/3
f 374/11/3 370/11/3 369/11/3
f 374/2/3 369/2/3 373/2/3
f 375/11/3 370/11/3 374/11/3
f 378/8/3 372/8/3 371/8/3
f 379/2/3 373/2/3 372/2/3
f 379/8/3 372/8/3 378/8/3
f 380/11/3 374/11/3 373/11/3
f 380/2/3 373/2/3 379/2/3
f 381/9/3 375/9/3 374/9/3
f 381/11/3 374/11/3 380/11/3
f 382/9/3 375/9/3 381/9/3
f 383/2/3 380/2/3 379/2/3
f 383/2/3 381/2/3 380/2/3
f 383/11/3 382/11/3 381/11/3
f 384/11/3 382/11/3 383/11/3
f 385/7/3 377/7/3 376/7/3
f 386/7/3 377/7/3 385/7/3
f 387/7/3 379/7/3 378/7/3
f 388/2/3 383/2/3 379/2/3
f 388/7/3 379/7/3 387/7/3
f 388/2/3 384/2/3 383/2/3
f 389/2/3 384/2/3 388/2/3
f 390/2/3 384/2/3 389/2/3
f 391/2/3 384/2/3 390/2/3
f 396/7/3 393/7/3 392/7/3
f 397/6/3 394/6/3 393/6/3
f 397/7/3 393/7/3 396/7/3
f 398/11/3 395/11/3 394/11/3
f 398/6/3 394/6/3 397/6/3
f 399/11/3 395/11/3 398/11/3
f 403/7/3 401/7/3 400/7/3
f 404/2/3 402/2/3 401/2/3
f 404/7/3 401/7/3 403/7/3
f 405/2/3 402/2/3 404/2/3
f 406/7/4 407/7/4 408/7/4
f 408/7/4 407/7/4 409/7/4
f 410/7/4 411/7/4 415/7/4
f 411/6/4 412/6/4 416/6/4
f 415/7/4 411/7/4 416/7/4
f 412/11/4 413/11/4 417/11/4
f 416/6/4 412/6/4 417/6/4
f 417/11/4 413/11/4 418/11/4
f 414/2/4 415/2/4 419/2/4
f 419/2/4 415/2/4 420/2/4
f 421/7/4 422/7/4 424/7/4
f 422/2/4 423/2/4 425/2/4
f 424/7/4 422/7/4 425/7/4
f 425/2/4 423/2/4 426/2/4
f 427/11/4 428/11/4 429/11/4
f 429/11/4 428/11/4 430/11/4
f 431/5/4 432/5/4 435/5/4
f 435/5/4 432/5/4 436/5/4
f 434/2/4 435/2/4 437/2/4
f 437/2/4 435/2/4 438/2/4
f 434/2/4 437/2/4 439/2/4
f 437/11/4 438/11/4 439/11/4
f 439/11/4 438/11/4 440/11/4
f 433/7/4 434/7/4 441/7/4
f 434/2/4 439/2/4 442/2/4
f 441/7/4 434/7/4 442/7/4
f 439/2/4 440/2/4 442/2/4
f 442/2/4 440/2/4 443/2/4
f 443/5/4 444/5/4 445/5/4
f 445/5/4 444/5/4 446/5/4
f 447/10/4 448/10/4 450/10/4
f 450/10/4 448/10/4 451/10/4
f 451/10/4 448/10/4 452/10/4
f 449/5/4 450/5/4 454/5/4
f 454/5/4 450/5/4 455/5/4
f 452/10/4 453/10/4 456/10/4
f 451/10/4 452/10/4 456/10/4
f 456/10/4 453/10/4 457/10/4
f 458/5/4 459/5/4 460/5/4
f 460/5/4 459/5/4 461/5/4
f 462/10/4 463/10/4 467/10/4
f 467/10/4 463/10/4 468/10/4
f 464/5/4 465/5/4 469/5/4
f 469/5/4 465/5/4 470/5/4
f 466/10/4 467/10/4 471/10/4
f 471/10/4 467/10/4 472/10/4
f 470/10/4 471/10/4 473/10/4
f 473/10/4 471/10/4 474/10/4
f 475/10/4 476/10/4 478/10/4
f 478/10/4 476/10/4 479/10/4
f 477/5/4 478/5/4 482/5/4
f 482/5/4 478/5/4 483/5/4
f 480/10/4 481/10/4 484/10/4
f 484/10/4 481/10/4 485/10/4
f 485/10/4 481/10/4 486/10/4
f 486/10/4 487/10/4 488/10/4
f 485/10/4 486/10/4 488/10/4
f 485/10/4 488/10/4 490/10/4
f 488/10/4 489/10/4 490/10/4
f 490/10/4 489/10/4 491/10/4
f 491/10/4 489/10/4 493/10/4
f 493/10/4 489/10/4 494/10/4
f 492/10/4 493/10/4 494/10/4
f 494/10/4 489/10/4 495/10/4
f 477/5/4 482/5/4 496/5/4
f 492/10/4 494/10/4 499/10/4
f 499/10/4 494/10/4 500/10/4
f 500/10/4 494/10/4 501/10/4
f 498/10/4 499/10/4 502/10/4
f 499/10/4 500/10/4 502/10/4
f 502/10/4 500/10/4 503/10/4
f 496/5/4 497/5/4 504/5/4
f 477/5/4 496/5/4 504/5/4
f 504/5/4 497/5/4 505/5/4
f 498/10/4 502/10/4 507/10/4
f 507/10/4 502/10/4 508/10/4
f 505/10/4 506/10/4 509/10/4
f 509/10/4 506/10/4 510/10/4
f 511/10/4 512/10/4 514/10/4
f 514/10/4 512/10/4 515/10/4
f 513/10/4 514/10/4 517/10/4
f 515/10/4 516/10/4 517/10/4
f 514/10/4 515/10/4 517/10/4
f 513/10/4 517/10/4 519/10/4
f 517/10/4 518/10/4 519/10/4
f 519/10/4 518/10/4 520/10/4
f 513/10/4 519/10/4 521/10/4
f 521/10/4 519/10/4 522/10/4
f 522/10/4 519/10/4 523/10/4
f 523/10/4 519/10/4 524/10/4
f 522/10/4 523/10/4 525/10/4
f 525/10/4 523/10/4 526/10/4
f 529/7/5 528/7/5 527/7/5
f 530/7/5 528/7/5 529/7/5
f 533/7/5 532/7/5 531/7/5
f 534/7/5 532/7/5 533/7/5
f 535/2/5 534/2/5 533/2/5
f 536/2/5 534/2/5 535/2/5
f 542/8/5 538/8/5 537/8/5
f 543/7/5 539/7/5 538/7/5
f 543/8/5 538/8/5 542/8/5
f 544/7/5 539/7/5 543/7/5
f 545/7/5 541/7/5 540/7/5
f 546/7/5 541/7/5 545/7/5
f 547/4/5 543/4/5 542/4/5
f 548/4/5 543/4/5 547/4/5
f 550/7/5 549/7/5 548/7/5
f 550/7/5 548/7/5 547/7/5
f 550/7/5 547/7/5 546/7/5
f 551/7/5 549/7/5 550/7/5
f 554/7/5 553/7/5 552/7/5
f 555/7/5 553/7/5 554/7/5
f 556/6/5 555/6/5 554/6/5
f 557/6/5 555/6/5 556/6/5
f 558/11/5 557/11/5 556/11/5
f 559/11/5 557/11/5 558/11/5
f 562/6/5 561/6/5 560/6/5
f 563/6/5 561/6/5 562/6/5
f 564/6/5 561/6/5 563/6/5
f 565/6/5 561/6/5 564/6/5
f 566/6/5 561/6/5 565/6/5
f 567/6/5 561/6/5 566/6/5
f 568/6/5 561/6/5 567/6/5
f 569/6/5 562/6/5 560/6/5
f 570/6/5 562/6/5 569/6/5
f 571/6/5 561/6/5 568/6/5
f 572/6/5 561/6/5 571/6/5
f 573/5/5 572/5/5 571/5/5
f 574/5/5 570/5/5 569/5/5
f 575/5/5 570/5/5 574/5/5
f 578/5/5 572/5/5 573/5/5
f 579/5/5 572/5/5 578/5/5
f 580/5/5 577/5/5 576/5/5
f 580/5/5 578/5/5 577/5/5
f 580/5/5 576/5/5 575/5/5
f 581/5/5 578/5/5 580/5/5
f 586/6/5 583/6/5 582/6/5
f 587/6/5 583/6/5 586/6/5
f 588/6/5 585/6/5 584/6/5
f 589/6/5 585/6/5 588/6/5
f 590/5/5 587/5/5 586/5/5
f 593/5/5 589/5/5 588/5/5
f 594/5/5 591/5/5 590/5/5
f 595/5/5 593/5/5 592/5/5
f 596/5/5 594/5/5 590/5/5
f 596/5/5 595/5/5 594/5/5
f 596/5/5 590/5/5 586/5/5
f 597/5/5 593/5/5 595/5/5
f 597/5/5 595/5/5 596/5/5
f 597/5/5 589/5/5 593/5/5
f 602/5/5 599/5/5 598/5/5
f 603/5/5 599/5/5 602/5/5
f 604/5/5 601/5/5 600/5/5
f 605/5/5 601/5/5 604/5/5
f 606/5/5 602/5/5 598/5/5
f 607/5/5 601/5/5 605/5/5
f 608/5/5 606/5/5 598/5/5
f 609/5/5 606/5/5 608/5/5
f 610/5/5 601/5/5 607/5/5
f 611/5/5 601/5/5 610/5/5
f 614/10/5 613/10/5 612/10/5
f 615/10/5 613/10/5 614/10/5
f 621/10/5 617/10/5 616/10/5
f 622/10/5 617/10/5 621/10/5
f 623/10/5 619/10/5 618/10/5
f 624/10/5 619/10/5 623/10/5
f 626/5/5 623/5/5 622/5/5
f 627/5/5 623/5/5 626/5/5
f 628/10/5 621/10/5 620/10/5
f 629/10/5 621/10/5 628/10/5
f 632/10/5 625/10/5 624/10/5
f 633/10/5 625/10/5 632/10/5
f 634/10/5 630/10/5 629/10/5
f 635/10/5 630/10/5 634/10/5
f 638/10/5 632/10/5 631/10/5
f 639/10/5 632/10/5 638/10/5
f 640/10/5 636/10/5 635/10/5
f 641/10/5 636/10/5 640/10/5
f 642/10/5 638/10/5 637/10/5
f 643/10/5 638/10/5 642/10/5
f 648/10/5 645/10/5 644/10/5
f 649/10/5 645/10/5 648/10/5
f 650/10/5 647/10/5 646/10/5
f 651/10/5 647/10/5 650/10/5
f 654/10/5 653/10/5 652/10/5
f 655/10/5 653/10/5 654/10/5
f 656/7/6 657/7/6 658/7/6
f 658/7/6 657/7/6 659/7/6
f 660/7/6 661/7/6 662/7/6
f 662/7/6 661/7/6 663/7/6
f 664/7/6 665/7/6 666/7/6
f 666/7/6 665/7/6 667/7/6
f 668/7/6 669/7/6 670/7/6
f 670/7/6 669/7/6 671/7/6
f 670/6/6 671/6/6 674/6/6
f 674/6/6 671/6/6 675/6/6
f 672/11/6 673/11/6 676/11/6
f 676/11/6 673/11/6 677/11/6
f 674/11/6 675/11/6 678/11/6
f 678/11/6 675/11/6 679/11/6
f 680/10/6 681/10/6 684/10/6
f 684/10/6 681/10/6 685/10/6
f 682/10/6 683/10/6 686/10/6
f 686/10/6 683/10/6 687/10/6
f 687/10/6 688/10/6 692/10/6
f 692/10/6 688/10/6 693/10/6
f 689/10/6 690/10/6 694/10/6
f 694/10/6 690/10/6 695/10/6
f 691/10/6 692/10/6 696/10/6
f 696/10/6 692/10/6 697/10/6
f 698/10/6 699/10/6 704/10/6
f 704/10/6 699/10/6 705/10/6
f 700/10/6 701/10/6 706/10/6
f 706/10/6 701/10/6 707/10/6
f 702/10/6 703/10/6 708/10/6
f 708/10/6 703/10/6 709/10/6
f 710/10/6 711/10/6 714/10/6
f 714/10/6 711/10/6 715/10/6
f 712/10/6 713/10/6 716/10/6
f 716/10/6 713/10/6 717/10/6
f 718/10/6 719/10/6 724/10/6
f 724/10/6 719/10/6 725/10/6
f 720/10/6 721/10/6 726/10/6
f 726/10/6 721/10/6 727/10/6
f 722/10/6 723/10/6 730/10/6
f 730/10/6 723/10/6 731/10/6
f 728/10/6 729/10/6 733/10/6
f 733/10/6 729/10/6 734/10/6
f 732/10/6 733/10/6 739/10/6
f 739/10/6 733/10/6 740/10/6
f 735/10/6 736/10/6 741/10/6
f 741/10/6 736/10/6 742/10/6
f 737/10/6 738/10/6 743/10/6
f 743/10/6 738/10/6 744/10/6
f 745/10/6 746/10/6 749/10/6
f 749/10/6 746/10/6 750/10/6
f 751/10/6 752/10/6 753/10/6
f 753/10/6 752/10/6 754/10/6
f 747/10/6 748/10/6 755/10/6
f 755/10/6 748/10/6 756/10/6
f 751/10/6 753/10/6 759/10/6
f 759/10/6 753/10/6 760/10/6
f 757/10/6 758/10/6 761/10/6
f 761/10/6 758/10/6 762/10/6
f 763/10/6 764/10/6 767/10/6
f 767/10/6 764/10/6 768/10/6
f 765/10/6 766/10/6 769/10/6
f 769/10/6 766/10/6 770/10/6
f 771/10/6 772/10/6 773/10/6
f 773/10/6 772/10/6 774/10/6
