# MagicaVoxel @ Ephtracy

# group
o 

# material
mtllib Builderman.vox.mtl
usemtl palette

# normals
vn -1 0 0
vn 1 0 0
vn 0 0 1
vn 0 0 -1
vn 0 -1 0
vn 0 1 0

# texcoords
vt 0.0839844 0.5
vt 0.283203 0.5
vt 0.287109 0.5
vt 0.291016 0.5
vt 0.310547 0.5
vt 0.349609 0.5
vt 0.365234 0.5
vt 0.373047 0.5
vt 0.478516 0.5
vt 0.748047 0.5
vt 0.958984 0.5
vt 0.994141 0.5

# verts
v -0.7 1.4 0.4
v -0.7 1.4 -0.3
v -0.7 1.5 0.4
v -0.7 1.5 -0.3
v -0.6 1.3 0.4
v -0.6 1.3 -0.3
v -0.6 1.4 0.5
v -0.6 1.4 0.4
v -0.6 1.4 -0.3
v -0.6 1.4 -0.4
v -0.6 1.5 0.5
v -0.6 1.5 0.4
v -0.6 1.5 -0.3
v -0.6 1.5 -0.4
v -0.6 1.7 0.4
v -0.6 1.7 -0.3
v -0.5 0.3 0.1
v -0.5 0.3 -0.1
v -0.5 0.4 0.1
v -0.5 0.4 -0.1
v -0.5 0.5 0.1
v -0.5 0.5 -0.1
v -0.5 0.7 0.1
v -0.5 0.7 -0.1
v -0.5 0.9 0.3
v -0.5 0.9 0
v -0.5 0.9 -0.4
v -0.5 1.3 0.3
v -0.5 1.3 0
v -0.5 1.3 -0.3
v -0.5 1.4 -0.3
v -0.5 1.4 -0.4
v -0.5 1.4 -0.5
v -0.5 1.5 0.5
v -0.5 1.5 0.4
v -0.5 1.5 -0.3
v -0.5 1.5 -0.4
v -0.5 1.6 0.5
v -0.5 1.6 0.4
v -0.5 1.6 -0.4
v -0.5 1.6 -0.5
v -0.5 1.7 0.4
v -0.5 1.7 -0.3
v -0.5 1.7 -0.4
v -0.5 1.8 0.4
v -0.5 1.8 -0.3
v -0.4 0.8 0.3
v -0.4 0.8 0
v -0.4 0.8 -0.2
v -0.4 0.9 0.3
v -0.4 0.9 0
v -0.4 0.9 -0.2
v -0.4 1.7 -0.3
v -0.4 1.7 -0.4
v -0.4 1.8 -0.3
v -0.4 1.8 -0.4
v -0.3 0 0.2
v -0.3 0 -0.1
v -0.3 0.1 0.2
v -0.3 0.1 0.1
v -0.3 0.2 0.1
v -0.3 0.2 -0.1
v -0.3 0.3 0.2
v -0.3 0.3 0.1
v -0.3 0.3 -0.1
v -0.3 0.3 -0.2
v -0.3 0.4 0.2
v -0.3 0.4 0.1
v -0.3 0.4 -0.1
v -0.3 0.4 -0.2
v -0.3 0.5 0.1
v -0.3 0.5 -0.1
v -0.3 0.7 0.1
v -0.3 0.7 -0.1
v -0.3 0.8 0.2
v -0.3 0.8 0.1
v -0.3 0.8 0
v -0.3 0.8 -0.1
v -0.3 0.8 -0.2
v -0.3 0.8 -0.3
v -0.3 0.9 -0.2
v -0.3 0.9 -0.3
v -0.3 1.3 -0.4
v -0.3 1.3 -0.5
v -0.3 1.4 -0.4
v -0.3 1.4 -0.5
v -0.3 1.6 0.5
v -0.3 1.6 0.4
v -0.3 1.6 -0.4
v -0.3 1.6 -0.5
v -0.3 1.7 0.5
v -0.3 1.7 0.4
v -0.3 1.7 -0.4
v -0.3 1.7 -0.5
v -0.3 1.8 0.4
v -0.3 1.8 -0.4
v -0.3 1.9 0.4
v -0.3 1.9 -0.4
v -0.2 1.9 0.4
v -0.2 1.9 -0.4
v -0.2 2 0.4
v -0.2 2 -0.4
v -0.1 1.7 0.5
v -0.1 1.7 0.4
v -0.1 1.7 -0.4
v -0.1 1.7 -0.5
v -0.1 1.8 0.5
v -0.1 1.8 0.4
v -0.1 1.8 -0.4
v -0.1 1.8 -0.5
v 0.1 0 0.2
v 0.1 0 -0.1
v 0.1 0.1 0.2
v 0.1 0.1 0.1
v 0.1 0.2 0.1
v 0.1 0.2 -0.1
v 0.1 0.3 0.1
v 0.1 0.3 -0.1
v 0.2 1.5 0.5
v 0.2 1.5 0.4
v 0.2 1.6 0.5
v 0.2 1.6 0.4
v 0.4 1.3 0.4
v 0.4 1.3 0.3
v 0.4 1.4 0.5
v 0.4 1.4 0.4
v 0.4 1.4 0.3
v 0.4 1.5 0.5
v 0.4 1.5 0.4
v -0.4 1.3 0.4
v -0.4 1.3 0.3
v -0.4 1.4 0.5
v -0.4 1.4 0.4
v -0.4 1.4 0.3
v -0.4 1.5 0.5
v -0.4 1.5 0.4
v -0.2 1.5 0.5
v -0.2 1.5 0.4
v -0.2 1.6 0.5
v -0.2 1.6 0.4
v -0.1 0 0.2
v -0.1 0 -0.1
v -0.1 0.1 0.2
v -0.1 0.1 0.1
v -0.1 0.2 0.1
v -0.1 0.2 -0.1
v -0.1 0.3 0.1
v -0.1 0.3 -0.1
v 0.1 1.7 0.5
v 0.1 1.7 0.4
v 0.1 1.7 -0.4
v 0.1 1.7 -0.5
v 0.1 1.8 0.5
v 0.1 1.8 0.4
v 0.1 1.8 -0.4
v 0.1 1.8 -0.5
v 0.2 1.9 0.4
v 0.2 1.9 -0.4
v 0.2 2 0.4
v 0.2 2 -0.4
v 0.3 0 0.2
v 0.3 0 -0.1
v 0.3 0.1 0.2
v 0.3 0.1 0.1
v 0.3 0.2 0.1
v 0.3 0.2 -0.1
v 0.3 0.3 0.2
v 0.3 0.3 0.1
v 0.3 0.3 -0.1
v 0.3 0.3 -0.2
v 0.3 0.4 0.2
v 0.3 0.4 0.1
v 0.3 0.4 -0.1
v 0.3 0.4 -0.2
v 0.3 0.5 0.1
v 0.3 0.5 -0.1
v 0.3 0.7 0.1
v 0.3 0.7 -0.1
v 0.3 0.8 0.2
v 0.3 0.8 0
v 0.3 0.8 -0.2
v 0.3 0.8 -0.3
v 0.3 0.9 -0.2
v 0.3 0.9 -0.3
v 0.3 1.3 -0.4
v 0.3 1.3 -0.5
v 0.3 1.4 -0.4
v 0.3 1.4 -0.5
v 0.3 1.6 0.5
v 0.3 1.6 0.4
v 0.3 1.6 -0.4
v 0.3 1.6 -0.5
v 0.3 1.7 0.5
v 0.3 1.7 0.4
v 0.3 1.7 -0.4
v 0.3 1.7 -0.5
v 0.3 1.8 0.4
v 0.3 1.8 -0.4
v 0.3 1.9 0.4
v 0.3 1.9 -0.4
v 0.4 0.8 0.3
v 0.4 0.8 0
v 0.4 0.8 -0.2
v 0.4 0.9 0.3
v 0.4 0.9 0
v 0.4 0.9 -0.2
v 0.5 0.3 0.1
v 0.5 0.3 -0.1
v 0.5 0.4 0.1
v 0.5 0.4 -0.1
v 0.5 0.5 0.1
v 0.5 0.5 -0.1
v 0.5 0.7 0.1
v 0.5 0.7 -0.1
v 0.5 0.9 0.3
v 0.5 0.9 0
v 0.5 0.9 -0.4
v 0.5 1.3 0.3
v 0.5 1.3 0
v 0.5 1.3 -0.3
v 0.5 1.4 -0.3
v 0.5 1.4 -0.4
v 0.5 1.4 -0.5
v 0.5 1.5 0.5
v 0.5 1.5 0.4
v 0.5 1.5 -0.3
v 0.5 1.5 -0.4
v 0.5 1.6 0.5
v 0.5 1.6 0.4
v 0.5 1.6 -0.4
v 0.5 1.6 -0.5
v 0.5 1.7 0.4
v 0.5 1.7 -0.3
v 0.5 1.8 0.4
v 0.5 1.8 -0.4
v 0.6 1.3 0.4
v 0.6 1.3 -0.3
v 0.6 1.4 0.5
v 0.6 1.4 0.4
v 0.6 1.4 -0.3
v 0.6 1.4 -0.4
v 0.6 1.5 0.5
v 0.6 1.5 0.4
v 0.6 1.5 -0.3
v 0.6 1.5 -0.4
v 0.6 1.6 0.4
v 0.6 1.6 -0.3
v 0.6 1.7 0.4
v 0.6 1.7 -0.3
v 0.7 1.4 0.4
v 0.7 1.4 -0.3
v 0.7 1.6 0.4
v 0.7 1.6 -0.3
v -0.6 1.4 0.5
v -0.6 1.5 0.5
v -0.5 1.5 0.5
v -0.5 1.6 0.5
v -0.4 1.4 0.5
v -0.4 1.5 0.5
v -0.3 1.6 0.5
v -0.3 1.7 0.5
v -0.2 1.5 0.5
v -0.2 1.6 0.5
v -0.1 1.7 0.5
v -0.1 1.8 0.5
v 0.1 1.7 0.5
v 0.1 1.8 0.5
v 0.2 1.5 0.5
v 0.2 1.6 0.5
v 0.3 1.6 0.5
v 0.3 1.7 0.5
v 0.4 1.4 0.5
v 0.4 1.5 0.5
v 0.5 1.5 0.5
v 0.5 1.6 0.5
v 0.6 1.4 0.5
v 0.6 1.5 0.5
v -0.7 1.4 0.4
v -0.7 1.5 0.4
v -0.6 1.3 0.4
v -0.6 1.4 0.4
v -0.6 1.5 0.4
v -0.6 1.7 0.4
v -0.5 1.5 0.4
v -0.5 1.6 0.4
v -0.5 1.7 0.4
v -0.5 1.8 0.4
v -0.4 1.3 0.4
v -0.4 1.4 0.4
v -0.4 1.5 0.4
v -0.3 1.6 0.4
v -0.3 1.7 0.4
v -0.3 1.8 0.4
v -0.3 1.9 0.4
v -0.2 1.5 0.4
v -0.2 1.6 0.4
v -0.2 1.9 0.4
v -0.2 2 0.4
v -0.1 1.7 0.4
v -0.1 1.8 0.4
v 0.1 1.7 0.4
v 0.1 1.8 0.4
v 0.2 1.5 0.4
v 0.2 1.6 0.4
v 0.2 1.9 0.4
v 0.2 2 0.4
v 0.3 1.6 0.4
v 0.3 1.7 0.4
v 0.3 1.8 0.4
v 0.3 1.9 0.4
v 0.4 1.3 0.4
v 0.4 1.4 0.4
v 0.4 1.5 0.4
v 0.5 1.5 0.4
v 0.5 1.6 0.4
v 0.5 1.7 0.4
v 0.5 1.8 0.4
v 0.6 1.3 0.4
v 0.6 1.4 0.4
v 0.6 1.5 0.4
v 0.6 1.6 0.4
v 0.6 1.7 0.4
v 0.7 1.4 0.4
v 0.7 1.6 0.4
v -0.5 0.9 0.3
v -0.5 1.3 0.3
v -0.4 0.8 0.3
v -0.4 0.9 0.3
v -0.4 1.3 0.3
v -0.4 1.4 0.3
v -0.3 1.1 0.3
v -0.3 1.3 0.3
v -0.2 1.1 0.3
v -0.2 1.3 0.3
v -0.1 0.9 0.3
v -0.1 1 0.3
v -0.1 1.1 0.3
v -0.1 1.3 0.3
v 0.1 0.9 0.3
v 0.1 1 0.3
v 0.1 1.1 0.3
v 0.1 1.3 0.3
v 0.2 1.1 0.3
v 0.2 1.3 0.3
v 0.3 1.1 0.3
v 0.3 1.3 0.3
v 0.4 0.8 0.3
v 0.4 0.9 0.3
v 0.4 1.3 0.3
v 0.4 1.4 0.3
v 0.5 0.9 0.3
v 0.5 1.3 0.3
v -0.3 0 0.2
v -0.3 0.1 0.2
v -0.3 0.3 0.2
v -0.3 0.4 0.2
v -0.3 0.8 0.2
v -0.2 0.7 0.2
v -0.2 0.8 0.2
v -0.1 0 0.2
v -0.1 0.1 0.2
v -0.1 0.3 0.2
v -0.1 0.4 0.2
v -0.1 0.6 0.2
v -0.1 0.7 0.2
v -0.1 0.8 0.2
v 0.1 0 0.2
v 0.1 0.1 0.2
v 0.1 0.3 0.2
v 0.1 0.4 0.2
v 0.1 0.6 0.2
v 0.1 0.7 0.2
v 0.1 0.8 0.2
v 0.2 0.7 0.2
v 0.2 0.8 0.2
v 0.3 0 0.2
v 0.3 0.1 0.2
v 0.3 0.3 0.2
v 0.3 0.4 0.2
v 0.3 0.8 0.2
v -0.5 0.3 0.1
v -0.5 0.4 0.1
v -0.5 0.5 0.1
v -0.5 0.7 0.1
v -0.3 0.1 0.1
v -0.3 0.2 0.1
v -0.3 0.3 0.1
v -0.3 0.4 0.1
v -0.3 0.5 0.1
v -0.3 0.7 0.1
v -0.1 0.1 0.1
v -0.1 0.2 0.1
v -0.1 0.3 0.1
v 0.1 0.1 0.1
v 0.1 0.2 0.1
v 0.1 0.3 0.1
v 0.3 0.1 0.1
v 0.3 0.2 0.1
v 0.3 0.3 0.1
v 0.3 0.4 0.1
v 0.3 0.5 0.1
v 0.3 0.7 0.1
v 0.5 0.3 0.1
v 0.5 0.4 0.1
v 0.5 0.5 0.1
v 0.5 0.7 0.1
v -0.5 0.3 -0.1
v -0.5 0.4 -0.1
v -0.5 0.5 -0.1
v -0.5 0.7 -0.1
v -0.3 0 -0.1
v -0.3 0.2 -0.1
v -0.3 0.3 -0.1
v -0.3 0.4 -0.1
v -0.3 0.5 -0.1
v -0.3 0.7 -0.1
v -0.1 0 -0.1
v -0.1 0.2 -0.1
v -0.1 0.3 -0.1
v 0.1 0 -0.1
v 0.1 0.2 -0.1
v 0.1 0.3 -0.1
v 0.3 0 -0.1
v 0.3 0.2 -0.1
v 0.3 0.3 -0.1
v 0.3 0.4 -0.1
v 0.3 0.5 -0.1
v 0.3 0.7 -0.1
v 0.5 0.3 -0.1
v 0.5 0.4 -0.1
v 0.5 0.5 -0.1
v 0.5 0.7 -0.1
v -0.4 0.8 -0.2
v -0.4 0.9 -0.2
v -0.3 0.3 -0.2
v -0.3 0.4 -0.2
v -0.3 0.8 -0.2
v -0.3 0.9 -0.2
v -0.1 0.7 -0.2
v -0.1 0.8 -0.2
v 0.1 0.7 -0.2
v 0.1 0.8 -0.2
v 0.3 0.3 -0.2
v 0.3 0.4 -0.2
v 0.3 0.8 -0.2
v 0.3 0.9 -0.2
v 0.4 0.8 -0.2
v 0.4 0.9 -0.2
v -0.7 1.4 -0.3
v -0.7 1.5 -0.3
v -0.6 1.3 -0.3
v -0.6 1.4 -0.3
v -0.6 1.5 -0.3
v -0.6 1.7 -0.3
v -0.5 1.3 -0.3
v -0.5 1.4 -0.3
v -0.5 1.5 -0.3
v -0.5 1.7 -0.3
v -0.5 1.8 -0.3
v -0.4 1.7 -0.3
v -0.4 1.8 -0.3
v -0.3 0.8 -0.3
v -0.3 0.9 -0.3
v 0.3 0.8 -0.3
v 0.3 0.9 -0.3
v 0.5 1.3 -0.3
v 0.5 1.4 -0.3
v 0.5 1.5 -0.3
v 0.5 1.7 -0.3
v 0.6 1.3 -0.3
v 0.6 1.4 -0.3
v 0.6 1.5 -0.3
v 0.6 1.6 -0.3
v 0.6 1.7 -0.3
v 0.7 1.4 -0.3
v 0.7 1.6 -0.3
v -0.6 1.4 -0.4
v -0.6 1.5 -0.4
v -0.5 0.9 -0.4
v -0.5 1.4 -0.4
v -0.5 1.5 -0.4
v -0.5 1.6 -0.4
v -0.5 1.7 -0.4
v -0.4 1.7 -0.4
v -0.4 1.8 -0.4
v -0.3 1.3 -0.4
v -0.3 1.4 -0.4
v -0.3 1.6 -0.4
v -0.3 1.7 -0.4
v -0.3 1.8 -0.4
v -0.3 1.9 -0.4
v -0.2 1.9 -0.4
v -0.2 2 -0.4
v -0.1 1.7 -0.4
v -0.1 1.8 -0.4
v 0.1 1.7 -0.4
v 0.1 1.8 -0.4
v 0.2 1.9 -0.4
v 0.2 2 -0.4
v 0.3 1.3 -0.4
v 0.3 1.4 -0.4
v 0.3 1.6 -0.4
v 0.3 1.7 -0.4
v 0.3 1.8 -0.4
v 0.3 1.9 -0.4
v 0.5 0.9 -0.4
v 0.5 1.4 -0.4
v 0.5 1.5 -0.4
v 0.5 1.6 -0.4
v 0.5 1.8 -0.4
v 0.6 1.4 -0.4
v 0.6 1.5 -0.4
v -0.5 1.4 -0.5
v -0.5 1.6 -0.5
v -0.3 1.3 -0.5
v -0.3 1.4 -0.5
v -0.3 1.6 -0.5
v -0.3 1.7 -0.5
v -0.1 1.7 -0.5
v -0.1 1.8 -0.5
v 0.1 1.7 -0.5
v 0.1 1.8 -0.5
v 0.3 1.3 -0.5
v 0.3 1.4 -0.5
v 0.3 1.6 -0.5
v 0.3 1.7 -0.5
v 0.5 1.4 -0.5
v 0.5 1.6 -0.5
v -0.3 0 0.2
v -0.1 0 0.2
v 0.1 0 0.2
v 0.3 0 0.2
v -0.3 0 -0.1
v -0.1 0 -0.1
v 0.1 0 -0.1
v 0.3 0 -0.1
v -0.3 0.3 0.2
v -0.1 0.3 0.2
v 0.1 0.3 0.2
v 0.3 0.3 0.2
v -0.5 0.3 0.1
v -0.3 0.3 0.1
v -0.1 0.3 0.1
v 0.1 0.3 0.1
v 0.3 0.3 0.1
v 0.5 0.3 0.1
v -0.5 0.3 -0.1
v -0.3 0.3 -0.1
v -0.1 0.3 -0.1
v 0.1 0.3 -0.1
v 0.3 0.3 -0.1
v 0.5 0.3 -0.1
v -0.3 0.3 -0.2
v 0.3 0.3 -0.2
v -0.4 0.8 0.3
v 0.4 0.8 0.3
v -0.3 0.8 0.2
v -0.2 0.8 0.2
v -0.1 0.8 0.2
v 0.1 0.8 0.2
v 0.2 0.8 0.2
v 0.3 0.8 0.2
v -0.3 0.8 0.1
v -0.4 0.8 0
v -0.3 0.8 0
v 0.3 0.8 0
v 0.4 0.8 0
v -0.3 0.8 -0.1
v -0.4 0.8 -0.2
v -0.3 0.8 -0.2
v -0.1 0.8 -0.2
v 0.1 0.8 -0.2
v 0.3 0.8 -0.2
v 0.4 0.8 -0.2
v -0.3 0.8 -0.3
v 0.3 0.8 -0.3
v -0.5 0.9 0.3
v -0.4 0.9 0.3
v 0.4 0.9 0.3
v 0.5 0.9 0.3
v -0.5 0.9 0
v -0.4 0.9 0
v 0.4 0.9 0
v 0.5 0.9 0
v -0.4 0.9 -0.2
v -0.3 0.9 -0.2
v 0.3 0.9 -0.2
v 0.4 0.9 -0.2
v -0.3 0.9 -0.3
v 0.3 0.9 -0.3
v -0.5 0.9 -0.4
v 0.5 0.9 -0.4
v -0.6 1.3 0.4
v -0.4 1.3 0.4
v 0.4 1.3 0.4
v 0.6 1.3 0.4
v -0.5 1.3 0.3
v -0.4 1.3 0.3
v 0.4 1.3 0.3
v 0.5 1.3 0.3
v -0.5 1.3 0
v 0.5 1.3 0
v -0.6 1.3 -0.3
v -0.5 1.3 -0.3
v 0.5 1.3 -0.3
v 0.6 1.3 -0.3
v -0.3 1.3 -0.4
v 0.3 1.3 -0.4
v -0.3 1.3 -0.5
v 0.3 1.3 -0.5
v -0.6 1.4 0.5
v -0.4 1.4 0.5
v 0.4 1.4 0.5
v 0.6 1.4 0.5
v -0.7 1.4 0.4
v -0.6 1.4 0.4
v -0.4 1.4 0.4
v 0.4 1.4 0.4
v 0.6 1.4 0.4
v 0.7 1.4 0.4
v -0.4 1.4 0.3
v 0.4 1.4 0.3
v -0.7 1.4 -0.3
v -0.6 1.4 -0.3
v -0.5 1.4 -0.3
v 0.5 1.4 -0.3
v 0.6 1.4 -0.3
v 0.7 1.4 -0.3
v -0.6 1.4 -0.4
v -0.5 1.4 -0.4
v -0.3 1.4 -0.4
v 0.3 1.4 -0.4
v 0.5 1.4 -0.4
v 0.6 1.4 -0.4
v -0.5 1.4 -0.5
v -0.3 1.4 -0.5
v 0.3 1.4 -0.5
v 0.5 1.4 -0.5
v -0.4 1.5 0.5
v -0.2 1.5 0.5
v 0.2 1.5 0.5
v 0.4 1.5 0.5
v -0.4 1.5 0.4
v -0.2 1.5 0.4
v 0.2 1.5 0.4
v 0.4 1.5 0.4
v -0.2 1.6 0.5
v 0.2 1.6 0.5
v -0.2 1.6 0.4
v 0.2 1.6 0.4
v -0.3 0.1 0.2
v -0.1 0.1 0.2
v 0.1 0.1 0.2
v 0.3 0.1 0.2
v -0.3 0.1 0.1
v -0.1 0.1 0.1
v 0.1 0.1 0.1
v 0.3 0.1 0.1
v -0.5 0.7 0.1
v -0.3 0.7 0.1
v 0.3 0.7 0.1
v 0.5 0.7 0.1
v -0.5 0.7 -0.1
v -0.3 0.7 -0.1
v 0.3 0.7 -0.1
v 0.5 0.7 -0.1
v -0.6 1.5 0.5
v -0.5 1.5 0.5
v 0.5 1.5 0.5
v 0.6 1.5 0.5
v -0.7 1.5 0.4
v -0.6 1.5 0.4
v -0.5 1.5 0.4
v 0.5 1.5 0.4
v 0.6 1.5 0.4
v -0.7 1.5 -0.3
v -0.6 1.5 -0.3
v -0.5 1.5 -0.3
v 0.5 1.5 -0.3
v 0.6 1.5 -0.3
v -0.6 1.5 -0.4
v -0.5 1.5 -0.4
v 0.5 1.5 -0.4
v 0.6 1.5 -0.4
v -0.5 1.6 0.5
v -0.3 1.6 0.5
v 0.3 1.6 0.5
v 0.5 1.6 0.5
v -0.5 1.6 0.4
v -0.3 1.6 0.4
v 0.3 1.6 0.4
v 0.5 1.6 0.4
v 0.6 1.6 0.4
v 0.7 1.6 0.4
v 0.6 1.6 -0.3
v 0.7 1.6 -0.3
v -0.5 1.6 -0.4
v -0.3 1.6 -0.4
v 0.3 1.6 -0.4
v 0.5 1.6 -0.4
v -0.5 1.6 -0.5
v -0.3 1.6 -0.5
v 0.3 1.6 -0.5
v 0.5 1.6 -0.5
v -0.3 1.7 0.5
v -0.1 1.7 0.5
v 0.1 1.7 0.5
v 0.3 1.7 0.5
v -0.6 1.7 0.4
v -0.5 1.7 0.4
v -0.3 1.7 0.4
v -0.1 1.7 0.4
v 0.1 1.7 0.4
v 0.3 1.7 0.4
v 0.5 1.7 0.4
v 0.6 1.7 0.4
v -0.6 1.7 -0.3
v -0.5 1.7 -0.3
v -0.4 1.7 -0.3
v 0.5 1.7 -0.3
v 0.6 1.7 -0.3
v -0.5 1.7 -0.4
v -0.4 1.7 -0.4
v -0.3 1.7 -0.4
v -0.1 1.7 -0.4
v 0.1 1.7 -0.4
v 0.3 1.7 -0.4
v -0.3 1.7 -0.5
v -0.1 1.7 -0.5
v 0.1 1.7 -0.5
v 0.3 1.7 -0.5
v -0.1 1.8 0.5
v 0.1 1.8 0.5
v -0.5 1.8 0.4
v -0.3 1.8 0.4
v -0.1 1.8 0.4
v 0.1 1.8 0.4
v 0.3 1.8 0.4
v 0.5 1.8 0.4
v -0.5 1.8 -0.3
v -0.4 1.8 -0.3
v -0.4 1.8 -0.4
v -0.3 1.8 -0.4
v -0.1 1.8 -0.4
v 0.1 1.8 -0.4
v 0.3 1.8 -0.4
v 0.5 1.8 -0.4
v -0.1 1.8 -0.5
v 0.1 1.8 -0.5
v -0.3 1.9 0.4
v -0.2 1.9 0.4
v 0.2 1.9 0.4
v 0.3 1.9 0.4
v -0.3 1.9 -0.4
v -0.2 1.9 -0.4
v 0.2 1.9 -0.4
v 0.3 1.9 -0.4
v -0.2 2 0.4
v 0.2 2 0.4
v -0.2 2 -0.4
v 0.2 2 -0.4

# faces
f 3/9/1 2/9/1 1/9/1
f 4/9/1 2/9/1 3/9/1
f 8/5/1 6/5/1 5/5/1
f 9/5/1 6/5/1 8/5/1
f 11/9/1 8/9/1 7/9/1
f 12/9/1 8/9/1 11/9/1
f 13/9/1 10/9/1 9/9/1
f 14/9/1 10/9/1 13/9/1
f 15/9/1 13/9/1 12/9/1
f 16/9/1 13/9/1 15/9/1
f 19/7/1 18/7/1 17/7/1
f 20/7/1 18/7/1 19/7/1
f 21/6/1 20/6/1 19/6/1
f 22/6/1 20/6/1 21/6/1
f 23/10/1 22/10/1 21/10/1
f 24/10/1 22/10/1 23/10/1
f 28/6/1 26/6/1 25/6/1
f 29/5/1 27/5/1 26/5/1
f 29/6/1 26/6/1 28/6/1
f 30/5/1 27/5/1 29/5/1
f 31/5/1 27/5/1 30/5/1
f 32/5/1 27/5/1 31/5/1
f 37/9/1 33/9/1 32/9/1
f 38/9/1 35/9/1 34/9/1
f 39/9/1 35/9/1 38/9/1
f 40/9/1 37/9/1 36/9/1
f 40/9/1 33/9/1 37/9/1
f 41/9/1 33/9/1 40/9/1
f 43/9/1 40/9/1 36/9/1
f 44/9/1 40/9/1 43/9/1
f 45/9/1 43/9/1 42/9/1
f 46/9/1 43/9/1 45/9/1
f 50/6/1 48/6/1 47/6/1
f 51/5/1 49/5/1 48/5/1
f 51/6/1 48/6/1 50/6/1
f 52/5/1 49/5/1 51/5/1
f 55/9/1 54/9/1 53/9/1
f 56/9/1 54/9/1 55/9/1
f 59/7/1 58/7/1 57/7/1
f 60/7/1 58/7/1 59/7/1
f 61/7/1 58/7/1 60/7/1
f 62/7/1 58/7/1 61/7/1
f 64/2/1 62/2/1 61/2/1
f 65/2/1 62/2/1 64/2/1
f 67/7/1 64/7/1 63/7/1
f 68/7/1 64/7/1 67/7/1
f 69/7/1 66/7/1 65/7/1
f 70/7/1 66/7/1 69/7/1
f 71/2/1 68/2/1 67/2/1
f 72/2/1 70/2/1 69/2/1
f 73/2/1 71/2/1 67/2/1
f 74/2/1 70/2/1 72/2/1
f 75/2/1 73/2/1 67/2/1
f 76/10/1 74/10/1 73/10/1
f 76/2/1 73/2/1 75/2/1
f 77/10/1 74/10/1 76/10/1
f 78/2/1 70/2/1 74/2/1
f 78/10/1 74/10/1 77/10/1
f 79/2/1 70/2/1 78/2/1
f 81/5/1 80/5/1 79/5/1
f 82/5/1 80/5/1 81/5/1
f 85/9/1 84/9/1 83/9/1
f 86/9/1 84/9/1 85/9/1
f 91/9/1 88/9/1 87/9/1
f 92/9/1 88/9/1 91/9/1
f 93/9/1 90/9/1 89/9/1
f 94/9/1 90/9/1 93/9/1
f 97/9/1 96/9/1 95/9/1
f 98/9/1 96/9/1 97/9/1
f 101/9/1 100/9/1 99/9/1
f 102/9/1 100/9/1 101/9/1
f 107/9/1 104/9/1 103/9/1
f 108/9/1 104/9/1 107/9/1
f 109/9/1 106/9/1 105/9/1
f 110/9/1 106/9/1 109/9/1
f 113/7/1 112/7/1 111/7/1
f 114/7/1 112/7/1 113/7/1
f 115/7/1 112/7/1 114/7/1
f 116/7/1 112/7/1 115/7/1
f 117/2/1 116/2/1 115/2/1
f 118/2/1 116/2/1 117/2/1
f 121/9/1 120/9/1 119/9/1
f 122/9/1 120/9/1 121/9/1
f 126/5/1 124/5/1 123/5/1
f 127/5/1 124/5/1 126/5/1
f 128/9/1 126/9/1 125/9/1
f 129/9/1 126/9/1 128/9/1
f 130/5/2 131/5/2 133/5/2
f 133/5/2 131/5/2 134/5/2
f 132/9/2 133/9/2 135/9/2
f 135/9/2 133/9/2 136/9/2
f 137/9/2 138/9/2 139/9/2
f 139/9/2 138/9/2 140/9/2
f 141/7/2 142/7/2 143/7/2
f 143/7/2 142/7/2 144/7/2
f 144/7/2 142/7/2 145/7/2
f 145/7/2 142/7/2 146/7/2
f 145/2/2 146/2/2 147/2/2
f 147/2/2 146/2/2 148/2/2
f 149/9/2 150/9/2 153/9/2
f 153/9/2 150/9/2 154/9/2
f 151/9/2 152/9/2 155/9/2
f 155/9/2 152/9/2 156/9/2
f 157/9/2 158/9/2 159/9/2
f 159/9/2 158/9/2 160/9/2
f 161/7/2 162/7/2 163/7/2
f 163/7/2 162/7/2 164/7/2
f 164/7/2 162/7/2 165/7/2
f 165/7/2 162/7/2 166/7/2
f 165/2/2 166/2/2 168/2/2
f 168/2/2 166/2/2 169/2/2
f 167/7/2 168/7/2 171/7/2
f 171/7/2 168/7/2 172/7/2
f 169/7/2 170/7/2 173/7/2
f 173/7/2 170/7/2 174/7/2
f 171/2/2 172/2/2 175/2/2
f 173/2/2 174/2/2 176/2/2
f 171/2/2 175/2/2 177/2/2
f 176/2/2 174/2/2 178/2/2
f 171/2/2 177/2/2 179/2/2
f 177/2/2 178/2/2 179/2/2
f 179/2/2 178/2/2 180/2/2
f 178/2/2 174/2/2 181/2/2
f 180/2/2 178/2/2 181/2/2
f 181/5/2 182/5/2 183/5/2
f 183/5/2 182/5/2 184/5/2
f 185/9/2 186/9/2 187/9/2
f 187/9/2 186/9/2 188/9/2
f 189/9/2 190/9/2 193/9/2
f 193/9/2 190/9/2 194/9/2
f 191/9/2 192/9/2 195/9/2
f 195/9/2 192/9/2 196/9/2
f 197/9/2 198/9/2 199/9/2
f 199/9/2 198/9/2 200/9/2
f 201/6/2 202/6/2 204/6/2
f 202/5/2 203/5/2 205/5/2
f 204/6/2 202/6/2 205/6/2
f 205/5/2 203/5/2 206/5/2
f 207/7/2 208/7/2 209/7/2
f 209/7/2 208/7/2 210/7/2
f 209/6/2 210/6/2 211/6/2
f 211/6/2 210/6/2 212/6/2
f 211/10/2 212/10/2 213/10/2
f 213/10/2 212/10/2 214/10/2
f 215/6/2 216/6/2 218/6/2
f 216/5/2 217/5/2 219/5/2
f 218/6/2 216/6/2 219/6/2
f 219/5/2 217/5/2 220/5/2
f 220/5/2 217/5/2 221/5/2
f 221/5/2 217/5/2 222/5/2
f 222/9/2 223/9/2 227/9/2
f 224/9/2 225/9/2 228/9/2
f 228/9/2 225/9/2 229/9/2
f 226/9/2 227/9/2 230/9/2
f 227/9/2 223/9/2 230/9/2
f 230/9/2 223/9/2 231/9/2
f 226/9/2 230/9/2 233/9/2
f 232/9/2 233/9/2 234/9/2
f 233/9/2 230/9/2 235/9/2
f 234/9/2 233/9/2 235/9/2
f 236/5/2 237/5/2 239/5/2
f 239/5/2 237/5/2 240/5/2
f 238/9/2 239/9/2 242/9/2
f 242/9/2 239/9/2 243/9/2
f 240/9/2 241/9/2 244/9/2
f 244/9/2 241/9/2 245/9/2
f 246/9/2 247/9/2 248/9/2
f 248/9/2 247/9/2 249/9/2
f 250/9/2 251/9/2 252/9/2
f 252/9/2 251/9/2 253/9/2
f 256/9/3 255/9/3 254/9/3
f 258/9/3 256/9/3 254/9/3
f 258/9/3 257/9/3 256/9/3
f 259/9/3 257/9/3 258/9/3
f 260/9/3 257/9/3 259/9/3
f 262/9/3 260/9/3 259/9/3
f 262/9/3 261/9/3 260/9/3
f 263/9/3 261/9/3 262/9/3
f 264/9/3 261/9/3 263/9/3
f 266/9/3 264/9/3 263/9/3
f 266/9/3 265/9/3 264/9/3
f 267/9/3 265/9/3 266/9/3
f 269/9/3 266/9/3 263/9/3
f 270/9/3 266/9/3 269/9/3
f 270/9/3 269/9/3 268/9/3
f 271/9/3 266/9/3 270/9/3
f 273/9/3 270/9/3 268/9/3
f 274/9/3 270/9/3 273/9/3
f 274/9/3 273/9/3 272/9/3
f 275/9/3 270/9/3 274/9/3
f 276/9/3 274/9/3 272/9/3
f 277/9/3 274/9/3 276/9/3
f 281/9/3 279/9/3 278/9/3
f 282/9/3 279/9/3 281/9/3
f 284/9/3 283/9/3 282/9/3
f 285/9/3 283/9/3 284/9/3
f 286/9/3 283/9/3 285/9/3
f 288/5/3 281/5/3 280/5/3
f 289/5/3 281/5/3 288/5/3
f 291/9/3 287/9/3 286/9/3
f 291/9/3 286/9/3 285/9/3
f 292/9/3 287/9/3 291/9/3
f 293/9/3 287/9/3 292/9/3
f 295/5/3 290/5/3 289/5/3
f 297/9/3 294/9/3 293/9/3
f 297/9/3 293/9/3 292/9/3
f 299/9/3 297/9/3 292/9/3
f 299/9/3 298/9/3 297/9/3
f 300/9/3 298/9/3 299/9/3
f 302/9/3 298/9/3 300/9/3
f 303/5/3 296/5/3 295/5/3
f 303/5/3 295/5/3 289/5/3
f 304/5/3 296/5/3 303/5/3
f 305/9/3 302/9/3 301/9/3
f 305/9/3 298/9/3 302/9/3
f 306/9/3 298/9/3 305/9/3
f 308/9/3 305/9/3 301/9/3
f 309/9/3 305/9/3 308/9/3
f 310/9/3 305/9/3 309/9/3
f 312/5/3 303/5/3 289/5/3
f 313/5/3 303/5/3 312/5/3
f 315/9/3 308/9/3 307/9/3
f 315/9/3 309/9/3 308/9/3
f 316/9/3 309/9/3 315/9/3
f 317/9/3 309/9/3 316/9/3
f 318/5/3 312/5/3 311/5/3
f 319/5/3 312/5/3 318/5/3
f 320/9/3 315/9/3 314/9/3
f 320/9/3 316/9/3 315/9/3
f 321/9/3 316/9/3 320/9/3
f 322/9/3 316/9/3 321/9/3
f 323/9/3 320/9/3 319/9/3
f 323/9/3 321/9/3 320/9/3
f 324/9/3 321/9/3 323/9/3
f 328/6/3 326/6/3 325/6/3
f 329/6/3 326/6/3 328/6/3
f 331/6/3 328/6/3 327/6/3
f 331/6/3 330/6/3 329/6/3
f 331/6/3 329/6/3 328/6/3
f 332/6/3 330/6/3 331/6/3
f 333/6/3 331/6/3 327/6/3
f 333/11/3 332/11/3 331/11/3
f 334/6/3 330/6/3 332/6/3
f 334/11/3 332/11/3 333/11/3
f 335/6/3 333/6/3 327/6/3
f 336/6/3 333/6/3 335/6/3
f 337/12/3 334/12/3 333/12/3
f 337/6/3 333/6/3 336/6/3
f 338/6/3 330/6/3 334/6/3
f 338/12/3 334/12/3 337/12/3
f 339/1/3 336/1/3 335/1/3
f 339/6/3 335/6/3 327/6/3
f 340/6/3 337/6/3 336/6/3
f 340/1/3 336/1/3 339/1/3
f 340/6/3 338/6/3 337/6/3
f 341/6/3 338/6/3 340/6/3
f 342/6/3 330/6/3 338/6/3
f 342/6/3 338/6/3 341/6/3
f 343/6/3 341/6/3 340/6/3
f 343/6/3 340/6/3 339/6/3
f 343/12/3 342/12/3 341/12/3
f 344/6/3 330/6/3 342/6/3
f 344/12/3 342/12/3 343/12/3
f 345/6/3 343/6/3 339/6/3
f 345/11/3 344/11/3 343/11/3
f 346/6/3 330/6/3 344/6/3
f 346/11/3 344/11/3 345/11/3
f 347/6/3 339/6/3 327/6/3
f 347/6/3 345/6/3 339/6/3
f 347/6/3 346/6/3 345/6/3
f 348/6/3 346/6/3 347/6/3
f 349/6/3 330/6/3 346/6/3
f 349/6/3 346/6/3 348/6/3
f 350/6/3 330/6/3 349/6/3
f 351/6/3 349/6/3 348/6/3
f 352/6/3 349/6/3 351/6/3
f 358/2/3 357/2/3 356/2/3
f 359/2/3 357/2/3 358/2/3
f 360/7/3 354/7/3 353/7/3
f 361/7/3 354/7/3 360/7/3
f 362/7/3 356/7/3 355/7/3
f 363/2/3 358/2/3 356/2/3
f 363/7/3 356/7/3 362/7/3
f 364/2/3 358/2/3 363/2/3
f 365/10/3 359/10/3 358/10/3
f 365/2/3 358/2/3 364/2/3
f 366/10/3 359/10/3 365/10/3
f 369/8/3 363/8/3 362/8/3
f 370/2/3 364/2/3 363/2/3
f 370/8/3 363/8/3 369/8/3
f 371/10/3 365/10/3 364/10/3
f 371/2/3 364/2/3 370/2/3
f 372/6/3 366/6/3 365/6/3
f 372/10/3 365/10/3 371/10/3
f 373/6/3 366/6/3 372/6/3
f 374/2/3 371/2/3 370/2/3
f 374/2/3 372/2/3 371/2/3
f 374/10/3 373/10/3 372/10/3
f 375/10/3 373/10/3 374/10/3
f 376/7/3 368/7/3 367/7/3
f 377/7/3 368/7/3 376/7/3
f 378/7/3 370/7/3 369/7/3
f 379/2/3 374/2/3 370/2/3
f 379/7/3 370/7/3 378/7/3
f 379/2/3 375/2/3 374/2/3
f 380/2/3 375/2/3 379/2/3
f 387/7/3 382/7/3 381/7/3
f 388/6/3 383/6/3 382/6/3
f 388/7/3 382/7/3 387/7/3
f 389/10/3 384/10/3 383/10/3
f 389/6/3 383/6/3 388/6/3
f 390/10/3 384/10/3 389/10/3
f 391/7/3 386/7/3 385/7/3
f 392/2/3 387/2/3 386/2/3
f 392/7/3 386/7/3 391/7/3
f 393/2/3 387/2/3 392/2/3
f 397/7/3 395/7/3 394/7/3
f 398/2/3 396/2/3 395/2/3
f 398/7/3 395/7/3 397/7/3
f 399/2/3 396/2/3 398/2/3
f 403/7/3 400/7/3 399/7/3
f 404/6/3 401/6/3 400/6/3
f 404/7/3 400/7/3 403/7/3
f 405/10/3 402/10/3 401/10/3
f 405/6/3 401/6/3 404/6/3
f 406/10/3 402/10/3 405/10/3
f 407/7/4 408/7/4 413/7/4
f 408/6/4 409/6/4 414/6/4
f 413/7/4 408/7/4 414/7/4
f 409/10/4 410/10/4 415/10/4
f 414/6/4 409/6/4 415/6/4
f 415/10/4 410/10/4 416/10/4
f 411/7/4 412/7/4 417/7/4
f 412/2/4 413/2/4 418/2/4
f 417/7/4 412/7/4 418/7/4
f 418/2/4 413/2/4 419/2/4
f 420/7/4 421/7/4 423/7/4
f 421/2/4 422/2/4 424/2/4
f 423/7/4 421/7/4 424/7/4
f 424/2/4 422/2/4 425/2/4
f 425/7/4 426/7/4 429/7/4
f 426/6/4 427/6/4 430/6/4
f 429/7/4 426/7/4 430/7/4
f 427/10/4 428/10/4 431/10/4
f 430/6/4 427/6/4 431/6/4
f 431/10/4 428/10/4 432/10/4
f 433/5/4 434/5/4 437/5/4
f 437/5/4 434/5/4 438/5/4
f 436/2/4 437/2/4 439/2/4
f 439/2/4 437/2/4 440/2/4
f 436/2/4 439/2/4 441/2/4
f 439/10/4 440/10/4 441/10/4
f 441/10/4 440/10/4 442/10/4
f 435/7/4 436/7/4 443/7/4
f 436/2/4 441/2/4 444/2/4
f 443/7/4 436/7/4 444/7/4
f 441/2/4 442/2/4 444/2/4
f 444/2/4 442/2/4 445/2/4
f 445/5/4 446/5/4 447/5/4
f 447/5/4 446/5/4 448/5/4
f 449/9/4 450/9/4 452/9/4
f 452/9/4 450/9/4 453/9/4
f 451/5/4 452/5/4 455/5/4
f 455/5/4 452/5/4 456/5/4
f 453/9/4 454/9/4 457/9/4
f 457/9/4 454/9/4 458/9/4
f 458/9/4 459/9/4 460/9/4
f 460/9/4 459/9/4 461/9/4
f 462/5/4 463/5/4 464/5/4
f 464/5/4 463/5/4 465/5/4
f 466/5/4 467/5/4 470/5/4
f 470/5/4 467/5/4 471/5/4
f 468/9/4 469/9/4 472/9/4
f 472/9/4 469/9/4 473/9/4
f 473/9/4 469/9/4 474/9/4
f 471/9/4 472/9/4 475/9/4
f 472/9/4 473/9/4 475/9/4
f 475/9/4 473/9/4 476/9/4
f 477/9/4 478/9/4 480/9/4
f 480/9/4 478/9/4 481/9/4
f 482/9/4 483/9/4 484/9/4
f 479/5/4 480/5/4 486/5/4
f 486/5/4 480/5/4 487/5/4
f 484/9/4 485/9/4 488/9/4
f 482/9/4 484/9/4 488/9/4
f 488/9/4 485/9/4 489/9/4
f 489/9/4 485/9/4 490/9/4
f 490/9/4 491/9/4 492/9/4
f 489/9/4 490/9/4 492/9/4
f 489/9/4 492/9/4 494/9/4
f 492/9/4 493/9/4 494/9/4
f 494/9/4 493/9/4 495/9/4
f 495/9/4 493/9/4 497/9/4
f 497/9/4 493/9/4 498/9/4
f 496/9/4 497/9/4 498/9/4
f 498/9/4 493/9/4 499/9/4
f 479/5/4 486/5/4 500/5/4
f 496/9/4 498/9/4 503/9/4
f 503/9/4 498/9/4 504/9/4
f 504/9/4 498/9/4 505/9/4
f 500/5/4 501/5/4 506/5/4
f 479/5/4 500/5/4 506/5/4
f 506/5/4 501/5/4 507/5/4
f 503/9/4 504/9/4 509/9/4
f 502/9/4 503/9/4 509/9/4
f 509/9/4 504/9/4 510/9/4
f 507/9/4 508/9/4 511/9/4
f 511/9/4 508/9/4 512/9/4
f 513/9/4 514/9/4 516/9/4
f 516/9/4 514/9/4 517/9/4
f 515/9/4 516/9/4 519/9/4
f 517/9/4 518/9/4 519/9/4
f 516/9/4 517/9/4 519/9/4
f 515/9/4 519/9/4 521/9/4
f 519/9/4 520/9/4 521/9/4
f 521/9/4 520/9/4 522/9/4
f 515/9/4 521/9/4 523/9/4
f 523/9/4 521/9/4 524/9/4
f 524/9/4 521/9/4 525/9/4
f 525/9/4 521/9/4 526/9/4
f 524/9/4 525/9/4 527/9/4
f 527/9/4 525/9/4 528/9/4
f 533/7/5 530/7/5 529/7/5
f 534/7/5 530/7/5 533/7/5
f 535/7/5 532/7/5 531/7/5
f 536/7/5 532/7/5 535/7/5
f 542/7/5 538/7/5 537/7/5
f 543/8/5 539/8/5 538/8/5
f 543/7/5 538/7/5 542/7/5
f 544/7/5 540/7/5 539/7/5
f 544/8/5 539/8/5 543/8/5
f 545/7/5 540/7/5 544/7/5
f 547/7/5 542/7/5 541/7/5
f 548/7/5 542/7/5 547/7/5
f 549/4/5 544/4/5 543/4/5
f 550/4/5 544/4/5 549/4/5
f 551/7/5 546/7/5 545/7/5
f 552/7/5 546/7/5 551/7/5
f 553/7/5 550/7/5 549/7/5
f 553/7/5 551/7/5 550/7/5
f 553/7/5 549/7/5 548/7/5
f 554/7/5 551/7/5 553/7/5
f 557/6/5 556/6/5 555/6/5
f 558/6/5 556/6/5 557/6/5
f 559/6/5 556/6/5 558/6/5
f 560/6/5 556/6/5 559/6/5
f 561/6/5 556/6/5 560/6/5
f 562/6/5 556/6/5 561/6/5
f 563/6/5 557/6/5 555/6/5
f 564/6/5 563/6/5 555/6/5
f 565/6/5 563/6/5 564/6/5
f 566/6/5 556/6/5 562/6/5
f 567/6/5 556/6/5 566/6/5
f 568/5/5 565/5/5 564/5/5
f 569/5/5 568/5/5 564/5/5
f 570/5/5 568/5/5 569/5/5
f 573/5/5 567/5/5 566/5/5
f 574/5/5 567/5/5 573/5/5
f 575/5/5 572/5/5 571/5/5
f 575/5/5 573/5/5 572/5/5
f 575/5/5 571/5/5 570/5/5
f 576/5/5 573/5/5 575/5/5
f 581/6/5 578/6/5 577/6/5
f 582/6/5 578/6/5 581/6/5
f 583/6/5 580/6/5 579/6/5
f 584/6/5 580/6/5 583/6/5
f 585/5/5 582/5/5 581/5/5
f 588/5/5 584/5/5 583/5/5
f 589/5/5 586/5/5 585/5/5
f 590/5/5 588/5/5 587/5/5
f 591/5/5 589/5/5 585/5/5
f 591/5/5 590/5/5 589/5/5
f 591/5/5 585/5/5 581/5/5
f 592/5/5 588/5/5 590/5/5
f 592/5/5 590/5/5 591/5/5
f 592/5/5 584/5/5 588/5/5
f 597/5/5 594/5/5 593/5/5
f 598/5/5 594/5/5 597/5/5
f 599/5/5 596/5/5 595/5/5
f 600/5/5 596/5/5 599/5/5
f 601/5/5 597/5/5 593/5/5
f 602/5/5 596/5/5 600/5/5
f 603/5/5 601/5/5 593/5/5
f 604/5/5 601/5/5 603/5/5
f 605/5/5 596/5/5 602/5/5
f 606/5/5 596/5/5 605/5/5
f 609/9/5 608/9/5 607/9/5
f 610/9/5 608/9/5 609/9/5
f 616/9/5 612/9/5 611/9/5
f 617/9/5 612/9/5 616/9/5
f 618/9/5 614/9/5 613/9/5
f 619/9/5 614/9/5 618/9/5
f 621/5/5 618/5/5 617/5/5
f 622/5/5 618/5/5 621/5/5
f 623/9/5 616/9/5 615/9/5
f 624/9/5 616/9/5 623/9/5
f 627/9/5 620/9/5 619/9/5
f 628/9/5 620/9/5 627/9/5
f 629/9/5 625/9/5 624/9/5
f 630/9/5 625/9/5 629/9/5
f 633/9/5 627/9/5 626/9/5
f 634/9/5 627/9/5 633/9/5
f 635/9/5 631/9/5 630/9/5
f 636/9/5 631/9/5 635/9/5
f 637/9/5 633/9/5 632/9/5
f 638/9/5 633/9/5 637/9/5
f 643/9/5 640/9/5 639/9/5
f 644/9/5 640/9/5 643/9/5
f 645/9/5 642/9/5 641/9/5
f 646/9/5 642/9/5 645/9/5
f 649/9/5 648/9/5 647/9/5
f 650/9/5 648/9/5 649/9/5
f 651/7/6 652/7/6 655/7/6
f 655/7/6 652/7/6 656/7/6
f 653/7/6 654/7/6 657/7/6
f 657/7/6 654/7/6 658/7/6
f 659/10/6 660/10/6 663/10/6
f 663/10/6 660/10/6 664/10/6
f 661/10/6 662/10/6 665/10/6
f 665/10/6 662/10/6 666/10/6
f 667/9/6 668/9/6 672/9/6
f 672/9/6 668/9/6 673/9/6
f 669/9/6 670/9/6 674/9/6
f 674/9/6 670/9/6 675/9/6
f 671/9/6 672/9/6 676/9/6
f 676/9/6 672/9/6 677/9/6
f 677/9/6 678/9/6 681/9/6
f 681/9/6 678/9/6 682/9/6
f 679/9/6 680/9/6 683/9/6
f 683/9/6 680/9/6 684/9/6
f 685/9/6 686/9/6 689/9/6
f 689/9/6 686/9/6 690/9/6
f 687/9/6 688/9/6 691/9/6
f 691/9/6 688/9/6 692/9/6
f 693/9/6 694/9/6 695/9/6
f 695/9/6 694/9/6 696/9/6
f 697/9/6 698/9/6 701/9/6
f 701/9/6 698/9/6 702/9/6
f 699/9/6 700/9/6 703/9/6
f 703/9/6 700/9/6 704/9/6
f 705/9/6 706/9/6 711/9/6
f 711/9/6 706/9/6 712/9/6
f 707/9/6 708/9/6 713/9/6
f 713/9/6 708/9/6 714/9/6
f 709/9/6 710/9/6 717/9/6
f 717/9/6 710/9/6 718/9/6
f 715/9/6 716/9/6 720/9/6
f 720/9/6 716/9/6 721/9/6
f 718/9/6 719/9/6 722/9/6
f 722/9/6 719/9/6 723/9/6
f 724/9/6 725/9/6 728/9/6
f 728/9/6 725/9/6 729/9/6
f 726/9/6 727/9/6 730/9/6
f 730/9/6 727/9/6 731/9/6
f 732/9/6 733/9/6 736/9/6
f 736/9/6 733/9/6 737/9/6
f 734/9/6 735/9/6 740/9/6
f 740/9/6 735/9/6 741/9/6
f 741/9/6 735/9/6 742/9/6
f 742/9/6 735/9/6 743/9/6
f 738/9/6 739/9/6 746/9/6
f 746/9/6 739/9/6 747/9/6
f 744/9/6 745/9/6 748/9/6
f 748/9/6 745/9/6 749/9/6
f 750/9/6 751/9/6 754/9/6
f 754/9/6 751/9/6 755/9/6
f 752/9/6 753/9/6 756/9/6
f 756/9/6 753/9/6 757/9/6
f 758/9/6 759/9/6 760/9/6
f 760/9/6 759/9/6 761/9/6
