# MagicaVoxel @ Ephtracy

# group
o 

# material
mtllib Builder_Walk1.vox.mtl
usemtl palette

# normals
vn -1 0 0
vn 1 0 0
vn 0 0 1
vn 0 0 -1
vn 0 -1 0
vn 0 1 0

# texcoords
vt 0.0839844 0.5
vt 0.283203 0.5
vt 0.287109 0.5
vt 0.291016 0.5
vt 0.310547 0.5
vt 0.365234 0.5
vt 0.373047 0.5
vt 0.478516 0.5
vt 0.748047 0.5
vt 0.958984 0.5
vt 0.994141 0.5

# verts
v -0.7 1.4 0.4
v -0.7 1.4 -0.3
v -0.7 1.5 0.4
v -0.7 1.5 -0.3
v -0.6 1.3 0.4
v -0.6 1.3 -0.3
v -0.6 1.4 0.5
v -0.6 1.4 0.4
v -0.6 1.4 -0.3
v -0.6 1.4 -0.4
v -0.6 1.5 0.5
v -0.6 1.5 0.4
v -0.6 1.5 -0.3
v -0.6 1.5 -0.4
v -0.6 1.7 0.4
v -0.6 1.7 -0.3
v -0.5 0.5 0.3
v -0.5 0.5 0.2
v -0.5 0.5 0.1
v -0.5 0.5 -0.1
v -0.5 0.7 0.3
v -0.5 0.7 0.2
v -0.5 0.7 0.1
v -0.5 0.7 -0.1
v -0.5 0.9 0.3
v -0.5 0.9 0
v -0.5 0.9 -0.4
v -0.5 1.3 0.3
v -0.5 1.3 0
v -0.5 1.3 -0.3
v -0.5 1.4 -0.3
v -0.5 1.4 -0.4
v -0.5 1.4 -0.5
v -0.5 1.5 0.5
v -0.5 1.5 0.4
v -0.5 1.5 -0.3
v -0.5 1.5 -0.4
v -0.5 1.6 0.5
v -0.5 1.6 0.4
v -0.5 1.6 -0.4
v -0.5 1.6 -0.5
v -0.5 1.7 0.4
v -0.5 1.7 -0.3
v -0.5 1.7 -0.4
v -0.5 1.8 0.4
v -0.5 1.8 -0.3
v -0.4 0.8 0.3
v -0.4 0.8 0
v -0.4 0.8 -0.2
v -0.4 0.9 0.3
v -0.4 0.9 0
v -0.4 0.9 -0.2
v -0.4 1.7 -0.3
v -0.4 1.7 -0.4
v -0.4 1.8 -0.3
v -0.4 1.8 -0.4
v -0.3 0 0.2
v -0.3 0 -0.1
v -0.3 0.1 0.2
v -0.3 0.1 0.1
v -0.3 0.2 0.1
v -0.3 0.2 -0.1
v -0.3 0.3 0.2
v -0.3 0.3 0.1
v -0.3 0.3 -0.1
v -0.3 0.3 -0.2
v -0.3 0.4 0.2
v -0.3 0.4 -0.2
v -0.3 0.5 0.2
v -0.3 0.5 0.1
v -0.3 0.5 -0.1
v -0.3 0.7 0.2
v -0.3 0.7 0.1
v -0.3 0.7 -0.1
v -0.3 0.8 0.2
v -0.3 0.8 0.1
v -0.3 0.8 0
v -0.3 0.8 -0.1
v -0.3 0.8 -0.2
v -0.3 0.8 -0.3
v -0.3 0.9 -0.2
v -0.3 0.9 -0.3
v -0.3 1.3 -0.4
v -0.3 1.3 -0.5
v -0.3 1.4 -0.4
v -0.3 1.4 -0.5
v -0.3 1.6 0.5
v -0.3 1.6 0.4
v -0.3 1.6 -0.4
v -0.3 1.6 -0.5
v -0.3 1.7 0.5
v -0.3 1.7 0.4
v -0.3 1.7 -0.4
v -0.3 1.7 -0.5
v -0.3 1.8 0.4
v -0.3 1.8 -0.4
v -0.3 1.9 0.4
v -0.3 1.9 -0.4
v -0.2 1.9 0.4
v -0.2 1.9 -0.4
v -0.2 2 0.4
v -0.2 2 -0.4
v -0.1 1.7 0.5
v -0.1 1.7 0.4
v -0.1 1.7 -0.4
v -0.1 1.7 -0.5
v -0.1 1.8 0.5
v -0.1 1.8 0.4
v -0.1 1.8 -0.4
v -0.1 1.8 -0.5
v 0.1 0.1 0.4
v 0.1 0.1 0.2
v 0.1 0.1 -0.1
v 0.1 0.3 0.3
v 0.1 0.3 0.2
v 0.1 0.3 0.1
v 0.1 0.3 -0.1
v 0.1 0.4 0.4
v 0.1 0.4 0.3
v 0.2 1.5 0.5
v 0.2 1.5 0.4
v 0.2 1.6 0.5
v 0.2 1.6 0.4
v 0.4 1.3 0.4
v 0.4 1.3 0.3
v 0.4 1.4 0.5
v 0.4 1.4 0.4
v 0.4 1.4 0.3
v 0.4 1.5 0.5
v 0.4 1.5 0.4
v -0.4 1.3 0.4
v -0.4 1.3 0.3
v -0.4 1.4 0.5
v -0.4 1.4 0.4
v -0.4 1.4 0.3
v -0.4 1.5 0.5
v -0.4 1.5 0.4
v -0.3 0.5 0.3
v -0.3 0.5 0.2
v -0.3 0.7 0.3
v -0.3 0.7 0.2
v -0.2 1.5 0.5
v -0.2 1.5 0.4
v -0.2 1.6 0.5
v -0.2 1.6 0.4
v -0.1 0 0.2
v -0.1 0 -0.1
v -0.1 0.1 0.2
v -0.1 0.1 0.1
v -0.1 0.2 0.1
v -0.1 0.2 -0.1
v -0.1 0.3 0.1
v -0.1 0.3 -0.1
v 0.1 1.7 0.5
v 0.1 1.7 0.4
v 0.1 1.7 -0.4
v 0.1 1.7 -0.5
v 0.1 1.8 0.5
v 0.1 1.8 0.4
v 0.1 1.8 -0.4
v 0.1 1.8 -0.5
v 0.2 1.9 0.4
v 0.2 1.9 -0.4
v 0.2 2 0.4
v 0.2 2 -0.4
v 0.3 0.1 0.4
v 0.3 0.1 0.2
v 0.3 0.1 -0.1
v 0.3 0.3 0.3
v 0.3 0.3 0.2
v 0.3 0.3 0.1
v 0.3 0.3 -0.1
v 0.3 0.3 -0.2
v 0.3 0.4 0.4
v 0.3 0.4 0.3
v 0.3 0.4 0.2
v 0.3 0.4 0.1
v 0.3 0.4 -0.1
v 0.3 0.4 -0.2
v 0.3 0.5 0.1
v 0.3 0.5 -0.1
v 0.3 0.7 0.1
v 0.3 0.7 -0.1
v 0.3 0.8 0.2
v 0.3 0.8 0
v 0.3 0.8 -0.2
v 0.3 0.8 -0.3
v 0.3 0.9 -0.2
v 0.3 0.9 -0.3
v 0.3 1.3 -0.4
v 0.3 1.3 -0.5
v 0.3 1.4 -0.4
v 0.3 1.4 -0.5
v 0.3 1.6 0.5
v 0.3 1.6 0.4
v 0.3 1.6 -0.4
v 0.3 1.6 -0.5
v 0.3 1.7 0.5
v 0.3 1.7 0.4
v 0.3 1.7 -0.4
v 0.3 1.7 -0.5
v 0.3 1.8 0.4
v 0.3 1.8 -0.4
v 0.3 1.9 0.4
v 0.3 1.9 -0.4
v 0.4 0.8 0.3
v 0.4 0.8 0
v 0.4 0.8 -0.2
v 0.4 0.9 0.3
v 0.4 0.9 0
v 0.4 0.9 -0.2
v 0.5 0.3 0.1
v 0.5 0.3 -0.1
v 0.5 0.4 0.1
v 0.5 0.4 -0.1
v 0.5 0.5 0.1
v 0.5 0.5 -0.1
v 0.5 0.7 0.1
v 0.5 0.7 -0.1
v 0.5 0.9 0.3
v 0.5 0.9 0
v 0.5 0.9 -0.4
v 0.5 1.3 0.3
v 0.5 1.3 0
v 0.5 1.3 -0.3
v 0.5 1.4 -0.3
v 0.5 1.4 -0.4
v 0.5 1.4 -0.5
v 0.5 1.5 0.5
v 0.5 1.5 0.4
v 0.5 1.5 -0.3
v 0.5 1.5 -0.4
v 0.5 1.6 0.5
v 0.5 1.6 0.4
v 0.5 1.6 -0.4
v 0.5 1.6 -0.5
v 0.5 1.7 0.4
v 0.5 1.7 -0.3
v 0.5 1.8 0.4
v 0.5 1.8 -0.4
v 0.6 1.3 0.4
v 0.6 1.3 -0.3
v 0.6 1.4 0.5
v 0.6 1.4 0.4
v 0.6 1.4 -0.3
v 0.6 1.4 -0.4
v 0.6 1.5 0.5
v 0.6 1.5 0.4
v 0.6 1.5 -0.3
v 0.6 1.5 -0.4
v 0.6 1.6 0.4
v 0.6 1.6 -0.3
v 0.6 1.7 0.4
v 0.6 1.7 -0.3
v 0.7 1.4 0.4
v 0.7 1.4 -0.3
v 0.7 1.6 0.4
v 0.7 1.6 -0.3
v -0.6 1.4 0.5
v -0.6 1.5 0.5
v -0.5 1.5 0.5
v -0.5 1.6 0.5
v -0.4 1.4 0.5
v -0.4 1.5 0.5
v -0.3 1.6 0.5
v -0.3 1.7 0.5
v -0.2 1.5 0.5
v -0.2 1.6 0.5
v -0.1 1.7 0.5
v -0.1 1.8 0.5
v 0.1 1.7 0.5
v 0.1 1.8 0.5
v 0.2 1.5 0.5
v 0.2 1.6 0.5
v 0.3 1.6 0.5
v 0.3 1.7 0.5
v 0.4 1.4 0.5
v 0.4 1.5 0.5
v 0.5 1.5 0.5
v 0.5 1.6 0.5
v 0.6 1.4 0.5
v 0.6 1.5 0.5
v -0.7 1.4 0.4
v -0.7 1.5 0.4
v -0.6 1.3 0.4
v -0.6 1.4 0.4
v -0.6 1.5 0.4
v -0.6 1.7 0.4
v -0.5 1.5 0.4
v -0.5 1.6 0.4
v -0.5 1.7 0.4
v -0.5 1.8 0.4
v -0.4 1.3 0.4
v -0.4 1.4 0.4
v -0.4 1.5 0.4
v -0.3 1.6 0.4
v -0.3 1.7 0.4
v -0.3 1.8 0.4
v -0.3 1.9 0.4
v -0.2 1.5 0.4
v -0.2 1.6 0.4
v -0.2 1.9 0.4
v -0.2 2 0.4
v -0.1 1.7 0.4
v -0.1 1.8 0.4
v 0.1 0.1 0.4
v 0.1 0.4 0.4
v 0.1 1.7 0.4
v 0.1 1.8 0.4
v 0.2 1.5 0.4
v 0.2 1.6 0.4
v 0.2 1.9 0.4
v 0.2 2 0.4
v 0.3 0.1 0.4
v 0.3 0.4 0.4
v 0.3 1.6 0.4
v 0.3 1.7 0.4
v 0.3 1.8 0.4
v 0.3 1.9 0.4
v 0.4 1.3 0.4
v 0.4 1.4 0.4
v 0.4 1.5 0.4
v 0.5 1.5 0.4
v 0.5 1.6 0.4
v 0.5 1.7 0.4
v 0.5 1.8 0.4
v 0.6 1.3 0.4
v 0.6 1.4 0.4
v 0.6 1.5 0.4
v 0.6 1.6 0.4
v 0.6 1.7 0.4
v 0.7 1.4 0.4
v 0.7 1.6 0.4
v -0.5 0.5 0.3
v -0.5 0.7 0.3
v -0.5 0.9 0.3
v -0.5 1.3 0.3
v -0.4 0.8 0.3
v -0.4 0.9 0.3
v -0.4 1.3 0.3
v -0.4 1.4 0.3
v -0.3 0.5 0.3
v -0.3 0.7 0.3
v -0.3 1.1 0.3
v -0.3 1.3 0.3
v -0.2 1.1 0.3
v -0.2 1.3 0.3
v -0.1 0.9 0.3
v -0.1 1 0.3
v -0.1 1.1 0.3
v -0.1 1.3 0.3
v 0.1 0.9 0.3
v 0.1 1 0.3
v 0.1 1.1 0.3
v 0.1 1.3 0.3
v 0.2 1.1 0.3
v 0.2 1.3 0.3
v 0.3 1.1 0.3
v 0.3 1.3 0.3
v 0.4 0.8 0.3
v 0.4 0.9 0.3
v 0.4 1.3 0.3
v 0.4 1.4 0.3
v 0.5 0.9 0.3
v 0.5 1.3 0.3
v -0.3 0 0.2
v -0.3 0.1 0.2
v -0.3 0.3 0.2
v -0.3 0.4 0.2
v -0.3 0.5 0.2
v -0.3 0.7 0.2
v -0.3 0.8 0.2
v -0.2 0.7 0.2
v -0.2 0.8 0.2
v -0.1 0 0.2
v -0.1 0.1 0.2
v -0.1 0.3 0.2
v -0.1 0.4 0.2
v -0.1 0.6 0.2
v -0.1 0.7 0.2
v -0.1 0.8 0.2
v 0.1 0.3 0.2
v 0.1 0.4 0.2
v 0.1 0.6 0.2
v 0.1 0.7 0.2
v 0.1 0.8 0.2
v 0.2 0.7 0.2
v 0.2 0.8 0.2
v 0.3 0.3 0.2
v 0.3 0.4 0.2
v 0.3 0.8 0.2
v -0.3 0.1 0.1
v -0.3 0.2 0.1
v -0.3 0.3 0.1
v -0.1 0.1 0.1
v -0.1 0.2 0.1
v -0.1 0.3 0.1
v 0.3 0.3 0.1
v 0.3 0.4 0.1
v 0.3 0.5 0.1
v 0.3 0.7 0.1
v 0.5 0.3 0.1
v 0.5 0.4 0.1
v 0.5 0.5 0.1
v 0.5 0.7 0.1
v 0.1 0.3 0.3
v 0.1 0.4 0.3
v 0.3 0.3 0.3
v 0.3 0.4 0.3
v -0.5 0.5 -0.1
v -0.5 0.7 -0.1
v -0.3 0 -0.1
v -0.3 0.2 -0.1
v -0.3 0.3 -0.1
v -0.3 0.5 -0.1
v -0.3 0.7 -0.1
v -0.1 0 -0.1
v -0.1 0.2 -0.1
v -0.1 0.3 -0.1
v 0.1 0.1 -0.1
v 0.1 0.3 -0.1
v 0.3 0.1 -0.1
v 0.3 0.3 -0.1
v 0.3 0.4 -0.1
v 0.3 0.5 -0.1
v 0.3 0.7 -0.1
v 0.5 0.3 -0.1
v 0.5 0.4 -0.1
v 0.5 0.5 -0.1
v 0.5 0.7 -0.1
v -0.4 0.8 -0.2
v -0.4 0.9 -0.2
v -0.3 0.3 -0.2
v -0.3 0.4 -0.2
v -0.3 0.8 -0.2
v -0.3 0.9 -0.2
v -0.1 0.7 -0.2
v -0.1 0.8 -0.2
v 0.1 0.7 -0.2
v 0.1 0.8 -0.2
v 0.3 0.3 -0.2
v 0.3 0.4 -0.2
v 0.3 0.8 -0.2
v 0.3 0.9 -0.2
v 0.4 0.8 -0.2
v 0.4 0.9 -0.2
v -0.7 1.4 -0.3
v -0.7 1.5 -0.3
v -0.6 1.3 -0.3
v -0.6 1.4 -0.3
v -0.6 1.5 -0.3
v -0.6 1.7 -0.3
v -0.5 1.3 -0.3
v -0.5 1.4 -0.3
v -0.5 1.5 -0.3
v -0.5 1.7 -0.3
v -0.5 1.8 -0.3
v -0.4 1.7 -0.3
v -0.4 1.8 -0.3
v -0.3 0.8 -0.3
v -0.3 0.9 -0.3
v 0.3 0.8 -0.3
v 0.3 0.9 -0.3
v 0.5 1.3 -0.3
v 0.5 1.4 -0.3
v 0.5 1.5 -0.3
v 0.5 1.7 -0.3
v 0.6 1.3 -0.3
v 0.6 1.4 -0.3
v 0.6 1.5 -0.3
v 0.6 1.6 -0.3
v 0.6 1.7 -0.3
v 0.7 1.4 -0.3
v 0.7 1.6 -0.3
v -0.6 1.4 -0.4
v -0.6 1.5 -0.4
v -0.5 0.9 -0.4
v -0.5 1.4 -0.4
v -0.5 1.5 -0.4
v -0.5 1.6 -0.4
v -0.5 1.7 -0.4
v -0.4 1.7 -0.4
v -0.4 1.8 -0.4
v -0.3 1.3 -0.4
v -0.3 1.4 -0.4
v -0.3 1.6 -0.4
v -0.3 1.7 -0.4
v -0.3 1.8 -0.4
v -0.3 1.9 -0.4
v -0.2 1.9 -0.4
v -0.2 2 -0.4
v -0.1 1.7 -0.4
v -0.1 1.8 -0.4
v 0.1 1.7 -0.4
v 0.1 1.8 -0.4
v 0.2 1.9 -0.4
v 0.2 2 -0.4
v 0.3 1.3 -0.4
v 0.3 1.4 -0.4
v 0.3 1.6 -0.4
v 0.3 1.7 -0.4
v 0.3 1.8 -0.4
v 0.3 1.9 -0.4
v 0.5 0.9 -0.4
v 0.5 1.4 -0.4
v 0.5 1.5 -0.4
v 0.5 1.6 -0.4
v 0.5 1.8 -0.4
v 0.6 1.4 -0.4
v 0.6 1.5 -0.4
v -0.5 1.4 -0.5
v -0.5 1.6 -0.5
v -0.3 1.3 -0.5
v -0.3 1.4 -0.5
v -0.3 1.6 -0.5
v -0.3 1.7 -0.5
v -0.1 1.7 -0.5
v -0.1 1.8 -0.5
v 0.1 1.7 -0.5
v 0.1 1.8 -0.5
v 0.3 1.3 -0.5
v 0.3 1.4 -0.5
v 0.3 1.6 -0.5
v 0.3 1.7 -0.5
v 0.5 1.4 -0.5
v 0.5 1.6 -0.5
v -0.3 0 0.2
v -0.1 0 0.2
v -0.3 0 -0.1
v -0.1 0 -0.1
v 0.1 0.1 0.4
v 0.3 0.1 0.4
v 0.1 0.1 0.2
v 0.3 0.1 0.2
v 0.1 0.1 -0.1
v 0.3 0.1 -0.1
v -0.3 0.3 0.2
v -0.1 0.3 0.2
v 0.1 0.3 0.2
v -0.3 0.3 0.1
v -0.1 0.3 0.1
v 0.1 0.3 0.1
v 0.3 0.3 0.1
v 0.5 0.3 0.1
v -0.3 0.3 -0.1
v -0.1 0.3 -0.1
v 0.1 0.3 -0.1
v 0.3 0.3 -0.1
v 0.5 0.3 -0.1
v -0.3 0.3 -0.2
v 0.3 0.3 -0.2
v -0.5 0.5 0.3
v -0.3 0.5 0.3
v -0.5 0.5 0.2
v -0.3 0.5 0.2
v -0.5 0.5 0.1
v -0.3 0.5 0.1
v -0.5 0.5 -0.1
v -0.3 0.5 -0.1
v -0.4 0.8 0.3
v 0.4 0.8 0.3
v -0.3 0.8 0.2
v -0.2 0.8 0.2
v -0.1 0.8 0.2
v 0.1 0.8 0.2
v 0.2 0.8 0.2
v 0.3 0.8 0.2
v -0.3 0.8 0.1
v -0.4 0.8 0
v -0.3 0.8 0
v 0.3 0.8 0
v 0.4 0.8 0
v -0.3 0.8 -0.1
v -0.4 0.8 -0.2
v -0.3 0.8 -0.2
v -0.1 0.8 -0.2
v 0.1 0.8 -0.2
v 0.3 0.8 -0.2
v 0.4 0.8 -0.2
v -0.3 0.8 -0.3
v 0.3 0.8 -0.3
v -0.5 0.9 0.3
v -0.4 0.9 0.3
v 0.4 0.9 0.3
v 0.5 0.9 0.3
v -0.5 0.9 0
v -0.4 0.9 0
v 0.4 0.9 0
v 0.5 0.9 0
v -0.4 0.9 -0.2
v -0.3 0.9 -0.2
v 0.3 0.9 -0.2
v 0.4 0.9 -0.2
v -0.3 0.9 -0.3
v 0.3 0.9 -0.3
v -0.5 0.9 -0.4
v 0.5 0.9 -0.4
v -0.6 1.3 0.4
v -0.4 1.3 0.4
v 0.4 1.3 0.4
v 0.6 1.3 0.4
v -0.5 1.3 0.3
v -0.4 1.3 0.3
v 0.4 1.3 0.3
v 0.5 1.3 0.3
v -0.5 1.3 0
v 0.5 1.3 0
v -0.6 1.3 -0.3
v -0.5 1.3 -0.3
v 0.5 1.3 -0.3
v 0.6 1.3 -0.3
v -0.3 1.3 -0.4
v 0.3 1.3 -0.4
v -0.3 1.3 -0.5
v 0.3 1.3 -0.5
v -0.6 1.4 0.5
v -0.4 1.4 0.5
v 0.4 1.4 0.5
v 0.6 1.4 0.5
v -0.7 1.4 0.4
v -0.6 1.4 0.4
v -0.4 1.4 0.4
v 0.4 1.4 0.4
v 0.6 1.4 0.4
v 0.7 1.4 0.4
v -0.4 1.4 0.3
v 0.4 1.4 0.3
v -0.7 1.4 -0.3
v -0.6 1.4 -0.3
v -0.5 1.4 -0.3
v 0.5 1.4 -0.3
v 0.6 1.4 -0.3
v 0.7 1.4 -0.3
v -0.6 1.4 -0.4
v -0.5 1.4 -0.4
v -0.3 1.4 -0.4
v 0.3 1.4 -0.4
v 0.5 1.4 -0.4
v 0.6 1.4 -0.4
v -0.5 1.4 -0.5
v -0.3 1.4 -0.5
v 0.3 1.4 -0.5
v 0.5 1.4 -0.5
v -0.4 1.5 0.5
v -0.2 1.5 0.5
v 0.2 1.5 0.5
v 0.4 1.5 0.5
v -0.4 1.5 0.4
v -0.2 1.5 0.4
v 0.2 1.5 0.4
v 0.4 1.5 0.4
v -0.2 1.6 0.5
v 0.2 1.6 0.5
v -0.2 1.6 0.4
v 0.2 1.6 0.4
v -0.3 0.1 0.2
v -0.1 0.1 0.2
v -0.3 0.1 0.1
v -0.1 0.1 0.1
v 0.1 0.3 0.3
v 0.3 0.3 0.3
v 0.1 0.3 0.2
v 0.3 0.3 0.2
v 0.1 0.4 0.4
v 0.3 0.4 0.4
v 0.1 0.4 0.3
v 0.3 0.4 0.3
v -0.5 0.7 0.3
v -0.3 0.7 0.3
v -0.5 0.7 0.2
v -0.3 0.7 0.2
v -0.5 0.7 0.1
v -0.3 0.7 0.1
v 0.3 0.7 0.1
v 0.5 0.7 0.1
v -0.5 0.7 -0.1
v -0.3 0.7 -0.1
v 0.3 0.7 -0.1
v 0.5 0.7 -0.1
v -0.6 1.5 0.5
v -0.5 1.5 0.5
v 0.5 1.5 0.5
v 0.6 1.5 0.5
v -0.7 1.5 0.4
v -0.6 1.5 0.4
v -0.5 1.5 0.4
v 0.5 1.5 0.4
v 0.6 1.5 0.4
v -0.7 1.5 -0.3
v -0.6 1.5 -0.3
v -0.5 1.5 -0.3
v 0.5 1.5 -0.3
v 0.6 1.5 -0.3
v -0.6 1.5 -0.4
v -0.5 1.5 -0.4
v 0.5 1.5 -0.4
v 0.6 1.5 -0.4
v -0.5 1.6 0.5
v -0.3 1.6 0.5
v 0.3 1.6 0.5
v 0.5 1.6 0.5
v -0.5 1.6 0.4
v -0.3 1.6 0.4
v 0.3 1.6 0.4
v 0.5 1.6 0.4
v 0.6 1.6 0.4
v 0.7 1.6 0.4
v 0.6 1.6 -0.3
v 0.7 1.6 -0.3
v -0.5 1.6 -0.4
v -0.3 1.6 -0.4
v 0.3 1.6 -0.4
v 0.5 1.6 -0.4
v -0.5 1.6 -0.5
v -0.3 1.6 -0.5
v 0.3 1.6 -0.5
v 0.5 1.6 -0.5
v -0.3 1.7 0.5
v -0.1 1.7 0.5
v 0.1 1.7 0.5
v 0.3 1.7 0.5
v -0.6 1.7 0.4
v -0.5 1.7 0.4
v -0.3 1.7 0.4
v -0.1 1.7 0.4
v 0.1 1.7 0.4
v 0.3 1.7 0.4
v 0.5 1.7 0.4
v 0.6 1.7 0.4
v -0.6 1.7 -0.3
v -0.5 1.7 -0.3
v -0.4 1.7 -0.3
v 0.5 1.7 -0.3
v 0.6 1.7 -0.3
v -0.5 1.7 -0.4
v -0.4 1.7 -0.4
v -0.3 1.7 -0.4
v -0.1 1.7 -0.4
v 0.1 1.7 -0.4
v 0.3 1.7 -0.4
v -0.3 1.7 -0.5
v -0.1 1.7 -0.5
v 0.1 1.7 -0.5
v 0.3 1.7 -0.5
v -0.1 1.8 0.5
v 0.1 1.8 0.5
v -0.5 1.8 0.4
v -0.3 1.8 0.4
v -0.1 1.8 0.4
v 0.1 1.8 0.4
v 0.3 1.8 0.4
v 0.5 1.8 0.4
v -0.5 1.8 -0.3
v -0.4 1.8 -0.3
v -0.4 1.8 -0.4
v -0.3 1.8 -0.4
v -0.1 1.8 -0.4
v 0.1 1.8 -0.4
v 0.3 1.8 -0.4
v 0.5 1.8 -0.4
v -0.1 1.8 -0.5
v 0.1 1.8 -0.5
v -0.3 1.9 0.4
v -0.2 1.9 0.4
v 0.2 1.9 0.4
v 0.3 1.9 0.4
v -0.3 1.9 -0.4
v -0.2 1.9 -0.4
v 0.2 1.9 -0.4
v 0.3 1.9 -0.4
v -0.2 2 0.4
v 0.2 2 0.4
v -0.2 2 -0.4
v 0.2 2 -0.4

# faces
f 3/8/1 2/8/1 1/8/1
f 4/8/1 2/8/1 3/8/1
f 8/5/1 6/5/1 5/5/1
f 9/5/1 6/5/1 8/5/1
f 11/8/1 8/8/1 7/8/1
f 12/8/1 8/8/1 11/8/1
f 13/8/1 10/8/1 9/8/1
f 14/8/1 10/8/1 13/8/1
f 15/8/1 13/8/1 12/8/1
f 16/8/1 13/8/1 15/8/1
f 21/6/1 18/6/1 17/6/1
f 22/3/1 19/3/1 18/3/1
f 22/6/1 18/6/1 21/6/1
f 23/9/1 20/9/1 19/9/1
f 23/3/1 19/3/1 22/3/1
f 24/9/1 20/9/1 23/9/1
f 28/3/1 26/3/1 25/3/1
f 29/5/1 27/5/1 26/5/1
f 29/3/1 26/3/1 28/3/1
f 30/5/1 27/5/1 29/5/1
f 31/5/1 27/5/1 30/5/1
f 32/5/1 27/5/1 31/5/1
f 37/8/1 33/8/1 32/8/1
f 38/8/1 35/8/1 34/8/1
f 39/8/1 35/8/1 38/8/1
f 40/8/1 37/8/1 36/8/1
f 40/8/1 33/8/1 37/8/1
f 41/8/1 33/8/1 40/8/1
f 43/8/1 40/8/1 36/8/1
f 44/8/1 40/8/1 43/8/1
f 45/8/1 43/8/1 42/8/1
f 46/8/1 43/8/1 45/8/1
f 50/3/1 48/3/1 47/3/1
f 51/5/1 49/5/1 48/5/1
f 51/3/1 48/3/1 50/3/1
f 52/5/1 49/5/1 51/5/1
f 55/8/1 54/8/1 53/8/1
f 56/8/1 54/8/1 55/8/1
f 59/6/1 58/6/1 57/6/1
f 60/6/1 58/6/1 59/6/1
f 61/6/1 58/6/1 60/6/1
f 62/6/1 58/6/1 61/6/1
f 64/2/1 62/2/1 61/2/1
f 65/2/1 62/2/1 64/2/1
f 67/6/1 65/6/1 64/6/1
f 67/6/1 66/6/1 65/6/1
f 67/6/1 64/6/1 63/6/1
f 68/6/1 66/6/1 67/6/1
f 69/2/1 68/2/1 67/2/1
f 70/2/1 68/2/1 69/2/1
f 71/2/1 68/2/1 70/2/1
f 74/2/1 68/2/1 71/2/1
f 75/2/1 73/2/1 72/2/1
f 76/9/1 74/9/1 73/9/1
f 76/2/1 73/2/1 75/2/1
f 77/9/1 74/9/1 76/9/1
f 78/2/1 68/2/1 74/2/1
f 78/9/1 74/9/1 77/9/1
f 79/2/1 68/2/1 78/2/1
f 81/5/1 80/5/1 79/5/1
f 82/5/1 80/5/1 81/5/1
f 85/8/1 84/8/1 83/8/1
f 86/8/1 84/8/1 85/8/1
f 91/8/1 88/8/1 87/8/1
f 92/8/1 88/8/1 91/8/1
f 93/8/1 90/8/1 89/8/1
f 94/8/1 90/8/1 93/8/1
f 97/8/1 96/8/1 95/8/1
f 98/8/1 96/8/1 97/8/1
f 101/8/1 100/8/1 99/8/1
f 102/8/1 100/8/1 101/8/1
f 107/8/1 104/8/1 103/8/1
f 108/8/1 104/8/1 107/8/1
f 109/8/1 106/8/1 105/8/1
f 110/8/1 106/8/1 109/8/1
f 114/6/1 112/6/1 111/6/1
f 115/2/1 113/2/1 112/2/1
f 115/6/1 112/6/1 114/6/1
f 116/2/1 113/2/1 115/2/1
f 117/2/1 113/2/1 116/2/1
f 118/6/1 114/6/1 111/6/1
f 119/6/1 114/6/1 118/6/1
f 122/8/1 121/8/1 120/8/1
f 123/8/1 121/8/1 122/8/1
f 127/5/1 125/5/1 124/5/1
f 128/5/1 125/5/1 127/5/1
f 129/8/1 127/8/1 126/8/1
f 130/8/1 127/8/1 129/8/1
f 131/5/2 132/5/2 134/5/2
f 134/5/2 132/5/2 135/5/2
f 133/8/2 134/8/2 136/8/2
f 136/8/2 134/8/2 137/8/2
f 138/6/2 139/6/2 140/6/2
f 140/6/2 139/6/2 141/6/2
f 142/8/2 143/8/2 144/8/2
f 144/8/2 143/8/2 145/8/2
f 146/6/2 147/6/2 148/6/2
f 148/6/2 147/6/2 149/6/2
f 149/6/2 147/6/2 150/6/2
f 150/6/2 147/6/2 151/6/2
f 150/2/2 151/2/2 152/2/2
f 152/2/2 151/2/2 153/2/2
f 154/8/2 155/8/2 158/8/2
f 158/8/2 155/8/2 159/8/2
f 156/8/2 157/8/2 160/8/2
f 160/8/2 157/8/2 161/8/2
f 162/8/2 163/8/2 164/8/2
f 164/8/2 163/8/2 165/8/2
f 166/6/2 167/6/2 169/6/2
f 167/2/2 168/2/2 170/2/2
f 169/6/2 167/6/2 170/6/2
f 170/2/2 168/2/2 171/2/2
f 171/2/2 168/2/2 172/2/2
f 166/6/2 169/6/2 174/6/2
f 174/6/2 169/6/2 175/6/2
f 170/6/2 171/6/2 176/6/2
f 176/6/2 171/6/2 177/6/2
f 172/6/2 173/6/2 178/6/2
f 178/6/2 173/6/2 179/6/2
f 176/2/2 177/2/2 180/2/2
f 178/2/2 179/2/2 181/2/2
f 176/2/2 180/2/2 182/2/2
f 181/2/2 179/2/2 183/2/2
f 176/2/2 182/2/2 184/2/2
f 182/2/2 183/2/2 184/2/2
f 184/2/2 183/2/2 185/2/2
f 183/2/2 179/2/2 186/2/2
f 185/2/2 183/2/2 186/2/2
f 186/5/2 187/5/2 188/5/2
f 188/5/2 187/5/2 189/5/2
f 190/8/2 191/8/2 192/8/2
f 192/8/2 191/8/2 193/8/2
f 194/8/2 195/8/2 198/8/2
f 198/8/2 195/8/2 199/8/2
f 196/8/2 197/8/2 200/8/2
f 200/8/2 197/8/2 201/8/2
f 202/8/2 203/8/2 204/8/2
f 204/8/2 203/8/2 205/8/2
f 206/3/2 207/3/2 209/3/2
f 207/5/2 208/5/2 210/5/2
f 209/3/2 207/3/2 210/3/2
f 210/5/2 208/5/2 211/5/2
f 212/6/2 213/6/2 214/6/2
f 214/6/2 213/6/2 215/6/2
f 214/3/2 215/3/2 216/3/2
f 216/3/2 215/3/2 217/3/2
f 216/9/2 217/9/2 218/9/2
f 218/9/2 217/9/2 219/9/2
f 220/3/2 221/3/2 223/3/2
f 221/5/2 222/5/2 224/5/2
f 223/3/2 221/3/2 224/3/2
f 224/5/2 222/5/2 225/5/2
f 225/5/2 222/5/2 226/5/2
f 226/5/2 222/5/2 227/5/2
f 227/8/2 228/8/2 232/8/2
f 229/8/2 230/8/2 233/8/2
f 233/8/2 230/8/2 234/8/2
f 231/8/2 232/8/2 235/8/2
f 232/8/2 228/8/2 235/8/2
f 235/8/2 228/8/2 236/8/2
f 231/8/2 235/8/2 238/8/2
f 237/8/2 238/8/2 239/8/2
f 238/8/2 235/8/2 240/8/2
f 239/8/2 238/8/2 240/8/2
f 241/5/2 242/5/2 244/5/2
f 244/5/2 242/5/2 245/5/2
f 243/8/2 244/8/2 247/8/2
f 247/8/2 244/8/2 248/8/2
f 245/8/2 246/8/2 249/8/2
f 249/8/2 246/8/2 250/8/2
f 251/8/2 252/8/2 253/8/2
f 253/8/2 252/8/2 254/8/2
f 255/8/2 256/8/2 257/8/2
f 257/8/2 256/8/2 258/8/2
f 261/8/3 260/8/3 259/8/3
f 263/8/3 261/8/3 259/8/3
f 263/8/3 262/8/3 261/8/3
f 264/8/3 262/8/3 263/8/3
f 265/8/3 262/8/3 264/8/3
f 267/8/3 265/8/3 264/8/3
f 267/8/3 266/8/3 265/8/3
f 268/8/3 266/8/3 267/8/3
f 269/8/3 266/8/3 268/8/3
f 271/8/3 269/8/3 268/8/3
f 271/8/3 270/8/3 269/8/3
f 272/8/3 270/8/3 271/8/3
f 274/8/3 271/8/3 268/8/3
f 275/8/3 271/8/3 274/8/3
f 275/8/3 274/8/3 273/8/3
f 276/8/3 271/8/3 275/8/3
f 278/8/3 275/8/3 273/8/3
f 279/8/3 275/8/3 278/8/3
f 279/8/3 278/8/3 277/8/3
f 280/8/3 275/8/3 279/8/3
f 281/8/3 279/8/3 277/8/3
f 282/8/3 279/8/3 281/8/3
f 286/8/3 284/8/3 283/8/3
f 287/8/3 284/8/3 286/8/3
f 289/8/3 288/8/3 287/8/3
f 290/8/3 288/8/3 289/8/3
f 291/8/3 288/8/3 290/8/3
f 293/5/3 286/5/3 285/5/3
f 294/5/3 286/5/3 293/5/3
f 296/8/3 292/8/3 291/8/3
f 296/8/3 291/8/3 290/8/3
f 297/8/3 292/8/3 296/8/3
f 298/8/3 292/8/3 297/8/3
f 300/5/3 295/5/3 294/5/3
f 302/8/3 299/8/3 298/8/3
f 302/8/3 298/8/3 297/8/3
f 304/8/3 302/8/3 297/8/3
f 304/8/3 303/8/3 302/8/3
f 305/8/3 303/8/3 304/8/3
f 309/8/3 303/8/3 305/8/3
f 310/5/3 301/5/3 300/5/3
f 310/5/3 300/5/3 294/5/3
f 311/5/3 301/5/3 310/5/3
f 312/8/3 309/8/3 308/8/3
f 312/8/3 303/8/3 309/8/3
f 313/8/3 303/8/3 312/8/3
f 314/6/3 307/6/3 306/6/3
f 315/6/3 307/6/3 314/6/3
f 317/8/3 312/8/3 308/8/3
f 318/8/3 312/8/3 317/8/3
f 319/8/3 312/8/3 318/8/3
f 321/5/3 310/5/3 294/5/3
f 322/5/3 310/5/3 321/5/3
f 324/8/3 318/8/3 317/8/3
f 324/8/3 317/8/3 316/8/3
f 325/8/3 318/8/3 324/8/3
f 326/8/3 318/8/3 325/8/3
f 327/5/3 321/5/3 320/5/3
f 328/5/3 321/5/3 327/5/3
f 329/8/3 324/8/3 323/8/3
f 329/8/3 325/8/3 324/8/3
f 330/8/3 325/8/3 329/8/3
f 331/8/3 325/8/3 330/8/3
f 332/8/3 329/8/3 328/8/3
f 332/8/3 330/8/3 329/8/3
f 333/8/3 330/8/3 332/8/3
f 339/3/3 337/3/3 336/3/3
f 340/3/3 337/3/3 339/3/3
f 342/6/3 335/6/3 334/6/3
f 343/6/3 335/6/3 342/6/3
f 344/3/3 341/3/3 340/3/3
f 344/3/3 339/3/3 338/3/3
f 344/3/3 340/3/3 339/3/3
f 345/3/3 341/3/3 344/3/3
f 346/3/3 344/3/3 338/3/3
f 346/10/3 345/10/3 344/10/3
f 347/3/3 341/3/3 345/3/3
f 347/10/3 345/10/3 346/10/3
f 348/3/3 346/3/3 338/3/3
f 349/3/3 346/3/3 348/3/3
f 350/11/3 347/11/3 346/11/3
f 350/3/3 346/3/3 349/3/3
f 351/3/3 341/3/3 347/3/3
f 351/11/3 347/11/3 350/11/3
f 352/1/3 349/1/3 348/1/3
f 352/3/3 348/3/3 338/3/3
f 353/3/3 350/3/3 349/3/3
f 353/1/3 349/1/3 352/1/3
f 353/3/3 351/3/3 350/3/3
f 354/3/3 351/3/3 353/3/3
f 355/3/3 341/3/3 351/3/3
f 355/3/3 351/3/3 354/3/3
f 356/3/3 354/3/3 353/3/3
f 356/3/3 353/3/3 352/3/3
f 356/11/3 355/11/3 354/11/3
f 357/3/3 341/3/3 355/3/3
f 357/11/3 355/11/3 356/11/3
f 358/3/3 356/3/3 352/3/3
f 358/10/3 357/10/3 356/10/3
f 359/3/3 341/3/3 357/3/3
f 359/10/3 357/10/3 358/10/3
f 360/3/3 352/3/3 338/3/3
f 360/3/3 358/3/3 352/3/3
f 360/3/3 359/3/3 358/3/3
f 361/3/3 359/3/3 360/3/3
f 362/3/3 341/3/3 359/3/3
f 362/3/3 359/3/3 361/3/3
f 363/3/3 341/3/3 362/3/3
f 364/3/3 362/3/3 361/3/3
f 365/3/3 362/3/3 364/3/3
f 373/2/3 370/2/3 369/2/3
f 373/2/3 372/2/3 371/2/3
f 373/2/3 371/2/3 370/2/3
f 374/2/3 372/2/3 373/2/3
f 375/6/3 367/6/3 366/6/3
f 376/6/3 367/6/3 375/6/3
f 377/6/3 369/6/3 368/6/3
f 378/2/3 373/2/3 369/2/3
f 378/6/3 369/6/3 377/6/3
f 379/2/3 373/2/3 378/2/3
f 380/9/3 374/9/3 373/9/3
f 380/2/3 373/2/3 379/2/3
f 381/9/3 374/9/3 380/9/3
f 382/7/3 378/7/3 377/7/3
f 383/2/3 379/2/3 378/2/3
f 383/7/3 378/7/3 382/7/3
f 384/9/3 380/9/3 379/9/3
f 384/2/3 379/2/3 383/2/3
f 385/3/3 381/3/3 380/3/3
f 385/9/3 380/9/3 384/9/3
f 386/3/3 381/3/3 385/3/3
f 387/2/3 384/2/3 383/2/3
f 387/2/3 385/2/3 384/2/3
f 387/9/3 386/9/3 385/9/3
f 388/9/3 386/9/3 387/9/3
f 389/6/3 383/6/3 382/6/3
f 390/2/3 387/2/3 383/2/3
f 390/6/3 383/6/3 389/6/3
f 390/2/3 388/2/3 387/2/3
f 391/2/3 388/2/3 390/2/3
f 395/6/3 393/6/3 392/6/3
f 396/2/3 394/2/3 393/2/3
f 396/6/3 393/6/3 395/6/3
f 397/2/3 394/2/3 396/2/3
f 402/6/3 399/6/3 398/6/3
f 403/3/3 400/3/3 399/3/3
f 403/6/3 399/6/3 402/6/3
f 404/9/3 401/9/3 400/9/3
f 404/3/3 400/3/3 403/3/3
f 405/9/3 401/9/3 404/9/3
f 406/6/4 407/6/4 408/6/4
f 408/6/4 407/6/4 409/6/4
f 410/9/4 411/9/4 415/9/4
f 415/9/4 411/9/4 416/9/4
f 412/6/4 413/6/4 417/6/4
f 413/2/4 414/2/4 418/2/4
f 417/6/4 413/6/4 418/6/4
f 418/2/4 414/2/4 419/2/4
f 420/2/4 421/2/4 422/2/4
f 422/2/4 421/2/4 423/2/4
f 423/6/4 424/6/4 427/6/4
f 424/3/4 425/3/4 428/3/4
f 427/6/4 424/6/4 428/6/4
f 425/9/4 426/9/4 429/9/4
f 428/3/4 425/3/4 429/3/4
f 429/9/4 426/9/4 430/9/4
f 431/5/4 432/5/4 435/5/4
f 435/5/4 432/5/4 436/5/4
f 434/2/4 435/2/4 437/2/4
f 437/2/4 435/2/4 438/2/4
f 434/2/4 437/2/4 439/2/4
f 437/9/4 438/9/4 439/9/4
f 439/9/4 438/9/4 440/9/4
f 433/6/4 434/6/4 441/6/4
f 434/2/4 439/2/4 442/2/4
f 441/6/4 434/6/4 442/6/4
f 439/2/4 440/2/4 442/2/4
f 442/2/4 440/2/4 443/2/4
f 443/5/4 444/5/4 445/5/4
f 445/5/4 444/5/4 446/5/4
f 447/8/4 448/8/4 450/8/4
f 450/8/4 448/8/4 451/8/4
f 449/5/4 450/5/4 453/5/4
f 453/5/4 450/5/4 454/5/4
f 451/8/4 452/8/4 455/8/4
f 455/8/4 452/8/4 456/8/4
f 456/8/4 457/8/4 458/8/4
f 458/8/4 457/8/4 459/8/4
f 460/5/4 461/5/4 462/5/4
f 462/5/4 461/5/4 463/5/4
f 464/5/4 465/5/4 468/5/4
f 468/5/4 465/5/4 469/5/4
f 466/8/4 467/8/4 470/8/4
f 470/8/4 467/8/4 471/8/4
f 471/8/4 467/8/4 472/8/4
f 469/8/4 470/8/4 473/8/4
f 470/8/4 471/8/4 473/8/4
f 473/8/4 471/8/4 474/8/4
f 475/8/4 476/8/4 478/8/4
f 478/8/4 476/8/4 479/8/4
f 480/8/4 481/8/4 482/8/4
f 477/5/4 478/5/4 484/5/4
f 484/5/4 478/5/4 485/5/4
f 482/8/4 483/8/4 486/8/4
f 480/8/4 482/8/4 486/8/4
f 486/8/4 483/8/4 487/8/4
f 487/8/4 483/8/4 488/8/4
f 488/8/4 489/8/4 490/8/4
f 487/8/4 488/8/4 490/8/4
f 487/8/4 490/8/4 492/8/4
f 490/8/4 491/8/4 492/8/4
f 492/8/4 491/8/4 493/8/4
f 493/8/4 491/8/4 495/8/4
f 495/8/4 491/8/4 496/8/4
f 494/8/4 495/8/4 496/8/4
f 496/8/4 491/8/4 497/8/4
f 477/5/4 484/5/4 498/5/4
f 494/8/4 496/8/4 501/8/4
f 501/8/4 496/8/4 502/8/4
f 502/8/4 496/8/4 503/8/4
f 498/5/4 499/5/4 504/5/4
f 477/5/4 498/5/4 504/5/4
f 504/5/4 499/5/4 505/5/4
f 501/8/4 502/8/4 507/8/4
f 500/8/4 501/8/4 507/8/4
f 507/8/4 502/8/4 508/8/4
f 505/8/4 506/8/4 509/8/4
f 509/8/4 506/8/4 510/8/4
f 511/8/4 512/8/4 514/8/4
f 514/8/4 512/8/4 515/8/4
f 513/8/4 514/8/4 517/8/4
f 515/8/4 516/8/4 517/8/4
f 514/8/4 515/8/4 517/8/4
f 513/8/4 517/8/4 519/8/4
f 517/8/4 518/8/4 519/8/4
f 519/8/4 518/8/4 520/8/4
f 513/8/4 519/8/4 521/8/4
f 521/8/4 519/8/4 522/8/4
f 522/8/4 519/8/4 523/8/4
f 523/8/4 519/8/4 524/8/4
f 522/8/4 523/8/4 525/8/4
f 525/8/4 523/8/4 526/8/4
f 529/6/5 528/6/5 527/6/5
f 530/6/5 528/6/5 529/6/5
f 533/6/5 532/6/5 531/6/5
f 534/6/5 532/6/5 533/6/5
f 535/2/5 534/2/5 533/2/5
f 536/2/5 534/2/5 535/2/5
f 540/6/5 538/6/5 537/6/5
f 541/7/5 539/7/5 538/7/5
f 541/6/5 538/6/5 540/6/5
f 542/7/5 539/7/5 541/7/5
f 546/4/5 542/4/5 541/4/5
f 547/4/5 542/4/5 546/4/5
f 548/6/5 544/6/5 543/6/5
f 549/6/5 544/6/5 548/6/5
f 550/6/5 547/6/5 546/6/5
f 550/6/5 546/6/5 545/6/5
f 550/6/5 548/6/5 547/6/5
f 551/6/5 548/6/5 550/6/5
f 554/6/5 553/6/5 552/6/5
f 555/6/5 553/6/5 554/6/5
f 556/3/5 555/3/5 554/3/5
f 557/3/5 555/3/5 556/3/5
f 558/9/5 557/9/5 556/9/5
f 559/9/5 557/9/5 558/9/5
f 562/3/5 561/3/5 560/3/5
f 563/3/5 561/3/5 562/3/5
f 564/3/5 561/3/5 563/3/5
f 565/3/5 561/3/5 564/3/5
f 566/3/5 561/3/5 565/3/5
f 567/3/5 561/3/5 566/3/5
f 568/3/5 562/3/5 560/3/5
f 569/3/5 568/3/5 560/3/5
f 570/3/5 568/3/5 569/3/5
f 571/3/5 561/3/5 567/3/5
f 572/3/5 561/3/5 571/3/5
f 573/5/5 570/5/5 569/5/5
f 574/5/5 573/5/5 569/5/5
f 575/5/5 573/5/5 574/5/5
f 578/5/5 572/5/5 571/5/5
f 579/5/5 572/5/5 578/5/5
f 580/5/5 577/5/5 576/5/5
f 580/5/5 578/5/5 577/5/5
f 580/5/5 576/5/5 575/5/5
f 581/5/5 578/5/5 580/5/5
f 586/3/5 583/3/5 582/3/5
f 587/3/5 583/3/5 586/3/5
f 588/3/5 585/3/5 584/3/5
f 589/3/5 585/3/5 588/3/5
f 590/5/5 587/5/5 586/5/5
f 593/5/5 589/5/5 588/5/5
f 594/5/5 591/5/5 590/5/5
f 595/5/5 593/5/5 592/5/5
f 596/5/5 594/5/5 590/5/5
f 596/5/5 595/5/5 594/5/5
f 596/5/5 590/5/5 586/5/5
f 597/5/5 593/5/5 595/5/5
f 597/5/5 595/5/5 596/5/5
f 597/5/5 589/5/5 593/5/5
f 602/5/5 599/5/5 598/5/5
f 603/5/5 599/5/5 602/5/5
f 604/5/5 601/5/5 600/5/5
f 605/5/5 601/5/5 604/5/5
f 606/5/5 602/5/5 598/5/5
f 607/5/5 601/5/5 605/5/5
f 608/5/5 606/5/5 598/5/5
f 609/5/5 606/5/5 608/5/5
f 610/5/5 601/5/5 607/5/5
f 611/5/5 601/5/5 610/5/5
f 614/8/5 613/8/5 612/8/5
f 615/8/5 613/8/5 614/8/5
f 621/8/5 617/8/5 616/8/5
f 622/8/5 617/8/5 621/8/5
f 623/8/5 619/8/5 618/8/5
f 624/8/5 619/8/5 623/8/5
f 626/5/5 623/5/5 622/5/5
f 627/5/5 623/5/5 626/5/5
f 628/8/5 621/8/5 620/8/5
f 629/8/5 621/8/5 628/8/5
f 632/8/5 625/8/5 624/8/5
f 633/8/5 625/8/5 632/8/5
f 634/8/5 630/8/5 629/8/5
f 635/8/5 630/8/5 634/8/5
f 638/8/5 632/8/5 631/8/5
f 639/8/5 632/8/5 638/8/5
f 640/8/5 636/8/5 635/8/5
f 641/8/5 636/8/5 640/8/5
f 642/8/5 638/8/5 637/8/5
f 643/8/5 638/8/5 642/8/5
f 648/8/5 645/8/5 644/8/5
f 649/8/5 645/8/5 648/8/5
f 650/8/5 647/8/5 646/8/5
f 651/8/5 647/8/5 650/8/5
f 654/8/5 653/8/5 652/8/5
f 655/8/5 653/8/5 654/8/5
f 656/6/6 657/6/6 658/6/6
f 658/6/6 657/6/6 659/6/6
f 660/6/6 661/6/6 662/6/6
f 662/6/6 661/6/6 663/6/6
f 664/6/6 665/6/6 666/6/6
f 666/6/6 665/6/6 667/6/6
f 668/6/6 669/6/6 670/6/6
f 670/6/6 669/6/6 671/6/6
f 670/3/6 671/3/6 672/3/6
f 672/3/6 671/3/6 673/3/6
f 672/9/6 673/9/6 676/9/6
f 676/9/6 673/9/6 677/9/6
f 674/9/6 675/9/6 678/9/6
f 678/9/6 675/9/6 679/9/6
f 680/8/6 681/8/6 685/8/6
f 685/8/6 681/8/6 686/8/6
f 682/8/6 683/8/6 687/8/6
f 687/8/6 683/8/6 688/8/6
f 684/8/6 685/8/6 689/8/6
f 689/8/6 685/8/6 690/8/6
f 690/8/6 691/8/6 694/8/6
f 694/8/6 691/8/6 695/8/6
f 692/8/6 693/8/6 696/8/6
f 696/8/6 693/8/6 697/8/6
f 698/8/6 699/8/6 702/8/6
f 702/8/6 699/8/6 703/8/6
f 700/8/6 701/8/6 704/8/6
f 704/8/6 701/8/6 705/8/6
f 706/8/6 707/8/6 708/8/6
f 708/8/6 707/8/6 709/8/6
f 710/8/6 711/8/6 714/8/6
f 714/8/6 711/8/6 715/8/6
f 712/8/6 713/8/6 716/8/6
f 716/8/6 713/8/6 717/8/6
f 718/8/6 719/8/6 724/8/6
f 724/8/6 719/8/6 725/8/6
f 720/8/6 721/8/6 726/8/6
f 726/8/6 721/8/6 727/8/6
f 722/8/6 723/8/6 730/8/6
f 730/8/6 723/8/6 731/8/6
f 728/8/6 729/8/6 733/8/6
f 733/8/6 729/8/6 734/8/6
f 731/8/6 732/8/6 735/8/6
f 735/8/6 732/8/6 736/8/6
f 737/8/6 738/8/6 741/8/6
f 741/8/6 738/8/6 742/8/6
f 739/8/6 740/8/6 743/8/6
f 743/8/6 740/8/6 744/8/6
f 745/8/6 746/8/6 749/8/6
f 749/8/6 746/8/6 750/8/6
f 747/8/6 748/8/6 753/8/6
f 753/8/6 748/8/6 754/8/6
f 754/8/6 748/8/6 755/8/6
f 755/8/6 748/8/6 756/8/6
f 751/8/6 752/8/6 759/8/6
f 759/8/6 752/8/6 760/8/6
f 757/8/6 758/8/6 761/8/6
f 761/8/6 758/8/6 762/8/6
f 763/8/6 764/8/6 767/8/6
f 767/8/6 764/8/6 768/8/6
f 765/8/6 766/8/6 769/8/6
f 769/8/6 766/8/6 770/8/6
f 771/8/6 772/8/6 773/8/6
f 773/8/6 772/8/6 774/8/6
