# MagicaVoxel @ Ephtracy

# group
o 

# material
mtllib CharacterSpriteIdle.vox.mtl
usemtl palette

# normals
vn -1 0 0
vn 1 0 0
vn 0 0 1
vn 0 0 -1
vn 0 -1 0
vn 0 1 0

# texcoords
vt 0.00195312 0.5
vt 0.138672 0.5
vt 0.228516 0.5
vt 0.232422 0.5
vt 0.306641 0.5
vt 0.537109 0.5
vt 0.830078 0.5
vt 0.958984 0.5
vt 0.994141 0.5

# verts
v -0.6 1.3 0.5
v -0.6 1.3 -0.3
v -0.6 1.5 0.5
v -0.6 1.5 -0.3
v -0.5 0.3 0.2
v -0.5 0.3 0
v -0.5 0.5 0.2
v -0.5 0.5 0
v -0.5 0.7 0.2
v -0.5 0.7 0
v -0.5 0.9 0.4
v -0.5 0.9 -0.1
v -0.5 0.9 -0.3
v -0.5 1 -0.3
v -0.5 1 -0.4
v -0.5 1.3 0.4
v -0.5 1.3 -0.1
v -0.5 1.3 -0.3
v -0.5 1.5 0.5
v -0.5 1.5 -0.3
v -0.5 1.5 -0.4
v -0.5 1.6 0.5
v -0.5 1.6 -0.3
v -0.4 0.8 0.4
v -0.4 0.8 -0.1
v -0.4 0.9 0.4
v -0.4 0.9 -0.1
v -0.3 0 0.3
v -0.3 0 0.2
v -0.3 0 0
v -0.3 0.1 0.3
v -0.3 0.1 0.2
v -0.3 0.1 0.1
v -0.3 0.2 0.2
v -0.3 0.2 0.1
v -0.3 0.2 0
v -0.3 0.3 0.3
v -0.3 0.3 0.2
v -0.3 0.3 0
v -0.3 0.3 -0.1
v -0.3 0.5 0.2
v -0.3 0.5 0
v -0.3 0.7 0.2
v -0.3 0.7 0
v -0.3 0.8 0.3
v -0.3 0.8 -0.1
v -0.3 0.8 -0.2
v -0.3 0.9 -0.1
v -0.3 0.9 -0.2
v 0.1 0 0.3
v 0.1 0 0.2
v 0.1 0 0
v 0.1 0.1 0.3
v 0.1 0.1 0.2
v 0.1 0.1 0.1
v 0.1 0.2 0.2
v 0.1 0.2 0.1
v 0.1 0.2 0
v 0.1 0.3 0.2
v 0.1 0.3 0
v 0.4 1.3 0.5
v 0.4 1.3 0.4
v 0.4 1.4 0.5
v 0.4 1.4 0.4
v -0.4 1.3 0.5
v -0.4 1.3 0.4
v -0.4 1.4 0.5
v -0.4 1.4 0.4
v -0.1 0 0.3
v -0.1 0 0.2
v -0.1 0 0
v -0.1 0.1 0.3
v -0.1 0.1 0.2
v -0.1 0.1 0.1
v -0.1 0.2 0.2
v -0.1 0.2 0.1
v -0.1 0.2 0
v -0.1 0.3 0.2
v -0.1 0.3 0
v 0.3 0 0.3
v 0.3 0 0.2
v 0.3 0 0
v 0.3 0.1 0.3
v 0.3 0.1 0.2
v 0.3 0.1 0.1
v 0.3 0.2 0.2
v 0.3 0.2 0.1
v 0.3 0.2 0
v 0.3 0.3 0.3
v 0.3 0.3 0.2
v 0.3 0.3 0
v 0.3 0.3 -0.1
v 0.3 0.5 0.2
v 0.3 0.5 0
v 0.3 0.7 0.2
v 0.3 0.7 0
v 0.3 0.8 0.3
v 0.3 0.8 -0.1
v 0.3 0.8 -0.2
v 0.3 0.9 -0.1
v 0.3 0.9 -0.2
v 0.4 0.8 0.4
v 0.4 0.8 -0.1
v 0.4 0.9 0.4
v 0.4 0.9 -0.1
v 0.5 0.3 0.2
v 0.5 0.3 0
v 0.5 0.5 0.2
v 0.5 0.5 0
v 0.5 0.7 0.2
v 0.5 0.7 0
v 0.5 0.9 0.4
v 0.5 0.9 -0.1
v 0.5 0.9 -0.3
v 0.5 1 -0.3
v 0.5 1 -0.4
v 0.5 1.3 0.4
v 0.5 1.3 -0.1
v 0.5 1.3 -0.3
v 0.5 1.5 0.5
v 0.5 1.5 -0.3
v 0.5 1.5 -0.4
v 0.5 1.6 0.5
v 0.5 1.6 -0.3
v 0.6 1.3 0.5
v 0.6 1.3 -0.3
v 0.6 1.5 0.5
v 0.6 1.5 -0.3
v -0.6 1.3 0.5
v -0.6 1.5 0.5
v -0.5 1.5 0.5
v -0.5 1.6 0.5
v -0.4 1.3 0.5
v -0.4 1.4 0.5
v 0.4 1.3 0.5
v 0.4 1.4 0.5
v 0.5 1.5 0.5
v 0.5 1.6 0.5
v 0.6 1.3 0.5
v 0.6 1.5 0.5
v -0.5 0.9 0.4
v -0.5 1.3 0.4
v -0.4 0.8 0.4
v -0.4 0.9 0.4
v -0.4 1.3 0.4
v -0.4 1.4 0.4
v -0.3 1.1 0.4
v -0.3 1.3 0.4
v -0.2 1.1 0.4
v -0.2 1.3 0.4
v -0.1 0.9 0.4
v -0.1 1 0.4
v -0.1 1.1 0.4
v -0.1 1.3 0.4
v 0.1 0.9 0.4
v 0.1 1 0.4
v 0.1 1.1 0.4
v 0.1 1.3 0.4
v 0.2 1.1 0.4
v 0.2 1.3 0.4
v 0.3 1.1 0.4
v 0.3 1.3 0.4
v 0.4 0.8 0.4
v 0.4 0.9 0.4
v 0.4 1.3 0.4
v 0.4 1.4 0.4
v 0.5 0.9 0.4
v 0.5 1.3 0.4
v -0.3 0 0.3
v -0.3 0.1 0.3
v -0.3 0.3 0.3
v -0.3 0.8 0.3
v -0.1 0 0.3
v -0.1 0.1 0.3
v -0.1 0.7 0.3
v -0.1 0.8 0.3
v 0.1 0 0.3
v 0.1 0.1 0.3
v 0.1 0.7 0.3
v 0.1 0.8 0.3
v 0.3 0 0.3
v 0.3 0.1 0.3
v 0.3 0.3 0.3
v 0.3 0.8 0.3
v -0.5 0.3 0.2
v -0.5 0.5 0.2
v -0.5 0.7 0.2
v -0.3 0.1 0.2
v -0.3 0.2 0.2
v -0.3 0.3 0.2
v -0.3 0.5 0.2
v -0.3 0.7 0.2
v -0.1 0.1 0.2
v -0.1 0.2 0.2
v -0.1 0.3 0.2
v 0.1 0.1 0.2
v 0.1 0.2 0.2
v 0.1 0.3 0.2
v 0.3 0.1 0.2
v 0.3 0.2 0.2
v 0.3 0.3 0.2
v 0.3 0.5 0.2
v 0.3 0.7 0.2
v 0.5 0.3 0.2
v 0.5 0.5 0.2
v 0.5 0.7 0.2
v -0.5 0.3 0
v -0.5 0.5 0
v -0.5 0.7 0
v -0.3 0 0
v -0.3 0.2 0
v -0.3 0.3 0
v -0.3 0.5 0
v -0.3 0.7 0
v -0.1 0 0
v -0.1 0.2 0
v -0.1 0.3 0
v 0.1 0 0
v 0.1 0.2 0
v 0.1 0.3 0
v 0.3 0 0
v 0.3 0.2 0
v 0.3 0.3 0
v 0.3 0.5 0
v 0.3 0.7 0
v 0.5 0.3 0
v 0.5 0.5 0
v 0.5 0.7 0
v -0.4 0.8 -0.1
v -0.4 0.9 -0.1
v -0.3 0.3 -0.1
v -0.3 0.8 -0.1
v -0.3 0.9 -0.1
v 0.3 0.3 -0.1
v 0.3 0.8 -0.1
v 0.3 0.9 -0.1
v 0.4 0.8 -0.1
v 0.4 0.9 -0.1
v -0.3 0.8 -0.2
v -0.3 0.9 -0.2
v 0.3 0.8 -0.2
v 0.3 0.9 -0.2
v -0.6 1.3 -0.3
v -0.6 1.5 -0.3
v -0.5 0.9 -0.3
v -0.5 1 -0.3
v -0.5 1.3 -0.3
v -0.5 1.5 -0.3
v -0.5 1.6 -0.3
v 0.5 0.9 -0.3
v 0.5 1 -0.3
v 0.5 1.3 -0.3
v 0.5 1.5 -0.3
v 0.5 1.6 -0.3
v 0.6 1.3 -0.3
v 0.6 1.5 -0.3
v -0.5 1 -0.4
v -0.5 1.5 -0.4
v 0.5 1 -0.4
v 0.5 1.5 -0.4
v -0.3 0 0.3
v -0.1 0 0.3
v 0.1 0 0.3
v 0.3 0 0.3
v -0.3 0 0.2
v -0.1 0 0.2
v 0.1 0 0.2
v 0.3 0 0.2
v -0.3 0 0
v -0.1 0 0
v 0.1 0 0
v 0.3 0 0
v -0.3 0.3 0.3
v 0.3 0.3 0.3
v -0.5 0.3 0.2
v -0.3 0.3 0.2
v -0.1 0.3 0.2
v 0.1 0.3 0.2
v 0.3 0.3 0.2
v 0.5 0.3 0.2
v -0.5 0.3 0
v -0.3 0.3 0
v -0.1 0.3 0
v 0.1 0.3 0
v 0.3 0.3 0
v 0.5 0.3 0
v -0.3 0.3 -0.1
v 0.3 0.3 -0.1
v -0.4 0.8 0.4
v 0.4 0.8 0.4
v -0.3 0.8 0.3
v -0.1 0.8 0.3
v 0.1 0.8 0.3
v 0.3 0.8 0.3
v -0.4 0.8 -0.1
v -0.3 0.8 -0.1
v 0.3 0.8 -0.1
v 0.4 0.8 -0.1
v -0.3 0.8 -0.2
v 0.3 0.8 -0.2
v -0.5 0.9 0.4
v -0.4 0.9 0.4
v 0.4 0.9 0.4
v 0.5 0.9 0.4
v -0.5 0.9 -0.1
v -0.4 0.9 -0.1
v -0.3 0.9 -0.1
v 0.3 0.9 -0.1
v 0.4 0.9 -0.1
v 0.5 0.9 -0.1
v -0.3 0.9 -0.2
v 0.3 0.9 -0.2
v -0.5 0.9 -0.3
v 0.5 0.9 -0.3
v -0.5 1 -0.3
v 0.5 1 -0.3
v -0.5 1 -0.4
v 0.5 1 -0.4
v -0.6 1.3 0.5
v -0.4 1.3 0.5
v 0.4 1.3 0.5
v 0.6 1.3 0.5
v -0.5 1.3 0.4
v -0.4 1.3 0.4
v 0.4 1.3 0.4
v 0.5 1.3 0.4
v -0.5 1.3 -0.1
v 0.5 1.3 -0.1
v -0.6 1.3 -0.3
v -0.5 1.3 -0.3
v 0.5 1.3 -0.3
v 0.6 1.3 -0.3
v -0.4 1.4 0.5
v 0.4 1.4 0.5
v -0.4 1.4 0.4
v 0.4 1.4 0.4
v -0.3 0.1 0.3
v -0.1 0.1 0.3
v 0.1 0.1 0.3
v 0.3 0.1 0.3
v -0.3 0.1 0.2
v -0.1 0.1 0.2
v 0.1 0.1 0.2
v 0.3 0.1 0.2
v -0.5 0.7 0.2
v -0.3 0.7 0.2
v 0.3 0.7 0.2
v 0.5 0.7 0.2
v -0.5 0.7 0
v -0.3 0.7 0
v 0.3 0.7 0
v 0.5 0.7 0
v -0.6 1.5 0.5
v -0.5 1.5 0.5
v 0.5 1.5 0.5
v 0.6 1.5 0.5
v -0.6 1.5 -0.3
v -0.5 1.5 -0.3
v 0.5 1.5 -0.3
v 0.6 1.5 -0.3
v -0.5 1.5 -0.4
v 0.5 1.5 -0.4
v -0.5 1.6 0.5
v 0.5 1.6 0.5
v -0.5 1.6 -0.3
v 0.5 1.6 -0.3

# faces
f 3/6/1 2/6/1 1/6/1
f 4/6/1 2/6/1 3/6/1
f 7/3/1 6/3/1 5/3/1
f 8/3/1 6/3/1 7/3/1
f 9/5/1 8/5/1 7/5/1
f 10/5/1 8/5/1 9/5/1
f 14/6/1 13/6/1 12/6/1
f 16/3/1 12/3/1 11/3/1
f 17/6/1 15/6/1 14/6/1
f 17/3/1 12/3/1 16/3/1
f 17/6/1 14/6/1 12/6/1
f 18/6/1 15/6/1 17/6/1
f 20/6/1 15/6/1 18/6/1
f 21/6/1 15/6/1 20/6/1
f 22/6/1 20/6/1 19/6/1
f 23/6/1 20/6/1 22/6/1
f 26/3/1 25/3/1 24/3/1
f 27/3/1 25/3/1 26/3/1
f 31/1/1 29/1/1 28/1/1
f 32/9/1 30/9/1 29/9/1
f 32/1/1 29/1/1 31/1/1
f 33/9/1 30/9/1 32/9/1
f 34/2/1 33/2/1 32/2/1
f 35/9/1 30/9/1 33/9/1
f 35/2/1 33/2/1 34/2/1
f 36/9/1 30/9/1 35/9/1
f 38/7/1 35/7/1 34/7/1
f 38/7/1 36/7/1 35/7/1
f 39/7/1 36/7/1 38/7/1
f 41/5/1 38/5/1 37/5/1
f 42/5/1 40/5/1 39/5/1
f 43/5/1 41/5/1 37/5/1
f 44/5/1 40/5/1 42/5/1
f 45/5/1 43/5/1 37/5/1
f 45/5/1 44/5/1 43/5/1
f 46/5/1 40/5/1 44/5/1
f 46/5/1 44/5/1 45/5/1
f 48/6/1 47/6/1 46/6/1
f 49/6/1 47/6/1 48/6/1
f 53/1/1 51/1/1 50/1/1
f 54/9/1 52/9/1 51/9/1
f 54/1/1 51/1/1 53/1/1
f 55/9/1 52/9/1 54/9/1
f 56/2/1 55/2/1 54/2/1
f 57/9/1 52/9/1 55/9/1
f 57/2/1 55/2/1 56/2/1
f 58/9/1 52/9/1 57/9/1
f 59/7/1 57/7/1 56/7/1
f 59/7/1 58/7/1 57/7/1
f 60/7/1 58/7/1 59/7/1
f 63/6/1 62/6/1 61/6/1
f 64/6/1 62/6/1 63/6/1
f 65/6/2 66/6/2 67/6/2
f 67/6/2 66/6/2 68/6/2
f 69/1/2 70/1/2 72/1/2
f 70/9/2 71/9/2 73/9/2
f 72/1/2 70/1/2 73/1/2
f 73/9/2 71/9/2 74/9/2
f 73/2/2 74/2/2 75/2/2
f 74/9/2 71/9/2 76/9/2
f 75/2/2 74/2/2 76/2/2
f 76/9/2 71/9/2 77/9/2
f 75/7/2 76/7/2 78/7/2
f 76/7/2 77/7/2 78/7/2
f 78/7/2 77/7/2 79/7/2
f 80/1/2 81/1/2 83/1/2
f 81/9/2 82/9/2 84/9/2
f 83/1/2 81/1/2 84/1/2
f 84/9/2 82/9/2 85/9/2
f 84/2/2 85/2/2 86/2/2
f 85/9/2 82/9/2 87/9/2
f 86/2/2 85/2/2 87/2/2
f 87/9/2 82/9/2 88/9/2
f 86/7/2 87/7/2 90/7/2
f 87/7/2 88/7/2 90/7/2
f 90/7/2 88/7/2 91/7/2
f 89/5/2 90/5/2 93/5/2
f 91/5/2 92/5/2 94/5/2
f 89/5/2 93/5/2 95/5/2
f 94/5/2 92/5/2 96/5/2
f 89/5/2 95/5/2 97/5/2
f 95/5/2 96/5/2 97/5/2
f 96/5/2 92/5/2 98/5/2
f 97/5/2 96/5/2 98/5/2
f 98/6/2 99/6/2 100/6/2
f 100/6/2 99/6/2 101/6/2
f 102/3/2 103/3/2 104/3/2
f 104/3/2 103/3/2 105/3/2
f 106/3/2 107/3/2 108/3/2
f 108/3/2 107/3/2 109/3/2
f 108/5/2 109/5/2 110/5/2
f 110/5/2 109/5/2 111/5/2
f 113/6/2 114/6/2 115/6/2
f 112/3/2 113/3/2 117/3/2
f 115/6/2 116/6/2 118/6/2
f 117/3/2 113/3/2 118/3/2
f 113/6/2 115/6/2 118/6/2
f 118/6/2 116/6/2 119/6/2
f 119/6/2 116/6/2 121/6/2
f 121/6/2 116/6/2 122/6/2
f 120/6/2 121/6/2 123/6/2
f 123/6/2 121/6/2 124/6/2
f 125/6/2 126/6/2 127/6/2
f 127/6/2 126/6/2 128/6/2
f 131/6/3 130/6/3 129/6/3
f 133/6/3 131/6/3 129/6/3
f 133/6/3 132/6/3 131/6/3
f 134/6/3 132/6/3 133/6/3
f 136/6/3 132/6/3 134/6/3
f 137/6/3 132/6/3 136/6/3
f 137/6/3 136/6/3 135/6/3
f 138/6/3 132/6/3 137/6/3
f 139/6/3 137/6/3 135/6/3
f 140/6/3 137/6/3 139/6/3
f 144/3/3 142/3/3 141/3/3
f 145/3/3 142/3/3 144/3/3
f 147/3/3 144/3/3 143/3/3
f 147/3/3 146/3/3 145/3/3
f 147/3/3 145/3/3 144/3/3
f 148/3/3 146/3/3 147/3/3
f 149/3/3 147/3/3 143/3/3
f 149/8/3 148/8/3 147/8/3
f 150/3/3 146/3/3 148/3/3
f 150/8/3 148/8/3 149/8/3
f 151/3/3 149/3/3 143/3/3
f 152/3/3 149/3/3 151/3/3
f 153/9/3 150/9/3 149/9/3
f 153/3/3 149/3/3 152/3/3
f 154/3/3 146/3/3 150/3/3
f 154/9/3 150/9/3 153/9/3
f 155/4/3 152/4/3 151/4/3
f 155/3/3 151/3/3 143/3/3
f 156/3/3 153/3/3 152/3/3
f 156/4/3 152/4/3 155/4/3
f 156/3/3 154/3/3 153/3/3
f 157/3/3 154/3/3 156/3/3
f 158/3/3 146/3/3 154/3/3
f 158/3/3 154/3/3 157/3/3
f 159/3/3 157/3/3 156/3/3
f 159/3/3 156/3/3 155/3/3
f 159/9/3 158/9/3 157/9/3
f 160/3/3 146/3/3 158/3/3
f 160/9/3 158/9/3 159/9/3
f 161/3/3 159/3/3 155/3/3
f 161/8/3 160/8/3 159/8/3
f 162/3/3 146/3/3 160/3/3
f 162/8/3 160/8/3 161/8/3
f 163/3/3 155/3/3 143/3/3
f 163/3/3 161/3/3 155/3/3
f 163/3/3 162/3/3 161/3/3
f 164/3/3 162/3/3 163/3/3
f 165/3/3 146/3/3 162/3/3
f 165/3/3 162/3/3 164/3/3
f 166/3/3 146/3/3 165/3/3
f 167/3/3 165/3/3 164/3/3
f 168/3/3 165/3/3 167/3/3
f 173/1/3 170/1/3 169/1/3
f 174/1/3 170/1/3 173/1/3
f 175/5/3 172/5/3 171/5/3
f 176/5/3 172/5/3 175/5/3
f 179/5/3 175/5/3 171/5/3
f 179/3/3 176/3/3 175/3/3
f 180/3/3 176/3/3 179/3/3
f 181/1/3 178/1/3 177/1/3
f 182/1/3 178/1/3 181/1/3
f 183/5/3 179/5/3 171/5/3
f 183/5/3 180/5/3 179/5/3
f 184/5/3 180/5/3 183/5/3
f 190/3/3 186/3/3 185/3/3
f 191/5/3 187/5/3 186/5/3
f 191/3/3 186/3/3 190/3/3
f 192/5/3 187/5/3 191/5/3
f 193/2/3 189/2/3 188/2/3
f 194/7/3 190/7/3 189/7/3
f 194/2/3 189/2/3 193/2/3
f 195/7/3 190/7/3 194/7/3
f 199/2/3 197/2/3 196/2/3
f 200/7/3 198/7/3 197/7/3
f 200/2/3 197/2/3 199/2/3
f 201/7/3 198/7/3 200/7/3
f 204/3/3 202/3/3 201/3/3
f 205/5/3 203/5/3 202/5/3
f 205/3/3 202/3/3 204/3/3
f 206/5/3 203/5/3 205/5/3
f 207/3/4 208/3/4 212/3/4
f 208/5/4 209/5/4 213/5/4
f 212/3/4 208/3/4 213/3/4
f 213/5/4 209/5/4 214/5/4
f 210/9/4 211/9/4 215/9/4
f 211/7/4 212/7/4 216/7/4
f 215/9/4 211/9/4 216/9/4
f 216/7/4 212/7/4 217/7/4
f 218/9/4 219/9/4 221/9/4
f 219/7/4 220/7/4 222/7/4
f 221/9/4 219/9/4 222/9/4
f 222/7/4 220/7/4 223/7/4
f 223/3/4 224/3/4 226/3/4
f 224/5/4 225/5/4 227/5/4
f 226/3/4 224/3/4 227/3/4
f 227/5/4 225/5/4 228/5/4
f 229/3/4 230/3/4 232/3/4
f 232/3/4 230/3/4 233/3/4
f 231/5/4 232/5/4 234/5/4
f 234/5/4 232/5/4 235/5/4
f 235/3/4 236/3/4 237/3/4
f 237/3/4 236/3/4 238/3/4
f 239/6/4 240/6/4 241/6/4
f 241/6/4 240/6/4 242/6/4
f 243/6/4 244/6/4 247/6/4
f 247/6/4 244/6/4 248/6/4
f 245/6/4 246/6/4 250/6/4
f 250/6/4 246/6/4 251/6/4
f 248/6/4 249/6/4 253/6/4
f 253/6/4 249/6/4 254/6/4
f 252/6/4 253/6/4 255/6/4
f 255/6/4 253/6/4 256/6/4
f 257/6/4 258/6/4 259/6/4
f 259/6/4 258/6/4 260/6/4
f 265/1/5 262/1/5 261/1/5
f 266/1/5 262/1/5 265/1/5
f 267/1/5 264/1/5 263/1/5
f 268/1/5 264/1/5 267/1/5
f 269/9/5 266/9/5 265/9/5
f 270/9/5 266/9/5 269/9/5
f 271/9/5 268/9/5 267/9/5
f 272/9/5 268/9/5 271/9/5
f 276/5/5 274/5/5 273/5/5
f 277/5/5 274/5/5 276/5/5
f 278/5/5 274/5/5 277/5/5
f 279/5/5 274/5/5 278/5/5
f 281/3/5 276/3/5 275/3/5
f 282/3/5 276/3/5 281/3/5
f 283/5/5 278/5/5 277/5/5
f 284/5/5 278/5/5 283/5/5
f 285/3/5 280/3/5 279/3/5
f 286/3/5 280/3/5 285/3/5
f 287/5/5 284/5/5 283/5/5
f 287/5/5 285/5/5 284/5/5
f 287/5/5 283/5/5 282/5/5
f 288/5/5 285/5/5 287/5/5
f 291/3/5 290/3/5 289/3/5
f 292/3/5 290/3/5 291/3/5
f 293/3/5 290/3/5 292/3/5
f 294/3/5 290/3/5 293/3/5
f 295/3/5 291/3/5 289/3/5
f 296/3/5 291/3/5 295/3/5
f 297/3/5 290/3/5 294/3/5
f 298/3/5 290/3/5 297/3/5
f 299/6/5 297/6/5 296/6/5
f 300/6/5 297/6/5 299/6/5
f 305/3/5 302/3/5 301/3/5
f 306/3/5 302/3/5 305/3/5
f 309/3/5 304/3/5 303/3/5
f 310/3/5 304/3/5 309/3/5
f 311/6/5 307/6/5 306/6/5
f 311/6/5 306/6/5 305/6/5
f 312/6/5 310/6/5 309/6/5
f 312/6/5 309/6/5 308/6/5
f 313/6/5 311/6/5 305/6/5
f 313/6/5 312/6/5 311/6/5
f 314/6/5 310/6/5 312/6/5
f 314/6/5 312/6/5 313/6/5
f 317/6/5 316/6/5 315/6/5
f 318/6/5 316/6/5 317/6/5
f 323/6/5 320/6/5 319/6/5
f 324/6/5 320/6/5 323/6/5
f 325/6/5 322/6/5 321/6/5
f 326/6/5 322/6/5 325/6/5
f 327/6/5 323/6/5 319/6/5
f 328/6/5 322/6/5 326/6/5
f 329/6/5 327/6/5 319/6/5
f 330/6/5 327/6/5 329/6/5
f 331/6/5 322/6/5 328/6/5
f 332/6/5 322/6/5 331/6/5
f 335/6/5 334/6/5 333/6/5
f 336/6/5 334/6/5 335/6/5
f 337/1/6 338/1/6 341/1/6
f 341/1/6 338/1/6 342/1/6
f 339/1/6 340/1/6 343/1/6
f 343/1/6 340/1/6 344/1/6
f 345/5/6 346/5/6 349/5/6
f 349/5/6 346/5/6 350/5/6
f 347/5/6 348/5/6 351/5/6
f 351/5/6 348/5/6 352/5/6
f 353/6/6 354/6/6 357/6/6
f 357/6/6 354/6/6 358/6/6
f 355/6/6 356/6/6 359/6/6
f 359/6/6 356/6/6 360/6/6
f 358/6/6 359/6/6 361/6/6
f 361/6/6 359/6/6 362/6/6
f 363/6/6 364/6/6 365/6/6
f 365/6/6 364/6/6 366/6/6
