# MagicaVoxel @ Ephtracy

# group
o 

# material
mtllib CharacterSprite1.vox.mtl
usemtl palette

# normals
vn -1 0 0
vn 1 0 0
vn 0 0 1
vn 0 0 -1
vn 0 -1 0
vn 0 1 0

# texcoords
vt 0.00195312 0.5
vt 0.138672 0.5
vt 0.228516 0.5
vt 0.232422 0.5
vt 0.306641 0.5
vt 0.537109 0.5
vt 0.830078 0.5
vt 0.841797 0.5
vt 0.958984 0.5
vt 0.994141 0.5

# verts
v -0.6 1.3 0.5
v -0.6 1.3 -0.3
v -0.6 1.5 0.5
v -0.6 1.5 -0.3
v -0.5 0.3 0.2
v -0.5 0.3 0
v -0.5 0.5 0.2
v -0.5 0.5 0
v -0.5 0.7 0.2
v -0.5 0.7 0
v -0.5 0.9 0.4
v -0.5 0.9 -0.1
v -0.5 0.9 -0.3
v -0.5 1 -0.3
v -0.5 1 -0.4
v -0.5 1.3 0.4
v -0.5 1.3 -0.1
v -0.5 1.3 -0.3
v -0.5 1.5 0.5
v -0.5 1.5 -0.3
v -0.5 1.5 -0.4
v -0.5 1.6 0.5
v -0.5 1.6 -0.3
v -0.4 0.8 0.4
v -0.4 0.8 -0.1
v -0.4 0.8 -0.2
v -0.4 0.9 0.4
v -0.4 0.9 -0.1
v -0.4 0.9 -0.2
v -0.3 0.1 0.5
v -0.3 0.1 0.4
v -0.3 0.1 0.3
v -0.3 0.1 0.1
v -0.3 0.2 0.4
v -0.3 0.2 0.3
v -0.3 0.3 0.5
v -0.3 0.3 0.4
v -0.3 0.3 0.3
v -0.3 0.3 0.2
v -0.3 0.3 0.1
v -0.3 0.3 0
v -0.3 0.3 -0.1
v -0.3 0.4 0.5
v -0.3 0.4 0.4
v -0.3 0.5 0.2
v -0.3 0.5 0
v -0.3 0.7 0.2
v -0.3 0.7 0
v -0.3 0.8 0.3
v -0.3 0.8 -0.1
v 0.1 0 0.3
v 0.1 0 0.2
v 0.1 0 0
v 0.1 0.1 0.3
v 0.1 0.1 0.2
v 0.1 0.1 0.1
v 0.1 0.2 0.2
v 0.1 0.2 0.1
v 0.1 0.2 0
v 0.1 0.3 0.2
v 0.1 0.3 0
v 0.3 0.5 0.4
v 0.3 0.5 0.3
v 0.3 0.7 0.4
v 0.3 0.7 0.3
v 0.4 1.3 0.5
v 0.4 1.3 0.4
v 0.4 1.4 0.5
v 0.4 1.4 0.4
v -0.4 1.3 0.5
v -0.4 1.3 0.4
v -0.4 1.4 0.5
v -0.4 1.4 0.4
v -0.1 0.1 0.5
v -0.1 0.1 0.3
v -0.1 0.1 0.1
v -0.1 0.2 0.4
v -0.1 0.2 0.3
v -0.1 0.3 0.5
v -0.1 0.3 0.4
v -0.1 0.3 0.3
v -0.1 0.3 0.1
v -0.1 0.4 0.5
v -0.1 0.4 0.4
v 0.3 0 0.3
v 0.3 0 0.2
v 0.3 0 0
v 0.3 0.1 0.3
v 0.3 0.1 0.2
v 0.3 0.1 0.1
v 0.3 0.2 0.2
v 0.3 0.2 0.1
v 0.3 0.2 0
v 0.3 0.3 0.3
v 0.3 0.3 0.2
v 0.3 0.3 0
v 0.3 0.3 -0.1
v 0.3 0.5 0.3
v 0.3 0.5 0.2
v 0.3 0.5 0
v 0.3 0.7 0.3
v 0.3 0.7 0.2
v 0.3 0.7 0
v 0.3 0.8 0.3
v 0.3 0.8 -0.1
v 0.3 0.8 -0.2
v 0.3 0.9 -0.1
v 0.3 0.9 -0.2
v 0.4 0.8 0.4
v 0.4 0.8 -0.1
v 0.4 0.9 0.4
v 0.4 0.9 -0.1
v 0.5 0.5 0.4
v 0.5 0.5 0.2
v 0.5 0.5 0
v 0.5 0.7 0.4
v 0.5 0.7 0.2
v 0.5 0.7 0
v 0.5 0.9 0.4
v 0.5 0.9 -0.1
v 0.5 0.9 -0.3
v 0.5 1 -0.3
v 0.5 1 -0.4
v 0.5 1.3 0.4
v 0.5 1.3 -0.1
v 0.5 1.3 -0.3
v 0.5 1.5 0.5
v 0.5 1.5 -0.3
v 0.5 1.5 -0.4
v 0.5 1.6 0.5
v 0.5 1.6 -0.3
v 0.6 1.3 0.5
v 0.6 1.3 -0.3
v 0.6 1.5 0.5
v 0.6 1.5 -0.3
v -0.6 1.3 0.5
v -0.6 1.5 0.5
v -0.5 1.5 0.5
v -0.5 1.6 0.5
v -0.4 1.3 0.5
v -0.4 1.4 0.5
v -0.3 0.1 0.5
v -0.3 0.3 0.5
v -0.3 0.4 0.5
v -0.1 0.1 0.5
v -0.1 0.3 0.5
v -0.1 0.4 0.5
v 0.4 1.3 0.5
v 0.4 1.4 0.5
v 0.5 1.5 0.5
v 0.5 1.6 0.5
v 0.6 1.3 0.5
v 0.6 1.5 0.5
v -0.5 0.9 0.4
v -0.5 1.3 0.4
v -0.4 0.8 0.4
v -0.4 0.9 0.4
v -0.4 1.3 0.4
v -0.4 1.4 0.4
v -0.3 1.1 0.4
v -0.3 1.3 0.4
v -0.2 1.1 0.4
v -0.2 1.3 0.4
v -0.1 0.9 0.4
v -0.1 1 0.4
v -0.1 1.1 0.4
v -0.1 1.3 0.4
v 0.1 0.9 0.4
v 0.1 1 0.4
v 0.1 1.1 0.4
v 0.1 1.3 0.4
v 0.2 1.1 0.4
v 0.2 1.3 0.4
v 0.3 0.5 0.4
v 0.3 0.7 0.4
v 0.3 1.1 0.4
v 0.3 1.3 0.4
v 0.4 0.8 0.4
v 0.4 0.9 0.4
v 0.4 1.3 0.4
v 0.4 1.4 0.4
v 0.5 0.5 0.4
v 0.5 0.7 0.4
v 0.5 0.9 0.4
v 0.5 1.3 0.4
v -0.3 0.3 0.3
v -0.3 0.8 0.3
v -0.1 0.3 0.3
v -0.1 0.7 0.3
v -0.1 0.8 0.3
v 0.1 0 0.3
v 0.1 0.1 0.3
v 0.1 0.7 0.3
v 0.1 0.8 0.3
v 0.3 0 0.3
v 0.3 0.1 0.3
v 0.3 0.3 0.3
v 0.3 0.5 0.3
v 0.3 0.7 0.3
v 0.3 0.8 0.3
v -0.5 0.3 0.2
v -0.5 0.5 0.2
v -0.5 0.7 0.2
v -0.3 0.3 0.2
v -0.3 0.5 0.2
v -0.3 0.7 0.2
v 0.1 0.1 0.2
v 0.1 0.2 0.2
v 0.1 0.3 0.2
v 0.3 0.1 0.2
v 0.3 0.2 0.2
v 0.3 0.3 0.2
v -0.3 0.3 0.4
v -0.3 0.4 0.4
v -0.1 0.3 0.4
v -0.1 0.4 0.4
v -0.3 0.1 0.1
v -0.3 0.3 0.1
v -0.1 0.1 0.1
v -0.1 0.3 0.1
v -0.5 0.3 0
v -0.5 0.5 0
v -0.5 0.7 0
v -0.3 0.3 0
v -0.3 0.5 0
v -0.3 0.7 0
v 0.1 0 0
v 0.1 0.2 0
v 0.1 0.3 0
v 0.3 0 0
v 0.3 0.2 0
v 0.3 0.3 0
v 0.3 0.5 0
v 0.3 0.7 0
v 0.5 0.5 0
v 0.5 0.7 0
v -0.3 0.3 -0.1
v -0.3 0.8 -0.1
v 0.3 0.3 -0.1
v 0.3 0.8 -0.1
v 0.3 0.9 -0.1
v 0.4 0.8 -0.1
v 0.4 0.9 -0.1
v -0.4 0.8 -0.2
v -0.4 0.9 -0.2
v 0.3 0.8 -0.2
v 0.3 0.9 -0.2
v -0.6 1.3 -0.3
v -0.6 1.5 -0.3
v -0.5 0.9 -0.3
v -0.5 1 -0.3
v -0.5 1.3 -0.3
v -0.5 1.5 -0.3
v -0.5 1.6 -0.3
v 0.5 0.9 -0.3
v 0.5 1 -0.3
v 0.5 1.3 -0.3
v 0.5 1.5 -0.3
v 0.5 1.6 -0.3
v 0.6 1.3 -0.3
v 0.6 1.5 -0.3
v -0.5 1 -0.4
v -0.5 1.5 -0.4
v 0.5 1 -0.4
v 0.5 1.5 -0.4
v 0.1 0 0.3
v 0.3 0 0.3
v 0.1 0 0.2
v 0.3 0 0.2
v 0.1 0 0
v 0.3 0 0
v -0.3 0.1 0.5
v -0.1 0.1 0.5
v -0.3 0.1 0.4
v -0.2 0.1 0.4
v -0.3 0.1 0.3
v -0.2 0.1 0.3
v -0.1 0.1 0.3
v -0.3 0.1 0.1
v -0.1 0.1 0.1
v -0.1 0.3 0.3
v 0.3 0.3 0.3
v -0.5 0.3 0.2
v -0.3 0.3 0.2
v 0.1 0.3 0.2
v 0.3 0.3 0.2
v -0.3 0.3 0.1
v -0.1 0.3 0.1
v -0.5 0.3 0
v -0.3 0.3 0
v 0.1 0.3 0
v 0.3 0.3 0
v -0.3 0.3 -0.1
v 0.3 0.3 -0.1
v 0.3 0.5 0.4
v 0.5 0.5 0.4
v 0.3 0.5 0.3
v 0.3 0.5 0.2
v 0.5 0.5 0.2
v 0.3 0.5 0
v 0.5 0.5 0
v -0.4 0.8 0.4
v 0.4 0.8 0.4
v -0.3 0.8 0.3
v -0.1 0.8 0.3
v 0.1 0.8 0.3
v 0.3 0.8 0.3
v -0.4 0.8 -0.1
v -0.3 0.8 -0.1
v 0.3 0.8 -0.1
v 0.4 0.8 -0.1
v -0.4 0.8 -0.2
v 0.3 0.8 -0.2
v -0.5 0.9 0.4
v -0.4 0.9 0.4
v 0.4 0.9 0.4
v 0.5 0.9 0.4
v -0.5 0.9 -0.1
v -0.4 0.9 -0.1
v 0.3 0.9 -0.1
v 0.4 0.9 -0.1
v 0.5 0.9 -0.1
v -0.4 0.9 -0.2
v 0.3 0.9 -0.2
v -0.5 0.9 -0.3
v 0.5 0.9 -0.3
v -0.5 1 -0.3
v 0.5 1 -0.3
v -0.5 1 -0.4
v 0.5 1 -0.4
v -0.6 1.3 0.5
v -0.4 1.3 0.5
v 0.4 1.3 0.5
v 0.6 1.3 0.5
v -0.5 1.3 0.4
v -0.4 1.3 0.4
v 0.4 1.3 0.4
v 0.5 1.3 0.4
v -0.5 1.3 -0.1
v 0.5 1.3 -0.1
v -0.6 1.3 -0.3
v -0.5 1.3 -0.3
v 0.5 1.3 -0.3
v 0.6 1.3 -0.3
v -0.4 1.4 0.5
v 0.4 1.4 0.5
v -0.4 1.4 0.4
v 0.4 1.4 0.4
v 0.1 0.1 0.3
v 0.3 0.1 0.3
v 0.1 0.1 0.2
v 0.3 0.1 0.2
v -0.3 0.3 0.4
v -0.1 0.3 0.4
v -0.3 0.3 0.3
v -0.1 0.3 0.3
v -0.3 0.4 0.5
v -0.1 0.4 0.5
v -0.3 0.4 0.4
v -0.1 0.4 0.4
v 0.3 0.7 0.4
v 0.5 0.7 0.4
v 0.3 0.7 0.3
v -0.5 0.7 0.2
v -0.3 0.7 0.2
v 0.3 0.7 0.2
v 0.5 0.7 0.2
v -0.5 0.7 0
v -0.3 0.7 0
v 0.3 0.7 0
v 0.5 0.7 0
v -0.6 1.5 0.5
v -0.5 1.5 0.5
v 0.5 1.5 0.5
v 0.6 1.5 0.5
v -0.6 1.5 -0.3
v -0.5 1.5 -0.3
v 0.5 1.5 -0.3
v 0.6 1.5 -0.3
v -0.5 1.5 -0.4
v 0.5 1.5 -0.4
v -0.5 1.6 0.5
v 0.5 1.6 0.5
v -0.5 1.6 -0.3
v 0.5 1.6 -0.3

# faces
f 3/6/1 2/6/1 1/6/1
f 4/6/1 2/6/1 3/6/1
f 7/3/1 6/3/1 5/3/1
f 8/3/1 6/3/1 7/3/1
f 9/5/1 8/5/1 7/5/1
f 10/5/1 8/5/1 9/5/1
f 14/6/1 13/6/1 12/6/1
f 16/3/1 12/3/1 11/3/1
f 17/6/1 15/6/1 14/6/1
f 17/3/1 12/3/1 16/3/1
f 17/6/1 14/6/1 12/6/1
f 18/6/1 15/6/1 17/6/1
f 20/6/1 15/6/1 18/6/1
f 21/6/1 15/6/1 20/6/1
f 22/6/1 20/6/1 19/6/1
f 23/6/1 20/6/1 22/6/1
f 27/3/1 25/3/1 24/3/1
f 28/6/1 26/6/1 25/6/1
f 28/3/1 25/3/1 27/3/1
f 29/6/1 26/6/1 28/6/1
f 34/10/1 31/10/1 30/10/1
f 34/5/1 32/5/1 31/5/1
f 35/7/1 33/7/1 32/7/1
f 35/5/1 32/5/1 34/5/1
f 36/10/1 34/10/1 30/10/1
f 37/8/1 35/8/1 34/8/1
f 37/10/1 34/10/1 36/10/1
f 38/7/1 33/7/1 35/7/1
f 38/8/1 35/8/1 37/8/1
f 39/7/1 33/7/1 38/7/1
f 40/7/1 33/7/1 39/7/1
f 43/9/1 37/9/1 36/9/1
f 44/9/1 37/9/1 43/9/1
f 45/5/1 39/5/1 38/5/1
f 46/5/1 42/5/1 41/5/1
f 47/5/1 45/5/1 38/5/1
f 48/5/1 42/5/1 46/5/1
f 49/5/1 47/5/1 38/5/1
f 49/5/1 48/5/1 47/5/1
f 50/5/1 42/5/1 48/5/1
f 50/5/1 48/5/1 49/5/1
f 54/1/1 52/1/1 51/1/1
f 55/10/1 53/10/1 52/10/1
f 55/1/1 52/1/1 54/1/1
f 56/10/1 53/10/1 55/10/1
f 57/2/1 56/2/1 55/2/1
f 58/10/1 53/10/1 56/10/1
f 58/2/1 56/2/1 57/2/1
f 59/10/1 53/10/1 58/10/1
f 60/7/1 58/7/1 57/7/1
f 60/7/1 59/7/1 58/7/1
f 61/7/1 59/7/1 60/7/1
f 64/3/1 63/3/1 62/3/1
f 65/3/1 63/3/1 64/3/1
f 68/6/1 67/6/1 66/6/1
f 69/6/1 67/6/1 68/6/1
f 70/6/2 71/6/2 72/6/2
f 72/6/2 71/6/2 73/6/2
f 74/10/2 75/10/2 77/10/2
f 75/7/2 76/7/2 78/7/2
f 77/10/2 75/10/2 78/10/2
f 74/10/2 77/10/2 79/10/2
f 77/8/2 78/8/2 80/8/2
f 79/10/2 77/10/2 80/10/2
f 78/7/2 76/7/2 81/7/2
f 80/8/2 78/8/2 81/8/2
f 81/7/2 76/7/2 82/7/2
f 79/9/2 80/9/2 83/9/2
f 83/9/2 80/9/2 84/9/2
f 85/1/2 86/1/2 88/1/2
f 86/10/2 87/10/2 89/10/2
f 88/1/2 86/1/2 89/1/2
f 89/10/2 87/10/2 90/10/2
f 89/2/2 90/2/2 91/2/2
f 90/10/2 87/10/2 92/10/2
f 91/2/2 90/2/2 92/2/2
f 92/10/2 87/10/2 93/10/2
f 91/7/2 92/7/2 95/7/2
f 92/7/2 93/7/2 95/7/2
f 95/7/2 93/7/2 96/7/2
f 95/5/2 96/5/2 98/5/2
f 96/5/2 97/5/2 98/5/2
f 94/5/2 95/5/2 98/5/2
f 98/5/2 97/5/2 99/5/2
f 99/5/2 97/5/2 100/5/2
f 100/5/2 97/5/2 103/5/2
f 101/5/2 102/5/2 104/5/2
f 102/5/2 103/5/2 104/5/2
f 103/5/2 97/5/2 105/5/2
f 104/5/2 103/5/2 105/5/2
f 105/6/2 106/6/2 107/6/2
f 107/6/2 106/6/2 108/6/2
f 109/3/2 110/3/2 111/3/2
f 111/3/2 110/3/2 112/3/2
f 113/3/2 114/3/2 116/3/2
f 114/5/2 115/5/2 117/5/2
f 116/3/2 114/3/2 117/3/2
f 117/5/2 115/5/2 118/5/2
f 120/6/2 121/6/2 122/6/2
f 119/3/2 120/3/2 124/3/2
f 122/6/2 123/6/2 125/6/2
f 124/3/2 120/3/2 125/3/2
f 120/6/2 122/6/2 125/6/2
f 125/6/2 123/6/2 126/6/2
f 126/6/2 123/6/2 128/6/2
f 128/6/2 123/6/2 129/6/2
f 127/6/2 128/6/2 130/6/2
f 130/6/2 128/6/2 131/6/2
f 132/6/2 133/6/2 134/6/2
f 134/6/2 133/6/2 135/6/2
f 138/6/3 137/6/3 136/6/3
f 140/6/3 138/6/3 136/6/3
f 140/6/3 139/6/3 138/6/3
f 141/6/3 139/6/3 140/6/3
f 145/10/3 143/10/3 142/10/3
f 146/9/3 144/9/3 143/9/3
f 146/10/3 143/10/3 145/10/3
f 147/9/3 144/9/3 146/9/3
f 149/6/3 139/6/3 141/6/3
f 150/6/3 139/6/3 149/6/3
f 150/6/3 149/6/3 148/6/3
f 151/6/3 139/6/3 150/6/3
f 152/6/3 150/6/3 148/6/3
f 153/6/3 150/6/3 152/6/3
f 157/3/3 155/3/3 154/3/3
f 158/3/3 155/3/3 157/3/3
f 160/3/3 157/3/3 156/3/3
f 160/3/3 159/3/3 158/3/3
f 160/3/3 158/3/3 157/3/3
f 161/3/3 159/3/3 160/3/3
f 162/3/3 160/3/3 156/3/3
f 162/9/3 161/9/3 160/9/3
f 163/3/3 159/3/3 161/3/3
f 163/9/3 161/9/3 162/9/3
f 164/3/3 162/3/3 156/3/3
f 165/3/3 162/3/3 164/3/3
f 166/10/3 163/10/3 162/10/3
f 166/3/3 162/3/3 165/3/3
f 167/3/3 159/3/3 163/3/3
f 167/10/3 163/10/3 166/10/3
f 168/4/3 165/4/3 164/4/3
f 168/3/3 164/3/3 156/3/3
f 169/3/3 166/3/3 165/3/3
f 169/4/3 165/4/3 168/4/3
f 169/3/3 167/3/3 166/3/3
f 170/3/3 167/3/3 169/3/3
f 171/3/3 159/3/3 167/3/3
f 171/3/3 167/3/3 170/3/3
f 172/3/3 170/3/3 169/3/3
f 172/3/3 169/3/3 168/3/3
f 172/10/3 171/10/3 170/10/3
f 173/3/3 159/3/3 171/3/3
f 173/10/3 171/10/3 172/10/3
f 176/3/3 172/3/3 168/3/3
f 176/9/3 173/9/3 172/9/3
f 177/3/3 159/3/3 173/3/3
f 177/9/3 173/9/3 176/9/3
f 178/3/3 168/3/3 156/3/3
f 178/3/3 176/3/3 168/3/3
f 178/3/3 177/3/3 176/3/3
f 179/3/3 177/3/3 178/3/3
f 180/3/3 159/3/3 177/3/3
f 180/3/3 177/3/3 179/3/3
f 181/3/3 159/3/3 180/3/3
f 182/3/3 175/3/3 174/3/3
f 183/3/3 175/3/3 182/3/3
f 184/3/3 180/3/3 179/3/3
f 185/3/3 180/3/3 184/3/3
f 188/5/3 187/5/3 186/5/3
f 189/5/3 187/5/3 188/5/3
f 190/5/3 187/5/3 189/5/3
f 193/5/3 189/5/3 188/5/3
f 193/3/3 190/3/3 189/3/3
f 194/3/3 190/3/3 193/3/3
f 195/1/3 192/1/3 191/1/3
f 196/1/3 192/1/3 195/1/3
f 197/5/3 193/5/3 188/5/3
f 197/5/3 194/5/3 193/5/3
f 198/5/3 194/5/3 197/5/3
f 199/5/3 194/5/3 198/5/3
f 200/5/3 194/5/3 199/5/3
f 204/3/3 202/3/3 201/3/3
f 205/5/3 203/5/3 202/5/3
f 205/3/3 202/3/3 204/3/3
f 206/5/3 203/5/3 205/5/3
f 210/2/3 208/2/3 207/2/3
f 211/7/3 209/7/3 208/7/3
f 211/2/3 208/2/3 210/2/3
f 212/7/3 209/7/3 211/7/3
f 213/9/4 214/9/4 215/9/4
f 215/9/4 214/9/4 216/9/4
f 217/7/4 218/7/4 219/7/4
f 219/7/4 218/7/4 220/7/4
f 221/3/4 222/3/4 224/3/4
f 222/5/4 223/5/4 225/5/4
f 224/3/4 222/3/4 225/3/4
f 225/5/4 223/5/4 226/5/4
f 227/10/4 228/10/4 230/10/4
f 228/7/4 229/7/4 231/7/4
f 230/10/4 228/10/4 231/10/4
f 231/7/4 229/7/4 232/7/4
f 233/5/4 234/5/4 235/5/4
f 235/5/4 234/5/4 236/5/4
f 237/5/4 238/5/4 239/5/4
f 239/5/4 238/5/4 240/5/4
f 240/3/4 241/3/4 242/3/4
f 242/3/4 241/3/4 243/3/4
f 244/6/4 245/6/4 246/6/4
f 246/6/4 245/6/4 247/6/4
f 248/6/4 249/6/4 252/6/4
f 252/6/4 249/6/4 253/6/4
f 250/6/4 251/6/4 255/6/4
f 255/6/4 251/6/4 256/6/4
f 253/6/4 254/6/4 258/6/4
f 258/6/4 254/6/4 259/6/4
f 257/6/4 258/6/4 260/6/4
f 260/6/4 258/6/4 261/6/4
f 262/6/4 263/6/4 264/6/4
f 264/6/4 263/6/4 265/6/4
f 268/1/5 267/1/5 266/1/5
f 269/1/5 267/1/5 268/1/5
f 270/10/5 269/10/5 268/10/5
f 271/10/5 269/10/5 270/10/5
f 274/10/5 273/10/5 272/10/5
f 275/10/5 273/10/5 274/10/5
f 276/5/5 275/5/5 274/5/5
f 277/10/5 273/10/5 275/10/5
f 277/5/5 275/5/5 276/5/5
f 278/10/5 273/10/5 277/10/5
f 279/7/5 277/7/5 276/7/5
f 279/7/5 278/7/5 277/7/5
f 280/7/5 278/7/5 279/7/5
f 285/5/5 282/5/5 281/5/5
f 286/5/5 282/5/5 285/5/5
f 287/3/5 284/3/5 283/3/5
f 288/5/5 285/5/5 281/5/5
f 289/3/5 287/3/5 283/3/5
f 290/5/5 288/5/5 287/5/5
f 290/3/5 287/3/5 289/3/5
f 291/5/5 285/5/5 288/5/5
f 291/5/5 288/5/5 290/5/5
f 293/5/5 292/5/5 291/5/5
f 293/5/5 291/5/5 290/5/5
f 294/5/5 292/5/5 293/5/5
f 297/3/5 296/3/5 295/3/5
f 298/3/5 296/3/5 297/3/5
f 299/3/5 296/3/5 298/3/5
f 300/5/5 299/5/5 298/5/5
f 301/5/5 299/5/5 300/5/5
f 304/3/5 303/3/5 302/3/5
f 305/3/5 303/3/5 304/3/5
f 306/3/5 303/3/5 305/3/5
f 307/3/5 303/3/5 306/3/5
f 308/3/5 304/3/5 302/3/5
f 309/3/5 304/3/5 308/3/5
f 310/3/5 303/3/5 307/3/5
f 311/3/5 303/3/5 310/3/5
f 312/6/5 309/6/5 308/6/5
f 312/6/5 310/6/5 309/6/5
f 313/6/5 310/6/5 312/6/5
f 318/3/5 315/3/5 314/3/5
f 319/3/5 315/3/5 318/3/5
f 321/3/5 317/3/5 316/3/5
f 322/3/5 317/3/5 321/3/5
f 323/6/5 319/6/5 318/6/5
f 324/6/5 321/6/5 320/6/5
f 324/6/5 322/6/5 321/6/5
f 325/6/5 323/6/5 318/6/5
f 325/6/5 324/6/5 323/6/5
f 326/6/5 322/6/5 324/6/5
f 326/6/5 324/6/5 325/6/5
f 329/6/5 328/6/5 327/6/5
f 330/6/5 328/6/5 329/6/5
f 335/6/5 332/6/5 331/6/5
f 336/6/5 332/6/5 335/6/5
f 337/6/5 334/6/5 333/6/5
f 338/6/5 334/6/5 337/6/5
f 339/6/5 335/6/5 331/6/5
f 340/6/5 334/6/5 338/6/5
f 341/6/5 339/6/5 331/6/5
f 342/6/5 339/6/5 341/6/5
f 343/6/5 334/6/5 340/6/5
f 344/6/5 334/6/5 343/6/5
f 347/6/5 346/6/5 345/6/5
f 348/6/5 346/6/5 347/6/5
f 349/1/6 350/1/6 351/1/6
f 351/1/6 350/1/6 352/1/6
f 353/8/6 354/8/6 355/8/6
f 355/8/6 354/8/6 356/8/6
f 357/9/6 358/9/6 359/9/6
f 359/9/6 358/9/6 360/9/6
f 361/3/6 362/3/6 363/3/6
f 363/3/6 362/3/6 366/3/6
f 366/3/6 362/3/6 367/3/6
f 364/5/6 365/5/6 368/5/6
f 368/5/6 365/5/6 369/5/6
f 366/5/6 367/5/6 370/5/6
f 370/5/6 367/5/6 371/5/6
f 372/6/6 373/6/6 376/6/6
f 376/6/6 373/6/6 377/6/6
f 374/6/6 375/6/6 378/6/6
f 378/6/6 375/6/6 379/6/6
f 377/6/6 378/6/6 380/6/6
f 380/6/6 378/6/6 381/6/6
f 382/6/6 383/6/6 384/6/6
f 384/6/6 383/6/6 385/6/6
