# MagicaVoxel @ Ephtracy

# group
o 

# material
mtllib Chemicalman.vox.mtl
usemtl palette

# normals
vn -1 0 0
vn 1 0 0
vn 0 0 1
vn 0 0 -1
vn 0 -1 0
vn 0 1 0

# texcoords
vt 0.0839844 0.5
vt 0.0996094 0.5
vt 0.287109 0.5
vt 0.291016 0.5
vt 0.310547 0.5
vt 0.349609 0.5
vt 0.365234 0.5
vt 0.583984 0.5
vt 0.732422 0.5
vt 0.748047 0.5
vt 0.939453 0.5
vt 0.951172 0.5
vt 0.958984 0.5
vt 0.986328 0.5
vt 0.994141 0.5

# verts
v -0.7 1.3 -0.1
v -0.7 1.3 -0.3
v -0.7 1.4 0
v -0.7 1.4 -0.1
v -0.7 1.4 -0.3
v -0.7 1.5 0
v -0.7 1.5 -0.1
v -0.6 0.3 0.1
v -0.6 0.3 -0.1
v -0.6 0.5 0.1
v -0.6 0.5 -0.1
v -0.6 0.7 0.1
v -0.6 0.7 -0.1
v -0.6 1.2 -0.2
v -0.6 1.2 -0.4
v -0.6 1.3 0.4
v -0.6 1.3 -0.1
v -0.6 1.3 -0.2
v -0.6 1.3 -0.3
v -0.6 1.3 -0.4
v -0.6 1.4 0
v -0.6 1.4 -0.1
v -0.6 1.4 -0.3
v -0.6 1.5 0.4
v -0.6 1.5 0.2
v -0.6 1.5 0
v -0.6 1.5 -0.1
v -0.6 1.5 -0.3
v -0.6 1.6 0.2
v -0.6 1.6 0
v -0.5 0.9 0.3
v -0.5 0.9 0
v -0.5 0.9 -0.4
v -0.5 1.2 -0.2
v -0.5 1.2 -0.4
v -0.5 1.2 -0.5
v -0.5 1.3 0.3
v -0.5 1.3 0
v -0.5 1.3 -0.2
v -0.5 1.3 -0.3
v -0.5 1.3 -0.4
v -0.5 1.3 -0.5
v -0.5 1.5 0.5
v -0.5 1.5 0.4
v -0.5 1.5 0.2
v -0.5 1.5 0
v -0.5 1.5 -0.3
v -0.5 1.5 -0.4
v -0.5 1.6 0.5
v -0.5 1.6 0.4
v -0.5 1.6 0.3
v -0.5 1.6 0.2
v -0.5 1.6 0
v -0.5 1.6 -0.3
v -0.5 1.7 0.4
v -0.5 1.7 0.3
v -0.5 1.7 0.2
v -0.4 0.2 0.2
v -0.4 0.2 -0.2
v -0.4 0.3 0.1
v -0.4 0.3 -0.1
v -0.4 0.5 0.3
v -0.4 0.5 0.2
v -0.4 0.5 0.1
v -0.4 0.5 -0.1
v -0.4 0.6 0.3
v -0.4 0.6 0.2
v -0.4 0.7 0.3
v -0.4 0.7 0.2
v -0.4 0.7 0.1
v -0.4 0.7 -0.1
v -0.4 0.8 0.3
v -0.4 0.8 0.2
v -0.4 0.8 0
v -0.4 0.8 -0.2
v -0.4 0.9 0.3
v -0.4 0.9 0
v -0.4 0.9 -0.2
v -0.4 1.1 -0.4
v -0.4 1.1 -0.5
v -0.4 1.2 -0.4
v -0.4 1.2 -0.5
v -0.4 1.4 0.5
v -0.4 1.4 0.4
v -0.4 1.5 0.5
v -0.4 1.5 0.4
v -0.4 1.6 0.2
v -0.4 1.6 -0.2
v -0.4 1.7 0.3
v -0.4 1.7 0.2
v -0.4 1.7 -0.2
v -0.4 1.8 0.3
v -0.4 1.8 0.2
v -0.3 0 0.2
v -0.3 0 -0.1
v -0.3 0.1 0.2
v -0.3 0.1 0.1
v -0.3 0.2 0.1
v -0.3 0.2 -0.1
v -0.3 0.2 -0.2
v -0.3 0.2 -0.3
v -0.3 0.4 0.3
v -0.3 0.4 0.2
v -0.3 0.5 0.3
v -0.3 0.5 0.2
v -0.3 0.8 -0.2
v -0.3 0.8 -0.3
v -0.3 0.9 -0.2
v -0.3 0.9 -0.3
v -0.2 0.1 -0.2
v -0.2 0.1 -0.3
v -0.2 0.2 -0.2
v -0.2 0.2 -0.3
v -0.2 1 -0.4
v -0.2 1 -0.5
v -0.2 1.1 -0.4
v -0.2 1.1 -0.5
v 0.1 0 0.2
v 0.1 0 -0.1
v 0.1 0.1 0.2
v 0.1 0.1 0.1
v 0.1 0.2 0.1
v 0.1 0.2 -0.1
v 0.1 0.3 0.1
v 0.1 0.3 -0.1
v 0.1 1.5 0.5
v 0.1 1.5 0.4
v 0.1 1.6 0.5
v 0.1 1.6 0.4
v 0.2 1.1 -0.4
v 0.2 1.1 -0.5
v 0.2 1.2 -0.4
v 0.2 1.2 -0.5
v 0.2 1.4 0.5
v 0.2 1.4 0.4
v 0.2 1.5 0.5
v 0.2 1.5 0.4
v 0.2 1.7 0.3
v 0.2 1.7 0.2
v 0.2 1.8 0.3
v 0.2 1.8 0.2
v 0.3 0.2 0.2
v 0.3 0.2 0.1
v 0.3 0.2 -0.1
v 0.3 0.2 -0.2
v 0.3 0.3 0.2
v 0.3 0.3 0.1
v 0.3 0.3 -0.1
v 0.3 0.3 -0.2
v 0.4 1.2 -0.4
v 0.4 1.2 -0.5
v 0.4 1.3 0.4
v 0.4 1.3 0.3
v 0.4 1.3 -0.4
v 0.4 1.3 -0.5
v 0.4 1.4 0.4
v 0.4 1.4 0.3
v -0.4 1.2 -0.4
v -0.4 1.2 -0.5
v -0.4 1.3 0.4
v -0.4 1.3 0.3
v -0.4 1.3 -0.4
v -0.4 1.3 -0.5
v -0.4 1.4 0.4
v -0.4 1.4 0.3
v -0.3 0.2 0.2
v -0.3 0.2 0.1
v -0.3 0.2 -0.1
v -0.3 0.2 -0.2
v -0.3 0.3 0.2
v -0.3 0.3 0.1
v -0.3 0.3 -0.1
v -0.3 0.3 -0.2
v -0.2 0.4 0.3
v -0.2 0.4 0.2
v -0.2 0.5 0.3
v -0.2 0.5 0.2
v -0.2 0.6 0.3
v -0.2 0.6 0.2
v -0.2 0.7 0.3
v -0.2 0.7 0.2
v -0.2 1.1 -0.4
v -0.2 1.1 -0.5
v -0.2 1.2 -0.4
v -0.2 1.2 -0.5
v -0.2 1.4 0.5
v -0.2 1.4 0.4
v -0.2 1.5 0.5
v -0.2 1.5 0.4
v -0.2 1.7 0.3
v -0.2 1.7 0.2
v -0.2 1.8 0.3
v -0.2 1.8 0.2
v -0.1 0 0.2
v -0.1 0 -0.1
v -0.1 0.1 0.2
v -0.1 0.1 0.1
v -0.1 0.2 0.1
v -0.1 0.2 -0.1
v -0.1 0.3 0.1
v -0.1 0.3 -0.1
v -0.1 0.5 0.3
v -0.1 0.5 0.2
v -0.1 0.6 0.3
v -0.1 0.6 0.2
v -0.1 1.5 0.5
v -0.1 1.5 0.4
v -0.1 1.6 0.5
v -0.1 1.6 0.4
v 0.2 0.1 -0.2
v 0.2 0.1 -0.3
v 0.2 0.2 -0.2
v 0.2 0.2 -0.3
v 0.2 1 -0.4
v 0.2 1 -0.5
v 0.2 1.1 -0.4
v 0.2 1.1 -0.5
v 0.3 0 0.2
v 0.3 0 -0.1
v 0.3 0.1 0.2
v 0.3 0.1 0.1
v 0.3 0.2 0.1
v 0.3 0.2 -0.1
v 0.3 0.2 -0.2
v 0.3 0.2 -0.3
v 0.3 0.8 -0.2
v 0.3 0.8 -0.3
v 0.3 0.9 -0.2
v 0.3 0.9 -0.3
v 0.4 0.2 0.2
v 0.4 0.2 -0.2
v 0.4 0.3 0.1
v 0.4 0.3 -0.1
v 0.4 0.5 0.1
v 0.4 0.5 -0.1
v 0.4 0.7 0.1
v 0.4 0.7 -0.1
v 0.4 0.8 0.3
v 0.4 0.8 0.2
v 0.4 0.8 0
v 0.4 0.8 -0.2
v 0.4 0.9 0.3
v 0.4 0.9 0
v 0.4 0.9 -0.2
v 0.4 1.1 -0.4
v 0.4 1.1 -0.5
v 0.4 1.2 -0.4
v 0.4 1.2 -0.5
v 0.4 1.4 0.5
v 0.4 1.4 0.4
v 0.4 1.5 0.5
v 0.4 1.5 0.4
v 0.4 1.6 0.2
v 0.4 1.6 -0.2
v 0.4 1.7 0.3
v 0.4 1.7 0.2
v 0.4 1.7 -0.2
v 0.4 1.8 0.3
v 0.4 1.8 0.2
v 0.5 0.9 0.3
v 0.5 0.9 0
v 0.5 0.9 -0.4
v 0.5 1.2 -0.3
v 0.5 1.2 -0.4
v 0.5 1.2 -0.5
v 0.5 1.3 0.3
v 0.5 1.3 0
v 0.5 1.3 -0.3
v 0.5 1.3 -0.4
v 0.5 1.3 -0.5
v 0.5 1.5 0.5
v 0.5 1.5 0.4
v 0.5 1.5 0.2
v 0.5 1.5 0
v 0.5 1.5 -0.3
v 0.5 1.5 -0.4
v 0.5 1.6 0.5
v 0.5 1.6 0.4
v 0.5 1.6 0.3
v 0.5 1.6 0.2
v 0.5 1.6 0
v 0.5 1.6 -0.3
v 0.5 1.7 0.4
v 0.5 1.7 0.3
v 0.5 1.7 0.2
v 0.6 0.3 0.1
v 0.6 0.3 -0.1
v 0.6 0.5 0.1
v 0.6 0.5 -0.1
v 0.6 0.7 0.1
v 0.6 0.7 -0.1
v 0.6 1.2 -0.3
v 0.6 1.2 -0.4
v 0.6 1.3 0.4
v 0.6 1.3 -0.1
v 0.6 1.3 -0.3
v 0.6 1.3 -0.4
v 0.6 1.4 0
v 0.6 1.4 -0.1
v 0.6 1.4 -0.3
v 0.6 1.5 0.4
v 0.6 1.5 0.2
v 0.6 1.5 0
v 0.6 1.5 -0.1
v 0.6 1.5 -0.3
v 0.6 1.6 0.2
v 0.6 1.6 0
v 0.7 1.3 -0.1
v 0.7 1.3 -0.3
v 0.7 1.4 0
v 0.7 1.4 -0.1
v 0.7 1.4 -0.3
v 0.7 1.5 0
v 0.7 1.5 -0.1
v -0.5 1.5 0.5
v -0.5 1.6 0.5
v -0.4 1.4 0.5
v -0.4 1.5 0.5
v -0.4 1.6 0.5
v -0.2 1.4 0.5
v -0.2 1.5 0.5
v -0.2 1.6 0.5
v -0.1 1.5 0.5
v -0.1 1.6 0.5
v 0.1 1.5 0.5
v 0.1 1.6 0.5
v 0.2 1.4 0.5
v 0.2 1.5 0.5
v 0.2 1.6 0.5
v 0.4 1.4 0.5
v 0.4 1.5 0.5
v 0.4 1.6 0.5
v 0.5 1.5 0.5
v 0.5 1.6 0.5
v -0.6 1.3 0.4
v -0.6 1.5 0.4
v -0.5 1.5 0.4
v -0.5 1.6 0.4
v -0.5 1.7 0.4
v -0.4 1.3 0.4
v -0.4 1.4 0.4
v -0.4 1.5 0.4
v -0.4 1.6 0.4
v -0.4 1.7 0.4
v -0.2 1.4 0.4
v -0.2 1.5 0.4
v -0.2 1.6 0.4
v -0.2 1.7 0.4
v -0.1 1.5 0.4
v -0.1 1.6 0.4
v 0.1 1.5 0.4
v 0.1 1.6 0.4
v 0.2 1.4 0.4
v 0.2 1.5 0.4
v 0.2 1.6 0.4
v 0.2 1.7 0.4
v 0.4 1.3 0.4
v 0.4 1.4 0.4
v 0.4 1.5 0.4
v 0.4 1.6 0.4
v 0.4 1.7 0.4
v 0.5 1.5 0.4
v 0.5 1.6 0.4
v 0.5 1.7 0.4
v 0.6 1.3 0.4
v 0.6 1.5 0.4
v -0.5 0.9 0.3
v -0.5 1.3 0.3
v -0.4 0.5 0.3
v -0.4 0.6 0.3
v -0.4 0.7 0.3
v -0.4 0.8 0.3
v -0.4 0.9 0.3
v -0.4 1.3 0.3
v -0.4 1.4 0.3
v -0.4 1.7 0.3
v -0.4 1.8 0.3
v -0.3 0.4 0.3
v -0.3 0.5 0.3
v -0.3 0.6 0.3
v -0.3 0.7 0.3
v -0.3 1.1 0.3
v -0.3 1.3 0.3
v -0.2 0.4 0.3
v -0.2 0.5 0.3
v -0.2 0.6 0.3
v -0.2 0.7 0.3
v -0.2 1.1 0.3
v -0.2 1.3 0.3
v -0.2 1.7 0.3
v -0.2 1.8 0.3
v -0.1 0.5 0.3
v -0.1 0.6 0.3
v -0.1 0.9 0.3
v -0.1 1 0.3
v -0.1 1.1 0.3
v -0.1 1.3 0.3
v 0.1 0.9 0.3
v 0.1 1 0.3
v 0.1 1.1 0.3
v 0.1 1.3 0.3
v 0.2 1.1 0.3
v 0.2 1.3 0.3
v 0.2 1.7 0.3
v 0.2 1.8 0.3
v 0.3 1.1 0.3
v 0.3 1.3 0.3
v 0.4 0.8 0.3
v 0.4 0.9 0.3
v 0.4 1.3 0.3
v 0.4 1.4 0.3
v 0.4 1.7 0.3
v 0.4 1.8 0.3
v 0.5 0.9 0.3
v 0.5 1.3 0.3
v -0.6 1.5 0.2
v -0.6 1.6 0.2
v -0.5 1.5 0.2
v -0.5 1.6 0.2
v -0.4 0.2 0.2
v -0.4 0.5 0.2
v -0.4 0.7 0.2
v -0.4 0.8 0.2
v -0.3 0 0.2
v -0.3 0.1 0.2
v -0.3 0.2 0.2
v -0.3 0.3 0.2
v -0.3 0.4 0.2
v -0.3 0.5 0.2
v -0.3 0.7 0.2
v -0.2 0.4 0.2
v -0.2 0.5 0.2
v -0.2 0.6 0.2
v -0.2 0.7 0.2
v -0.2 0.8 0.2
v -0.1 0 0.2
v -0.1 0.1 0.2
v -0.1 0.3 0.2
v -0.1 0.4 0.2
v -0.1 0.5 0.2
v -0.1 0.6 0.2
v -0.1 0.7 0.2
v -0.1 0.8 0.2
v 0.1 0 0.2
v 0.1 0.1 0.2
v 0.1 0.3 0.2
v 0.1 0.4 0.2
v 0.1 0.7 0.2
v 0.1 0.8 0.2
v 0.2 0.7 0.2
v 0.2 0.8 0.2
v 0.3 0 0.2
v 0.3 0.1 0.2
v 0.3 0.2 0.2
v 0.3 0.3 0.2
v 0.4 0.2 0.2
v 0.4 0.8 0.2
v 0.5 1.5 0.2
v 0.5 1.6 0.2
v 0.6 1.5 0.2
v 0.6 1.6 0.2
v -0.6 0.3 0.1
v -0.6 0.5 0.1
v -0.6 0.7 0.1
v -0.4 0.3 0.1
v -0.4 0.5 0.1
v -0.4 0.7 0.1
v -0.3 0.1 0.1
v -0.3 0.2 0.1
v -0.3 0.3 0.1
v -0.1 0.1 0.1
v -0.1 0.2 0.1
v -0.1 0.3 0.1
v 0.1 0.1 0.1
v 0.1 0.2 0.1
v 0.1 0.3 0.1
v 0.3 0.1 0.1
v 0.3 0.2 0.1
v 0.3 0.3 0.1
v 0.4 0.3 0.1
v 0.4 0.5 0.1
v 0.4 0.7 0.1
v 0.6 0.3 0.1
v 0.6 0.5 0.1
v 0.6 0.7 0.1
v -0.7 1.4 0
v -0.7 1.5 0
v -0.6 1.4 0
v -0.6 1.5 0
v 0.6 1.4 0
v 0.6 1.5 0
v 0.7 1.4 0
v 0.7 1.5 0
v -0.7 1.3 -0.1
v -0.7 1.4 -0.1
v -0.6 1.3 -0.1
v -0.6 1.4 -0.1
v 0.6 1.3 -0.1
v 0.6 1.4 -0.1
v 0.7 1.3 -0.1
v 0.7 1.4 -0.1
v -0.6 1.2 -0.2
v -0.6 1.3 -0.2
v -0.5 1.2 -0.2
v -0.5 1.3 -0.2
v -0.3 0.2 -0.2
v -0.3 0.3 -0.2
v -0.2 0.1 -0.2
v -0.2 0.2 -0.2
v 0.2 0.1 -0.2
v 0.2 0.2 -0.2
v 0.3 0.2 -0.2
v 0.3 0.3 -0.2
v 0.5 1.2 -0.3
v 0.5 1.3 -0.3
v 0.6 1.2 -0.3
v 0.6 1.3 -0.3
v -0.5 1.6 0.2
v -0.5 1.7 0.2
v -0.4 1.6 0.2
v -0.4 1.7 0.2
v -0.4 1.8 0.2
v -0.2 1.7 0.2
v -0.2 1.8 0.2
v 0.2 1.7 0.2
v 0.2 1.8 0.2
v 0.4 1.6 0.2
v 0.4 1.7 0.2
v 0.4 1.8 0.2
v 0.5 1.6 0.2
v 0.5 1.7 0.2
v -0.6 1.5 0
v -0.6 1.6 0
v -0.5 1.5 0
v -0.5 1.6 0
v 0.5 1.5 0
v 0.5 1.6 0
v 0.6 1.5 0
v 0.6 1.6 0
v -0.7 1.4 -0.1
v -0.7 1.5 -0.1
v -0.6 0.3 -0.1
v -0.6 0.5 -0.1
v -0.6 0.7 -0.1
v -0.6 1.4 -0.1
v -0.6 1.5 -0.1
v -0.4 0.3 -0.1
v -0.4 0.5 -0.1
v -0.4 0.7 -0.1
v -0.3 0 -0.1
v -0.3 0.2 -0.1
v -0.3 0.3 -0.1
v -0.1 0 -0.1
v -0.1 0.2 -0.1
v -0.1 0.3 -0.1
v 0.1 0 -0.1
v 0.1 0.2 -0.1
v 0.1 0.3 -0.1
v 0.3 0 -0.1
v 0.3 0.2 -0.1
v 0.3 0.3 -0.1
v 0.4 0.3 -0.1
v 0.4 0.5 -0.1
v 0.4 0.7 -0.1
v 0.6 0.3 -0.1
v 0.6 0.5 -0.1
v 0.6 0.7 -0.1
v 0.6 1.4 -0.1
v 0.6 1.5 -0.1
v 0.7 1.4 -0.1
v 0.7 1.5 -0.1
v -0.4 0.2 -0.2
v -0.4 0.8 -0.2
v -0.4 0.9 -0.2
v -0.4 1.6 -0.2
v -0.4 1.7 -0.2
v -0.3 0.2 -0.2
v -0.3 0.8 -0.2
v -0.3 0.9 -0.2
v 0.3 0.2 -0.2
v 0.3 0.8 -0.2
v 0.3 0.9 -0.2
v 0.4 0.2 -0.2
v 0.4 0.8 -0.2
v 0.4 0.9 -0.2
v 0.4 1.6 -0.2
v 0.4 1.7 -0.2
v -0.7 1.3 -0.3
v -0.7 1.4 -0.3
v -0.6 1.3 -0.3
v -0.6 1.4 -0.3
v -0.6 1.5 -0.3
v -0.5 1.3 -0.3
v -0.5 1.5 -0.3
v -0.5 1.6 -0.3
v -0.3 0.2 -0.3
v -0.3 0.8 -0.3
v -0.3 0.9 -0.3
v -0.2 0.1 -0.3
v -0.2 0.2 -0.3
v 0.2 0.1 -0.3
v 0.2 0.2 -0.3
v 0.3 0.2 -0.3
v 0.3 0.8 -0.3
v 0.3 0.9 -0.3
v 0.5 1.3 -0.3
v 0.5 1.5 -0.3
v 0.5 1.6 -0.3
v 0.6 1.3 -0.3
v 0.6 1.4 -0.3
v 0.6 1.5 -0.3
v 0.7 1.3 -0.3
v 0.7 1.4 -0.3
v -0.6 1.2 -0.4
v -0.6 1.3 -0.4
v -0.5 0.9 -0.4
v -0.5 1.2 -0.4
v -0.5 1.3 -0.4
v -0.5 1.5 -0.4
v -0.4 1.1 -0.4
v -0.4 1.2 -0.4
v -0.4 1.3 -0.4
v -0.2 1 -0.4
v -0.2 1.1 -0.4
v -0.2 1.2 -0.4
v 0.2 1 -0.4
v 0.2 1.1 -0.4
v 0.2 1.2 -0.4
v 0.4 1.1 -0.4
v 0.4 1.2 -0.4
v 0.4 1.3 -0.4
v 0.5 0.9 -0.4
v 0.5 1.2 -0.4
v 0.5 1.3 -0.4
v 0.5 1.5 -0.4
v 0.6 1.2 -0.4
v 0.6 1.3 -0.4
v -0.5 1.2 -0.5
v -0.5 1.3 -0.5
v -0.4 1.1 -0.5
v -0.4 1.2 -0.5
v -0.4 1.3 -0.5
v -0.2 1 -0.5
v -0.2 1.1 -0.5
v -0.2 1.2 -0.5
v 0.2 1 -0.5
v 0.2 1.1 -0.5
v 0.2 1.2 -0.5
v 0.4 1.1 -0.5
v 0.4 1.2 -0.5
v 0.4 1.3 -0.5
v 0.5 1.2 -0.5
v 0.5 1.3 -0.5
v -0.3 0 0.2
v -0.1 0 0.2
v 0.1 0 0.2
v 0.3 0 0.2
v -0.3 0 -0.1
v -0.1 0 -0.1
v 0.1 0 -0.1
v 0.3 0 -0.1
v -0.2 0.1 -0.2
v 0.2 0.1 -0.2
v -0.2 0.1 -0.3
v 0.2 0.1 -0.3
v -0.4 0.2 0.2
v -0.3 0.2 0.2
v 0.3 0.2 0.2
v 0.4 0.2 0.2
v -0.3 0.2 0.1
v 0.3 0.2 0.1
v -0.3 0.2 -0.1
v 0.3 0.2 -0.1
v -0.4 0.2 -0.2
v -0.3 0.2 -0.2
v -0.2 0.2 -0.2
v 0.2 0.2 -0.2
v 0.3 0.2 -0.2
v 0.4 0.2 -0.2
v -0.3 0.2 -0.3
v -0.2 0.2 -0.3
v 0.2 0.2 -0.3
v 0.3 0.2 -0.3
v -0.3 0.3 0.2
v -0.1 0.3 0.2
v 0.1 0.3 0.2
v 0.3 0.3 0.2
v -0.6 0.3 0.1
v -0.4 0.3 0.1
v -0.3 0.3 0.1
v -0.1 0.3 0.1
v 0.1 0.3 0.1
v 0.3 0.3 0.1
v 0.4 0.3 0.1
v 0.6 0.3 0.1
v -0.6 0.3 -0.1
v -0.4 0.3 -0.1
v -0.3 0.3 -0.1
v -0.1 0.3 -0.1
v 0.1 0.3 -0.1
v 0.3 0.3 -0.1
v 0.4 0.3 -0.1
v 0.6 0.3 -0.1
v -0.3 0.3 -0.2
v 0.3 0.3 -0.2
v -0.3 0.4 0.3
v -0.2 0.4 0.3
v -0.3 0.4 0.2
v -0.2 0.4 0.2
v -0.4 0.5 0.3
v -0.3 0.5 0.3
v -0.2 0.5 0.3
v -0.1 0.5 0.3
v -0.4 0.5 0.2
v -0.3 0.5 0.2
v -0.2 0.5 0.2
v -0.1 0.5 0.2
v -0.4 0.8 0.3
v 0.4 0.8 0.3
v -0.4 0.8 0.2
v -0.2 0.8 0.2
v -0.1 0.8 0.2
v 0.1 0.8 0.2
v 0.2 0.8 0.2
v 0.4 0.8 0.2
v -0.5 0.9 0.3
v -0.4 0.9 0.3
v 0.4 0.9 0.3
v 0.5 0.9 0.3
v -0.5 0.9 0
v -0.4 0.9 0
v 0.4 0.9 0
v 0.5 0.9 0
v -0.4 0.9 -0.2
v -0.3 0.9 -0.2
v 0.3 0.9 -0.2
v 0.4 0.9 -0.2
v -0.3 0.9 -0.3
v 0.3 0.9 -0.3
v -0.5 0.9 -0.4
v 0.5 0.9 -0.4
v -0.2 1 -0.4
v 0.2 1 -0.4
v -0.2 1 -0.5
v 0.2 1 -0.5
v -0.4 1.1 -0.4
v -0.2 1.1 -0.4
v 0.2 1.1 -0.4
v 0.4 1.1 -0.4
v -0.4 1.1 -0.5
v -0.2 1.1 -0.5
v 0.2 1.1 -0.5
v 0.4 1.1 -0.5
v -0.6 1.2 -0.2
v -0.5 1.2 -0.2
v 0.5 1.2 -0.3
v 0.6 1.2 -0.3
v -0.6 1.2 -0.4
v -0.5 1.2 -0.4
v -0.4 1.2 -0.4
v 0.4 1.2 -0.4
v 0.5 1.2 -0.4
v 0.6 1.2 -0.4
v -0.5 1.2 -0.5
v -0.4 1.2 -0.5
v 0.4 1.2 -0.5
v 0.5 1.2 -0.5
v -0.6 1.3 0.4
v -0.4 1.3 0.4
v 0.4 1.3 0.4
v 0.6 1.3 0.4
v -0.5 1.3 0.3
v -0.4 1.3 0.3
v 0.4 1.3 0.3
v 0.5 1.3 0.3
v -0.5 1.3 0
v 0.5 1.3 0
v -0.7 1.3 -0.1
v -0.6 1.3 -0.1
v 0.6 1.3 -0.1
v 0.7 1.3 -0.1
v -0.6 1.3 -0.2
v -0.5 1.3 -0.2
v -0.7 1.3 -0.3
v -0.6 1.3 -0.3
v 0.5 1.3 -0.3
v 0.6 1.3 -0.3
v 0.7 1.3 -0.3
v -0.4 1.4 0.5
v -0.2 1.4 0.5
v 0.2 1.4 0.5
v 0.4 1.4 0.5
v -0.4 1.4 0.4
v -0.2 1.4 0.4
v 0.2 1.4 0.4
v 0.4 1.4 0.4
v -0.4 1.4 0.3
v 0.4 1.4 0.3
v -0.7 1.4 0
v -0.6 1.4 0
v 0.6 1.4 0
v 0.7 1.4 0
v -0.7 1.4 -0.1
v -0.6 1.4 -0.1
v 0.6 1.4 -0.1
v 0.7 1.4 -0.1
v -0.5 1.5 0.5
v -0.4 1.5 0.5
v -0.2 1.5 0.5
v -0.1 1.5 0.5
v 0.1 1.5 0.5
v 0.2 1.5 0.5
v 0.4 1.5 0.5
v 0.5 1.5 0.5
v -0.5 1.5 0.4
v -0.4 1.5 0.4
v -0.2 1.5 0.4
v -0.1 1.5 0.4
v 0.1 1.5 0.4
v 0.2 1.5 0.4
v 0.4 1.5 0.4
v 0.5 1.5 0.4
v -0.3 0.1 0.2
v -0.1 0.1 0.2
v 0.1 0.1 0.2
v 0.3 0.1 0.2
v -0.3 0.1 0.1
v -0.1 0.1 0.1
v 0.1 0.1 0.1
v 0.3 0.1 0.1
v -0.2 0.6 0.3
v -0.1 0.6 0.3
v -0.2 0.6 0.2
v -0.1 0.6 0.2
v -0.4 0.7 0.3
v -0.3 0.7 0.3
v -0.2 0.7 0.3
v -0.4 0.7 0.2
v -0.3 0.7 0.2
v -0.2 0.7 0.2
v -0.6 0.7 0.1
v -0.4 0.7 0.1
v 0.4 0.7 0.1
v 0.6 0.7 0.1
v -0.6 0.7 -0.1
v -0.4 0.7 -0.1
v 0.4 0.7 -0.1
v 0.6 0.7 -0.1
v -0.2 1.1 -0.4
v 0.2 1.1 -0.4
v -0.2 1.1 -0.5
v 0.2 1.1 -0.5
v -0.4 1.2 -0.4
v -0.2 1.2 -0.4
v 0.2 1.2 -0.4
v 0.4 1.2 -0.4
v -0.4 1.2 -0.5
v -0.2 1.2 -0.5
v 0.2 1.2 -0.5
v 0.4 1.2 -0.5
v -0.6 1.3 -0.3
v -0.5 1.3 -0.3
v 0.5 1.3 -0.3
v 0.6 1.3 -0.3
v -0.6 1.3 -0.4
v -0.5 1.3 -0.4
v -0.4 1.3 -0.4
v 0.4 1.3 -0.4
v 0.5 1.3 -0.4
v 0.6 1.3 -0.4
v -0.5 1.3 -0.5
v -0.4 1.3 -0.5
v 0.4 1.3 -0.5
v 0.5 1.3 -0.5
v -0.7 1.4 -0.1
v -0.6 1.4 -0.1
v 0.6 1.4 -0.1
v 0.7 1.4 -0.1
v -0.7 1.4 -0.3
v -0.6 1.4 -0.3
v 0.6 1.4 -0.3
v 0.7 1.4 -0.3
v -0.6 1.5 0.4
v -0.5 1.5 0.4
v 0.5 1.5 0.4
v 0.6 1.5 0.4
v -0.6 1.5 0.2
v -0.5 1.5 0.2
v 0.5 1.5 0.2
v 0.6 1.5 0.2
v -0.7 1.5 0
v -0.6 1.5 0
v -0.5 1.5 0
v 0.5 1.5 0
v 0.6 1.5 0
v 0.7 1.5 0
v -0.7 1.5 -0.1
v -0.6 1.5 -0.1
v 0.6 1.5 -0.1
v 0.7 1.5 -0.1
v -0.6 1.5 -0.3
v -0.5 1.5 -0.3
v 0.5 1.5 -0.3
v 0.6 1.5 -0.3
v -0.5 1.5 -0.4
v 0.5 1.5 -0.4
v -0.5 1.6 0.5
v -0.4 1.6 0.5
v -0.2 1.6 0.5
v -0.1 1.6 0.5
v 0.1 1.6 0.5
v 0.2 1.6 0.5
v 0.4 1.6 0.5
v 0.5 1.6 0.5
v -0.5 1.6 0.4
v -0.4 1.6 0.4
v -0.2 1.6 0.4
v -0.1 1.6 0.4
v 0.1 1.6 0.4
v 0.2 1.6 0.4
v 0.4 1.6 0.4
v 0.5 1.6 0.4
v -0.6 1.6 0.2
v -0.5 1.6 0.2
v -0.4 1.6 0.2
v 0.4 1.6 0.2
v 0.5 1.6 0.2
v 0.6 1.6 0.2
v -0.6 1.6 0
v -0.5 1.6 0
v 0.5 1.6 0
v 0.6 1.6 0
v -0.4 1.6 -0.2
v 0.4 1.6 -0.2
v -0.5 1.6 -0.3
v 0.5 1.6 -0.3
v -0.5 1.7 0.4
v -0.4 1.7 0.4
v -0.2 1.7 0.4
v 0.2 1.7 0.4
v 0.4 1.7 0.4
v 0.5 1.7 0.4
v -0.5 1.7 0.3
v -0.4 1.7 0.3
v -0.2 1.7 0.3
v 0.2 1.7 0.3
v 0.4 1.7 0.3
v 0.5 1.7 0.3
v -0.5 1.7 0.2
v -0.4 1.7 0.2
v -0.2 1.7 0.2
v 0.2 1.7 0.2
v 0.4 1.7 0.2
v 0.5 1.7 0.2
v -0.4 1.7 -0.2
v 0.4 1.7 -0.2
v -0.4 1.8 0.3
v -0.2 1.8 0.3
v 0.2 1.8 0.3
v 0.4 1.8 0.3
v -0.4 1.8 0.2
v -0.2 1.8 0.2
v 0.2 1.8 0.2
v 0.4 1.8 0.2

# faces
f 4/12/1 2/12/1 1/12/1
f 5/12/1 2/12/1 4/12/1
f 6/12/1 4/12/1 3/12/1
f 7/12/1 4/12/1 6/12/1
f 10/7/1 9/7/1 8/7/1
f 11/7/1 9/7/1 10/7/1
f 12/13/1 11/13/1 10/13/1
f 13/13/1 11/13/1 12/13/1
f 18/12/1 15/12/1 14/12/1
f 19/12/1 15/12/1 18/12/1
f 20/12/1 15/12/1 19/12/1
f 21/5/1 17/5/1 16/5/1
f 22/5/1 17/5/1 21/5/1
f 24/5/1 21/5/1 16/5/1
f 25/5/1 21/5/1 24/5/1
f 26/5/1 21/5/1 25/5/1
f 27/5/1 23/5/1 22/5/1
f 28/5/1 23/5/1 27/5/1
f 29/12/1 26/12/1 25/12/1
f 30/12/1 26/12/1 29/12/1
f 34/5/1 33/5/1 32/5/1
f 35/5/1 33/5/1 34/5/1
f 37/6/1 32/6/1 31/6/1
f 38/5/1 34/5/1 32/5/1
f 38/6/1 32/6/1 37/6/1
f 39/5/1 34/5/1 38/5/1
f 41/12/1 36/12/1 35/12/1
f 42/12/1 36/12/1 41/12/1
f 47/5/1 41/5/1 40/5/1
f 48/5/1 41/5/1 47/5/1
f 49/11/1 44/11/1 43/11/1
f 50/5/1 45/5/1 44/5/1
f 50/11/1 44/11/1 49/11/1
f 51/5/1 45/5/1 50/5/1
f 52/5/1 45/5/1 51/5/1
f 53/5/1 47/5/1 46/5/1
f 54/5/1 47/5/1 53/5/1
f 55/11/1 51/11/1 50/11/1
f 56/12/1 52/12/1 51/12/1
f 56/11/1 51/11/1 55/11/1
f 57/12/1 52/12/1 56/12/1
f 60/13/1 59/13/1 58/13/1
f 61/13/1 59/13/1 60/13/1
f 63/13/1 60/13/1 58/13/1
f 64/13/1 60/13/1 63/13/1
f 65/13/1 59/13/1 61/13/1
f 66/13/1 64/13/1 63/13/1
f 66/13/1 63/13/1 62/13/1
f 67/13/1 64/13/1 66/13/1
f 68/8/1 67/8/1 66/8/1
f 69/13/1 64/13/1 67/13/1
f 69/8/1 67/8/1 68/8/1
f 70/13/1 64/13/1 69/13/1
f 71/13/1 59/13/1 65/13/1
f 73/13/1 70/13/1 69/13/1
f 73/13/1 71/13/1 70/13/1
f 74/13/1 71/13/1 73/13/1
f 75/13/1 59/13/1 71/13/1
f 75/13/1 71/13/1 74/13/1
f 76/6/1 74/6/1 73/6/1
f 76/6/1 73/6/1 72/6/1
f 77/5/1 75/5/1 74/5/1
f 77/6/1 74/6/1 76/6/1
f 78/5/1 75/5/1 77/5/1
f 81/12/1 80/12/1 79/12/1
f 82/12/1 80/12/1 81/12/1
f 85/11/1 84/11/1 83/11/1
f 86/11/1 84/11/1 85/11/1
f 90/5/1 88/5/1 87/5/1
f 91/5/1 88/5/1 90/5/1
f 92/11/1 90/11/1 89/11/1
f 93/11/1 90/11/1 92/11/1
f 96/7/1 95/7/1 94/7/1
f 97/7/1 95/7/1 96/7/1
f 98/7/1 95/7/1 97/7/1
f 99/7/1 95/7/1 98/7/1
f 104/13/1 103/13/1 102/13/1
f 105/13/1 103/13/1 104/13/1
f 106/13/1 101/13/1 100/13/1
f 107/13/1 101/13/1 106/13/1
f 108/5/1 107/5/1 106/5/1
f 109/5/1 107/5/1 108/5/1
f 112/13/1 111/13/1 110/13/1
f 113/13/1 111/13/1 112/13/1
f 116/12/1 115/12/1 114/12/1
f 117/12/1 115/12/1 116/12/1
f 120/7/1 119/7/1 118/7/1
f 121/7/1 119/7/1 120/7/1
f 122/7/1 119/7/1 121/7/1
f 123/7/1 119/7/1 122/7/1
f 124/14/1 123/14/1 122/14/1
f 125/14/1 123/14/1 124/14/1
f 128/11/1 127/11/1 126/11/1
f 129/11/1 127/11/1 128/11/1
f 132/12/1 131/12/1 130/12/1
f 133/12/1 131/12/1 132/12/1
f 136/11/1 135/11/1 134/11/1
f 137/11/1 135/11/1 136/11/1
f 140/11/1 139/11/1 138/11/1
f 141/11/1 139/11/1 140/11/1
f 146/13/1 143/13/1 142/13/1
f 147/13/1 143/13/1 146/13/1
f 148/13/1 145/13/1 144/13/1
f 149/13/1 145/13/1 148/13/1
f 154/12/1 151/12/1 150/12/1
f 155/12/1 151/12/1 154/12/1
f 156/5/1 153/5/1 152/5/1
f 157/5/1 153/5/1 156/5/1
f 158/12/2 159/12/2 162/12/2
f 162/12/2 159/12/2 163/12/2
f 160/5/2 161/5/2 164/5/2
f 164/5/2 161/5/2 165/5/2
f 166/13/2 167/13/2 170/13/2
f 170/13/2 167/13/2 171/13/2
f 168/13/2 169/13/2 172/13/2
f 172/13/2 169/13/2 173/13/2
f 174/13/2 175/13/2 176/13/2
f 176/13/2 175/13/2 177/13/2
f 178/2/2 179/2/2 180/2/2
f 180/2/2 179/2/2 181/2/2
f 182/12/2 183/12/2 184/12/2
f 184/12/2 183/12/2 185/12/2
f 186/11/2 187/11/2 188/11/2
f 188/11/2 187/11/2 189/11/2
f 190/11/2 191/11/2 192/11/2
f 192/11/2 191/11/2 193/11/2
f 194/7/2 195/7/2 196/7/2
f 196/7/2 195/7/2 197/7/2
f 197/7/2 195/7/2 198/7/2
f 198/7/2 195/7/2 199/7/2
f 198/14/2 199/14/2 200/14/2
f 200/14/2 199/14/2 201/14/2
f 202/13/2 203/13/2 204/13/2
f 204/13/2 203/13/2 205/13/2
f 206/11/2 207/11/2 208/11/2
f 208/11/2 207/11/2 209/11/2
f 210/13/2 211/13/2 212/13/2
f 212/13/2 211/13/2 213/13/2
f 214/12/2 215/12/2 216/12/2
f 216/12/2 215/12/2 217/12/2
f 218/7/2 219/7/2 220/7/2
f 220/7/2 219/7/2 221/7/2
f 221/7/2 219/7/2 222/7/2
f 222/7/2 219/7/2 223/7/2
f 224/13/2 225/13/2 226/13/2
f 226/13/2 225/13/2 227/13/2
f 226/5/2 227/5/2 228/5/2
f 228/5/2 227/5/2 229/5/2
f 230/13/2 231/13/2 232/13/2
f 232/13/2 231/13/2 233/13/2
f 230/13/2 232/13/2 234/13/2
f 233/13/2 231/13/2 235/13/2
f 230/13/2 234/13/2 236/13/2
f 235/13/2 231/13/2 237/13/2
f 230/13/2 236/13/2 239/13/2
f 236/13/2 237/13/2 239/13/2
f 239/13/2 237/13/2 240/13/2
f 237/13/2 231/13/2 241/13/2
f 240/13/2 237/13/2 241/13/2
f 239/6/2 240/6/2 242/6/2
f 238/6/2 239/6/2 242/6/2
f 240/5/2 241/5/2 243/5/2
f 242/6/2 240/6/2 243/6/2
f 243/5/2 241/5/2 244/5/2
f 245/12/2 246/12/2 247/12/2
f 247/12/2 246/12/2 248/12/2
f 249/11/2 250/11/2 251/11/2
f 251/11/2 250/11/2 252/11/2
f 253/5/2 254/5/2 256/5/2
f 256/5/2 254/5/2 257/5/2
f 255/11/2 256/11/2 258/11/2
f 258/11/2 256/11/2 259/11/2
f 261/5/2 262/5/2 263/5/2
f 263/5/2 262/5/2 264/5/2
f 260/6/2 261/6/2 266/6/2
f 261/5/2 263/5/2 267/5/2
f 266/6/2 261/6/2 267/6/2
f 267/5/2 263/5/2 268/5/2
f 264/12/2 265/12/2 269/12/2
f 269/12/2 265/12/2 270/12/2
f 268/5/2 269/5/2 275/5/2
f 275/5/2 269/5/2 276/5/2
f 271/11/2 272/11/2 277/11/2
f 272/5/2 273/5/2 278/5/2
f 277/11/2 272/11/2 278/11/2
f 278/5/2 273/5/2 279/5/2
f 279/5/2 273/5/2 280/5/2
f 274/5/2 275/5/2 281/5/2
f 281/5/2 275/5/2 282/5/2
f 278/11/2 279/11/2 283/11/2
f 279/12/2 280/12/2 284/12/2
f 283/11/2 279/11/2 284/11/2
f 284/12/2 280/12/2 285/12/2
f 286/7/2 287/7/2 288/7/2
f 288/7/2 287/7/2 289/7/2
f 288/13/2 289/13/2 290/13/2
f 290/13/2 289/13/2 291/13/2
f 292/12/2 293/12/2 296/12/2
f 296/12/2 293/12/2 297/12/2
f 294/5/2 295/5/2 298/5/2
f 298/5/2 295/5/2 299/5/2
f 294/5/2 298/5/2 301/5/2
f 301/5/2 298/5/2 302/5/2
f 302/5/2 298/5/2 303/5/2
f 299/5/2 300/5/2 304/5/2
f 304/5/2 300/5/2 305/5/2
f 302/12/2 303/12/2 306/12/2
f 306/12/2 303/12/2 307/12/2
f 308/12/2 309/12/2 311/12/2
f 311/12/2 309/12/2 312/12/2
f 310/12/2 311/12/2 313/12/2
f 313/12/2 311/12/2 314/12/2
f 318/11/3 316/11/3 315/11/3
f 319/11/3 316/11/3 318/11/3
f 320/11/3 318/11/3 317/11/3
f 321/9/3 319/9/3 318/9/3
f 321/11/3 318/11/3 320/11/3
f 322/9/3 319/9/3 321/9/3
f 323/11/3 322/11/3 321/11/3
f 324/11/3 322/11/3 323/11/3
f 328/11/3 326/11/3 325/11/3
f 329/11/3 326/11/3 328/11/3
f 330/11/3 328/11/3 327/11/3
f 331/9/3 329/9/3 328/9/3
f 331/11/3 328/11/3 330/11/3
f 332/9/3 329/9/3 331/9/3
f 333/11/3 332/11/3 331/11/3
f 334/11/3 332/11/3 333/11/3
f 337/5/3 336/5/3 335/5/3
f 340/5/3 337/5/3 335/5/3
f 341/5/3 337/5/3 340/5/3
f 342/5/3 337/5/3 341/5/3
f 343/11/3 339/11/3 338/11/3
f 344/11/3 339/11/3 343/11/3
f 347/9/3 344/9/3 343/9/3
f 348/9/3 344/9/3 347/9/3
f 349/5/3 346/5/3 345/5/3
f 350/11/3 348/11/3 347/11/3
f 351/5/3 349/5/3 345/5/3
f 351/5/3 350/5/3 349/5/3
f 352/11/3 348/11/3 350/11/3
f 352/5/3 350/5/3 351/5/3
f 353/5/3 351/5/3 345/5/3
f 354/5/3 351/5/3 353/5/3
f 355/11/3 348/11/3 352/11/3
f 356/11/3 348/11/3 355/11/3
f 360/9/3 356/9/3 355/9/3
f 361/9/3 356/9/3 360/9/3
f 362/5/3 359/5/3 358/5/3
f 362/5/3 358/5/3 357/5/3
f 363/11/3 361/11/3 360/11/3
f 364/11/3 361/11/3 363/11/3
f 365/5/3 362/5/3 357/5/3
f 366/5/3 362/5/3 365/5/3
f 373/6/3 368/6/3 367/6/3
f 374/6/3 368/6/3 373/6/3
f 379/13/3 370/13/3 369/13/3
f 380/8/3 371/8/3 370/8/3
f 380/13/3 370/13/3 379/13/3
f 381/8/3 371/8/3 380/8/3
f 382/6/3 373/6/3 372/6/3
f 382/6/3 374/6/3 373/6/3
f 382/6/3 375/6/3 374/6/3
f 383/6/3 375/6/3 382/6/3
f 384/13/3 379/13/3 378/13/3
f 384/13/3 380/13/3 379/13/3
f 385/13/3 380/13/3 384/13/3
f 386/2/3 381/2/3 380/2/3
f 386/13/3 380/13/3 385/13/3
f 387/2/3 381/2/3 386/2/3
f 388/13/3 383/13/3 382/13/3
f 388/6/3 382/6/3 372/6/3
f 389/6/3 375/6/3 383/6/3
f 389/13/3 383/13/3 388/13/3
f 390/11/3 377/11/3 376/11/3
f 391/11/3 377/11/3 390/11/3
f 392/13/3 386/13/3 385/13/3
f 393/13/3 386/13/3 392/13/3
f 394/6/3 388/6/3 372/6/3
f 395/6/3 388/6/3 394/6/3
f 396/15/3 389/15/3 388/15/3
f 396/6/3 388/6/3 395/6/3
f 397/6/3 375/6/3 389/6/3
f 397/15/3 389/15/3 396/15/3
f 398/1/3 395/1/3 394/1/3
f 398/6/3 394/6/3 372/6/3
f 399/6/3 396/6/3 395/6/3
f 399/1/3 395/1/3 398/1/3
f 399/6/3 397/6/3 396/6/3
f 400/6/3 397/6/3 399/6/3
f 401/6/3 375/6/3 397/6/3
f 401/6/3 397/6/3 400/6/3
f 402/6/3 400/6/3 399/6/3
f 402/6/3 399/6/3 398/6/3
f 402/15/3 401/15/3 400/15/3
f 403/6/3 375/6/3 401/6/3
f 403/15/3 401/15/3 402/15/3
f 406/6/3 402/6/3 398/6/3
f 406/13/3 403/13/3 402/13/3
f 407/6/3 375/6/3 403/6/3
f 407/13/3 403/13/3 406/13/3
f 408/6/3 398/6/3 372/6/3
f 408/6/3 406/6/3 398/6/3
f 408/6/3 407/6/3 406/6/3
f 409/6/3 407/6/3 408/6/3
f 410/6/3 375/6/3 407/6/3
f 410/6/3 407/6/3 409/6/3
f 411/6/3 375/6/3 410/6/3
f 412/11/3 405/11/3 404/11/3
f 413/11/3 405/11/3 412/11/3
f 414/6/3 410/6/3 409/6/3
f 415/6/3 410/6/3 414/6/3
f 418/12/3 417/12/3 416/12/3
f 419/12/3 417/12/3 418/12/3
f 426/13/3 421/13/3 420/13/3
f 427/13/3 421/13/3 426/13/3
f 428/13/3 421/13/3 427/13/3
f 429/13/3 421/13/3 428/13/3
f 430/13/3 423/13/3 422/13/3
f 431/13/3 428/13/3 427/13/3
f 434/13/3 423/13/3 430/13/3
f 435/13/3 423/13/3 434/13/3
f 436/7/3 425/7/3 424/7/3
f 437/7/3 425/7/3 436/7/3
f 438/13/3 432/13/3 431/13/3
f 438/13/3 431/13/3 427/13/3
f 439/13/3 432/13/3 438/13/3
f 440/13/3 432/13/3 439/13/3
f 441/13/3 434/13/3 433/13/3
f 442/10/3 435/10/3 434/10/3
f 442/13/3 434/13/3 441/13/3
f 443/10/3 435/10/3 442/10/3
f 446/14/3 439/14/3 438/14/3
f 447/10/3 440/10/3 439/10/3
f 447/14/3 439/14/3 446/14/3
f 447/10/3 441/10/3 440/10/3
f 447/10/3 442/10/3 441/10/3
f 448/6/3 443/6/3 442/6/3
f 448/10/3 442/10/3 447/10/3
f 449/6/3 443/6/3 448/6/3
f 450/13/3 447/13/3 446/13/3
f 450/13/3 448/13/3 447/13/3
f 450/10/3 449/10/3 448/10/3
f 451/10/3 449/10/3 450/10/3
f 452/7/3 445/7/3 444/7/3
f 453/7/3 445/7/3 452/7/3
f 455/13/3 450/13/3 446/13/3
f 455/13/3 451/13/3 450/13/3
f 456/13/3 455/13/3 454/13/3
f 457/13/3 451/13/3 455/13/3
f 457/13/3 455/13/3 456/13/3
f 460/12/3 459/12/3 458/12/3
f 461/12/3 459/12/3 460/12/3
f 465/7/3 463/7/3 462/7/3
f 466/13/3 464/13/3 463/13/3
f 466/7/3 463/7/3 465/7/3
f 467/13/3 464/13/3 466/13/3
f 471/7/3 469/7/3 468/7/3
f 472/14/3 470/14/3 469/14/3
f 472/7/3 469/7/3 471/7/3
f 473/14/3 470/14/3 472/14/3
f 477/7/3 475/7/3 474/7/3
f 478/14/3 476/14/3 475/14/3
f 478/7/3 475/7/3 477/7/3
f 479/14/3 476/14/3 478/14/3
f 483/7/3 481/7/3 480/7/3
f 484/13/3 482/13/3 481/13/3
f 484/7/3 481/7/3 483/7/3
f 485/13/3 482/13/3 484/13/3
f 488/12/3 487/12/3 486/12/3
f 489/12/3 487/12/3 488/12/3
f 492/12/3 491/12/3 490/12/3
f 493/12/3 491/12/3 492/12/3
f 496/12/3 495/12/3 494/12/3
f 497/12/3 495/12/3 496/12/3
f 500/12/3 499/12/3 498/12/3
f 501/12/3 499/12/3 500/12/3
f 504/12/3 503/12/3 502/12/3
f 505/12/3 503/12/3 504/12/3
f 509/13/3 507/13/3 506/13/3
f 510/13/3 509/13/3 508/13/3
f 511/13/3 507/13/3 509/13/3
f 511/13/3 509/13/3 510/13/3
f 512/13/3 507/13/3 511/13/3
f 513/13/3 507/13/3 512/13/3
f 516/12/3 515/12/3 514/12/3
f 517/12/3 515/12/3 516/12/3
f 518/12/4 519/12/4 520/12/4
f 520/12/4 519/12/4 521/12/4
f 521/11/4 522/11/4 523/11/4
f 523/11/4 522/11/4 524/11/4
f 525/11/4 526/11/4 528/11/4
f 528/11/4 526/11/4 529/11/4
f 527/12/4 528/12/4 530/12/4
f 530/12/4 528/12/4 531/12/4
f 532/12/4 533/12/4 534/12/4
f 534/12/4 533/12/4 535/12/4
f 536/12/4 537/12/4 538/12/4
f 538/12/4 537/12/4 539/12/4
f 540/12/4 541/12/4 545/12/4
f 545/12/4 541/12/4 546/12/4
f 542/7/4 543/7/4 547/7/4
f 543/13/4 544/13/4 548/13/4
f 547/7/4 543/7/4 548/7/4
f 548/13/4 544/13/4 549/13/4
f 550/7/4 551/7/4 553/7/4
f 551/14/4 552/14/4 554/14/4
f 553/7/4 551/7/4 554/7/4
f 554/14/4 552/14/4 555/14/4
f 556/7/4 557/7/4 559/7/4
f 557/14/4 558/14/4 560/14/4
f 559/7/4 557/7/4 560/7/4
f 560/14/4 558/14/4 561/14/4
f 562/7/4 563/7/4 565/7/4
f 563/13/4 564/13/4 566/13/4
f 565/7/4 563/7/4 566/7/4
f 566/13/4 564/13/4 567/13/4
f 568/12/4 569/12/4 570/12/4
f 570/12/4 569/12/4 571/12/4
f 572/13/4 573/13/4 577/13/4
f 573/5/4 574/5/4 578/5/4
f 577/13/4 573/13/4 578/13/4
f 578/5/4 574/5/4 579/5/4
f 580/13/4 581/13/4 583/13/4
f 581/5/4 582/5/4 584/5/4
f 583/13/4 581/13/4 584/13/4
f 584/5/4 582/5/4 585/5/4
f 575/5/4 576/5/4 586/5/4
f 586/5/4 576/5/4 587/5/4
f 588/12/4 589/12/4 590/12/4
f 590/12/4 589/12/4 591/12/4
f 590/5/4 591/5/4 593/5/4
f 591/5/4 592/5/4 593/5/4
f 593/5/4 592/5/4 594/5/4
f 596/13/4 597/13/4 600/13/4
f 599/13/4 600/13/4 601/13/4
f 600/13/4 597/13/4 602/13/4
f 601/13/4 600/13/4 602/13/4
f 602/13/4 597/13/4 603/13/4
f 597/5/4 598/5/4 604/5/4
f 603/13/4 597/13/4 604/13/4
f 604/5/4 598/5/4 605/5/4
f 594/5/4 595/5/4 607/5/4
f 607/5/4 595/5/4 608/5/4
f 606/5/4 607/5/4 609/5/4
f 609/5/4 607/5/4 610/5/4
f 610/5/4 607/5/4 611/5/4
f 609/12/4 610/12/4 612/12/4
f 612/12/4 610/12/4 613/12/4
f 614/12/4 615/12/4 617/12/4
f 617/12/4 615/12/4 618/12/4
f 616/5/4 617/5/4 620/5/4
f 620/5/4 617/5/4 621/5/4
f 618/5/4 619/5/4 622/5/4
f 616/5/4 620/5/4 623/5/4
f 623/5/4 620/5/4 624/5/4
f 621/5/4 622/5/4 625/5/4
f 616/5/4 623/5/4 626/5/4
f 624/5/4 625/5/4 627/5/4
f 625/5/4 622/5/4 628/5/4
f 627/5/4 625/5/4 628/5/4
f 626/5/4 627/5/4 629/5/4
f 628/5/4 622/5/4 630/5/4
f 622/5/4 619/5/4 631/5/4
f 630/5/4 622/5/4 631/5/4
f 616/5/4 626/5/4 632/5/4
f 629/5/4 630/5/4 632/5/4
f 626/5/4 629/5/4 632/5/4
f 632/5/4 630/5/4 633/5/4
f 631/5/4 619/5/4 634/5/4
f 634/5/4 619/5/4 635/5/4
f 633/12/4 634/12/4 636/12/4
f 636/12/4 634/12/4 637/12/4
f 638/12/4 639/12/4 641/12/4
f 641/12/4 639/12/4 642/12/4
f 640/12/4 641/12/4 644/12/4
f 644/12/4 641/12/4 645/12/4
f 643/12/4 644/12/4 646/12/4
f 646/12/4 644/12/4 647/12/4
f 647/12/4 648/12/4 649/12/4
f 649/12/4 648/12/4 650/12/4
f 650/12/4 651/12/4 652/12/4
f 652/12/4 651/12/4 653/12/4
f 658/7/5 655/7/5 654/7/5
f 659/7/5 655/7/5 658/7/5
f 660/7/5 657/7/5 656/7/5
f 661/7/5 657/7/5 660/7/5
f 664/13/5 663/13/5 662/13/5
f 665/13/5 663/13/5 664/13/5
f 670/13/5 667/13/5 666/13/5
f 671/13/5 669/13/5 668/13/5
f 672/13/5 670/13/5 666/13/5
f 673/13/5 669/13/5 671/13/5
f 674/13/5 672/13/5 666/13/5
f 675/13/5 672/13/5 674/13/5
f 678/13/5 669/13/5 673/13/5
f 679/13/5 669/13/5 678/13/5
f 680/13/5 676/13/5 675/13/5
f 681/13/5 676/13/5 680/13/5
f 682/13/5 678/13/5 677/13/5
f 683/13/5 678/13/5 682/13/5
f 690/13/5 685/13/5 684/13/5
f 691/14/5 686/14/5 685/14/5
f 691/13/5 685/13/5 690/13/5
f 692/13/5 687/13/5 686/13/5
f 692/14/5 686/14/5 691/14/5
f 693/13/5 687/13/5 692/13/5
f 696/7/5 689/7/5 688/7/5
f 697/7/5 689/7/5 696/7/5
f 699/14/5 692/14/5 691/14/5
f 700/14/5 692/14/5 699/14/5
f 702/7/5 695/7/5 694/7/5
f 703/7/5 695/7/5 702/7/5
f 704/14/5 701/14/5 700/14/5
f 704/14/5 699/14/5 698/14/5
f 704/14/5 700/14/5 699/14/5
f 705/14/5 701/14/5 704/14/5
f 708/13/5 707/13/5 706/13/5
f 709/13/5 707/13/5 708/13/5
f 714/13/5 711/13/5 710/13/5
f 715/13/5 711/13/5 714/13/5
f 716/13/5 713/13/5 712/13/5
f 717/13/5 713/13/5 716/13/5
f 720/6/5 719/6/5 718/6/5
f 721/6/5 719/6/5 720/6/5
f 722/6/5 719/6/5 721/6/5
f 723/6/5 719/6/5 722/6/5
f 724/6/5 719/6/5 723/6/5
f 725/6/5 719/6/5 724/6/5
f 730/6/5 727/6/5 726/6/5
f 731/6/5 727/6/5 730/6/5
f 732/6/5 729/6/5 728/6/5
f 733/6/5 729/6/5 732/6/5
f 734/5/5 731/5/5 730/5/5
f 737/5/5 733/5/5 732/5/5
f 738/5/5 735/5/5 734/5/5
f 739/5/5 737/5/5 736/5/5
f 740/5/5 738/5/5 734/5/5
f 740/5/5 739/5/5 738/5/5
f 740/5/5 734/5/5 730/5/5
f 741/5/5 737/5/5 739/5/5
f 741/5/5 739/5/5 740/5/5
f 741/5/5 733/5/5 737/5/5
f 744/12/5 743/12/5 742/12/5
f 745/12/5 743/12/5 744/12/5
f 750/12/5 747/12/5 746/12/5
f 751/12/5 747/12/5 750/12/5
f 752/12/5 749/12/5 748/12/5
f 753/12/5 749/12/5 752/12/5
f 758/12/5 755/12/5 754/12/5
f 759/12/5 755/12/5 758/12/5
f 762/12/5 757/12/5 756/12/5
f 763/12/5 757/12/5 762/12/5
f 764/12/5 760/12/5 759/12/5
f 765/12/5 760/12/5 764/12/5
f 766/12/5 762/12/5 761/12/5
f 767/12/5 762/12/5 766/12/5
f 772/5/5 769/5/5 768/5/5
f 773/5/5 769/5/5 772/5/5
f 774/5/5 771/5/5 770/5/5
f 775/5/5 771/5/5 774/5/5
f 776/5/5 772/5/5 768/5/5
f 777/5/5 771/5/5 775/5/5
f 779/5/5 776/5/5 768/5/5
f 780/5/5 771/5/5 777/5/5
f 782/12/5 779/12/5 778/12/5
f 782/5/5 776/5/5 779/5/5
f 783/5/5 776/5/5 782/5/5
f 784/12/5 782/12/5 778/12/5
f 785/12/5 782/12/5 784/12/5
f 786/5/5 780/5/5 777/5/5
f 787/12/5 781/12/5 780/12/5
f 787/5/5 780/5/5 786/5/5
f 788/12/5 781/12/5 787/12/5
f 793/11/5 790/11/5 789/11/5
f 794/11/5 790/11/5 793/11/5
f 795/11/5 792/11/5 791/11/5
f 796/11/5 792/11/5 795/11/5
f 797/5/5 794/5/5 793/5/5
f 797/5/5 795/5/5 794/5/5
f 797/5/5 796/5/5 795/5/5
f 798/5/5 796/5/5 797/5/5
f 803/12/5 800/12/5 799/12/5
f 804/12/5 800/12/5 803/12/5
f 805/12/5 802/12/5 801/12/5
f 806/12/5 802/12/5 805/12/5
f 815/11/5 808/11/5 807/11/5
f 816/11/5 808/11/5 815/11/5
f 817/11/5 810/11/5 809/11/5
f 818/11/5 810/11/5 817/11/5
f 819/11/5 812/11/5 811/11/5
f 820/11/5 812/11/5 819/11/5
f 821/11/5 814/11/5 813/11/5
f 822/11/5 814/11/5 821/11/5
f 823/7/6 824/7/6 827/7/6
f 827/7/6 824/7/6 828/7/6
f 825/7/6 826/7/6 829/7/6
f 829/7/6 826/7/6 830/7/6
f 831/13/6 832/13/6 833/13/6
f 833/13/6 832/13/6 834/13/6
f 835/8/6 836/8/6 838/8/6
f 836/2/6 837/2/6 839/2/6
f 838/8/6 836/8/6 839/8/6
f 839/2/6 837/2/6 840/2/6
f 841/13/6 842/13/6 845/13/6
f 845/13/6 842/13/6 846/13/6
f 843/13/6 844/13/6 847/13/6
f 847/13/6 844/13/6 848/13/6
f 849/12/6 850/12/6 851/12/6
f 851/12/6 850/12/6 852/12/6
f 853/12/6 854/12/6 857/12/6
f 857/12/6 854/12/6 858/12/6
f 855/12/6 856/12/6 859/12/6
f 859/12/6 856/12/6 860/12/6
f 861/12/6 862/12/6 865/12/6
f 865/12/6 862/12/6 866/12/6
f 863/12/6 864/12/6 869/12/6
f 869/12/6 864/12/6 870/12/6
f 866/12/6 867/12/6 871/12/6
f 871/12/6 867/12/6 872/12/6
f 868/12/6 869/12/6 873/12/6
f 873/12/6 869/12/6 874/12/6
f 875/12/6 876/12/6 879/12/6
f 879/12/6 876/12/6 880/12/6
f 877/12/6 878/12/6 881/12/6
f 881/12/6 878/12/6 882/12/6
f 883/5/6 884/5/6 887/5/6
f 887/5/6 884/5/6 888/5/6
f 885/5/6 886/5/6 889/5/6
f 889/5/6 886/5/6 890/5/6
f 891/12/6 892/12/6 897/12/6
f 892/5/6 893/5/6 898/5/6
f 897/12/6 892/12/6 898/12/6
f 894/5/6 895/5/6 899/5/6
f 895/12/6 896/12/6 899/12/6
f 899/12/6 896/12/6 900/12/6
f 898/5/6 893/5/6 901/5/6
f 901/5/6 893/5/6 902/5/6
f 894/5/6 899/5/6 903/5/6
f 903/5/6 899/5/6 904/5/6
f 902/5/6 903/5/6 905/5/6
f 905/5/6 903/5/6 906/5/6
f 907/11/6 908/11/6 915/11/6
f 908/9/6 909/9/6 916/9/6
f 915/11/6 908/11/6 916/11/6
f 909/11/6 910/11/6 917/11/6
f 916/9/6 909/9/6 917/9/6
f 917/11/6 910/11/6 918/11/6
f 911/11/6 912/11/6 919/11/6
f 912/9/6 913/9/6 920/9/6
f 919/11/6 912/11/6 920/11/6
f 913/11/6 914/11/6 921/11/6
f 920/9/6 913/9/6 921/9/6
f 921/11/6 914/11/6 922/11/6
f 923/12/6 924/12/6 929/12/6
f 924/5/6 925/5/6 930/5/6
f 929/12/6 924/12/6 930/12/6
f 926/5/6 927/5/6 931/5/6
f 927/12/6 928/12/6 931/12/6
f 931/12/6 928/12/6 932/12/6
f 930/5/6 925/5/6 933/5/6
f 926/5/6 931/5/6 934/5/6
f 930/5/6 933/5/6 935/5/6
f 933/5/6 934/5/6 935/5/6
f 934/5/6 931/5/6 936/5/6
f 935/5/6 934/5/6 936/5/6
f 937/11/6 938/11/6 943/11/6
f 938/9/6 939/9/6 944/9/6
f 943/11/6 938/11/6 944/11/6
f 939/11/6 940/11/6 945/11/6
f 944/9/6 939/9/6 945/9/6
f 940/9/6 941/9/6 946/9/6
f 945/11/6 940/11/6 946/11/6
f 941/11/6 942/11/6 947/11/6
f 946/9/6 941/9/6 947/9/6
f 947/11/6 942/11/6 948/11/6
f 943/12/6 944/12/6 949/12/6
f 949/12/6 944/12/6 950/12/6
f 945/5/6 946/5/6 951/5/6
f 951/5/6 946/5/6 952/5/6
f 947/12/6 948/12/6 953/12/6
f 953/12/6 948/12/6 954/12/6
f 951/5/6 952/5/6 955/5/6
f 952/5/6 953/5/6 955/5/6
f 950/5/6 951/5/6 955/5/6
f 955/5/6 953/5/6 956/5/6
f 957/11/6 958/11/6 961/11/6
f 961/11/6 958/11/6 962/11/6
f 959/11/6 960/11/6 963/11/6
f 963/11/6 960/11/6 964/11/6
