# MagicaVoxel @ Ephtracy

# group
o 

# material
mtllib Educationman.vox.mtl
usemtl palette

# normals
vn -1 0 0
vn 1 0 0
vn 0 0 1
vn 0 0 -1
vn 0 -1 0
vn 0 1 0

# texcoords
vt 0.0839844 0.5
vt 0.146484 0.5
vt 0.287109 0.5
vt 0.291016 0.5
vt 0.310547 0.5
vt 0.349609 0.5
vt 0.365234 0.5
vt 0.373047 0.5
vt 0.748047 0.5
vt 0.958984 0.5
vt 0.994141 0.5

# verts
v -0.6 1.3 0.4
v -0.6 1.3 -0.3
v -0.6 1.5 0.4
v -0.6 1.5 -0.3
v -0.5 0.3 0.1
v -0.5 0.3 -0.1
v -0.5 0.5 0.1
v -0.5 0.5 -0.1
v -0.5 0.7 0.1
v -0.5 0.7 -0.1
v -0.5 0.9 0.3
v -0.5 0.9 0
v -0.5 0.9 -0.4
v -0.5 1.3 0.3
v -0.5 1.3 0
v -0.5 1.3 -0.3
v -0.5 1.5 0.4
v -0.5 1.5 -0.3
v -0.5 1.5 -0.4
v -0.5 1.6 0.4
v -0.5 1.6 -0.3
v -0.4 0.2 0.2
v -0.4 0.2 -0.2
v -0.4 0.3 0.1
v -0.4 0.3 -0.1
v -0.4 0.5 0.2
v -0.4 0.5 0.1
v -0.4 0.5 -0.1
v -0.4 0.5 -0.2
v -0.4 0.8 0.3
v -0.4 0.8 0
v -0.4 0.8 -0.2
v -0.4 0.9 0.3
v -0.4 0.9 0
v -0.4 0.9 -0.2
v -0.4 1.6 0.3
v -0.4 1.6 -0.2
v -0.4 1.7 0.3
v -0.4 1.7 -0.2
v -0.3 0 0.2
v -0.3 0 -0.1
v -0.3 0.1 0.2
v -0.3 0.1 0.1
v -0.3 0.2 0.1
v -0.3 0.2 -0.1
v -0.3 0.5 0.2
v -0.3 0.5 0.1
v -0.3 0.5 -0.1
v -0.3 0.5 -0.2
v -0.3 0.7 0.1
v -0.3 0.7 -0.1
v -0.3 0.8 0.2
v -0.3 0.8 0
v -0.3 0.8 -0.2
v -0.3 0.8 -0.3
v -0.3 0.9 -0.2
v -0.3 0.9 -0.3
v -0.1 0.5 0.3
v -0.1 0.5 0.2
v -0.1 0.8 0.3
v -0.1 0.8 0.2
v 0.1 0 0.2
v 0.1 0 -0.1
v 0.1 0.1 0.2
v 0.1 0.1 0.1
v 0.1 0.2 0.1
v 0.1 0.2 -0.1
v 0.1 0.3 0.1
v 0.1 0.3 -0.1
v 0.4 1.3 0.4
v 0.4 1.3 0.3
v 0.4 1.4 0.4
v 0.4 1.4 0.3
v -0.4 1.3 0.4
v -0.4 1.3 0.3
v -0.4 1.4 0.4
v -0.4 1.4 0.3
v -0.3 0.2 0.2
v -0.3 0.2 0.1
v -0.3 0.2 -0.1
v -0.3 0.2 -0.2
v -0.3 0.3 0.2
v -0.3 0.3 0.1
v -0.3 0.3 -0.1
v -0.3 0.3 -0.2
v -0.1 0 0.2
v -0.1 0 -0.1
v -0.1 0.1 0.2
v -0.1 0.1 0.1
v -0.1 0.2 0.1
v -0.1 0.2 -0.1
v -0.1 0.3 0.1
v -0.1 0.3 -0.1
v -5.96046e-08 0.5 0.3
v -5.96046e-08 0.5 0.2
v -5.96046e-08 0.6 0.3
v -5.96046e-08 0.6 0.2
v 0.1 0.6 0.3
v 0.1 0.6 0.2
v 0.1 0.8 0.3
v 0.1 0.8 0.2
v 0.3 0 0.2
v 0.3 0 -0.1
v 0.3 0.1 0.2
v 0.3 0.1 0.1
v 0.3 0.2 0.1
v 0.3 0.2 -0.1
v 0.3 0.3 0.2
v 0.3 0.3 0.1
v 0.3 0.3 -0.1
v 0.3 0.3 -0.2
v 0.3 0.4 0.2
v 0.3 0.4 0.1
v 0.3 0.4 -0.1
v 0.3 0.4 -0.2
v 0.3 0.5 0.1
v 0.3 0.5 -0.1
v 0.3 0.7 0.1
v 0.3 0.7 -0.1
v 0.3 0.8 0.2
v 0.3 0.8 0
v 0.3 0.8 -0.2
v 0.3 0.8 -0.3
v 0.3 0.9 -0.2
v 0.3 0.9 -0.3
v 0.4 0.8 0.3
v 0.4 0.8 0
v 0.4 0.8 -0.2
v 0.4 0.9 0.3
v 0.4 0.9 0
v 0.4 0.9 -0.2
v 0.4 1.6 0.3
v 0.4 1.6 -0.2
v 0.4 1.7 0.3
v 0.4 1.7 -0.2
v 0.5 0.3 0.1
v 0.5 0.3 -0.1
v 0.5 0.5 0.1
v 0.5 0.5 -0.1
v 0.5 0.7 0.1
v 0.5 0.7 -0.1
v 0.5 0.9 0.3
v 0.5 0.9 0
v 0.5 0.9 -0.4
v 0.5 1.3 0.3
v 0.5 1.3 0
v 0.5 1.3 -0.3
v 0.5 1.5 0.4
v 0.5 1.5 -0.3
v 0.5 1.5 -0.4
v 0.5 1.6 0.4
v 0.5 1.6 -0.3
v 0.6 1.3 0.4
v 0.6 1.3 -0.3
v 0.6 1.5 0.4
v 0.6 1.5 -0.3
v -0.6 1.3 0.4
v -0.6 1.5 0.4
v -0.5 1.5 0.4
v -0.5 1.6 0.4
v -0.4 1.3 0.4
v -0.4 1.4 0.4
v 0.4 1.3 0.4
v 0.4 1.4 0.4
v 0.5 1.5 0.4
v 0.5 1.6 0.4
v 0.6 1.3 0.4
v 0.6 1.5 0.4
v -0.5 0.9 0.3
v -0.5 1.3 0.3
v -0.4 0.8 0.3
v -0.4 0.9 0.3
v -0.4 1.3 0.3
v -0.4 1.4 0.3
v -0.4 1.6 0.3
v -0.4 1.7 0.3
v -0.3 1.1 0.3
v -0.3 1.3 0.3
v -0.2 1.1 0.3
v -0.2 1.3 0.3
v -0.1 0.5 0.3
v -0.1 0.8 0.3
v -0.1 0.9 0.3
v -0.1 1 0.3
v -0.1 1.1 0.3
v -0.1 1.3 0.3
v -5.96046e-08 0.5 0.3
v -5.96046e-08 0.6 0.3
v 0.1 0.6 0.3
v 0.1 0.8 0.3
v 0.1 0.9 0.3
v 0.1 1 0.3
v 0.1 1.1 0.3
v 0.1 1.3 0.3
v 0.2 1.1 0.3
v 0.2 1.3 0.3
v 0.3 1.1 0.3
v 0.3 1.3 0.3
v 0.4 0.8 0.3
v 0.4 0.9 0.3
v 0.4 1.3 0.3
v 0.4 1.4 0.3
v 0.4 1.6 0.3
v 0.4 1.7 0.3
v 0.5 0.9 0.3
v 0.5 1.3 0.3
v -0.4 0.2 0.2
v -0.4 0.5 0.2
v -0.3 0 0.2
v -0.3 0.1 0.2
v -0.3 0.2 0.2
v -0.3 0.3 0.2
v -0.3 0.4 0.2
v -0.3 0.5 0.2
v -0.3 0.8 0.2
v -0.1 0 0.2
v -0.1 0.1 0.2
v -0.1 0.3 0.2
v -0.1 0.4 0.2
v -0.1 0.5 0.2
v -0.1 0.8 0.2
v -5.96046e-08 0.5 0.2
v -5.96046e-08 0.6 0.2
v 0.1 0 0.2
v 0.1 0.1 0.2
v 0.1 0.3 0.2
v 0.1 0.4 0.2
v 0.1 0.6 0.2
v 0.1 0.8 0.2
v 0.3 0 0.2
v 0.3 0.1 0.2
v 0.3 0.3 0.2
v 0.3 0.4 0.2
v 0.3 0.8 0.2
v -0.5 0.3 0.1
v -0.5 0.5 0.1
v -0.5 0.7 0.1
v -0.4 0.3 0.1
v -0.4 0.5 0.1
v -0.3 0.1 0.1
v -0.3 0.2 0.1
v -0.3 0.3 0.1
v -0.3 0.5 0.1
v -0.3 0.7 0.1
v -0.1 0.1 0.1
v -0.1 0.2 0.1
v -0.1 0.3 0.1
v 0.1 0.1 0.1
v 0.1 0.2 0.1
v 0.1 0.3 0.1
v 0.3 0.1 0.1
v 0.3 0.2 0.1
v 0.3 0.3 0.1
v 0.3 0.4 0.1
v 0.3 0.5 0.1
v 0.3 0.7 0.1
v 0.5 0.3 0.1
v 0.5 0.5 0.1
v 0.5 0.7 0.1
v -0.5 0.3 -0.1
v -0.5 0.5 -0.1
v -0.5 0.7 -0.1
v -0.4 0.3 -0.1
v -0.4 0.5 -0.1
v -0.3 0 -0.1
v -0.3 0.2 -0.1
v -0.3 0.3 -0.1
v -0.3 0.5 -0.1
v -0.3 0.7 -0.1
v -0.1 0 -0.1
v -0.1 0.2 -0.1
v -0.1 0.3 -0.1
v 0.1 0 -0.1
v 0.1 0.2 -0.1
v 0.1 0.3 -0.1
v 0.3 0 -0.1
v 0.3 0.2 -0.1
v 0.3 0.3 -0.1
v 0.3 0.4 -0.1
v 0.3 0.5 -0.1
v 0.3 0.7 -0.1
v 0.5 0.3 -0.1
v 0.5 0.5 -0.1
v 0.5 0.7 -0.1
v -0.4 0.2 -0.2
v -0.4 0.5 -0.2
v -0.4 0.8 -0.2
v -0.4 0.9 -0.2
v -0.4 1.6 -0.2
v -0.4 1.7 -0.2
v -0.3 0.2 -0.2
v -0.3 0.3 -0.2
v -0.3 0.4 -0.2
v -0.3 0.5 -0.2
v -0.3 0.8 -0.2
v -0.3 0.9 -0.2
v 0.3 0.3 -0.2
v 0.3 0.4 -0.2
v 0.3 0.8 -0.2
v 0.3 0.9 -0.2
v 0.4 0.8 -0.2
v 0.4 0.9 -0.2
v 0.4 1.6 -0.2
v 0.4 1.7 -0.2
v -0.6 1.3 -0.3
v -0.6 1.5 -0.3
v -0.5 1.3 -0.3
v -0.5 1.5 -0.3
v -0.5 1.6 -0.3
v -0.3 0.8 -0.3
v -0.3 0.9 -0.3
v 0.3 0.8 -0.3
v 0.3 0.9 -0.3
v 0.5 1.3 -0.3
v 0.5 1.5 -0.3
v 0.5 1.6 -0.3
v 0.6 1.3 -0.3
v 0.6 1.5 -0.3
v -0.5 0.9 -0.4
v -0.5 1.5 -0.4
v 0.5 0.9 -0.4
v 0.5 1.5 -0.4
v -0.3 0 0.2
v -0.1 0 0.2
v 0.1 0 0.2
v 0.3 0 0.2
v -0.3 0 -0.1
v -0.1 0 -0.1
v 0.1 0 -0.1
v 0.3 0 -0.1
v -0.4 0.2 0.2
v -0.3 0.2 0.2
v -0.3 0.2 0.1
v -0.3 0.2 -0.1
v -0.4 0.2 -0.2
v -0.3 0.2 -0.2
v -0.3 0.3 0.2
v -0.1 0.3 0.2
v 0.1 0.3 0.2
v 0.3 0.3 0.2
v -0.5 0.3 0.1
v -0.4 0.3 0.1
v -0.3 0.3 0.1
v -0.1 0.3 0.1
v 0.1 0.3 0.1
v 0.3 0.3 0.1
v 0.5 0.3 0.1
v -0.5 0.3 -0.1
v -0.4 0.3 -0.1
v -0.3 0.3 -0.1
v -0.1 0.3 -0.1
v 0.1 0.3 -0.1
v 0.3 0.3 -0.1
v 0.5 0.3 -0.1
v -0.3 0.3 -0.2
v 0.3 0.3 -0.2
v -0.1 0.5 0.3
v -5.96046e-08 0.5 0.3
v -0.1 0.5 0.2
v -5.96046e-08 0.5 0.2
v -5.96046e-08 0.6 0.3
v 0.1 0.6 0.3
v -5.96046e-08 0.6 0.2
v 0.1 0.6 0.2
v -0.4 0.8 0.3
v -0.1 0.8 0.3
v 0.1 0.8 0.3
v 0.4 0.8 0.3
v -0.3 0.8 0.2
v -0.1 0.8 0.2
v 0.1 0.8 0.2
v 0.3 0.8 0.2
v -0.4 0.8 0
v -0.3 0.8 0
v 0.3 0.8 0
v 0.4 0.8 0
v -0.4 0.8 -0.2
v -0.3 0.8 -0.2
v 0.3 0.8 -0.2
v 0.4 0.8 -0.2
v -0.3 0.8 -0.3
v 0.3 0.8 -0.3
v -0.5 0.9 0.3
v -0.4 0.9 0.3
v 0.4 0.9 0.3
v 0.5 0.9 0.3
v -0.5 0.9 0
v -0.4 0.9 0
v 0.4 0.9 0
v 0.5 0.9 0
v -0.4 0.9 -0.2
v -0.3 0.9 -0.2
v 0.3 0.9 -0.2
v 0.4 0.9 -0.2
v -0.3 0.9 -0.3
v 0.3 0.9 -0.3
v -0.5 0.9 -0.4
v 0.5 0.9 -0.4
v -0.6 1.3 0.4
v -0.4 1.3 0.4
v 0.4 1.3 0.4
v 0.6 1.3 0.4
v -0.5 1.3 0.3
v -0.4 1.3 0.3
v 0.4 1.3 0.3
v 0.5 1.3 0.3
v -0.5 1.3 0
v 0.5 1.3 0
v -0.6 1.3 -0.3
v -0.5 1.3 -0.3
v 0.5 1.3 -0.3
v 0.6 1.3 -0.3
v -0.4 1.4 0.4
v 0.4 1.4 0.4
v -0.4 1.4 0.3
v 0.4 1.4 0.3
v -0.3 0.1 0.2
v -0.1 0.1 0.2
v 0.1 0.1 0.2
v 0.3 0.1 0.2
v -0.3 0.1 0.1
v -0.1 0.1 0.1
v 0.1 0.1 0.1
v 0.3 0.1 0.1
v -0.4 0.5 0.2
v -0.3 0.5 0.2
v -0.4 0.5 0.1
v -0.3 0.5 0.1
v -0.4 0.5 -0.1
v -0.3 0.5 -0.1
v -0.4 0.5 -0.2
v -0.3 0.5 -0.2
v -0.5 0.7 0.1
v -0.3 0.7 0.1
v 0.3 0.7 0.1
v 0.5 0.7 0.1
v -0.5 0.7 -0.1
v -0.3 0.7 -0.1
v 0.3 0.7 -0.1
v 0.5 0.7 -0.1
v -0.6 1.5 0.4
v -0.5 1.5 0.4
v 0.5 1.5 0.4
v 0.6 1.5 0.4
v -0.6 1.5 -0.3
v -0.5 1.5 -0.3
v 0.5 1.5 -0.3
v 0.6 1.5 -0.3
v -0.5 1.5 -0.4
v 0.5 1.5 -0.4
v -0.5 1.6 0.4
v 0.5 1.6 0.4
v -0.4 1.6 0.3
v 0.4 1.6 0.3
v -0.4 1.6 -0.2
v 0.4 1.6 -0.2
v -0.5 1.6 -0.3
v 0.5 1.6 -0.3
v -0.4 1.7 0.3
v 0.4 1.7 0.3
v -0.4 1.7 -0.2
v 0.4 1.7 -0.2

# faces
f 3/5/1 2/5/1 1/5/1
f 4/5/1 2/5/1 3/5/1
f 7/6/1 6/6/1 5/6/1
f 8/6/1 6/6/1 7/6/1
f 9/9/1 8/9/1 7/9/1
f 10/9/1 8/9/1 9/9/1
f 14/6/1 12/6/1 11/6/1
f 15/5/1 13/5/1 12/5/1
f 15/6/1 12/6/1 14/6/1
f 16/5/1 13/5/1 15/5/1
f 18/5/1 13/5/1 16/5/1
f 19/5/1 13/5/1 18/5/1
f 20/5/1 18/5/1 17/5/1
f 21/5/1 18/5/1 20/5/1
f 24/5/1 23/5/1 22/5/1
f 25/5/1 23/5/1 24/5/1
f 26/5/1 24/5/1 22/5/1
f 27/5/1 24/5/1 26/5/1
f 28/5/1 23/5/1 25/5/1
f 29/5/1 23/5/1 28/5/1
f 33/6/1 31/6/1 30/6/1
f 34/5/1 32/5/1 31/5/1
f 34/6/1 31/6/1 33/6/1
f 35/5/1 32/5/1 34/5/1
f 38/5/1 37/5/1 36/5/1
f 39/5/1 37/5/1 38/5/1
f 42/7/1 41/7/1 40/7/1
f 43/7/1 41/7/1 42/7/1
f 44/7/1 41/7/1 43/7/1
f 45/7/1 41/7/1 44/7/1
f 50/9/1 47/9/1 46/9/1
f 51/9/1 49/9/1 48/9/1
f 52/9/1 50/9/1 46/9/1
f 52/9/1 51/9/1 50/9/1
f 53/9/1 51/9/1 52/9/1
f 54/9/1 49/9/1 51/9/1
f 54/9/1 51/9/1 53/9/1
f 56/5/1 55/5/1 54/5/1
f 57/5/1 55/5/1 56/5/1
f 60/2/1 59/2/1 58/2/1
f 61/2/1 59/2/1 60/2/1
f 64/7/1 63/7/1 62/7/1
f 65/7/1 63/7/1 64/7/1
f 66/7/1 63/7/1 65/7/1
f 67/7/1 63/7/1 66/7/1
f 68/4/1 67/4/1 66/4/1
f 69/4/1 67/4/1 68/4/1
f 72/5/1 71/5/1 70/5/1
f 73/5/1 71/5/1 72/5/1
f 74/5/2 75/5/2 76/5/2
f 76/5/2 75/5/2 77/5/2
f 78/5/2 79/5/2 82/5/2
f 82/5/2 79/5/2 83/5/2
f 80/5/2 81/5/2 84/5/2
f 84/5/2 81/5/2 85/5/2
f 86/7/2 87/7/2 88/7/2
f 88/7/2 87/7/2 89/7/2
f 89/7/2 87/7/2 90/7/2
f 90/7/2 87/7/2 91/7/2
f 90/4/2 91/4/2 92/4/2
f 92/4/2 91/4/2 93/4/2
f 94/2/2 95/2/2 96/2/2
f 96/2/2 95/2/2 97/2/2
f 98/2/2 99/2/2 100/2/2
f 100/2/2 99/2/2 101/2/2
f 102/7/2 103/7/2 104/7/2
f 104/7/2 103/7/2 105/7/2
f 105/7/2 103/7/2 106/7/2
f 106/7/2 103/7/2 107/7/2
f 106/4/2 107/4/2 109/4/2
f 109/4/2 107/4/2 110/4/2
f 108/7/2 109/7/2 112/7/2
f 112/7/2 109/7/2 113/7/2
f 110/7/2 111/7/2 114/7/2
f 114/7/2 111/7/2 115/7/2
f 112/9/2 113/9/2 116/9/2
f 114/9/2 115/9/2 117/9/2
f 112/9/2 116/9/2 118/9/2
f 117/9/2 115/9/2 119/9/2
f 112/9/2 118/9/2 120/9/2
f 118/9/2 119/9/2 120/9/2
f 120/9/2 119/9/2 121/9/2
f 119/9/2 115/9/2 122/9/2
f 121/9/2 119/9/2 122/9/2
f 122/5/2 123/5/2 124/5/2
f 124/5/2 123/5/2 125/5/2
f 126/6/2 127/6/2 129/6/2
f 127/5/2 128/5/2 130/5/2
f 129/6/2 127/6/2 130/6/2
f 130/5/2 128/5/2 131/5/2
f 132/5/2 133/5/2 134/5/2
f 134/5/2 133/5/2 135/5/2
f 136/6/2 137/6/2 138/6/2
f 138/6/2 137/6/2 139/6/2
f 138/9/2 139/9/2 140/9/2
f 140/9/2 139/9/2 141/9/2
f 142/6/2 143/6/2 145/6/2
f 143/5/2 144/5/2 146/5/2
f 145/6/2 143/6/2 146/6/2
f 146/5/2 144/5/2 147/5/2
f 147/5/2 144/5/2 149/5/2
f 149/5/2 144/5/2 150/5/2
f 148/5/2 149/5/2 151/5/2
f 151/5/2 149/5/2 152/5/2
f 153/5/2 154/5/2 155/5/2
f 155/5/2 154/5/2 156/5/2
f 159/5/3 158/5/3 157/5/3
f 161/5/3 159/5/3 157/5/3
f 161/5/3 160/5/3 159/5/3
f 162/5/3 160/5/3 161/5/3
f 164/5/3 160/5/3 162/5/3
f 165/5/3 160/5/3 164/5/3
f 165/5/3 164/5/3 163/5/3
f 166/5/3 160/5/3 165/5/3
f 167/5/3 165/5/3 163/5/3
f 168/5/3 165/5/3 167/5/3
f 172/6/3 170/6/3 169/6/3
f 173/6/3 170/6/3 172/6/3
f 177/6/3 172/6/3 171/6/3
f 177/6/3 173/6/3 172/6/3
f 177/6/3 174/6/3 173/6/3
f 178/6/3 174/6/3 177/6/3
f 179/6/3 177/6/3 171/6/3
f 179/10/3 178/10/3 177/10/3
f 180/6/3 174/6/3 178/6/3
f 180/10/3 178/10/3 179/10/3
f 182/6/3 179/6/3 171/6/3
f 183/6/3 179/6/3 182/6/3
f 184/6/3 179/6/3 183/6/3
f 185/11/3 180/11/3 179/11/3
f 185/6/3 179/6/3 184/6/3
f 186/6/3 174/6/3 180/6/3
f 186/11/3 180/11/3 185/11/3
f 187/2/3 182/2/3 181/2/3
f 188/2/3 182/2/3 187/2/3
f 189/2/3 182/2/3 188/2/3
f 190/6/3 183/6/3 182/6/3
f 190/2/3 182/2/3 189/2/3
f 191/1/3 184/1/3 183/1/3
f 191/6/3 183/6/3 190/6/3
f 192/6/3 185/6/3 184/6/3
f 192/1/3 184/1/3 191/1/3
f 192/6/3 186/6/3 185/6/3
f 193/6/3 186/6/3 192/6/3
f 194/6/3 174/6/3 186/6/3
f 194/6/3 186/6/3 193/6/3
f 195/6/3 191/6/3 190/6/3
f 195/11/3 194/11/3 193/11/3
f 195/6/3 192/6/3 191/6/3
f 195/6/3 193/6/3 192/6/3
f 196/6/3 174/6/3 194/6/3
f 196/11/3 194/11/3 195/11/3
f 197/6/3 195/6/3 190/6/3
f 197/10/3 196/10/3 195/10/3
f 198/6/3 174/6/3 196/6/3
f 198/10/3 196/10/3 197/10/3
f 199/6/3 197/6/3 190/6/3
f 199/6/3 198/6/3 197/6/3
f 200/6/3 198/6/3 199/6/3
f 201/6/3 174/6/3 198/6/3
f 201/6/3 198/6/3 200/6/3
f 202/6/3 174/6/3 201/6/3
f 203/5/3 176/5/3 175/5/3
f 204/5/3 176/5/3 203/5/3
f 205/6/3 201/6/3 200/6/3
f 206/6/3 201/6/3 205/6/3
f 211/5/3 208/5/3 207/5/3
f 212/5/3 208/5/3 211/5/3
f 213/5/3 208/5/3 212/5/3
f 214/5/3 208/5/3 213/5/3
f 216/7/3 210/7/3 209/7/3
f 217/7/3 210/7/3 216/7/3
f 218/7/3 213/7/3 212/7/3
f 219/9/3 215/9/3 214/9/3
f 219/7/3 213/7/3 218/7/3
f 219/9/3 214/9/3 213/9/3
f 220/9/3 215/9/3 219/9/3
f 221/9/3 215/9/3 220/9/3
f 222/9/3 220/9/3 219/9/3
f 226/8/3 219/8/3 218/8/3
f 227/9/3 222/9/3 219/9/3
f 227/8/3 219/8/3 226/8/3
f 227/9/3 223/9/3 222/9/3
f 228/9/3 223/9/3 227/9/3
f 230/7/3 225/7/3 224/7/3
f 231/7/3 225/7/3 230/7/3
f 232/7/3 227/7/3 226/7/3
f 233/9/3 229/9/3 228/9/3
f 233/7/3 227/7/3 232/7/3
f 233/9/3 228/9/3 227/9/3
f 234/9/3 229/9/3 233/9/3
f 238/6/3 236/6/3 235/6/3
f 239/9/3 237/9/3 236/9/3
f 239/6/3 236/6/3 238/6/3
f 243/9/3 237/9/3 239/9/3
f 244/9/3 237/9/3 243/9/3
f 245/7/3 241/7/3 240/7/3
f 246/4/3 242/4/3 241/4/3
f 246/7/3 241/7/3 245/7/3
f 247/4/3 242/4/3 246/4/3
f 251/7/3 249/7/3 248/7/3
f 252/4/3 250/4/3 249/4/3
f 252/7/3 249/7/3 251/7/3
f 253/4/3 250/4/3 252/4/3
f 257/6/3 255/6/3 254/6/3
f 257/6/3 254/6/3 253/6/3
f 258/9/3 256/9/3 255/9/3
f 258/6/3 255/6/3 257/6/3
f 259/9/3 256/9/3 258/9/3
f 260/6/4 261/6/4 263/6/4
f 261/9/4 262/9/4 264/9/4
f 263/6/4 261/6/4 264/6/4
f 264/9/4 262/9/4 268/9/4
f 268/9/4 262/9/4 269/9/4
f 265/7/4 266/7/4 270/7/4
f 266/4/4 267/4/4 271/4/4
f 270/7/4 266/7/4 271/7/4
f 271/4/4 267/4/4 272/4/4
f 273/7/4 274/7/4 276/7/4
f 274/4/4 275/4/4 277/4/4
f 276/7/4 274/7/4 277/7/4
f 277/4/4 275/4/4 278/4/4
f 279/6/4 280/6/4 282/6/4
f 278/6/4 279/6/4 282/6/4
f 280/9/4 281/9/4 283/9/4
f 282/6/4 280/6/4 283/6/4
f 283/9/4 281/9/4 284/9/4
f 285/5/4 286/5/4 291/5/4
f 291/5/4 286/5/4 292/5/4
f 292/5/4 286/5/4 293/5/4
f 293/5/4 286/5/4 294/5/4
f 287/5/4 288/5/4 295/5/4
f 295/5/4 288/5/4 296/5/4
f 292/7/4 293/7/4 297/7/4
f 293/9/4 294/9/4 298/9/4
f 297/7/4 293/7/4 298/7/4
f 294/9/4 295/9/4 298/9/4
f 298/9/4 295/9/4 299/9/4
f 299/5/4 300/5/4 301/5/4
f 301/5/4 300/5/4 302/5/4
f 289/5/4 290/5/4 303/5/4
f 303/5/4 290/5/4 304/5/4
f 305/5/4 306/5/4 307/5/4
f 307/5/4 306/5/4 308/5/4
f 310/5/4 311/5/4 312/5/4
f 312/5/4 311/5/4 313/5/4
f 308/5/4 309/5/4 315/5/4
f 315/5/4 309/5/4 316/5/4
f 314/5/4 315/5/4 317/5/4
f 317/5/4 315/5/4 318/5/4
f 319/5/4 320/5/4 321/5/4
f 321/5/4 320/5/4 322/5/4
f 327/7/5 324/7/5 323/7/5
f 328/7/5 324/7/5 327/7/5
f 329/7/5 326/7/5 325/7/5
f 330/7/5 326/7/5 329/7/5
f 333/5/5 332/5/5 331/5/5
f 334/5/5 333/5/5 331/5/5
f 335/5/5 334/5/5 331/5/5
f 336/5/5 334/5/5 335/5/5
f 343/7/5 338/7/5 337/7/5
f 344/8/5 339/8/5 338/8/5
f 344/7/5 338/7/5 343/7/5
f 345/7/5 340/7/5 339/7/5
f 345/8/5 339/8/5 344/8/5
f 346/7/5 340/7/5 345/7/5
f 348/6/5 342/6/5 341/6/5
f 349/6/5 342/6/5 348/6/5
f 351/4/5 345/4/5 344/4/5
f 352/4/5 345/4/5 351/4/5
f 353/6/5 347/6/5 346/6/5
f 354/6/5 347/6/5 353/6/5
f 355/7/5 352/7/5 351/7/5
f 355/7/5 353/7/5 352/7/5
f 355/7/5 351/7/5 350/7/5
f 356/7/5 353/7/5 355/7/5
f 359/2/5 358/2/5 357/2/5
f 360/2/5 358/2/5 359/2/5
f 363/2/5 362/2/5 361/2/5
f 364/2/5 362/2/5 363/2/5
f 369/6/5 366/6/5 365/6/5
f 370/6/5 366/6/5 369/6/5
f 371/6/5 368/6/5 367/6/5
f 372/6/5 368/6/5 371/6/5
f 373/6/5 369/6/5 365/6/5
f 374/6/5 369/6/5 373/6/5
f 375/6/5 368/6/5 372/6/5
f 376/6/5 368/6/5 375/6/5
f 377/5/5 374/5/5 373/5/5
f 378/5/5 374/5/5 377/5/5
f 379/5/5 376/5/5 375/5/5
f 380/5/5 376/5/5 379/5/5
f 381/5/5 379/5/5 378/5/5
f 382/5/5 379/5/5 381/5/5
f 387/6/5 384/6/5 383/6/5
f 388/6/5 384/6/5 387/6/5
f 389/6/5 386/6/5 385/6/5
f 390/6/5 386/6/5 389/6/5
f 391/5/5 388/5/5 387/5/5
f 394/5/5 390/5/5 389/5/5
f 395/5/5 392/5/5 391/5/5
f 396/5/5 394/5/5 393/5/5
f 397/5/5 395/5/5 391/5/5
f 397/5/5 396/5/5 395/5/5
f 397/5/5 391/5/5 387/5/5
f 398/5/5 394/5/5 396/5/5
f 398/5/5 396/5/5 397/5/5
f 398/5/5 390/5/5 394/5/5
f 403/5/5 400/5/5 399/5/5
f 404/5/5 400/5/5 403/5/5
f 405/5/5 402/5/5 401/5/5
f 406/5/5 402/5/5 405/5/5
f 407/5/5 403/5/5 399/5/5
f 408/5/5 402/5/5 406/5/5
f 409/5/5 407/5/5 399/5/5
f 410/5/5 407/5/5 409/5/5
f 411/5/5 402/5/5 408/5/5
f 412/5/5 402/5/5 411/5/5
f 415/5/5 414/5/5 413/5/5
f 416/5/5 414/5/5 415/5/5
f 417/7/6 418/7/6 421/7/6
f 421/7/6 418/7/6 422/7/6
f 419/7/6 420/7/6 423/7/6
f 423/7/6 420/7/6 424/7/6
f 425/5/6 426/5/6 427/5/6
f 427/5/6 426/5/6 428/5/6
f 429/5/6 430/5/6 431/5/6
f 431/5/6 430/5/6 432/5/6
f 433/9/6 434/9/6 437/9/6
f 437/9/6 434/9/6 438/9/6
f 435/9/6 436/9/6 439/9/6
f 439/9/6 436/9/6 440/9/6
f 441/5/6 442/5/6 445/5/6
f 445/5/6 442/5/6 446/5/6
f 443/5/6 444/5/6 447/5/6
f 447/5/6 444/5/6 448/5/6
f 446/5/6 447/5/6 449/5/6
f 449/5/6 447/5/6 450/5/6
f 451/5/6 452/5/6 453/5/6
f 453/5/6 452/5/6 454/5/6
f 451/5/6 453/5/6 455/5/6
f 454/5/6 452/5/6 456/5/6
f 451/5/6 455/5/6 457/5/6
f 455/5/6 456/5/6 457/5/6
f 456/5/6 452/5/6 458/5/6
f 457/5/6 456/5/6 458/5/6
f 459/5/6 460/5/6 461/5/6
f 461/5/6 460/5/6 462/5/6
