# MagicaVoxel @ Ephtracy

# group
o 

# material
mtllib Medic_Walk2.vox.mtl
usemtl palette

# normals
vn -1 0 0
vn 1 0 0
vn 0 0 1
vn 0 0 -1
vn 0 -1 0
vn 0 1 0

# texcoords
vt 0.0839844 0.5
vt 0.287109 0.5
vt 0.291016 0.5
vt 0.310547 0.5
vt 0.349609 0.5
vt 0.365234 0.5
vt 0.748047 0.5
vt 0.951172 0.5
vt 0.958984 0.5
vt 0.978516 0.5
vt 0.982422 0.5
vt 0.994141 0.5

# verts
v -0.6 0.3 0.1
v -0.6 0.3 -0.1
v -0.6 0.5 0.1
v -0.6 0.5 -0.1
v -0.6 0.7 0.1
v -0.6 0.7 -0.1
v -0.6 1.3 0.4
v -0.6 1.3 -0.3
v -0.6 1.5 0.4
v -0.6 1.5 -0.3
v -0.5 0.7 0.2
v -0.5 0.7 0.1
v -0.5 0.7 -0.1
v -0.5 0.7 -0.2
v -0.5 0.8 0.2
v -0.5 0.8 -0.2
v -0.5 0.9 0.3
v -0.5 0.9 0
v -0.5 0.9 -0.4
v -0.5 1.3 0.3
v -0.5 1.3 0
v -0.5 1.3 -0.3
v -0.5 1.5 0.4
v -0.5 1.5 -0.3
v -0.5 1.5 -0.4
v -0.5 1.6 0.4
v -0.5 1.6 -0.3
v -0.4 0.2 0.2
v -0.4 0.2 -0.2
v -0.4 0.3 0.1
v -0.4 0.3 -0.1
v -0.4 0.5 0.3
v -0.4 0.5 0.2
v -0.4 0.5 0.1
v -0.4 0.5 -0.1
v -0.4 0.7 0.3
v -0.4 0.7 0.2
v -0.4 0.7 0.1
v -0.4 0.7 -0.1
v -0.4 0.7 -0.2
v -0.4 0.7 -0.3
v -0.4 0.8 0.3
v -0.4 0.8 0.2
v -0.4 0.8 0
v -0.4 0.8 -0.2
v -0.4 0.8 -0.3
v -0.4 0.9 0.3
v -0.4 0.9 0
v -0.4 0.9 -0.2
v -0.4 1.6 0.3
v -0.4 1.6 -0.2
v -0.4 1.7 0.3
v -0.4 1.7 -0.2
v -0.3 0.1 0.4
v -0.3 0.1 0.2
v -0.3 0.1 -0.1
v -0.3 0.2 0.2
v -0.3 0.2 -0.1
v -0.3 0.2 -0.2
v -0.3 0.2 -0.3
v -0.3 0.3 0.3
v -0.3 0.3 0.2
v -0.3 0.4 0.4
v -0.3 0.4 0.3
v -0.3 0.7 -0.2
v -0.3 0.7 -0.3
v -0.3 0.8 -0.2
v -0.3 0.8 -0.3
v -0.3 0.8 -0.4
v -0.3 0.9 -0.2
v -0.3 0.9 -0.3
v -0.3 0.9 -0.4
v -0.2 0.1 -0.2
v -0.2 0.1 -0.3
v -0.2 0.2 -0.2
v -0.2 0.2 -0.3
v 0.1 0 0.2
v 0.1 0 -0.1
v 0.1 0.1 0.2
v 0.1 0.1 0.1
v 0.1 0.2 0.1
v 0.1 0.2 -0.1
v 0.1 0.3 0.1
v 0.1 0.3 -0.1
v 0.1 0.6 0.3
v 0.1 0.6 0.2
v 0.1 0.7 0.3
v 0.1 0.7 0.2
v 0.2 0.5 0.3
v 0.2 0.5 0.2
v 0.2 0.6 0.3
v 0.2 0.6 0.2
v 0.3 0.2 0.2
v 0.3 0.2 0.1
v 0.3 0.2 -0.1
v 0.3 0.2 -0.2
v 0.3 0.3 0.2
v 0.3 0.3 0.1
v 0.3 0.3 -0.1
v 0.3 0.3 -0.2
v 0.3 0.7 0.3
v 0.3 0.7 0.2
v 0.3 0.8 0.3
v 0.3 0.8 0.2
v 0.4 0.5 0.3
v 0.4 0.5 0.2
v 0.4 0.6 0.3
v 0.4 0.6 0.2
v 0.4 1.3 0.4
v 0.4 1.3 0.3
v 0.4 1.4 0.4
v 0.4 1.4 0.3
v -0.4 1.3 0.4
v -0.4 1.3 0.3
v -0.4 1.4 0.4
v -0.4 1.4 0.3
v -0.3 0.2 -0.1
v -0.3 0.2 -0.2
v -0.3 0.3 -0.1
v -0.3 0.3 -0.2
v -0.3 0.7 0.3
v -0.3 0.7 0.2
v -0.3 0.8 0.3
v -0.3 0.8 0.2
v -0.2 0.5 0.3
v -0.2 0.5 0.2
v -0.2 0.6 0.3
v -0.2 0.6 0.2
v -0.2 0.7 0.3
v -0.2 0.7 0.2
v -0.1 0.1 0.4
v -0.1 0.1 0.2
v -0.1 0.1 -0.1
v -0.1 0.3 0.3
v -0.1 0.3 0.2
v -0.1 0.3 -0.1
v -0.1 0.4 0.4
v -0.1 0.4 0.3
v 0.2 0.1 -0.2
v 0.2 0.1 -0.3
v 0.2 0.2 -0.2
v 0.2 0.2 -0.3
v 0.3 0 0.2
v 0.3 0 -0.1
v 0.3 0.1 0.2
v 0.3 0.1 0.1
v 0.3 0.2 0.1
v 0.3 0.2 -0.1
v 0.3 0.2 -0.2
v 0.3 0.2 -0.3
v 0.3 0.5 0.3
v 0.3 0.5 0.2
v 0.3 0.6 0.3
v 0.3 0.6 0.2
v 0.3 0.7 -0.2
v 0.3 0.7 -0.3
v 0.3 0.8 -0.2
v 0.3 0.8 -0.3
v 0.3 0.8 -0.4
v 0.3 0.9 -0.2
v 0.3 0.9 -0.3
v 0.3 0.9 -0.4
v 0.4 0.2 0.2
v 0.4 0.2 -0.2
v 0.4 0.5 0.2
v 0.4 0.5 0.1
v 0.4 0.5 -0.1
v 0.4 0.7 0.3
v 0.4 0.7 0.2
v 0.4 0.7 -0.1
v 0.4 0.7 -0.2
v 0.4 0.7 -0.3
v 0.4 0.8 0.3
v 0.4 0.8 0.2
v 0.4 0.8 0
v 0.4 0.8 -0.2
v 0.4 0.8 -0.3
v 0.4 0.9 0.3
v 0.4 0.9 0
v 0.4 0.9 -0.2
v 0.4 1.6 0.3
v 0.4 1.6 -0.2
v 0.4 1.7 0.3
v 0.4 1.7 -0.2
v 0.5 0.7 0.2
v 0.5 0.7 0.1
v 0.5 0.7 -0.1
v 0.5 0.7 -0.2
v 0.5 0.8 0.2
v 0.5 0.8 -0.2
v 0.5 0.9 0.3
v 0.5 0.9 0
v 0.5 0.9 -0.4
v 0.5 1.3 0.3
v 0.5 1.3 0
v 0.5 1.3 -0.3
v 0.5 1.5 0.4
v 0.5 1.5 -0.3
v 0.5 1.5 -0.4
v 0.5 1.6 0.4
v 0.5 1.6 -0.3
v 0.6 0.5 0.3
v 0.6 0.5 0.1
v 0.6 0.5 -0.1
v 0.6 0.7 0.3
v 0.6 0.7 0.1
v 0.6 0.7 -0.1
v 0.6 1.3 0.4
v 0.6 1.3 -0.3
v 0.6 1.5 0.4
v 0.6 1.5 -0.3
v -0.6 1.3 0.4
v -0.6 1.5 0.4
v -0.5 1.5 0.4
v -0.5 1.6 0.4
v -0.4 1.3 0.4
v -0.4 1.4 0.4
v -0.3 0.1 0.4
v -0.3 0.4 0.4
v -0.1 0.1 0.4
v -0.1 0.4 0.4
v 0.4 1.3 0.4
v 0.4 1.4 0.4
v 0.5 1.5 0.4
v 0.5 1.6 0.4
v 0.6 1.3 0.4
v 0.6 1.5 0.4
v -0.5 0.9 0.3
v -0.5 1.3 0.3
v -0.4 0.5 0.3
v -0.4 0.7 0.3
v -0.4 0.8 0.3
v -0.4 0.9 0.3
v -0.4 1.3 0.3
v -0.4 1.4 0.3
v -0.4 1.6 0.3
v -0.4 1.7 0.3
v -0.3 0.5 0.3
v -0.3 0.6 0.3
v -0.3 0.7 0.3
v -0.3 0.8 0.3
v -0.3 1.1 0.3
v -0.3 1.3 0.3
v -0.2 0.5 0.3
v -0.2 0.6 0.3
v -0.2 0.7 0.3
v -0.2 1.1 0.3
v -0.2 1.3 0.3
v -0.1 0.9 0.3
v -0.1 1 0.3
v -0.1 1.1 0.3
v -0.1 1.3 0.3
v 0.1 0.6 0.3
v 0.1 0.7 0.3
v 0.1 0.9 0.3
v 0.1 1 0.3
v 0.1 1.1 0.3
v 0.1 1.3 0.3
v 0.2 0.5 0.3
v 0.2 0.6 0.3
v 0.2 1.1 0.3
v 0.2 1.3 0.3
v 0.3 0.5 0.3
v 0.3 0.6 0.3
v 0.3 0.7 0.3
v 0.3 0.8 0.3
v 0.3 1.1 0.3
v 0.3 1.3 0.3
v 0.4 0.5 0.3
v 0.4 0.6 0.3
v 0.4 0.7 0.3
v 0.4 0.8 0.3
v 0.4 0.9 0.3
v 0.4 1.3 0.3
v 0.4 1.4 0.3
v 0.4 1.6 0.3
v 0.4 1.7 0.3
v 0.5 0.9 0.3
v 0.5 1.3 0.3
v 0.6 0.5 0.3
v 0.6 0.7 0.3
v -0.5 0.7 0.2
v -0.5 0.8 0.2
v -0.4 0.2 0.2
v -0.4 0.5 0.2
v -0.4 0.7 0.2
v -0.4 0.8 0.2
v -0.3 0.2 0.2
v -0.3 0.3 0.2
v -0.3 0.5 0.2
v -0.3 0.7 0.2
v -0.3 0.8 0.2
v -0.2 0.5 0.2
v -0.2 0.6 0.2
v -0.2 0.7 0.2
v -0.2 0.8 0.2
v -0.1 0.3 0.2
v -0.1 0.7 0.2
v -0.1 0.8 0.2
v 0.1 0 0.2
v 0.1 0.1 0.2
v 0.1 0.3 0.2
v 0.1 0.6 0.2
v 0.1 0.7 0.2
v 0.1 0.8 0.2
v 0.2 0.5 0.2
v 0.2 0.6 0.2
v 0.2 0.7 0.2
v 0.2 0.8 0.2
v 0.3 0 0.2
v 0.3 0.1 0.2
v 0.3 0.2 0.2
v 0.3 0.3 0.2
v 0.3 0.5 0.2
v 0.3 0.6 0.2
v 0.3 0.7 0.2
v 0.3 0.8 0.2
v 0.4 0.2 0.2
v 0.4 0.5 0.2
v 0.4 0.6 0.2
v 0.4 0.7 0.2
v 0.4 0.8 0.2
v 0.5 0.7 0.2
v 0.5 0.8 0.2
v -0.6 0.3 0.1
v -0.6 0.5 0.1
v -0.6 0.7 0.1
v -0.5 0.7 0.1
v -0.4 0.3 0.1
v -0.4 0.5 0.1
v -0.4 0.7 0.1
v 0.1 0.1 0.1
v 0.1 0.2 0.1
v 0.1 0.3 0.1
v 0.3 0.1 0.1
v 0.3 0.2 0.1
v 0.3 0.3 0.1
v -0.3 0.2 -0.2
v -0.3 0.3 -0.2
v -0.2 0.1 -0.2
v -0.2 0.2 -0.2
v 0.2 0.1 -0.2
v 0.2 0.2 -0.2
v 0.3 0.2 -0.2
v 0.3 0.3 -0.2
v -0.3 0.3 0.3
v -0.3 0.4 0.3
v -0.1 0.3 0.3
v -0.1 0.4 0.3
v -0.6 0.3 -0.1
v -0.6 0.5 -0.1
v -0.6 0.7 -0.1
v -0.5 0.7 -0.1
v -0.4 0.3 -0.1
v -0.4 0.5 -0.1
v -0.4 0.7 -0.1
v -0.3 0.1 -0.1
v -0.3 0.2 -0.1
v -0.3 0.3 -0.1
v -0.1 0.1 -0.1
v -0.1 0.3 -0.1
v 0.1 0 -0.1
v 0.1 0.2 -0.1
v 0.1 0.3 -0.1
v 0.3 0 -0.1
v 0.3 0.2 -0.1
v 0.3 0.3 -0.1
v 0.4 0.5 -0.1
v 0.4 0.7 -0.1
v 0.5 0.7 -0.1
v 0.6 0.5 -0.1
v 0.6 0.7 -0.1
v -0.5 0.7 -0.2
v -0.5 0.8 -0.2
v -0.4 0.2 -0.2
v -0.4 0.7 -0.2
v -0.4 0.8 -0.2
v -0.4 0.9 -0.2
v -0.4 1.6 -0.2
v -0.4 1.7 -0.2
v -0.3 0.2 -0.2
v -0.3 0.7 -0.2
v -0.3 0.8 -0.2
v -0.3 0.9 -0.2
v 0.3 0.2 -0.2
v 0.3 0.7 -0.2
v 0.3 0.8 -0.2
v 0.3 0.9 -0.2
v 0.4 0.2 -0.2
v 0.4 0.7 -0.2
v 0.4 0.8 -0.2
v 0.4 0.9 -0.2
v 0.4 1.6 -0.2
v 0.4 1.7 -0.2
v 0.5 0.7 -0.2
v 0.5 0.8 -0.2
v -0.6 1.3 -0.3
v -0.6 1.5 -0.3
v -0.5 1.3 -0.3
v -0.5 1.5 -0.3
v -0.5 1.6 -0.3
v -0.4 0.7 -0.3
v -0.4 0.8 -0.3
v -0.3 0.2 -0.3
v -0.3 0.7 -0.3
v -0.3 0.8 -0.3
v -0.2 0.1 -0.3
v -0.2 0.2 -0.3
v 0.2 0.1 -0.3
v 0.2 0.2 -0.3
v 0.3 0.2 -0.3
v 0.3 0.7 -0.3
v 0.3 0.8 -0.3
v 0.4 0.7 -0.3
v 0.4 0.8 -0.3
v 0.5 1.3 -0.3
v 0.5 1.5 -0.3
v 0.5 1.6 -0.3
v 0.6 1.3 -0.3
v 0.6 1.5 -0.3
v -0.5 0.9 -0.4
v -0.5 1.5 -0.4
v -0.3 0.8 -0.4
v -0.3 0.9 -0.4
v 0.3 0.8 -0.4
v 0.3 0.9 -0.4
v 0.5 0.9 -0.4
v 0.5 1.5 -0.4
v 0.1 0 0.2
v 0.3 0 0.2
v 0.1 0 -0.1
v 0.3 0 -0.1
v -0.3 0.1 0.4
v -0.1 0.1 0.4
v -0.3 0.1 0.2
v -0.1 0.1 0.2
v -0.3 0.1 -0.1
v -0.1 0.1 -0.1
v -0.2 0.1 -0.2
v 0.2 0.1 -0.2
v -0.2 0.1 -0.3
v 0.2 0.1 -0.3
v -0.4 0.2 0.2
v -0.3 0.2 0.2
v 0.3 0.2 0.2
v 0.4 0.2 0.2
v 0.3 0.2 0.1
v -0.3 0.2 -0.1
v 0.3 0.2 -0.1
v -0.4 0.2 -0.2
v -0.3 0.2 -0.2
v -0.2 0.2 -0.2
v 0.2 0.2 -0.2
v 0.3 0.2 -0.2
v 0.4 0.2 -0.2
v -0.3 0.2 -0.3
v -0.2 0.2 -0.3
v 0.2 0.2 -0.3
v 0.3 0.2 -0.3
v -0.1 0.3 0.2
v 0.1 0.3 0.2
v 0.3 0.3 0.2
v -0.6 0.3 0.1
v -0.4 0.3 0.1
v 0.1 0.3 0.1
v 0.3 0.3 0.1
v -0.6 0.3 -0.1
v -0.4 0.3 -0.1
v -0.3 0.3 -0.1
v -0.1 0.3 -0.1
v 0.1 0.3 -0.1
v 0.3 0.3 -0.1
v -0.3 0.3 -0.2
v 0.3 0.3 -0.2
v -0.4 0.5 0.3
v -0.3 0.5 0.3
v -0.2 0.5 0.3
v 0.2 0.5 0.3
v 0.3 0.5 0.3
v 0.4 0.5 0.3
v 0.6 0.5 0.3
v -0.4 0.5 0.2
v -0.3 0.5 0.2
v -0.2 0.5 0.2
v 0.2 0.5 0.2
v 0.3 0.5 0.2
v 0.4 0.5 0.2
v 0.4 0.5 0.1
v 0.6 0.5 0.1
v 0.4 0.5 -0.1
v 0.6 0.5 -0.1
v 0.1 0.6 0.3
v 0.2 0.6 0.3
v 0.3 0.6 0.3
v 0.4 0.6 0.3
v 0.1 0.6 0.2
v 0.2 0.6 0.2
v 0.3 0.6 0.2
v 0.4 0.6 0.2
v -0.5 0.7 0.2
v -0.4 0.7 0.2
v -0.5 0.7 0.1
v -0.4 0.7 0.1
v -0.5 0.7 -0.1
v -0.4 0.7 -0.1
v 0.4 0.7 -0.1
v 0.5 0.7 -0.1
v -0.5 0.7 -0.2
v -0.4 0.7 -0.2
v -0.3 0.7 -0.2
v 0.3 0.7 -0.2
v 0.4 0.7 -0.2
v 0.5 0.7 -0.2
v -0.4 0.7 -0.3
v -0.3 0.7 -0.3
v 0.3 0.7 -0.3
v 0.4 0.7 -0.3
v -0.3 0.8 0.3
v 0.3 0.8 0.3
v -0.3 0.8 0.2
v -0.2 0.8 0.2
v -0.1 0.8 0.2
v 0.1 0.8 0.2
v 0.2 0.8 0.2
v 0.3 0.8 0.2
v -0.3 0.8 -0.3
v 0.3 0.8 -0.3
v -0.3 0.8 -0.4
v 0.3 0.8 -0.4
v -0.5 0.9 0.3
v -0.4 0.9 0.3
v 0.4 0.9 0.3
v 0.5 0.9 0.3
v -0.5 0.9 0
v -0.4 0.9 0
v 0.4 0.9 0
v 0.5 0.9 0
v -0.4 0.9 -0.2
v -0.3 0.9 -0.2
v 0.3 0.9 -0.2
v 0.4 0.9 -0.2
v -0.3 0.9 -0.3
v 0.3 0.9 -0.3
v -0.5 0.9 -0.4
v -0.3 0.9 -0.4
v 0.3 0.9 -0.4
v 0.5 0.9 -0.4
v -0.6 1.3 0.4
v -0.4 1.3 0.4
v 0.4 1.3 0.4
v 0.6 1.3 0.4
v -0.5 1.3 0.3
v -0.4 1.3 0.3
v 0.4 1.3 0.3
v 0.5 1.3 0.3
v -0.5 1.3 0
v 0.5 1.3 0
v -0.6 1.3 -0.3
v -0.5 1.3 -0.3
v 0.5 1.3 -0.3
v 0.6 1.3 -0.3
v -0.4 1.4 0.4
v 0.4 1.4 0.4
v -0.4 1.4 0.3
v 0.4 1.4 0.3
v 0.1 0.1 0.2
v 0.3 0.1 0.2
v 0.1 0.1 0.1
v 0.3 0.1 0.1
v -0.3 0.3 0.3
v -0.1 0.3 0.3
v -0.3 0.3 0.2
v -0.1 0.3 0.2
v -0.3 0.4 0.4
v -0.1 0.4 0.4
v -0.3 0.4 0.3
v -0.1 0.4 0.3
v -0.3 0.7 0.3
v -0.2 0.7 0.3
v 0.1 0.7 0.3
v 0.3 0.7 0.3
v 0.4 0.7 0.3
v 0.6 0.7 0.3
v -0.3 0.7 0.2
v -0.2 0.7 0.2
v 0.1 0.7 0.2
v 0.2 0.7 0.2
v 0.3 0.7 0.2
v 0.4 0.7 0.2
v 0.5 0.7 0.2
v -0.6 0.7 0.1
v -0.5 0.7 0.1
v 0.5 0.7 0.1
v 0.6 0.7 0.1
v -0.6 0.7 -0.1
v -0.5 0.7 -0.1
v 0.5 0.7 -0.1
v 0.6 0.7 -0.1
v -0.5 0.8 0.2
v -0.4 0.8 0.2
v 0.4 0.8 0.2
v 0.5 0.8 0.2
v -0.4 0.8 0
v 0.4 0.8 0
v -0.5 0.8 -0.2
v -0.4 0.8 -0.2
v -0.3 0.8 -0.2
v 0.3 0.8 -0.2
v 0.4 0.8 -0.2
v 0.5 0.8 -0.2
v -0.4 0.8 -0.3
v -0.3 0.8 -0.3
v 0.3 0.8 -0.3
v 0.4 0.8 -0.3
v -0.6 1.5 0.4
v -0.5 1.5 0.4
v 0.5 1.5 0.4
v 0.6 1.5 0.4
v -0.6 1.5 -0.3
v -0.5 1.5 -0.3
v 0.5 1.5 -0.3
v 0.6 1.5 -0.3
v -0.5 1.5 -0.4
v 0.5 1.5 -0.4
v -0.5 1.6 0.4
v 0.5 1.6 0.4
v -0.4 1.6 0.3
v 0.4 1.6 0.3
v -0.4 1.6 -0.2
v 0.4 1.6 -0.2
v -0.5 1.6 -0.3
v 0.5 1.6 -0.3
v -0.4 1.7 0.3
v 0.4 1.7 0.3
v -0.4 1.7 -0.2
v 0.4 1.7 -0.2

# faces
f 3/5/1 2/5/1 1/5/1
f 4/5/1 2/5/1 3/5/1
f 5/9/1 4/9/1 3/9/1
f 6/9/1 4/9/1 5/9/1
f 9/4/1 8/4/1 7/4/1
f 10/4/1 8/4/1 9/4/1
f 15/11/1 12/11/1 11/11/1
f 15/11/1 14/11/1 13/11/1
f 15/11/1 13/11/1 12/11/1
f 16/11/1 14/11/1 15/11/1
f 20/5/1 18/5/1 17/5/1
f 21/4/1 19/4/1 18/4/1
f 21/5/1 18/5/1 20/5/1
f 22/4/1 19/4/1 21/4/1
f 24/4/1 19/4/1 22/4/1
f 25/4/1 19/4/1 24/4/1
f 26/4/1 24/4/1 23/4/1
f 27/4/1 24/4/1 26/4/1
f 30/9/1 29/9/1 28/9/1
f 31/9/1 29/9/1 30/9/1
f 33/9/1 30/9/1 28/9/1
f 34/9/1 30/9/1 33/9/1
f 35/9/1 29/9/1 31/9/1
f 36/10/1 33/10/1 32/10/1
f 37/9/1 34/9/1 33/9/1
f 37/10/1 33/10/1 36/10/1
f 38/9/1 34/9/1 37/9/1
f 39/9/1 29/9/1 35/9/1
f 40/9/1 29/9/1 39/9/1
f 42/11/1 37/11/1 36/11/1
f 43/11/1 37/11/1 42/11/1
f 45/11/1 41/11/1 40/11/1
f 46/11/1 41/11/1 45/11/1
f 47/5/1 44/5/1 43/5/1
f 47/5/1 43/5/1 42/5/1
f 48/4/1 45/4/1 44/4/1
f 48/5/1 44/5/1 47/5/1
f 49/4/1 45/4/1 48/4/1
f 52/4/1 51/4/1 50/4/1
f 53/4/1 51/4/1 52/4/1
f 57/6/1 55/6/1 54/6/1
f 57/7/1 56/7/1 55/7/1
f 58/7/1 56/7/1 57/7/1
f 61/6/1 57/6/1 54/6/1
f 62/6/1 57/6/1 61/6/1
f 63/6/1 61/6/1 54/6/1
f 64/6/1 61/6/1 63/6/1
f 65/9/1 60/9/1 59/9/1
f 66/9/1 60/9/1 65/9/1
f 70/4/1 68/4/1 67/4/1
f 71/11/1 69/11/1 68/11/1
f 71/4/1 68/4/1 70/4/1
f 72/11/1 69/11/1 71/11/1
f 75/9/1 74/9/1 73/9/1
f 76/9/1 74/9/1 75/9/1
f 79/6/1 78/6/1 77/6/1
f 80/6/1 78/6/1 79/6/1
f 81/6/1 78/6/1 80/6/1
f 82/6/1 78/6/1 81/6/1
f 83/7/1 82/7/1 81/7/1
f 84/7/1 82/7/1 83/7/1
f 87/8/1 86/8/1 85/8/1
f 88/8/1 86/8/1 87/8/1
f 91/8/1 90/8/1 89/8/1
f 92/8/1 90/8/1 91/8/1
f 97/9/1 94/9/1 93/9/1
f 98/9/1 94/9/1 97/9/1
f 99/9/1 96/9/1 95/9/1
f 100/9/1 96/9/1 99/9/1
f 103/11/1 102/11/1 101/11/1
f 104/11/1 102/11/1 103/11/1
f 107/5/1 106/5/1 105/5/1
f 108/5/1 106/5/1 107/5/1
f 111/4/1 110/4/1 109/4/1
f 112/4/1 110/4/1 111/4/1
f 113/4/2 114/4/2 115/4/2
f 115/4/2 114/4/2 116/4/2
f 117/9/2 118/9/2 119/9/2
f 119/9/2 118/9/2 120/9/2
f 121/11/2 122/11/2 123/11/2
f 123/11/2 122/11/2 124/11/2
f 125/8/2 126/8/2 127/8/2
f 127/8/2 126/8/2 128/8/2
f 127/10/2 128/10/2 129/10/2
f 129/10/2 128/10/2 130/10/2
f 131/6/2 132/6/2 134/6/2
f 132/7/2 133/7/2 135/7/2
f 134/6/2 132/6/2 135/6/2
f 135/7/2 133/7/2 136/7/2
f 131/6/2 134/6/2 137/6/2
f 137/6/2 134/6/2 138/6/2
f 139/9/2 140/9/2 141/9/2
f 141/9/2 140/9/2 142/9/2
f 143/6/2 144/6/2 145/6/2
f 145/6/2 144/6/2 146/6/2
f 146/6/2 144/6/2 147/6/2
f 147/6/2 144/6/2 148/6/2
f 151/8/2 152/8/2 153/8/2
f 153/8/2 152/8/2 154/8/2
f 149/9/2 150/9/2 155/9/2
f 155/9/2 150/9/2 156/9/2
f 157/4/2 158/4/2 160/4/2
f 158/11/2 159/11/2 161/11/2
f 160/4/2 158/4/2 161/4/2
f 161/11/2 159/11/2 162/11/2
f 163/9/2 164/9/2 165/9/2
f 165/9/2 164/9/2 166/9/2
f 166/9/2 164/9/2 167/9/2
f 167/9/2 164/9/2 170/9/2
f 170/9/2 164/9/2 171/9/2
f 168/11/2 169/11/2 173/11/2
f 173/11/2 169/11/2 174/11/2
f 171/11/2 172/11/2 176/11/2
f 176/11/2 172/11/2 177/11/2
f 174/5/2 175/5/2 178/5/2
f 173/5/2 174/5/2 178/5/2
f 175/4/2 176/4/2 179/4/2
f 178/5/2 175/5/2 179/5/2
f 179/4/2 176/4/2 180/4/2
f 181/4/2 182/4/2 183/4/2
f 183/4/2 182/4/2 184/4/2
f 185/11/2 186/11/2 189/11/2
f 187/11/2 188/11/2 189/11/2
f 186/11/2 187/11/2 189/11/2
f 189/11/2 188/11/2 190/11/2
f 191/5/2 192/5/2 194/5/2
f 192/4/2 193/4/2 195/4/2
f 194/5/2 192/5/2 195/5/2
f 195/4/2 193/4/2 196/4/2
f 196/4/2 193/4/2 198/4/2
f 198/4/2 193/4/2 199/4/2
f 197/4/2 198/4/2 200/4/2
f 200/4/2 198/4/2 201/4/2
f 202/5/2 203/5/2 205/5/2
f 203/9/2 204/9/2 206/9/2
f 205/5/2 203/5/2 206/5/2
f 206/9/2 204/9/2 207/9/2
f 208/4/2 209/4/2 210/4/2
f 210/4/2 209/4/2 211/4/2
f 214/4/3 213/4/3 212/4/3
f 216/4/3 214/4/3 212/4/3
f 216/4/3 215/4/3 214/4/3
f 217/4/3 215/4/3 216/4/3
f 220/6/3 219/6/3 218/6/3
f 221/6/3 219/6/3 220/6/3
f 223/4/3 215/4/3 217/4/3
f 224/4/3 215/4/3 223/4/3
f 224/4/3 223/4/3 222/4/3
f 225/4/3 215/4/3 224/4/3
f 226/4/3 224/4/3 222/4/3
f 227/4/3 224/4/3 226/4/3
f 233/5/3 229/5/3 228/5/3
f 234/5/3 229/5/3 233/5/3
f 238/10/3 231/10/3 230/10/3
f 239/10/3 231/10/3 238/10/3
f 240/11/3 232/11/3 231/11/3
f 240/10/3 231/10/3 239/10/3
f 241/5/3 233/5/3 232/5/3
f 241/11/3 232/11/3 240/11/3
f 241/5/3 234/5/3 233/5/3
f 241/5/3 235/5/3 234/5/3
f 242/5/3 235/5/3 241/5/3
f 243/5/3 235/5/3 242/5/3
f 244/8/3 239/8/3 238/8/3
f 245/10/3 240/10/3 239/10/3
f 245/8/3 239/8/3 244/8/3
f 246/10/3 240/10/3 245/10/3
f 247/9/3 243/9/3 242/9/3
f 247/5/3 242/5/3 241/5/3
f 248/5/3 235/5/3 243/5/3
f 248/9/3 243/9/3 247/9/3
f 249/5/3 247/5/3 241/5/3
f 250/5/3 247/5/3 249/5/3
f 251/12/3 248/12/3 247/12/3
f 251/5/3 247/5/3 250/5/3
f 252/5/3 235/5/3 248/5/3
f 252/12/3 248/12/3 251/12/3
f 255/1/3 250/1/3 249/1/3
f 255/5/3 249/5/3 241/5/3
f 256/5/3 251/5/3 250/5/3
f 256/1/3 250/1/3 255/1/3
f 256/5/3 252/5/3 251/5/3
f 257/5/3 252/5/3 256/5/3
f 258/5/3 235/5/3 252/5/3
f 258/5/3 252/5/3 257/5/3
f 260/8/3 254/8/3 253/8/3
f 261/5/3 257/5/3 256/5/3
f 261/5/3 256/5/3 255/5/3
f 261/12/3 258/12/3 257/12/3
f 262/5/3 235/5/3 258/5/3
f 262/12/3 258/12/3 261/12/3
f 263/8/3 260/8/3 259/8/3
f 264/8/3 254/8/3 260/8/3
f 264/8/3 260/8/3 263/8/3
f 265/8/3 254/8/3 264/8/3
f 266/5/3 255/5/3 241/5/3
f 266/5/3 261/5/3 255/5/3
f 267/9/3 262/9/3 261/9/3
f 267/5/3 261/5/3 266/5/3
f 268/5/3 235/5/3 262/5/3
f 268/9/3 262/9/3 267/9/3
f 270/11/3 265/11/3 264/11/3
f 270/11/3 266/11/3 265/11/3
f 271/11/3 266/11/3 270/11/3
f 272/5/3 268/5/3 267/5/3
f 272/11/3 266/11/3 271/11/3
f 272/5/3 267/5/3 266/5/3
f 273/5/3 268/5/3 272/5/3
f 274/5/3 235/5/3 268/5/3
f 274/5/3 268/5/3 273/5/3
f 275/5/3 235/5/3 274/5/3
f 276/4/3 237/4/3 236/4/3
f 277/4/3 237/4/3 276/4/3
f 278/5/3 274/5/3 273/5/3
f 279/5/3 274/5/3 278/5/3
f 280/5/3 271/5/3 270/5/3
f 280/5/3 270/5/3 269/5/3
f 281/5/3 271/5/3 280/5/3
f 286/11/3 283/11/3 282/11/3
f 287/11/3 283/11/3 286/11/3
f 288/9/3 285/9/3 284/9/3
f 289/9/3 285/9/3 288/9/3
f 290/9/3 285/9/3 289/9/3
f 293/9/3 290/9/3 289/9/3
f 295/9/3 292/9/3 291/9/3
f 296/9/3 292/9/3 295/9/3
f 297/9/3 294/9/3 293/9/3
f 297/9/3 293/9/3 289/9/3
f 297/9/3 295/9/3 294/9/3
f 298/7/3 296/7/3 295/7/3
f 298/9/3 295/9/3 297/9/3
f 299/7/3 296/7/3 298/7/3
f 302/7/3 298/7/3 297/7/3
f 303/7/3 298/7/3 302/7/3
f 304/5/3 299/5/3 298/5/3
f 304/7/3 298/7/3 303/7/3
f 305/5/3 299/5/3 304/5/3
f 306/9/3 303/9/3 302/9/3
f 307/9/3 303/9/3 306/9/3
f 308/7/3 305/7/3 304/7/3
f 309/7/3 305/7/3 308/7/3
f 310/6/3 301/6/3 300/6/3
f 311/6/3 301/6/3 310/6/3
f 313/9/3 306/9/3 302/9/3
f 314/9/3 306/9/3 313/9/3
f 316/9/3 309/9/3 308/9/3
f 317/9/3 309/9/3 316/9/3
f 318/9/3 315/9/3 314/9/3
f 318/9/3 313/9/3 312/9/3
f 318/9/3 314/9/3 313/9/3
f 319/9/3 315/9/3 318/9/3
f 320/9/3 315/9/3 319/9/3
f 323/11/3 322/11/3 321/11/3
f 324/11/3 322/11/3 323/11/3
f 328/9/3 327/9/3 326/9/3
f 329/5/3 326/5/3 325/5/3
f 330/9/3 328/9/3 326/9/3
f 330/5/3 326/5/3 329/5/3
f 331/9/3 328/9/3 330/9/3
f 335/6/3 333/6/3 332/6/3
f 336/7/3 334/7/3 333/7/3
f 336/6/3 333/6/3 335/6/3
f 337/7/3 334/7/3 336/7/3
f 341/9/3 339/9/3 338/9/3
f 342/9/3 341/9/3 340/9/3
f 343/9/3 339/9/3 341/9/3
f 343/9/3 341/9/3 342/9/3
f 344/9/3 339/9/3 343/9/3
f 345/9/3 339/9/3 344/9/3
f 346/6/4 347/6/4 348/6/4
f 348/6/4 347/6/4 349/6/4
f 351/9/4 352/9/4 353/9/4
f 350/5/4 351/5/4 354/5/4
f 351/9/4 353/9/4 355/9/4
f 354/5/4 351/5/4 355/5/4
f 355/9/4 353/9/4 356/9/4
f 357/7/4 358/7/4 360/7/4
f 358/7/4 359/7/4 360/7/4
f 360/7/4 359/7/4 361/7/4
f 362/6/4 363/6/4 365/6/4
f 363/7/4 364/7/4 366/7/4
f 365/6/4 363/6/4 366/6/4
f 366/7/4 364/7/4 367/7/4
f 368/9/4 369/9/4 370/9/4
f 368/9/4 370/9/4 371/9/4
f 371/9/4 370/9/4 372/9/4
f 373/11/4 374/11/4 376/11/4
f 376/11/4 374/11/4 377/11/4
f 375/9/4 376/9/4 381/9/4
f 381/9/4 376/9/4 382/9/4
f 377/4/4 378/4/4 383/4/4
f 383/4/4 378/4/4 384/4/4
f 385/9/4 386/9/4 389/9/4
f 389/9/4 386/9/4 390/9/4
f 387/4/4 388/4/4 391/4/4
f 391/4/4 388/4/4 392/4/4
f 379/4/4 380/4/4 393/4/4
f 393/4/4 380/4/4 394/4/4
f 390/11/4 391/11/4 395/11/4
f 395/11/4 391/11/4 396/11/4
f 397/4/4 398/4/4 399/4/4
f 399/4/4 398/4/4 400/4/4
f 402/11/4 403/11/4 405/11/4
f 405/11/4 403/11/4 406/11/4
f 404/9/4 405/9/4 408/9/4
f 405/9/4 406/9/4 408/9/4
f 407/9/4 408/9/4 409/9/4
f 408/9/4 406/9/4 410/9/4
f 409/9/4 408/9/4 410/9/4
f 410/9/4 406/9/4 411/9/4
f 411/9/4 406/9/4 412/9/4
f 412/9/4 406/9/4 413/9/4
f 412/11/4 413/11/4 414/11/4
f 414/11/4 413/11/4 415/11/4
f 400/4/4 401/4/4 417/4/4
f 417/4/4 401/4/4 418/4/4
f 416/4/4 417/4/4 419/4/4
f 419/4/4 417/4/4 420/4/4
f 421/4/4 422/4/4 424/4/4
f 423/11/4 424/11/4 425/11/4
f 424/4/4 422/4/4 426/4/4
f 425/11/4 424/11/4 426/11/4
f 426/4/4 422/4/4 427/4/4
f 427/4/4 422/4/4 428/4/4
f 431/6/5 430/6/5 429/6/5
f 432/6/5 430/6/5 431/6/5
f 435/6/5 434/6/5 433/6/5
f 436/6/5 434/6/5 435/6/5
f 437/7/5 436/7/5 435/7/5
f 438/7/5 436/7/5 437/7/5
f 441/9/5 440/9/5 439/9/5
f 442/9/5 440/9/5 441/9/5
f 447/9/5 446/9/5 445/9/5
f 448/9/5 444/9/5 443/9/5
f 449/9/5 446/9/5 447/9/5
f 450/9/5 448/9/5 443/9/5
f 451/9/5 448/9/5 450/9/5
f 454/9/5 446/9/5 449/9/5
f 455/9/5 446/9/5 454/9/5
f 456/9/5 452/9/5 451/9/5
f 457/9/5 452/9/5 456/9/5
f 458/9/5 454/9/5 453/9/5
f 459/9/5 454/9/5 458/9/5
f 465/7/5 461/7/5 460/7/5
f 465/9/5 462/9/5 461/9/5
f 466/9/5 462/9/5 465/9/5
f 467/5/5 464/5/5 463/5/5
f 468/5/5 464/5/5 467/5/5
f 470/7/5 465/7/5 460/7/5
f 471/7/5 465/7/5 470/7/5
f 473/7/5 472/7/5 471/7/5
f 473/7/5 471/7/5 470/7/5
f 473/7/5 470/7/5 469/7/5
f 474/7/5 472/7/5 473/7/5
f 482/10/5 476/10/5 475/10/5
f 483/8/5 477/8/5 476/8/5
f 483/10/5 476/10/5 482/10/5
f 484/8/5 477/8/5 483/8/5
f 485/8/5 479/8/5 478/8/5
f 486/8/5 479/8/5 485/8/5
f 487/5/5 481/5/5 480/5/5
f 488/5/5 481/5/5 487/5/5
f 489/5/5 481/5/5 488/5/5
f 490/9/5 489/9/5 488/9/5
f 491/9/5 489/9/5 490/9/5
f 496/8/5 493/8/5 492/8/5
f 497/8/5 493/8/5 496/8/5
f 498/11/5 495/11/5 494/11/5
f 499/11/5 495/11/5 498/11/5
f 502/11/5 501/11/5 500/11/5
f 503/11/5 501/11/5 502/11/5
f 508/11/5 505/11/5 504/11/5
f 509/11/5 505/11/5 508/11/5
f 512/11/5 507/11/5 506/11/5
f 513/11/5 507/11/5 512/11/5
f 514/11/5 510/11/5 509/11/5
f 515/11/5 510/11/5 514/11/5
f 516/11/5 512/11/5 511/11/5
f 517/11/5 512/11/5 516/11/5
f 520/5/5 519/5/5 518/5/5
f 521/5/5 519/5/5 520/5/5
f 522/5/5 519/5/5 521/5/5
f 523/5/5 519/5/5 522/5/5
f 524/5/5 519/5/5 523/5/5
f 525/5/5 519/5/5 524/5/5
f 528/11/5 527/11/5 526/11/5
f 529/11/5 527/11/5 528/11/5
f 534/5/5 531/5/5 530/5/5
f 535/5/5 531/5/5 534/5/5
f 536/5/5 533/5/5 532/5/5
f 537/5/5 533/5/5 536/5/5
f 538/4/5 535/4/5 534/4/5
f 541/4/5 537/4/5 536/4/5
f 542/4/5 539/4/5 538/4/5
f 543/4/5 541/4/5 540/4/5
f 544/4/5 542/4/5 538/4/5
f 544/4/5 538/4/5 534/4/5
f 545/4/5 542/4/5 544/4/5
f 546/4/5 541/4/5 543/4/5
f 547/4/5 537/4/5 541/4/5
f 547/4/5 541/4/5 546/4/5
f 552/4/5 549/4/5 548/4/5
f 553/4/5 549/4/5 552/4/5
f 554/4/5 551/4/5 550/4/5
f 555/4/5 551/4/5 554/4/5
f 556/4/5 552/4/5 548/4/5
f 557/4/5 551/4/5 555/4/5
f 558/4/5 556/4/5 548/4/5
f 559/4/5 556/4/5 558/4/5
f 560/4/5 551/4/5 557/4/5
f 561/4/5 551/4/5 560/4/5
f 564/4/5 563/4/5 562/4/5
f 565/4/5 563/4/5 564/4/5
f 566/6/6 567/6/6 568/6/6
f 568/6/6 567/6/6 569/6/6
f 570/6/6 571/6/6 572/6/6
f 572/6/6 571/6/6 573/6/6
f 574/6/6 575/6/6 576/6/6
f 576/6/6 575/6/6 577/6/6
f 578/10/6 579/10/6 584/10/6
f 584/10/6 579/10/6 585/10/6
f 580/8/6 581/8/6 586/8/6
f 586/8/6 581/8/6 587/8/6
f 587/8/6 581/8/6 588/8/6
f 582/5/6 583/5/6 589/5/6
f 589/5/6 583/5/6 590/5/6
f 590/5/6 583/5/6 593/5/6
f 593/5/6 583/5/6 594/5/6
f 591/9/6 592/9/6 595/9/6
f 595/9/6 592/9/6 596/9/6
f 593/9/6 594/9/6 597/9/6
f 597/9/6 594/9/6 598/9/6
f 599/11/6 600/11/6 603/11/6
f 601/11/6 602/11/6 604/11/6
f 599/11/6 603/11/6 605/11/6
f 605/11/6 603/11/6 606/11/6
f 604/11/6 602/11/6 609/11/6
f 609/11/6 602/11/6 610/11/6
f 606/11/6 607/11/6 611/11/6
f 611/11/6 607/11/6 612/11/6
f 608/11/6 609/11/6 613/11/6
f 613/11/6 609/11/6 614/11/6
f 615/4/6 616/4/6 619/4/6
f 619/4/6 616/4/6 620/4/6
f 617/4/6 618/4/6 621/4/6
f 621/4/6 618/4/6 622/4/6
f 620/4/6 621/4/6 623/4/6
f 623/4/6 621/4/6 624/4/6
f 625/4/6 626/4/6 627/4/6
f 627/4/6 626/4/6 628/4/6
f 625/4/6 627/4/6 629/4/6
f 628/4/6 626/4/6 630/4/6
f 625/4/6 629/4/6 631/4/6
f 629/4/6 630/4/6 631/4/6
f 630/4/6 626/4/6 632/4/6
f 631/4/6 630/4/6 632/4/6
f 633/4/6 634/4/6 635/4/6
f 635/4/6 634/4/6 636/4/6
