# MagicaVoxel @ Ephtracy

# group
o 

# material
mtllib Medic_Walk1.vox.mtl
usemtl palette

# normals
vn -1 0 0
vn 1 0 0
vn 0 0 1
vn 0 0 -1
vn 0 -1 0
vn 0 1 0

# texcoords
vt 0.0839844 0.5
vt 0.287109 0.5
vt 0.291016 0.5
vt 0.310547 0.5
vt 0.365234 0.5
vt 0.748047 0.5
vt 0.951172 0.5
vt 0.958984 0.5
vt 0.978516 0.5
vt 0.982422 0.5
vt 0.994141 0.5

# verts
v -0.6 0.5 0.3
v -0.6 0.5 0.1
v -0.6 0.5 -0.1
v -0.6 0.7 0.3
v -0.6 0.7 0.1
v -0.6 0.7 -0.1
v -0.6 1.3 0.4
v -0.6 1.3 -0.3
v -0.6 1.5 0.4
v -0.6 1.5 -0.3
v -0.5 0.7 0.2
v -0.5 0.7 0.1
v -0.5 0.7 -0.1
v -0.5 0.7 -0.2
v -0.5 0.8 0.2
v -0.5 0.8 -0.2
v -0.5 0.9 0.3
v -0.5 0.9 0
v -0.5 0.9 -0.4
v -0.5 1.3 0.3
v -0.5 1.3 0
v -0.5 1.3 -0.3
v -0.5 1.5 0.4
v -0.5 1.5 -0.3
v -0.5 1.5 -0.4
v -0.5 1.6 0.4
v -0.5 1.6 -0.3
v -0.4 0.2 0.2
v -0.4 0.2 -0.2
v -0.4 0.5 0.2
v -0.4 0.5 0.1
v -0.4 0.5 -0.1
v -0.4 0.7 0.3
v -0.4 0.7 0.2
v -0.4 0.7 -0.1
v -0.4 0.7 -0.2
v -0.4 0.7 -0.3
v -0.4 0.8 0.3
v -0.4 0.8 0.2
v -0.4 0.8 0
v -0.4 0.8 -0.2
v -0.4 0.8 -0.3
v -0.4 0.9 0.3
v -0.4 0.9 0
v -0.4 0.9 -0.2
v -0.4 1.6 0.3
v -0.4 1.6 -0.2
v -0.4 1.7 0.3
v -0.4 1.7 -0.2
v -0.3 0 0.2
v -0.3 0 -0.1
v -0.3 0.1 0.2
v -0.3 0.1 0.1
v -0.3 0.2 0.1
v -0.3 0.2 -0.1
v -0.3 0.2 -0.2
v -0.3 0.2 -0.3
v -0.3 0.5 0.3
v -0.3 0.5 0.2
v -0.3 0.6 0.3
v -0.3 0.6 0.2
v -0.3 0.7 -0.2
v -0.3 0.7 -0.3
v -0.3 0.8 -0.2
v -0.3 0.8 -0.3
v -0.3 0.8 -0.4
v -0.3 0.9 -0.2
v -0.3 0.9 -0.3
v -0.3 0.9 -0.4
v -0.2 0.1 -0.2
v -0.2 0.1 -0.3
v -0.2 0.2 -0.2
v -0.2 0.2 -0.3
v 0.1 0.1 0.4
v 0.1 0.1 0.2
v 0.1 0.1 -0.1
v 0.1 0.3 0.3
v 0.1 0.3 0.2
v 0.1 0.3 -0.1
v 0.1 0.4 0.4
v 0.1 0.4 0.3
v 0.2 0.5 0.3
v 0.2 0.5 0.2
v 0.2 0.6 0.3
v 0.2 0.6 0.2
v 0.2 0.7 0.3
v 0.2 0.7 0.2
v 0.3 0.2 -0.1
v 0.3 0.2 -0.2
v 0.3 0.3 -0.1
v 0.3 0.3 -0.2
v 0.3 0.7 0.3
v 0.3 0.7 0.2
v 0.3 0.8 0.3
v 0.3 0.8 0.2
v 0.4 1.3 0.4
v 0.4 1.3 0.3
v 0.4 1.4 0.4
v 0.4 1.4 0.3
v -0.4 0.5 0.3
v -0.4 0.5 0.2
v -0.4 0.6 0.3
v -0.4 0.6 0.2
v -0.4 1.3 0.4
v -0.4 1.3 0.3
v -0.4 1.4 0.4
v -0.4 1.4 0.3
v -0.3 0.2 0.2
v -0.3 0.2 0.1
v -0.3 0.2 -0.1
v -0.3 0.2 -0.2
v -0.3 0.3 0.2
v -0.3 0.3 0.1
v -0.3 0.3 -0.1
v -0.3 0.3 -0.2
v -0.3 0.7 0.3
v -0.3 0.7 0.2
v -0.3 0.8 0.3
v -0.3 0.8 0.2
v -0.2 0.5 0.3
v -0.2 0.5 0.2
v -0.2 0.6 0.3
v -0.2 0.6 0.2
v -0.1 0 0.2
v -0.1 0 -0.1
v -0.1 0.1 0.2
v -0.1 0.1 0.1
v -0.1 0.2 0.1
v -0.1 0.2 -0.1
v -0.1 0.3 0.1
v -0.1 0.3 -0.1
v -0.1 0.6 0.3
v -0.1 0.6 0.2
v -0.1 0.7 0.3
v -0.1 0.7 0.2
v 0.2 0.1 -0.2
v 0.2 0.1 -0.3
v 0.2 0.2 -0.2
v 0.2 0.2 -0.3
v 0.3 0.1 0.4
v 0.3 0.1 0.2
v 0.3 0.1 -0.1
v 0.3 0.2 0.2
v 0.3 0.2 -0.1
v 0.3 0.2 -0.2
v 0.3 0.2 -0.3
v 0.3 0.3 0.3
v 0.3 0.3 0.2
v 0.3 0.4 0.4
v 0.3 0.4 0.3
v 0.3 0.7 -0.2
v 0.3 0.7 -0.3
v 0.3 0.8 -0.2
v 0.3 0.8 -0.3
v 0.3 0.8 -0.4
v 0.3 0.9 -0.2
v 0.3 0.9 -0.3
v 0.3 0.9 -0.4
v 0.4 0.2 0.2
v 0.4 0.2 -0.2
v 0.4 0.3 0.1
v 0.4 0.3 -0.1
v 0.4 0.5 0.3
v 0.4 0.5 0.2
v 0.4 0.5 0.1
v 0.4 0.5 -0.1
v 0.4 0.7 0.3
v 0.4 0.7 0.2
v 0.4 0.7 0.1
v 0.4 0.7 -0.1
v 0.4 0.7 -0.2
v 0.4 0.7 -0.3
v 0.4 0.8 0.3
v 0.4 0.8 0.2
v 0.4 0.8 0
v 0.4 0.8 -0.2
v 0.4 0.8 -0.3
v 0.4 0.9 0.3
v 0.4 0.9 0
v 0.4 0.9 -0.2
v 0.4 1.6 0.3
v 0.4 1.6 -0.2
v 0.4 1.7 0.3
v 0.4 1.7 -0.2
v 0.5 0.7 0.2
v 0.5 0.7 0.1
v 0.5 0.7 -0.1
v 0.5 0.7 -0.2
v 0.5 0.8 0.2
v 0.5 0.8 -0.2
v 0.5 0.9 0.3
v 0.5 0.9 0
v 0.5 0.9 -0.4
v 0.5 1.3 0.3
v 0.5 1.3 0
v 0.5 1.3 -0.3
v 0.5 1.5 0.4
v 0.5 1.5 -0.3
v 0.5 1.5 -0.4
v 0.5 1.6 0.4
v 0.5 1.6 -0.3
v 0.6 0.3 0.1
v 0.6 0.3 -0.1
v 0.6 0.5 0.1
v 0.6 0.5 -0.1
v 0.6 0.7 0.1
v 0.6 0.7 -0.1
v 0.6 1.3 0.4
v 0.6 1.3 -0.3
v 0.6 1.5 0.4
v 0.6 1.5 -0.3
v -0.6 1.3 0.4
v -0.6 1.5 0.4
v -0.5 1.5 0.4
v -0.5 1.6 0.4
v -0.4 1.3 0.4
v -0.4 1.4 0.4
v 0.1 0.1 0.4
v 0.1 0.4 0.4
v 0.3 0.1 0.4
v 0.3 0.4 0.4
v 0.4 1.3 0.4
v 0.4 1.4 0.4
v 0.5 1.5 0.4
v 0.5 1.6 0.4
v 0.6 1.3 0.4
v 0.6 1.5 0.4
v -0.6 0.5 0.3
v -0.6 0.7 0.3
v -0.5 0.9 0.3
v -0.5 1.3 0.3
v -0.4 0.5 0.3
v -0.4 0.6 0.3
v -0.4 0.7 0.3
v -0.4 0.8 0.3
v -0.4 0.9 0.3
v -0.4 1.3 0.3
v -0.4 1.4 0.3
v -0.4 1.6 0.3
v -0.4 1.7 0.3
v -0.3 0.5 0.3
v -0.3 0.6 0.3
v -0.3 0.7 0.3
v -0.3 0.8 0.3
v -0.3 1.1 0.3
v -0.3 1.3 0.3
v -0.2 0.5 0.3
v -0.2 0.6 0.3
v -0.2 1.1 0.3
v -0.2 1.3 0.3
v -0.1 0.6 0.3
v -0.1 0.7 0.3
v -0.1 0.9 0.3
v -0.1 1 0.3
v -0.1 1.1 0.3
v -0.1 1.3 0.3
v 0.1 0.9 0.3
v 0.1 1 0.3
v 0.1 1.1 0.3
v 0.1 1.3 0.3
v 0.2 0.5 0.3
v 0.2 0.6 0.3
v 0.2 0.7 0.3
v 0.2 1.1 0.3
v 0.2 1.3 0.3
v 0.3 0.5 0.3
v 0.3 0.6 0.3
v 0.3 0.7 0.3
v 0.3 0.8 0.3
v 0.3 1.1 0.3
v 0.3 1.3 0.3
v 0.4 0.5 0.3
v 0.4 0.7 0.3
v 0.4 0.8 0.3
v 0.4 0.9 0.3
v 0.4 1.3 0.3
v 0.4 1.4 0.3
v 0.4 1.6 0.3
v 0.4 1.7 0.3
v 0.5 0.9 0.3
v 0.5 1.3 0.3
v -0.5 0.7 0.2
v -0.5 0.8 0.2
v -0.4 0.2 0.2
v -0.4 0.5 0.2
v -0.4 0.6 0.2
v -0.4 0.7 0.2
v -0.4 0.8 0.2
v -0.3 0 0.2
v -0.3 0.1 0.2
v -0.3 0.2 0.2
v -0.3 0.3 0.2
v -0.3 0.5 0.2
v -0.3 0.6 0.2
v -0.3 0.7 0.2
v -0.3 0.8 0.2
v -0.2 0.5 0.2
v -0.2 0.6 0.2
v -0.2 0.7 0.2
v -0.2 0.8 0.2
v -0.1 0 0.2
v -0.1 0.1 0.2
v -0.1 0.3 0.2
v -0.1 0.6 0.2
v -0.1 0.7 0.2
v -0.1 0.8 0.2
v 0.1 0.3 0.2
v 0.1 0.7 0.2
v 0.1 0.8 0.2
v 0.2 0.5 0.2
v 0.2 0.6 0.2
v 0.2 0.7 0.2
v 0.2 0.8 0.2
v 0.3 0.2 0.2
v 0.3 0.3 0.2
v 0.3 0.5 0.2
v 0.3 0.7 0.2
v 0.3 0.8 0.2
v 0.4 0.2 0.2
v 0.4 0.5 0.2
v 0.4 0.7 0.2
v 0.4 0.8 0.2
v 0.5 0.7 0.2
v 0.5 0.8 0.2
v -0.3 0.1 0.1
v -0.3 0.2 0.1
v -0.3 0.3 0.1
v -0.1 0.1 0.1
v -0.1 0.2 0.1
v -0.1 0.3 0.1
v 0.4 0.3 0.1
v 0.4 0.5 0.1
v 0.4 0.7 0.1
v 0.5 0.7 0.1
v 0.6 0.3 0.1
v 0.6 0.5 0.1
v 0.6 0.7 0.1
v -0.3 0.2 -0.2
v -0.3 0.3 -0.2
v -0.2 0.1 -0.2
v -0.2 0.2 -0.2
v 0.2 0.1 -0.2
v 0.2 0.2 -0.2
v 0.3 0.2 -0.2
v 0.3 0.3 -0.2
v 0.1 0.3 0.3
v 0.1 0.4 0.3
v 0.3 0.3 0.3
v 0.3 0.4 0.3
v -0.6 0.5 -0.1
v -0.6 0.7 -0.1
v -0.5 0.7 -0.1
v -0.4 0.5 -0.1
v -0.4 0.7 -0.1
v -0.3 0 -0.1
v -0.3 0.2 -0.1
v -0.3 0.3 -0.1
v -0.1 0 -0.1
v -0.1 0.2 -0.1
v -0.1 0.3 -0.1
v 0.1 0.1 -0.1
v 0.1 0.3 -0.1
v 0.3 0.1 -0.1
v 0.3 0.2 -0.1
v 0.3 0.3 -0.1
v 0.4 0.3 -0.1
v 0.4 0.5 -0.1
v 0.4 0.7 -0.1
v 0.5 0.7 -0.1
v 0.6 0.3 -0.1
v 0.6 0.5 -0.1
v 0.6 0.7 -0.1
v -0.5 0.7 -0.2
v -0.5 0.8 -0.2
v -0.4 0.2 -0.2
v -0.4 0.7 -0.2
v -0.4 0.8 -0.2
v -0.4 0.9 -0.2
v -0.4 1.6 -0.2
v -0.4 1.7 -0.2
v -0.3 0.2 -0.2
v -0.3 0.7 -0.2
v -0.3 0.8 -0.2
v -0.3 0.9 -0.2
v 0.3 0.2 -0.2
v 0.3 0.7 -0.2
v 0.3 0.8 -0.2
v 0.3 0.9 -0.2
v 0.4 0.2 -0.2
v 0.4 0.7 -0.2
v 0.4 0.8 -0.2
v 0.4 0.9 -0.2
v 0.4 1.6 -0.2
v 0.4 1.7 -0.2
v 0.5 0.7 -0.2
v 0.5 0.8 -0.2
v -0.6 1.3 -0.3
v -0.6 1.5 -0.3
v -0.5 1.3 -0.3
v -0.5 1.5 -0.3
v -0.5 1.6 -0.3
v -0.4 0.7 -0.3
v -0.4 0.8 -0.3
v -0.3 0.2 -0.3
v -0.3 0.7 -0.3
v -0.3 0.8 -0.3
v -0.2 0.1 -0.3
v -0.2 0.2 -0.3
v 0.2 0.1 -0.3
v 0.2 0.2 -0.3
v 0.3 0.2 -0.3
v 0.3 0.7 -0.3
v 0.3 0.8 -0.3
v 0.4 0.7 -0.3
v 0.4 0.8 -0.3
v 0.5 1.3 -0.3
v 0.5 1.5 -0.3
v 0.5 1.6 -0.3
v 0.6 1.3 -0.3
v 0.6 1.5 -0.3
v -0.5 0.9 -0.4
v -0.5 1.5 -0.4
v -0.3 0.8 -0.4
v -0.3 0.9 -0.4
v 0.3 0.8 -0.4
v 0.3 0.9 -0.4
v 0.5 0.9 -0.4
v 0.5 1.5 -0.4
v -0.3 0 0.2
v -0.1 0 0.2
v -0.3 0 -0.1
v -0.1 0 -0.1
v 0.1 0.1 0.4
v 0.3 0.1 0.4
v 0.1 0.1 0.2
v 0.3 0.1 0.2
v 0.1 0.1 -0.1
v 0.3 0.1 -0.1
v -0.2 0.1 -0.2
v 0.2 0.1 -0.2
v -0.2 0.1 -0.3
v 0.2 0.1 -0.3
v -0.4 0.2 0.2
v -0.3 0.2 0.2
v 0.3 0.2 0.2
v 0.4 0.2 0.2
v -0.3 0.2 0.1
v -0.3 0.2 -0.1
v 0.3 0.2 -0.1
v -0.4 0.2 -0.2
v -0.3 0.2 -0.2
v -0.2 0.2 -0.2
v 0.2 0.2 -0.2
v 0.3 0.2 -0.2
v 0.4 0.2 -0.2
v -0.3 0.2 -0.3
v -0.2 0.2 -0.3
v 0.2 0.2 -0.3
v 0.3 0.2 -0.3
v -0.3 0.3 0.2
v -0.1 0.3 0.2
v 0.1 0.3 0.2
v -0.3 0.3 0.1
v -0.1 0.3 0.1
v 0.4 0.3 0.1
v 0.6 0.3 0.1
v -0.3 0.3 -0.1
v -0.1 0.3 -0.1
v 0.1 0.3 -0.1
v 0.3 0.3 -0.1
v 0.4 0.3 -0.1
v 0.6 0.3 -0.1
v -0.3 0.3 -0.2
v 0.3 0.3 -0.2
v -0.6 0.5 0.3
v -0.4 0.5 0.3
v -0.3 0.5 0.3
v -0.2 0.5 0.3
v 0.2 0.5 0.3
v 0.3 0.5 0.3
v 0.4 0.5 0.3
v -0.4 0.5 0.2
v -0.3 0.5 0.2
v -0.2 0.5 0.2
v 0.2 0.5 0.2
v 0.3 0.5 0.2
v 0.4 0.5 0.2
v -0.6 0.5 0.1
v -0.4 0.5 0.1
v -0.6 0.5 -0.1
v -0.4 0.5 -0.1
v -0.4 0.6 0.3
v -0.3 0.6 0.3
v -0.2 0.6 0.3
v -0.1 0.6 0.3
v -0.4 0.6 0.2
v -0.3 0.6 0.2
v -0.2 0.6 0.2
v -0.1 0.6 0.2
v 0.4 0.7 0.2
v 0.5 0.7 0.2
v 0.4 0.7 0.1
v 0.5 0.7 0.1
v -0.5 0.7 -0.1
v -0.4 0.7 -0.1
v 0.4 0.7 -0.1
v 0.5 0.7 -0.1
v -0.5 0.7 -0.2
v -0.4 0.7 -0.2
v -0.3 0.7 -0.2
v 0.3 0.7 -0.2
v 0.4 0.7 -0.2
v 0.5 0.7 -0.2
v -0.4 0.7 -0.3
v -0.3 0.7 -0.3
v 0.3 0.7 -0.3
v 0.4 0.7 -0.3
v -0.3 0.8 0.3
v 0.3 0.8 0.3
v -0.3 0.8 0.2
v -0.2 0.8 0.2
v -0.1 0.8 0.2
v 0.1 0.8 0.2
v 0.2 0.8 0.2
v 0.3 0.8 0.2
v -0.3 0.8 -0.3
v 0.3 0.8 -0.3
v -0.3 0.8 -0.4
v 0.3 0.8 -0.4
v -0.5 0.9 0.3
v -0.4 0.9 0.3
v 0.4 0.9 0.3
v 0.5 0.9 0.3
v -0.5 0.9 0
v -0.4 0.9 0
v 0.4 0.9 0
v 0.5 0.9 0
v -0.4 0.9 -0.2
v -0.3 0.9 -0.2
v 0.3 0.9 -0.2
v 0.4 0.9 -0.2
v -0.3 0.9 -0.3
v 0.3 0.9 -0.3
v -0.5 0.9 -0.4
v -0.3 0.9 -0.4
v 0.3 0.9 -0.4
v 0.5 0.9 -0.4
v -0.6 1.3 0.4
v -0.4 1.3 0.4
v 0.4 1.3 0.4
v 0.6 1.3 0.4
v -0.5 1.3 0.3
v -0.4 1.3 0.3
v 0.4 1.3 0.3
v 0.5 1.3 0.3
v -0.5 1.3 0
v 0.5 1.3 0
v -0.6 1.3 -0.3
v -0.5 1.3 -0.3
v 0.5 1.3 -0.3
v 0.6 1.3 -0.3
v -0.4 1.4 0.4
v 0.4 1.4 0.4
v -0.4 1.4 0.3
v 0.4 1.4 0.3
v -0.3 0.1 0.2
v -0.1 0.1 0.2
v -0.3 0.1 0.1
v -0.1 0.1 0.1
v 0.1 0.3 0.3
v 0.3 0.3 0.3
v 0.1 0.3 0.2
v 0.3 0.3 0.2
v 0.1 0.4 0.4
v 0.3 0.4 0.4
v 0.1 0.4 0.3
v 0.3 0.4 0.3
v -0.6 0.7 0.3
v -0.4 0.7 0.3
v -0.3 0.7 0.3
v -0.1 0.7 0.3
v 0.2 0.7 0.3
v 0.3 0.7 0.3
v -0.5 0.7 0.2
v -0.4 0.7 0.2
v -0.3 0.7 0.2
v -0.2 0.7 0.2
v -0.1 0.7 0.2
v 0.2 0.7 0.2
v 0.3 0.7 0.2
v -0.6 0.7 0.1
v -0.5 0.7 0.1
v 0.5 0.7 0.1
v 0.6 0.7 0.1
v -0.6 0.7 -0.1
v -0.5 0.7 -0.1
v 0.5 0.7 -0.1
v 0.6 0.7 -0.1
v -0.5 0.8 0.2
v -0.4 0.8 0.2
v 0.4 0.8 0.2
v 0.5 0.8 0.2
v -0.4 0.8 0
v 0.4 0.8 0
v -0.5 0.8 -0.2
v -0.4 0.8 -0.2
v -0.3 0.8 -0.2
v 0.3 0.8 -0.2
v 0.4 0.8 -0.2
v 0.5 0.8 -0.2
v -0.4 0.8 -0.3
v -0.3 0.8 -0.3
v 0.3 0.8 -0.3
v 0.4 0.8 -0.3
v -0.6 1.5 0.4
v -0.5 1.5 0.4
v 0.5 1.5 0.4
v 0.6 1.5 0.4
v -0.6 1.5 -0.3
v -0.5 1.5 -0.3
v 0.5 1.5 -0.3
v 0.6 1.5 -0.3
v -0.5 1.5 -0.4
v 0.5 1.5 -0.4
v -0.5 1.6 0.4
v 0.5 1.6 0.4
v -0.4 1.6 0.3
v 0.4 1.6 0.3
v -0.4 1.6 -0.2
v 0.4 1.6 -0.2
v -0.5 1.6 -0.3
v 0.5 1.6 -0.3
v -0.4 1.7 0.3
v 0.4 1.7 0.3
v -0.4 1.7 -0.2
v 0.4 1.7 -0.2

# faces
f 4/2/1 2/2/1 1/2/1
f 5/8/1 3/8/1 2/8/1
f 5/2/1 2/2/1 4/2/1
f 6/8/1 3/8/1 5/8/1
f 9/4/1 8/4/1 7/4/1
f 10/4/1 8/4/1 9/4/1
f 15/10/1 12/10/1 11/10/1
f 15/10/1 14/10/1 13/10/1
f 15/10/1 13/10/1 12/10/1
f 16/10/1 14/10/1 15/10/1
f 20/2/1 18/2/1 17/2/1
f 21/4/1 19/4/1 18/4/1
f 21/2/1 18/2/1 20/2/1
f 22/4/1 19/4/1 21/4/1
f 24/4/1 19/4/1 22/4/1
f 25/4/1 19/4/1 24/4/1
f 26/4/1 24/4/1 23/4/1
f 27/4/1 24/4/1 26/4/1
f 30/8/1 29/8/1 28/8/1
f 31/8/1 29/8/1 30/8/1
f 32/8/1 29/8/1 31/8/1
f 35/8/1 29/8/1 32/8/1
f 36/8/1 29/8/1 35/8/1
f 38/10/1 34/10/1 33/10/1
f 39/10/1 34/10/1 38/10/1
f 41/10/1 37/10/1 36/10/1
f 42/10/1 37/10/1 41/10/1
f 43/2/1 40/2/1 39/2/1
f 43/2/1 39/2/1 38/2/1
f 44/4/1 41/4/1 40/4/1
f 44/2/1 40/2/1 43/2/1
f 45/4/1 41/4/1 44/4/1
f 48/4/1 47/4/1 46/4/1
f 49/4/1 47/4/1 48/4/1
f 52/5/1 51/5/1 50/5/1
f 53/5/1 51/5/1 52/5/1
f 54/5/1 51/5/1 53/5/1
f 55/5/1 51/5/1 54/5/1
f 60/7/1 59/7/1 58/7/1
f 61/7/1 59/7/1 60/7/1
f 62/8/1 57/8/1 56/8/1
f 63/8/1 57/8/1 62/8/1
f 67/4/1 65/4/1 64/4/1
f 68/10/1 66/10/1 65/10/1
f 68/4/1 65/4/1 67/4/1
f 69/10/1 66/10/1 68/10/1
f 72/8/1 71/8/1 70/8/1
f 73/8/1 71/8/1 72/8/1
f 77/5/1 75/5/1 74/5/1
f 78/6/1 76/6/1 75/6/1
f 78/5/1 75/5/1 77/5/1
f 79/6/1 76/6/1 78/6/1
f 80/5/1 77/5/1 74/5/1
f 81/5/1 77/5/1 80/5/1
f 84/7/1 83/7/1 82/7/1
f 85/7/1 83/7/1 84/7/1
f 86/9/1 85/9/1 84/9/1
f 87/9/1 85/9/1 86/9/1
f 90/8/1 89/8/1 88/8/1
f 91/8/1 89/8/1 90/8/1
f 94/10/1 93/10/1 92/10/1
f 95/10/1 93/10/1 94/10/1
f 98/4/1 97/4/1 96/4/1
f 99/4/1 97/4/1 98/4/1
f 100/2/2 101/2/2 102/2/2
f 102/2/2 101/2/2 103/2/2
f 104/4/2 105/4/2 106/4/2
f 106/4/2 105/4/2 107/4/2
f 108/8/2 109/8/2 112/8/2
f 112/8/2 109/8/2 113/8/2
f 110/8/2 111/8/2 114/8/2
f 114/8/2 111/8/2 115/8/2
f 116/10/2 117/10/2 118/10/2
f 118/10/2 117/10/2 119/10/2
f 120/7/2 121/7/2 122/7/2
f 122/7/2 121/7/2 123/7/2
f 124/5/2 125/5/2 126/5/2
f 126/5/2 125/5/2 127/5/2
f 127/5/2 125/5/2 128/5/2
f 128/5/2 125/5/2 129/5/2
f 128/6/2 129/6/2 130/6/2
f 130/6/2 129/6/2 131/6/2
f 132/7/2 133/7/2 134/7/2
f 134/7/2 133/7/2 135/7/2
f 136/8/2 137/8/2 138/8/2
f 138/8/2 137/8/2 139/8/2
f 140/5/2 141/5/2 143/5/2
f 141/6/2 142/6/2 143/6/2
f 143/6/2 142/6/2 144/6/2
f 140/5/2 143/5/2 147/5/2
f 147/5/2 143/5/2 148/5/2
f 140/5/2 147/5/2 149/5/2
f 149/5/2 147/5/2 150/5/2
f 145/8/2 146/8/2 151/8/2
f 151/8/2 146/8/2 152/8/2
f 153/4/2 154/4/2 156/4/2
f 154/10/2 155/10/2 157/10/2
f 156/4/2 154/4/2 157/4/2
f 157/10/2 155/10/2 158/10/2
f 159/8/2 160/8/2 161/8/2
f 161/8/2 160/8/2 162/8/2
f 159/8/2 161/8/2 164/8/2
f 164/8/2 161/8/2 165/8/2
f 162/8/2 160/8/2 166/8/2
f 163/9/2 164/9/2 167/9/2
f 164/8/2 165/8/2 168/8/2
f 167/9/2 164/9/2 168/9/2
f 168/8/2 165/8/2 169/8/2
f 166/8/2 160/8/2 170/8/2
f 170/8/2 160/8/2 171/8/2
f 167/10/2 168/10/2 173/10/2
f 173/10/2 168/10/2 174/10/2
f 171/10/2 172/10/2 176/10/2
f 176/10/2 172/10/2 177/10/2
f 174/2/2 175/2/2 178/2/2
f 173/2/2 174/2/2 178/2/2
f 175/4/2 176/4/2 179/4/2
f 178/2/2 175/2/2 179/2/2
f 179/4/2 176/4/2 180/4/2
f 181/4/2 182/4/2 183/4/2
f 183/4/2 182/4/2 184/4/2
f 185/10/2 186/10/2 189/10/2
f 187/10/2 188/10/2 189/10/2
f 186/10/2 187/10/2 189/10/2
f 189/10/2 188/10/2 190/10/2
f 191/2/2 192/2/2 194/2/2
f 192/4/2 193/4/2 195/4/2
f 194/2/2 192/2/2 195/2/2
f 195/4/2 193/4/2 196/4/2
f 196/4/2 193/4/2 198/4/2
f 198/4/2 193/4/2 199/4/2
f 197/4/2 198/4/2 200/4/2
f 200/4/2 198/4/2 201/4/2
f 202/2/2 203/2/2 204/2/2
f 204/2/2 203/2/2 205/2/2
f 204/8/2 205/8/2 206/8/2
f 206/8/2 205/8/2 207/8/2
f 208/4/2 209/4/2 210/4/2
f 210/4/2 209/4/2 211/4/2
f 214/4/3 213/4/3 212/4/3
f 216/4/3 214/4/3 212/4/3
f 216/4/3 215/4/3 214/4/3
f 217/4/3 215/4/3 216/4/3
f 220/5/3 219/5/3 218/5/3
f 221/5/3 219/5/3 220/5/3
f 223/4/3 215/4/3 217/4/3
f 224/4/3 215/4/3 223/4/3
f 224/4/3 223/4/3 222/4/3
f 225/4/3 215/4/3 224/4/3
f 226/4/3 224/4/3 222/4/3
f 227/4/3 224/4/3 226/4/3
f 232/2/3 229/2/3 228/2/3
f 233/2/3 229/2/3 232/2/3
f 234/2/3 229/2/3 233/2/3
f 236/2/3 231/2/3 230/2/3
f 237/2/3 231/2/3 236/2/3
f 242/10/3 235/10/3 234/10/3
f 242/10/3 234/10/3 233/10/3
f 243/10/3 235/10/3 242/10/3
f 244/2/3 238/2/3 237/2/3
f 244/10/3 235/10/3 243/10/3
f 244/2/3 237/2/3 236/2/3
f 244/2/3 236/2/3 235/2/3
f 245/2/3 238/2/3 244/2/3
f 246/2/3 238/2/3 245/2/3
f 247/7/3 243/7/3 242/7/3
f 247/7/3 242/7/3 241/7/3
f 248/7/3 243/7/3 247/7/3
f 249/8/3 246/8/3 245/8/3
f 249/2/3 245/2/3 244/2/3
f 250/2/3 238/2/3 246/2/3
f 250/8/3 246/8/3 249/8/3
f 251/7/3 243/7/3 248/7/3
f 252/7/3 243/7/3 251/7/3
f 253/2/3 249/2/3 244/2/3
f 254/2/3 249/2/3 253/2/3
f 255/11/3 250/11/3 249/11/3
f 255/2/3 249/2/3 254/2/3
f 256/2/3 238/2/3 250/2/3
f 256/11/3 250/11/3 255/11/3
f 257/1/3 254/1/3 253/1/3
f 257/2/3 253/2/3 244/2/3
f 258/2/3 255/2/3 254/2/3
f 258/1/3 254/1/3 257/1/3
f 258/2/3 256/2/3 255/2/3
f 259/2/3 256/2/3 258/2/3
f 260/2/3 238/2/3 256/2/3
f 260/2/3 256/2/3 259/2/3
f 264/2/3 259/2/3 258/2/3
f 264/2/3 258/2/3 257/2/3
f 264/11/3 260/11/3 259/11/3
f 265/2/3 238/2/3 260/2/3
f 265/11/3 260/11/3 264/11/3
f 266/7/3 262/7/3 261/7/3
f 267/9/3 263/9/3 262/9/3
f 267/7/3 262/7/3 266/7/3
f 268/9/3 263/9/3 267/9/3
f 269/2/3 257/2/3 244/2/3
f 269/2/3 264/2/3 257/2/3
f 270/8/3 265/8/3 264/8/3
f 270/2/3 264/2/3 269/2/3
f 271/2/3 238/2/3 265/2/3
f 271/8/3 265/8/3 270/8/3
f 272/9/3 268/9/3 267/9/3
f 272/9/3 267/9/3 266/9/3
f 273/10/3 269/10/3 268/10/3
f 273/9/3 268/9/3 272/9/3
f 274/2/3 270/2/3 269/2/3
f 274/10/3 269/10/3 273/10/3
f 274/2/3 271/2/3 270/2/3
f 275/2/3 271/2/3 274/2/3
f 276/2/3 238/2/3 271/2/3
f 276/2/3 271/2/3 275/2/3
f 277/2/3 238/2/3 276/2/3
f 278/4/3 240/4/3 239/4/3
f 279/4/3 240/4/3 278/4/3
f 280/2/3 276/2/3 275/2/3
f 281/2/3 276/2/3 280/2/3
f 287/10/3 283/10/3 282/10/3
f 288/10/3 283/10/3 287/10/3
f 291/8/3 286/8/3 285/8/3
f 291/8/3 285/8/3 284/8/3
f 292/8/3 286/8/3 291/8/3
f 293/8/3 286/8/3 292/8/3
f 294/8/3 286/8/3 293/8/3
f 297/8/3 293/8/3 292/8/3
f 299/8/3 296/8/3 295/8/3
f 300/8/3 296/8/3 299/8/3
f 301/5/3 290/5/3 289/5/3
f 302/5/3 290/5/3 301/5/3
f 303/8/3 298/8/3 297/8/3
f 303/8/3 297/8/3 292/8/3
f 304/8/3 298/8/3 303/8/3
f 305/6/3 300/6/3 299/6/3
f 306/6/3 300/6/3 305/6/3
f 307/6/3 304/6/3 303/6/3
f 307/6/3 305/6/3 304/6/3
f 308/2/3 306/2/3 305/2/3
f 308/6/3 305/6/3 307/6/3
f 309/2/3 306/2/3 308/2/3
f 310/8/3 308/8/3 307/8/3
f 311/8/3 308/8/3 310/8/3
f 312/6/3 309/6/3 308/6/3
f 312/8/3 308/8/3 311/8/3
f 313/6/3 309/6/3 312/6/3
f 315/8/3 310/8/3 307/8/3
f 316/8/3 310/8/3 315/8/3
f 317/8/3 313/8/3 312/8/3
f 318/8/3 313/8/3 317/8/3
f 319/8/3 316/8/3 315/8/3
f 319/8/3 315/8/3 314/8/3
f 320/8/3 316/8/3 319/8/3
f 323/10/3 322/10/3 321/10/3
f 324/10/3 322/10/3 323/10/3
f 328/5/3 326/5/3 325/5/3
f 329/6/3 327/6/3 326/6/3
f 329/5/3 326/5/3 328/5/3
f 330/6/3 327/6/3 329/6/3
f 334/8/3 333/8/3 332/8/3
f 335/2/3 332/2/3 331/2/3
f 336/8/3 334/8/3 332/8/3
f 336/2/3 332/2/3 335/2/3
f 337/8/3 334/8/3 336/8/3
f 341/8/3 339/8/3 338/8/3
f 342/8/3 341/8/3 340/8/3
f 343/8/3 339/8/3 341/8/3
f 343/8/3 341/8/3 342/8/3
f 344/8/3 339/8/3 343/8/3
f 345/8/3 339/8/3 344/8/3
f 346/5/4 347/5/4 348/5/4
f 348/5/4 347/5/4 349/5/4
f 350/8/4 351/8/4 352/8/4
f 350/8/4 352/8/4 353/8/4
f 353/8/4 352/8/4 354/8/4
f 355/5/4 356/5/4 358/5/4
f 356/6/4 357/6/4 359/6/4
f 358/5/4 356/5/4 359/5/4
f 359/6/4 357/6/4 360/6/4
f 361/6/4 362/6/4 363/6/4
f 363/6/4 362/6/4 364/6/4
f 364/6/4 362/6/4 365/6/4
f 367/8/4 368/8/4 369/8/4
f 366/2/4 367/2/4 370/2/4
f 367/8/4 369/8/4 371/8/4
f 370/2/4 367/2/4 371/2/4
f 371/8/4 369/8/4 372/8/4
f 373/10/4 374/10/4 376/10/4
f 376/10/4 374/10/4 377/10/4
f 375/8/4 376/8/4 381/8/4
f 381/8/4 376/8/4 382/8/4
f 377/4/4 378/4/4 383/4/4
f 383/4/4 378/4/4 384/4/4
f 385/8/4 386/8/4 389/8/4
f 389/8/4 386/8/4 390/8/4
f 387/4/4 388/4/4 391/4/4
f 391/4/4 388/4/4 392/4/4
f 379/4/4 380/4/4 393/4/4
f 393/4/4 380/4/4 394/4/4
f 390/10/4 391/10/4 395/10/4
f 395/10/4 391/10/4 396/10/4
f 397/4/4 398/4/4 399/4/4
f 399/4/4 398/4/4 400/4/4
f 402/10/4 403/10/4 405/10/4
f 405/10/4 403/10/4 406/10/4
f 404/8/4 405/8/4 408/8/4
f 405/8/4 406/8/4 408/8/4
f 407/8/4 408/8/4 409/8/4
f 408/8/4 406/8/4 410/8/4
f 409/8/4 408/8/4 410/8/4
f 410/8/4 406/8/4 411/8/4
f 411/8/4 406/8/4 412/8/4
f 412/8/4 406/8/4 413/8/4
f 412/10/4 413/10/4 414/10/4
f 414/10/4 413/10/4 415/10/4
f 400/4/4 401/4/4 417/4/4
f 417/4/4 401/4/4 418/4/4
f 416/4/4 417/4/4 419/4/4
f 419/4/4 417/4/4 420/4/4
f 421/4/4 422/4/4 424/4/4
f 423/10/4 424/10/4 425/10/4
f 424/4/4 422/4/4 426/4/4
f 425/10/4 424/10/4 426/10/4
f 426/4/4 422/4/4 427/4/4
f 427/4/4 422/4/4 428/4/4
f 431/5/5 430/5/5 429/5/5
f 432/5/5 430/5/5 431/5/5
f 435/5/5 434/5/5 433/5/5
f 436/5/5 434/5/5 435/5/5
f 437/6/5 436/6/5 435/6/5
f 438/6/5 436/6/5 437/6/5
f 441/8/5 440/8/5 439/8/5
f 442/8/5 440/8/5 441/8/5
f 447/8/5 444/8/5 443/8/5
f 448/8/5 447/8/5 443/8/5
f 449/8/5 446/8/5 445/8/5
f 450/8/5 448/8/5 443/8/5
f 451/8/5 448/8/5 450/8/5
f 454/8/5 446/8/5 449/8/5
f 455/8/5 446/8/5 454/8/5
f 456/8/5 452/8/5 451/8/5
f 457/8/5 452/8/5 456/8/5
f 458/8/5 454/8/5 453/8/5
f 459/8/5 454/8/5 458/8/5
f 463/8/5 461/8/5 460/8/5
f 464/6/5 462/6/5 461/6/5
f 464/8/5 461/8/5 463/8/5
f 468/6/5 462/6/5 464/6/5
f 469/6/5 462/6/5 468/6/5
f 471/2/5 466/2/5 465/2/5
f 472/2/5 466/2/5 471/2/5
f 473/6/5 470/6/5 469/6/5
f 473/6/5 468/6/5 467/6/5
f 473/6/5 469/6/5 468/6/5
f 474/6/5 470/6/5 473/6/5
f 482/2/5 476/2/5 475/2/5
f 483/7/5 478/7/5 477/7/5
f 484/7/5 478/7/5 483/7/5
f 485/7/5 480/7/5 479/7/5
f 486/9/5 481/9/5 480/9/5
f 486/7/5 480/7/5 485/7/5
f 487/9/5 481/9/5 486/9/5
f 488/2/5 482/2/5 475/2/5
f 489/2/5 482/2/5 488/2/5
f 490/8/5 489/8/5 488/8/5
f 491/8/5 489/8/5 490/8/5
f 496/10/5 493/10/5 492/10/5
f 497/10/5 493/10/5 496/10/5
f 498/7/5 495/7/5 494/7/5
f 499/7/5 495/7/5 498/7/5
f 502/10/5 501/10/5 500/10/5
f 503/10/5 501/10/5 502/10/5
f 508/10/5 505/10/5 504/10/5
f 509/10/5 505/10/5 508/10/5
f 512/10/5 507/10/5 506/10/5
f 513/10/5 507/10/5 512/10/5
f 514/10/5 510/10/5 509/10/5
f 515/10/5 510/10/5 514/10/5
f 516/10/5 512/10/5 511/10/5
f 517/10/5 512/10/5 516/10/5
f 520/2/5 519/2/5 518/2/5
f 521/2/5 519/2/5 520/2/5
f 522/2/5 519/2/5 521/2/5
f 523/2/5 519/2/5 522/2/5
f 524/2/5 519/2/5 523/2/5
f 525/2/5 519/2/5 524/2/5
f 528/10/5 527/10/5 526/10/5
f 529/10/5 527/10/5 528/10/5
f 534/2/5 531/2/5 530/2/5
f 535/2/5 531/2/5 534/2/5
f 536/2/5 533/2/5 532/2/5
f 537/2/5 533/2/5 536/2/5
f 538/4/5 535/4/5 534/4/5
f 541/4/5 537/4/5 536/4/5
f 542/4/5 539/4/5 538/4/5
f 543/4/5 541/4/5 540/4/5
f 544/4/5 542/4/5 538/4/5
f 544/4/5 538/4/5 534/4/5
f 545/4/5 542/4/5 544/4/5
f 546/4/5 541/4/5 543/4/5
f 547/4/5 537/4/5 541/4/5
f 547/4/5 541/4/5 546/4/5
f 552/4/5 549/4/5 548/4/5
f 553/4/5 549/4/5 552/4/5
f 554/4/5 551/4/5 550/4/5
f 555/4/5 551/4/5 554/4/5
f 556/4/5 552/4/5 548/4/5
f 557/4/5 551/4/5 555/4/5
f 558/4/5 556/4/5 548/4/5
f 559/4/5 556/4/5 558/4/5
f 560/4/5 551/4/5 557/4/5
f 561/4/5 551/4/5 560/4/5
f 564/4/5 563/4/5 562/4/5
f 565/4/5 563/4/5 564/4/5
f 566/5/6 567/5/6 568/5/6
f 568/5/6 567/5/6 569/5/6
f 570/5/6 571/5/6 572/5/6
f 572/5/6 571/5/6 573/5/6
f 574/5/6 575/5/6 576/5/6
f 576/5/6 575/5/6 577/5/6
f 578/2/6 579/2/6 584/2/6
f 584/2/6 579/2/6 585/2/6
f 580/7/6 581/7/6 586/7/6
f 586/7/6 581/7/6 587/7/6
f 587/7/6 581/7/6 588/7/6
f 582/9/6 583/9/6 589/9/6
f 589/9/6 583/9/6 590/9/6
f 578/2/6 584/2/6 591/2/6
f 591/2/6 584/2/6 592/2/6
f 591/8/6 592/8/6 595/8/6
f 595/8/6 592/8/6 596/8/6
f 593/8/6 594/8/6 597/8/6
f 597/8/6 594/8/6 598/8/6
f 599/10/6 600/10/6 603/10/6
f 601/10/6 602/10/6 604/10/6
f 599/10/6 603/10/6 605/10/6
f 605/10/6 603/10/6 606/10/6
f 604/10/6 602/10/6 609/10/6
f 609/10/6 602/10/6 610/10/6
f 606/10/6 607/10/6 611/10/6
f 611/10/6 607/10/6 612/10/6
f 608/10/6 609/10/6 613/10/6
f 613/10/6 609/10/6 614/10/6
f 615/4/6 616/4/6 619/4/6
f 619/4/6 616/4/6 620/4/6
f 617/4/6 618/4/6 621/4/6
f 621/4/6 618/4/6 622/4/6
f 620/4/6 621/4/6 623/4/6
f 623/4/6 621/4/6 624/4/6
f 625/4/6 626/4/6 627/4/6
f 627/4/6 626/4/6 628/4/6
f 625/4/6 627/4/6 629/4/6
f 628/4/6 626/4/6 630/4/6
f 625/4/6 629/4/6 631/4/6
f 629/4/6 630/4/6 631/4/6
f 630/4/6 626/4/6 632/4/6
f 631/4/6 630/4/6 632/4/6
f 633/4/6 634/4/6 635/4/6
f 635/4/6 634/4/6 636/4/6
