# MagicaVoxel @ Ephtracy

# group
o 

# material
mtllib Medicman.vox.mtl
usemtl palette

# normals
vn -1 0 0
vn 1 0 0
vn 0 0 1
vn 0 0 -1
vn 0 -1 0
vn 0 1 0

# texcoords
vt 0.0839844 0.5
vt 0.287109 0.5
vt 0.291016 0.5
vt 0.310547 0.5
vt 0.365234 0.5
vt 0.748047 0.5
vt 0.951172 0.5
vt 0.958984 0.5
vt 0.978516 0.5
vt 0.982422 0.5
vt 0.994141 0.5

# verts
v -0.6 0.3 0.1
v -0.6 0.3 -0.1
v -0.6 0.5 0.1
v -0.6 0.5 -0.1
v -0.6 0.7 0.1
v -0.6 0.7 -0.1
v -0.6 1.3 0.4
v -0.6 1.3 -0.3
v -0.6 1.5 0.4
v -0.6 1.5 -0.3
v -0.5 0.7 0.2
v -0.5 0.7 0.1
v -0.5 0.7 -0.1
v -0.5 0.7 -0.2
v -0.5 0.8 0.2
v -0.5 0.8 -0.2
v -0.5 0.9 0.3
v -0.5 0.9 0
v -0.5 0.9 -0.4
v -0.5 1.3 0.3
v -0.5 1.3 0
v -0.5 1.3 -0.3
v -0.5 1.5 0.4
v -0.5 1.5 -0.3
v -0.5 1.5 -0.4
v -0.5 1.6 0.4
v -0.5 1.6 -0.3
v -0.4 0.2 0.2
v -0.4 0.2 -0.2
v -0.4 0.3 0.1
v -0.4 0.3 -0.1
v -0.4 0.5 0.1
v -0.4 0.5 -0.1
v -0.4 0.6 0.3
v -0.4 0.6 0.2
v -0.4 0.7 0.2
v -0.4 0.7 0.1
v -0.4 0.7 -0.1
v -0.4 0.7 -0.2
v -0.4 0.7 -0.3
v -0.4 0.8 0.3
v -0.4 0.8 0.2
v -0.4 0.8 0
v -0.4 0.8 -0.2
v -0.4 0.8 -0.3
v -0.4 0.9 0.3
v -0.4 0.9 0
v -0.4 0.9 -0.2
v -0.4 1.6 0.3
v -0.4 1.6 -0.2
v -0.4 1.7 0.3
v -0.4 1.7 -0.2
v -0.3 0 0.2
v -0.3 0 -0.1
v -0.3 0.1 0.2
v -0.3 0.1 0.1
v -0.3 0.2 0.1
v -0.3 0.2 -0.1
v -0.3 0.2 -0.2
v -0.3 0.2 -0.3
v -0.3 0.3 0.3
v -0.3 0.3 0.2
v -0.3 0.5 0.4
v -0.3 0.5 0.3
v -0.3 0.6 0.3
v -0.3 0.6 0.2
v -0.3 0.7 0.4
v -0.3 0.7 0.3
v -0.3 0.7 -0.2
v -0.3 0.7 -0.3
v -0.3 0.8 -0.2
v -0.3 0.8 -0.3
v -0.3 0.8 -0.4
v -0.3 0.9 -0.2
v -0.3 0.9 -0.3
v -0.3 0.9 -0.4
v -0.2 0.1 -0.2
v -0.2 0.1 -0.3
v -0.2 0.2 -0.2
v -0.2 0.2 -0.3
v 0.1 0 0.2
v 0.1 0 -0.1
v 0.1 0.1 0.2
v 0.1 0.1 0.1
v 0.1 0.2 0.1
v 0.1 0.2 -0.1
v 0.1 0.3 0.3
v 0.1 0.3 0.2
v 0.1 0.3 0.1
v 0.1 0.3 -0.1
v 0.1 0.7 0.3
v 0.1 0.7 0.2
v 0.2 0.5 0.4
v 0.2 0.5 0.3
v 0.2 0.6 0.4
v 0.2 0.6 0.3
v 0.2 0.7 0.4
v 0.2 0.7 0.3
v 0.2 0.7 0.2
v 0.2 0.8 0.3
v 0.2 0.8 0.2
v 0.3 0.2 0.2
v 0.3 0.2 0.1
v 0.3 0.2 -0.1
v 0.3 0.2 -0.2
v 0.3 0.3 0.2
v 0.3 0.3 0.1
v 0.3 0.3 -0.1
v 0.3 0.3 -0.2
v 0.4 1.3 0.4
v 0.4 1.3 0.3
v 0.4 1.4 0.4
v 0.4 1.4 0.3
v -0.4 1.3 0.4
v -0.4 1.3 0.3
v -0.4 1.4 0.4
v -0.4 1.4 0.3
v -0.3 0.2 0.2
v -0.3 0.2 0.1
v -0.3 0.2 -0.1
v -0.3 0.2 -0.2
v -0.3 0.3 0.2
v -0.3 0.3 0.1
v -0.3 0.3 -0.1
v -0.3 0.3 -0.2
v -0.2 0.5 0.4
v -0.2 0.5 0.3
v -0.2 0.6 0.4
v -0.2 0.6 0.3
v -0.2 0.7 0.3
v -0.2 0.7 0.2
v -0.2 0.8 0.3
v -0.2 0.8 0.2
v -0.1 0 0.2
v -0.1 0 -0.1
v -0.1 0.1 0.2
v -0.1 0.1 0.1
v -0.1 0.2 0.1
v -0.1 0.2 -0.1
v -0.1 0.3 0.3
v -0.1 0.3 0.2
v -0.1 0.3 0.1
v -0.1 0.3 -0.1
v -0.1 0.6 0.4
v -0.1 0.6 0.3
v -0.1 0.7 0.4
v -0.1 0.7 0.3
v -0.1 0.7 0.2
v 0.2 0.1 -0.2
v 0.2 0.1 -0.3
v 0.2 0.2 -0.2
v 0.2 0.2 -0.3
v 0.3 0 0.2
v 0.3 0 -0.1
v 0.3 0.1 0.2
v 0.3 0.1 0.1
v 0.3 0.2 0.1
v 0.3 0.2 -0.1
v 0.3 0.2 -0.2
v 0.3 0.2 -0.3
v 0.3 0.3 0.3
v 0.3 0.3 0.2
v 0.3 0.5 0.3
v 0.3 0.6 0.3
v 0.3 0.6 0.2
v 0.3 0.7 -0.2
v 0.3 0.7 -0.3
v 0.3 0.8 -0.2
v 0.3 0.8 -0.3
v 0.3 0.8 -0.4
v 0.3 0.9 -0.2
v 0.3 0.9 -0.3
v 0.3 0.9 -0.4
v 0.4 0.2 0.2
v 0.4 0.2 -0.2
v 0.4 0.3 0.1
v 0.4 0.3 -0.1
v 0.4 0.5 0.4
v 0.4 0.5 0.3
v 0.4 0.5 0.1
v 0.4 0.5 -0.1
v 0.4 0.6 0.3
v 0.4 0.6 0.2
v 0.4 0.7 0.4
v 0.4 0.7 0.3
v 0.4 0.7 0.2
v 0.4 0.7 0.1
v 0.4 0.7 -0.1
v 0.4 0.7 -0.2
v 0.4 0.7 -0.3
v 0.4 0.8 0.3
v 0.4 0.8 0.2
v 0.4 0.8 0
v 0.4 0.8 -0.2
v 0.4 0.8 -0.3
v 0.4 0.9 0.3
v 0.4 0.9 0
v 0.4 0.9 -0.2
v 0.4 1.6 0.3
v 0.4 1.6 -0.2
v 0.4 1.7 0.3
v 0.4 1.7 -0.2
v 0.5 0.7 0.2
v 0.5 0.7 0.1
v 0.5 0.7 -0.1
v 0.5 0.7 -0.2
v 0.5 0.8 0.2
v 0.5 0.8 -0.2
v 0.5 0.9 0.3
v 0.5 0.9 0
v 0.5 0.9 -0.4
v 0.5 1.3 0.3
v 0.5 1.3 0
v 0.5 1.3 -0.3
v 0.5 1.5 0.4
v 0.5 1.5 -0.3
v 0.5 1.5 -0.4
v 0.5 1.6 0.4
v 0.5 1.6 -0.3
v 0.6 0.3 0.1
v 0.6 0.3 -0.1
v 0.6 0.5 0.1
v 0.6 0.5 -0.1
v 0.6 0.7 0.1
v 0.6 0.7 -0.1
v 0.6 1.3 0.4
v 0.6 1.3 -0.3
v 0.6 1.5 0.4
v 0.6 1.5 -0.3
v -0.6 1.3 0.4
v -0.6 1.5 0.4
v -0.5 1.5 0.4
v -0.5 1.6 0.4
v -0.4 1.3 0.4
v -0.4 1.4 0.4
v -0.3 0.5 0.4
v -0.3 0.7 0.4
v -0.2 0.5 0.4
v -0.2 0.6 0.4
v -0.1 0.6 0.4
v -0.1 0.7 0.4
v 0.2 0.5 0.4
v 0.2 0.6 0.4
v 0.2 0.7 0.4
v 0.3 0.5 0.4
v 0.3 0.6 0.4
v 0.4 0.5 0.4
v 0.4 0.7 0.4
v 0.4 1.3 0.4
v 0.4 1.4 0.4
v 0.5 1.5 0.4
v 0.5 1.6 0.4
v 0.6 1.3 0.4
v 0.6 1.5 0.4
v -0.5 0.9 0.3
v -0.5 1.3 0.3
v -0.4 0.6 0.3
v -0.4 0.8 0.3
v -0.4 0.9 0.3
v -0.4 1.3 0.3
v -0.4 1.4 0.3
v -0.4 1.6 0.3
v -0.4 1.7 0.3
v -0.3 0.3 0.3
v -0.3 0.5 0.3
v -0.3 0.6 0.3
v -0.3 0.7 0.3
v -0.3 0.8 0.3
v -0.3 1.1 0.3
v -0.3 1.3 0.3
v -0.2 0.5 0.3
v -0.2 0.6 0.3
v -0.2 0.7 0.3
v -0.2 0.8 0.3
v -0.2 1.1 0.3
v -0.2 1.3 0.3
v -0.1 0.3 0.3
v -0.1 0.6 0.3
v -0.1 0.9 0.3
v -0.1 1 0.3
v -0.1 1.1 0.3
v -0.1 1.3 0.3
v 0.1 0.3 0.3
v 0.1 0.7 0.3
v 0.1 0.9 0.3
v 0.1 1 0.3
v 0.1 1.1 0.3
v 0.1 1.3 0.3
v 0.2 0.5 0.3
v 0.2 0.6 0.3
v 0.2 0.7 0.3
v 0.2 0.8 0.3
v 0.2 1.1 0.3
v 0.2 1.3 0.3
v 0.3 0.3 0.3
v 0.3 0.5 0.3
v 0.3 0.7 0.3
v 0.3 0.8 0.3
v 0.3 1.1 0.3
v 0.3 1.3 0.3
v 0.4 0.7 0.3
v 0.4 0.8 0.3
v 0.4 0.9 0.3
v 0.4 1.3 0.3
v 0.4 1.4 0.3
v 0.4 1.6 0.3
v 0.4 1.7 0.3
v 0.5 0.9 0.3
v 0.5 1.3 0.3
v -0.5 0.7 0.2
v -0.5 0.8 0.2
v -0.4 0.2 0.2
v -0.4 0.6 0.2
v -0.4 0.7 0.2
v -0.4 0.8 0.2
v -0.3 0 0.2
v -0.3 0.1 0.2
v -0.3 0.2 0.2
v -0.3 0.3 0.2
v -0.3 0.6 0.2
v -0.2 0.7 0.2
v -0.2 0.8 0.2
v -0.1 0 0.2
v -0.1 0.1 0.2
v -0.1 0.3 0.2
v -0.1 0.7 0.2
v -0.1 0.8 0.2
v 0.1 0 0.2
v 0.1 0.1 0.2
v 0.1 0.3 0.2
v 0.1 0.7 0.2
v 0.1 0.8 0.2
v 0.2 0.7 0.2
v 0.2 0.8 0.2
v 0.3 0 0.2
v 0.3 0.1 0.2
v 0.3 0.2 0.2
v 0.3 0.3 0.2
v 0.3 0.6 0.2
v 0.4 0.2 0.2
v 0.4 0.6 0.2
v 0.4 0.7 0.2
v 0.4 0.8 0.2
v 0.5 0.7 0.2
v 0.5 0.8 0.2
v -0.6 0.3 0.1
v -0.6 0.5 0.1
v -0.6 0.7 0.1
v -0.5 0.7 0.1
v -0.4 0.3 0.1
v -0.4 0.5 0.1
v -0.4 0.7 0.1
v -0.3 0.1 0.1
v -0.3 0.2 0.1
v -0.3 0.3 0.1
v -0.1 0.1 0.1
v -0.1 0.2 0.1
v -0.1 0.3 0.1
v 0.1 0.1 0.1
v 0.1 0.2 0.1
v 0.1 0.3 0.1
v 0.3 0.1 0.1
v 0.3 0.2 0.1
v 0.3 0.3 0.1
v 0.4 0.3 0.1
v 0.4 0.5 0.1
v 0.4 0.7 0.1
v 0.5 0.7 0.1
v 0.6 0.3 0.1
v 0.6 0.5 0.1
v 0.6 0.7 0.1
v -0.3 0.2 -0.2
v -0.3 0.3 -0.2
v -0.2 0.1 -0.2
v -0.2 0.2 -0.2
v 0.2 0.1 -0.2
v 0.2 0.2 -0.2
v 0.3 0.2 -0.2
v 0.3 0.3 -0.2
v 0.3 0.5 0.3
v 0.3 0.6 0.3
v 0.4 0.5 0.3
v 0.4 0.6 0.3
v -0.6 0.3 -0.1
v -0.6 0.5 -0.1
v -0.6 0.7 -0.1
v -0.5 0.7 -0.1
v -0.4 0.3 -0.1
v -0.4 0.5 -0.1
v -0.4 0.7 -0.1
v -0.3 0 -0.1
v -0.3 0.2 -0.1
v -0.3 0.3 -0.1
v -0.1 0 -0.1
v -0.1 0.2 -0.1
v -0.1 0.3 -0.1
v 0.1 0 -0.1
v 0.1 0.2 -0.1
v 0.1 0.3 -0.1
v 0.3 0 -0.1
v 0.3 0.2 -0.1
v 0.3 0.3 -0.1
v 0.4 0.3 -0.1
v 0.4 0.5 -0.1
v 0.4 0.7 -0.1
v 0.5 0.7 -0.1
v 0.6 0.3 -0.1
v 0.6 0.5 -0.1
v 0.6 0.7 -0.1
v -0.5 0.7 -0.2
v -0.5 0.8 -0.2
v -0.4 0.2 -0.2
v -0.4 0.7 -0.2
v -0.4 0.8 -0.2
v -0.4 0.9 -0.2
v -0.4 1.6 -0.2
v -0.4 1.7 -0.2
v -0.3 0.2 -0.2
v -0.3 0.7 -0.2
v -0.3 0.8 -0.2
v -0.3 0.9 -0.2
v 0.3 0.2 -0.2
v 0.3 0.7 -0.2
v 0.3 0.8 -0.2
v 0.3 0.9 -0.2
v 0.4 0.2 -0.2
v 0.4 0.7 -0.2
v 0.4 0.8 -0.2
v 0.4 0.9 -0.2
v 0.4 1.6 -0.2
v 0.4 1.7 -0.2
v 0.5 0.7 -0.2
v 0.5 0.8 -0.2
v -0.6 1.3 -0.3
v -0.6 1.5 -0.3
v -0.5 1.3 -0.3
v -0.5 1.5 -0.3
v -0.5 1.6 -0.3
v -0.4 0.7 -0.3
v -0.4 0.8 -0.3
v -0.3 0.2 -0.3
v -0.3 0.7 -0.3
v -0.3 0.8 -0.3
v -0.2 0.1 -0.3
v -0.2 0.2 -0.3
v 0.2 0.1 -0.3
v 0.2 0.2 -0.3
v 0.3 0.2 -0.3
v 0.3 0.7 -0.3
v 0.3 0.8 -0.3
v 0.4 0.7 -0.3
v 0.4 0.8 -0.3
v 0.5 1.3 -0.3
v 0.5 1.5 -0.3
v 0.5 1.6 -0.3
v 0.6 1.3 -0.3
v 0.6 1.5 -0.3
v -0.5 0.9 -0.4
v -0.5 1.5 -0.4
v -0.3 0.8 -0.4
v -0.3 0.9 -0.4
v 0.3 0.8 -0.4
v 0.3 0.9 -0.4
v 0.5 0.9 -0.4
v 0.5 1.5 -0.4
v -0.3 0 0.2
v -0.1 0 0.2
v 0.1 0 0.2
v 0.3 0 0.2
v -0.3 0 -0.1
v -0.1 0 -0.1
v 0.1 0 -0.1
v 0.3 0 -0.1
v -0.2 0.1 -0.2
v 0.2 0.1 -0.2
v -0.2 0.1 -0.3
v 0.2 0.1 -0.3
v -0.4 0.2 0.2
v -0.3 0.2 0.2
v 0.3 0.2 0.2
v 0.4 0.2 0.2
v -0.3 0.2 0.1
v 0.3 0.2 0.1
v -0.3 0.2 -0.1
v 0.3 0.2 -0.1
v -0.4 0.2 -0.2
v -0.3 0.2 -0.2
v -0.2 0.2 -0.2
v 0.2 0.2 -0.2
v 0.3 0.2 -0.2
v 0.4 0.2 -0.2
v -0.3 0.2 -0.3
v -0.2 0.2 -0.3
v 0.2 0.2 -0.3
v 0.3 0.2 -0.3
v -0.3 0.3 0.3
v -0.1 0.3 0.3
v 0.1 0.3 0.3
v 0.3 0.3 0.3
v -0.3 0.3 0.2
v -0.1 0.3 0.2
v 0.1 0.3 0.2
v 0.3 0.3 0.2
v -0.6 0.3 0.1
v -0.4 0.3 0.1
v -0.3 0.3 0.1
v -0.1 0.3 0.1
v 0.1 0.3 0.1
v 0.3 0.3 0.1
v 0.4 0.3 0.1
v 0.6 0.3 0.1
v -0.6 0.3 -0.1
v -0.4 0.3 -0.1
v -0.3 0.3 -0.1
v -0.1 0.3 -0.1
v 0.1 0.3 -0.1
v 0.3 0.3 -0.1
v 0.4 0.3 -0.1
v 0.6 0.3 -0.1
v -0.3 0.3 -0.2
v 0.3 0.3 -0.2
v -0.3 0.5 0.4
v -0.2 0.5 0.4
v 0.2 0.5 0.4
v 0.3 0.5 0.4
v 0.4 0.5 0.4
v -0.3 0.5 0.3
v -0.2 0.5 0.3
v 0.2 0.5 0.3
v 0.3 0.5 0.3
v 0.4 0.5 0.3
v -0.2 0.6 0.4
v -0.1 0.6 0.4
v -0.4 0.6 0.3
v -0.3 0.6 0.3
v -0.2 0.6 0.3
v -0.1 0.6 0.3
v 0.3 0.6 0.3
v 0.4 0.6 0.3
v -0.4 0.6 0.2
v -0.3 0.6 0.2
v 0.3 0.6 0.2
v 0.4 0.6 0.2
v -0.5 0.7 0.2
v -0.4 0.7 0.2
v 0.4 0.7 0.2
v 0.5 0.7 0.2
v -0.5 0.7 0.1
v -0.4 0.7 0.1
v 0.4 0.7 0.1
v 0.5 0.7 0.1
v -0.5 0.7 -0.1
v -0.4 0.7 -0.1
v 0.4 0.7 -0.1
v 0.5 0.7 -0.1
v -0.5 0.7 -0.2
v -0.4 0.7 -0.2
v -0.3 0.7 -0.2
v 0.3 0.7 -0.2
v 0.4 0.7 -0.2
v 0.5 0.7 -0.2
v -0.4 0.7 -0.3
v -0.3 0.7 -0.3
v 0.3 0.7 -0.3
v 0.4 0.7 -0.3
v -0.2 0.8 0.3
v 0.2 0.8 0.3
v -0.2 0.8 0.2
v -0.1 0.8 0.2
v 0.1 0.8 0.2
v 0.2 0.8 0.2
v -0.3 0.8 -0.3
v 0.3 0.8 -0.3
v -0.3 0.8 -0.4
v 0.3 0.8 -0.4
v -0.5 0.9 0.3
v -0.4 0.9 0.3
v 0.4 0.9 0.3
v 0.5 0.9 0.3
v -0.5 0.9 0
v -0.4 0.9 0
v 0.4 0.9 0
v 0.5 0.9 0
v -0.4 0.9 -0.2
v -0.3 0.9 -0.2
v 0.3 0.9 -0.2
v 0.4 0.9 -0.2
v -0.3 0.9 -0.3
v 0.3 0.9 -0.3
v -0.5 0.9 -0.4
v -0.3 0.9 -0.4
v 0.3 0.9 -0.4
v 0.5 0.9 -0.4
v -0.6 1.3 0.4
v -0.4 1.3 0.4
v 0.4 1.3 0.4
v 0.6 1.3 0.4
v -0.5 1.3 0.3
v -0.4 1.3 0.3
v 0.4 1.3 0.3
v 0.5 1.3 0.3
v -0.5 1.3 0
v 0.5 1.3 0
v -0.6 1.3 -0.3
v -0.5 1.3 -0.3
v 0.5 1.3 -0.3
v 0.6 1.3 -0.3
v -0.4 1.4 0.4
v 0.4 1.4 0.4
v -0.4 1.4 0.3
v 0.4 1.4 0.3
v -0.3 0.1 0.2
v -0.1 0.1 0.2
v 0.1 0.1 0.2
v 0.3 0.1 0.2
v -0.3 0.1 0.1
v -0.1 0.1 0.1
v 0.1 0.1 0.1
v 0.3 0.1 0.1
v -0.3 0.7 0.4
v -0.1 0.7 0.4
v 0.2 0.7 0.4
v 0.4 0.7 0.4
v -0.3 0.7 0.3
v -0.2 0.7 0.3
v -0.1 0.7 0.3
v 0.1 0.7 0.3
v 0.2 0.7 0.3
v 0.3 0.7 0.3
v 0.4 0.7 0.3
v -0.2 0.7 0.2
v -0.1 0.7 0.2
v 0.1 0.7 0.2
v 0.2 0.7 0.2
v -0.6 0.7 0.1
v -0.5 0.7 0.1
v 0.5 0.7 0.1
v 0.6 0.7 0.1
v -0.6 0.7 -0.1
v -0.5 0.7 -0.1
v 0.5 0.7 -0.1
v 0.6 0.7 -0.1
v -0.5 0.8 0.2
v -0.4 0.8 0.2
v 0.4 0.8 0.2
v 0.5 0.8 0.2
v -0.4 0.8 0
v 0.4 0.8 0
v -0.5 0.8 -0.2
v -0.4 0.8 -0.2
v -0.3 0.8 -0.2
v 0.3 0.8 -0.2
v 0.4 0.8 -0.2
v 0.5 0.8 -0.2
v -0.4 0.8 -0.3
v -0.3 0.8 -0.3
v 0.3 0.8 -0.3
v 0.4 0.8 -0.3
v -0.6 1.5 0.4
v -0.5 1.5 0.4
v 0.5 1.5 0.4
v 0.6 1.5 0.4
v -0.6 1.5 -0.3
v -0.5 1.5 -0.3
v 0.5 1.5 -0.3
v 0.6 1.5 -0.3
v -0.5 1.5 -0.4
v 0.5 1.5 -0.4
v -0.5 1.6 0.4
v 0.5 1.6 0.4
v -0.4 1.6 0.3
v 0.4 1.6 0.3
v -0.4 1.6 -0.2
v 0.4 1.6 -0.2
v -0.5 1.6 -0.3
v 0.5 1.6 -0.3
v -0.4 1.7 0.3
v 0.4 1.7 0.3
v -0.4 1.7 -0.2
v 0.4 1.7 -0.2

# faces
f 3/2/1 2/2/1 1/2/1
f 4/2/1 2/2/1 3/2/1
f 5/8/1 4/8/1 3/8/1
f 6/8/1 4/8/1 5/8/1
f 9/4/1 8/4/1 7/4/1
f 10/4/1 8/4/1 9/4/1
f 15/10/1 12/10/1 11/10/1
f 15/10/1 14/10/1 13/10/1
f 15/10/1 13/10/1 12/10/1
f 16/10/1 14/10/1 15/10/1
f 20/2/1 18/2/1 17/2/1
f 21/4/1 19/4/1 18/4/1
f 21/2/1 18/2/1 20/2/1
f 22/4/1 19/4/1 21/4/1
f 24/4/1 19/4/1 22/4/1
f 25/4/1 19/4/1 24/4/1
f 26/4/1 24/4/1 23/4/1
f 27/4/1 24/4/1 26/4/1
f 30/8/1 29/8/1 28/8/1
f 31/8/1 29/8/1 30/8/1
f 32/8/1 30/8/1 28/8/1
f 33/8/1 29/8/1 31/8/1
f 35/8/1 32/8/1 28/8/1
f 36/8/1 32/8/1 35/8/1
f 36/10/1 35/10/1 34/10/1
f 37/8/1 32/8/1 36/8/1
f 38/8/1 29/8/1 33/8/1
f 39/8/1 29/8/1 38/8/1
f 41/10/1 36/10/1 34/10/1
f 42/10/1 36/10/1 41/10/1
f 44/10/1 40/10/1 39/10/1
f 45/10/1 40/10/1 44/10/1
f 46/2/1 43/2/1 42/2/1
f 46/2/1 42/2/1 41/2/1
f 47/4/1 44/4/1 43/4/1
f 47/2/1 43/2/1 46/2/1
f 48/4/1 44/4/1 47/4/1
f 51/4/1 50/4/1 49/4/1
f 52/4/1 50/4/1 51/4/1
f 55/5/1 54/5/1 53/5/1
f 56/5/1 54/5/1 55/5/1
f 57/5/1 54/5/1 56/5/1
f 58/5/1 54/5/1 57/5/1
f 64/8/1 62/8/1 61/8/1
f 65/8/1 62/8/1 64/8/1
f 65/7/1 64/7/1 63/7/1
f 66/8/1 62/8/1 65/8/1
f 67/7/1 65/7/1 63/7/1
f 68/7/1 65/7/1 67/7/1
f 69/8/1 60/8/1 59/8/1
f 70/8/1 60/8/1 69/8/1
f 74/4/1 72/4/1 71/4/1
f 75/10/1 73/10/1 72/10/1
f 75/4/1 72/4/1 74/4/1
f 76/10/1 73/10/1 75/10/1
f 79/8/1 78/8/1 77/8/1
f 80/8/1 78/8/1 79/8/1
f 83/5/1 82/5/1 81/5/1
f 84/5/1 82/5/1 83/5/1
f 85/5/1 82/5/1 84/5/1
f 86/5/1 82/5/1 85/5/1
f 89/6/1 86/6/1 85/6/1
f 90/6/1 86/6/1 89/6/1
f 91/8/1 88/8/1 87/8/1
f 92/8/1 88/8/1 91/8/1
f 95/7/1 94/7/1 93/7/1
f 96/7/1 94/7/1 95/7/1
f 97/9/1 96/9/1 95/9/1
f 98/9/1 96/9/1 97/9/1
f 100/8/1 99/8/1 98/8/1
f 101/8/1 99/8/1 100/8/1
f 106/8/1 103/8/1 102/8/1
f 107/8/1 103/8/1 106/8/1
f 108/8/1 105/8/1 104/8/1
f 109/8/1 105/8/1 108/8/1
f 112/4/1 111/4/1 110/4/1
f 113/4/1 111/4/1 112/4/1
f 114/4/2 115/4/2 116/4/2
f 116/4/2 115/4/2 117/4/2
f 118/8/2 119/8/2 122/8/2
f 122/8/2 119/8/2 123/8/2
f 120/8/2 121/8/2 124/8/2
f 124/8/2 121/8/2 125/8/2
f 126/7/2 127/7/2 128/7/2
f 128/7/2 127/7/2 129/7/2
f 130/8/2 131/8/2 132/8/2
f 132/8/2 131/8/2 133/8/2
f 134/5/2 135/5/2 136/5/2
f 136/5/2 135/5/2 137/5/2
f 137/5/2 135/5/2 138/5/2
f 138/5/2 135/5/2 139/5/2
f 138/6/2 139/6/2 142/6/2
f 142/6/2 139/6/2 143/6/2
f 140/8/2 141/8/2 145/8/2
f 144/7/2 145/7/2 146/7/2
f 145/8/2 141/8/2 147/8/2
f 146/7/2 145/7/2 147/7/2
f 147/8/2 141/8/2 148/8/2
f 149/8/2 150/8/2 151/8/2
f 151/8/2 150/8/2 152/8/2
f 153/5/2 154/5/2 155/5/2
f 155/5/2 154/5/2 156/5/2
f 156/5/2 154/5/2 157/5/2
f 157/5/2 154/5/2 158/5/2
f 161/8/2 162/8/2 163/8/2
f 163/8/2 162/8/2 164/8/2
f 164/8/2 162/8/2 165/8/2
f 159/8/2 160/8/2 166/8/2
f 166/8/2 160/8/2 167/8/2
f 168/4/2 169/4/2 171/4/2
f 169/10/2 170/10/2 172/10/2
f 171/4/2 169/4/2 172/4/2
f 172/10/2 170/10/2 173/10/2
f 174/8/2 175/8/2 176/8/2
f 176/8/2 175/8/2 177/8/2
f 174/8/2 176/8/2 180/8/2
f 177/8/2 175/8/2 181/8/2
f 178/9/2 179/9/2 182/9/2
f 174/8/2 180/8/2 183/8/2
f 178/9/2 182/9/2 184/9/2
f 182/10/2 183/10/2 185/10/2
f 184/9/2 182/9/2 185/9/2
f 183/8/2 180/8/2 186/8/2
f 185/10/2 183/10/2 186/10/2
f 186/8/2 180/8/2 187/8/2
f 181/8/2 175/8/2 188/8/2
f 188/8/2 175/8/2 189/8/2
f 185/10/2 186/10/2 191/10/2
f 191/10/2 186/10/2 192/10/2
f 189/10/2 190/10/2 194/10/2
f 194/10/2 190/10/2 195/10/2
f 192/2/2 193/2/2 196/2/2
f 191/2/2 192/2/2 196/2/2
f 193/4/2 194/4/2 197/4/2
f 196/2/2 193/2/2 197/2/2
f 197/4/2 194/4/2 198/4/2
f 199/4/2 200/4/2 201/4/2
f 201/4/2 200/4/2 202/4/2
f 203/10/2 204/10/2 207/10/2
f 205/10/2 206/10/2 207/10/2
f 204/10/2 205/10/2 207/10/2
f 207/10/2 206/10/2 208/10/2
f 209/2/2 210/2/2 212/2/2
f 210/4/2 211/4/2 213/4/2
f 212/2/2 210/2/2 213/2/2
f 213/4/2 211/4/2 214/4/2
f 214/4/2 211/4/2 216/4/2
f 216/4/2 211/4/2 217/4/2
f 215/4/2 216/4/2 218/4/2
f 218/4/2 216/4/2 219/4/2
f 220/2/2 221/2/2 222/2/2
f 222/2/2 221/2/2 223/2/2
f 222/8/2 223/8/2 224/8/2
f 224/8/2 223/8/2 225/8/2
f 226/4/2 227/4/2 228/4/2
f 228/4/2 227/4/2 229/4/2
f 232/4/3 231/4/3 230/4/3
f 234/4/3 232/4/3 230/4/3
f 234/4/3 233/4/3 232/4/3
f 235/4/3 233/4/3 234/4/3
f 238/7/3 237/7/3 236/7/3
f 239/7/3 237/7/3 238/7/3
f 240/7/3 237/7/3 239/7/3
f 241/7/3 237/7/3 240/7/3
f 245/7/3 243/7/3 242/7/3
f 246/9/3 244/9/3 243/9/3
f 246/7/3 243/7/3 245/7/3
f 247/9/3 246/9/3 245/9/3
f 248/9/3 244/9/3 246/9/3
f 248/9/3 246/9/3 247/9/3
f 250/4/3 233/4/3 235/4/3
f 251/4/3 250/4/3 249/4/3
f 251/4/3 233/4/3 250/4/3
f 252/4/3 233/4/3 251/4/3
f 253/4/3 251/4/3 249/4/3
f 254/4/3 251/4/3 253/4/3
f 259/2/3 256/2/3 255/2/3
f 260/2/3 256/2/3 259/2/3
f 266/10/3 258/10/3 257/10/3
f 267/10/3 258/10/3 266/10/3
f 268/2/3 259/2/3 258/2/3
f 268/10/3 258/10/3 267/10/3
f 268/2/3 260/2/3 259/2/3
f 268/2/3 261/2/3 260/2/3
f 269/2/3 261/2/3 268/2/3
f 270/2/3 261/2/3 269/2/3
f 271/8/3 265/8/3 264/8/3
f 273/8/3 268/8/3 267/8/3
f 274/2/3 269/2/3 268/2/3
f 274/8/3 268/8/3 273/8/3
f 275/8/3 270/8/3 269/8/3
f 275/2/3 269/2/3 274/2/3
f 276/2/3 261/2/3 270/2/3
f 276/8/3 270/8/3 275/8/3
f 277/8/3 272/8/3 271/8/3
f 277/8/3 271/8/3 264/8/3
f 278/8/3 272/8/3 277/8/3
f 279/2/3 275/2/3 274/2/3
f 280/2/3 275/2/3 279/2/3
f 281/11/3 276/11/3 275/11/3
f 281/2/3 275/2/3 280/2/3
f 282/2/3 261/2/3 276/2/3
f 282/11/3 276/11/3 281/11/3
f 285/1/3 280/1/3 279/1/3
f 285/2/3 279/2/3 274/2/3
f 286/2/3 281/2/3 280/2/3
f 286/1/3 280/1/3 285/1/3
f 286/2/3 282/2/3 281/2/3
f 287/2/3 282/2/3 286/2/3
f 288/2/3 261/2/3 282/2/3
f 288/2/3 282/2/3 287/2/3
f 289/8/3 284/8/3 283/8/3
f 290/8/3 284/8/3 289/8/3
f 291/8/3 284/8/3 290/8/3
f 292/2/3 287/2/3 286/2/3
f 292/2/3 285/2/3 274/2/3
f 292/2/3 286/2/3 285/2/3
f 293/11/3 288/11/3 287/11/3
f 293/2/3 287/2/3 292/2/3
f 294/2/3 261/2/3 288/2/3
f 294/11/3 288/11/3 293/11/3
f 295/8/3 289/8/3 283/8/3
f 296/8/3 289/8/3 295/8/3
f 297/8/3 292/8/3 291/8/3
f 298/2/3 293/2/3 292/2/3
f 298/8/3 292/8/3 297/8/3
f 299/8/3 294/8/3 293/8/3
f 299/2/3 293/2/3 298/2/3
f 300/2/3 261/2/3 294/2/3
f 300/8/3 294/8/3 299/8/3
f 301/10/3 298/10/3 297/10/3
f 302/2/3 299/2/3 298/2/3
f 302/10/3 298/10/3 301/10/3
f 302/2/3 300/2/3 299/2/3
f 303/2/3 300/2/3 302/2/3
f 304/2/3 261/2/3 300/2/3
f 304/2/3 300/2/3 303/2/3
f 305/2/3 261/2/3 304/2/3
f 306/4/3 263/4/3 262/4/3
f 307/4/3 263/4/3 306/4/3
f 308/2/3 304/2/3 303/2/3
f 309/2/3 304/2/3 308/2/3
f 314/10/3 311/10/3 310/10/3
f 315/10/3 311/10/3 314/10/3
f 318/8/3 313/8/3 312/8/3
f 319/8/3 313/8/3 318/8/3
f 320/8/3 313/8/3 319/8/3
f 323/5/3 317/5/3 316/5/3
f 324/5/3 317/5/3 323/5/3
f 326/6/3 322/6/3 321/6/3
f 327/6/3 322/6/3 326/6/3
f 330/6/3 326/6/3 325/6/3
f 331/2/3 327/2/3 326/2/3
f 331/6/3 326/6/3 330/6/3
f 332/2/3 327/2/3 331/2/3
f 333/6/3 332/6/3 331/6/3
f 334/6/3 332/6/3 333/6/3
f 335/5/3 329/5/3 328/5/3
f 336/5/3 329/5/3 335/5/3
f 340/8/3 339/8/3 338/8/3
f 340/8/3 338/8/3 337/8/3
f 341/8/3 339/8/3 340/8/3
f 344/10/3 343/10/3 342/10/3
f 345/10/3 343/10/3 344/10/3
f 349/8/3 348/8/3 347/8/3
f 350/2/3 347/2/3 346/2/3
f 351/8/3 349/8/3 347/8/3
f 351/2/3 347/2/3 350/2/3
f 352/8/3 349/8/3 351/8/3
f 356/5/3 354/5/3 353/5/3
f 357/6/3 355/6/3 354/6/3
f 357/5/3 354/5/3 356/5/3
f 358/6/3 355/6/3 357/6/3
f 362/5/3 360/5/3 359/5/3
f 363/6/3 361/6/3 360/6/3
f 363/5/3 360/5/3 362/5/3
f 364/6/3 361/6/3 363/6/3
f 368/8/3 367/8/3 366/8/3
f 369/2/3 366/2/3 365/2/3
f 370/8/3 368/8/3 366/8/3
f 370/2/3 366/2/3 369/2/3
f 371/8/3 368/8/3 370/8/3
f 375/8/3 373/8/3 372/8/3
f 376/8/3 375/8/3 374/8/3
f 377/8/3 373/8/3 375/8/3
f 377/8/3 375/8/3 376/8/3
f 378/8/3 373/8/3 377/8/3
f 379/8/3 373/8/3 378/8/3
f 380/9/4 381/9/4 382/9/4
f 382/9/4 381/9/4 383/9/4
f 385/8/4 386/8/4 387/8/4
f 384/2/4 385/2/4 388/2/4
f 385/8/4 387/8/4 389/8/4
f 388/2/4 385/2/4 389/2/4
f 389/8/4 387/8/4 390/8/4
f 391/5/4 392/5/4 394/5/4
f 392/6/4 393/6/4 395/6/4
f 394/5/4 392/5/4 395/5/4
f 395/6/4 393/6/4 396/6/4
f 397/5/4 398/5/4 400/5/4
f 398/6/4 399/6/4 401/6/4
f 400/5/4 398/5/4 401/5/4
f 401/6/4 399/6/4 402/6/4
f 404/8/4 405/8/4 406/8/4
f 403/2/4 404/2/4 407/2/4
f 404/8/4 406/8/4 408/8/4
f 407/2/4 404/2/4 408/2/4
f 408/8/4 406/8/4 409/8/4
f 410/10/4 411/10/4 413/10/4
f 413/10/4 411/10/4 414/10/4
f 412/8/4 413/8/4 418/8/4
f 418/8/4 413/8/4 419/8/4
f 414/4/4 415/4/4 420/4/4
f 420/4/4 415/4/4 421/4/4
f 422/8/4 423/8/4 426/8/4
f 426/8/4 423/8/4 427/8/4
f 424/4/4 425/4/4 428/4/4
f 428/4/4 425/4/4 429/4/4
f 416/4/4 417/4/4 430/4/4
f 430/4/4 417/4/4 431/4/4
f 427/10/4 428/10/4 432/10/4
f 432/10/4 428/10/4 433/10/4
f 434/4/4 435/4/4 436/4/4
f 436/4/4 435/4/4 437/4/4
f 439/10/4 440/10/4 442/10/4
f 442/10/4 440/10/4 443/10/4
f 441/8/4 442/8/4 445/8/4
f 442/8/4 443/8/4 445/8/4
f 444/8/4 445/8/4 446/8/4
f 445/8/4 443/8/4 447/8/4
f 446/8/4 445/8/4 447/8/4
f 447/8/4 443/8/4 448/8/4
f 448/8/4 443/8/4 449/8/4
f 449/8/4 443/8/4 450/8/4
f 449/10/4 450/10/4 451/10/4
f 451/10/4 450/10/4 452/10/4
f 437/4/4 438/4/4 454/4/4
f 454/4/4 438/4/4 455/4/4
f 453/4/4 454/4/4 456/4/4
f 456/4/4 454/4/4 457/4/4
f 458/4/4 459/4/4 461/4/4
f 460/10/4 461/10/4 462/10/4
f 461/4/4 459/4/4 463/4/4
f 462/10/4 461/10/4 463/10/4
f 463/4/4 459/4/4 464/4/4
f 464/4/4 459/4/4 465/4/4
f 470/5/5 467/5/5 466/5/5
f 471/5/5 467/5/5 470/5/5
f 472/5/5 469/5/5 468/5/5
f 473/5/5 469/5/5 472/5/5
f 476/8/5 475/8/5 474/8/5
f 477/8/5 475/8/5 476/8/5
f 482/8/5 479/8/5 478/8/5
f 483/8/5 481/8/5 480/8/5
f 484/8/5 482/8/5 478/8/5
f 485/8/5 481/8/5 483/8/5
f 486/8/5 484/8/5 478/8/5
f 487/8/5 484/8/5 486/8/5
f 490/8/5 481/8/5 485/8/5
f 491/8/5 481/8/5 490/8/5
f 492/8/5 488/8/5 487/8/5
f 493/8/5 488/8/5 492/8/5
f 494/8/5 490/8/5 489/8/5
f 495/8/5 490/8/5 494/8/5
f 500/8/5 497/8/5 496/8/5
f 501/8/5 497/8/5 500/8/5
f 502/8/5 499/8/5 498/8/5
f 503/8/5 499/8/5 502/8/5
f 506/6/5 501/6/5 500/6/5
f 506/6/5 502/6/5 501/6/5
f 506/6/5 503/6/5 502/6/5
f 507/6/5 503/6/5 506/6/5
f 508/6/5 503/6/5 507/6/5
f 509/6/5 503/6/5 508/6/5
f 512/2/5 505/2/5 504/2/5
f 513/2/5 505/2/5 512/2/5
f 515/6/5 508/6/5 507/6/5
f 516/6/5 508/6/5 515/6/5
f 518/2/5 511/2/5 510/2/5
f 519/2/5 511/2/5 518/2/5
f 520/6/5 517/6/5 516/6/5
f 520/6/5 515/6/5 514/6/5
f 520/6/5 516/6/5 515/6/5
f 521/6/5 517/6/5 520/6/5
f 527/7/5 523/7/5 522/7/5
f 528/7/5 523/7/5 527/7/5
f 529/7/5 525/7/5 524/7/5
f 530/9/5 526/9/5 525/9/5
f 530/7/5 525/7/5 529/7/5
f 531/9/5 526/9/5 530/9/5
f 536/7/5 533/7/5 532/7/5
f 537/7/5 533/7/5 536/7/5
f 540/10/5 535/10/5 534/10/5
f 541/10/5 535/10/5 540/10/5
f 542/10/5 539/10/5 538/10/5
f 543/10/5 539/10/5 542/10/5
f 548/10/5 545/10/5 544/10/5
f 549/10/5 545/10/5 548/10/5
f 550/10/5 547/10/5 546/10/5
f 551/10/5 547/10/5 550/10/5
f 556/10/5 553/10/5 552/10/5
f 557/10/5 553/10/5 556/10/5
f 560/10/5 555/10/5 554/10/5
f 561/10/5 555/10/5 560/10/5
f 562/10/5 558/10/5 557/10/5
f 563/10/5 558/10/5 562/10/5
f 564/10/5 560/10/5 559/10/5
f 565/10/5 560/10/5 564/10/5
f 568/2/5 567/2/5 566/2/5
f 569/2/5 567/2/5 568/2/5
f 570/2/5 567/2/5 569/2/5
f 571/2/5 567/2/5 570/2/5
f 574/10/5 573/10/5 572/10/5
f 575/10/5 573/10/5 574/10/5
f 580/2/5 577/2/5 576/2/5
f 581/2/5 577/2/5 580/2/5
f 582/2/5 579/2/5 578/2/5
f 583/2/5 579/2/5 582/2/5
f 584/4/5 581/4/5 580/4/5
f 587/4/5 583/4/5 582/4/5
f 588/4/5 585/4/5 584/4/5
f 589/4/5 587/4/5 586/4/5
f 590/4/5 588/4/5 584/4/5
f 590/4/5 584/4/5 580/4/5
f 591/4/5 588/4/5 590/4/5
f 592/4/5 587/4/5 589/4/5
f 593/4/5 583/4/5 587/4/5
f 593/4/5 587/4/5 592/4/5
f 598/4/5 595/4/5 594/4/5
f 599/4/5 595/4/5 598/4/5
f 600/4/5 597/4/5 596/4/5
f 601/4/5 597/4/5 600/4/5
f 602/4/5 598/4/5 594/4/5
f 603/4/5 597/4/5 601/4/5
f 604/4/5 602/4/5 594/4/5
f 605/4/5 602/4/5 604/4/5
f 606/4/5 597/4/5 603/4/5
f 607/4/5 597/4/5 606/4/5
f 610/4/5 609/4/5 608/4/5
f 611/4/5 609/4/5 610/4/5
f 612/5/6 613/5/6 616/5/6
f 616/5/6 613/5/6 617/5/6
f 614/5/6 615/5/6 618/5/6
f 618/5/6 615/5/6 619/5/6
f 620/7/6 621/7/6 624/7/6
f 624/7/6 621/7/6 625/7/6
f 625/7/6 621/7/6 626/7/6
f 622/9/6 623/9/6 628/9/6
f 628/9/6 623/9/6 629/9/6
f 629/9/6 623/9/6 630/9/6
f 625/8/6 626/8/6 631/8/6
f 631/8/6 626/8/6 632/8/6
f 627/8/6 628/8/6 633/8/6
f 633/8/6 628/8/6 634/8/6
f 635/8/6 636/8/6 639/8/6
f 639/8/6 636/8/6 640/8/6
f 637/8/6 638/8/6 641/8/6
f 641/8/6 638/8/6 642/8/6
f 643/10/6 644/10/6 647/10/6
f 645/10/6 646/10/6 648/10/6
f 643/10/6 647/10/6 649/10/6
f 649/10/6 647/10/6 650/10/6
f 648/10/6 646/10/6 653/10/6
f 653/10/6 646/10/6 654/10/6
f 650/10/6 651/10/6 655/10/6
f 655/10/6 651/10/6 656/10/6
f 652/10/6 653/10/6 657/10/6
f 657/10/6 653/10/6 658/10/6
f 659/4/6 660/4/6 663/4/6
f 663/4/6 660/4/6 664/4/6
f 661/4/6 662/4/6 665/4/6
f 665/4/6 662/4/6 666/4/6
f 664/4/6 665/4/6 667/4/6
f 667/4/6 665/4/6 668/4/6
f 669/4/6 670/4/6 671/4/6
f 671/4/6 670/4/6 672/4/6
f 669/4/6 671/4/6 673/4/6
f 672/4/6 670/4/6 674/4/6
f 669/4/6 673/4/6 675/4/6
f 673/4/6 674/4/6 675/4/6
f 674/4/6 670/4/6 676/4/6
f 675/4/6 674/4/6 676/4/6
f 677/4/6 678/4/6 679/4/6
f 679/4/6 678/4/6 680/4/6
