# MagicaVoxel @ Ephtracy

# group
o 

# material
mtllib Science_Walk1.vox.mtl
usemtl palette

# normals
vn -1 0 0
vn 1 0 0
vn 0 0 1
vn 0 0 -1
vn 0 -1 0
vn 0 1 0

# texcoords
vt 0.0839844 0.5
vt 0.0996094 0.5
vt 0.287109 0.5
vt 0.291016 0.5
vt 0.310547 0.5
vt 0.365234 0.5
vt 0.583984 0.5
vt 0.732422 0.5
vt 0.748047 0.5
vt 0.939453 0.5
vt 0.951172 0.5
vt 0.958984 0.5
vt 0.986328 0.5
vt 0.994141 0.5

# verts
v -0.7 1.3 -0.1
v -0.7 1.3 -0.3
v -0.7 1.4 0
v -0.7 1.4 -0.1
v -0.7 1.4 -0.3
v -0.7 1.5 0
v -0.7 1.5 -0.1
v -0.6 0.5 0.3
v -0.6 0.5 0.1
v -0.6 0.5 -0.1
v -0.6 0.7 0.3
v -0.6 0.7 0.1
v -0.6 0.7 -0.1
v -0.6 1.2 -0.2
v -0.6 1.2 -0.4
v -0.6 1.3 0.4
v -0.6 1.3 -0.1
v -0.6 1.3 -0.2
v -0.6 1.3 -0.3
v -0.6 1.3 -0.4
v -0.6 1.4 0
v -0.6 1.4 -0.1
v -0.6 1.4 -0.3
v -0.6 1.5 0.4
v -0.6 1.5 0.2
v -0.6 1.5 0
v -0.6 1.5 -0.1
v -0.6 1.5 -0.3
v -0.6 1.6 0.2
v -0.6 1.6 0
v -0.5 0.9 0.3
v -0.5 0.9 0
v -0.5 0.9 -0.4
v -0.5 1.2 -0.2
v -0.5 1.2 -0.4
v -0.5 1.2 -0.5
v -0.5 1.3 0.3
v -0.5 1.3 0
v -0.5 1.3 -0.2
v -0.5 1.3 -0.3
v -0.5 1.3 -0.4
v -0.5 1.3 -0.5
v -0.5 1.5 0.5
v -0.5 1.5 0.4
v -0.5 1.5 0.2
v -0.5 1.5 0
v -0.5 1.5 -0.3
v -0.5 1.5 -0.4
v -0.5 1.6 0.5
v -0.5 1.6 0.4
v -0.5 1.6 0.3
v -0.5 1.6 0.2
v -0.5 1.6 0
v -0.5 1.6 -0.3
v -0.5 1.7 0.4
v -0.5 1.7 0.3
v -0.5 1.7 0.2
v -0.4 0.2 0.2
v -0.4 0.2 -0.2
v -0.4 0.5 0.2
v -0.4 0.5 0.1
v -0.4 0.5 -0.1
v -0.4 0.7 0.2
v -0.4 0.7 0.1
v -0.4 0.7 -0.1
v -0.4 0.8 0.3
v -0.4 0.8 0.2
v -0.4 0.8 0
v -0.4 0.8 -0.2
v -0.4 0.9 0.3
v -0.4 0.9 0
v -0.4 0.9 -0.2
v -0.4 1.1 -0.4
v -0.4 1.1 -0.5
v -0.4 1.2 -0.4
v -0.4 1.2 -0.5
v -0.4 1.4 0.5
v -0.4 1.4 0.4
v -0.4 1.5 0.5
v -0.4 1.5 0.4
v -0.4 1.6 0.2
v -0.4 1.6 -0.2
v -0.4 1.7 0.3
v -0.4 1.7 0.2
v -0.4 1.7 -0.2
v -0.4 1.8 0.3
v -0.4 1.8 0.2
v -0.3 0 0.2
v -0.3 0 -0.1
v -0.3 0.1 0.2
v -0.3 0.1 0.1
v -0.3 0.2 0.1
v -0.3 0.2 -0.1
v -0.3 0.2 -0.2
v -0.3 0.2 -0.3
v -0.3 0.4 0.3
v -0.3 0.4 0.2
v -0.3 0.5 0.3
v -0.3 0.5 0.2
v -0.3 0.8 -0.2
v -0.3 0.8 -0.3
v -0.3 0.9 -0.2
v -0.3 0.9 -0.3
v -0.2 0.1 -0.2
v -0.2 0.1 -0.3
v -0.2 0.2 -0.2
v -0.2 0.2 -0.3
v -0.2 1 -0.4
v -0.2 1 -0.5
v -0.2 1.1 -0.4
v -0.2 1.1 -0.5
v 0.1 0.1 0.4
v 0.1 0.1 0.2
v 0.1 0.1 -0.1
v 0.1 0.3 0.3
v 0.1 0.3 0.2
v 0.1 0.3 -0.1
v 0.1 0.4 0.4
v 0.1 0.4 0.3
v 0.1 1.5 0.5
v 0.1 1.5 0.4
v 0.1 1.6 0.5
v 0.1 1.6 0.4
v 0.2 1.1 -0.4
v 0.2 1.1 -0.5
v 0.2 1.2 -0.4
v 0.2 1.2 -0.5
v 0.2 1.4 0.5
v 0.2 1.4 0.4
v 0.2 1.5 0.5
v 0.2 1.5 0.4
v 0.2 1.7 0.3
v 0.2 1.7 0.2
v 0.2 1.8 0.3
v 0.2 1.8 0.2
v 0.3 0.2 -0.1
v 0.3 0.2 -0.2
v 0.3 0.3 -0.1
v 0.3 0.3 -0.2
v 0.4 1.2 -0.4
v 0.4 1.2 -0.5
v 0.4 1.3 0.4
v 0.4 1.3 0.3
v 0.4 1.3 -0.4
v 0.4 1.3 -0.5
v 0.4 1.4 0.4
v 0.4 1.4 0.3
v -0.4 1.2 -0.4
v -0.4 1.2 -0.5
v -0.4 1.3 0.4
v -0.4 1.3 0.3
v -0.4 1.3 -0.4
v -0.4 1.3 -0.5
v -0.4 1.4 0.4
v -0.4 1.4 0.3
v -0.3 0.2 0.2
v -0.3 0.2 0.1
v -0.3 0.2 -0.1
v -0.3 0.2 -0.2
v -0.3 0.3 0.2
v -0.3 0.3 0.1
v -0.3 0.3 -0.1
v -0.3 0.3 -0.2
v -0.2 0.4 0.3
v -0.2 0.4 0.2
v -0.2 0.5 0.3
v -0.2 0.5 0.2
v -0.2 0.6 0.3
v -0.2 0.6 0.2
v -0.2 0.7 0.3
v -0.2 0.7 0.2
v -0.2 1.1 -0.4
v -0.2 1.1 -0.5
v -0.2 1.2 -0.4
v -0.2 1.2 -0.5
v -0.2 1.4 0.5
v -0.2 1.4 0.4
v -0.2 1.5 0.5
v -0.2 1.5 0.4
v -0.2 1.7 0.3
v -0.2 1.7 0.2
v -0.2 1.8 0.3
v -0.2 1.8 0.2
v -0.1 0 0.2
v -0.1 0 -0.1
v -0.1 0.1 0.2
v -0.1 0.1 0.1
v -0.1 0.2 0.1
v -0.1 0.2 -0.1
v -0.1 0.3 0.1
v -0.1 0.3 -0.1
v -0.1 0.5 0.3
v -0.1 0.5 0.2
v -0.1 0.6 0.3
v -0.1 0.6 0.2
v -0.1 1.5 0.5
v -0.1 1.5 0.4
v -0.1 1.6 0.5
v -0.1 1.6 0.4
v 0.2 0.1 -0.2
v 0.2 0.1 -0.3
v 0.2 0.2 -0.2
v 0.2 0.2 -0.3
v 0.2 1 -0.4
v 0.2 1 -0.5
v 0.2 1.1 -0.4
v 0.2 1.1 -0.5
v 0.3 0.1 0.4
v 0.3 0.1 0.2
v 0.3 0.1 -0.1
v 0.3 0.2 0.2
v 0.3 0.2 -0.1
v 0.3 0.2 -0.2
v 0.3 0.2 -0.3
v 0.3 0.3 0.3
v 0.3 0.3 0.2
v 0.3 0.4 0.4
v 0.3 0.4 0.3
v 0.3 0.8 -0.2
v 0.3 0.8 -0.3
v 0.3 0.9 -0.2
v 0.3 0.9 -0.3
v 0.4 0.2 0.2
v 0.4 0.2 -0.2
v 0.4 0.3 0.1
v 0.4 0.3 -0.1
v 0.4 0.5 0.1
v 0.4 0.5 -0.1
v 0.4 0.7 0.1
v 0.4 0.7 -0.1
v 0.4 0.8 0.3
v 0.4 0.8 0.2
v 0.4 0.8 0
v 0.4 0.8 -0.2
v 0.4 0.9 0.3
v 0.4 0.9 0
v 0.4 0.9 -0.2
v 0.4 1.1 -0.4
v 0.4 1.1 -0.5
v 0.4 1.2 -0.4
v 0.4 1.2 -0.5
v 0.4 1.4 0.5
v 0.4 1.4 0.4
v 0.4 1.5 0.5
v 0.4 1.5 0.4
v 0.4 1.6 0.2
v 0.4 1.6 -0.2
v 0.4 1.7 0.3
v 0.4 1.7 0.2
v 0.4 1.7 -0.2
v 0.4 1.8 0.3
v 0.4 1.8 0.2
v 0.5 0.9 0.3
v 0.5 0.9 0
v 0.5 0.9 -0.4
v 0.5 1.2 -0.3
v 0.5 1.2 -0.4
v 0.5 1.2 -0.5
v 0.5 1.3 0.3
v 0.5 1.3 0
v 0.5 1.3 -0.3
v 0.5 1.3 -0.4
v 0.5 1.3 -0.5
v 0.5 1.5 0.5
v 0.5 1.5 0.4
v 0.5 1.5 0.2
v 0.5 1.5 0
v 0.5 1.5 -0.3
v 0.5 1.5 -0.4
v 0.5 1.6 0.5
v 0.5 1.6 0.4
v 0.5 1.6 0.3
v 0.5 1.6 0.2
v 0.5 1.6 0
v 0.5 1.6 -0.3
v 0.5 1.7 0.4
v 0.5 1.7 0.3
v 0.5 1.7 0.2
v 0.6 0.3 0.1
v 0.6 0.3 -0.1
v 0.6 0.5 0.1
v 0.6 0.5 -0.1
v 0.6 0.7 0.1
v 0.6 0.7 -0.1
v 0.6 1.2 -0.3
v 0.6 1.2 -0.4
v 0.6 1.3 0.4
v 0.6 1.3 -0.1
v 0.6 1.3 -0.3
v 0.6 1.3 -0.4
v 0.6 1.4 0
v 0.6 1.4 -0.1
v 0.6 1.4 -0.3
v 0.6 1.5 0.4
v 0.6 1.5 0.2
v 0.6 1.5 0
v 0.6 1.5 -0.1
v 0.6 1.5 -0.3
v 0.6 1.6 0.2
v 0.6 1.6 0
v 0.7 1.3 -0.1
v 0.7 1.3 -0.3
v 0.7 1.4 0
v 0.7 1.4 -0.1
v 0.7 1.4 -0.3
v 0.7 1.5 0
v 0.7 1.5 -0.1
v -0.5 1.5 0.5
v -0.5 1.6 0.5
v -0.4 1.4 0.5
v -0.4 1.5 0.5
v -0.4 1.6 0.5
v -0.2 1.4 0.5
v -0.2 1.5 0.5
v -0.2 1.6 0.5
v -0.1 1.5 0.5
v -0.1 1.6 0.5
v 0.1 1.5 0.5
v 0.1 1.6 0.5
v 0.2 1.4 0.5
v 0.2 1.5 0.5
v 0.2 1.6 0.5
v 0.4 1.4 0.5
v 0.4 1.5 0.5
v 0.4 1.6 0.5
v 0.5 1.5 0.5
v 0.5 1.6 0.5
v -0.6 1.3 0.4
v -0.6 1.5 0.4
v -0.5 1.5 0.4
v -0.5 1.6 0.4
v -0.5 1.7 0.4
v -0.4 1.3 0.4
v -0.4 1.4 0.4
v -0.4 1.5 0.4
v -0.4 1.6 0.4
v -0.4 1.7 0.4
v -0.2 1.4 0.4
v -0.2 1.5 0.4
v -0.2 1.6 0.4
v -0.2 1.7 0.4
v -0.1 1.5 0.4
v -0.1 1.6 0.4
v 0.1 0.1 0.4
v 0.1 0.4 0.4
v 0.1 1.5 0.4
v 0.1 1.6 0.4
v 0.2 1.4 0.4
v 0.2 1.5 0.4
v 0.2 1.6 0.4
v 0.2 1.7 0.4
v 0.3 0.1 0.4
v 0.3 0.4 0.4
v 0.4 1.3 0.4
v 0.4 1.4 0.4
v 0.4 1.5 0.4
v 0.4 1.6 0.4
v 0.4 1.7 0.4
v 0.5 1.5 0.4
v 0.5 1.6 0.4
v 0.5 1.7 0.4
v 0.6 1.3 0.4
v 0.6 1.5 0.4
v -0.6 0.5 0.3
v -0.6 0.7 0.3
v -0.5 0.9 0.3
v -0.5 1.3 0.3
v -0.4 0.5 0.3
v -0.4 0.6 0.3
v -0.4 0.7 0.3
v -0.4 0.8 0.3
v -0.4 0.9 0.3
v -0.4 1.3 0.3
v -0.4 1.4 0.3
v -0.4 1.7 0.3
v -0.4 1.8 0.3
v -0.3 0.4 0.3
v -0.3 0.5 0.3
v -0.3 0.6 0.3
v -0.3 0.7 0.3
v -0.3 1.1 0.3
v -0.3 1.3 0.3
v -0.2 0.4 0.3
v -0.2 0.5 0.3
v -0.2 0.6 0.3
v -0.2 0.7 0.3
v -0.2 1.1 0.3
v -0.2 1.3 0.3
v -0.2 1.7 0.3
v -0.2 1.8 0.3
v -0.1 0.5 0.3
v -0.1 0.6 0.3
v -0.1 0.9 0.3
v -0.1 1 0.3
v -0.1 1.1 0.3
v -0.1 1.3 0.3
v 0.1 0.9 0.3
v 0.1 1 0.3
v 0.1 1.1 0.3
v 0.1 1.3 0.3
v 0.2 1.1 0.3
v 0.2 1.3 0.3
v 0.2 1.7 0.3
v 0.2 1.8 0.3
v 0.3 1.1 0.3
v 0.3 1.3 0.3
v 0.4 0.8 0.3
v 0.4 0.9 0.3
v 0.4 1.3 0.3
v 0.4 1.4 0.3
v 0.4 1.7 0.3
v 0.4 1.8 0.3
v 0.5 0.9 0.3
v 0.5 1.3 0.3
v -0.6 1.5 0.2
v -0.6 1.6 0.2
v -0.5 1.5 0.2
v -0.5 1.6 0.2
v -0.4 0.2 0.2
v -0.4 0.5 0.2
v -0.4 0.7 0.2
v -0.4 0.8 0.2
v -0.3 0 0.2
v -0.3 0.1 0.2
v -0.3 0.2 0.2
v -0.3 0.3 0.2
v -0.3 0.4 0.2
v -0.3 0.5 0.2
v -0.3 0.7 0.2
v -0.2 0.4 0.2
v -0.2 0.5 0.2
v -0.2 0.6 0.2
v -0.2 0.7 0.2
v -0.2 0.8 0.2
v -0.1 0 0.2
v -0.1 0.1 0.2
v -0.1 0.3 0.2
v -0.1 0.4 0.2
v -0.1 0.5 0.2
v -0.1 0.6 0.2
v -0.1 0.7 0.2
v -0.1 0.8 0.2
v 0.1 0.3 0.2
v 0.1 0.4 0.2
v 0.1 0.7 0.2
v 0.1 0.8 0.2
v 0.2 0.7 0.2
v 0.2 0.8 0.2
v 0.3 0.2 0.2
v 0.3 0.3 0.2
v 0.4 0.2 0.2
v 0.4 0.8 0.2
v 0.5 1.5 0.2
v 0.5 1.6 0.2
v 0.6 1.5 0.2
v 0.6 1.6 0.2
v -0.3 0.1 0.1
v -0.3 0.2 0.1
v -0.3 0.3 0.1
v -0.1 0.1 0.1
v -0.1 0.2 0.1
v -0.1 0.3 0.1
v 0.4 0.3 0.1
v 0.4 0.5 0.1
v 0.4 0.7 0.1
v 0.6 0.3 0.1
v 0.6 0.5 0.1
v 0.6 0.7 0.1
v -0.7 1.4 0
v -0.7 1.5 0
v -0.6 1.4 0
v -0.6 1.5 0
v 0.6 1.4 0
v 0.6 1.5 0
v 0.7 1.4 0
v 0.7 1.5 0
v -0.7 1.3 -0.1
v -0.7 1.4 -0.1
v -0.6 1.3 -0.1
v -0.6 1.4 -0.1
v 0.6 1.3 -0.1
v 0.6 1.4 -0.1
v 0.7 1.3 -0.1
v 0.7 1.4 -0.1
v -0.6 1.2 -0.2
v -0.6 1.3 -0.2
v -0.5 1.2 -0.2
v -0.5 1.3 -0.2
v -0.3 0.2 -0.2
v -0.3 0.3 -0.2
v -0.2 0.1 -0.2
v -0.2 0.2 -0.2
v 0.2 0.1 -0.2
v 0.2 0.2 -0.2
v 0.3 0.2 -0.2
v 0.3 0.3 -0.2
v 0.5 1.2 -0.3
v 0.5 1.3 -0.3
v 0.6 1.2 -0.3
v 0.6 1.3 -0.3
v 0.1 0.3 0.3
v 0.1 0.4 0.3
v 0.3 0.3 0.3
v 0.3 0.4 0.3
v -0.5 1.6 0.2
v -0.5 1.7 0.2
v -0.4 1.6 0.2
v -0.4 1.7 0.2
v -0.4 1.8 0.2
v -0.2 1.7 0.2
v -0.2 1.8 0.2
v 0.2 1.7 0.2
v 0.2 1.8 0.2
v 0.4 1.6 0.2
v 0.4 1.7 0.2
v 0.4 1.8 0.2
v 0.5 1.6 0.2
v 0.5 1.7 0.2
v -0.6 1.5 0
v -0.6 1.6 0
v -0.5 1.5 0
v -0.5 1.6 0
v 0.5 1.5 0
v 0.5 1.6 0
v 0.6 1.5 0
v 0.6 1.6 0
v -0.7 1.4 -0.1
v -0.7 1.5 -0.1
v -0.6 0.5 -0.1
v -0.6 0.7 -0.1
v -0.6 1.4 -0.1
v -0.6 1.5 -0.1
v -0.4 0.5 -0.1
v -0.4 0.7 -0.1
v -0.3 0 -0.1
v -0.3 0.2 -0.1
v -0.3 0.3 -0.1
v -0.1 0 -0.1
v -0.1 0.2 -0.1
v -0.1 0.3 -0.1
v 0.1 0.1 -0.1
v 0.1 0.3 -0.1
v 0.3 0.1 -0.1
v 0.3 0.2 -0.1
v 0.3 0.3 -0.1
v 0.4 0.3 -0.1
v 0.4 0.5 -0.1
v 0.4 0.7 -0.1
v 0.6 0.3 -0.1
v 0.6 0.5 -0.1
v 0.6 0.7 -0.1
v 0.6 1.4 -0.1
v 0.6 1.5 -0.1
v 0.7 1.4 -0.1
v 0.7 1.5 -0.1
v -0.4 0.2 -0.2
v -0.4 0.8 -0.2
v -0.4 0.9 -0.2
v -0.4 1.6 -0.2
v -0.4 1.7 -0.2
v -0.3 0.2 -0.2
v -0.3 0.8 -0.2
v -0.3 0.9 -0.2
v 0.3 0.2 -0.2
v 0.3 0.8 -0.2
v 0.3 0.9 -0.2
v 0.4 0.2 -0.2
v 0.4 0.8 -0.2
v 0.4 0.9 -0.2
v 0.4 1.6 -0.2
v 0.4 1.7 -0.2
v -0.7 1.3 -0.3
v -0.7 1.4 -0.3
v -0.6 1.3 -0.3
v -0.6 1.4 -0.3
v -0.6 1.5 -0.3
v -0.5 1.3 -0.3
v -0.5 1.5 -0.3
v -0.5 1.6 -0.3
v -0.3 0.2 -0.3
v -0.3 0.8 -0.3
v -0.3 0.9 -0.3
v -0.2 0.1 -0.3
v -0.2 0.2 -0.3
v 0.2 0.1 -0.3
v 0.2 0.2 -0.3
v 0.3 0.2 -0.3
v 0.3 0.8 -0.3
v 0.3 0.9 -0.3
v 0.5 1.3 -0.3
v 0.5 1.5 -0.3
v 0.5 1.6 -0.3
v 0.6 1.3 -0.3
v 0.6 1.4 -0.3
v 0.6 1.5 -0.3
v 0.7 1.3 -0.3
v 0.7 1.4 -0.3
v -0.6 1.2 -0.4
v -0.6 1.3 -0.4
v -0.5 0.9 -0.4
v -0.5 1.2 -0.4
v -0.5 1.3 -0.4
v -0.5 1.5 -0.4
v -0.4 1.1 -0.4
v -0.4 1.2 -0.4
v -0.4 1.3 -0.4
v -0.2 1 -0.4
v -0.2 1.1 -0.4
v -0.2 1.2 -0.4
v 0.2 1 -0.4
v 0.2 1.1 -0.4
v 0.2 1.2 -0.4
v 0.4 1.1 -0.4
v 0.4 1.2 -0.4
v 0.4 1.3 -0.4
v 0.5 0.9 -0.4
v 0.5 1.2 -0.4
v 0.5 1.3 -0.4
v 0.5 1.5 -0.4
v 0.6 1.2 -0.4
v 0.6 1.3 -0.4
v -0.5 1.2 -0.5
v -0.5 1.3 -0.5
v -0.4 1.1 -0.5
v -0.4 1.2 -0.5
v -0.4 1.3 -0.5
v -0.2 1 -0.5
v -0.2 1.1 -0.5
v -0.2 1.2 -0.5
v 0.2 1 -0.5
v 0.2 1.1 -0.5
v 0.2 1.2 -0.5
v 0.4 1.1 -0.5
v 0.4 1.2 -0.5
v 0.4 1.3 -0.5
v 0.5 1.2 -0.5
v 0.5 1.3 -0.5
v -0.3 0 0.2
v -0.1 0 0.2
v -0.3 0 -0.1
v -0.1 0 -0.1
v 0.1 0.1 0.4
v 0.3 0.1 0.4
v 0.1 0.1 0.2
v 0.3 0.1 0.2
v 0.1 0.1 -0.1
v 0.3 0.1 -0.1
v -0.2 0.1 -0.2
v 0.2 0.1 -0.2
v -0.2 0.1 -0.3
v 0.2 0.1 -0.3
v -0.4 0.2 0.2
v -0.3 0.2 0.2
v 0.3 0.2 0.2
v 0.4 0.2 0.2
v -0.3 0.2 0.1
v -0.3 0.2 -0.1
v 0.3 0.2 -0.1
v -0.4 0.2 -0.2
v -0.3 0.2 -0.2
v -0.2 0.2 -0.2
v 0.2 0.2 -0.2
v 0.3 0.2 -0.2
v 0.4 0.2 -0.2
v -0.3 0.2 -0.3
v -0.2 0.2 -0.3
v 0.2 0.2 -0.3
v 0.3 0.2 -0.3
v -0.3 0.3 0.2
v -0.1 0.3 0.2
v 0.1 0.3 0.2
v -0.3 0.3 0.1
v -0.1 0.3 0.1
v 0.4 0.3 0.1
v 0.6 0.3 0.1
v -0.3 0.3 -0.1
v -0.1 0.3 -0.1
v 0.1 0.3 -0.1
v 0.3 0.3 -0.1
v 0.4 0.3 -0.1
v 0.6 0.3 -0.1
v -0.3 0.3 -0.2
v 0.3 0.3 -0.2
v -0.3 0.4 0.3
v -0.2 0.4 0.3
v -0.3 0.4 0.2
v -0.2 0.4 0.2
v -0.6 0.5 0.3
v -0.4 0.5 0.3
v -0.3 0.5 0.3
v -0.2 0.5 0.3
v -0.1 0.5 0.3
v -0.4 0.5 0.2
v -0.3 0.5 0.2
v -0.2 0.5 0.2
v -0.1 0.5 0.2
v -0.6 0.5 0.1
v -0.4 0.5 0.1
v -0.6 0.5 -0.1
v -0.4 0.5 -0.1
v -0.4 0.8 0.3
v 0.4 0.8 0.3
v -0.4 0.8 0.2
v -0.2 0.8 0.2
v -0.1 0.8 0.2
v 0.1 0.8 0.2
v 0.2 0.8 0.2
v 0.4 0.8 0.2
v -0.5 0.9 0.3
v -0.4 0.9 0.3
v 0.4 0.9 0.3
v 0.5 0.9 0.3
v -0.5 0.9 0
v -0.4 0.9 0
v 0.4 0.9 0
v 0.5 0.9 0
v -0.4 0.9 -0.2
v -0.3 0.9 -0.2
v 0.3 0.9 -0.2
v 0.4 0.9 -0.2
v -0.3 0.9 -0.3
v 0.3 0.9 -0.3
v -0.5 0.9 -0.4
v 0.5 0.9 -0.4
v -0.2 1 -0.4
v 0.2 1 -0.4
v -0.2 1 -0.5
v 0.2 1 -0.5
v -0.4 1.1 -0.4
v -0.2 1.1 -0.4
v 0.2 1.1 -0.4
v 0.4 1.1 -0.4
v -0.4 1.1 -0.5
v -0.2 1.1 -0.5
v 0.2 1.1 -0.5
v 0.4 1.1 -0.5
v -0.6 1.2 -0.2
v -0.5 1.2 -0.2
v 0.5 1.2 -0.3
v 0.6 1.2 -0.3
v -0.6 1.2 -0.4
v -0.5 1.2 -0.4
v -0.4 1.2 -0.4
v 0.4 1.2 -0.4
v 0.5 1.2 -0.4
v 0.6 1.2 -0.4
v -0.5 1.2 -0.5
v -0.4 1.2 -0.5
v 0.4 1.2 -0.5
v 0.5 1.2 -0.5
v -0.6 1.3 0.4
v -0.4 1.3 0.4
v 0.4 1.3 0.4
v 0.6 1.3 0.4
v -0.5 1.3 0.3
v -0.4 1.3 0.3
v 0.4 1.3 0.3
v 0.5 1.3 0.3
v -0.5 1.3 0
v 0.5 1.3 0
v -0.7 1.3 -0.1
v -0.6 1.3 -0.1
v 0.6 1.3 -0.1
v 0.7 1.3 -0.1
v -0.6 1.3 -0.2
v -0.5 1.3 -0.2
v -0.7 1.3 -0.3
v -0.6 1.3 -0.3
v 0.5 1.3 -0.3
v 0.6 1.3 -0.3
v 0.7 1.3 -0.3
v -0.4 1.4 0.5
v -0.2 1.4 0.5
v 0.2 1.4 0.5
v 0.4 1.4 0.5
v -0.4 1.4 0.4
v -0.2 1.4 0.4
v 0.2 1.4 0.4
v 0.4 1.4 0.4
v -0.4 1.4 0.3
v 0.4 1.4 0.3
v -0.7 1.4 0
v -0.6 1.4 0
v 0.6 1.4 0
v 0.7 1.4 0
v -0.7 1.4 -0.1
v -0.6 1.4 -0.1
v 0.6 1.4 -0.1
v 0.7 1.4 -0.1
v -0.5 1.5 0.5
v -0.4 1.5 0.5
v -0.2 1.5 0.5
v -0.1 1.5 0.5
v 0.1 1.5 0.5
v 0.2 1.5 0.5
v 0.4 1.5 0.5
v 0.5 1.5 0.5
v -0.5 1.5 0.4
v -0.4 1.5 0.4
v -0.2 1.5 0.4
v -0.1 1.5 0.4
v 0.1 1.5 0.4
v 0.2 1.5 0.4
v 0.4 1.5 0.4
v 0.5 1.5 0.4
v -0.3 0.1 0.2
v -0.1 0.1 0.2
v -0.3 0.1 0.1
v -0.1 0.1 0.1
v 0.1 0.3 0.3
v 0.3 0.3 0.3
v 0.1 0.3 0.2
v 0.3 0.3 0.2
v 0.1 0.4 0.4
v 0.3 0.4 0.4
v 0.1 0.4 0.3
v 0.3 0.4 0.3
v -0.2 0.6 0.3
v -0.1 0.6 0.3
v -0.2 0.6 0.2
v -0.1 0.6 0.2
v -0.6 0.7 0.3
v -0.4 0.7 0.3
v -0.3 0.7 0.3
v -0.2 0.7 0.3
v -0.4 0.7 0.2
v -0.3 0.7 0.2
v -0.2 0.7 0.2
v -0.6 0.7 0.1
v -0.4 0.7 0.1
v 0.4 0.7 0.1
v 0.6 0.7 0.1
v -0.6 0.7 -0.1
v -0.4 0.7 -0.1
v 0.4 0.7 -0.1
v 0.6 0.7 -0.1
v -0.2 1.1 -0.4
v 0.2 1.1 -0.4
v -0.2 1.1 -0.5
v 0.2 1.1 -0.5
v -0.4 1.2 -0.4
v -0.2 1.2 -0.4
v 0.2 1.2 -0.4
v 0.4 1.2 -0.4
v -0.4 1.2 -0.5
v -0.2 1.2 -0.5
v 0.2 1.2 -0.5
v 0.4 1.2 -0.5
v -0.6 1.3 -0.3
v -0.5 1.3 -0.3
v 0.5 1.3 -0.3
v 0.6 1.3 -0.3
v -0.6 1.3 -0.4
v -0.5 1.3 -0.4
v -0.4 1.3 -0.4
v 0.4 1.3 -0.4
v 0.5 1.3 -0.4
v 0.6 1.3 -0.4
v -0.5 1.3 -0.5
v -0.4 1.3 -0.5
v 0.4 1.3 -0.5
v 0.5 1.3 -0.5
v -0.7 1.4 -0.1
v -0.6 1.4 -0.1
v 0.6 1.4 -0.1
v 0.7 1.4 -0.1
v -0.7 1.4 -0.3
v -0.6 1.4 -0.3
v 0.6 1.4 -0.3
v 0.7 1.4 -0.3
v -0.6 1.5 0.4
v -0.5 1.5 0.4
v 0.5 1.5 0.4
v 0.6 1.5 0.4
v -0.6 1.5 0.2
v -0.5 1.5 0.2
v 0.5 1.5 0.2
v 0.6 1.5 0.2
v -0.7 1.5 0
v -0.6 1.5 0
v -0.5 1.5 0
v 0.5 1.5 0
v 0.6 1.5 0
v 0.7 1.5 0
v -0.7 1.5 -0.1
v -0.6 1.5 -0.1
v 0.6 1.5 -0.1
v 0.7 1.5 -0.1
v -0.6 1.5 -0.3
v -0.5 1.5 -0.3
v 0.5 1.5 -0.3
v 0.6 1.5 -0.3
v -0.5 1.5 -0.4
v 0.5 1.5 -0.4
v -0.5 1.6 0.5
v -0.4 1.6 0.5
v -0.2 1.6 0.5
v -0.1 1.6 0.5
v 0.1 1.6 0.5
v 0.2 1.6 0.5
v 0.4 1.6 0.5
v 0.5 1.6 0.5
v -0.5 1.6 0.4
v -0.4 1.6 0.4
v -0.2 1.6 0.4
v -0.1 1.6 0.4
v 0.1 1.6 0.4
v 0.2 1.6 0.4
v 0.4 1.6 0.4
v 0.5 1.6 0.4
v -0.6 1.6 0.2
v -0.5 1.6 0.2
v -0.4 1.6 0.2
v 0.4 1.6 0.2
v 0.5 1.6 0.2
v 0.6 1.6 0.2
v -0.6 1.6 0
v -0.5 1.6 0
v 0.5 1.6 0
v 0.6 1.6 0
v -0.4 1.6 -0.2
v 0.4 1.6 -0.2
v -0.5 1.6 -0.3
v 0.5 1.6 -0.3
v -0.5 1.7 0.4
v -0.4 1.7 0.4
v -0.2 1.7 0.4
v 0.2 1.7 0.4
v 0.4 1.7 0.4
v 0.5 1.7 0.4
v -0.5 1.7 0.3
v -0.4 1.7 0.3
v -0.2 1.7 0.3
v 0.2 1.7 0.3
v 0.4 1.7 0.3
v 0.5 1.7 0.3
v -0.5 1.7 0.2
v -0.4 1.7 0.2
v -0.2 1.7 0.2
v 0.2 1.7 0.2
v 0.4 1.7 0.2
v 0.5 1.7 0.2
v -0.4 1.7 -0.2
v 0.4 1.7 -0.2
v -0.4 1.8 0.3
v -0.2 1.8 0.3
v 0.2 1.8 0.3
v 0.4 1.8 0.3
v -0.4 1.8 0.2
v -0.2 1.8 0.2
v 0.2 1.8 0.2
v 0.4 1.8 0.2

# faces
f 4/11/1 2/11/1 1/11/1
f 5/11/1 2/11/1 4/11/1
f 6/11/1 4/11/1 3/11/1
f 7/11/1 4/11/1 6/11/1
f 11/6/1 9/6/1 8/6/1
f 12/12/1 10/12/1 9/12/1
f 12/6/1 9/6/1 11/6/1
f 13/12/1 10/12/1 12/12/1
f 18/11/1 15/11/1 14/11/1
f 19/11/1 15/11/1 18/11/1
f 20/11/1 15/11/1 19/11/1
f 21/5/1 17/5/1 16/5/1
f 22/5/1 17/5/1 21/5/1
f 24/5/1 21/5/1 16/5/1
f 25/5/1 21/5/1 24/5/1
f 26/5/1 21/5/1 25/5/1
f 27/5/1 23/5/1 22/5/1
f 28/5/1 23/5/1 27/5/1
f 29/11/1 26/11/1 25/11/1
f 30/11/1 26/11/1 29/11/1
f 34/5/1 33/5/1 32/5/1
f 35/5/1 33/5/1 34/5/1
f 37/3/1 32/3/1 31/3/1
f 38/5/1 34/5/1 32/5/1
f 38/3/1 32/3/1 37/3/1
f 39/5/1 34/5/1 38/5/1
f 41/11/1 36/11/1 35/11/1
f 42/11/1 36/11/1 41/11/1
f 47/5/1 41/5/1 40/5/1
f 48/5/1 41/5/1 47/5/1
f 49/10/1 44/10/1 43/10/1
f 50/5/1 45/5/1 44/5/1
f 50/10/1 44/10/1 49/10/1
f 51/5/1 45/5/1 50/5/1
f 52/5/1 45/5/1 51/5/1
f 53/5/1 47/5/1 46/5/1
f 54/5/1 47/5/1 53/5/1
f 55/10/1 51/10/1 50/10/1
f 56/11/1 52/11/1 51/11/1
f 56/10/1 51/10/1 55/10/1
f 57/11/1 52/11/1 56/11/1
f 60/12/1 59/12/1 58/12/1
f 61/12/1 59/12/1 60/12/1
f 62/12/1 59/12/1 61/12/1
f 65/12/1 59/12/1 62/12/1
f 67/12/1 64/12/1 63/12/1
f 67/12/1 65/12/1 64/12/1
f 68/12/1 65/12/1 67/12/1
f 69/12/1 59/12/1 65/12/1
f 69/12/1 65/12/1 68/12/1
f 70/3/1 68/3/1 67/3/1
f 70/3/1 67/3/1 66/3/1
f 71/5/1 69/5/1 68/5/1
f 71/3/1 68/3/1 70/3/1
f 72/5/1 69/5/1 71/5/1
f 75/11/1 74/11/1 73/11/1
f 76/11/1 74/11/1 75/11/1
f 79/10/1 78/10/1 77/10/1
f 80/10/1 78/10/1 79/10/1
f 84/5/1 82/5/1 81/5/1
f 85/5/1 82/5/1 84/5/1
f 86/10/1 84/10/1 83/10/1
f 87/10/1 84/10/1 86/10/1
f 90/6/1 89/6/1 88/6/1
f 91/6/1 89/6/1 90/6/1
f 92/6/1 89/6/1 91/6/1
f 93/6/1 89/6/1 92/6/1
f 98/12/1 97/12/1 96/12/1
f 99/12/1 97/12/1 98/12/1
f 100/12/1 95/12/1 94/12/1
f 101/12/1 95/12/1 100/12/1
f 102/5/1 101/5/1 100/5/1
f 103/5/1 101/5/1 102/5/1
f 106/12/1 105/12/1 104/12/1
f 107/12/1 105/12/1 106/12/1
f 110/11/1 109/11/1 108/11/1
f 111/11/1 109/11/1 110/11/1
f 115/6/1 113/6/1 112/6/1
f 116/13/1 114/13/1 113/13/1
f 116/6/1 113/6/1 115/6/1
f 117/13/1 114/13/1 116/13/1
f 118/6/1 115/6/1 112/6/1
f 119/6/1 115/6/1 118/6/1
f 122/10/1 121/10/1 120/10/1
f 123/10/1 121/10/1 122/10/1
f 126/11/1 125/11/1 124/11/1
f 127/11/1 125/11/1 126/11/1
f 130/10/1 129/10/1 128/10/1
f 131/10/1 129/10/1 130/10/1
f 134/10/1 133/10/1 132/10/1
f 135/10/1 133/10/1 134/10/1
f 138/12/1 137/12/1 136/12/1
f 139/12/1 137/12/1 138/12/1
f 144/11/1 141/11/1 140/11/1
f 145/11/1 141/11/1 144/11/1
f 146/5/1 143/5/1 142/5/1
f 147/5/1 143/5/1 146/5/1
f 148/11/2 149/11/2 152/11/2
f 152/11/2 149/11/2 153/11/2
f 150/5/2 151/5/2 154/5/2
f 154/5/2 151/5/2 155/5/2
f 156/12/2 157/12/2 160/12/2
f 160/12/2 157/12/2 161/12/2
f 158/12/2 159/12/2 162/12/2
f 162/12/2 159/12/2 163/12/2
f 164/12/2 165/12/2 166/12/2
f 166/12/2 165/12/2 167/12/2
f 168/2/2 169/2/2 170/2/2
f 170/2/2 169/2/2 171/2/2
f 172/11/2 173/11/2 174/11/2
f 174/11/2 173/11/2 175/11/2
f 176/10/2 177/10/2 178/10/2
f 178/10/2 177/10/2 179/10/2
f 180/10/2 181/10/2 182/10/2
f 182/10/2 181/10/2 183/10/2
f 184/6/2 185/6/2 186/6/2
f 186/6/2 185/6/2 187/6/2
f 187/6/2 185/6/2 188/6/2
f 188/6/2 185/6/2 189/6/2
f 188/13/2 189/13/2 190/13/2
f 190/13/2 189/13/2 191/13/2
f 192/12/2 193/12/2 194/12/2
f 194/12/2 193/12/2 195/12/2
f 196/10/2 197/10/2 198/10/2
f 198/10/2 197/10/2 199/10/2
f 200/12/2 201/12/2 202/12/2
f 202/12/2 201/12/2 203/12/2
f 204/11/2 205/11/2 206/11/2
f 206/11/2 205/11/2 207/11/2
f 208/6/2 209/6/2 211/6/2
f 209/13/2 210/13/2 211/13/2
f 211/13/2 210/13/2 212/13/2
f 208/6/2 211/6/2 215/6/2
f 215/6/2 211/6/2 216/6/2
f 208/6/2 215/6/2 217/6/2
f 217/6/2 215/6/2 218/6/2
f 213/12/2 214/12/2 219/12/2
f 219/12/2 214/12/2 220/12/2
f 219/5/2 220/5/2 221/5/2
f 221/5/2 220/5/2 222/5/2
f 223/12/2 224/12/2 225/12/2
f 225/12/2 224/12/2 226/12/2
f 223/12/2 225/12/2 227/12/2
f 226/12/2 224/12/2 228/12/2
f 223/12/2 227/12/2 229/12/2
f 228/12/2 224/12/2 230/12/2
f 223/12/2 229/12/2 232/12/2
f 229/12/2 230/12/2 232/12/2
f 232/12/2 230/12/2 233/12/2
f 230/12/2 224/12/2 234/12/2
f 233/12/2 230/12/2 234/12/2
f 232/3/2 233/3/2 235/3/2
f 231/3/2 232/3/2 235/3/2
f 233/5/2 234/5/2 236/5/2
f 235/3/2 233/3/2 236/3/2
f 236/5/2 234/5/2 237/5/2
f 238/11/2 239/11/2 240/11/2
f 240/11/2 239/11/2 241/11/2
f 242/10/2 243/10/2 244/10/2
f 244/10/2 243/10/2 245/10/2
f 246/5/2 247/5/2 249/5/2
f 249/5/2 247/5/2 250/5/2
f 248/10/2 249/10/2 251/10/2
f 251/10/2 249/10/2 252/10/2
f 254/5/2 255/5/2 256/5/2
f 256/5/2 255/5/2 257/5/2
f 253/3/2 254/3/2 259/3/2
f 254/5/2 256/5/2 260/5/2
f 259/3/2 254/3/2 260/3/2
f 260/5/2 256/5/2 261/5/2
f 257/11/2 258/11/2 262/11/2
f 262/11/2 258/11/2 263/11/2
f 261/5/2 262/5/2 268/5/2
f 268/5/2 262/5/2 269/5/2
f 264/10/2 265/10/2 270/10/2
f 265/5/2 266/5/2 271/5/2
f 270/10/2 265/10/2 271/10/2
f 271/5/2 266/5/2 272/5/2
f 272/5/2 266/5/2 273/5/2
f 267/5/2 268/5/2 274/5/2
f 274/5/2 268/5/2 275/5/2
f 271/10/2 272/10/2 276/10/2
f 272/11/2 273/11/2 277/11/2
f 276/10/2 272/10/2 277/10/2
f 277/11/2 273/11/2 278/11/2
f 279/6/2 280/6/2 281/6/2
f 281/6/2 280/6/2 282/6/2
f 281/12/2 282/12/2 283/12/2
f 283/12/2 282/12/2 284/12/2
f 285/11/2 286/11/2 289/11/2
f 289/11/2 286/11/2 290/11/2
f 287/5/2 288/5/2 291/5/2
f 291/5/2 288/5/2 292/5/2
f 287/5/2 291/5/2 294/5/2
f 294/5/2 291/5/2 295/5/2
f 295/5/2 291/5/2 296/5/2
f 292/5/2 293/5/2 297/5/2
f 297/5/2 293/5/2 298/5/2
f 295/11/2 296/11/2 299/11/2
f 299/11/2 296/11/2 300/11/2
f 301/11/2 302/11/2 304/11/2
f 304/11/2 302/11/2 305/11/2
f 303/11/2 304/11/2 306/11/2
f 306/11/2 304/11/2 307/11/2
f 311/10/3 309/10/3 308/10/3
f 312/10/3 309/10/3 311/10/3
f 313/10/3 311/10/3 310/10/3
f 314/8/3 312/8/3 311/8/3
f 314/10/3 311/10/3 313/10/3
f 315/8/3 312/8/3 314/8/3
f 316/10/3 315/10/3 314/10/3
f 317/10/3 315/10/3 316/10/3
f 321/10/3 319/10/3 318/10/3
f 322/10/3 319/10/3 321/10/3
f 323/10/3 321/10/3 320/10/3
f 324/8/3 322/8/3 321/8/3
f 324/10/3 321/10/3 323/10/3
f 325/8/3 322/8/3 324/8/3
f 326/10/3 325/10/3 324/10/3
f 327/10/3 325/10/3 326/10/3
f 330/5/3 329/5/3 328/5/3
f 333/5/3 330/5/3 328/5/3
f 334/5/3 330/5/3 333/5/3
f 335/5/3 330/5/3 334/5/3
f 336/10/3 332/10/3 331/10/3
f 337/10/3 332/10/3 336/10/3
f 340/8/3 337/8/3 336/8/3
f 341/8/3 337/8/3 340/8/3
f 342/5/3 339/5/3 338/5/3
f 343/10/3 341/10/3 340/10/3
f 346/5/3 342/5/3 338/5/3
f 346/5/3 343/5/3 342/5/3
f 347/10/3 341/10/3 343/10/3
f 347/5/3 343/5/3 346/5/3
f 348/5/3 346/5/3 338/5/3
f 349/5/3 346/5/3 348/5/3
f 350/10/3 341/10/3 347/10/3
f 351/10/3 341/10/3 350/10/3
f 352/6/3 345/6/3 344/6/3
f 353/6/3 345/6/3 352/6/3
f 357/8/3 351/8/3 350/8/3
f 358/8/3 351/8/3 357/8/3
f 359/5/3 356/5/3 355/5/3
f 359/5/3 355/5/3 354/5/3
f 360/10/3 358/10/3 357/10/3
f 361/10/3 358/10/3 360/10/3
f 362/5/3 359/5/3 354/5/3
f 363/5/3 359/5/3 362/5/3
f 368/6/3 365/6/3 364/6/3
f 369/6/3 365/6/3 368/6/3
f 370/6/3 365/6/3 369/6/3
f 372/3/3 367/3/3 366/3/3
f 373/3/3 367/3/3 372/3/3
f 378/12/3 369/12/3 368/12/3
f 379/7/3 370/7/3 369/7/3
f 379/12/3 369/12/3 378/12/3
f 380/7/3 370/7/3 379/7/3
f 381/3/3 372/3/3 371/3/3
f 381/3/3 373/3/3 372/3/3
f 381/3/3 374/3/3 373/3/3
f 382/3/3 374/3/3 381/3/3
f 383/12/3 378/12/3 377/12/3
f 383/12/3 379/12/3 378/12/3
f 384/12/3 379/12/3 383/12/3
f 385/2/3 380/2/3 379/2/3
f 385/12/3 379/12/3 384/12/3
f 386/2/3 380/2/3 385/2/3
f 387/12/3 382/12/3 381/12/3
f 387/3/3 381/3/3 371/3/3
f 388/3/3 374/3/3 382/3/3
f 388/12/3 382/12/3 387/12/3
f 389/10/3 376/10/3 375/10/3
f 390/10/3 376/10/3 389/10/3
f 391/12/3 385/12/3 384/12/3
f 392/12/3 385/12/3 391/12/3
f 393/3/3 387/3/3 371/3/3
f 394/3/3 387/3/3 393/3/3
f 395/14/3 388/14/3 387/14/3
f 395/3/3 387/3/3 394/3/3
f 396/3/3 374/3/3 388/3/3
f 396/14/3 388/14/3 395/14/3
f 397/1/3 394/1/3 393/1/3
f 397/3/3 393/3/3 371/3/3
f 398/3/3 395/3/3 394/3/3
f 398/1/3 394/1/3 397/1/3
f 398/3/3 396/3/3 395/3/3
f 399/3/3 396/3/3 398/3/3
f 400/3/3 374/3/3 396/3/3
f 400/3/3 396/3/3 399/3/3
f 401/3/3 399/3/3 398/3/3
f 401/3/3 398/3/3 397/3/3
f 401/14/3 400/14/3 399/14/3
f 402/3/3 374/3/3 400/3/3
f 402/14/3 400/14/3 401/14/3
f 405/3/3 401/3/3 397/3/3
f 405/12/3 402/12/3 401/12/3
f 406/3/3 374/3/3 402/3/3
f 406/12/3 402/12/3 405/12/3
f 407/3/3 397/3/3 371/3/3
f 407/3/3 405/3/3 397/3/3
f 407/3/3 406/3/3 405/3/3
f 408/3/3 406/3/3 407/3/3
f 409/3/3 374/3/3 406/3/3
f 409/3/3 406/3/3 408/3/3
f 410/3/3 374/3/3 409/3/3
f 411/10/3 404/10/3 403/10/3
f 412/10/3 404/10/3 411/10/3
f 413/3/3 409/3/3 408/3/3
f 414/3/3 409/3/3 413/3/3
f 417/11/3 416/11/3 415/11/3
f 418/11/3 416/11/3 417/11/3
f 425/12/3 420/12/3 419/12/3
f 426/12/3 420/12/3 425/12/3
f 427/12/3 420/12/3 426/12/3
f 428/12/3 420/12/3 427/12/3
f 429/12/3 422/12/3 421/12/3
f 430/12/3 427/12/3 426/12/3
f 433/12/3 422/12/3 429/12/3
f 434/12/3 422/12/3 433/12/3
f 435/6/3 424/6/3 423/6/3
f 436/6/3 424/6/3 435/6/3
f 437/12/3 431/12/3 430/12/3
f 437/12/3 430/12/3 426/12/3
f 438/12/3 431/12/3 437/12/3
f 439/12/3 431/12/3 438/12/3
f 440/12/3 433/12/3 432/12/3
f 441/9/3 434/9/3 433/9/3
f 441/12/3 433/12/3 440/12/3
f 442/9/3 434/9/3 441/9/3
f 443/13/3 438/13/3 437/13/3
f 444/9/3 439/9/3 438/9/3
f 444/13/3 438/13/3 443/13/3
f 444/9/3 440/9/3 439/9/3
f 444/9/3 441/9/3 440/9/3
f 445/3/3 442/3/3 441/3/3
f 445/9/3 441/9/3 444/9/3
f 446/3/3 442/3/3 445/3/3
f 447/12/3 444/12/3 443/12/3
f 447/12/3 445/12/3 444/12/3
f 447/9/3 446/9/3 445/9/3
f 448/9/3 446/9/3 447/9/3
f 450/12/3 447/12/3 443/12/3
f 450/12/3 448/12/3 447/12/3
f 451/12/3 450/12/3 449/12/3
f 452/12/3 448/12/3 450/12/3
f 452/12/3 450/12/3 451/12/3
f 455/11/3 454/11/3 453/11/3
f 456/11/3 454/11/3 455/11/3
f 460/6/3 458/6/3 457/6/3
f 461/13/3 459/13/3 458/13/3
f 461/6/3 458/6/3 460/6/3
f 462/13/3 459/13/3 461/13/3
f 466/6/3 464/6/3 463/6/3
f 467/12/3 465/12/3 464/12/3
f 467/6/3 464/6/3 466/6/3
f 468/12/3 465/12/3 467/12/3
f 471/11/3 470/11/3 469/11/3
f 472/11/3 470/11/3 471/11/3
f 475/11/3 474/11/3 473/11/3
f 476/11/3 474/11/3 475/11/3
f 479/11/3 478/11/3 477/11/3
f 480/11/3 478/11/3 479/11/3
f 483/11/3 482/11/3 481/11/3
f 484/11/3 482/11/3 483/11/3
f 487/11/3 486/11/3 485/11/3
f 488/11/3 486/11/3 487/11/3
f 492/12/3 490/12/3 489/12/3
f 493/12/3 492/12/3 491/12/3
f 494/12/3 490/12/3 492/12/3
f 494/12/3 492/12/3 493/12/3
f 495/12/3 490/12/3 494/12/3
f 496/12/3 490/12/3 495/12/3
f 499/11/3 498/11/3 497/11/3
f 500/11/3 498/11/3 499/11/3
f 501/6/4 502/6/4 503/6/4
f 503/6/4 502/6/4 504/6/4
f 505/11/4 506/11/4 507/11/4
f 507/11/4 506/11/4 508/11/4
f 508/10/4 509/10/4 510/10/4
f 510/10/4 509/10/4 511/10/4
f 512/10/4 513/10/4 515/10/4
f 515/10/4 513/10/4 516/10/4
f 514/11/4 515/11/4 517/11/4
f 517/11/4 515/11/4 518/11/4
f 519/11/4 520/11/4 521/11/4
f 521/11/4 520/11/4 522/11/4
f 523/11/4 524/11/4 525/11/4
f 525/11/4 524/11/4 526/11/4
f 527/11/4 528/11/4 531/11/4
f 531/11/4 528/11/4 532/11/4
f 529/12/4 530/12/4 533/12/4
f 533/12/4 530/12/4 534/12/4
f 535/6/4 536/6/4 538/6/4
f 536/13/4 537/13/4 539/13/4
f 538/6/4 536/6/4 539/6/4
f 539/13/4 537/13/4 540/13/4
f 541/13/4 542/13/4 543/13/4
f 543/13/4 542/13/4 544/13/4
f 544/13/4 542/13/4 545/13/4
f 546/6/4 547/6/4 549/6/4
f 547/12/4 548/12/4 550/12/4
f 549/6/4 547/6/4 550/6/4
f 550/12/4 548/12/4 551/12/4
f 552/11/4 553/11/4 554/11/4
f 554/11/4 553/11/4 555/11/4
f 556/12/4 557/12/4 561/12/4
f 557/5/4 558/5/4 562/5/4
f 561/12/4 557/12/4 562/12/4
f 562/5/4 558/5/4 563/5/4
f 564/12/4 565/12/4 567/12/4
f 565/5/4 566/5/4 568/5/4
f 567/12/4 565/12/4 568/12/4
f 568/5/4 566/5/4 569/5/4
f 559/5/4 560/5/4 570/5/4
f 570/5/4 560/5/4 571/5/4
f 572/11/4 573/11/4 574/11/4
f 574/11/4 573/11/4 575/11/4
f 574/5/4 575/5/4 577/5/4
f 575/5/4 576/5/4 577/5/4
f 577/5/4 576/5/4 578/5/4
f 580/12/4 581/12/4 584/12/4
f 583/12/4 584/12/4 585/12/4
f 584/12/4 581/12/4 586/12/4
f 585/12/4 584/12/4 586/12/4
f 586/12/4 581/12/4 587/12/4
f 581/5/4 582/5/4 588/5/4
f 587/12/4 581/12/4 588/12/4
f 588/5/4 582/5/4 589/5/4
f 578/5/4 579/5/4 591/5/4
f 591/5/4 579/5/4 592/5/4
f 590/5/4 591/5/4 593/5/4
f 593/5/4 591/5/4 594/5/4
f 594/5/4 591/5/4 595/5/4
f 593/11/4 594/11/4 596/11/4
f 596/11/4 594/11/4 597/11/4
f 598/11/4 599/11/4 601/11/4
f 601/11/4 599/11/4 602/11/4
f 600/5/4 601/5/4 604/5/4
f 604/5/4 601/5/4 605/5/4
f 602/5/4 603/5/4 606/5/4
f 600/5/4 604/5/4 607/5/4
f 607/5/4 604/5/4 608/5/4
f 605/5/4 606/5/4 609/5/4
f 600/5/4 607/5/4 610/5/4
f 608/5/4 609/5/4 611/5/4
f 609/5/4 606/5/4 612/5/4
f 611/5/4 609/5/4 612/5/4
f 610/5/4 611/5/4 613/5/4
f 612/5/4 606/5/4 614/5/4
f 606/5/4 603/5/4 615/5/4
f 614/5/4 606/5/4 615/5/4
f 600/5/4 610/5/4 616/5/4
f 613/5/4 614/5/4 616/5/4
f 610/5/4 613/5/4 616/5/4
f 616/5/4 614/5/4 617/5/4
f 615/5/4 603/5/4 618/5/4
f 618/5/4 603/5/4 619/5/4
f 617/11/4 618/11/4 620/11/4
f 620/11/4 618/11/4 621/11/4
f 622/11/4 623/11/4 625/11/4
f 625/11/4 623/11/4 626/11/4
f 624/11/4 625/11/4 628/11/4
f 628/11/4 625/11/4 629/11/4
f 627/11/4 628/11/4 630/11/4
f 630/11/4 628/11/4 631/11/4
f 631/11/4 632/11/4 633/11/4
f 633/11/4 632/11/4 634/11/4
f 634/11/4 635/11/4 636/11/4
f 636/11/4 635/11/4 637/11/4
f 640/6/5 639/6/5 638/6/5
f 641/6/5 639/6/5 640/6/5
f 644/6/5 643/6/5 642/6/5
f 645/6/5 643/6/5 644/6/5
f 646/13/5 645/13/5 644/13/5
f 647/13/5 645/13/5 646/13/5
f 650/12/5 649/12/5 648/12/5
f 651/12/5 649/12/5 650/12/5
f 656/12/5 653/12/5 652/12/5
f 657/12/5 656/12/5 652/12/5
f 658/12/5 655/12/5 654/12/5
f 659/12/5 657/12/5 652/12/5
f 660/12/5 657/12/5 659/12/5
f 663/12/5 655/12/5 658/12/5
f 664/12/5 655/12/5 663/12/5
f 665/12/5 661/12/5 660/12/5
f 666/12/5 661/12/5 665/12/5
f 667/12/5 663/12/5 662/12/5
f 668/12/5 663/12/5 667/12/5
f 672/12/5 670/12/5 669/12/5
f 673/13/5 671/13/5 670/13/5
f 673/12/5 670/12/5 672/12/5
f 677/13/5 671/13/5 673/13/5
f 678/13/5 671/13/5 677/13/5
f 680/6/5 675/6/5 674/6/5
f 681/6/5 675/6/5 680/6/5
f 682/13/5 679/13/5 678/13/5
f 682/13/5 677/13/5 676/13/5
f 682/13/5 678/13/5 677/13/5
f 683/13/5 679/13/5 682/13/5
f 686/12/5 685/12/5 684/12/5
f 687/12/5 685/12/5 686/12/5
f 693/6/5 689/6/5 688/6/5
f 693/12/5 690/12/5 689/12/5
f 694/12/5 690/12/5 693/12/5
f 695/12/5 692/12/5 691/12/5
f 696/12/5 692/12/5 695/12/5
f 697/6/5 693/6/5 688/6/5
f 698/6/5 693/6/5 697/6/5
f 699/12/5 698/12/5 697/12/5
f 700/12/5 698/12/5 699/12/5
f 703/3/5 702/3/5 701/3/5
f 704/3/5 702/3/5 703/3/5
f 705/3/5 702/3/5 704/3/5
f 706/3/5 702/3/5 705/3/5
f 707/3/5 702/3/5 706/3/5
f 708/3/5 702/3/5 707/3/5
f 713/3/5 710/3/5 709/3/5
f 714/3/5 710/3/5 713/3/5
f 715/3/5 712/3/5 711/3/5
f 716/3/5 712/3/5 715/3/5
f 717/5/5 714/5/5 713/5/5
f 720/5/5 716/5/5 715/5/5
f 721/5/5 718/5/5 717/5/5
f 722/5/5 720/5/5 719/5/5
f 723/5/5 721/5/5 717/5/5
f 723/5/5 722/5/5 721/5/5
f 723/5/5 717/5/5 713/5/5
f 724/5/5 720/5/5 722/5/5
f 724/5/5 722/5/5 723/5/5
f 724/5/5 716/5/5 720/5/5
f 727/11/5 726/11/5 725/11/5
f 728/11/5 726/11/5 727/11/5
f 733/11/5 730/11/5 729/11/5
f 734/11/5 730/11/5 733/11/5
f 735/11/5 732/11/5 731/11/5
f 736/11/5 732/11/5 735/11/5
f 741/11/5 738/11/5 737/11/5
f 742/11/5 738/11/5 741/11/5
f 745/11/5 740/11/5 739/11/5
f 746/11/5 740/11/5 745/11/5
f 747/11/5 743/11/5 742/11/5
f 748/11/5 743/11/5 747/11/5
f 749/11/5 745/11/5 744/11/5
f 750/11/5 745/11/5 749/11/5
f 755/5/5 752/5/5 751/5/5
f 756/5/5 752/5/5 755/5/5
f 757/5/5 754/5/5 753/5/5
f 758/5/5 754/5/5 757/5/5
f 759/5/5 755/5/5 751/5/5
f 760/5/5 754/5/5 758/5/5
f 762/5/5 759/5/5 751/5/5
f 763/5/5 754/5/5 760/5/5
f 765/11/5 762/11/5 761/11/5
f 765/5/5 759/5/5 762/5/5
f 766/5/5 759/5/5 765/5/5
f 767/11/5 765/11/5 761/11/5
f 768/11/5 765/11/5 767/11/5
f 769/5/5 763/5/5 760/5/5
f 770/11/5 764/11/5 763/11/5
f 770/5/5 763/5/5 769/5/5
f 771/11/5 764/11/5 770/11/5
f 776/10/5 773/10/5 772/10/5
f 777/10/5 773/10/5 776/10/5
f 778/10/5 775/10/5 774/10/5
f 779/10/5 775/10/5 778/10/5
f 780/5/5 777/5/5 776/5/5
f 780/5/5 778/5/5 777/5/5
f 780/5/5 779/5/5 778/5/5
f 781/5/5 779/5/5 780/5/5
f 786/11/5 783/11/5 782/11/5
f 787/11/5 783/11/5 786/11/5
f 788/11/5 785/11/5 784/11/5
f 789/11/5 785/11/5 788/11/5
f 798/10/5 791/10/5 790/10/5
f 799/10/5 791/10/5 798/10/5
f 800/10/5 793/10/5 792/10/5
f 801/10/5 793/10/5 800/10/5
f 802/10/5 795/10/5 794/10/5
f 803/10/5 795/10/5 802/10/5
f 804/10/5 797/10/5 796/10/5
f 805/10/5 797/10/5 804/10/5
f 806/6/6 807/6/6 808/6/6
f 808/6/6 807/6/6 809/6/6
f 810/6/6 811/6/6 812/6/6
f 812/6/6 811/6/6 813/6/6
f 814/6/6 815/6/6 816/6/6
f 816/6/6 815/6/6 817/6/6
f 818/12/6 819/12/6 820/12/6
f 820/12/6 819/12/6 821/12/6
f 822/6/6 823/6/6 826/6/6
f 823/7/6 824/7/6 826/7/6
f 824/2/6 825/2/6 827/2/6
f 826/7/6 824/7/6 827/7/6
f 827/2/6 825/2/6 828/2/6
f 822/6/6 826/6/6 829/6/6
f 829/6/6 826/6/6 830/6/6
f 829/12/6 830/12/6 833/12/6
f 833/12/6 830/12/6 834/12/6
f 831/12/6 832/12/6 835/12/6
f 835/12/6 832/12/6 836/12/6
f 837/11/6 838/11/6 839/11/6
f 839/11/6 838/11/6 840/11/6
f 841/11/6 842/11/6 845/11/6
f 845/11/6 842/11/6 846/11/6
f 843/11/6 844/11/6 847/11/6
f 847/11/6 844/11/6 848/11/6
f 849/11/6 850/11/6 853/11/6
f 853/11/6 850/11/6 854/11/6
f 851/11/6 852/11/6 857/11/6
f 857/11/6 852/11/6 858/11/6
f 854/11/6 855/11/6 859/11/6
f 859/11/6 855/11/6 860/11/6
f 856/11/6 857/11/6 861/11/6
f 861/11/6 857/11/6 862/11/6
f 863/11/6 864/11/6 867/11/6
f 867/11/6 864/11/6 868/11/6
f 865/11/6 866/11/6 869/11/6
f 869/11/6 866/11/6 870/11/6
f 871/5/6 872/5/6 875/5/6
f 875/5/6 872/5/6 876/5/6
f 873/5/6 874/5/6 877/5/6
f 877/5/6 874/5/6 878/5/6
f 879/11/6 880/11/6 885/11/6
f 880/5/6 881/5/6 886/5/6
f 885/11/6 880/11/6 886/11/6
f 882/5/6 883/5/6 887/5/6
f 883/11/6 884/11/6 887/11/6
f 887/11/6 884/11/6 888/11/6
f 886/5/6 881/5/6 889/5/6
f 889/5/6 881/5/6 890/5/6
f 882/5/6 887/5/6 891/5/6
f 891/5/6 887/5/6 892/5/6
f 890/5/6 891/5/6 893/5/6
f 893/5/6 891/5/6 894/5/6
f 895/10/6 896/10/6 903/10/6
f 896/8/6 897/8/6 904/8/6
f 903/10/6 896/10/6 904/10/6
f 897/10/6 898/10/6 905/10/6
f 904/8/6 897/8/6 905/8/6
f 905/10/6 898/10/6 906/10/6
f 899/10/6 900/10/6 907/10/6
f 900/8/6 901/8/6 908/8/6
f 907/10/6 900/10/6 908/10/6
f 901/10/6 902/10/6 909/10/6
f 908/8/6 901/8/6 909/8/6
f 909/10/6 902/10/6 910/10/6
f 911/11/6 912/11/6 917/11/6
f 912/5/6 913/5/6 918/5/6
f 917/11/6 912/11/6 918/11/6
f 914/5/6 915/5/6 919/5/6
f 915/11/6 916/11/6 919/11/6
f 919/11/6 916/11/6 920/11/6
f 918/5/6 913/5/6 921/5/6
f 914/5/6 919/5/6 922/5/6
f 918/5/6 921/5/6 923/5/6
f 921/5/6 922/5/6 923/5/6
f 922/5/6 919/5/6 924/5/6
f 923/5/6 922/5/6 924/5/6
f 925/10/6 926/10/6 931/10/6
f 926/8/6 927/8/6 932/8/6
f 931/10/6 926/10/6 932/10/6
f 927/10/6 928/10/6 933/10/6
f 932/8/6 927/8/6 933/8/6
f 928/8/6 929/8/6 934/8/6
f 933/10/6 928/10/6 934/10/6
f 929/10/6 930/10/6 935/10/6
f 934/8/6 929/8/6 935/8/6
f 935/10/6 930/10/6 936/10/6
f 931/11/6 932/11/6 937/11/6
f 937/11/6 932/11/6 938/11/6
f 933/5/6 934/5/6 939/5/6
f 939/5/6 934/5/6 940/5/6
f 935/11/6 936/11/6 941/11/6
f 941/11/6 936/11/6 942/11/6
f 939/5/6 940/5/6 943/5/6
f 940/5/6 941/5/6 943/5/6
f 938/5/6 939/5/6 943/5/6
f 943/5/6 941/5/6 944/5/6
f 945/10/6 946/10/6 949/10/6
f 949/10/6 946/10/6 950/10/6
f 947/10/6 948/10/6 951/10/6
f 951/10/6 948/10/6 952/10/6
