# MagicaVoxel @ Ephtracy

# group
o 

# material
mtllib Science_Walk2.vox.mtl
usemtl palette

# normals
vn -1 0 0
vn 1 0 0
vn 0 0 1
vn 0 0 -1
vn 0 -1 0
vn 0 1 0

# texcoords
vt 0.0839844 0.5
vt 0.0996094 0.5
vt 0.287109 0.5
vt 0.291016 0.5
vt 0.310547 0.5
vt 0.365234 0.5
vt 0.583984 0.5
vt 0.732422 0.5
vt 0.748047 0.5
vt 0.939453 0.5
vt 0.951172 0.5
vt 0.958984 0.5
vt 0.986328 0.5
vt 0.994141 0.5

# verts
v -0.7 1.3 -0.1
v -0.7 1.3 -0.3
v -0.7 1.4 0
v -0.7 1.4 -0.1
v -0.7 1.4 -0.3
v -0.7 1.5 0
v -0.7 1.5 -0.1
v -0.6 0.3 0.1
v -0.6 0.3 -0.1
v -0.6 0.5 0.1
v -0.6 0.5 -0.1
v -0.6 0.7 0.1
v -0.6 0.7 -0.1
v -0.6 1.2 -0.3
v -0.6 1.2 -0.4
v -0.6 1.3 0.4
v -0.6 1.3 -0.1
v -0.6 1.3 -0.3
v -0.6 1.3 -0.4
v -0.6 1.4 0
v -0.6 1.4 -0.1
v -0.6 1.4 -0.3
v -0.6 1.5 0.4
v -0.6 1.5 0.2
v -0.6 1.5 0
v -0.6 1.5 -0.1
v -0.6 1.5 -0.3
v -0.6 1.6 0.2
v -0.6 1.6 0
v -0.5 0.9 0.3
v -0.5 0.9 0
v -0.5 0.9 -0.4
v -0.5 1.2 -0.3
v -0.5 1.2 -0.4
v -0.5 1.2 -0.5
v -0.5 1.3 0.3
v -0.5 1.3 0
v -0.5 1.3 -0.3
v -0.5 1.3 -0.4
v -0.5 1.3 -0.5
v -0.5 1.5 0.5
v -0.5 1.5 0.4
v -0.5 1.5 0.2
v -0.5 1.5 0
v -0.5 1.5 -0.3
v -0.5 1.5 -0.4
v -0.5 1.6 0.5
v -0.5 1.6 0.4
v -0.5 1.6 0.3
v -0.5 1.6 0.2
v -0.5 1.6 0
v -0.5 1.6 -0.3
v -0.5 1.7 0.4
v -0.5 1.7 0.3
v -0.5 1.7 0.2
v -0.4 0.2 0.2
v -0.4 0.2 -0.2
v -0.4 0.3 0.1
v -0.4 0.3 -0.1
v -0.4 0.5 0.3
v -0.4 0.5 0.2
v -0.4 0.5 0.1
v -0.4 0.5 -0.1
v -0.4 0.6 0.3
v -0.4 0.6 0.2
v -0.4 0.7 0.3
v -0.4 0.7 0.2
v -0.4 0.7 0.1
v -0.4 0.7 -0.1
v -0.4 0.8 0.3
v -0.4 0.8 0.2
v -0.4 0.8 0
v -0.4 0.8 -0.2
v -0.4 0.9 0.3
v -0.4 0.9 0
v -0.4 0.9 -0.2
v -0.4 1.1 -0.4
v -0.4 1.1 -0.5
v -0.4 1.2 -0.4
v -0.4 1.2 -0.5
v -0.4 1.4 0.5
v -0.4 1.4 0.4
v -0.4 1.5 0.5
v -0.4 1.5 0.4
v -0.4 1.6 0.2
v -0.4 1.6 -0.2
v -0.4 1.7 0.3
v -0.4 1.7 0.2
v -0.4 1.7 -0.2
v -0.4 1.8 0.3
v -0.4 1.8 0.2
v -0.3 0.1 0.4
v -0.3 0.1 0.2
v -0.3 0.1 -0.1
v -0.3 0.2 0.2
v -0.3 0.2 -0.1
v -0.3 0.2 -0.2
v -0.3 0.2 -0.3
v -0.3 0.3 0.3
v -0.3 0.3 0.2
v -0.3 0.4 0.4
v -0.3 0.4 0.3
v -0.3 0.4 0.2
v -0.3 0.5 0.3
v -0.3 0.5 0.2
v -0.3 0.8 -0.2
v -0.3 0.8 -0.3
v -0.3 0.9 -0.2
v -0.3 0.9 -0.3
v -0.2 0.1 -0.2
v -0.2 0.1 -0.3
v -0.2 0.2 -0.2
v -0.2 0.2 -0.3
v -0.2 1 -0.4
v -0.2 1 -0.5
v -0.2 1.1 -0.4
v -0.2 1.1 -0.5
v 0.1 0 0.2
v 0.1 0 -0.1
v 0.1 0.1 0.2
v 0.1 0.1 0.1
v 0.1 0.2 0.1
v 0.1 0.2 -0.1
v 0.1 0.3 0.1
v 0.1 0.3 -0.1
v 0.1 1.5 0.5
v 0.1 1.5 0.4
v 0.1 1.6 0.5
v 0.1 1.6 0.4
v 0.2 1.1 -0.4
v 0.2 1.1 -0.5
v 0.2 1.2 -0.4
v 0.2 1.2 -0.5
v 0.2 1.4 0.5
v 0.2 1.4 0.4
v 0.2 1.5 0.5
v 0.2 1.5 0.4
v 0.2 1.7 0.3
v 0.2 1.7 0.2
v 0.2 1.8 0.3
v 0.2 1.8 0.2
v 0.3 0.2 0.2
v 0.3 0.2 0.1
v 0.3 0.2 -0.1
v 0.3 0.2 -0.2
v 0.3 0.3 0.2
v 0.3 0.3 0.1
v 0.3 0.3 -0.1
v 0.3 0.3 -0.2
v 0.4 0.5 0.3
v 0.4 0.5 0.2
v 0.4 0.7 0.3
v 0.4 0.7 0.2
v 0.4 1.2 -0.4
v 0.4 1.2 -0.5
v 0.4 1.3 0.4
v 0.4 1.3 0.3
v 0.4 1.3 -0.4
v 0.4 1.3 -0.5
v 0.4 1.4 0.4
v 0.4 1.4 0.3
v -0.4 1.2 -0.4
v -0.4 1.2 -0.5
v -0.4 1.3 0.4
v -0.4 1.3 0.3
v -0.4 1.3 -0.4
v -0.4 1.3 -0.5
v -0.4 1.4 0.4
v -0.4 1.4 0.3
v -0.3 0.2 -0.1
v -0.3 0.2 -0.2
v -0.3 0.3 -0.1
v -0.3 0.3 -0.2
v -0.2 0.4 0.3
v -0.2 0.4 0.2
v -0.2 0.5 0.3
v -0.2 0.5 0.2
v -0.2 0.6 0.3
v -0.2 0.6 0.2
v -0.2 0.7 0.3
v -0.2 0.7 0.2
v -0.2 1.1 -0.4
v -0.2 1.1 -0.5
v -0.2 1.2 -0.4
v -0.2 1.2 -0.5
v -0.2 1.4 0.5
v -0.2 1.4 0.4
v -0.2 1.5 0.5
v -0.2 1.5 0.4
v -0.2 1.7 0.3
v -0.2 1.7 0.2
v -0.2 1.8 0.3
v -0.2 1.8 0.2
v -0.1 0.1 0.4
v -0.1 0.1 0.2
v -0.1 0.1 -0.1
v -0.1 0.3 0.3
v -0.1 0.3 0.2
v -0.1 0.3 -0.1
v -0.1 0.4 0.4
v -0.1 0.4 0.3
v -0.1 0.5 0.3
v -0.1 0.5 0.2
v -0.1 0.6 0.3
v -0.1 0.6 0.2
v -0.1 1.5 0.5
v -0.1 1.5 0.4
v -0.1 1.6 0.5
v -0.1 1.6 0.4
v 0.2 0.1 -0.2
v 0.2 0.1 -0.3
v 0.2 0.2 -0.2
v 0.2 0.2 -0.3
v 0.2 1 -0.4
v 0.2 1 -0.5
v 0.2 1.1 -0.4
v 0.2 1.1 -0.5
v 0.3 0 0.2
v 0.3 0 -0.1
v 0.3 0.1 0.2
v 0.3 0.1 0.1
v 0.3 0.2 0.1
v 0.3 0.2 -0.1
v 0.3 0.2 -0.2
v 0.3 0.2 -0.3
v 0.3 0.8 -0.2
v 0.3 0.8 -0.3
v 0.3 0.9 -0.2
v 0.3 0.9 -0.3
v 0.4 0.2 0.2
v 0.4 0.2 -0.2
v 0.4 0.5 0.2
v 0.4 0.5 0.1
v 0.4 0.5 -0.1
v 0.4 0.7 0.2
v 0.4 0.7 0.1
v 0.4 0.7 -0.1
v 0.4 0.8 0.3
v 0.4 0.8 0.2
v 0.4 0.8 0
v 0.4 0.8 -0.2
v 0.4 0.9 0.3
v 0.4 0.9 0
v 0.4 0.9 -0.2
v 0.4 1.1 -0.4
v 0.4 1.1 -0.5
v 0.4 1.2 -0.4
v 0.4 1.2 -0.5
v 0.4 1.4 0.5
v 0.4 1.4 0.4
v 0.4 1.5 0.5
v 0.4 1.5 0.4
v 0.4 1.6 0.2
v 0.4 1.6 -0.2
v 0.4 1.7 0.3
v 0.4 1.7 0.2
v 0.4 1.7 -0.2
v 0.4 1.8 0.3
v 0.4 1.8 0.2
v 0.5 0.9 0.3
v 0.5 0.9 0
v 0.5 0.9 -0.4
v 0.5 1.2 -0.2
v 0.5 1.2 -0.4
v 0.5 1.2 -0.5
v 0.5 1.3 0.3
v 0.5 1.3 0
v 0.5 1.3 -0.2
v 0.5 1.3 -0.3
v 0.5 1.3 -0.4
v 0.5 1.3 -0.5
v 0.5 1.5 0.5
v 0.5 1.5 0.4
v 0.5 1.5 0.2
v 0.5 1.5 0
v 0.5 1.5 -0.3
v 0.5 1.5 -0.4
v 0.5 1.6 0.5
v 0.5 1.6 0.4
v 0.5 1.6 0.3
v 0.5 1.6 0.2
v 0.5 1.6 0
v 0.5 1.6 -0.3
v 0.5 1.7 0.4
v 0.5 1.7 0.3
v 0.5 1.7 0.2
v 0.6 0.5 0.3
v 0.6 0.5 0.1
v 0.6 0.5 -0.1
v 0.6 0.7 0.3
v 0.6 0.7 0.1
v 0.6 0.7 -0.1
v 0.6 1.2 -0.2
v 0.6 1.2 -0.4
v 0.6 1.3 0.4
v 0.6 1.3 -0.1
v 0.6 1.3 -0.2
v 0.6 1.3 -0.3
v 0.6 1.3 -0.4
v 0.6 1.4 0
v 0.6 1.4 -0.1
v 0.6 1.4 -0.3
v 0.6 1.5 0.4
v 0.6 1.5 0.2
v 0.6 1.5 0
v 0.6 1.5 -0.1
v 0.6 1.5 -0.3
v 0.6 1.6 0.2
v 0.6 1.6 0
v 0.7 1.3 -0.1
v 0.7 1.3 -0.3
v 0.7 1.4 0
v 0.7 1.4 -0.1
v 0.7 1.4 -0.3
v 0.7 1.5 0
v 0.7 1.5 -0.1
v -0.5 1.5 0.5
v -0.5 1.6 0.5
v -0.4 1.4 0.5
v -0.4 1.5 0.5
v -0.4 1.6 0.5
v -0.2 1.4 0.5
v -0.2 1.5 0.5
v -0.2 1.6 0.5
v -0.1 1.5 0.5
v -0.1 1.6 0.5
v 0.1 1.5 0.5
v 0.1 1.6 0.5
v 0.2 1.4 0.5
v 0.2 1.5 0.5
v 0.2 1.6 0.5
v 0.4 1.4 0.5
v 0.4 1.5 0.5
v 0.4 1.6 0.5
v 0.5 1.5 0.5
v 0.5 1.6 0.5
v -0.6 1.3 0.4
v -0.6 1.5 0.4
v -0.5 1.5 0.4
v -0.5 1.6 0.4
v -0.5 1.7 0.4
v -0.4 1.3 0.4
v -0.4 1.4 0.4
v -0.4 1.5 0.4
v -0.4 1.6 0.4
v -0.4 1.7 0.4
v -0.3 0.1 0.4
v -0.3 0.4 0.4
v -0.2 1.4 0.4
v -0.2 1.5 0.4
v -0.2 1.6 0.4
v -0.2 1.7 0.4
v -0.1 0.1 0.4
v -0.1 0.4 0.4
v -0.1 1.5 0.4
v -0.1 1.6 0.4
v 0.1 1.5 0.4
v 0.1 1.6 0.4
v 0.2 1.4 0.4
v 0.2 1.5 0.4
v 0.2 1.6 0.4
v 0.2 1.7 0.4
v 0.4 1.3 0.4
v 0.4 1.4 0.4
v 0.4 1.5 0.4
v 0.4 1.6 0.4
v 0.4 1.7 0.4
v 0.5 1.5 0.4
v 0.5 1.6 0.4
v 0.5 1.7 0.4
v 0.6 1.3 0.4
v 0.6 1.5 0.4
v -0.5 0.9 0.3
v -0.5 1.3 0.3
v -0.4 0.5 0.3
v -0.4 0.6 0.3
v -0.4 0.7 0.3
v -0.4 0.8 0.3
v -0.4 0.9 0.3
v -0.4 1.3 0.3
v -0.4 1.4 0.3
v -0.4 1.7 0.3
v -0.4 1.8 0.3
v -0.3 0.4 0.3
v -0.3 0.5 0.3
v -0.3 0.6 0.3
v -0.3 0.7 0.3
v -0.3 1.1 0.3
v -0.3 1.3 0.3
v -0.2 0.4 0.3
v -0.2 0.5 0.3
v -0.2 0.6 0.3
v -0.2 0.7 0.3
v -0.2 1.1 0.3
v -0.2 1.3 0.3
v -0.2 1.7 0.3
v -0.2 1.8 0.3
v -0.1 0.5 0.3
v -0.1 0.6 0.3
v -0.1 0.9 0.3
v -0.1 1 0.3
v -0.1 1.1 0.3
v -0.1 1.3 0.3
v 0.1 0.9 0.3
v 0.1 1 0.3
v 0.1 1.1 0.3
v 0.1 1.3 0.3
v 0.2 1.1 0.3
v 0.2 1.3 0.3
v 0.2 1.7 0.3
v 0.2 1.8 0.3
v 0.3 1.1 0.3
v 0.3 1.3 0.3
v 0.4 0.5 0.3
v 0.4 0.7 0.3
v 0.4 0.8 0.3
v 0.4 0.9 0.3
v 0.4 1.3 0.3
v 0.4 1.4 0.3
v 0.4 1.7 0.3
v 0.4 1.8 0.3
v 0.5 0.9 0.3
v 0.5 1.3 0.3
v 0.6 0.5 0.3
v 0.6 0.7 0.3
v -0.6 1.5 0.2
v -0.6 1.6 0.2
v -0.5 1.5 0.2
v -0.5 1.6 0.2
v -0.4 0.2 0.2
v -0.4 0.5 0.2
v -0.4 0.7 0.2
v -0.4 0.8 0.2
v -0.3 0.2 0.2
v -0.3 0.3 0.2
v -0.3 0.4 0.2
v -0.3 0.5 0.2
v -0.3 0.7 0.2
v -0.2 0.4 0.2
v -0.2 0.5 0.2
v -0.2 0.6 0.2
v -0.2 0.7 0.2
v -0.2 0.8 0.2
v -0.1 0.3 0.2
v -0.1 0.4 0.2
v -0.1 0.5 0.2
v -0.1 0.6 0.2
v -0.1 0.7 0.2
v -0.1 0.8 0.2
v 0.1 0 0.2
v 0.1 0.1 0.2
v 0.1 0.3 0.2
v 0.1 0.4 0.2
v 0.1 0.7 0.2
v 0.1 0.8 0.2
v 0.2 0.7 0.2
v 0.2 0.8 0.2
v 0.3 0 0.2
v 0.3 0.1 0.2
v 0.3 0.2 0.2
v 0.3 0.3 0.2
v 0.4 0.2 0.2
v 0.4 0.5 0.2
v 0.4 0.7 0.2
v 0.4 0.8 0.2
v 0.5 1.5 0.2
v 0.5 1.6 0.2
v 0.6 1.5 0.2
v 0.6 1.6 0.2
v -0.6 0.3 0.1
v -0.6 0.5 0.1
v -0.6 0.7 0.1
v -0.4 0.3 0.1
v -0.4 0.5 0.1
v -0.4 0.7 0.1
v 0.1 0.1 0.1
v 0.1 0.2 0.1
v 0.1 0.3 0.1
v 0.3 0.1 0.1
v 0.3 0.2 0.1
v 0.3 0.3 0.1
v -0.7 1.4 0
v -0.7 1.5 0
v -0.6 1.4 0
v -0.6 1.5 0
v 0.6 1.4 0
v 0.6 1.5 0
v 0.7 1.4 0
v 0.7 1.5 0
v -0.7 1.3 -0.1
v -0.7 1.4 -0.1
v -0.6 1.3 -0.1
v -0.6 1.4 -0.1
v 0.6 1.3 -0.1
v 0.6 1.4 -0.1
v 0.7 1.3 -0.1
v 0.7 1.4 -0.1
v -0.3 0.2 -0.2
v -0.3 0.3 -0.2
v -0.2 0.1 -0.2
v -0.2 0.2 -0.2
v 0.2 0.1 -0.2
v 0.2 0.2 -0.2
v 0.3 0.2 -0.2
v 0.3 0.3 -0.2
v 0.5 1.2 -0.2
v 0.5 1.3 -0.2
v 0.6 1.2 -0.2
v 0.6 1.3 -0.2
v -0.6 1.2 -0.3
v -0.6 1.3 -0.3
v -0.5 1.2 -0.3
v -0.5 1.3 -0.3
v -0.3 0.3 0.3
v -0.3 0.4 0.3
v -0.2 0.4 0.3
v -0.1 0.3 0.3
v -0.1 0.4 0.3
v -0.5 1.6 0.2
v -0.5 1.7 0.2
v -0.4 1.6 0.2
v -0.4 1.7 0.2
v -0.4 1.8 0.2
v -0.2 1.7 0.2
v -0.2 1.8 0.2
v 0.2 1.7 0.2
v 0.2 1.8 0.2
v 0.4 1.6 0.2
v 0.4 1.7 0.2
v 0.4 1.8 0.2
v 0.5 1.6 0.2
v 0.5 1.7 0.2
v -0.6 1.5 0
v -0.6 1.6 0
v -0.5 1.5 0
v -0.5 1.6 0
v 0.5 1.5 0
v 0.5 1.6 0
v 0.6 1.5 0
v 0.6 1.6 0
v -0.7 1.4 -0.1
v -0.7 1.5 -0.1
v -0.6 0.3 -0.1
v -0.6 0.5 -0.1
v -0.6 0.7 -0.1
v -0.6 1.4 -0.1
v -0.6 1.5 -0.1
v -0.4 0.3 -0.1
v -0.4 0.5 -0.1
v -0.4 0.7 -0.1
v -0.3 0.1 -0.1
v -0.3 0.2 -0.1
v -0.3 0.3 -0.1
v -0.1 0.1 -0.1
v -0.1 0.3 -0.1
v 0.1 0 -0.1
v 0.1 0.2 -0.1
v 0.1 0.3 -0.1
v 0.3 0 -0.1
v 0.3 0.2 -0.1
v 0.3 0.3 -0.1
v 0.4 0.5 -0.1
v 0.4 0.7 -0.1
v 0.6 0.5 -0.1
v 0.6 0.7 -0.1
v 0.6 1.4 -0.1
v 0.6 1.5 -0.1
v 0.7 1.4 -0.1
v 0.7 1.5 -0.1
v -0.4 0.2 -0.2
v -0.4 0.8 -0.2
v -0.4 0.9 -0.2
v -0.4 1.6 -0.2
v -0.4 1.7 -0.2
v -0.3 0.2 -0.2
v -0.3 0.8 -0.2
v -0.3 0.9 -0.2
v 0.3 0.2 -0.2
v 0.3 0.8 -0.2
v 0.3 0.9 -0.2
v 0.4 0.2 -0.2
v 0.4 0.8 -0.2
v 0.4 0.9 -0.2
v 0.4 1.6 -0.2
v 0.4 1.7 -0.2
v -0.7 1.3 -0.3
v -0.7 1.4 -0.3
v -0.6 1.3 -0.3
v -0.6 1.4 -0.3
v -0.6 1.5 -0.3
v -0.5 1.3 -0.3
v -0.5 1.5 -0.3
v -0.5 1.6 -0.3
v -0.3 0.2 -0.3
v -0.3 0.8 -0.3
v -0.3 0.9 -0.3
v -0.2 0.1 -0.3
v -0.2 0.2 -0.3
v 0.2 0.1 -0.3
v 0.2 0.2 -0.3
v 0.3 0.2 -0.3
v 0.3 0.8 -0.3
v 0.3 0.9 -0.3
v 0.5 1.3 -0.3
v 0.5 1.5 -0.3
v 0.5 1.6 -0.3
v 0.6 1.3 -0.3
v 0.6 1.4 -0.3
v 0.6 1.5 -0.3
v 0.7 1.3 -0.3
v 0.7 1.4 -0.3
v -0.6 1.2 -0.4
v -0.6 1.3 -0.4
v -0.5 0.9 -0.4
v -0.5 1.2 -0.4
v -0.5 1.3 -0.4
v -0.5 1.5 -0.4
v -0.4 1.1 -0.4
v -0.4 1.2 -0.4
v -0.4 1.3 -0.4
v -0.2 1 -0.4
v -0.2 1.1 -0.4
v -0.2 1.2 -0.4
v 0.2 1 -0.4
v 0.2 1.1 -0.4
v 0.2 1.2 -0.4
v 0.4 1.1 -0.4
v 0.4 1.2 -0.4
v 0.4 1.3 -0.4
v 0.5 0.9 -0.4
v 0.5 1.2 -0.4
v 0.5 1.3 -0.4
v 0.5 1.5 -0.4
v 0.6 1.2 -0.4
v 0.6 1.3 -0.4
v -0.5 1.2 -0.5
v -0.5 1.3 -0.5
v -0.4 1.1 -0.5
v -0.4 1.2 -0.5
v -0.4 1.3 -0.5
v -0.2 1 -0.5
v -0.2 1.1 -0.5
v -0.2 1.2 -0.5
v 0.2 1 -0.5
v 0.2 1.1 -0.5
v 0.2 1.2 -0.5
v 0.4 1.1 -0.5
v 0.4 1.2 -0.5
v 0.4 1.3 -0.5
v 0.5 1.2 -0.5
v 0.5 1.3 -0.5
v 0.1 0 0.2
v 0.3 0 0.2
v 0.1 0 -0.1
v 0.3 0 -0.1
v -0.3 0.1 0.4
v -0.1 0.1 0.4
v -0.3 0.1 0.2
v -0.1 0.1 0.2
v -0.3 0.1 -0.1
v -0.1 0.1 -0.1
v -0.2 0.1 -0.2
v 0.2 0.1 -0.2
v -0.2 0.1 -0.3
v 0.2 0.1 -0.3
v -0.4 0.2 0.2
v -0.3 0.2 0.2
v 0.3 0.2 0.2
v 0.4 0.2 0.2
v 0.3 0.2 0.1
v -0.3 0.2 -0.1
v 0.3 0.2 -0.1
v -0.4 0.2 -0.2
v -0.3 0.2 -0.2
v -0.2 0.2 -0.2
v 0.2 0.2 -0.2
v 0.3 0.2 -0.2
v 0.4 0.2 -0.2
v -0.3 0.2 -0.3
v -0.2 0.2 -0.3
v 0.2 0.2 -0.3
v 0.3 0.2 -0.3
v -0.1 0.3 0.2
v 0.1 0.3 0.2
v 0.3 0.3 0.2
v -0.6 0.3 0.1
v -0.4 0.3 0.1
v 0.1 0.3 0.1
v 0.3 0.3 0.1
v -0.6 0.3 -0.1
v -0.4 0.3 -0.1
v -0.3 0.3 -0.1
v -0.1 0.3 -0.1
v 0.1 0.3 -0.1
v 0.3 0.3 -0.1
v -0.3 0.3 -0.2
v 0.3 0.3 -0.2
v -0.3 0.4 0.3
v -0.2 0.4 0.3
v -0.3 0.4 0.2
v -0.2 0.4 0.2
v -0.4 0.5 0.3
v -0.3 0.5 0.3
v -0.2 0.5 0.3
v -0.1 0.5 0.3
v 0.4 0.5 0.3
v 0.6 0.5 0.3
v -0.4 0.5 0.2
v -0.3 0.5 0.2
v -0.2 0.5 0.2
v -0.1 0.5 0.2
v 0.4 0.5 0.2
v 0.4 0.5 0.1
v 0.6 0.5 0.1
v 0.4 0.5 -0.1
v 0.6 0.5 -0.1
v -0.4 0.8 0.3
v 0.4 0.8 0.3
v -0.4 0.8 0.2
v -0.2 0.8 0.2
v -0.1 0.8 0.2
v 0.1 0.8 0.2
v 0.2 0.8 0.2
v 0.4 0.8 0.2
v -0.5 0.9 0.3
v -0.4 0.9 0.3
v 0.4 0.9 0.3
v 0.5 0.9 0.3
v -0.5 0.9 0
v -0.4 0.9 0
v 0.4 0.9 0
v 0.5 0.9 0
v -0.4 0.9 -0.2
v -0.3 0.9 -0.2
v 0.3 0.9 -0.2
v 0.4 0.9 -0.2
v -0.3 0.9 -0.3
v 0.3 0.9 -0.3
v -0.5 0.9 -0.4
v 0.5 0.9 -0.4
v -0.2 1 -0.4
v 0.2 1 -0.4
v -0.2 1 -0.5
v 0.2 1 -0.5
v -0.4 1.1 -0.4
v -0.2 1.1 -0.4
v 0.2 1.1 -0.4
v 0.4 1.1 -0.4
v -0.4 1.1 -0.5
v -0.2 1.1 -0.5
v 0.2 1.1 -0.5
v 0.4 1.1 -0.5
v 0.5 1.2 -0.2
v 0.6 1.2 -0.2
v -0.6 1.2 -0.3
v -0.5 1.2 -0.3
v -0.6 1.2 -0.4
v -0.5 1.2 -0.4
v -0.4 1.2 -0.4
v 0.4 1.2 -0.4
v 0.5 1.2 -0.4
v 0.6 1.2 -0.4
v -0.5 1.2 -0.5
v -0.4 1.2 -0.5
v 0.4 1.2 -0.5
v 0.5 1.2 -0.5
v -0.6 1.3 0.4
v -0.4 1.3 0.4
v 0.4 1.3 0.4
v 0.6 1.3 0.4
v -0.5 1.3 0.3
v -0.4 1.3 0.3
v 0.4 1.3 0.3
v 0.5 1.3 0.3
v -0.5 1.3 0
v 0.5 1.3 0
v -0.7 1.3 -0.1
v -0.6 1.3 -0.1
v 0.6 1.3 -0.1
v 0.7 1.3 -0.1
v 0.5 1.3 -0.2
v 0.6 1.3 -0.2
v -0.7 1.3 -0.3
v -0.6 1.3 -0.3
v -0.5 1.3 -0.3
v 0.6 1.3 -0.3
v 0.7 1.3 -0.3
v -0.4 1.4 0.5
v -0.2 1.4 0.5
v 0.2 1.4 0.5
v 0.4 1.4 0.5
v -0.4 1.4 0.4
v -0.2 1.4 0.4
v 0.2 1.4 0.4
v 0.4 1.4 0.4
v -0.4 1.4 0.3
v 0.4 1.4 0.3
v -0.7 1.4 0
v -0.6 1.4 0
v 0.6 1.4 0
v 0.7 1.4 0
v -0.7 1.4 -0.1
v -0.6 1.4 -0.1
v 0.6 1.4 -0.1
v 0.7 1.4 -0.1
v -0.5 1.5 0.5
v -0.4 1.5 0.5
v -0.2 1.5 0.5
v -0.1 1.5 0.5
v 0.1 1.5 0.5
v 0.2 1.5 0.5
v 0.4 1.5 0.5
v 0.5 1.5 0.5
v -0.5 1.5 0.4
v -0.4 1.5 0.4
v -0.2 1.5 0.4
v -0.1 1.5 0.4
v 0.1 1.5 0.4
v 0.2 1.5 0.4
v 0.4 1.5 0.4
v 0.5 1.5 0.4
v 0.1 0.1 0.2
v 0.3 0.1 0.2
v 0.1 0.1 0.1
v 0.3 0.1 0.1
v -0.3 0.3 0.3
v -0.1 0.3 0.3
v -0.3 0.3 0.2
v -0.1 0.3 0.2
v -0.3 0.4 0.4
v -0.1 0.4 0.4
v -0.3 0.4 0.3
v -0.2 0.4 0.3
v -0.1 0.4 0.3
v -0.2 0.6 0.3
v -0.1 0.6 0.3
v -0.2 0.6 0.2
v -0.1 0.6 0.2
v -0.4 0.7 0.3
v -0.3 0.7 0.3
v -0.2 0.7 0.3
v 0.4 0.7 0.3
v 0.6 0.7 0.3
v -0.4 0.7 0.2
v -0.3 0.7 0.2
v -0.2 0.7 0.2
v 0.4 0.7 0.2
v -0.6 0.7 0.1
v -0.4 0.7 0.1
v 0.4 0.7 0.1
v 0.6 0.7 0.1
v -0.6 0.7 -0.1
v -0.4 0.7 -0.1
v 0.4 0.7 -0.1
v 0.6 0.7 -0.1
v -0.2 1.1 -0.4
v 0.2 1.1 -0.4
v -0.2 1.1 -0.5
v 0.2 1.1 -0.5
v -0.4 1.2 -0.4
v -0.2 1.2 -0.4
v 0.2 1.2 -0.4
v 0.4 1.2 -0.4
v -0.4 1.2 -0.5
v -0.2 1.2 -0.5
v 0.2 1.2 -0.5
v 0.4 1.2 -0.5
v -0.6 1.3 -0.3
v -0.5 1.3 -0.3
v 0.5 1.3 -0.3
v 0.6 1.3 -0.3
v -0.6 1.3 -0.4
v -0.5 1.3 -0.4
v -0.4 1.3 -0.4
v 0.4 1.3 -0.4
v 0.5 1.3 -0.4
v 0.6 1.3 -0.4
v -0.5 1.3 -0.5
v -0.4 1.3 -0.5
v 0.4 1.3 -0.5
v 0.5 1.3 -0.5
v -0.7 1.4 -0.1
v -0.6 1.4 -0.1
v 0.6 1.4 -0.1
v 0.7 1.4 -0.1
v -0.7 1.4 -0.3
v -0.6 1.4 -0.3
v 0.6 1.4 -0.3
v 0.7 1.4 -0.3
v -0.6 1.5 0.4
v -0.5 1.5 0.4
v 0.5 1.5 0.4
v 0.6 1.5 0.4
v -0.6 1.5 0.2
v -0.5 1.5 0.2
v 0.5 1.5 0.2
v 0.6 1.5 0.2
v -0.7 1.5 0
v -0.6 1.5 0
v -0.5 1.5 0
v 0.5 1.5 0
v 0.6 1.5 0
v 0.7 1.5 0
v -0.7 1.5 -0.1
v -0.6 1.5 -0.1
v 0.6 1.5 -0.1
v 0.7 1.5 -0.1
v -0.6 1.5 -0.3
v -0.5 1.5 -0.3
v 0.5 1.5 -0.3
v 0.6 1.5 -0.3
v -0.5 1.5 -0.4
v 0.5 1.5 -0.4
v -0.5 1.6 0.5
v -0.4 1.6 0.5
v -0.2 1.6 0.5
v -0.1 1.6 0.5
v 0.1 1.6 0.5
v 0.2 1.6 0.5
v 0.4 1.6 0.5
v 0.5 1.6 0.5
v -0.5 1.6 0.4
v -0.4 1.6 0.4
v -0.2 1.6 0.4
v -0.1 1.6 0.4
v 0.1 1.6 0.4
v 0.2 1.6 0.4
v 0.4 1.6 0.4
v 0.5 1.6 0.4
v -0.6 1.6 0.2
v -0.5 1.6 0.2
v -0.4 1.6 0.2
v 0.4 1.6 0.2
v 0.5 1.6 0.2
v 0.6 1.6 0.2
v -0.6 1.6 0
v -0.5 1.6 0
v 0.5 1.6 0
v 0.6 1.6 0
v -0.4 1.6 -0.2
v 0.4 1.6 -0.2
v -0.5 1.6 -0.3
v 0.5 1.6 -0.3
v -0.5 1.7 0.4
v -0.4 1.7 0.4
v -0.2 1.7 0.4
v 0.2 1.7 0.4
v 0.4 1.7 0.4
v 0.5 1.7 0.4
v -0.5 1.7 0.3
v -0.4 1.7 0.3
v -0.2 1.7 0.3
v 0.2 1.7 0.3
v 0.4 1.7 0.3
v 0.5 1.7 0.3
v -0.5 1.7 0.2
v -0.4 1.7 0.2
v -0.2 1.7 0.2
v 0.2 1.7 0.2
v 0.4 1.7 0.2
v 0.5 1.7 0.2
v -0.4 1.7 -0.2
v 0.4 1.7 -0.2
v -0.4 1.8 0.3
v -0.2 1.8 0.3
v 0.2 1.8 0.3
v 0.4 1.8 0.3
v -0.4 1.8 0.2
v -0.2 1.8 0.2
v 0.2 1.8 0.2
v 0.4 1.8 0.2

# faces
f 4/11/1 2/11/1 1/11/1
f 5/11/1 2/11/1 4/11/1
f 6/11/1 4/11/1 3/11/1
f 7/11/1 4/11/1 6/11/1
f 10/6/1 9/6/1 8/6/1
f 11/6/1 9/6/1 10/6/1
f 12/12/1 11/12/1 10/12/1
f 13/12/1 11/12/1 12/12/1
f 18/11/1 15/11/1 14/11/1
f 19/11/1 15/11/1 18/11/1
f 20/5/1 17/5/1 16/5/1
f 21/5/1 17/5/1 20/5/1
f 23/5/1 20/5/1 16/5/1
f 24/5/1 20/5/1 23/5/1
f 25/5/1 20/5/1 24/5/1
f 26/5/1 22/5/1 21/5/1
f 27/5/1 22/5/1 26/5/1
f 28/11/1 25/11/1 24/11/1
f 29/11/1 25/11/1 28/11/1
f 33/5/1 32/5/1 31/5/1
f 34/5/1 32/5/1 33/5/1
f 36/3/1 31/3/1 30/3/1
f 37/5/1 33/5/1 31/5/1
f 37/3/1 31/3/1 36/3/1
f 38/5/1 33/5/1 37/5/1
f 39/11/1 35/11/1 34/11/1
f 40/11/1 35/11/1 39/11/1
f 45/5/1 39/5/1 38/5/1
f 46/5/1 39/5/1 45/5/1
f 47/10/1 42/10/1 41/10/1
f 48/5/1 43/5/1 42/5/1
f 48/10/1 42/10/1 47/10/1
f 49/5/1 43/5/1 48/5/1
f 50/5/1 43/5/1 49/5/1
f 51/5/1 45/5/1 44/5/1
f 52/5/1 45/5/1 51/5/1
f 53/10/1 49/10/1 48/10/1
f 54/11/1 50/11/1 49/11/1
f 54/10/1 49/10/1 53/10/1
f 55/11/1 50/11/1 54/11/1
f 58/12/1 57/12/1 56/12/1
f 59/12/1 57/12/1 58/12/1
f 61/12/1 58/12/1 56/12/1
f 62/12/1 58/12/1 61/12/1
f 63/12/1 57/12/1 59/12/1
f 64/12/1 62/12/1 61/12/1
f 64/12/1 61/12/1 60/12/1
f 65/12/1 62/12/1 64/12/1
f 66/7/1 65/7/1 64/7/1
f 67/12/1 62/12/1 65/12/1
f 67/7/1 65/7/1 66/7/1
f 68/12/1 62/12/1 67/12/1
f 69/12/1 57/12/1 63/12/1
f 71/12/1 68/12/1 67/12/1
f 71/12/1 69/12/1 68/12/1
f 72/12/1 69/12/1 71/12/1
f 73/12/1 57/12/1 69/12/1
f 73/12/1 69/12/1 72/12/1
f 74/3/1 72/3/1 71/3/1
f 74/3/1 71/3/1 70/3/1
f 75/5/1 73/5/1 72/5/1
f 75/3/1 72/3/1 74/3/1
f 76/5/1 73/5/1 75/5/1
f 79/11/1 78/11/1 77/11/1
f 80/11/1 78/11/1 79/11/1
f 83/10/1 82/10/1 81/10/1
f 84/10/1 82/10/1 83/10/1
f 88/5/1 86/5/1 85/5/1
f 89/5/1 86/5/1 88/5/1
f 90/10/1 88/10/1 87/10/1
f 91/10/1 88/10/1 90/10/1
f 95/6/1 93/6/1 92/6/1
f 95/13/1 94/13/1 93/13/1
f 96/13/1 94/13/1 95/13/1
f 99/6/1 95/6/1 92/6/1
f 100/6/1 95/6/1 99/6/1
f 101/6/1 99/6/1 92/6/1
f 102/6/1 99/6/1 101/6/1
f 104/12/1 103/12/1 102/12/1
f 105/12/1 103/12/1 104/12/1
f 106/12/1 98/12/1 97/12/1
f 107/12/1 98/12/1 106/12/1
f 108/5/1 107/5/1 106/5/1
f 109/5/1 107/5/1 108/5/1
f 112/12/1 111/12/1 110/12/1
f 113/12/1 111/12/1 112/12/1
f 116/11/1 115/11/1 114/11/1
f 117/11/1 115/11/1 116/11/1
f 120/6/1 119/6/1 118/6/1
f 121/6/1 119/6/1 120/6/1
f 122/6/1 119/6/1 121/6/1
f 123/6/1 119/6/1 122/6/1
f 124/13/1 123/13/1 122/13/1
f 125/13/1 123/13/1 124/13/1
f 128/10/1 127/10/1 126/10/1
f 129/10/1 127/10/1 128/10/1
f 132/11/1 131/11/1 130/11/1
f 133/11/1 131/11/1 132/11/1
f 136/10/1 135/10/1 134/10/1
f 137/10/1 135/10/1 136/10/1
f 140/10/1 139/10/1 138/10/1
f 141/10/1 139/10/1 140/10/1
f 146/12/1 143/12/1 142/12/1
f 147/12/1 143/12/1 146/12/1
f 148/12/1 145/12/1 144/12/1
f 149/12/1 145/12/1 148/12/1
f 152/6/1 151/6/1 150/6/1
f 153/6/1 151/6/1 152/6/1
f 158/11/1 155/11/1 154/11/1
f 159/11/1 155/11/1 158/11/1
f 160/5/1 157/5/1 156/5/1
f 161/5/1 157/5/1 160/5/1
f 162/11/2 163/11/2 166/11/2
f 166/11/2 163/11/2 167/11/2
f 164/5/2 165/5/2 168/5/2
f 168/5/2 165/5/2 169/5/2
f 170/12/2 171/12/2 172/12/2
f 172/12/2 171/12/2 173/12/2
f 174/12/2 175/12/2 176/12/2
f 176/12/2 175/12/2 177/12/2
f 178/2/2 179/2/2 180/2/2
f 180/2/2 179/2/2 181/2/2
f 182/11/2 183/11/2 184/11/2
f 184/11/2 183/11/2 185/11/2
f 186/10/2 187/10/2 188/10/2
f 188/10/2 187/10/2 189/10/2
f 190/10/2 191/10/2 192/10/2
f 192/10/2 191/10/2 193/10/2
f 194/6/2 195/6/2 197/6/2
f 195/13/2 196/13/2 198/13/2
f 197/6/2 195/6/2 198/6/2
f 198/13/2 196/13/2 199/13/2
f 194/6/2 197/6/2 200/6/2
f 200/6/2 197/6/2 201/6/2
f 202/12/2 203/12/2 204/12/2
f 204/12/2 203/12/2 205/12/2
f 206/10/2 207/10/2 208/10/2
f 208/10/2 207/10/2 209/10/2
f 210/12/2 211/12/2 212/12/2
f 212/12/2 211/12/2 213/12/2
f 214/11/2 215/11/2 216/11/2
f 216/11/2 215/11/2 217/11/2
f 218/6/2 219/6/2 220/6/2
f 220/6/2 219/6/2 221/6/2
f 221/6/2 219/6/2 222/6/2
f 222/6/2 219/6/2 223/6/2
f 224/12/2 225/12/2 226/12/2
f 226/12/2 225/12/2 227/12/2
f 226/5/2 227/5/2 228/5/2
f 228/5/2 227/5/2 229/5/2
f 230/12/2 231/12/2 232/12/2
f 232/12/2 231/12/2 233/12/2
f 233/12/2 231/12/2 234/12/2
f 234/12/2 231/12/2 237/12/2
f 235/12/2 236/12/2 239/12/2
f 236/12/2 237/12/2 239/12/2
f 239/12/2 237/12/2 240/12/2
f 237/12/2 231/12/2 241/12/2
f 240/12/2 237/12/2 241/12/2
f 239/3/2 240/3/2 242/3/2
f 238/3/2 239/3/2 242/3/2
f 240/5/2 241/5/2 243/5/2
f 242/3/2 240/3/2 243/3/2
f 243/5/2 241/5/2 244/5/2
f 245/11/2 246/11/2 247/11/2
f 247/11/2 246/11/2 248/11/2
f 249/10/2 250/10/2 251/10/2
f 251/10/2 250/10/2 252/10/2
f 253/5/2 254/5/2 256/5/2
f 256/5/2 254/5/2 257/5/2
f 255/10/2 256/10/2 258/10/2
f 258/10/2 256/10/2 259/10/2
f 261/5/2 262/5/2 263/5/2
f 263/5/2 262/5/2 264/5/2
f 260/3/2 261/3/2 266/3/2
f 261/5/2 263/5/2 267/5/2
f 266/3/2 261/3/2 267/3/2
f 267/5/2 263/5/2 268/5/2
f 264/11/2 265/11/2 270/11/2
f 270/11/2 265/11/2 271/11/2
f 269/5/2 270/5/2 276/5/2
f 276/5/2 270/5/2 277/5/2
f 272/10/2 273/10/2 278/10/2
f 273/5/2 274/5/2 279/5/2
f 278/10/2 273/10/2 279/10/2
f 279/5/2 274/5/2 280/5/2
f 280/5/2 274/5/2 281/5/2
f 275/5/2 276/5/2 282/5/2
f 282/5/2 276/5/2 283/5/2
f 279/10/2 280/10/2 284/10/2
f 280/11/2 281/11/2 285/11/2
f 284/10/2 280/10/2 285/10/2
f 285/11/2 281/11/2 286/11/2
f 287/6/2 288/6/2 290/6/2
f 288/12/2 289/12/2 291/12/2
f 290/6/2 288/6/2 291/6/2
f 291/12/2 289/12/2 292/12/2
f 293/11/2 294/11/2 297/11/2
f 297/11/2 294/11/2 298/11/2
f 298/11/2 294/11/2 299/11/2
f 295/5/2 296/5/2 300/5/2
f 300/5/2 296/5/2 301/5/2
f 295/5/2 300/5/2 303/5/2
f 303/5/2 300/5/2 304/5/2
f 304/5/2 300/5/2 305/5/2
f 301/5/2 302/5/2 306/5/2
f 306/5/2 302/5/2 307/5/2
f 304/11/2 305/11/2 308/11/2
f 308/11/2 305/11/2 309/11/2
f 310/11/2 311/11/2 313/11/2
f 313/11/2 311/11/2 314/11/2
f 312/11/2 313/11/2 315/11/2
f 315/11/2 313/11/2 316/11/2
f 320/10/3 318/10/3 317/10/3
f 321/10/3 318/10/3 320/10/3
f 322/10/3 320/10/3 319/10/3
f 323/8/3 321/8/3 320/8/3
f 323/10/3 320/10/3 322/10/3
f 324/8/3 321/8/3 323/8/3
f 325/10/3 324/10/3 323/10/3
f 326/10/3 324/10/3 325/10/3
f 330/10/3 328/10/3 327/10/3
f 331/10/3 328/10/3 330/10/3
f 332/10/3 330/10/3 329/10/3
f 333/8/3 331/8/3 330/8/3
f 333/10/3 330/10/3 332/10/3
f 334/8/3 331/8/3 333/8/3
f 335/10/3 334/10/3 333/10/3
f 336/10/3 334/10/3 335/10/3
f 339/5/3 338/5/3 337/5/3
f 342/5/3 339/5/3 337/5/3
f 343/5/3 339/5/3 342/5/3
f 344/5/3 339/5/3 343/5/3
f 345/10/3 341/10/3 340/10/3
f 346/10/3 341/10/3 345/10/3
f 351/8/3 346/8/3 345/8/3
f 352/8/3 346/8/3 351/8/3
f 353/6/3 348/6/3 347/6/3
f 354/6/3 348/6/3 353/6/3
f 355/5/3 350/5/3 349/5/3
f 356/10/3 352/10/3 351/10/3
f 357/5/3 356/5/3 355/5/3
f 357/5/3 355/5/3 349/5/3
f 358/10/3 352/10/3 356/10/3
f 358/5/3 356/5/3 357/5/3
f 359/5/3 357/5/3 349/5/3
f 360/5/3 357/5/3 359/5/3
f 361/10/3 352/10/3 358/10/3
f 362/10/3 352/10/3 361/10/3
f 366/8/3 362/8/3 361/8/3
f 367/8/3 362/8/3 366/8/3
f 368/5/3 365/5/3 364/5/3
f 368/5/3 364/5/3 363/5/3
f 369/10/3 367/10/3 366/10/3
f 370/10/3 367/10/3 369/10/3
f 371/5/3 368/5/3 363/5/3
f 372/5/3 368/5/3 371/5/3
f 379/3/3 374/3/3 373/3/3
f 380/3/3 374/3/3 379/3/3
f 385/12/3 376/12/3 375/12/3
f 386/7/3 377/7/3 376/7/3
f 386/12/3 376/12/3 385/12/3
f 387/7/3 377/7/3 386/7/3
f 388/3/3 379/3/3 378/3/3
f 388/3/3 380/3/3 379/3/3
f 388/3/3 381/3/3 380/3/3
f 389/3/3 381/3/3 388/3/3
f 390/12/3 385/12/3 384/12/3
f 390/12/3 386/12/3 385/12/3
f 391/12/3 386/12/3 390/12/3
f 392/2/3 387/2/3 386/2/3
f 392/12/3 386/12/3 391/12/3
f 393/2/3 387/2/3 392/2/3
f 394/12/3 389/12/3 388/12/3
f 394/3/3 388/3/3 378/3/3
f 395/3/3 381/3/3 389/3/3
f 395/12/3 389/12/3 394/12/3
f 396/10/3 383/10/3 382/10/3
f 397/10/3 383/10/3 396/10/3
f 398/12/3 392/12/3 391/12/3
f 399/12/3 392/12/3 398/12/3
f 400/3/3 394/3/3 378/3/3
f 401/3/3 394/3/3 400/3/3
f 402/14/3 395/14/3 394/14/3
f 402/3/3 394/3/3 401/3/3
f 403/3/3 381/3/3 395/3/3
f 403/14/3 395/14/3 402/14/3
f 404/1/3 401/1/3 400/1/3
f 404/3/3 400/3/3 378/3/3
f 405/3/3 402/3/3 401/3/3
f 405/1/3 401/1/3 404/1/3
f 405/3/3 403/3/3 402/3/3
f 406/3/3 403/3/3 405/3/3
f 407/3/3 381/3/3 403/3/3
f 407/3/3 403/3/3 406/3/3
f 408/3/3 406/3/3 405/3/3
f 408/3/3 405/3/3 404/3/3
f 408/14/3 407/14/3 406/14/3
f 409/3/3 381/3/3 407/3/3
f 409/14/3 407/14/3 408/14/3
f 412/3/3 408/3/3 404/3/3
f 412/12/3 409/12/3 408/12/3
f 413/3/3 381/3/3 409/3/3
f 413/12/3 409/12/3 412/12/3
f 416/3/3 404/3/3 378/3/3
f 416/3/3 412/3/3 404/3/3
f 416/3/3 413/3/3 412/3/3
f 417/3/3 413/3/3 416/3/3
f 418/3/3 381/3/3 413/3/3
f 418/3/3 413/3/3 417/3/3
f 419/3/3 381/3/3 418/3/3
f 420/10/3 411/10/3 410/10/3
f 421/10/3 411/10/3 420/10/3
f 422/3/3 418/3/3 417/3/3
f 423/3/3 418/3/3 422/3/3
f 424/6/3 415/6/3 414/6/3
f 425/6/3 415/6/3 424/6/3
f 428/11/3 427/11/3 426/11/3
f 429/11/3 427/11/3 428/11/3
f 434/12/3 431/12/3 430/12/3
f 435/12/3 431/12/3 434/12/3
f 436/12/3 431/12/3 435/12/3
f 437/12/3 431/12/3 436/12/3
f 438/12/3 433/12/3 432/12/3
f 439/12/3 436/12/3 435/12/3
f 442/12/3 433/12/3 438/12/3
f 443/12/3 433/12/3 442/12/3
f 444/12/3 440/12/3 439/12/3
f 444/12/3 439/12/3 435/12/3
f 445/12/3 440/12/3 444/12/3
f 446/12/3 440/12/3 445/12/3
f 447/12/3 442/12/3 441/12/3
f 448/9/3 443/9/3 442/9/3
f 448/12/3 442/12/3 447/12/3
f 449/9/3 443/9/3 448/9/3
f 452/13/3 445/13/3 444/13/3
f 453/9/3 447/9/3 446/9/3
f 453/13/3 445/13/3 452/13/3
f 453/9/3 446/9/3 445/9/3
f 453/9/3 448/9/3 447/9/3
f 454/3/3 449/3/3 448/3/3
f 454/9/3 448/9/3 453/9/3
f 455/3/3 449/3/3 454/3/3
f 456/12/3 453/12/3 452/12/3
f 456/12/3 454/12/3 453/12/3
f 456/9/3 455/9/3 454/9/3
f 457/9/3 455/9/3 456/9/3
f 458/6/3 451/6/3 450/6/3
f 459/6/3 451/6/3 458/6/3
f 461/12/3 456/12/3 452/12/3
f 461/12/3 457/12/3 456/12/3
f 462/12/3 461/12/3 460/12/3
f 463/12/3 457/12/3 461/12/3
f 463/12/3 461/12/3 462/12/3
f 464/12/3 457/12/3 463/12/3
f 465/12/3 457/12/3 464/12/3
f 468/11/3 467/11/3 466/11/3
f 469/11/3 467/11/3 468/11/3
f 473/6/3 471/6/3 470/6/3
f 474/12/3 472/12/3 471/12/3
f 474/6/3 471/6/3 473/6/3
f 475/12/3 472/12/3 474/12/3
f 479/6/3 477/6/3 476/6/3
f 480/13/3 478/13/3 477/13/3
f 480/6/3 477/6/3 479/6/3
f 481/13/3 478/13/3 480/13/3
f 484/11/3 483/11/3 482/11/3
f 485/11/3 483/11/3 484/11/3
f 488/11/3 487/11/3 486/11/3
f 489/11/3 487/11/3 488/11/3
f 492/11/3 491/11/3 490/11/3
f 493/11/3 491/11/3 492/11/3
f 496/11/3 495/11/3 494/11/3
f 497/11/3 495/11/3 496/11/3
f 501/12/3 499/12/3 498/12/3
f 502/12/3 501/12/3 500/12/3
f 503/12/3 499/12/3 501/12/3
f 503/12/3 501/12/3 502/12/3
f 504/12/3 499/12/3 503/12/3
f 505/12/3 499/12/3 504/12/3
f 508/11/3 507/11/3 506/11/3
f 509/11/3 507/11/3 508/11/3
f 512/11/3 511/11/3 510/11/3
f 513/11/3 511/11/3 512/11/3
f 514/6/4 515/6/4 516/6/4
f 514/6/4 516/6/4 517/6/4
f 517/6/4 516/6/4 518/6/4
f 519/11/4 520/11/4 521/11/4
f 521/11/4 520/11/4 522/11/4
f 522/10/4 523/10/4 524/10/4
f 524/10/4 523/10/4 525/10/4
f 526/10/4 527/10/4 529/10/4
f 529/10/4 527/10/4 530/10/4
f 528/11/4 529/11/4 531/11/4
f 531/11/4 529/11/4 532/11/4
f 533/11/4 534/11/4 535/11/4
f 535/11/4 534/11/4 536/11/4
f 537/11/4 538/11/4 539/11/4
f 539/11/4 538/11/4 540/11/4
f 541/11/4 542/11/4 546/11/4
f 546/11/4 542/11/4 547/11/4
f 543/6/4 544/6/4 548/6/4
f 544/12/4 545/12/4 549/12/4
f 548/6/4 544/6/4 549/6/4
f 549/12/4 545/12/4 550/12/4
f 551/13/4 552/13/4 554/13/4
f 552/13/4 553/13/4 554/13/4
f 554/13/4 553/13/4 555/13/4
f 556/6/4 557/6/4 559/6/4
f 557/13/4 558/13/4 560/13/4
f 559/6/4 557/6/4 560/6/4
f 560/13/4 558/13/4 561/13/4
f 562/12/4 563/12/4 564/12/4
f 564/12/4 563/12/4 565/12/4
f 566/11/4 567/11/4 568/11/4
f 568/11/4 567/11/4 569/11/4
f 570/12/4 571/12/4 575/12/4
f 571/5/4 572/5/4 576/5/4
f 575/12/4 571/12/4 576/12/4
f 576/5/4 572/5/4 577/5/4
f 578/12/4 579/12/4 581/12/4
f 579/5/4 580/5/4 582/5/4
f 581/12/4 579/12/4 582/12/4
f 582/5/4 580/5/4 583/5/4
f 573/5/4 574/5/4 584/5/4
f 584/5/4 574/5/4 585/5/4
f 586/11/4 587/11/4 588/11/4
f 588/11/4 587/11/4 589/11/4
f 588/5/4 589/5/4 591/5/4
f 589/5/4 590/5/4 591/5/4
f 591/5/4 590/5/4 592/5/4
f 594/12/4 595/12/4 598/12/4
f 597/12/4 598/12/4 599/12/4
f 598/12/4 595/12/4 600/12/4
f 599/12/4 598/12/4 600/12/4
f 600/12/4 595/12/4 601/12/4
f 595/5/4 596/5/4 602/5/4
f 601/12/4 595/12/4 602/12/4
f 602/5/4 596/5/4 603/5/4
f 592/5/4 593/5/4 605/5/4
f 605/5/4 593/5/4 606/5/4
f 604/5/4 605/5/4 607/5/4
f 607/5/4 605/5/4 608/5/4
f 608/5/4 605/5/4 609/5/4
f 607/11/4 608/11/4 610/11/4
f 610/11/4 608/11/4 611/11/4
f 612/11/4 613/11/4 615/11/4
f 615/11/4 613/11/4 616/11/4
f 614/5/4 615/5/4 618/5/4
f 618/5/4 615/5/4 619/5/4
f 616/5/4 617/5/4 620/5/4
f 614/5/4 618/5/4 621/5/4
f 621/5/4 618/5/4 622/5/4
f 619/5/4 620/5/4 623/5/4
f 614/5/4 621/5/4 624/5/4
f 622/5/4 623/5/4 625/5/4
f 623/5/4 620/5/4 626/5/4
f 625/5/4 623/5/4 626/5/4
f 624/5/4 625/5/4 627/5/4
f 626/5/4 620/5/4 628/5/4
f 620/5/4 617/5/4 629/5/4
f 628/5/4 620/5/4 629/5/4
f 614/5/4 624/5/4 630/5/4
f 627/5/4 628/5/4 630/5/4
f 624/5/4 627/5/4 630/5/4
f 630/5/4 628/5/4 631/5/4
f 629/5/4 617/5/4 632/5/4
f 632/5/4 617/5/4 633/5/4
f 631/11/4 632/11/4 634/11/4
f 634/11/4 632/11/4 635/11/4
f 636/11/4 637/11/4 639/11/4
f 639/11/4 637/11/4 640/11/4
f 638/11/4 639/11/4 642/11/4
f 642/11/4 639/11/4 643/11/4
f 641/11/4 642/11/4 644/11/4
f 644/11/4 642/11/4 645/11/4
f 645/11/4 646/11/4 647/11/4
f 647/11/4 646/11/4 648/11/4
f 648/11/4 649/11/4 650/11/4
f 650/11/4 649/11/4 651/11/4
f 654/6/5 653/6/5 652/6/5
f 655/6/5 653/6/5 654/6/5
f 658/6/5 657/6/5 656/6/5
f 659/6/5 657/6/5 658/6/5
f 660/13/5 659/13/5 658/13/5
f 661/13/5 659/13/5 660/13/5
f 664/12/5 663/12/5 662/12/5
f 665/12/5 663/12/5 664/12/5
f 670/12/5 669/12/5 668/12/5
f 671/12/5 667/12/5 666/12/5
f 672/12/5 669/12/5 670/12/5
f 673/12/5 671/12/5 666/12/5
f 674/12/5 671/12/5 673/12/5
f 677/12/5 669/12/5 672/12/5
f 678/12/5 669/12/5 677/12/5
f 679/12/5 675/12/5 674/12/5
f 680/12/5 675/12/5 679/12/5
f 681/12/5 677/12/5 676/12/5
f 682/12/5 677/12/5 681/12/5
f 688/13/5 684/13/5 683/13/5
f 688/12/5 685/12/5 684/12/5
f 689/12/5 685/12/5 688/12/5
f 690/6/5 687/6/5 686/6/5
f 691/6/5 687/6/5 690/6/5
f 693/13/5 688/13/5 683/13/5
f 694/13/5 688/13/5 693/13/5
f 696/13/5 695/13/5 694/13/5
f 696/13/5 694/13/5 693/13/5
f 696/13/5 693/13/5 692/13/5
f 697/13/5 695/13/5 696/13/5
f 700/12/5 699/12/5 698/12/5
f 701/12/5 699/12/5 700/12/5
f 708/12/5 703/12/5 702/12/5
f 709/12/5 703/12/5 708/12/5
f 710/12/5 705/12/5 704/12/5
f 711/12/5 705/12/5 710/12/5
f 712/6/5 707/6/5 706/6/5
f 713/6/5 707/6/5 712/6/5
f 714/6/5 707/6/5 713/6/5
f 715/12/5 714/12/5 713/12/5
f 716/12/5 714/12/5 715/12/5
f 719/3/5 718/3/5 717/3/5
f 720/3/5 718/3/5 719/3/5
f 721/3/5 718/3/5 720/3/5
f 722/3/5 718/3/5 721/3/5
f 723/3/5 718/3/5 722/3/5
f 724/3/5 718/3/5 723/3/5
f 729/3/5 726/3/5 725/3/5
f 730/3/5 726/3/5 729/3/5
f 731/3/5 728/3/5 727/3/5
f 732/3/5 728/3/5 731/3/5
f 733/5/5 730/5/5 729/5/5
f 736/5/5 732/5/5 731/5/5
f 737/5/5 734/5/5 733/5/5
f 738/5/5 736/5/5 735/5/5
f 739/5/5 737/5/5 733/5/5
f 739/5/5 738/5/5 737/5/5
f 739/5/5 733/5/5 729/5/5
f 740/5/5 736/5/5 738/5/5
f 740/5/5 738/5/5 739/5/5
f 740/5/5 732/5/5 736/5/5
f 743/11/5 742/11/5 741/11/5
f 744/11/5 742/11/5 743/11/5
f 749/11/5 746/11/5 745/11/5
f 750/11/5 746/11/5 749/11/5
f 751/11/5 748/11/5 747/11/5
f 752/11/5 748/11/5 751/11/5
f 757/11/5 756/11/5 755/11/5
f 758/11/5 756/11/5 757/11/5
f 761/11/5 754/11/5 753/11/5
f 762/11/5 754/11/5 761/11/5
f 763/11/5 759/11/5 758/11/5
f 764/11/5 759/11/5 763/11/5
f 765/11/5 761/11/5 760/11/5
f 766/11/5 761/11/5 765/11/5
f 771/5/5 768/5/5 767/5/5
f 772/5/5 768/5/5 771/5/5
f 773/5/5 770/5/5 769/5/5
f 774/5/5 770/5/5 773/5/5
f 775/5/5 771/5/5 767/5/5
f 776/5/5 770/5/5 774/5/5
f 778/5/5 775/5/5 767/5/5
f 779/5/5 770/5/5 776/5/5
f 781/5/5 779/5/5 776/5/5
f 782/11/5 780/11/5 779/11/5
f 782/5/5 779/5/5 781/5/5
f 783/11/5 778/11/5 777/11/5
f 784/5/5 775/5/5 778/5/5
f 784/11/5 778/11/5 783/11/5
f 785/5/5 775/5/5 784/5/5
f 786/11/5 780/11/5 782/11/5
f 787/11/5 780/11/5 786/11/5
f 792/10/5 789/10/5 788/10/5
f 793/10/5 789/10/5 792/10/5
f 794/10/5 791/10/5 790/10/5
f 795/10/5 791/10/5 794/10/5
f 796/5/5 793/5/5 792/5/5
f 796/5/5 794/5/5 793/5/5
f 796/5/5 795/5/5 794/5/5
f 797/5/5 795/5/5 796/5/5
f 802/11/5 799/11/5 798/11/5
f 803/11/5 799/11/5 802/11/5
f 804/11/5 801/11/5 800/11/5
f 805/11/5 801/11/5 804/11/5
f 814/10/5 807/10/5 806/10/5
f 815/10/5 807/10/5 814/10/5
f 816/10/5 809/10/5 808/10/5
f 817/10/5 809/10/5 816/10/5
f 818/10/5 811/10/5 810/10/5
f 819/10/5 811/10/5 818/10/5
f 820/10/5 813/10/5 812/10/5
f 821/10/5 813/10/5 820/10/5
f 822/6/6 823/6/6 824/6/6
f 824/6/6 823/6/6 825/6/6
f 826/6/6 827/6/6 828/6/6
f 828/6/6 827/6/6 829/6/6
f 830/6/6 831/6/6 832/6/6
f 832/6/6 831/6/6 833/6/6
f 833/6/6 831/6/6 834/6/6
f 835/12/6 836/12/6 837/12/6
f 837/12/6 836/12/6 838/12/6
f 839/7/6 840/7/6 844/7/6
f 840/2/6 841/2/6 845/2/6
f 844/7/6 840/7/6 845/7/6
f 845/2/6 841/2/6 846/2/6
f 842/6/6 843/6/6 847/6/6
f 847/6/6 843/6/6 850/6/6
f 850/6/6 843/6/6 851/6/6
f 848/12/6 849/12/6 852/12/6
f 852/12/6 849/12/6 853/12/6
f 850/12/6 851/12/6 854/12/6
f 854/12/6 851/12/6 855/12/6
f 856/11/6 857/11/6 858/11/6
f 858/11/6 857/11/6 859/11/6
f 860/11/6 861/11/6 864/11/6
f 864/11/6 861/11/6 865/11/6
f 862/11/6 863/11/6 866/11/6
f 866/11/6 863/11/6 867/11/6
f 868/11/6 869/11/6 872/11/6
f 872/11/6 869/11/6 873/11/6
f 870/11/6 871/11/6 876/11/6
f 876/11/6 871/11/6 877/11/6
f 873/11/6 874/11/6 878/11/6
f 878/11/6 874/11/6 879/11/6
f 875/11/6 876/11/6 880/11/6
f 880/11/6 876/11/6 881/11/6
f 882/11/6 883/11/6 886/11/6
f 886/11/6 883/11/6 887/11/6
f 884/11/6 885/11/6 888/11/6
f 888/11/6 885/11/6 889/11/6
f 890/5/6 891/5/6 894/5/6
f 894/5/6 891/5/6 895/5/6
f 892/5/6 893/5/6 896/5/6
f 896/5/6 893/5/6 897/5/6
f 898/11/6 899/11/6 904/11/6
f 899/5/6 900/5/6 905/5/6
f 904/11/6 899/11/6 905/11/6
f 901/5/6 902/5/6 906/5/6
f 902/11/6 903/11/6 906/11/6
f 906/11/6 903/11/6 907/11/6
f 905/5/6 900/5/6 908/5/6
f 908/5/6 900/5/6 909/5/6
f 901/5/6 906/5/6 910/5/6
f 910/5/6 906/5/6 911/5/6
f 909/5/6 910/5/6 912/5/6
f 912/5/6 910/5/6 913/5/6
f 914/10/6 915/10/6 922/10/6
f 915/8/6 916/8/6 923/8/6
f 922/10/6 915/10/6 923/10/6
f 916/10/6 917/10/6 924/10/6
f 923/8/6 916/8/6 924/8/6
f 924/10/6 917/10/6 925/10/6
f 918/10/6 919/10/6 926/10/6
f 919/8/6 920/8/6 927/8/6
f 926/10/6 919/10/6 927/10/6
f 920/10/6 921/10/6 928/10/6
f 927/8/6 920/8/6 928/8/6
f 928/10/6 921/10/6 929/10/6
f 930/11/6 931/11/6 936/11/6
f 931/5/6 932/5/6 937/5/6
f 936/11/6 931/11/6 937/11/6
f 933/5/6 934/5/6 938/5/6
f 934/11/6 935/11/6 938/11/6
f 938/11/6 935/11/6 939/11/6
f 937/5/6 932/5/6 940/5/6
f 933/5/6 938/5/6 941/5/6
f 937/5/6 940/5/6 942/5/6
f 940/5/6 941/5/6 942/5/6
f 941/5/6 938/5/6 943/5/6
f 942/5/6 941/5/6 943/5/6
f 944/10/6 945/10/6 950/10/6
f 945/8/6 946/8/6 951/8/6
f 950/10/6 945/10/6 951/10/6
f 946/10/6 947/10/6 952/10/6
f 951/8/6 946/8/6 952/8/6
f 947/8/6 948/8/6 953/8/6
f 952/10/6 947/10/6 953/10/6
f 948/10/6 949/10/6 954/10/6
f 953/8/6 948/8/6 954/8/6
f 954/10/6 949/10/6 955/10/6
f 950/11/6 951/11/6 956/11/6
f 956/11/6 951/11/6 957/11/6
f 952/5/6 953/5/6 958/5/6
f 958/5/6 953/5/6 959/5/6
f 954/11/6 955/11/6 960/11/6
f 960/11/6 955/11/6 961/11/6
f 958/5/6 959/5/6 962/5/6
f 959/5/6 960/5/6 962/5/6
f 957/5/6 958/5/6 962/5/6
f 962/5/6 960/5/6 963/5/6
f 964/10/6 965/10/6 968/10/6
f 968/10/6 965/10/6 969/10/6
f 966/10/6 967/10/6 970/10/6
f 970/10/6 967/10/6 971/10/6
