# MagicaVoxel @ Ephtracy

# group
o 

# material
mtllib Teacher_Walk2.vox.mtl
usemtl palette

# normals
vn -1 0 0
vn 1 0 0
vn 0 0 1
vn 0 0 -1
vn 0 -1 0
vn 0 1 0

# texcoords
vt 0.0839844 0.5
vt 0.146484 0.5
vt 0.287109 0.5
vt 0.291016 0.5
vt 0.310547 0.5
vt 0.349609 0.5
vt 0.365234 0.5
vt 0.373047 0.5
vt 0.748047 0.5
vt 0.958984 0.5
vt 0.994141 0.5

# verts
v -0.6 1.3 0.4
v -0.6 1.3 -0.3
v -0.6 1.5 0.4
v -0.6 1.5 -0.3
v -0.5 0.3 0.1
v -0.5 0.3 -0.1
v -0.5 0.5 0.1
v -0.5 0.5 -0.1
v -0.5 0.7 0.1
v -0.5 0.7 -0.1
v -0.5 0.9 0.3
v -0.5 0.9 0
v -0.5 0.9 -0.4
v -0.5 1.3 0.3
v -0.5 1.3 0
v -0.5 1.3 -0.3
v -0.5 1.5 0.4
v -0.5 1.5 -0.3
v -0.5 1.5 -0.4
v -0.5 1.6 0.4
v -0.5 1.6 -0.3
v -0.4 0.2 0.2
v -0.4 0.2 -0.2
v -0.4 0.3 0.1
v -0.4 0.3 -0.1
v -0.4 0.5 0.2
v -0.4 0.5 0.1
v -0.4 0.5 -0.1
v -0.4 0.5 -0.2
v -0.4 0.8 0.3
v -0.4 0.8 0
v -0.4 0.8 -0.2
v -0.4 0.9 0.3
v -0.4 0.9 0
v -0.4 0.9 -0.2
v -0.4 1.6 0.3
v -0.4 1.6 -0.2
v -0.4 1.7 0.3
v -0.4 1.7 -0.2
v -0.3 0.1 0.4
v -0.3 0.1 0.2
v -0.3 0.1 -0.1
v -0.3 0.2 0.2
v -0.3 0.2 -0.1
v -0.3 0.3 0.3
v -0.3 0.3 0.2
v -0.3 0.4 0.4
v -0.3 0.4 0.3
v -0.3 0.5 0.2
v -0.3 0.5 0.1
v -0.3 0.5 -0.1
v -0.3 0.5 -0.2
v -0.3 0.7 0.1
v -0.3 0.7 -0.1
v -0.3 0.8 0.2
v -0.3 0.8 0
v -0.3 0.8 -0.2
v -0.3 0.8 -0.3
v -0.3 0.9 -0.2
v -0.3 0.9 -0.3
v -0.1 0.6 0.3
v -0.1 0.6 0.2
v -0.1 0.8 0.3
v -0.1 0.8 0.2
v -5.96046e-08 0.5 0.3
v -5.96046e-08 0.5 0.2
v -5.96046e-08 0.6 0.3
v -5.96046e-08 0.6 0.2
v 0.1 0 0.2
v 0.1 0 -0.1
v 0.1 0.1 0.2
v 0.1 0.1 0.1
v 0.1 0.2 0.1
v 0.1 0.2 -0.1
v 0.1 0.3 0.1
v 0.1 0.3 -0.1
v 0.3 0.5 0.3
v 0.3 0.5 0.2
v 0.3 0.7 0.3
v 0.3 0.7 0.2
v 0.4 1.3 0.4
v 0.4 1.3 0.3
v 0.4 1.4 0.4
v 0.4 1.4 0.3
v -0.4 1.3 0.4
v -0.4 1.3 0.3
v -0.4 1.4 0.4
v -0.4 1.4 0.3
v -0.3 0.2 -0.1
v -0.3 0.2 -0.2
v -0.3 0.3 -0.1
v -0.3 0.3 -0.2
v -0.1 0.1 0.4
v -0.1 0.1 0.2
v -0.1 0.1 -0.1
v -0.1 0.3 0.3
v -0.1 0.3 0.2
v -0.1 0.3 0.1
v -0.1 0.3 -0.1
v -0.1 0.4 0.4
v -0.1 0.4 0.3
v 0.1 0.5 0.3
v 0.1 0.5 0.2
v 0.1 0.8 0.3
v 0.1 0.8 0.2
v 0.3 0 0.2
v 0.3 0 -0.1
v 0.3 0.1 0.2
v 0.3 0.1 0.1
v 0.3 0.2 0.1
v 0.3 0.2 -0.1
v 0.3 0.3 0.2
v 0.3 0.3 0.1
v 0.3 0.3 -0.1
v 0.3 0.3 -0.2
v 0.3 0.4 0.2
v 0.3 0.4 -0.2
v 0.3 0.5 0.2
v 0.3 0.5 0.1
v 0.3 0.5 -0.1
v 0.3 0.7 0.2
v 0.3 0.7 0.1
v 0.3 0.7 -0.1
v 0.3 0.8 0.2
v 0.3 0.8 0
v 0.3 0.8 -0.2
v 0.3 0.8 -0.3
v 0.3 0.9 -0.2
v 0.3 0.9 -0.3
v 0.4 0.8 0.3
v 0.4 0.8 0
v 0.4 0.8 -0.2
v 0.4 0.9 0.3
v 0.4 0.9 0
v 0.4 0.9 -0.2
v 0.4 1.6 0.3
v 0.4 1.6 -0.2
v 0.4 1.7 0.3
v 0.4 1.7 -0.2
v 0.5 0.5 0.3
v 0.5 0.5 0.1
v 0.5 0.5 -0.1
v 0.5 0.7 0.3
v 0.5 0.7 0.1
v 0.5 0.7 -0.1
v 0.5 0.9 0.3
v 0.5 0.9 0
v 0.5 0.9 -0.4
v 0.5 1.3 0.3
v 0.5 1.3 0
v 0.5 1.3 -0.3
v 0.5 1.5 0.4
v 0.5 1.5 -0.3
v 0.5 1.5 -0.4
v 0.5 1.6 0.4
v 0.5 1.6 -0.3
v 0.6 1.3 0.4
v 0.6 1.3 -0.3
v 0.6 1.5 0.4
v 0.6 1.5 -0.3
v -0.6 1.3 0.4
v -0.6 1.5 0.4
v -0.5 1.5 0.4
v -0.5 1.6 0.4
v -0.4 1.3 0.4
v -0.4 1.4 0.4
v -0.3 0.1 0.4
v -0.3 0.4 0.4
v -0.1 0.1 0.4
v -0.1 0.4 0.4
v 0.4 1.3 0.4
v 0.4 1.4 0.4
v 0.5 1.5 0.4
v 0.5 1.6 0.4
v 0.6 1.3 0.4
v 0.6 1.5 0.4
v -0.5 0.9 0.3
v -0.5 1.3 0.3
v -0.4 0.8 0.3
v -0.4 0.9 0.3
v -0.4 1.3 0.3
v -0.4 1.4 0.3
v -0.4 1.6 0.3
v -0.4 1.7 0.3
v -0.3 1.1 0.3
v -0.3 1.3 0.3
v -0.2 1.1 0.3
v -0.2 1.3 0.3
v -0.1 0.6 0.3
v -0.1 0.8 0.3
v -0.1 0.9 0.3
v -0.1 1 0.3
v -0.1 1.1 0.3
v -0.1 1.3 0.3
v -5.96046e-08 0.5 0.3
v -5.96046e-08 0.6 0.3
v 0.1 0.5 0.3
v 0.1 0.8 0.3
v 0.1 0.9 0.3
v 0.1 1 0.3
v 0.1 1.1 0.3
v 0.1 1.3 0.3
v 0.2 1.1 0.3
v 0.2 1.3 0.3
v 0.3 0.5 0.3
v 0.3 0.7 0.3
v 0.3 1.1 0.3
v 0.3 1.3 0.3
v 0.4 0.8 0.3
v 0.4 0.9 0.3
v 0.4 1.3 0.3
v 0.4 1.4 0.3
v 0.4 1.6 0.3
v 0.4 1.7 0.3
v 0.5 0.5 0.3
v 0.5 0.7 0.3
v 0.5 0.9 0.3
v 0.5 1.3 0.3
v -0.4 0.2 0.2
v -0.4 0.5 0.2
v -0.3 0.2 0.2
v -0.3 0.3 0.2
v -0.3 0.4 0.2
v -0.3 0.5 0.2
v -0.3 0.8 0.2
v -0.1 0.3 0.2
v -0.1 0.4 0.2
v -0.1 0.6 0.2
v -0.1 0.8 0.2
v -5.96046e-08 0.5 0.2
v -5.96046e-08 0.6 0.2
v 0.1 0 0.2
v 0.1 0.1 0.2
v 0.1 0.3 0.2
v 0.1 0.4 0.2
v 0.1 0.5 0.2
v 0.1 0.8 0.2
v 0.3 0 0.2
v 0.3 0.1 0.2
v 0.3 0.3 0.2
v 0.3 0.4 0.2
v 0.3 0.5 0.2
v 0.3 0.7 0.2
v 0.3 0.8 0.2
v -0.5 0.3 0.1
v -0.5 0.5 0.1
v -0.5 0.7 0.1
v -0.4 0.3 0.1
v -0.4 0.5 0.1
v -0.3 0.5 0.1
v -0.3 0.7 0.1
v 0.1 0.1 0.1
v 0.1 0.2 0.1
v 0.1 0.3 0.1
v 0.3 0.1 0.1
v 0.3 0.2 0.1
v 0.3 0.3 0.1
v -0.3 0.3 0.3
v -0.3 0.4 0.3
v -0.1 0.3 0.3
v -0.1 0.4 0.3
v -0.5 0.3 -0.1
v -0.5 0.5 -0.1
v -0.5 0.7 -0.1
v -0.4 0.3 -0.1
v -0.4 0.5 -0.1
v -0.3 0.1 -0.1
v -0.3 0.2 -0.1
v -0.3 0.3 -0.1
v -0.3 0.5 -0.1
v -0.3 0.7 -0.1
v -0.1 0.1 -0.1
v -0.1 0.3 -0.1
v 0.1 0 -0.1
v 0.1 0.2 -0.1
v 0.1 0.3 -0.1
v 0.3 0 -0.1
v 0.3 0.2 -0.1
v 0.3 0.3 -0.1
v 0.3 0.5 -0.1
v 0.3 0.7 -0.1
v 0.5 0.5 -0.1
v 0.5 0.7 -0.1
v -0.4 0.2 -0.2
v -0.4 0.5 -0.2
v -0.4 0.8 -0.2
v -0.4 0.9 -0.2
v -0.4 1.6 -0.2
v -0.4 1.7 -0.2
v -0.3 0.2 -0.2
v -0.3 0.3 -0.2
v -0.3 0.4 -0.2
v -0.3 0.5 -0.2
v -0.3 0.8 -0.2
v -0.3 0.9 -0.2
v 0.3 0.3 -0.2
v 0.3 0.4 -0.2
v 0.3 0.8 -0.2
v 0.3 0.9 -0.2
v 0.4 0.8 -0.2
v 0.4 0.9 -0.2
v 0.4 1.6 -0.2
v 0.4 1.7 -0.2
v -0.6 1.3 -0.3
v -0.6 1.5 -0.3
v -0.5 1.3 -0.3
v -0.5 1.5 -0.3
v -0.5 1.6 -0.3
v -0.3 0.8 -0.3
v -0.3 0.9 -0.3
v 0.3 0.8 -0.3
v 0.3 0.9 -0.3
v 0.5 1.3 -0.3
v 0.5 1.5 -0.3
v 0.5 1.6 -0.3
v 0.6 1.3 -0.3
v 0.6 1.5 -0.3
v -0.5 0.9 -0.4
v -0.5 1.5 -0.4
v 0.5 0.9 -0.4
v 0.5 1.5 -0.4
v 0.1 0 0.2
v 0.3 0 0.2
v 0.1 0 -0.1
v 0.3 0 -0.1
v -0.3 0.1 0.4
v -0.1 0.1 0.4
v -0.3 0.1 0.2
v -0.1 0.1 0.2
v -0.3 0.1 -0.1
v -0.1 0.1 -0.1
v -0.4 0.2 0.2
v -0.3 0.2 0.2
v -0.3 0.2 -0.1
v -0.4 0.2 -0.2
v -0.3 0.2 -0.2
v -0.1 0.3 0.2
v 0.1 0.3 0.2
v 0.3 0.3 0.2
v -0.5 0.3 0.1
v -0.4 0.3 0.1
v -0.1 0.3 0.1
v 0.1 0.3 0.1
v 0.3 0.3 0.1
v -0.5 0.3 -0.1
v -0.4 0.3 -0.1
v -0.3 0.3 -0.1
v -0.1 0.3 -0.1
v 0.1 0.3 -0.1
v 0.3 0.3 -0.1
v -0.3 0.3 -0.2
v 0.3 0.3 -0.2
v -5.96046e-08 0.5 0.3
v 0.1 0.5 0.3
v 0.3 0.5 0.3
v 0.5 0.5 0.3
v -5.96046e-08 0.5 0.2
v 0.1 0.5 0.2
v 0.3 0.5 0.2
v 0.4 0.5 0.2
v 0.3 0.5 0.1
v 0.4 0.5 0.1
v 0.5 0.5 0.1
v 0.3 0.5 -0.1
v 0.5 0.5 -0.1
v -0.1 0.6 0.3
v -5.96046e-08 0.6 0.3
v -0.1 0.6 0.2
v -5.96046e-08 0.6 0.2
v -0.4 0.8 0.3
v -0.1 0.8 0.3
v 0.1 0.8 0.3
v 0.4 0.8 0.3
v -0.3 0.8 0.2
v -0.1 0.8 0.2
v 0.1 0.8 0.2
v 0.3 0.8 0.2
v -0.4 0.8 0
v -0.3 0.8 0
v 0.3 0.8 0
v 0.4 0.8 0
v -0.4 0.8 -0.2
v -0.3 0.8 -0.2
v 0.3 0.8 -0.2
v 0.4 0.8 -0.2
v -0.3 0.8 -0.3
v 0.3 0.8 -0.3
v -0.5 0.9 0.3
v -0.4 0.9 0.3
v 0.4 0.9 0.3
v 0.5 0.9 0.3
v -0.5 0.9 0
v -0.4 0.9 0
v 0.4 0.9 0
v 0.5 0.9 0
v -0.4 0.9 -0.2
v -0.3 0.9 -0.2
v 0.3 0.9 -0.2
v 0.4 0.9 -0.2
v -0.3 0.9 -0.3
v 0.3 0.9 -0.3
v -0.5 0.9 -0.4
v 0.5 0.9 -0.4
v -0.6 1.3 0.4
v -0.4 1.3 0.4
v 0.4 1.3 0.4
v 0.6 1.3 0.4
v -0.5 1.3 0.3
v -0.4 1.3 0.3
v 0.4 1.3 0.3
v 0.5 1.3 0.3
v -0.5 1.3 0
v 0.5 1.3 0
v -0.6 1.3 -0.3
v -0.5 1.3 -0.3
v 0.5 1.3 -0.3
v 0.6 1.3 -0.3
v -0.4 1.4 0.4
v 0.4 1.4 0.4
v -0.4 1.4 0.3
v 0.4 1.4 0.3
v 0.1 0.1 0.2
v 0.3 0.1 0.2
v 0.1 0.1 0.1
v 0.3 0.1 0.1
v -0.3 0.3 0.3
v -0.1 0.3 0.3
v -0.3 0.3 0.2
v -0.1 0.3 0.2
v -0.3 0.4 0.4
v -0.1 0.4 0.4
v -0.3 0.4 0.3
v -0.1 0.4 0.3
v -0.4 0.5 0.2
v -0.3 0.5 0.2
v -0.4 0.5 0.1
v -0.3 0.5 0.1
v -0.4 0.5 -0.1
v -0.3 0.5 -0.1
v -0.4 0.5 -0.2
v -0.3 0.5 -0.2
v 0.3 0.7 0.3
v 0.5 0.7 0.3
v 0.3 0.7 0.2
v -0.5 0.7 0.1
v -0.3 0.7 0.1
v 0.3 0.7 0.1
v 0.5 0.7 0.1
v -0.5 0.7 -0.1
v -0.3 0.7 -0.1
v 0.3 0.7 -0.1
v 0.5 0.7 -0.1
v -0.6 1.5 0.4
v -0.5 1.5 0.4
v 0.5 1.5 0.4
v 0.6 1.5 0.4
v -0.6 1.5 -0.3
v -0.5 1.5 -0.3
v 0.5 1.5 -0.3
v 0.6 1.5 -0.3
v -0.5 1.5 -0.4
v 0.5 1.5 -0.4
v -0.5 1.6 0.4
v 0.5 1.6 0.4
v -0.4 1.6 0.3
v 0.4 1.6 0.3
v -0.4 1.6 -0.2
v 0.4 1.6 -0.2
v -0.5 1.6 -0.3
v 0.5 1.6 -0.3
v -0.4 1.7 0.3
v 0.4 1.7 0.3
v -0.4 1.7 -0.2
v 0.4 1.7 -0.2

# faces
f 3/5/1 2/5/1 1/5/1
f 4/5/1 2/5/1 3/5/1
f 7/6/1 6/6/1 5/6/1
f 8/6/1 6/6/1 7/6/1
f 9/9/1 8/9/1 7/9/1
f 10/9/1 8/9/1 9/9/1
f 14/6/1 12/6/1 11/6/1
f 15/5/1 13/5/1 12/5/1
f 15/6/1 12/6/1 14/6/1
f 16/5/1 13/5/1 15/5/1
f 18/5/1 13/5/1 16/5/1
f 19/5/1 13/5/1 18/5/1
f 20/5/1 18/5/1 17/5/1
f 21/5/1 18/5/1 20/5/1
f 24/5/1 23/5/1 22/5/1
f 25/5/1 23/5/1 24/5/1
f 26/5/1 24/5/1 22/5/1
f 27/5/1 24/5/1 26/5/1
f 28/5/1 23/5/1 25/5/1
f 29/5/1 23/5/1 28/5/1
f 33/6/1 31/6/1 30/6/1
f 34/5/1 32/5/1 31/5/1
f 34/6/1 31/6/1 33/6/1
f 35/5/1 32/5/1 34/5/1
f 38/5/1 37/5/1 36/5/1
f 39/5/1 37/5/1 38/5/1
f 43/7/1 41/7/1 40/7/1
f 43/4/1 42/4/1 41/4/1
f 44/4/1 42/4/1 43/4/1
f 45/7/1 43/7/1 40/7/1
f 46/7/1 43/7/1 45/7/1
f 47/7/1 45/7/1 40/7/1
f 48/7/1 45/7/1 47/7/1
f 53/9/1 50/9/1 49/9/1
f 54/9/1 52/9/1 51/9/1
f 55/9/1 53/9/1 49/9/1
f 55/9/1 54/9/1 53/9/1
f 56/9/1 54/9/1 55/9/1
f 57/9/1 52/9/1 54/9/1
f 57/9/1 54/9/1 56/9/1
f 59/5/1 58/5/1 57/5/1
f 60/5/1 58/5/1 59/5/1
f 63/2/1 62/2/1 61/2/1
f 64/2/1 62/2/1 63/2/1
f 67/2/1 66/2/1 65/2/1
f 68/2/1 66/2/1 67/2/1
f 71/7/1 70/7/1 69/7/1
f 72/7/1 70/7/1 71/7/1
f 73/7/1 70/7/1 72/7/1
f 74/7/1 70/7/1 73/7/1
f 75/4/1 74/4/1 73/4/1
f 76/4/1 74/4/1 75/4/1
f 79/6/1 78/6/1 77/6/1
f 80/6/1 78/6/1 79/6/1
f 83/5/1 82/5/1 81/5/1
f 84/5/1 82/5/1 83/5/1
f 85/5/2 86/5/2 87/5/2
f 87/5/2 86/5/2 88/5/2
f 89/5/2 90/5/2 91/5/2
f 91/5/2 90/5/2 92/5/2
f 93/7/2 94/7/2 96/7/2
f 94/4/2 95/4/2 97/4/2
f 96/7/2 94/7/2 97/7/2
f 97/4/2 95/4/2 98/4/2
f 98/4/2 95/4/2 99/4/2
f 93/7/2 96/7/2 100/7/2
f 100/7/2 96/7/2 101/7/2
f 102/2/2 103/2/2 104/2/2
f 104/2/2 103/2/2 105/2/2
f 106/7/2 107/7/2 108/7/2
f 108/7/2 107/7/2 109/7/2
f 109/7/2 107/7/2 110/7/2
f 110/7/2 107/7/2 111/7/2
f 110/4/2 111/4/2 113/4/2
f 113/4/2 111/4/2 114/4/2
f 113/7/2 114/7/2 116/7/2
f 114/7/2 115/7/2 116/7/2
f 112/7/2 113/7/2 116/7/2
f 116/7/2 115/7/2 117/7/2
f 116/9/2 117/9/2 118/9/2
f 118/9/2 117/9/2 119/9/2
f 119/9/2 117/9/2 120/9/2
f 120/9/2 117/9/2 123/9/2
f 121/9/2 122/9/2 124/9/2
f 122/9/2 123/9/2 124/9/2
f 124/9/2 123/9/2 125/9/2
f 123/9/2 117/9/2 126/9/2
f 125/9/2 123/9/2 126/9/2
f 126/5/2 127/5/2 128/5/2
f 128/5/2 127/5/2 129/5/2
f 130/6/2 131/6/2 133/6/2
f 131/5/2 132/5/2 134/5/2
f 133/6/2 131/6/2 134/6/2
f 134/5/2 132/5/2 135/5/2
f 136/5/2 137/5/2 138/5/2
f 138/5/2 137/5/2 139/5/2
f 140/6/2 141/6/2 143/6/2
f 141/9/2 142/9/2 144/9/2
f 143/6/2 141/6/2 144/6/2
f 144/9/2 142/9/2 145/9/2
f 146/6/2 147/6/2 149/6/2
f 147/5/2 148/5/2 150/5/2
f 149/6/2 147/6/2 150/6/2
f 150/5/2 148/5/2 151/5/2
f 151/5/2 148/5/2 153/5/2
f 153/5/2 148/5/2 154/5/2
f 152/5/2 153/5/2 155/5/2
f 155/5/2 153/5/2 156/5/2
f 157/5/2 158/5/2 159/5/2
f 159/5/2 158/5/2 160/5/2
f 163/5/3 162/5/3 161/5/3
f 165/5/3 163/5/3 161/5/3
f 165/5/3 164/5/3 163/5/3
f 166/5/3 164/5/3 165/5/3
f 169/7/3 168/7/3 167/7/3
f 170/7/3 168/7/3 169/7/3
f 172/5/3 164/5/3 166/5/3
f 173/5/3 164/5/3 172/5/3
f 173/5/3 172/5/3 171/5/3
f 174/5/3 164/5/3 173/5/3
f 175/5/3 173/5/3 171/5/3
f 176/5/3 173/5/3 175/5/3
f 180/6/3 178/6/3 177/6/3
f 181/6/3 178/6/3 180/6/3
f 185/6/3 180/6/3 179/6/3
f 185/6/3 181/6/3 180/6/3
f 185/6/3 182/6/3 181/6/3
f 186/6/3 182/6/3 185/6/3
f 187/6/3 185/6/3 179/6/3
f 187/10/3 186/10/3 185/10/3
f 188/6/3 182/6/3 186/6/3
f 188/10/3 186/10/3 187/10/3
f 190/6/3 187/6/3 179/6/3
f 191/6/3 187/6/3 190/6/3
f 192/6/3 187/6/3 191/6/3
f 193/11/3 188/11/3 187/11/3
f 193/6/3 187/6/3 192/6/3
f 194/6/3 182/6/3 188/6/3
f 194/11/3 188/11/3 193/11/3
f 196/2/3 190/2/3 189/2/3
f 197/2/3 196/2/3 195/2/3
f 198/6/3 191/6/3 190/6/3
f 198/2/3 196/2/3 197/2/3
f 198/2/3 190/2/3 196/2/3
f 199/1/3 192/1/3 191/1/3
f 199/6/3 191/6/3 198/6/3
f 200/6/3 193/6/3 192/6/3
f 200/1/3 192/1/3 199/1/3
f 200/6/3 194/6/3 193/6/3
f 201/6/3 194/6/3 200/6/3
f 202/6/3 182/6/3 194/6/3
f 202/6/3 194/6/3 201/6/3
f 203/6/3 199/6/3 198/6/3
f 203/11/3 202/11/3 201/11/3
f 203/6/3 200/6/3 199/6/3
f 203/6/3 201/6/3 200/6/3
f 204/6/3 182/6/3 202/6/3
f 204/11/3 202/11/3 203/11/3
f 207/6/3 203/6/3 198/6/3
f 207/10/3 204/10/3 203/10/3
f 208/6/3 182/6/3 204/6/3
f 208/10/3 204/10/3 207/10/3
f 209/6/3 207/6/3 198/6/3
f 209/6/3 208/6/3 207/6/3
f 210/6/3 208/6/3 209/6/3
f 211/6/3 182/6/3 208/6/3
f 211/6/3 208/6/3 210/6/3
f 212/6/3 182/6/3 211/6/3
f 213/5/3 184/5/3 183/5/3
f 214/5/3 184/5/3 213/5/3
f 215/6/3 206/6/3 205/6/3
f 216/6/3 206/6/3 215/6/3
f 217/6/3 211/6/3 210/6/3
f 218/6/3 211/6/3 217/6/3
f 221/5/3 220/5/3 219/5/3
f 222/5/3 220/5/3 221/5/3
f 223/5/3 220/5/3 222/5/3
f 224/5/3 220/5/3 223/5/3
f 226/7/3 223/7/3 222/7/3
f 227/9/3 225/9/3 224/9/3
f 227/7/3 223/7/3 226/7/3
f 227/9/3 224/9/3 223/9/3
f 228/9/3 225/9/3 227/9/3
f 229/9/3 225/9/3 228/9/3
f 230/9/3 228/9/3 227/9/3
f 231/9/3 228/9/3 230/9/3
f 234/8/3 227/8/3 226/8/3
f 235/9/3 230/9/3 227/9/3
f 235/8/3 227/8/3 234/8/3
f 236/9/3 230/9/3 235/9/3
f 238/7/3 233/7/3 232/7/3
f 239/7/3 233/7/3 238/7/3
f 240/7/3 235/7/3 234/7/3
f 241/9/3 237/9/3 236/9/3
f 241/7/3 235/7/3 240/7/3
f 241/9/3 236/9/3 235/9/3
f 242/9/3 237/9/3 241/9/3
f 243/9/3 237/9/3 242/9/3
f 244/9/3 237/9/3 243/9/3
f 248/6/3 246/6/3 245/6/3
f 249/9/3 247/9/3 246/9/3
f 249/6/3 246/6/3 248/6/3
f 250/9/3 247/9/3 249/9/3
f 251/9/3 247/9/3 250/9/3
f 255/7/3 253/7/3 252/7/3
f 256/4/3 254/4/3 253/4/3
f 256/7/3 253/7/3 255/7/3
f 257/4/3 254/4/3 256/4/3
f 258/7/4 259/7/4 260/7/4
f 260/7/4 259/7/4 261/7/4
f 262/6/4 263/6/4 265/6/4
f 263/9/4 264/9/4 266/9/4
f 265/6/4 263/6/4 266/6/4
f 266/9/4 264/9/4 270/9/4
f 270/9/4 264/9/4 271/9/4
f 268/4/4 269/4/4 272/4/4
f 267/4/4 268/4/4 272/4/4
f 272/4/4 269/4/4 273/4/4
f 274/7/4 275/7/4 277/7/4
f 275/4/4 276/4/4 278/4/4
f 277/7/4 275/7/4 278/7/4
f 278/4/4 276/4/4 279/4/4
f 280/9/4 281/9/4 282/9/4
f 282/9/4 281/9/4 283/9/4
f 284/5/4 285/5/4 290/5/4
f 290/5/4 285/5/4 291/5/4
f 291/5/4 285/5/4 292/5/4
f 292/5/4 285/5/4 293/5/4
f 286/5/4 287/5/4 294/5/4
f 294/5/4 287/5/4 295/5/4
f 291/7/4 292/7/4 296/7/4
f 292/9/4 293/9/4 297/9/4
f 296/7/4 292/7/4 297/7/4
f 293/9/4 294/9/4 297/9/4
f 297/9/4 294/9/4 298/9/4
f 298/5/4 299/5/4 300/5/4
f 300/5/4 299/5/4 301/5/4
f 288/5/4 289/5/4 302/5/4
f 302/5/4 289/5/4 303/5/4
f 304/5/4 305/5/4 306/5/4
f 306/5/4 305/5/4 307/5/4
f 309/5/4 310/5/4 311/5/4
f 311/5/4 310/5/4 312/5/4
f 307/5/4 308/5/4 314/5/4
f 314/5/4 308/5/4 315/5/4
f 313/5/4 314/5/4 316/5/4
f 316/5/4 314/5/4 317/5/4
f 318/5/4 319/5/4 320/5/4
f 320/5/4 319/5/4 321/5/4
f 324/7/5 323/7/5 322/7/5
f 325/7/5 323/7/5 324/7/5
f 328/7/5 327/7/5 326/7/5
f 329/7/5 327/7/5 328/7/5
f 330/4/5 329/4/5 328/4/5
f 331/4/5 329/4/5 330/4/5
f 334/5/5 333/5/5 332/5/5
f 335/5/5 334/5/5 332/5/5
f 336/5/5 334/5/5 335/5/5
f 342/8/5 338/8/5 337/8/5
f 343/7/5 339/7/5 338/7/5
f 343/8/5 338/8/5 342/8/5
f 344/7/5 339/7/5 343/7/5
f 345/6/5 341/6/5 340/6/5
f 346/6/5 341/6/5 345/6/5
f 348/4/5 343/4/5 342/4/5
f 349/4/5 343/4/5 348/4/5
f 351/7/5 350/7/5 349/7/5
f 351/7/5 349/7/5 348/7/5
f 351/7/5 348/7/5 347/7/5
f 352/7/5 350/7/5 351/7/5
f 357/2/5 354/2/5 353/2/5
f 358/2/5 354/2/5 357/2/5
f 359/6/5 356/6/5 355/6/5
f 360/6/5 356/6/5 359/6/5
f 361/3/5 360/3/5 359/3/5
f 362/6/5 356/6/5 360/6/5
f 362/3/5 360/3/5 361/3/5
f 363/6/5 356/6/5 362/6/5
f 364/9/5 362/9/5 361/9/5
f 364/9/5 363/9/5 362/9/5
f 365/9/5 363/9/5 364/9/5
f 368/2/5 367/2/5 366/2/5
f 369/2/5 367/2/5 368/2/5
f 374/6/5 371/6/5 370/6/5
f 375/6/5 371/6/5 374/6/5
f 376/6/5 373/6/5 372/6/5
f 377/6/5 373/6/5 376/6/5
f 378/6/5 374/6/5 370/6/5
f 379/6/5 374/6/5 378/6/5
f 380/6/5 373/6/5 377/6/5
f 381/6/5 373/6/5 380/6/5
f 382/5/5 379/5/5 378/5/5
f 383/5/5 379/5/5 382/5/5
f 384/5/5 381/5/5 380/5/5
f 385/5/5 381/5/5 384/5/5
f 386/5/5 384/5/5 383/5/5
f 387/5/5 384/5/5 386/5/5
f 392/6/5 389/6/5 388/6/5
f 393/6/5 389/6/5 392/6/5
f 394/6/5 391/6/5 390/6/5
f 395/6/5 391/6/5 394/6/5
f 396/5/5 393/5/5 392/5/5
f 399/5/5 395/5/5 394/5/5
f 400/5/5 397/5/5 396/5/5
f 401/5/5 399/5/5 398/5/5
f 402/5/5 400/5/5 396/5/5
f 402/5/5 401/5/5 400/5/5
f 402/5/5 396/5/5 392/5/5
f 403/5/5 399/5/5 401/5/5
f 403/5/5 401/5/5 402/5/5
f 403/5/5 395/5/5 399/5/5
f 408/5/5 405/5/5 404/5/5
f 409/5/5 405/5/5 408/5/5
f 410/5/5 407/5/5 406/5/5
f 411/5/5 407/5/5 410/5/5
f 412/5/5 408/5/5 404/5/5
f 413/5/5 407/5/5 411/5/5
f 414/5/5 412/5/5 404/5/5
f 415/5/5 412/5/5 414/5/5
f 416/5/5 407/5/5 413/5/5
f 417/5/5 407/5/5 416/5/5
f 420/5/5 419/5/5 418/5/5
f 421/5/5 419/5/5 420/5/5
f 422/7/6 423/7/6 424/7/6
f 424/7/6 423/7/6 425/7/6
f 426/7/6 427/7/6 428/7/6
f 428/7/6 427/7/6 429/7/6
f 430/7/6 431/7/6 432/7/6
f 432/7/6 431/7/6 433/7/6
f 434/5/6 435/5/6 436/5/6
f 436/5/6 435/5/6 437/5/6
f 438/5/6 439/5/6 440/5/6
f 440/5/6 439/5/6 441/5/6
f 442/6/6 443/6/6 444/6/6
f 444/6/6 443/6/6 447/6/6
f 447/6/6 443/6/6 448/6/6
f 445/9/6 446/9/6 449/9/6
f 449/9/6 446/9/6 450/9/6
f 447/9/6 448/9/6 451/9/6
f 451/9/6 448/9/6 452/9/6
f 453/5/6 454/5/6 457/5/6
f 457/5/6 454/5/6 458/5/6
f 455/5/6 456/5/6 459/5/6
f 459/5/6 456/5/6 460/5/6
f 458/5/6 459/5/6 461/5/6
f 461/5/6 459/5/6 462/5/6
f 463/5/6 464/5/6 465/5/6
f 465/5/6 464/5/6 466/5/6
f 463/5/6 465/5/6 467/5/6
f 466/5/6 464/5/6 468/5/6
f 463/5/6 467/5/6 469/5/6
f 467/5/6 468/5/6 469/5/6
f 468/5/6 464/5/6 470/5/6
f 469/5/6 468/5/6 470/5/6
f 471/5/6 472/5/6 473/5/6
f 473/5/6 472/5/6 474/5/6
