# MagicaVoxel @ Ephtracy

# group
o 

# material
mtllib Teacher_Walk1.vox.mtl
usemtl palette

# normals
vn -1 0 0
vn 1 0 0
vn 0 0 1
vn 0 0 -1
vn 0 -1 0
vn 0 1 0

# texcoords
vt 0.0839844 0.5
vt 0.146484 0.5
vt 0.287109 0.5
vt 0.291016 0.5
vt 0.310547 0.5
vt 0.349609 0.5
vt 0.365234 0.5
vt 0.373047 0.5
vt 0.748047 0.5
vt 0.958984 0.5
vt 0.994141 0.5

# verts
v -0.6 1.3 0.4
v -0.6 1.3 -0.3
v -0.6 1.5 0.4
v -0.6 1.5 -0.3
v -0.5 0.5 0.3
v -0.5 0.5 0.1
v -0.5 0.5 -0.1
v -0.5 0.7 0.3
v -0.5 0.7 0.1
v -0.5 0.7 -0.1
v -0.5 0.9 0.3
v -0.5 0.9 0
v -0.5 0.9 -0.4
v -0.5 1.3 0.3
v -0.5 1.3 0
v -0.5 1.3 -0.3
v -0.5 1.5 0.4
v -0.5 1.5 -0.3
v -0.5 1.5 -0.4
v -0.5 1.6 0.4
v -0.5 1.6 -0.3
v -0.4 0.4 0.4
v -0.4 0.4 0.1
v -0.4 0.5 0.3
v -0.4 0.5 0.1
v -0.4 0.7 0.3
v -0.4 0.7 0.1
v -0.4 0.8 0.4
v -0.4 0.8 0.3
v -0.4 0.8 0.1
v -0.4 0.8 0
v -0.4 0.8 -0.2
v -0.4 0.9 0.3
v -0.4 0.9 0
v -0.4 0.9 -0.2
v -0.4 1.6 0.3
v -0.4 1.6 -0.2
v -0.4 1.7 0.3
v -0.4 1.7 -0.2
v -0.3 0 0.2
v -0.3 0 -0.1
v -0.3 0.1 0.2
v -0.3 0.1 0.1
v -0.3 0.2 0.1
v -0.3 0.2 -0.1
v -0.3 0.3 0.2
v -0.3 0.3 0.1
v -0.3 0.3 -0.1
v -0.3 0.3 -0.2
v -0.3 0.4 0.2
v -0.3 0.4 0.1
v -0.3 0.4 -0.2
v -0.3 0.5 0.1
v -0.3 0.5 -0.1
v -0.3 0.7 0.1
v -0.3 0.7 -0.1
v -0.3 0.8 0.1
v -0.3 0.8 0
v -0.3 0.8 -0.2
v -0.3 0.8 -0.3
v -0.3 0.9 -0.2
v -0.3 0.9 -0.3
v -0.1 0.5 0.3
v -0.1 0.5 0.2
v -0.1 0.8 0.3
v -0.1 0.8 0.2
v 0.1 0.1 0.4
v 0.1 0.1 0.2
v 0.1 0.1 -0.1
v 0.1 0.3 0.3
v 0.1 0.3 0.2
v 0.1 0.3 0.1
v 0.1 0.3 -0.1
v 0.1 0.4 0.4
v 0.1 0.4 0.3
v 0.4 1.3 0.4
v 0.4 1.3 0.3
v 0.4 1.4 0.4
v 0.4 1.4 0.3
v -0.4 1.3 0.4
v -0.4 1.3 0.3
v -0.4 1.4 0.4
v -0.4 1.4 0.3
v -0.3 0.4 0.4
v -0.3 0.4 0.2
v -0.3 0.8 0.4
v -0.3 0.8 0.3
v -0.3 0.8 0.2
v -0.1 0 0.2
v -0.1 0 -0.1
v -0.1 0.1 0.2
v -0.1 0.1 0.1
v -0.1 0.2 0.1
v -0.1 0.2 -0.1
v -0.1 0.3 0.1
v -0.1 0.3 -0.1
v -5.96046e-08 0.5 0.3
v -5.96046e-08 0.5 0.2
v -5.96046e-08 0.6 0.3
v -5.96046e-08 0.6 0.2
v 0.1 0.6 0.3
v 0.1 0.6 0.2
v 0.1 0.8 0.3
v 0.1 0.8 0.2
v 0.3 0.1 0.4
v 0.3 0.1 0.2
v 0.3 0.1 -0.1
v 0.3 0.3 0.3
v 0.3 0.3 0.2
v 0.3 0.3 0.1
v 0.3 0.3 -0.1
v 0.3 0.3 -0.2
v 0.3 0.4 0.4
v 0.3 0.4 0.3
v 0.3 0.4 0.2
v 0.3 0.4 0.1
v 0.3 0.4 -0.1
v 0.3 0.4 -0.2
v 0.3 0.5 0.1
v 0.3 0.5 -0.1
v 0.3 0.7 0.1
v 0.3 0.7 -0.1
v 0.3 0.8 0.2
v 0.3 0.8 0
v 0.3 0.8 -0.2
v 0.3 0.8 -0.3
v 0.3 0.9 -0.2
v 0.3 0.9 -0.3
v 0.4 0.8 0.3
v 0.4 0.8 0
v 0.4 0.8 -0.2
v 0.4 0.9 0.3
v 0.4 0.9 0
v 0.4 0.9 -0.2
v 0.4 1.6 0.3
v 0.4 1.6 -0.2
v 0.4 1.7 0.3
v 0.4 1.7 -0.2
v 0.5 0.3 0.1
v 0.5 0.3 -0.1
v 0.5 0.5 0.1
v 0.5 0.5 -0.1
v 0.5 0.7 0.1
v 0.5 0.7 -0.1
v 0.5 0.9 0.3
v 0.5 0.9 0
v 0.5 0.9 -0.4
v 0.5 1.3 0.3
v 0.5 1.3 0
v 0.5 1.3 -0.3
v 0.5 1.5 0.4
v 0.5 1.5 -0.3
v 0.5 1.5 -0.4
v 0.5 1.6 0.4
v 0.5 1.6 -0.3
v 0.6 1.3 0.4
v 0.6 1.3 -0.3
v 0.6 1.5 0.4
v 0.6 1.5 -0.3
v -0.6 1.3 0.4
v -0.6 1.5 0.4
v -0.5 1.5 0.4
v -0.5 1.6 0.4
v -0.4 0.4 0.4
v -0.4 0.8 0.4
v -0.4 1.3 0.4
v -0.4 1.4 0.4
v -0.3 0.4 0.4
v -0.3 0.8 0.4
v 0.1 0.1 0.4
v 0.1 0.4 0.4
v 0.3 0.1 0.4
v 0.3 0.4 0.4
v 0.4 1.3 0.4
v 0.4 1.4 0.4
v 0.5 1.5 0.4
v 0.5 1.6 0.4
v 0.6 1.3 0.4
v 0.6 1.5 0.4
v -0.5 0.5 0.3
v -0.5 0.7 0.3
v -0.5 0.9 0.3
v -0.5 1.3 0.3
v -0.4 0.5 0.3
v -0.4 0.7 0.3
v -0.4 0.8 0.3
v -0.4 0.9 0.3
v -0.4 1.3 0.3
v -0.4 1.4 0.3
v -0.4 1.6 0.3
v -0.4 1.7 0.3
v -0.3 0.8 0.3
v -0.3 1.1 0.3
v -0.3 1.3 0.3
v -0.2 1.1 0.3
v -0.2 1.3 0.3
v -0.1 0.5 0.3
v -0.1 0.8 0.3
v -0.1 0.9 0.3
v -0.1 1 0.3
v -0.1 1.1 0.3
v -0.1 1.3 0.3
v -5.96046e-08 0.5 0.3
v -5.96046e-08 0.6 0.3
v 0.1 0.6 0.3
v 0.1 0.8 0.3
v 0.1 0.9 0.3
v 0.1 1 0.3
v 0.1 1.1 0.3
v 0.1 1.3 0.3
v 0.2 1.1 0.3
v 0.2 1.3 0.3
v 0.3 1.1 0.3
v 0.3 1.3 0.3
v 0.4 0.8 0.3
v 0.4 0.9 0.3
v 0.4 1.3 0.3
v 0.4 1.4 0.3
v 0.4 1.6 0.3
v 0.4 1.7 0.3
v 0.5 0.9 0.3
v 0.5 1.3 0.3
v -0.3 0 0.2
v -0.3 0.1 0.2
v -0.3 0.3 0.2
v -0.3 0.4 0.2
v -0.3 0.8 0.2
v -0.1 0 0.2
v -0.1 0.1 0.2
v -0.1 0.3 0.2
v -0.1 0.4 0.2
v -0.1 0.5 0.2
v -0.1 0.8 0.2
v -5.96046e-08 0.5 0.2
v -5.96046e-08 0.6 0.2
v 0.1 0.3 0.2
v 0.1 0.4 0.2
v 0.1 0.6 0.2
v 0.1 0.8 0.2
v 0.3 0.3 0.2
v 0.3 0.4 0.2
v 0.3 0.8 0.2
v -0.3 0.1 0.1
v -0.3 0.2 0.1
v -0.3 0.3 0.1
v -0.1 0.1 0.1
v -0.1 0.2 0.1
v -0.1 0.3 0.1
v 0.3 0.3 0.1
v 0.3 0.4 0.1
v 0.3 0.5 0.1
v 0.3 0.7 0.1
v 0.5 0.3 0.1
v 0.5 0.5 0.1
v 0.5 0.7 0.1
v 0.1 0.3 0.3
v 0.1 0.4 0.3
v 0.3 0.3 0.3
v 0.3 0.4 0.3
v -0.4 0.4 0.1
v -0.4 0.5 0.1
v -0.4 0.7 0.1
v -0.4 0.8 0.1
v -0.3 0.4 0.1
v -0.3 0.5 0.1
v -0.3 0.7 0.1
v -0.3 0.8 0.1
v -0.5 0.5 -0.1
v -0.5 0.7 -0.1
v -0.3 0 -0.1
v -0.3 0.2 -0.1
v -0.3 0.3 -0.1
v -0.3 0.5 -0.1
v -0.3 0.7 -0.1
v -0.1 0 -0.1
v -0.1 0.2 -0.1
v -0.1 0.3 -0.1
v 0.1 0.1 -0.1
v 0.1 0.3 -0.1
v 0.3 0.1 -0.1
v 0.3 0.3 -0.1
v 0.3 0.4 -0.1
v 0.3 0.5 -0.1
v 0.3 0.7 -0.1
v 0.5 0.3 -0.1
v 0.5 0.5 -0.1
v 0.5 0.7 -0.1
v -0.4 0.8 -0.2
v -0.4 0.9 -0.2
v -0.4 1.6 -0.2
v -0.4 1.7 -0.2
v -0.3 0.3 -0.2
v -0.3 0.4 -0.2
v -0.3 0.8 -0.2
v -0.3 0.9 -0.2
v 0.3 0.3 -0.2
v 0.3 0.4 -0.2
v 0.3 0.8 -0.2
v 0.3 0.9 -0.2
v 0.4 0.8 -0.2
v 0.4 0.9 -0.2
v 0.4 1.6 -0.2
v 0.4 1.7 -0.2
v -0.6 1.3 -0.3
v -0.6 1.5 -0.3
v -0.5 1.3 -0.3
v -0.5 1.5 -0.3
v -0.5 1.6 -0.3
v -0.3 0.8 -0.3
v -0.3 0.9 -0.3
v 0.3 0.8 -0.3
v 0.3 0.9 -0.3
v 0.5 1.3 -0.3
v 0.5 1.5 -0.3
v 0.5 1.6 -0.3
v 0.6 1.3 -0.3
v 0.6 1.5 -0.3
v -0.5 0.9 -0.4
v -0.5 1.5 -0.4
v 0.5 0.9 -0.4
v 0.5 1.5 -0.4
v -0.3 0 0.2
v -0.1 0 0.2
v -0.3 0 -0.1
v -0.1 0 -0.1
v 0.1 0.1 0.4
v 0.3 0.1 0.4
v 0.1 0.1 0.2
v 0.3 0.1 0.2
v 0.1 0.1 -0.1
v 0.3 0.1 -0.1
v -0.3 0.3 0.2
v -0.1 0.3 0.2
v 0.1 0.3 0.2
v -0.3 0.3 0.1
v -0.1 0.3 0.1
v 0.1 0.3 0.1
v 0.3 0.3 0.1
v 0.5 0.3 0.1
v -0.3 0.3 -0.1
v -0.1 0.3 -0.1
v 0.1 0.3 -0.1
v 0.3 0.3 -0.1
v 0.5 0.3 -0.1
v -0.3 0.3 -0.2
v 0.3 0.3 -0.2
v -0.4 0.4 0.4
v -0.3 0.4 0.4
v -0.3 0.4 0.2
v -0.4 0.4 0.1
v -0.3 0.4 0.1
v -0.5 0.5 0.3
v -0.4 0.5 0.3
v -0.1 0.5 0.3
v -5.96046e-08 0.5 0.3
v -0.1 0.5 0.2
v -5.96046e-08 0.5 0.2
v -0.5 0.5 0.1
v -0.4 0.5 0.1
v -0.3 0.5 0.1
v -0.5 0.5 -0.1
v -0.3 0.5 -0.1
v -5.96046e-08 0.6 0.3
v 0.1 0.6 0.3
v -5.96046e-08 0.6 0.2
v 0.1 0.6 0.2
v -0.3 0.8 0.3
v -0.1 0.8 0.3
v 0.1 0.8 0.3
v 0.4 0.8 0.3
v -0.3 0.8 0.2
v -0.1 0.8 0.2
v 0.1 0.8 0.2
v 0.3 0.8 0.2
v -0.4 0.8 0.1
v -0.3 0.8 0.1
v -0.4 0.8 0
v -0.3 0.8 0
v 0.3 0.8 0
v 0.4 0.8 0
v -0.4 0.8 -0.2
v -0.3 0.8 -0.2
v 0.3 0.8 -0.2
v 0.4 0.8 -0.2
v -0.3 0.8 -0.3
v 0.3 0.8 -0.3
v -0.5 0.9 0.3
v -0.4 0.9 0.3
v 0.4 0.9 0.3
v 0.5 0.9 0.3
v -0.5 0.9 0
v -0.4 0.9 0
v 0.4 0.9 0
v 0.5 0.9 0
v -0.4 0.9 -0.2
v -0.3 0.9 -0.2
v 0.3 0.9 -0.2
v 0.4 0.9 -0.2
v -0.3 0.9 -0.3
v 0.3 0.9 -0.3
v -0.5 0.9 -0.4
v 0.5 0.9 -0.4
v -0.6 1.3 0.4
v -0.4 1.3 0.4
v 0.4 1.3 0.4
v 0.6 1.3 0.4
v -0.5 1.3 0.3
v -0.4 1.3 0.3
v 0.4 1.3 0.3
v 0.5 1.3 0.3
v -0.5 1.3 0
v 0.5 1.3 0
v -0.6 1.3 -0.3
v -0.5 1.3 -0.3
v 0.5 1.3 -0.3
v 0.6 1.3 -0.3
v -0.4 1.4 0.4
v 0.4 1.4 0.4
v -0.4 1.4 0.3
v 0.4 1.4 0.3
v -0.3 0.1 0.2
v -0.1 0.1 0.2
v -0.3 0.1 0.1
v -0.1 0.1 0.1
v 0.1 0.3 0.3
v 0.3 0.3 0.3
v 0.1 0.3 0.2
v 0.3 0.3 0.2
v 0.1 0.4 0.4
v 0.3 0.4 0.4
v 0.1 0.4 0.3
v 0.3 0.4 0.3
v -0.5 0.7 0.3
v -0.4 0.7 0.3
v -0.5 0.7 0.1
v -0.4 0.7 0.1
v -0.3 0.7 0.1
v 0.3 0.7 0.1
v 0.5 0.7 0.1
v -0.5 0.7 -0.1
v -0.3 0.7 -0.1
v 0.3 0.7 -0.1
v 0.5 0.7 -0.1
v -0.4 0.8 0.4
v -0.3 0.8 0.4
v -0.4 0.8 0.3
v -0.3 0.8 0.3
v -0.6 1.5 0.4
v -0.5 1.5 0.4
v 0.5 1.5 0.4
v 0.6 1.5 0.4
v -0.6 1.5 -0.3
v -0.5 1.5 -0.3
v 0.5 1.5 -0.3
v 0.6 1.5 -0.3
v -0.5 1.5 -0.4
v 0.5 1.5 -0.4
v -0.5 1.6 0.4
v 0.5 1.6 0.4
v -0.4 1.6 0.3
v 0.4 1.6 0.3
v -0.4 1.6 -0.2
v 0.4 1.6 -0.2
v -0.5 1.6 -0.3
v 0.5 1.6 -0.3
v -0.4 1.7 0.3
v 0.4 1.7 0.3
v -0.4 1.7 -0.2
v 0.4 1.7 -0.2

# faces
f 3/5/1 2/5/1 1/5/1
f 4/5/1 2/5/1 3/5/1
f 8/6/1 6/6/1 5/6/1
f 9/9/1 7/9/1 6/9/1
f 9/6/1 6/6/1 8/6/1
f 10/9/1 7/9/1 9/9/1
f 14/6/1 12/6/1 11/6/1
f 15/5/1 13/5/1 12/5/1
f 15/6/1 12/6/1 14/6/1
f 16/5/1 13/5/1 15/5/1
f 18/5/1 13/5/1 16/5/1
f 19/5/1 13/5/1 18/5/1
f 20/5/1 18/5/1 17/5/1
f 21/5/1 18/5/1 20/5/1
f 24/5/1 23/5/1 22/5/1
f 25/5/1 23/5/1 24/5/1
f 26/5/1 24/5/1 22/5/1
f 28/5/1 26/5/1 22/5/1
f 28/5/1 27/5/1 26/5/1
f 29/5/1 27/5/1 28/5/1
f 30/5/1 27/5/1 29/5/1
f 33/6/1 30/6/1 29/6/1
f 33/6/1 31/6/1 30/6/1
f 34/5/1 32/5/1 31/5/1
f 34/6/1 31/6/1 33/6/1
f 35/5/1 32/5/1 34/5/1
f 38/5/1 37/5/1 36/5/1
f 39/5/1 37/5/1 38/5/1
f 42/7/1 41/7/1 40/7/1
f 43/7/1 41/7/1 42/7/1
f 44/7/1 41/7/1 43/7/1
f 45/7/1 41/7/1 44/7/1
f 47/4/1 45/4/1 44/4/1
f 48/4/1 45/4/1 47/4/1
f 50/7/1 48/7/1 47/7/1
f 50/7/1 49/7/1 48/7/1
f 50/7/1 47/7/1 46/7/1
f 51/7/1 49/7/1 50/7/1
f 52/7/1 49/7/1 51/7/1
f 53/9/1 52/9/1 51/9/1
f 54/9/1 52/9/1 53/9/1
f 56/9/1 52/9/1 54/9/1
f 57/9/1 56/9/1 55/9/1
f 58/9/1 56/9/1 57/9/1
f 59/9/1 52/9/1 56/9/1
f 59/9/1 56/9/1 58/9/1
f 61/5/1 60/5/1 59/5/1
f 62/5/1 60/5/1 61/5/1
f 65/2/1 64/2/1 63/2/1
f 66/2/1 64/2/1 65/2/1
f 70/7/1 68/7/1 67/7/1
f 71/4/1 69/4/1 68/4/1
f 71/7/1 68/7/1 70/7/1
f 72/4/1 69/4/1 71/4/1
f 73/4/1 69/4/1 72/4/1
f 74/7/1 70/7/1 67/7/1
f 75/7/1 70/7/1 74/7/1
f 78/5/1 77/5/1 76/5/1
f 79/5/1 77/5/1 78/5/1
f 80/5/2 81/5/2 82/5/2
f 82/5/2 81/5/2 83/5/2
f 84/5/2 85/5/2 86/5/2
f 86/5/2 85/5/2 87/5/2
f 87/5/2 85/5/2 88/5/2
f 89/7/2 90/7/2 91/7/2
f 91/7/2 90/7/2 92/7/2
f 92/7/2 90/7/2 93/7/2
f 93/7/2 90/7/2 94/7/2
f 93/4/2 94/4/2 95/4/2
f 95/4/2 94/4/2 96/4/2
f 97/2/2 98/2/2 99/2/2
f 99/2/2 98/2/2 100/2/2
f 101/2/2 102/2/2 103/2/2
f 103/2/2 102/2/2 104/2/2
f 105/7/2 106/7/2 108/7/2
f 106/4/2 107/4/2 109/4/2
f 108/7/2 106/7/2 109/7/2
f 109/4/2 107/4/2 110/4/2
f 110/4/2 107/4/2 111/4/2
f 105/7/2 108/7/2 113/7/2
f 113/7/2 108/7/2 114/7/2
f 109/7/2 110/7/2 115/7/2
f 115/7/2 110/7/2 116/7/2
f 111/7/2 112/7/2 117/7/2
f 117/7/2 112/7/2 118/7/2
f 115/9/2 116/9/2 119/9/2
f 117/9/2 118/9/2 120/9/2
f 115/9/2 119/9/2 121/9/2
f 120/9/2 118/9/2 122/9/2
f 115/9/2 121/9/2 123/9/2
f 121/9/2 122/9/2 123/9/2
f 123/9/2 122/9/2 124/9/2
f 122/9/2 118/9/2 125/9/2
f 124/9/2 122/9/2 125/9/2
f 125/5/2 126/5/2 127/5/2
f 127/5/2 126/5/2 128/5/2
f 129/6/2 130/6/2 132/6/2
f 130/5/2 131/5/2 133/5/2
f 132/6/2 130/6/2 133/6/2
f 133/5/2 131/5/2 134/5/2
f 135/5/2 136/5/2 137/5/2
f 137/5/2 136/5/2 138/5/2
f 139/6/2 140/6/2 141/6/2
f 141/6/2 140/6/2 142/6/2
f 141/9/2 142/9/2 143/9/2
f 143/9/2 142/9/2 144/9/2
f 145/6/2 146/6/2 148/6/2
f 146/5/2 147/5/2 149/5/2
f 148/6/2 146/6/2 149/6/2
f 149/5/2 147/5/2 150/5/2
f 150/5/2 147/5/2 152/5/2
f 152/5/2 147/5/2 153/5/2
f 151/5/2 152/5/2 154/5/2
f 154/5/2 152/5/2 155/5/2
f 156/5/2 157/5/2 158/5/2
f 158/5/2 157/5/2 159/5/2
f 162/5/3 161/5/3 160/5/3
f 166/5/3 162/5/3 160/5/3
f 166/5/3 163/5/3 162/5/3
f 167/5/3 163/5/3 166/5/3
f 168/5/3 165/5/3 164/5/3
f 169/5/3 165/5/3 168/5/3
f 172/7/3 171/7/3 170/7/3
f 173/7/3 171/7/3 172/7/3
f 175/5/3 163/5/3 167/5/3
f 176/5/3 163/5/3 175/5/3
f 176/5/3 175/5/3 174/5/3
f 177/5/3 163/5/3 176/5/3
f 178/5/3 176/5/3 174/5/3
f 179/5/3 176/5/3 178/5/3
f 184/6/3 181/6/3 180/6/3
f 185/6/3 181/6/3 184/6/3
f 187/6/3 183/6/3 182/6/3
f 188/6/3 183/6/3 187/6/3
f 192/6/3 187/6/3 186/6/3
f 192/6/3 189/6/3 188/6/3
f 192/6/3 188/6/3 187/6/3
f 193/6/3 189/6/3 192/6/3
f 194/6/3 189/6/3 193/6/3
f 195/6/3 193/6/3 192/6/3
f 195/10/3 194/10/3 193/10/3
f 196/6/3 189/6/3 194/6/3
f 196/10/3 194/10/3 195/10/3
f 198/6/3 195/6/3 192/6/3
f 199/6/3 195/6/3 198/6/3
f 200/6/3 195/6/3 199/6/3
f 201/11/3 196/11/3 195/11/3
f 201/6/3 195/6/3 200/6/3
f 202/6/3 189/6/3 196/6/3
f 202/11/3 196/11/3 201/11/3
f 203/2/3 198/2/3 197/2/3
f 204/2/3 198/2/3 203/2/3
f 205/2/3 198/2/3 204/2/3
f 206/6/3 199/6/3 198/6/3
f 206/2/3 198/2/3 205/2/3
f 207/1/3 200/1/3 199/1/3
f 207/6/3 199/6/3 206/6/3
f 208/6/3 201/6/3 200/6/3
f 208/1/3 200/1/3 207/1/3
f 208/6/3 202/6/3 201/6/3
f 209/6/3 202/6/3 208/6/3
f 210/6/3 189/6/3 202/6/3
f 210/6/3 202/6/3 209/6/3
f 211/6/3 207/6/3 206/6/3
f 211/11/3 210/11/3 209/11/3
f 211/6/3 208/6/3 207/6/3
f 211/6/3 209/6/3 208/6/3
f 212/6/3 189/6/3 210/6/3
f 212/11/3 210/11/3 211/11/3
f 213/6/3 211/6/3 206/6/3
f 213/10/3 212/10/3 211/10/3
f 214/6/3 189/6/3 212/6/3
f 214/10/3 212/10/3 213/10/3
f 215/6/3 213/6/3 206/6/3
f 215/6/3 214/6/3 213/6/3
f 216/6/3 214/6/3 215/6/3
f 217/6/3 189/6/3 214/6/3
f 217/6/3 214/6/3 216/6/3
f 218/6/3 189/6/3 217/6/3
f 219/5/3 191/5/3 190/5/3
f 220/5/3 191/5/3 219/5/3
f 221/6/3 217/6/3 216/6/3
f 222/6/3 217/6/3 221/6/3
f 228/7/3 224/7/3 223/7/3
f 229/7/3 224/7/3 228/7/3
f 230/7/3 226/7/3 225/7/3
f 231/9/3 227/9/3 226/9/3
f 231/7/3 226/7/3 230/7/3
f 232/9/3 227/9/3 231/9/3
f 233/9/3 227/9/3 232/9/3
f 234/9/3 232/9/3 231/9/3
f 236/8/3 231/8/3 230/8/3
f 237/9/3 235/9/3 234/9/3
f 237/8/3 231/8/3 236/8/3
f 237/9/3 234/9/3 231/9/3
f 238/9/3 235/9/3 237/9/3
f 240/7/3 237/7/3 236/7/3
f 241/9/3 239/9/3 238/9/3
f 241/7/3 237/7/3 240/7/3
f 241/9/3 238/9/3 237/9/3
f 242/9/3 239/9/3 241/9/3
f 246/7/3 244/7/3 243/7/3
f 247/4/3 245/4/3 244/4/3
f 247/7/3 244/7/3 246/7/3
f 248/4/3 245/4/3 247/4/3
f 253/6/3 250/6/3 249/6/3
f 253/6/3 251/6/3 250/6/3
f 254/9/3 252/9/3 251/9/3
f 254/6/3 251/6/3 253/6/3
f 255/9/3 252/9/3 254/9/3
f 256/7/4 257/7/4 258/7/4
f 258/7/4 257/7/4 259/7/4
f 260/5/4 261/5/4 264/5/4
f 264/5/4 261/5/4 265/5/4
f 262/5/4 263/5/4 266/5/4
f 266/5/4 263/5/4 267/5/4
f 268/9/4 269/9/4 273/9/4
f 273/9/4 269/9/4 274/9/4
f 270/7/4 271/7/4 275/7/4
f 271/4/4 272/4/4 276/4/4
f 275/7/4 271/7/4 276/7/4
f 276/4/4 272/4/4 277/4/4
f 278/4/4 279/4/4 280/4/4
f 280/4/4 279/4/4 281/4/4
f 281/6/4 282/6/4 285/6/4
f 282/6/4 283/6/4 285/6/4
f 283/9/4 284/9/4 286/9/4
f 285/6/4 283/6/4 286/6/4
f 286/9/4 284/9/4 287/9/4
f 288/5/4 289/5/4 294/5/4
f 294/5/4 289/5/4 295/5/4
f 292/7/4 293/7/4 296/7/4
f 293/9/4 294/9/4 297/9/4
f 296/7/4 293/7/4 297/7/4
f 297/9/4 294/9/4 298/9/4
f 298/5/4 299/5/4 300/5/4
f 300/5/4 299/5/4 301/5/4
f 290/5/4 291/5/4 302/5/4
f 302/5/4 291/5/4 303/5/4
f 304/5/4 305/5/4 306/5/4
f 306/5/4 305/5/4 307/5/4
f 309/5/4 310/5/4 311/5/4
f 311/5/4 310/5/4 312/5/4
f 307/5/4 308/5/4 314/5/4
f 314/5/4 308/5/4 315/5/4
f 313/5/4 314/5/4 316/5/4
f 316/5/4 314/5/4 317/5/4
f 318/5/4 319/5/4 320/5/4
f 320/5/4 319/5/4 321/5/4
f 324/7/5 323/7/5 322/7/5
f 325/7/5 323/7/5 324/7/5
f 328/7/5 327/7/5 326/7/5
f 329/7/5 327/7/5 328/7/5
f 330/4/5 329/4/5 328/4/5
f 331/4/5 329/4/5 330/4/5
f 335/7/5 333/7/5 332/7/5
f 336/8/5 334/8/5 333/8/5
f 336/7/5 333/7/5 335/7/5
f 337/8/5 334/8/5 336/8/5
f 341/4/5 337/4/5 336/4/5
f 342/4/5 337/4/5 341/4/5
f 343/6/5 339/6/5 338/6/5
f 344/6/5 339/6/5 343/6/5
f 345/7/5 342/7/5 341/7/5
f 345/7/5 341/7/5 340/7/5
f 345/7/5 343/7/5 342/7/5
f 346/7/5 343/7/5 345/7/5
f 349/5/5 348/5/5 347/5/5
f 350/5/5 349/5/5 347/5/5
f 351/5/5 349/5/5 350/5/5
f 356/2/5 355/2/5 354/2/5
f 357/2/5 355/2/5 356/2/5
f 358/6/5 353/6/5 352/6/5
f 359/6/5 353/6/5 358/6/5
f 361/9/5 359/9/5 358/9/5
f 361/9/5 360/9/5 359/9/5
f 362/9/5 360/9/5 361/9/5
f 365/2/5 364/2/5 363/2/5
f 366/2/5 364/2/5 365/2/5
f 371/6/5 368/6/5 367/6/5
f 372/6/5 368/6/5 371/6/5
f 373/6/5 370/6/5 369/6/5
f 374/6/5 370/6/5 373/6/5
f 377/6/5 376/6/5 375/6/5
f 378/6/5 376/6/5 377/6/5
f 379/6/5 370/6/5 374/6/5
f 380/6/5 370/6/5 379/6/5
f 381/5/5 378/5/5 377/5/5
f 382/5/5 378/5/5 381/5/5
f 383/5/5 380/5/5 379/5/5
f 384/5/5 380/5/5 383/5/5
f 385/5/5 383/5/5 382/5/5
f 386/5/5 383/5/5 385/5/5
f 391/6/5 388/6/5 387/6/5
f 392/6/5 388/6/5 391/6/5
f 393/6/5 390/6/5 389/6/5
f 394/6/5 390/6/5 393/6/5
f 395/5/5 392/5/5 391/5/5
f 398/5/5 394/5/5 393/5/5
f 399/5/5 396/5/5 395/5/5
f 400/5/5 398/5/5 397/5/5
f 401/5/5 399/5/5 395/5/5
f 401/5/5 400/5/5 399/5/5
f 401/5/5 395/5/5 391/5/5
f 402/5/5 398/5/5 400/5/5
f 402/5/5 400/5/5 401/5/5
f 402/5/5 394/5/5 398/5/5
f 407/5/5 404/5/5 403/5/5
f 408/5/5 404/5/5 407/5/5
f 409/5/5 406/5/5 405/5/5
f 410/5/5 406/5/5 409/5/5
f 411/5/5 407/5/5 403/5/5
f 412/5/5 406/5/5 410/5/5
f 413/5/5 411/5/5 403/5/5
f 414/5/5 411/5/5 413/5/5
f 415/5/5 406/5/5 412/5/5
f 416/5/5 406/5/5 415/5/5
f 419/5/5 418/5/5 417/5/5
f 420/5/5 418/5/5 419/5/5
f 421/7/6 422/7/6 423/7/6
f 423/7/6 422/7/6 424/7/6
f 425/7/6 426/7/6 427/7/6
f 427/7/6 426/7/6 428/7/6
f 429/7/6 430/7/6 431/7/6
f 431/7/6 430/7/6 432/7/6
f 433/6/6 434/6/6 435/6/6
f 435/6/6 434/6/6 436/6/6
f 435/9/6 436/9/6 440/9/6
f 436/9/6 437/9/6 440/9/6
f 440/9/6 437/9/6 441/9/6
f 438/9/6 439/9/6 442/9/6
f 442/9/6 439/9/6 443/9/6
f 444/5/6 445/5/6 446/5/6
f 446/5/6 445/5/6 447/5/6
f 448/5/6 449/5/6 452/5/6
f 452/5/6 449/5/6 453/5/6
f 450/5/6 451/5/6 454/5/6
f 454/5/6 451/5/6 455/5/6
f 453/5/6 454/5/6 456/5/6
f 456/5/6 454/5/6 457/5/6
f 458/5/6 459/5/6 460/5/6
f 460/5/6 459/5/6 461/5/6
f 458/5/6 460/5/6 462/5/6
f 461/5/6 459/5/6 463/5/6
f 458/5/6 462/5/6 464/5/6
f 462/5/6 463/5/6 464/5/6
f 463/5/6 459/5/6 465/5/6
f 464/5/6 463/5/6 465/5/6
f 466/5/6 467/5/6 468/5/6
f 468/5/6 467/5/6 469/5/6
