# MagicaVoxel @ Ephtracy

# group
o 

# material
mtllib Babyboo_Door.vox.mtl
usemtl palette

# normals
vn -1 0 0
vn 1 0 0
vn 0 0 1
vn 0 0 -1
vn 0 -1 0
vn 0 1 0

# texcoords
vt 0.748047 0.5
vt 0.923828 0.5
vt 0.994141 0.5

# verts
v -0.8 0 0.7
v -0.8 0 0.5
v -0.8 3.2 0.7
v -0.8 3.2 0.5
v 0.3 1.3 0.8
v 0.3 1.3 0.7
v 0.3 1.5 0.8
v 0.3 1.5 0.7
v 0.4 1.2 0.8
v 0.4 1.2 0.7
v 0.4 1.3 0.8
v 0.4 1.3 0.7
v 0.4 1.5 0.8
v 0.4 1.5 0.7
v 0.4 1.6 0.8
v 0.4 1.6 0.7
v 0.6 1.2 0.8
v 0.6 1.2 0.7
v 0.6 1.3 0.8
v 0.6 1.3 0.7
v 0.6 1.5 0.8
v 0.6 1.5 0.7
v 0.6 1.6 0.8
v 0.6 1.6 0.7
v 0.7 1.3 0.8
v 0.7 1.3 0.7
v 0.7 1.5 0.8
v 0.7 1.5 0.7
v 0.8 0 0.7
v 0.8 0 0.5
v 0.8 3.2 0.7
v 0.8 3.2 0.5
v 0.3 1.3 0.8
v 0.3 1.5 0.8
v 0.4 1.2 0.8
v 0.4 1.3 0.8
v 0.4 1.5 0.8
v 0.4 1.6 0.8
v 0.6 1.2 0.8
v 0.6 1.3 0.8
v 0.6 1.5 0.8
v 0.6 1.6 0.8
v 0.7 1.3 0.8
v 0.7 1.5 0.8
v -0.8 0 0.7
v -0.8 3.2 0.7
v -0.7 0 0.7
v -0.7 3.2 0.7
v 0.3 1.3 0.7
v 0.3 1.5 0.7
v 0.4 1.2 0.7
v 0.4 1.3 0.7
v 0.4 1.5 0.7
v 0.4 1.6 0.7
v 0.6 1.2 0.7
v 0.6 1.3 0.7
v 0.6 1.5 0.7
v 0.6 1.6 0.7
v 0.7 1.3 0.7
v 0.7 1.5 0.7
v 0.8 0 0.7
v 0.8 3.2 0.7
v -0.8 0 0.5
v -0.8 3.2 0.5
v -0.7 0 0.5
v -0.7 3.2 0.5
v 0.8 0 0.5
v 0.8 3.2 0.5
v -0.8 0 0.7
v -0.7 0 0.7
v 0.8 0 0.7
v -0.8 0 0.5
v -0.7 0 0.5
v 0.8 0 0.5
v 0.4 1.2 0.8
v 0.6 1.2 0.8
v 0.4 1.2 0.7
v 0.6 1.2 0.7
v 0.3 1.3 0.8
v 0.4 1.3 0.8
v 0.6 1.3 0.8
v 0.7 1.3 0.8
v 0.3 1.3 0.7
v 0.4 1.3 0.7
v 0.6 1.3 0.7
v 0.7 1.3 0.7
v 0.3 1.5 0.8
v 0.4 1.5 0.8
v 0.6 1.5 0.8
v 0.7 1.5 0.8
v 0.3 1.5 0.7
v 0.4 1.5 0.7
v 0.6 1.5 0.7
v 0.7 1.5 0.7
v 0.4 1.6 0.8
v 0.6 1.6 0.8
v 0.4 1.6 0.7
v 0.6 1.6 0.7
v -0.8 3.2 0.7
v -0.7 3.2 0.7
v 0.8 3.2 0.7
v -0.8 3.2 0.5
v -0.7 3.2 0.5
v 0.8 3.2 0.5

# faces
f 3/3/1 2/3/1 1/3/1
f 4/3/1 2/3/1 3/3/1
f 7/2/1 6/2/1 5/2/1
f 8/2/1 6/2/1 7/2/1
f 11/2/1 10/2/1 9/2/1
f 12/2/1 10/2/1 11/2/1
f 15/2/1 14/2/1 13/2/1
f 16/2/1 14/2/1 15/2/1
f 17/2/2 18/2/2 19/2/2
f 19/2/2 18/2/2 20/2/2
f 21/2/2 22/2/2 23/2/2
f 23/2/2 22/2/2 24/2/2
f 25/2/2 26/2/2 27/2/2
f 27/2/2 26/2/2 28/2/2
f 29/1/2 30/1/2 31/1/2
f 31/1/2 30/1/2 32/1/2
f 36/2/3 34/2/3 33/2/3
f 37/2/3 34/2/3 36/2/3
f 39/2/3 36/2/3 35/2/3
f 39/2/3 38/2/3 37/2/3
f 39/2/3 37/2/3 36/2/3
f 40/2/3 38/2/3 39/2/3
f 41/2/3 38/2/3 40/2/3
f 42/2/3 38/2/3 41/2/3
f 43/2/3 41/2/3 40/2/3
f 44/2/3 41/2/3 43/2/3
f 47/3/3 46/3/3 45/3/3
f 48/3/3 46/3/3 47/3/3
f 49/1/3 48/1/3 47/1/3
f 50/1/3 48/1/3 49/1/3
f 51/1/3 49/1/3 47/1/3
f 52/1/3 49/1/3 51/1/3
f 53/1/3 48/1/3 50/1/3
f 54/1/3 48/1/3 53/1/3
f 55/1/3 51/1/3 47/1/3
f 58/1/3 48/1/3 54/1/3
f 59/1/3 56/1/3 55/1/3
f 60/1/3 58/1/3 57/1/3
f 61/1/3 59/1/3 55/1/3
f 61/1/3 60/1/3 59/1/3
f 61/1/3 55/1/3 47/1/3
f 62/1/3 58/1/3 60/1/3
f 62/1/3 60/1/3 61/1/3
f 62/1/3 48/1/3 58/1/3
f 63/3/4 64/3/4 65/3/4
f 65/3/4 64/3/4 66/3/4
f 65/1/4 66/1/4 67/1/4
f 67/1/4 66/1/4 68/1/4
f 72/3/5 70/3/5 69/3/5
f 73/1/5 71/1/5 70/1/5
f 73/3/5 70/3/5 72/3/5
f 74/1/5 71/1/5 73/1/5
f 77/2/5 76/2/5 75/2/5
f 78/2/5 76/2/5 77/2/5
f 83/2/5 80/2/5 79/2/5
f 84/2/5 80/2/5 83/2/5
f 85/2/5 82/2/5 81/2/5
f 86/2/5 82/2/5 85/2/5
f 87/2/6 88/2/6 91/2/6
f 91/2/6 88/2/6 92/2/6
f 89/2/6 90/2/6 93/2/6
f 93/2/6 90/2/6 94/2/6
f 95/2/6 96/2/6 97/2/6
f 97/2/6 96/2/6 98/2/6
f 99/3/6 100/3/6 102/3/6
f 100/1/6 101/1/6 103/1/6
f 102/3/6 100/3/6 103/3/6
f 103/1/6 101/1/6 104/1/6
