# MagicaVoxel @ Ephtracy

# group
o 

# material
mtllib Blue_Seat.vox.mtl
usemtl palette

# normals
vn -1 0 0
vn 1 0 0
vn 0 0 1
vn 0 0 -1
vn 0 -1 0
vn 0 1 0

# texcoords
vt 0.775391 0.5
vt 0.978516 0.5

# verts
v -0.7 0.5 0
v -0.7 0.5 -0.4
v -0.7 0.6 0
v -0.7 0.6 -0.1
v -0.7 0.7 -0.1
v -0.7 0.7 -0.2
v -0.7 0.8 -0.2
v -0.7 0.8 -0.3
v -0.7 0.9 -0.3
v -0.7 0.9 -0.4
v -0.6 0.5 0.3
v -0.6 0.5 0
v -0.6 0.6 0
v -0.6 0.6 -0.1
v -0.6 0.6 -0.4
v -0.6 0.6 -0.5
v -0.6 0.7 0.3
v -0.6 0.7 -0.1
v -0.6 0.9 -0.4
v -0.6 1.1 -0.4
v -0.6 1.1 -0.5
v -0.5 0 0.6
v -0.5 0 0.5
v -0.5 0 -0.5
v -0.5 0 -0.6
v -0.5 0.2 0.6
v -0.5 0.2 0.5
v -0.5 0.2 0.4
v -0.5 0.2 -0.4
v -0.5 0.2 -0.5
v -0.5 0.2 -0.6
v -0.5 0.4 0.5
v -0.5 0.4 0.4
v -0.5 0.4 0.3
v -0.5 0.4 -0.3
v -0.5 0.4 -0.4
v -0.5 0.4 -0.5
v -0.5 0.5 0.4
v -0.5 0.5 0.3
v -0.5 0.5 -0.3
v -0.5 0.5 -0.4
v -0.5 0.7 0.4
v -0.5 0.7 0.3
v -0.5 0.7 -0.5
v -0.5 0.7 -0.6
v -0.5 1.1 -0.5
v -0.5 1.2 -0.5
v -0.5 1.2 -0.6
v -0.4 0.6 0.5
v -0.4 0.6 0.4
v -0.4 0.7 0.5
v -0.4 0.7 0.4
v -0.4 1.2 -0.5
v -0.4 1.2 -0.6
v -0.4 1.4 -0.5
v -0.4 1.4 -0.6
v -0.3 1.4 -0.5
v -0.3 1.4 -0.6
v -0.3 1.5 -0.5
v -0.3 1.5 -0.6
v -0.2 0.5 0.4
v -0.2 0.5 0.3
v -0.2 0.6 0.6
v -0.2 0.6 0.5
v -0.2 0.6 0.4
v -0.2 0.6 0.3
v -0.2 0.7 0.6
v -0.2 0.7 0.5
v -0.2 1.5 -0.5
v -0.2 1.5 -0.6
v -0.2 1.6 -0.5
v -0.2 1.6 -0.6
v 0.3 0.5 -0.3
v 0.3 0.5 -0.4
v 0.3 0.6 -0.3
v 0.3 0.6 -0.4
v 0.4 0 0.6
v 0.4 0 0.5
v 0.4 0 -0.5
v 0.4 0 -0.6
v 0.4 0.2 0.6
v 0.4 0.2 0.5
v 0.4 0.2 0.4
v 0.4 0.2 -0.4
v 0.4 0.2 -0.5
v 0.4 0.2 -0.6
v 0.4 0.4 0.5
v 0.4 0.4 0.4
v 0.4 0.4 0.3
v 0.4 0.4 -0.3
v 0.4 0.4 -0.4
v 0.4 0.4 -0.5
v 0.4 0.5 0.4
v 0.4 0.5 0.3
v 0.4 0.5 0.1
v 0.4 0.5 -0.1
v 0.4 0.5 -0.3
v 0.4 0.5 -0.4
v 0.4 0.6 0.4
v 0.4 0.6 0.3
v 0.4 0.6 0.1
v 0.4 0.6 -0.1
v 0.5 0.7 -0.4
v 0.5 0.7 -0.5
v 0.5 1.1 -0.4
v 0.5 1.1 -0.5
v 0.6 0.7 -0.2
v 0.6 0.7 -0.4
v 0.6 0.8 -0.2
v 0.6 0.8 -0.3
v 0.6 0.9 -0.3
v 0.6 0.9 -0.4
v -0.6 0.7 -0.2
v -0.6 0.7 -0.4
v -0.6 0.8 -0.2
v -0.6 0.8 -0.3
v -0.6 0.9 -0.3
v -0.6 0.9 -0.4
v -0.5 0.7 -0.4
v -0.5 0.7 -0.5
v -0.5 1.1 -0.4
v -0.5 1.1 -0.5
v -0.4 0 0.6
v -0.4 0 0.5
v -0.4 0 -0.5
v -0.4 0 -0.6
v -0.4 0.2 0.6
v -0.4 0.2 0.5
v -0.4 0.2 0.4
v -0.4 0.2 -0.4
v -0.4 0.2 -0.5
v -0.4 0.2 -0.6
v -0.4 0.4 0.5
v -0.4 0.4 0.4
v -0.4 0.4 0.3
v -0.4 0.4 -0.3
v -0.4 0.4 -0.4
v -0.4 0.4 -0.5
v -0.4 0.5 0.4
v -0.4 0.5 0.3
v -0.4 0.5 0.1
v -0.4 0.5 -0.1
v -0.4 0.5 -0.3
v -0.4 0.5 -0.4
v -0.4 0.6 0.4
v -0.4 0.6 0.3
v -0.4 0.6 0.1
v -0.4 0.6 -0.1
v -0.3 0.5 -0.3
v -0.3 0.5 -0.4
v -0.3 0.6 -0.3
v -0.3 0.6 -0.4
v 0.2 0.5 0.4
v 0.2 0.5 0.3
v 0.2 0.6 0.6
v 0.2 0.6 0.5
v 0.2 0.6 0.4
v 0.2 0.6 0.3
v 0.2 0.7 0.6
v 0.2 0.7 0.5
v 0.2 1.5 -0.5
v 0.2 1.5 -0.6
v 0.2 1.6 -0.5
v 0.2 1.6 -0.6
v 0.3 1.4 -0.5
v 0.3 1.4 -0.6
v 0.3 1.5 -0.5
v 0.3 1.5 -0.6
v 0.4 0.6 0.5
v 0.4 0.6 0.4
v 0.4 0.7 0.5
v 0.4 0.7 0.4
v 0.4 1.2 -0.5
v 0.4 1.2 -0.6
v 0.4 1.4 -0.5
v 0.4 1.4 -0.6
v 0.5 0 0.6
v 0.5 0 0.5
v 0.5 0 -0.5
v 0.5 0 -0.6
v 0.5 0.2 0.6
v 0.5 0.2 0.5
v 0.5 0.2 0.4
v 0.5 0.2 -0.4
v 0.5 0.2 -0.5
v 0.5 0.2 -0.6
v 0.5 0.4 0.5
v 0.5 0.4 0.4
v 0.5 0.4 0.3
v 0.5 0.4 -0.3
v 0.5 0.4 -0.4
v 0.5 0.4 -0.5
v 0.5 0.5 0.4
v 0.5 0.5 0.3
v 0.5 0.5 -0.3
v 0.5 0.5 -0.4
v 0.5 0.7 0.4
v 0.5 0.7 0.3
v 0.5 0.7 -0.5
v 0.5 0.7 -0.6
v 0.5 1.1 -0.5
v 0.5 1.2 -0.5
v 0.5 1.2 -0.6
v 0.6 0.5 0.3
v 0.6 0.5 0
v 0.6 0.6 0
v 0.6 0.6 -0.1
v 0.6 0.6 -0.4
v 0.6 0.6 -0.5
v 0.6 0.7 0.3
v 0.6 0.7 -0.1
v 0.6 0.9 -0.4
v 0.6 1.1 -0.4
v 0.6 1.1 -0.5
v 0.7 0.5 0
v 0.7 0.5 -0.4
v 0.7 0.6 0
v 0.7 0.6 -0.1
v 0.7 0.7 -0.1
v 0.7 0.7 -0.2
v 0.7 0.8 -0.2
v 0.7 0.8 -0.3
v 0.7 0.9 -0.3
v 0.7 0.9 -0.4
v -0.5 0 0.6
v -0.5 0.2 0.6
v -0.4 0 0.6
v -0.4 0.2 0.6
v -0.2 0.6 0.6
v -0.2 0.7 0.6
v 0.2 0.6 0.6
v 0.2 0.7 0.6
v 0.4 0 0.6
v 0.4 0.2 0.6
v 0.5 0 0.6
v 0.5 0.2 0.6
v -0.5 0.2 0.5
v -0.5 0.4 0.5
v -0.4 0.2 0.5
v -0.4 0.4 0.5
v -0.4 0.6 0.5
v -0.4 0.7 0.5
v -0.2 0.6 0.5
v -0.2 0.7 0.5
v 0.2 0.6 0.5
v 0.2 0.7 0.5
v 0.4 0.2 0.5
v 0.4 0.4 0.5
v 0.4 0.6 0.5
v 0.4 0.7 0.5
v 0.5 0.2 0.5
v 0.5 0.4 0.5
v -0.5 0.4 0.4
v -0.5 0.5 0.4
v -0.5 0.7 0.4
v -0.4 0.4 0.4
v -0.4 0.5 0.4
v -0.4 0.6 0.4
v -0.4 0.7 0.4
v -0.2 0.5 0.4
v -0.2 0.6 0.4
v 0.2 0.5 0.4
v 0.2 0.6 0.4
v 0.4 0.4 0.4
v 0.4 0.5 0.4
v 0.4 0.6 0.4
v 0.4 0.7 0.4
v 0.5 0.4 0.4
v 0.5 0.5 0.4
v 0.5 0.7 0.4
v -0.6 0.5 0.3
v -0.6 0.7 0.3
v -0.5 0.5 0.3
v -0.5 0.7 0.3
v -0.4 0.5 0.3
v -0.4 0.6 0.3
v -0.2 0.5 0.3
v -0.2 0.6 0.3
v 0.2 0.5 0.3
v 0.2 0.6 0.3
v 0.4 0.5 0.3
v 0.4 0.6 0.3
v 0.5 0.5 0.3
v 0.5 0.7 0.3
v 0.6 0.5 0.3
v 0.6 0.7 0.3
v -0.7 0.5 0
v -0.7 0.6 0
v -0.6 0.5 0
v -0.6 0.6 0
v 0.6 0.5 0
v 0.6 0.6 0
v 0.7 0.5 0
v 0.7 0.6 0
v -0.7 0.6 -0.1
v -0.7 0.7 -0.1
v -0.6 0.6 -0.1
v -0.6 0.7 -0.1
v -0.4 0.5 -0.1
v -0.4 0.6 -0.1
v 0.4 0.5 -0.1
v 0.4 0.6 -0.1
v 0.6 0.6 -0.1
v 0.6 0.7 -0.1
v 0.7 0.6 -0.1
v 0.7 0.7 -0.1
v -0.7 0.7 -0.2
v -0.7 0.8 -0.2
v -0.6 0.7 -0.2
v -0.6 0.8 -0.2
v 0.6 0.7 -0.2
v 0.6 0.8 -0.2
v 0.7 0.7 -0.2
v 0.7 0.8 -0.2
v -0.7 0.8 -0.3
v -0.7 0.9 -0.3
v -0.6 0.8 -0.3
v -0.6 0.9 -0.3
v -0.5 0.4 -0.3
v -0.5 0.5 -0.3
v -0.4 0.4 -0.3
v -0.4 0.5 -0.3
v 0.4 0.4 -0.3
v 0.4 0.5 -0.3
v 0.5 0.4 -0.3
v 0.5 0.5 -0.3
v 0.6 0.8 -0.3
v 0.6 0.9 -0.3
v 0.7 0.8 -0.3
v 0.7 0.9 -0.3
v -0.6 0.7 -0.4
v -0.6 0.9 -0.4
v -0.6 1.1 -0.4
v -0.5 0.2 -0.4
v -0.5 0.4 -0.4
v -0.5 0.7 -0.4
v -0.5 1.1 -0.4
v -0.4 0.2 -0.4
v -0.4 0.4 -0.4
v 0.4 0.2 -0.4
v 0.4 0.4 -0.4
v 0.5 0.2 -0.4
v 0.5 0.4 -0.4
v 0.5 0.7 -0.4
v 0.5 1.1 -0.4
v 0.6 0.7 -0.4
v 0.6 0.9 -0.4
v 0.6 1.1 -0.4
v -0.5 0 -0.5
v -0.5 0.2 -0.5
v -0.5 0.7 -0.5
v -0.5 1.1 -0.5
v -0.5 1.2 -0.5
v -0.4 0 -0.5
v -0.4 0.2 -0.5
v -0.4 1.2 -0.5
v -0.4 1.4 -0.5
v -0.3 1.4 -0.5
v -0.3 1.5 -0.5
v -0.2 1.5 -0.5
v -0.2 1.6 -0.5
v 0.2 1.5 -0.5
v 0.2 1.6 -0.5
v 0.3 1.4 -0.5
v 0.3 1.5 -0.5
v 0.4 0 -0.5
v 0.4 0.2 -0.5
v 0.4 1.2 -0.5
v 0.4 1.4 -0.5
v 0.5 0 -0.5
v 0.5 0.2 -0.5
v 0.5 0.7 -0.5
v 0.5 1.1 -0.5
v 0.5 1.2 -0.5
v -0.5 0 0.5
v -0.5 0.2 0.5
v -0.4 0 0.5
v -0.4 0.2 0.5
v 0.4 0 0.5
v 0.4 0.2 0.5
v 0.5 0 0.5
v 0.5 0.2 0.5
v -0.5 0.2 0.4
v -0.5 0.4 0.4
v -0.4 0.2 0.4
v -0.4 0.4 0.4
v 0.4 0.2 0.4
v 0.4 0.4 0.4
v 0.5 0.2 0.4
v 0.5 0.4 0.4
v -0.5 0.4 0.3
v -0.5 0.5 0.3
v -0.4 0.4 0.3
v -0.4 0.5 0.3
v 0.4 0.4 0.3
v 0.4 0.5 0.3
v 0.5 0.4 0.3
v 0.5 0.5 0.3
v -0.4 0.5 0.1
v -0.4 0.6 0.1
v 0.4 0.5 0.1
v 0.4 0.6 0.1
v -0.3 0.5 -0.3
v -0.3 0.6 -0.3
v 0.3 0.5 -0.3
v 0.3 0.6 -0.3
v -0.7 0.5 -0.4
v -0.7 0.9 -0.4
v -0.6 0.6 -0.4
v -0.6 0.9 -0.4
v -0.5 0.4 -0.4
v -0.5 0.5 -0.4
v -0.4 0.4 -0.4
v -0.4 0.5 -0.4
v -0.3 0.5 -0.4
v -0.3 0.6 -0.4
v 0.3 0.5 -0.4
v 0.3 0.6 -0.4
v 0.4 0.4 -0.4
v 0.4 0.5 -0.4
v 0.5 0.4 -0.4
v 0.5 0.5 -0.4
v 0.6 0.6 -0.4
v 0.6 0.9 -0.4
v 0.7 0.5 -0.4
v 0.7 0.9 -0.4
v -0.6 0.6 -0.5
v -0.6 1.1 -0.5
v -0.5 0.2 -0.5
v -0.5 0.4 -0.5
v -0.5 0.7 -0.5
v -0.5 1.1 -0.5
v -0.4 0.2 -0.5
v -0.4 0.4 -0.5
v 0.4 0.2 -0.5
v 0.4 0.4 -0.5
v 0.5 0.2 -0.5
v 0.5 0.4 -0.5
v 0.5 0.7 -0.5
v 0.5 1.1 -0.5
v 0.6 0.6 -0.5
v 0.6 1.1 -0.5
v -0.5 0 -0.6
v -0.5 0.2 -0.6
v -0.5 0.7 -0.6
v -0.5 1.2 -0.6
v -0.4 0 -0.6
v -0.4 0.2 -0.6
v -0.4 1.2 -0.6
v -0.4 1.4 -0.6
v -0.3 1.4 -0.6
v -0.3 1.5 -0.6
v -0.2 1.5 -0.6
v -0.2 1.6 -0.6
v 0.2 1.5 -0.6
v 0.2 1.6 -0.6
v 0.3 1.4 -0.6
v 0.3 1.5 -0.6
v 0.4 0 -0.6
v 0.4 0.2 -0.6
v 0.4 1.2 -0.6
v 0.4 1.4 -0.6
v 0.5 0 -0.6
v 0.5 0.2 -0.6
v 0.5 0.7 -0.6
v 0.5 1.2 -0.6
v -0.5 0 0.6
v -0.4 0 0.6
v 0.4 0 0.6
v 0.5 0 0.6
v -0.5 0 0.5
v -0.4 0 0.5
v 0.4 0 0.5
v 0.5 0 0.5
v -0.5 0 -0.5
v -0.4 0 -0.5
v 0.4 0 -0.5
v 0.5 0 -0.5
v -0.5 0 -0.6
v -0.4 0 -0.6
v 0.4 0 -0.6
v 0.5 0 -0.6
v -0.5 0.2 0.5
v -0.4 0.2 0.5
v 0.4 0.2 0.5
v 0.5 0.2 0.5
v -0.5 0.2 0.4
v -0.4 0.2 0.4
v 0.4 0.2 0.4
v 0.5 0.2 0.4
v -0.5 0.2 -0.4
v -0.4 0.2 -0.4
v 0.4 0.2 -0.4
v 0.5 0.2 -0.4
v -0.5 0.2 -0.5
v -0.4 0.2 -0.5
v 0.4 0.2 -0.5
v 0.5 0.2 -0.5
v -0.5 0.4 0.4
v -0.4 0.4 0.4
v 0.4 0.4 0.4
v 0.5 0.4 0.4
v -0.5 0.4 0.3
v -0.4 0.4 0.3
v 0.4 0.4 0.3
v 0.5 0.4 0.3
v -0.5 0.4 -0.3
v -0.4 0.4 -0.3
v 0.4 0.4 -0.3
v 0.5 0.4 -0.3
v -0.5 0.4 -0.4
v -0.4 0.4 -0.4
v 0.4 0.4 -0.4
v 0.5 0.4 -0.4
v -0.2 0.5 0.4
v 0.2 0.5 0.4
v -0.6 0.5 0.3
v -0.5 0.5 0.3
v -0.4 0.5 0.3
v -0.2 0.5 0.3
v 0.2 0.5 0.3
v 0.4 0.5 0.3
v 0.5 0.5 0.3
v 0.6 0.5 0.3
v -0.4 0.5 0.2
v 0.4 0.5 0.2
v -0.4 0.5 0.1
v 0.4 0.5 0.1
v -0.7 0.5 0
v -0.6 0.5 0
v 0.6 0.5 0
v 0.7 0.5 0
v -0.4 0.5 -0.1
v 0.4 0.5 -0.1
v -0.4 0.5 -0.2
v 0.4 0.5 -0.2
v -0.5 0.5 -0.3
v -0.4 0.5 -0.3
v -0.3 0.5 -0.3
v 0.3 0.5 -0.3
v 0.4 0.5 -0.3
v 0.5 0.5 -0.3
v -0.7 0.5 -0.4
v -0.5 0.5 -0.4
v -0.4 0.5 -0.4
v -0.3 0.5 -0.4
v 0.3 0.5 -0.4
v 0.4 0.5 -0.4
v 0.5 0.5 -0.4
v 0.7 0.5 -0.4
v -0.2 0.6 0.6
v 0.2 0.6 0.6
v -0.4 0.6 0.5
v -0.2 0.6 0.5
v 0.2 0.6 0.5
v 0.4 0.6 0.5
v -0.4 0.6 0.4
v -0.2 0.6 0.4
v 0.2 0.6 0.4
v 0.4 0.6 0.4
v -0.4 0.6 0.3
v -0.2 0.6 0.3
v 0.2 0.6 0.3
v 0.4 0.6 0.3
v -0.4 0.6 0.1
v 0.4 0.6 0.1
v -0.4 0.6 -0.1
v 0.4 0.6 -0.1
v -0.3 0.6 -0.3
v 0.3 0.6 -0.3
v -0.6 0.6 -0.4
v -0.3 0.6 -0.4
v 0.3 0.6 -0.4
v 0.6 0.6 -0.4
v -0.6 0.6 -0.5
v 0.6 0.6 -0.5
v -0.5 0.7 -0.5
v 0.5 0.7 -0.5
v -0.5 0.7 -0.6
v 0.5 0.7 -0.6
v -0.5 0.2 0.6
v -0.4 0.2 0.6
v 0.4 0.2 0.6
v 0.5 0.2 0.6
v -0.5 0.2 0.5
v -0.4 0.2 0.5
v 0.4 0.2 0.5
v 0.5 0.2 0.5
v -0.5 0.2 -0.5
v -0.4 0.2 -0.5
v 0.4 0.2 -0.5
v 0.5 0.2 -0.5
v -0.5 0.2 -0.6
v -0.4 0.2 -0.6
v 0.4 0.2 -0.6
v 0.5 0.2 -0.6
v -0.5 0.4 0.5
v -0.4 0.4 0.5
v 0.4 0.4 0.5
v 0.5 0.4 0.5
v -0.5 0.4 0.4
v -0.4 0.4 0.4
v 0.4 0.4 0.4
v 0.5 0.4 0.4
v -0.5 0.4 -0.4
v -0.4 0.4 -0.4
v 0.4 0.4 -0.4
v 0.5 0.4 -0.4
v -0.5 0.4 -0.5
v -0.4 0.4 -0.5
v 0.4 0.4 -0.5
v 0.5 0.4 -0.5
v -0.7 0.6 0
v -0.6 0.6 0
v 0.6 0.6 0
v 0.7 0.6 0
v -0.7 0.6 -0.1
v -0.6 0.6 -0.1
v 0.6 0.6 -0.1
v 0.7 0.6 -0.1
v -0.2 0.7 0.6
v 0.2 0.7 0.6
v -0.4 0.7 0.5
v -0.2 0.7 0.5
v 0.2 0.7 0.5
v 0.4 0.7 0.5
v -0.5 0.7 0.4
v -0.4 0.7 0.4
v 0.4 0.7 0.4
v 0.5 0.7 0.4
v -0.6 0.7 0.3
v -0.5 0.7 0.3
v 0.5 0.7 0.3
v 0.6 0.7 0.3
v -0.7 0.7 -0.1
v -0.6 0.7 -0.1
v 0.6 0.7 -0.1
v 0.7 0.7 -0.1
v -0.7 0.7 -0.2
v -0.6 0.7 -0.2
v 0.6 0.7 -0.2
v 0.7 0.7 -0.2
v -0.6 0.7 -0.4
v -0.5 0.7 -0.4
v 0.5 0.7 -0.4
v 0.6 0.7 -0.4
v -0.5 0.7 -0.5
v 0.5 0.7 -0.5
v -0.7 0.8 -0.2
v -0.6 0.8 -0.2
v 0.6 0.8 -0.2
v 0.7 0.8 -0.2
v -0.7 0.8 -0.3
v -0.6 0.8 -0.3
v 0.6 0.8 -0.3
v 0.7 0.8 -0.3
v -0.7 0.9 -0.3
v -0.6 0.9 -0.3
v 0.6 0.9 -0.3
v 0.7 0.9 -0.3
v -0.7 0.9 -0.4
v -0.6 0.9 -0.4
v 0.6 0.9 -0.4
v 0.7 0.9 -0.4
v -0.6 1.1 -0.4
v -0.5 1.1 -0.4
v 0.5 1.1 -0.4
v 0.6 1.1 -0.4
v -0.6 1.1 -0.5
v -0.5 1.1 -0.5
v 0.5 1.1 -0.5
v 0.6 1.1 -0.5
v -0.5 1.2 -0.5
v -0.4 1.2 -0.5
v 0.4 1.2 -0.5
v 0.5 1.2 -0.5
v -0.5 1.2 -0.6
v -0.4 1.2 -0.6
v 0.4 1.2 -0.6
v 0.5 1.2 -0.6
v -0.4 1.4 -0.5
v -0.3 1.4 -0.5
v 0.3 1.4 -0.5
v 0.4 1.4 -0.5
v -0.4 1.4 -0.6
v -0.3 1.4 -0.6
v 0.3 1.4 -0.6
v 0.4 1.4 -0.6
v -0.3 1.5 -0.5
v -0.2 1.5 -0.5
v 0.2 1.5 -0.5
v 0.3 1.5 -0.5
v -0.3 1.5 -0.6
v -0.2 1.5 -0.6
v 0.2 1.5 -0.6
v 0.3 1.5 -0.6
v -0.2 1.6 -0.5
v 0.2 1.6 -0.5
v -0.2 1.6 -0.6
v 0.2 1.6 -0.6

# faces
f 3/1/1 2/1/1 1/1/1
f 4/1/1 2/1/1 3/1/1
f 5/1/1 2/1/1 4/1/1
f 6/1/1 2/1/1 5/1/1
f 7/1/1 2/1/1 6/1/1
f 8/1/1 2/1/1 7/1/1
f 9/1/1 2/1/1 8/1/1
f 10/1/1 2/1/1 9/1/1
f 13/1/1 12/1/1 11/1/1
f 17/1/1 13/1/1 11/1/1
f 17/1/1 14/1/1 13/1/1
f 18/1/1 14/1/1 17/1/1
f 19/1/1 16/1/1 15/1/1
f 20/1/1 16/1/1 19/1/1
f 21/1/1 16/1/1 20/1/1
f 26/2/1 23/2/1 22/2/1
f 27/2/1 23/2/1 26/2/1
f 30/2/1 25/2/1 24/2/1
f 31/2/1 25/2/1 30/2/1
f 32/2/1 28/2/1 27/2/1
f 33/2/1 28/2/1 32/2/1
f 36/2/1 30/2/1 29/2/1
f 37/2/1 30/2/1 36/2/1
f 38/2/1 34/2/1 33/2/1
f 39/2/1 34/2/1 38/2/1
f 40/2/1 36/2/1 35/2/1
f 41/2/1 36/2/1 40/2/1
f 42/1/1 39/1/1 38/1/1
f 43/1/1 39/1/1 42/1/1
f 46/1/1 45/1/1 44/1/1
f 47/1/1 45/1/1 46/1/1
f 48/1/1 45/1/1 47/1/1
f 51/1/1 50/1/1 49/1/1
f 52/1/1 50/1/1 51/1/1
f 55/1/1 54/1/1 53/1/1
f 56/1/1 54/1/1 55/1/1
f 59/1/1 58/1/1 57/1/1
f 60/1/1 58/1/1 59/1/1
f 65/1/1 62/1/1 61/1/1
f 66/1/1 62/1/1 65/1/1
f 67/1/1 64/1/1 63/1/1
f 68/1/1 64/1/1 67/1/1
f 71/1/1 70/1/1 69/1/1
f 72/1/1 70/1/1 71/1/1
f 75/1/1 74/1/1 73/1/1
f 76/1/1 74/1/1 75/1/1
f 81/2/1 78/2/1 77/2/1
f 82/2/1 78/2/1 81/2/1
f 85/2/1 80/2/1 79/2/1
f 86/2/1 80/2/1 85/2/1
f 87/2/1 83/2/1 82/2/1
f 88/2/1 83/2/1 87/2/1
f 91/2/1 85/2/1 84/2/1
f 92/2/1 85/2/1 91/2/1
f 93/2/1 89/2/1 88/2/1
f 94/2/1 89/2/1 93/2/1
f 97/2/1 91/2/1 90/2/1
f 98/2/1 91/2/1 97/2/1
f 99/1/1 94/1/1 93/1/1
f 100/1/1 94/1/1 99/1/1
f 101/2/1 96/2/1 95/2/1
f 102/2/1 96/2/1 101/2/1
f 105/1/1 104/1/1 103/1/1
f 106/1/1 104/1/1 105/1/1
f 109/1/1 108/1/1 107/1/1
f 110/1/1 108/1/1 109/1/1
f 111/1/1 108/1/1 110/1/1
f 112/1/1 108/1/1 111/1/1
f 113/1/2 114/1/2 115/1/2
f 115/1/2 114/1/2 116/1/2
f 116/1/2 114/1/2 117/1/2
f 117/1/2 114/1/2 118/1/2
f 119/1/2 120/1/2 121/1/2
f 121/1/2 120/1/2 122/1/2
f 123/2/2 124/2/2 127/2/2
f 127/2/2 124/2/2 128/2/2
f 125/2/2 126/2/2 131/2/2
f 131/2/2 126/2/2 132/2/2
f 128/2/2 129/2/2 133/2/2
f 133/2/2 129/2/2 134/2/2
f 130/2/2 131/2/2 137/2/2
f 137/2/2 131/2/2 138/2/2
f 134/2/2 135/2/2 139/2/2
f 139/2/2 135/2/2 140/2/2
f 136/2/2 137/2/2 143/2/2
f 143/2/2 137/2/2 144/2/2
f 139/1/2 140/1/2 145/1/2
f 145/1/2 140/1/2 146/1/2
f 141/2/2 142/2/2 147/2/2
f 147/2/2 142/2/2 148/2/2
f 149/1/2 150/1/2 151/1/2
f 151/1/2 150/1/2 152/1/2
f 153/1/2 154/1/2 157/1/2
f 157/1/2 154/1/2 158/1/2
f 155/1/2 156/1/2 159/1/2
f 159/1/2 156/1/2 160/1/2
f 161/1/2 162/1/2 163/1/2
f 163/1/2 162/1/2 164/1/2
f 165/1/2 166/1/2 167/1/2
f 167/1/2 166/1/2 168/1/2
f 169/1/2 170/1/2 171/1/2
f 171/1/2 170/1/2 172/1/2
f 173/1/2 174/1/2 175/1/2
f 175/1/2 174/1/2 176/1/2
f 177/2/2 178/2/2 181/2/2
f 181/2/2 178/2/2 182/2/2
f 179/2/2 180/2/2 185/2/2
f 185/2/2 180/2/2 186/2/2
f 182/2/2 183/2/2 187/2/2
f 187/2/2 183/2/2 188/2/2
f 184/2/2 185/2/2 191/2/2
f 191/2/2 185/2/2 192/2/2
f 188/2/2 189/2/2 193/2/2
f 193/2/2 189/2/2 194/2/2
f 190/2/2 191/2/2 195/2/2
f 195/2/2 191/2/2 196/2/2
f 193/1/2 194/1/2 197/1/2
f 197/1/2 194/1/2 198/1/2
f 199/1/2 200/1/2 201/1/2
f 201/1/2 200/1/2 202/1/2
f 202/1/2 200/1/2 203/1/2
f 204/1/2 205/1/2 206/1/2
f 204/1/2 206/1/2 210/1/2
f 206/1/2 207/1/2 210/1/2
f 210/1/2 207/1/2 211/1/2
f 208/1/2 209/1/2 212/1/2
f 212/1/2 209/1/2 213/1/2
f 213/1/2 209/1/2 214/1/2
f 215/1/2 216/1/2 217/1/2
f 217/1/2 216/1/2 218/1/2
f 218/1/2 216/1/2 219/1/2
f 219/1/2 216/1/2 220/1/2
f 220/1/2 216/1/2 221/1/2
f 221/1/2 216/1/2 222/1/2
f 222/1/2 216/1/2 223/1/2
f 223/1/2 216/1/2 224/1/2
f 227/2/3 226/2/3 225/2/3
f 228/2/3 226/2/3 227/2/3
f 231/1/3 230/1/3 229/1/3
f 232/1/3 230/1/3 231/1/3
f 235/2/3 234/2/3 233/2/3
f 236/2/3 234/2/3 235/2/3
f 239/2/3 238/2/3 237/2/3
f 240/2/3 238/2/3 239/2/3
f 243/1/3 242/1/3 241/1/3
f 244/1/3 242/1/3 243/1/3
f 249/1/3 246/1/3 245/1/3
f 250/1/3 246/1/3 249/1/3
f 251/2/3 248/2/3 247/2/3
f 252/2/3 248/2/3 251/2/3
f 256/2/3 254/2/3 253/2/3
f 257/1/3 255/1/3 254/1/3
f 257/2/3 254/2/3 256/2/3
f 258/1/3 255/1/3 257/1/3
f 259/1/3 255/1/3 258/1/3
f 262/1/3 261/1/3 260/1/3
f 263/1/3 261/1/3 262/1/3
f 268/2/3 265/2/3 264/2/3
f 269/1/3 266/1/3 265/1/3
f 269/2/3 265/2/3 268/2/3
f 269/1/3 267/1/3 266/1/3
f 270/1/3 267/1/3 269/1/3
f 273/1/3 272/1/3 271/1/3
f 274/1/3 272/1/3 273/1/3
f 277/1/3 276/1/3 275/1/3
f 278/1/3 276/1/3 277/1/3
f 281/1/3 280/1/3 279/1/3
f 282/1/3 280/1/3 281/1/3
f 285/1/3 284/1/3 283/1/3
f 286/1/3 284/1/3 285/1/3
f 289/1/3 288/1/3 287/1/3
f 290/1/3 288/1/3 289/1/3
f 293/1/3 292/1/3 291/1/3
f 294/1/3 292/1/3 293/1/3
f 297/1/3 296/1/3 295/1/3
f 298/1/3 296/1/3 297/1/3
f 301/2/3 300/2/3 299/2/3
f 302/2/3 300/2/3 301/2/3
f 305/1/3 304/1/3 303/1/3
f 306/1/3 304/1/3 305/1/3
f 309/1/3 308/1/3 307/1/3
f 310/1/3 308/1/3 309/1/3
f 313/1/3 312/1/3 311/1/3
f 314/1/3 312/1/3 313/1/3
f 317/1/3 316/1/3 315/1/3
f 318/1/3 316/1/3 317/1/3
f 321/2/3 320/2/3 319/2/3
f 322/2/3 320/2/3 321/2/3
f 325/2/3 324/2/3 323/2/3
f 326/2/3 324/2/3 325/2/3
f 329/1/3 328/1/3 327/1/3
f 330/1/3 328/1/3 329/1/3
f 336/1/3 332/1/3 331/1/3
f 336/1/3 333/1/3 332/1/3
f 337/1/3 333/1/3 336/1/3
f 338/2/3 335/2/3 334/2/3
f 339/2/3 335/2/3 338/2/3
f 342/2/3 341/2/3 340/2/3
f 343/2/3 341/2/3 342/2/3
f 346/1/3 345/1/3 344/1/3
f 347/1/3 345/1/3 346/1/3
f 348/1/3 345/1/3 347/1/3
f 354/2/3 350/2/3 349/2/3
f 355/2/3 350/2/3 354/2/3
f 356/1/3 353/1/3 352/1/3
f 356/1/3 352/1/3 351/1/3
f 358/1/3 357/1/3 356/1/3
f 360/1/3 359/1/3 358/1/3
f 362/1/3 360/1/3 358/1/3
f 362/1/3 361/1/3 360/1/3
f 363/1/3 361/1/3 362/1/3
f 364/1/3 358/1/3 356/1/3
f 364/1/3 362/1/3 358/1/3
f 365/1/3 362/1/3 364/1/3
f 368/1/3 356/1/3 351/1/3
f 368/1/3 364/1/3 356/1/3
f 369/1/3 364/1/3 368/1/3
f 370/2/3 367/2/3 366/2/3
f 371/2/3 367/2/3 370/2/3
f 372/1/3 368/1/3 351/1/3
f 373/1/3 368/1/3 372/1/3
f 374/1/3 368/1/3 373/1/3
f 375/2/4 376/2/4 377/2/4
f 377/2/4 376/2/4 378/2/4
f 379/2/4 380/2/4 381/2/4
f 381/2/4 380/2/4 382/2/4
f 383/2/4 384/2/4 385/2/4
f 385/2/4 384/2/4 386/2/4
f 387/2/4 388/2/4 389/2/4
f 389/2/4 388/2/4 390/2/4
f 391/2/4 392/2/4 393/2/4
f 393/2/4 392/2/4 394/2/4
f 395/2/4 396/2/4 397/2/4
f 397/2/4 396/2/4 398/2/4
f 399/2/4 400/2/4 401/2/4
f 401/2/4 400/2/4 402/2/4
f 403/1/4 404/1/4 405/1/4
f 405/1/4 404/1/4 406/1/4
f 407/1/4 408/1/4 409/1/4
f 409/1/4 408/1/4 410/1/4
f 407/1/4 409/1/4 412/1/4
f 411/2/4 412/2/4 413/2/4
f 412/1/4 409/1/4 414/1/4
f 413/2/4 412/2/4 414/2/4
f 414/1/4 409/1/4 415/1/4
f 415/1/4 409/1/4 416/1/4
f 417/1/4 418/1/4 420/1/4
f 419/2/4 420/2/4 421/2/4
f 420/1/4 418/1/4 422/1/4
f 421/2/4 420/2/4 422/2/4
f 422/1/4 418/1/4 423/1/4
f 422/1/4 423/1/4 425/1/4
f 423/1/4 424/1/4 425/1/4
f 425/1/4 424/1/4 426/1/4
f 427/1/4 428/1/4 431/1/4
f 431/1/4 428/1/4 432/1/4
f 429/2/4 430/2/4 433/2/4
f 433/2/4 430/2/4 434/2/4
f 435/2/4 436/2/4 437/2/4
f 437/2/4 436/2/4 438/2/4
f 427/1/4 431/1/4 439/1/4
f 439/1/4 440/1/4 441/1/4
f 427/1/4 439/1/4 441/1/4
f 441/1/4 440/1/4 442/1/4
f 443/2/4 444/2/4 447/2/4
f 447/2/4 444/2/4 448/2/4
f 445/1/4 446/1/4 449/1/4
f 449/1/4 450/1/4 451/1/4
f 451/1/4 452/1/4 453/1/4
f 451/1/4 453/1/4 455/1/4
f 453/1/4 454/1/4 455/1/4
f 455/1/4 454/1/4 456/1/4
f 449/1/4 451/1/4 457/1/4
f 451/1/4 455/1/4 457/1/4
f 457/1/4 455/1/4 458/1/4
f 445/1/4 449/1/4 461/1/4
f 449/1/4 457/1/4 461/1/4
f 461/1/4 457/1/4 462/1/4
f 459/2/4 460/2/4 463/2/4
f 463/2/4 460/2/4 464/2/4
f 445/1/4 461/1/4 465/1/4
f 465/1/4 461/1/4 466/1/4
f 471/2/5 468/2/5 467/2/5
f 472/2/5 468/2/5 471/2/5
f 473/2/5 470/2/5 469/2/5
f 474/2/5 470/2/5 473/2/5
f 479/2/5 476/2/5 475/2/5
f 480/2/5 476/2/5 479/2/5
f 481/2/5 478/2/5 477/2/5
f 482/2/5 478/2/5 481/2/5
f 487/2/5 484/2/5 483/2/5
f 488/2/5 484/2/5 487/2/5
f 489/2/5 486/2/5 485/2/5
f 490/2/5 486/2/5 489/2/5
f 495/2/5 492/2/5 491/2/5
f 496/2/5 492/2/5 495/2/5
f 497/2/5 494/2/5 493/2/5
f 498/2/5 494/2/5 497/2/5
f 503/2/5 500/2/5 499/2/5
f 504/2/5 500/2/5 503/2/5
f 505/2/5 502/2/5 501/2/5
f 506/2/5 502/2/5 505/2/5
f 511/2/5 508/2/5 507/2/5
f 512/2/5 508/2/5 511/2/5
f 513/2/5 510/2/5 509/2/5
f 514/2/5 510/2/5 513/2/5
f 520/1/5 516/1/5 515/1/5
f 521/1/5 516/1/5 520/1/5
f 525/2/5 519/2/5 518/2/5
f 525/1/5 520/1/5 519/1/5
f 525/1/5 521/1/5 520/1/5
f 525/1/5 522/1/5 521/1/5
f 526/2/5 523/2/5 522/2/5
f 526/1/5 522/1/5 525/1/5
f 527/2/5 525/2/5 518/2/5
f 527/2/5 526/2/5 525/2/5
f 528/2/5 523/2/5 526/2/5
f 528/2/5 526/2/5 527/2/5
f 530/1/5 518/1/5 517/1/5
f 531/1/5 524/1/5 523/1/5
f 533/2/5 527/2/5 518/2/5
f 534/2/5 523/2/5 528/2/5
f 535/2/5 533/2/5 518/2/5
f 535/2/5 534/2/5 533/2/5
f 536/2/5 523/2/5 534/2/5
f 536/2/5 534/2/5 535/2/5
f 537/1/5 530/1/5 529/1/5
f 537/2/5 535/2/5 518/2/5
f 537/1/5 518/1/5 530/1/5
f 538/1/5 536/1/5 535/1/5
f 538/2/5 535/2/5 537/2/5
f 539/1/5 536/1/5 538/1/5
f 540/1/5 536/1/5 539/1/5
f 541/2/5 523/2/5 536/2/5
f 541/1/5 536/1/5 540/1/5
f 542/1/5 532/1/5 531/1/5
f 542/2/5 523/2/5 541/2/5
f 542/1/5 531/1/5 523/1/5
f 543/1/5 537/1/5 529/1/5
f 544/1/5 537/1/5 543/1/5
f 545/1/5 539/1/5 538/1/5
f 546/1/5 539/1/5 545/1/5
f 547/1/5 541/1/5 540/1/5
f 548/1/5 541/1/5 547/1/5
f 549/1/5 532/1/5 542/1/5
f 550/1/5 532/1/5 549/1/5
f 554/1/5 552/1/5 551/1/5
f 555/1/5 552/1/5 554/1/5
f 557/1/5 554/1/5 553/1/5
f 557/1/5 556/1/5 555/1/5
f 557/1/5 555/1/5 554/1/5
f 558/1/5 556/1/5 557/1/5
f 559/1/5 556/1/5 558/1/5
f 560/1/5 556/1/5 559/1/5
f 561/1/5 558/1/5 557/1/5
f 562/1/5 558/1/5 561/1/5
f 563/1/5 560/1/5 559/1/5
f 564/1/5 560/1/5 563/1/5
f 567/1/5 566/1/5 565/1/5
f 568/1/5 566/1/5 567/1/5
f 572/1/5 570/1/5 569/1/5
f 573/1/5 570/1/5 572/1/5
f 575/1/5 573/1/5 572/1/5
f 575/1/5 574/1/5 573/1/5
f 575/1/5 572/1/5 571/1/5
f 576/1/5 574/1/5 575/1/5
f 579/1/5 578/1/5 577/1/5
f 580/1/5 578/1/5 579/1/5
f 581/2/6 582/2/6 585/2/6
f 585/2/6 582/2/6 586/2/6
f 583/2/6 584/2/6 587/2/6
f 587/2/6 584/2/6 588/2/6
f 589/2/6 590/2/6 593/2/6
f 593/2/6 590/2/6 594/2/6
f 591/2/6 592/2/6 595/2/6
f 595/2/6 592/2/6 596/2/6
f 597/2/6 598/2/6 601/2/6
f 601/2/6 598/2/6 602/2/6
f 599/2/6 600/2/6 603/2/6
f 603/2/6 600/2/6 604/2/6
f 605/2/6 606/2/6 609/2/6
f 609/2/6 606/2/6 610/2/6
f 607/2/6 608/2/6 611/2/6
f 611/2/6 608/2/6 612/2/6
f 613/1/6 614/1/6 617/1/6
f 617/1/6 614/1/6 618/1/6
f 615/1/6 616/1/6 619/1/6
f 619/1/6 616/1/6 620/1/6
f 621/1/6 622/1/6 624/1/6
f 624/1/6 622/1/6 625/1/6
f 623/1/6 624/1/6 628/1/6
f 625/1/6 626/1/6 628/1/6
f 624/1/6 625/1/6 628/1/6
f 628/1/6 626/1/6 629/1/6
f 627/1/6 628/1/6 632/1/6
f 629/1/6 630/1/6 632/1/6
f 628/1/6 629/1/6 632/1/6
f 632/1/6 630/1/6 633/1/6
f 631/1/6 632/1/6 636/1/6
f 633/1/6 634/1/6 636/1/6
f 632/1/6 633/1/6 636/1/6
f 636/1/6 634/1/6 637/1/6
f 635/1/6 636/1/6 639/1/6
f 637/1/6 638/1/6 639/1/6
f 636/1/6 637/1/6 639/1/6
f 639/1/6 638/1/6 640/1/6
f 640/1/6 638/1/6 641/1/6
f 641/1/6 638/1/6 642/1/6
f 640/1/6 641/1/6 643/1/6
f 643/1/6 641/1/6 644/1/6
f 644/1/6 641/1/6 645/1/6
f 645/1/6 641/1/6 646/1/6
f 644/1/6 645/1/6 647/1/6
f 647/1/6 645/1/6 648/1/6
f 649/1/6 650/1/6 653/1/6
f 653/1/6 650/1/6 654/1/6
f 651/1/6 652/1/6 655/1/6
f 655/1/6 652/1/6 656/1/6
f 657/1/6 658/1/6 661/1/6
f 661/1/6 658/1/6 662/1/6
f 659/1/6 660/1/6 663/1/6
f 663/1/6 660/1/6 664/1/6
f 665/1/6 666/1/6 669/1/6
f 669/1/6 666/1/6 670/1/6
f 667/1/6 668/1/6 671/1/6
f 671/1/6 668/1/6 672/1/6
f 673/1/6 674/1/6 677/1/6
f 677/1/6 674/1/6 678/1/6
f 675/1/6 676/1/6 679/1/6
f 679/1/6 676/1/6 680/1/6
f 681/1/6 682/1/6 685/1/6
f 685/1/6 682/1/6 686/1/6
f 683/1/6 684/1/6 687/1/6
f 687/1/6 684/1/6 688/1/6
f 689/1/6 690/1/6 693/1/6
f 693/1/6 690/1/6 694/1/6
f 691/1/6 692/1/6 695/1/6
f 695/1/6 692/1/6 696/1/6
f 697/1/6 698/1/6 699/1/6
f 699/1/6 698/1/6 700/1/6
