# MagicaVoxel @ Ephtracy

# group
o 

# material
mtllib Builder_Walk1.vox.mtl
usemtl palette

# normals
vn -1 0 0
vn 1 0 0
vn 0 0 1
vn 0 0 -1
vn 0 -1 0
vn 0 1 0

# texcoords
vt 0.0839844 0.5
vt 0.287109 0.5
vt 0.291016 0.5
vt 0.310547 0.5
vt 0.365234 0.5
vt 0.373047 0.5
vt 0.478516 0.5
vt 0.748047 0.5
vt 0.958984 0.5
vt 0.994141 0.5

# verts
v -0.7 1.4 0.4
v -0.7 1.4 -0.3
v -0.7 1.5 0.4
v -0.7 1.5 -0.3
v -0.6 1.3 0.4
v -0.6 1.3 -0.3
v -0.6 1.4 0.5
v -0.6 1.4 0.4
v -0.6 1.4 -0.3
v -0.6 1.4 -0.4
v -0.6 1.5 0.5
v -0.6 1.5 0.4
v -0.6 1.5 -0.3
v -0.6 1.5 -0.4
v -0.6 1.7 0.4
v -0.6 1.7 -0.3
v -0.5 0.5 0.3
v -0.5 0.5 0.2
v -0.5 0.5 0.1
v -0.5 0.5 -0.1
v -0.5 0.7 0.3
v -0.5 0.7 0.2
v -0.5 0.7 0.1
v -0.5 0.7 -0.1
v -0.5 0.9 0.3
v -0.5 0.9 0
v -0.5 0.9 -0.4
v -0.5 1.3 0.3
v -0.5 1.3 0
v -0.5 1.3 -0.3
v -0.5 1.4 -0.3
v -0.5 1.4 -0.4
v -0.5 1.4 -0.5
v -0.5 1.5 0.5
v -0.5 1.5 0.4
v -0.5 1.5 -0.3
v -0.5 1.5 -0.4
v -0.5 1.6 0.5
v -0.5 1.6 0.4
v -0.5 1.6 -0.4
v -0.5 1.6 -0.5
v -0.5 1.7 0.4
v -0.5 1.7 -0.3
v -0.5 1.7 -0.4
v -0.5 1.8 0.4
v -0.5 1.8 -0.3
v -0.4 0.8 0.3
v -0.4 0.8 0
v -0.4 0.8 -0.2
v -0.4 0.9 0.3
v -0.4 0.9 0
v -0.4 0.9 -0.2
v -0.4 1.7 -0.3
v -0.4 1.7 -0.4
v -0.4 1.8 -0.3
v -0.4 1.8 -0.4
v -0.3 0 0.2
v -0.3 0 -0.1
v -0.3 0.1 0.2
v -0.3 0.1 0.1
v -0.3 0.2 0.1
v -0.3 0.2 -0.1
v -0.3 0.3 0.2
v -0.3 0.3 0.1
v -0.3 0.3 -0.1
v -0.3 0.3 -0.2
v -0.3 0.4 0.2
v -0.3 0.4 -0.2
v -0.3 0.5 0.2
v -0.3 0.5 0.1
v -0.3 0.5 -0.1
v -0.3 0.7 0.2
v -0.3 0.7 0.1
v -0.3 0.7 -0.1
v -0.3 0.8 0.2
v -0.3 0.8 0.1
v -0.3 0.8 0
v -0.3 0.8 -0.1
v -0.3 0.8 -0.2
v -0.3 0.8 -0.3
v -0.3 0.9 -0.2
v -0.3 0.9 -0.3
v -0.3 1.3 -0.4
v -0.3 1.3 -0.5
v -0.3 1.4 -0.4
v -0.3 1.4 -0.5
v -0.3 1.6 0.5
v -0.3 1.6 0.4
v -0.3 1.6 -0.4
v -0.3 1.6 -0.5
v -0.3 1.7 0.5
v -0.3 1.7 0.4
v -0.3 1.7 -0.4
v -0.3 1.7 -0.5
v -0.3 1.8 0.4
v -0.3 1.8 -0.4
v -0.3 1.9 0.4
v -0.3 1.9 -0.4
v -0.2 1.9 0.4
v -0.2 1.9 -0.4
v -0.2 2 0.4
v -0.2 2 -0.4
v -0.1 1.7 0.5
v -0.1 1.7 0.4
v -0.1 1.7 -0.4
v -0.1 1.7 -0.5
v -0.1 1.8 0.5
v -0.1 1.8 0.4
v -0.1 1.8 -0.4
v -0.1 1.8 -0.5
v 0.1 0.1 0.4
v 0.1 0.1 0.2
v 0.1 0.1 -0.1
v 0.1 0.3 0.3
v 0.1 0.3 0.2
v 0.1 0.3 0.1
v 0.1 0.3 -0.1
v 0.1 0.4 0.4
v 0.1 0.4 0.3
v 0.2 1.5 0.5
v 0.2 1.5 0.4
v 0.2 1.6 0.5
v 0.2 1.6 0.4
v 0.4 1.3 0.4
v 0.4 1.3 0.3
v 0.4 1.4 0.5
v 0.4 1.4 0.4
v 0.4 1.4 0.3
v 0.4 1.5 0.5
v 0.4 1.5 0.4
v -0.4 1.3 0.4
v -0.4 1.3 0.3
v -0.4 1.4 0.5
v -0.4 1.4 0.4
v -0.4 1.4 0.3
v -0.4 1.5 0.5
v -0.4 1.5 0.4
v -0.3 0.5 0.3
v -0.3 0.5 0.2
v -0.3 0.7 0.3
v -0.3 0.7 0.2
v -0.2 1.5 0.5
v -0.2 1.5 0.4
v -0.2 1.6 0.5
v -0.2 1.6 0.4
v -0.1 0 0.2
v -0.1 0 -0.1
v -0.1 0.1 0.2
v -0.1 0.1 0.1
v -0.1 0.2 0.1
v -0.1 0.2 -0.1
v -0.1 0.3 0.1
v -0.1 0.3 -0.1
v 0.1 1.7 0.5
v 0.1 1.7 0.4
v 0.1 1.7 -0.4
v 0.1 1.7 -0.5
v 0.1 1.8 0.5
v 0.1 1.8 0.4
v 0.1 1.8 -0.4
v 0.1 1.8 -0.5
v 0.2 1.9 0.4
v 0.2 1.9 -0.4
v 0.2 2 0.4
v 0.2 2 -0.4
v 0.3 0.1 0.4
v 0.3 0.1 0.2
v 0.3 0.1 -0.1
v 0.3 0.3 0.3
v 0.3 0.3 0.2
v 0.3 0.3 0.1
v 0.3 0.3 -0.1
v 0.3 0.3 -0.2
v 0.3 0.4 0.4
v 0.3 0.4 0.3
v 0.3 0.4 0.2
v 0.3 0.4 0.1
v 0.3 0.4 -0.1
v 0.3 0.4 -0.2
v 0.3 0.5 0.1
v 0.3 0.5 -0.1
v 0.3 0.7 0.1
v 0.3 0.7 -0.1
v 0.3 0.8 0.2
v 0.3 0.8 0
v 0.3 0.8 -0.2
v 0.3 0.8 -0.3
v 0.3 0.9 -0.2
v 0.3 0.9 -0.3
v 0.3 1.3 -0.4
v 0.3 1.3 -0.5
v 0.3 1.4 -0.4
v 0.3 1.4 -0.5
v 0.3 1.6 0.5
v 0.3 1.6 0.4
v 0.3 1.6 -0.4
v 0.3 1.6 -0.5
v 0.3 1.7 0.5
v 0.3 1.7 0.4
v 0.3 1.7 -0.4
v 0.3 1.7 -0.5
v 0.3 1.8 0.4
v 0.3 1.8 -0.4
v 0.3 1.9 0.4
v 0.3 1.9 -0.4
v 0.4 0.8 0.3
v 0.4 0.8 0
v 0.4 0.8 -0.2
v 0.4 0.9 0.3
v 0.4 0.9 0
v 0.4 0.9 -0.2
v 0.5 0.3 0.1
v 0.5 0.3 -0.1
v 0.5 0.4 0.1
v 0.5 0.4 -0.1
v 0.5 0.5 0.1
v 0.5 0.5 -0.1
v 0.5 0.7 0.1
v 0.5 0.7 -0.1
v 0.5 0.9 0.3
v 0.5 0.9 0
v 0.5 0.9 -0.4
v 0.5 1.3 0.3
v 0.5 1.3 0
v 0.5 1.3 -0.3
v 0.5 1.4 -0.3
v 0.5 1.4 -0.4
v 0.5 1.4 -0.5
v 0.5 1.5 0.5
v 0.5 1.5 0.4
v 0.5 1.5 -0.3
v 0.5 1.5 -0.4
v 0.5 1.6 0.5
v 0.5 1.6 0.4
v 0.5 1.6 -0.4
v 0.5 1.6 -0.5
v 0.5 1.7 0.4
v 0.5 1.7 -0.3
v 0.5 1.8 0.4
v 0.5 1.8 -0.4
v 0.6 1.3 0.4
v 0.6 1.3 -0.3
v 0.6 1.4 0.5
v 0.6 1.4 0.4
v 0.6 1.4 -0.3
v 0.6 1.4 -0.4
v 0.6 1.5 0.5
v 0.6 1.5 0.4
v 0.6 1.5 -0.3
v 0.6 1.5 -0.4
v 0.6 1.6 0.4
v 0.6 1.6 -0.3
v 0.6 1.7 0.4
v 0.6 1.7 -0.3
v 0.7 1.4 0.4
v 0.7 1.4 -0.3
v 0.7 1.6 0.4
v 0.7 1.6 -0.3
v -0.6 1.4 0.5
v -0.6 1.5 0.5
v -0.5 1.5 0.5
v -0.5 1.6 0.5
v -0.4 1.4 0.5
v -0.4 1.5 0.5
v -0.3 1.6 0.5
v -0.3 1.7 0.5
v -0.2 1.5 0.5
v -0.2 1.6 0.5
v -0.1 1.7 0.5
v -0.1 1.8 0.5
v 0.1 1.7 0.5
v 0.1 1.8 0.5
v 0.2 1.5 0.5
v 0.2 1.6 0.5
v 0.3 1.6 0.5
v 0.3 1.7 0.5
v 0.4 1.4 0.5
v 0.4 1.5 0.5
v 0.5 1.5 0.5
v 0.5 1.6 0.5
v 0.6 1.4 0.5
v 0.6 1.5 0.5
v -0.7 1.4 0.4
v -0.7 1.5 0.4
v -0.6 1.3 0.4
v -0.6 1.4 0.4
v -0.6 1.5 0.4
v -0.6 1.7 0.4
v -0.5 1.5 0.4
v -0.5 1.6 0.4
v -0.5 1.7 0.4
v -0.5 1.8 0.4
v -0.4 1.3 0.4
v -0.4 1.4 0.4
v -0.4 1.5 0.4
v -0.3 1.6 0.4
v -0.3 1.7 0.4
v -0.3 1.8 0.4
v -0.3 1.9 0.4
v -0.2 1.5 0.4
v -0.2 1.6 0.4
v -0.2 1.9 0.4
v -0.2 2 0.4
v -0.1 1.7 0.4
v -0.1 1.8 0.4
v 0.1 0.1 0.4
v 0.1 0.4 0.4
v 0.1 1.7 0.4
v 0.1 1.8 0.4
v 0.2 1.5 0.4
v 0.2 1.6 0.4
v 0.2 1.9 0.4
v 0.2 2 0.4
v 0.3 0.1 0.4
v 0.3 0.4 0.4
v 0.3 1.6 0.4
v 0.3 1.7 0.4
v 0.3 1.8 0.4
v 0.3 1.9 0.4
v 0.4 1.3 0.4
v 0.4 1.4 0.4
v 0.4 1.5 0.4
v 0.5 1.5 0.4
v 0.5 1.6 0.4
v 0.5 1.7 0.4
v 0.5 1.8 0.4
v 0.6 1.3 0.4
v 0.6 1.4 0.4
v 0.6 1.5 0.4
v 0.6 1.6 0.4
v 0.6 1.7 0.4
v 0.7 1.4 0.4
v 0.7 1.6 0.4
v -0.5 0.5 0.3
v -0.5 0.7 0.3
v -0.5 0.9 0.3
v -0.5 1.3 0.3
v -0.4 0.8 0.3
v -0.4 0.9 0.3
v -0.4 1.3 0.3
v -0.4 1.4 0.3
v -0.3 0.5 0.3
v -0.3 0.7 0.3
v -0.3 1.1 0.3
v -0.3 1.3 0.3
v -0.2 1.1 0.3
v -0.2 1.3 0.3
v -0.1 0.9 0.3
v -0.1 1 0.3
v -0.1 1.1 0.3
v -0.1 1.3 0.3
v 0.1 0.9 0.3
v 0.1 1 0.3
v 0.1 1.1 0.3
v 0.1 1.3 0.3
v 0.2 1.1 0.3
v 0.2 1.3 0.3
v 0.3 1.1 0.3
v 0.3 1.3 0.3
v 0.4 0.8 0.3
v 0.4 0.9 0.3
v 0.4 1.3 0.3
v 0.4 1.4 0.3
v 0.5 0.9 0.3
v 0.5 1.3 0.3
v -0.3 0 0.2
v -0.3 0.1 0.2
v -0.3 0.3 0.2
v -0.3 0.4 0.2
v -0.3 0.5 0.2
v -0.3 0.7 0.2
v -0.3 0.8 0.2
v -0.2 0.7 0.2
v -0.2 0.8 0.2
v -0.1 0 0.2
v -0.1 0.1 0.2
v -0.1 0.3 0.2
v -0.1 0.4 0.2
v -0.1 0.6 0.2
v -0.1 0.7 0.2
v -0.1 0.8 0.2
v 0.1 0.3 0.2
v 0.1 0.4 0.2
v 0.1 0.6 0.2
v 0.1 0.7 0.2
v 0.1 0.8 0.2
v 0.2 0.7 0.2
v 0.2 0.8 0.2
v 0.3 0.3 0.2
v 0.3 0.4 0.2
v 0.3 0.8 0.2
v -0.3 0.1 0.1
v -0.3 0.2 0.1
v -0.3 0.3 0.1
v -0.1 0.1 0.1
v -0.1 0.2 0.1
v -0.1 0.3 0.1
v 0.3 0.3 0.1
v 0.3 0.4 0.1
v 0.3 0.5 0.1
v 0.3 0.7 0.1
v 0.5 0.3 0.1
v 0.5 0.4 0.1
v 0.5 0.5 0.1
v 0.5 0.7 0.1
v 0.1 0.3 0.3
v 0.1 0.4 0.3
v 0.3 0.3 0.3
v 0.3 0.4 0.3
v -0.5 0.5 -0.1
v -0.5 0.7 -0.1
v -0.3 0 -0.1
v -0.3 0.2 -0.1
v -0.3 0.3 -0.1
v -0.3 0.5 -0.1
v -0.3 0.7 -0.1
v -0.1 0 -0.1
v -0.1 0.2 -0.1
v -0.1 0.3 -0.1
v 0.1 0.1 -0.1
v 0.1 0.3 -0.1
v 0.3 0.1 -0.1
v 0.3 0.3 -0.1
v 0.3 0.4 -0.1
v 0.3 0.5 -0.1
v 0.3 0.7 -0.1
v 0.5 0.3 -0.1
v 0.5 0.4 -0.1
v 0.5 0.5 -0.1
v 0.5 0.7 -0.1
v -0.4 0.8 -0.2
v -0.4 0.9 -0.2
v -0.3 0.3 -0.2
v -0.3 0.4 -0.2
v -0.3 0.8 -0.2
v -0.3 0.9 -0.2
v -0.1 0.7 -0.2
v -0.1 0.8 -0.2
v 0.1 0.7 -0.2
v 0.1 0.8 -0.2
v 0.3 0.3 -0.2
v 0.3 0.4 -0.2
v 0.3 0.8 -0.2
v 0.3 0.9 -0.2
v 0.4 0.8 -0.2
v 0.4 0.9 -0.2
v -0.7 1.4 -0.3
v -0.7 1.5 -0.3
v -0.6 1.3 -0.3
v -0.6 1.4 -0.3
v -0.6 1.5 -0.3
v -0.6 1.7 -0.3
v -0.5 1.3 -0.3
v -0.5 1.4 -0.3
v -0.5 1.5 -0.3
v -0.5 1.7 -0.3
v -0.5 1.8 -0.3
v -0.4 1.7 -0.3
v -0.4 1.8 -0.3
v -0.3 0.8 -0.3
v -0.3 0.9 -0.3
v 0.3 0.8 -0.3
v 0.3 0.9 -0.3
v 0.5 1.3 -0.3
v 0.5 1.4 -0.3
v 0.5 1.5 -0.3
v 0.5 1.7 -0.3
v 0.6 1.3 -0.3
v 0.6 1.4 -0.3
v 0.6 1.5 -0.3
v 0.6 1.6 -0.3
v 0.6 1.7 -0.3
v 0.7 1.4 -0.3
v 0.7 1.6 -0.3
v -0.6 1.4 -0.4
v -0.6 1.5 -0.4
v -0.5 0.9 -0.4
v -0.5 1.4 -0.4
v -0.5 1.5 -0.4
v -0.5 1.6 -0.4
v -0.5 1.7 -0.4
v -0.4 1.7 -0.4
v -0.4 1.8 -0.4
v -0.3 1.3 -0.4
v -0.3 1.4 -0.4
v -0.3 1.6 -0.4
v -0.3 1.7 -0.4
v -0.3 1.8 -0.4
v -0.3 1.9 -0.4
v -0.2 1.9 -0.4
v -0.2 2 -0.4
v -0.1 1.7 -0.4
v -0.1 1.8 -0.4
v 0.1 1.7 -0.4
v 0.1 1.8 -0.4
v 0.2 1.9 -0.4
v 0.2 2 -0.4
v 0.3 1.3 -0.4
v 0.3 1.4 -0.4
v 0.3 1.6 -0.4
v 0.3 1.7 -0.4
v 0.3 1.8 -0.4
v 0.3 1.9 -0.4
v 0.5 0.9 -0.4
v 0.5 1.4 -0.4
v 0.5 1.5 -0.4
v 0.5 1.6 -0.4
v 0.5 1.8 -0.4
v 0.6 1.4 -0.4
v 0.6 1.5 -0.4
v -0.5 1.4 -0.5
v -0.5 1.6 -0.5
v -0.3 1.3 -0.5
v -0.3 1.4 -0.5
v -0.3 1.6 -0.5
v -0.3 1.7 -0.5
v -0.1 1.7 -0.5
v -0.1 1.8 -0.5
v 0.1 1.7 -0.5
v 0.1 1.8 -0.5
v 0.3 1.3 -0.5
v 0.3 1.4 -0.5
v 0.3 1.6 -0.5
v 0.3 1.7 -0.5
v 0.5 1.4 -0.5
v 0.5 1.6 -0.5
v -0.3 0 0.2
v -0.1 0 0.2
v -0.3 0 -0.1
v -0.1 0 -0.1
v 0.1 0.1 0.4
v 0.3 0.1 0.4
v 0.1 0.1 0.2
v 0.3 0.1 0.2
v 0.1 0.1 -0.1
v 0.3 0.1 -0.1
v -0.3 0.3 0.2
v -0.1 0.3 0.2
v 0.1 0.3 0.2
v -0.3 0.3 0.1
v -0.1 0.3 0.1
v 0.1 0.3 0.1
v 0.3 0.3 0.1
v 0.5 0.3 0.1
v -0.3 0.3 -0.1
v -0.1 0.3 -0.1
v 0.1 0.3 -0.1
v 0.3 0.3 -0.1
v 0.5 0.3 -0.1
v -0.3 0.3 -0.2
v 0.3 0.3 -0.2
v -0.5 0.5 0.3
v -0.3 0.5 0.3
v -0.5 0.5 0.2
v -0.3 0.5 0.2
v -0.5 0.5 0.1
v -0.3 0.5 0.1
v -0.5 0.5 -0.1
v -0.3 0.5 -0.1
v -0.4 0.8 0.3
v 0.4 0.8 0.3
v -0.3 0.8 0.2
v -0.2 0.8 0.2
v -0.1 0.8 0.2
v 0.1 0.8 0.2
v 0.2 0.8 0.2
v 0.3 0.8 0.2
v -0.3 0.8 0.1
v -0.4 0.8 0
v -0.3 0.8 0
v 0.3 0.8 0
v 0.4 0.8 0
v -0.3 0.8 -0.1
v -0.4 0.8 -0.2
v -0.3 0.8 -0.2
v -0.1 0.8 -0.2
v 0.1 0.8 -0.2
v 0.3 0.8 -0.2
v 0.4 0.8 -0.2
v -0.3 0.8 -0.3
v 0.3 0.8 -0.3
v -0.5 0.9 0.3
v -0.4 0.9 0.3
v 0.4 0.9 0.3
v 0.5 0.9 0.3
v -0.5 0.9 0
v -0.4 0.9 0
v 0.4 0.9 0
v 0.5 0.9 0
v -0.4 0.9 -0.2
v -0.3 0.9 -0.2
v 0.3 0.9 -0.2
v 0.4 0.9 -0.2
v -0.3 0.9 -0.3
v 0.3 0.9 -0.3
v -0.5 0.9 -0.4
v 0.5 0.9 -0.4
v -0.6 1.3 0.4
v -0.4 1.3 0.4
v 0.4 1.3 0.4
v 0.6 1.3 0.4
v -0.5 1.3 0.3
v -0.4 1.3 0.3
v 0.4 1.3 0.3
v 0.5 1.3 0.3
v -0.5 1.3 0
v 0.5 1.3 0
v -0.6 1.3 -0.3
v -0.5 1.3 -0.3
v 0.5 1.3 -0.3
v 0.6 1.3 -0.3
v -0.3 1.3 -0.4
v 0.3 1.3 -0.4
v -0.3 1.3 -0.5
v 0.3 1.3 -0.5
v -0.6 1.4 0.5
v -0.4 1.4 0.5
v 0.4 1.4 0.5
v 0.6 1.4 0.5
v -0.7 1.4 0.4
v -0.6 1.4 0.4
v -0.4 1.4 0.4
v 0.4 1.4 0.4
v 0.6 1.4 0.4
v 0.7 1.4 0.4
v -0.4 1.4 0.3
v 0.4 1.4 0.3
v -0.7 1.4 -0.3
v -0.6 1.4 -0.3
v -0.5 1.4 -0.3
v 0.5 1.4 -0.3
v 0.6 1.4 -0.3
v 0.7 1.4 -0.3
v -0.6 1.4 -0.4
v -0.5 1.4 -0.4
v -0.3 1.4 -0.4
v 0.3 1.4 -0.4
v 0.5 1.4 -0.4
v 0.6 1.4 -0.4
v -0.5 1.4 -0.5
v -0.3 1.4 -0.5
v 0.3 1.4 -0.5
v 0.5 1.4 -0.5
v -0.4 1.5 0.5
v -0.2 1.5 0.5
v 0.2 1.5 0.5
v 0.4 1.5 0.5
v -0.4 1.5 0.4
v -0.2 1.5 0.4
v 0.2 1.5 0.4
v 0.4 1.5 0.4
v -0.2 1.6 0.5
v 0.2 1.6 0.5
v -0.2 1.6 0.4
v 0.2 1.6 0.4
v -0.3 0.1 0.2
v -0.1 0.1 0.2
v -0.3 0.1 0.1
v -0.1 0.1 0.1
v 0.1 0.3 0.3
v 0.3 0.3 0.3
v 0.1 0.3 0.2
v 0.3 0.3 0.2
v 0.1 0.4 0.4
v 0.3 0.4 0.4
v 0.1 0.4 0.3
v 0.3 0.4 0.3
v -0.5 0.7 0.3
v -0.3 0.7 0.3
v -0.5 0.7 0.2
v -0.3 0.7 0.2
v -0.5 0.7 0.1
v -0.3 0.7 0.1
v 0.3 0.7 0.1
v 0.5 0.7 0.1
v -0.5 0.7 -0.1
v -0.3 0.7 -0.1
v 0.3 0.7 -0.1
v 0.5 0.7 -0.1
v -0.6 1.5 0.5
v -0.5 1.5 0.5
v 0.5 1.5 0.5
v 0.6 1.5 0.5
v -0.7 1.5 0.4
v -0.6 1.5 0.4
v -0.5 1.5 0.4
v 0.5 1.5 0.4
v 0.6 1.5 0.4
v -0.7 1.5 -0.3
v -0.6 1.5 -0.3
v -0.5 1.5 -0.3
v 0.5 1.5 -0.3
v 0.6 1.5 -0.3
v -0.6 1.5 -0.4
v -0.5 1.5 -0.4
v 0.5 1.5 -0.4
v 0.6 1.5 -0.4
v -0.5 1.6 0.5
v -0.3 1.6 0.5
v 0.3 1.6 0.5
v 0.5 1.6 0.5
v -0.5 1.6 0.4
v -0.3 1.6 0.4
v 0.3 1.6 0.4
v 0.5 1.6 0.4
v 0.6 1.6 0.4
v 0.7 1.6 0.4
v 0.6 1.6 -0.3
v 0.7 1.6 -0.3
v -0.5 1.6 -0.4
v -0.3 1.6 -0.4
v 0.3 1.6 -0.4
v 0.5 1.6 -0.4
v -0.5 1.6 -0.5
v -0.3 1.6 -0.5
v 0.3 1.6 -0.5
v 0.5 1.6 -0.5
v -0.3 1.7 0.5
v -0.1 1.7 0.5
v 0.1 1.7 0.5
v 0.3 1.7 0.5
v -0.6 1.7 0.4
v -0.5 1.7 0.4
v -0.3 1.7 0.4
v -0.1 1.7 0.4
v 0.1 1.7 0.4
v 0.3 1.7 0.4
v 0.5 1.7 0.4
v 0.6 1.7 0.4
v -0.6 1.7 -0.3
v -0.5 1.7 -0.3
v -0.4 1.7 -0.3
v 0.5 1.7 -0.3
v 0.6 1.7 -0.3
v -0.5 1.7 -0.4
v -0.4 1.7 -0.4
v -0.3 1.7 -0.4
v -0.1 1.7 -0.4
v 0.1 1.7 -0.4
v 0.3 1.7 -0.4
v -0.3 1.7 -0.5
v -0.1 1.7 -0.5
v 0.1 1.7 -0.5
v 0.3 1.7 -0.5
v -0.1 1.8 0.5
v 0.1 1.8 0.5
v -0.5 1.8 0.4
v -0.3 1.8 0.4
v -0.1 1.8 0.4
v 0.1 1.8 0.4
v 0.3 1.8 0.4
v 0.5 1.8 0.4
v -0.5 1.8 -0.3
v -0.4 1.8 -0.3
v -0.4 1.8 -0.4
v -0.3 1.8 -0.4
v -0.1 1.8 -0.4
v 0.1 1.8 -0.4
v 0.3 1.8 -0.4
v 0.5 1.8 -0.4
v -0.1 1.8 -0.5
v 0.1 1.8 -0.5
v -0.3 1.9 0.4
v -0.2 1.9 0.4
v 0.2 1.9 0.4
v 0.3 1.9 0.4
v -0.3 1.9 -0.4
v -0.2 1.9 -0.4
v 0.2 1.9 -0.4
v 0.3 1.9 -0.4
v -0.2 2 0.4
v 0.2 2 0.4
v -0.2 2 -0.4
v 0.2 2 -0.4

# faces
f 3/7/1 2/7/1 1/7/1
f 4/7/1 2/7/1 3/7/1
f 8/4/1 6/4/1 5/4/1
f 9/4/1 6/4/1 8/4/1
f 11/7/1 8/7/1 7/7/1
f 12/7/1 8/7/1 11/7/1
f 13/7/1 10/7/1 9/7/1
f 14/7/1 10/7/1 13/7/1
f 15/7/1 13/7/1 12/7/1
f 16/7/1 13/7/1 15/7/1
f 21/5/1 18/5/1 17/5/1
f 22/2/1 19/2/1 18/2/1
f 22/5/1 18/5/1 21/5/1
f 23/8/1 20/8/1 19/8/1
f 23/2/1 19/2/1 22/2/1
f 24/8/1 20/8/1 23/8/1
f 28/2/1 26/2/1 25/2/1
f 29/4/1 27/4/1 26/4/1
f 29/2/1 26/2/1 28/2/1
f 30/4/1 27/4/1 29/4/1
f 31/4/1 27/4/1 30/4/1
f 32/4/1 27/4/1 31/4/1
f 37/7/1 33/7/1 32/7/1
f 38/7/1 35/7/1 34/7/1
f 39/7/1 35/7/1 38/7/1
f 40/7/1 37/7/1 36/7/1
f 40/7/1 33/7/1 37/7/1
f 41/7/1 33/7/1 40/7/1
f 43/7/1 40/7/1 36/7/1
f 44/7/1 40/7/1 43/7/1
f 45/7/1 43/7/1 42/7/1
f 46/7/1 43/7/1 45/7/1
f 50/2/1 48/2/1 47/2/1
f 51/4/1 49/4/1 48/4/1
f 51/2/1 48/2/1 50/2/1
f 52/4/1 49/4/1 51/4/1
f 55/7/1 54/7/1 53/7/1
f 56/7/1 54/7/1 55/7/1
f 59/5/1 58/5/1 57/5/1
f 60/5/1 58/5/1 59/5/1
f 61/5/1 58/5/1 60/5/1
f 62/5/1 58/5/1 61/5/1
f 64/3/1 62/3/1 61/3/1
f 65/3/1 62/3/1 64/3/1
f 67/5/1 65/5/1 64/5/1
f 67/5/1 66/5/1 65/5/1
f 67/5/1 64/5/1 63/5/1
f 68/5/1 66/5/1 67/5/1
f 69/3/1 68/3/1 67/3/1
f 70/3/1 68/3/1 69/3/1
f 71/3/1 68/3/1 70/3/1
f 74/3/1 68/3/1 71/3/1
f 75/3/1 73/3/1 72/3/1
f 76/8/1 74/8/1 73/8/1
f 76/3/1 73/3/1 75/3/1
f 77/8/1 74/8/1 76/8/1
f 78/3/1 68/3/1 74/3/1
f 78/8/1 74/8/1 77/8/1
f 79/3/1 68/3/1 78/3/1
f 81/4/1 80/4/1 79/4/1
f 82/4/1 80/4/1 81/4/1
f 85/7/1 84/7/1 83/7/1
f 86/7/1 84/7/1 85/7/1
f 91/7/1 88/7/1 87/7/1
f 92/7/1 88/7/1 91/7/1
f 93/7/1 90/7/1 89/7/1
f 94/7/1 90/7/1 93/7/1
f 97/7/1 96/7/1 95/7/1
f 98/7/1 96/7/1 97/7/1
f 101/7/1 100/7/1 99/7/1
f 102/7/1 100/7/1 101/7/1
f 107/7/1 104/7/1 103/7/1
f 108/7/1 104/7/1 107/7/1
f 109/7/1 106/7/1 105/7/1
f 110/7/1 106/7/1 109/7/1
f 114/5/1 112/5/1 111/5/1
f 115/3/1 113/3/1 112/3/1
f 115/5/1 112/5/1 114/5/1
f 116/3/1 113/3/1 115/3/1
f 117/3/1 113/3/1 116/3/1
f 118/5/1 114/5/1 111/5/1
f 119/5/1 114/5/1 118/5/1
f 122/7/1 121/7/1 120/7/1
f 123/7/1 121/7/1 122/7/1
f 127/4/1 125/4/1 124/4/1
f 128/4/1 125/4/1 127/4/1
f 129/7/1 127/7/1 126/7/1
f 130/7/1 127/7/1 129/7/1
f 131/4/2 132/4/2 134/4/2
f 134/4/2 132/4/2 135/4/2
f 133/7/2 134/7/2 136/7/2
f 136/7/2 134/7/2 137/7/2
f 138/5/2 139/5/2 140/5/2
f 140/5/2 139/5/2 141/5/2
f 142/7/2 143/7/2 144/7/2
f 144/7/2 143/7/2 145/7/2
f 146/5/2 147/5/2 148/5/2
f 148/5/2 147/5/2 149/5/2
f 149/5/2 147/5/2 150/5/2
f 150/5/2 147/5/2 151/5/2
f 150/3/2 151/3/2 152/3/2
f 152/3/2 151/3/2 153/3/2
f 154/7/2 155/7/2 158/7/2
f 158/7/2 155/7/2 159/7/2
f 156/7/2 157/7/2 160/7/2
f 160/7/2 157/7/2 161/7/2
f 162/7/2 163/7/2 164/7/2
f 164/7/2 163/7/2 165/7/2
f 166/5/2 167/5/2 169/5/2
f 167/3/2 168/3/2 170/3/2
f 169/5/2 167/5/2 170/5/2
f 170/3/2 168/3/2 171/3/2
f 171/3/2 168/3/2 172/3/2
f 166/5/2 169/5/2 174/5/2
f 174/5/2 169/5/2 175/5/2
f 170/5/2 171/5/2 176/5/2
f 176/5/2 171/5/2 177/5/2
f 172/5/2 173/5/2 178/5/2
f 178/5/2 173/5/2 179/5/2
f 176/3/2 177/3/2 180/3/2
f 178/3/2 179/3/2 181/3/2
f 176/3/2 180/3/2 182/3/2
f 181/3/2 179/3/2 183/3/2
f 176/3/2 182/3/2 184/3/2
f 182/3/2 183/3/2 184/3/2
f 184/3/2 183/3/2 185/3/2
f 183/3/2 179/3/2 186/3/2
f 185/3/2 183/3/2 186/3/2
f 186/4/2 187/4/2 188/4/2
f 188/4/2 187/4/2 189/4/2
f 190/7/2 191/7/2 192/7/2
f 192/7/2 191/7/2 193/7/2
f 194/7/2 195/7/2 198/7/2
f 198/7/2 195/7/2 199/7/2
f 196/7/2 197/7/2 200/7/2
f 200/7/2 197/7/2 201/7/2
f 202/7/2 203/7/2 204/7/2
f 204/7/2 203/7/2 205/7/2
f 206/2/2 207/2/2 209/2/2
f 207/4/2 208/4/2 210/4/2
f 209/2/2 207/2/2 210/2/2
f 210/4/2 208/4/2 211/4/2
f 212/5/2 213/5/2 214/5/2
f 214/5/2 213/5/2 215/5/2
f 214/2/2 215/2/2 216/2/2
f 216/2/2 215/2/2 217/2/2
f 216/8/2 217/8/2 218/8/2
f 218/8/2 217/8/2 219/8/2
f 220/2/2 221/2/2 223/2/2
f 221/4/2 222/4/2 224/4/2
f 223/2/2 221/2/2 224/2/2
f 224/4/2 222/4/2 225/4/2
f 225/4/2 222/4/2 226/4/2
f 226/4/2 222/4/2 227/4/2
f 227/7/2 228/7/2 232/7/2
f 229/7/2 230/7/2 233/7/2
f 233/7/2 230/7/2 234/7/2
f 231/7/2 232/7/2 235/7/2
f 232/7/2 228/7/2 235/7/2
f 235/7/2 228/7/2 236/7/2
f 231/7/2 235/7/2 238/7/2
f 237/7/2 238/7/2 239/7/2
f 238/7/2 235/7/2 240/7/2
f 239/7/2 238/7/2 240/7/2
f 241/4/2 242/4/2 244/4/2
f 244/4/2 242/4/2 245/4/2
f 243/7/2 244/7/2 247/7/2
f 247/7/2 244/7/2 248/7/2
f 245/7/2 246/7/2 249/7/2
f 249/7/2 246/7/2 250/7/2
f 251/7/2 252/7/2 253/7/2
f 253/7/2 252/7/2 254/7/2
f 255/7/2 256/7/2 257/7/2
f 257/7/2 256/7/2 258/7/2
f 261/7/3 260/7/3 259/7/3
f 263/7/3 261/7/3 259/7/3
f 263/7/3 262/7/3 261/7/3
f 264/7/3 262/7/3 263/7/3
f 265/7/3 262/7/3 264/7/3
f 267/7/3 265/7/3 264/7/3
f 267/7/3 266/7/3 265/7/3
f 268/7/3 266/7/3 267/7/3
f 269/7/3 266/7/3 268/7/3
f 271/7/3 269/7/3 268/7/3
f 271/7/3 270/7/3 269/7/3
f 272/7/3 270/7/3 271/7/3
f 274/7/3 271/7/3 268/7/3
f 275/7/3 271/7/3 274/7/3
f 275/7/3 274/7/3 273/7/3
f 276/7/3 271/7/3 275/7/3
f 278/7/3 275/7/3 273/7/3
f 279/7/3 275/7/3 278/7/3
f 279/7/3 278/7/3 277/7/3
f 280/7/3 275/7/3 279/7/3
f 281/7/3 279/7/3 277/7/3
f 282/7/3 279/7/3 281/7/3
f 286/7/3 284/7/3 283/7/3
f 287/7/3 284/7/3 286/7/3
f 289/7/3 288/7/3 287/7/3
f 290/7/3 288/7/3 289/7/3
f 291/7/3 288/7/3 290/7/3
f 293/4/3 286/4/3 285/4/3
f 294/4/3 286/4/3 293/4/3
f 296/7/3 292/7/3 291/7/3
f 296/7/3 291/7/3 290/7/3
f 297/7/3 292/7/3 296/7/3
f 298/7/3 292/7/3 297/7/3
f 300/4/3 295/4/3 294/4/3
f 302/7/3 299/7/3 298/7/3
f 302/7/3 298/7/3 297/7/3
f 304/7/3 302/7/3 297/7/3
f 304/7/3 303/7/3 302/7/3
f 305/7/3 303/7/3 304/7/3
f 309/7/3 303/7/3 305/7/3
f 310/4/3 301/4/3 300/4/3
f 310/4/3 300/4/3 294/4/3
f 311/4/3 301/4/3 310/4/3
f 312/7/3 309/7/3 308/7/3
f 312/7/3 303/7/3 309/7/3
f 313/7/3 303/7/3 312/7/3
f 314/5/3 307/5/3 306/5/3
f 315/5/3 307/5/3 314/5/3
f 317/7/3 312/7/3 308/7/3
f 318/7/3 312/7/3 317/7/3
f 319/7/3 312/7/3 318/7/3
f 321/4/3 310/4/3 294/4/3
f 322/4/3 310/4/3 321/4/3
f 324/7/3 318/7/3 317/7/3
f 324/7/3 317/7/3 316/7/3
f 325/7/3 318/7/3 324/7/3
f 326/7/3 318/7/3 325/7/3
f 327/4/3 321/4/3 320/4/3
f 328/4/3 321/4/3 327/4/3
f 329/7/3 324/7/3 323/7/3
f 329/7/3 325/7/3 324/7/3
f 330/7/3 325/7/3 329/7/3
f 331/7/3 325/7/3 330/7/3
f 332/7/3 329/7/3 328/7/3
f 332/7/3 330/7/3 329/7/3
f 333/7/3 330/7/3 332/7/3
f 339/2/3 337/2/3 336/2/3
f 340/2/3 337/2/3 339/2/3
f 342/5/3 335/5/3 334/5/3
f 343/5/3 335/5/3 342/5/3
f 344/2/3 341/2/3 340/2/3
f 344/2/3 339/2/3 338/2/3
f 344/2/3 340/2/3 339/2/3
f 345/2/3 341/2/3 344/2/3
f 346/2/3 344/2/3 338/2/3
f 346/9/3 345/9/3 344/9/3
f 347/2/3 341/2/3 345/2/3
f 347/9/3 345/9/3 346/9/3
f 348/2/3 346/2/3 338/2/3
f 349/2/3 346/2/3 348/2/3
f 350/10/3 347/10/3 346/10/3
f 350/2/3 346/2/3 349/2/3
f 351/2/3 341/2/3 347/2/3
f 351/10/3 347/10/3 350/10/3
f 352/1/3 349/1/3 348/1/3
f 352/2/3 348/2/3 338/2/3
f 353/2/3 350/2/3 349/2/3
f 353/1/3 349/1/3 352/1/3
f 353/2/3 351/2/3 350/2/3
f 354/2/3 351/2/3 353/2/3
f 355/2/3 341/2/3 351/2/3
f 355/2/3 351/2/3 354/2/3
f 356/2/3 354/2/3 353/2/3
f 356/2/3 353/2/3 352/2/3
f 356/10/3 355/10/3 354/10/3
f 357/2/3 341/2/3 355/2/3
f 357/10/3 355/10/3 356/10/3
f 358/2/3 356/2/3 352/2/3
f 358/9/3 357/9/3 356/9/3
f 359/2/3 341/2/3 357/2/3
f 359/9/3 357/9/3 358/9/3
f 360/2/3 352/2/3 338/2/3
f 360/2/3 358/2/3 352/2/3
f 360/2/3 359/2/3 358/2/3
f 361/2/3 359/2/3 360/2/3
f 362/2/3 341/2/3 359/2/3
f 362/2/3 359/2/3 361/2/3
f 363/2/3 341/2/3 362/2/3
f 364/2/3 362/2/3 361/2/3
f 365/2/3 362/2/3 364/2/3
f 373/3/3 370/3/3 369/3/3
f 373/3/3 372/3/3 371/3/3
f 373/3/3 371/3/3 370/3/3
f 374/3/3 372/3/3 373/3/3
f 375/5/3 367/5/3 366/5/3
f 376/5/3 367/5/3 375/5/3
f 377/5/3 369/5/3 368/5/3
f 378/3/3 373/3/3 369/3/3
f 378/5/3 369/5/3 377/5/3
f 379/3/3 373/3/3 378/3/3
f 380/8/3 374/8/3 373/8/3
f 380/3/3 373/3/3 379/3/3
f 381/8/3 374/8/3 380/8/3
f 382/6/3 378/6/3 377/6/3
f 383/3/3 379/3/3 378/3/3
f 383/6/3 378/6/3 382/6/3
f 384/8/3 380/8/3 379/8/3
f 384/3/3 379/3/3 383/3/3
f 385/2/3 381/2/3 380/2/3
f 385/8/3 380/8/3 384/8/3
f 386/2/3 381/2/3 385/2/3
f 387/3/3 384/3/3 383/3/3
f 387/3/3 385/3/3 384/3/3
f 387/8/3 386/8/3 385/8/3
f 388/8/3 386/8/3 387/8/3
f 389/5/3 383/5/3 382/5/3
f 390/3/3 387/3/3 383/3/3
f 390/5/3 383/5/3 389/5/3
f 390/3/3 388/3/3 387/3/3
f 391/3/3 388/3/3 390/3/3
f 395/5/3 393/5/3 392/5/3
f 396/3/3 394/3/3 393/3/3
f 396/5/3 393/5/3 395/5/3
f 397/3/3 394/3/3 396/3/3
f 402/5/3 399/5/3 398/5/3
f 403/2/3 400/2/3 399/2/3
f 403/5/3 399/5/3 402/5/3
f 404/8/3 401/8/3 400/8/3
f 404/2/3 400/2/3 403/2/3
f 405/8/3 401/8/3 404/8/3
f 406/5/4 407/5/4 408/5/4
f 408/5/4 407/5/4 409/5/4
f 410/8/4 411/8/4 415/8/4
f 415/8/4 411/8/4 416/8/4
f 412/5/4 413/5/4 417/5/4
f 413/3/4 414/3/4 418/3/4
f 417/5/4 413/5/4 418/5/4
f 418/3/4 414/3/4 419/3/4
f 420/3/4 421/3/4 422/3/4
f 422/3/4 421/3/4 423/3/4
f 423/5/4 424/5/4 427/5/4
f 424/2/4 425/2/4 428/2/4
f 427/5/4 424/5/4 428/5/4
f 425/8/4 426/8/4 429/8/4
f 428/2/4 425/2/4 429/2/4
f 429/8/4 426/8/4 430/8/4
f 431/4/4 432/4/4 435/4/4
f 435/4/4 432/4/4 436/4/4
f 434/3/4 435/3/4 437/3/4
f 437/3/4 435/3/4 438/3/4
f 434/3/4 437/3/4 439/3/4
f 437/8/4 438/8/4 439/8/4
f 439/8/4 438/8/4 440/8/4
f 433/5/4 434/5/4 441/5/4
f 434/3/4 439/3/4 442/3/4
f 441/5/4 434/5/4 442/5/4
f 439/3/4 440/3/4 442/3/4
f 442/3/4 440/3/4 443/3/4
f 443/4/4 444/4/4 445/4/4
f 445/4/4 444/4/4 446/4/4
f 447/7/4 448/7/4 450/7/4
f 450/7/4 448/7/4 451/7/4
f 449/4/4 450/4/4 453/4/4
f 453/4/4 450/4/4 454/4/4
f 451/7/4 452/7/4 455/7/4
f 455/7/4 452/7/4 456/7/4
f 456/7/4 457/7/4 458/7/4
f 458/7/4 457/7/4 459/7/4
f 460/4/4 461/4/4 462/4/4
f 462/4/4 461/4/4 463/4/4
f 464/4/4 465/4/4 468/4/4
f 468/4/4 465/4/4 469/4/4
f 466/7/4 467/7/4 470/7/4
f 470/7/4 467/7/4 471/7/4
f 471/7/4 467/7/4 472/7/4
f 469/7/4 470/7/4 473/7/4
f 470/7/4 471/7/4 473/7/4
f 473/7/4 471/7/4 474/7/4
f 475/7/4 476/7/4 478/7/4
f 478/7/4 476/7/4 479/7/4
f 480/7/4 481/7/4 482/7/4
f 477/4/4 478/4/4 484/4/4
f 484/4/4 478/4/4 485/4/4
f 482/7/4 483/7/4 486/7/4
f 480/7/4 482/7/4 486/7/4
f 486/7/4 483/7/4 487/7/4
f 487/7/4 483/7/4 488/7/4
f 488/7/4 489/7/4 490/7/4
f 487/7/4 488/7/4 490/7/4
f 487/7/4 490/7/4 492/7/4
f 490/7/4 491/7/4 492/7/4
f 492/7/4 491/7/4 493/7/4
f 493/7/4 491/7/4 495/7/4
f 495/7/4 491/7/4 496/7/4
f 494/7/4 495/7/4 496/7/4
f 496/7/4 491/7/4 497/7/4
f 477/4/4 484/4/4 498/4/4
f 494/7/4 496/7/4 501/7/4
f 501/7/4 496/7/4 502/7/4
f 502/7/4 496/7/4 503/7/4
f 498/4/4 499/4/4 504/4/4
f 477/4/4 498/4/4 504/4/4
f 504/4/4 499/4/4 505/4/4
f 501/7/4 502/7/4 507/7/4
f 500/7/4 501/7/4 507/7/4
f 507/7/4 502/7/4 508/7/4
f 505/7/4 506/7/4 509/7/4
f 509/7/4 506/7/4 510/7/4
f 511/7/4 512/7/4 514/7/4
f 514/7/4 512/7/4 515/7/4
f 513/7/4 514/7/4 517/7/4
f 515/7/4 516/7/4 517/7/4
f 514/7/4 515/7/4 517/7/4
f 513/7/4 517/7/4 519/7/4
f 517/7/4 518/7/4 519/7/4
f 519/7/4 518/7/4 520/7/4
f 513/7/4 519/7/4 521/7/4
f 521/7/4 519/7/4 522/7/4
f 522/7/4 519/7/4 523/7/4
f 523/7/4 519/7/4 524/7/4
f 522/7/4 523/7/4 525/7/4
f 525/7/4 523/7/4 526/7/4
f 529/5/5 528/5/5 527/5/5
f 530/5/5 528/5/5 529/5/5
f 533/5/5 532/5/5 531/5/5
f 534/5/5 532/5/5 533/5/5
f 535/3/5 534/3/5 533/3/5
f 536/3/5 534/3/5 535/3/5
f 540/5/5 538/5/5 537/5/5
f 541/6/5 539/6/5 538/6/5
f 541/5/5 538/5/5 540/5/5
f 542/6/5 539/6/5 541/6/5
f 546/3/5 542/3/5 541/3/5
f 547/3/5 542/3/5 546/3/5
f 548/5/5 544/5/5 543/5/5
f 549/5/5 544/5/5 548/5/5
f 550/5/5 547/5/5 546/5/5
f 550/5/5 546/5/5 545/5/5
f 550/5/5 548/5/5 547/5/5
f 551/5/5 548/5/5 550/5/5
f 554/5/5 553/5/5 552/5/5
f 555/5/5 553/5/5 554/5/5
f 556/2/5 555/2/5 554/2/5
f 557/2/5 555/2/5 556/2/5
f 558/8/5 557/8/5 556/8/5
f 559/8/5 557/8/5 558/8/5
f 562/2/5 561/2/5 560/2/5
f 563/2/5 561/2/5 562/2/5
f 564/2/5 561/2/5 563/2/5
f 565/2/5 561/2/5 564/2/5
f 566/2/5 561/2/5 565/2/5
f 567/2/5 561/2/5 566/2/5
f 568/2/5 562/2/5 560/2/5
f 569/2/5 568/2/5 560/2/5
f 570/2/5 568/2/5 569/2/5
f 571/2/5 561/2/5 567/2/5
f 572/2/5 561/2/5 571/2/5
f 573/4/5 570/4/5 569/4/5
f 574/4/5 573/4/5 569/4/5
f 575/4/5 573/4/5 574/4/5
f 578/4/5 572/4/5 571/4/5
f 579/4/5 572/4/5 578/4/5
f 580/4/5 577/4/5 576/4/5
f 580/4/5 578/4/5 577/4/5
f 580/4/5 576/4/5 575/4/5
f 581/4/5 578/4/5 580/4/5
f 586/2/5 583/2/5 582/2/5
f 587/2/5 583/2/5 586/2/5
f 588/2/5 585/2/5 584/2/5
f 589/2/5 585/2/5 588/2/5
f 590/4/5 587/4/5 586/4/5
f 593/4/5 589/4/5 588/4/5
f 594/4/5 591/4/5 590/4/5
f 595/4/5 593/4/5 592/4/5
f 596/4/5 594/4/5 590/4/5
f 596/4/5 595/4/5 594/4/5
f 596/4/5 590/4/5 586/4/5
f 597/4/5 593/4/5 595/4/5
f 597/4/5 595/4/5 596/4/5
f 597/4/5 589/4/5 593/4/5
f 602/4/5 599/4/5 598/4/5
f 603/4/5 599/4/5 602/4/5
f 604/4/5 601/4/5 600/4/5
f 605/4/5 601/4/5 604/4/5
f 606/4/5 602/4/5 598/4/5
f 607/4/5 601/4/5 605/4/5
f 608/4/5 606/4/5 598/4/5
f 609/4/5 606/4/5 608/4/5
f 610/4/5 601/4/5 607/4/5
f 611/4/5 601/4/5 610/4/5
f 614/7/5 613/7/5 612/7/5
f 615/7/5 613/7/5 614/7/5
f 621/7/5 617/7/5 616/7/5
f 622/7/5 617/7/5 621/7/5
f 623/7/5 619/7/5 618/7/5
f 624/7/5 619/7/5 623/7/5
f 626/4/5 623/4/5 622/4/5
f 627/4/5 623/4/5 626/4/5
f 628/7/5 621/7/5 620/7/5
f 629/7/5 621/7/5 628/7/5
f 632/7/5 625/7/5 624/7/5
f 633/7/5 625/7/5 632/7/5
f 634/7/5 630/7/5 629/7/5
f 635/7/5 630/7/5 634/7/5
f 638/7/5 632/7/5 631/7/5
f 639/7/5 632/7/5 638/7/5
f 640/7/5 636/7/5 635/7/5
f 641/7/5 636/7/5 640/7/5
f 642/7/5 638/7/5 637/7/5
f 643/7/5 638/7/5 642/7/5
f 648/7/5 645/7/5 644/7/5
f 649/7/5 645/7/5 648/7/5
f 650/7/5 647/7/5 646/7/5
f 651/7/5 647/7/5 650/7/5
f 654/7/5 653/7/5 652/7/5
f 655/7/5 653/7/5 654/7/5
f 656/5/6 657/5/6 658/5/6
f 658/5/6 657/5/6 659/5/6
f 660/5/6 661/5/6 662/5/6
f 662/5/6 661/5/6 663/5/6
f 664/5/6 665/5/6 666/5/6
f 666/5/6 665/5/6 667/5/6
f 668/5/6 669/5/6 670/5/6
f 670/5/6 669/5/6 671/5/6
f 670/2/6 671/2/6 672/2/6
f 672/2/6 671/2/6 673/2/6
f 672/8/6 673/8/6 676/8/6
f 676/8/6 673/8/6 677/8/6
f 674/8/6 675/8/6 678/8/6
f 678/8/6 675/8/6 679/8/6
f 680/7/6 681/7/6 685/7/6
f 685/7/6 681/7/6 686/7/6
f 682/7/6 683/7/6 687/7/6
f 687/7/6 683/7/6 688/7/6
f 684/7/6 685/7/6 689/7/6
f 689/7/6 685/7/6 690/7/6
f 690/7/6 691/7/6 694/7/6
f 694/7/6 691/7/6 695/7/6
f 692/7/6 693/7/6 696/7/6
f 696/7/6 693/7/6 697/7/6
f 698/7/6 699/7/6 702/7/6
f 702/7/6 699/7/6 703/7/6
f 700/7/6 701/7/6 704/7/6
f 704/7/6 701/7/6 705/7/6
f 706/7/6 707/7/6 708/7/6
f 708/7/6 707/7/6 709/7/6
f 710/7/6 711/7/6 714/7/6
f 714/7/6 711/7/6 715/7/6
f 712/7/6 713/7/6 716/7/6
f 716/7/6 713/7/6 717/7/6
f 718/7/6 719/7/6 724/7/6
f 724/7/6 719/7/6 725/7/6
f 720/7/6 721/7/6 726/7/6
f 726/7/6 721/7/6 727/7/6
f 722/7/6 723/7/6 730/7/6
f 730/7/6 723/7/6 731/7/6
f 728/7/6 729/7/6 733/7/6
f 733/7/6 729/7/6 734/7/6
f 731/7/6 732/7/6 735/7/6
f 735/7/6 732/7/6 736/7/6
f 737/7/6 738/7/6 741/7/6
f 741/7/6 738/7/6 742/7/6
f 739/7/6 740/7/6 743/7/6
f 743/7/6 740/7/6 744/7/6
f 745/7/6 746/7/6 749/7/6
f 749/7/6 746/7/6 750/7/6
f 747/7/6 748/7/6 753/7/6
f 753/7/6 748/7/6 754/7/6
f 754/7/6 748/7/6 755/7/6
f 755/7/6 748/7/6 756/7/6
f 751/7/6 752/7/6 759/7/6
f 759/7/6 752/7/6 760/7/6
f 757/7/6 758/7/6 761/7/6
f 761/7/6 758/7/6 762/7/6
f 763/7/6 764/7/6 767/7/6
f 767/7/6 764/7/6 768/7/6
f 765/7/6 766/7/6 769/7/6
f 769/7/6 766/7/6 770/7/6
f 771/7/6 772/7/6 773/7/6
f 773/7/6 772/7/6 774/7/6
