# MagicaVoxel @ Ephtracy

# group
o 

# material
mtllib Builderman.vox.mtl
usemtl palette

# normals
vn -1 0 0
vn 1 0 0
vn 0 0 1
vn 0 0 -1
vn 0 -1 0
vn 0 1 0

# texcoords
vt 0.0839844 0.5
vt 0.287109 0.5
vt 0.291016 0.5
vt 0.310547 0.5
vt 0.365234 0.5
vt 0.373047 0.5
vt 0.478516 0.5
vt 0.748047 0.5
vt 0.958984 0.5
vt 0.994141 0.5

# verts
v -0.7 1.4 0.4
v -0.7 1.4 -0.3
v -0.7 1.5 0.4
v -0.7 1.5 -0.3
v -0.6 1.3 0.4
v -0.6 1.3 -0.3
v -0.6 1.4 0.5
v -0.6 1.4 0.4
v -0.6 1.4 -0.3
v -0.6 1.4 -0.4
v -0.6 1.5 0.5
v -0.6 1.5 0.4
v -0.6 1.5 -0.3
v -0.6 1.5 -0.4
v -0.6 1.7 0.4
v -0.6 1.7 -0.3
v -0.5 0.3 0.1
v -0.5 0.3 -0.1
v -0.5 0.4 0.1
v -0.5 0.4 -0.1
v -0.5 0.5 0.1
v -0.5 0.5 -0.1
v -0.5 0.7 0.1
v -0.5 0.7 -0.1
v -0.5 0.9 0.3
v -0.5 0.9 0
v -0.5 0.9 -0.4
v -0.5 1.3 0.3
v -0.5 1.3 0
v -0.5 1.3 -0.3
v -0.5 1.4 -0.3
v -0.5 1.4 -0.4
v -0.5 1.4 -0.5
v -0.5 1.5 0.5
v -0.5 1.5 0.4
v -0.5 1.5 -0.3
v -0.5 1.5 -0.4
v -0.5 1.6 0.5
v -0.5 1.6 0.4
v -0.5 1.6 -0.4
v -0.5 1.6 -0.5
v -0.5 1.7 0.4
v -0.5 1.7 -0.3
v -0.5 1.7 -0.4
v -0.5 1.8 0.4
v -0.5 1.8 -0.3
v -0.4 0.8 0.3
v -0.4 0.8 0
v -0.4 0.8 -0.2
v -0.4 0.9 0.3
v -0.4 0.9 0
v -0.4 0.9 -0.2
v -0.4 1.7 -0.3
v -0.4 1.7 -0.4
v -0.4 1.8 -0.3
v -0.4 1.8 -0.4
v -0.3 0 0.2
v -0.3 0 -0.1
v -0.3 0.1 0.2
v -0.3 0.1 0.1
v -0.3 0.2 0.1
v -0.3 0.2 -0.1
v -0.3 0.3 0.2
v -0.3 0.3 0.1
v -0.3 0.3 -0.1
v -0.3 0.3 -0.2
v -0.3 0.4 0.2
v -0.3 0.4 0.1
v -0.3 0.4 -0.1
v -0.3 0.4 -0.2
v -0.3 0.5 0.1
v -0.3 0.5 -0.1
v -0.3 0.7 0.1
v -0.3 0.7 -0.1
v -0.3 0.8 0.2
v -0.3 0.8 0.1
v -0.3 0.8 0
v -0.3 0.8 -0.1
v -0.3 0.8 -0.2
v -0.3 0.8 -0.3
v -0.3 0.9 -0.2
v -0.3 0.9 -0.3
v -0.3 1.3 -0.4
v -0.3 1.3 -0.5
v -0.3 1.4 -0.4
v -0.3 1.4 -0.5
v -0.3 1.6 0.5
v -0.3 1.6 0.4
v -0.3 1.6 -0.4
v -0.3 1.6 -0.5
v -0.3 1.7 0.5
v -0.3 1.7 0.4
v -0.3 1.7 -0.4
v -0.3 1.7 -0.5
v -0.3 1.8 0.4
v -0.3 1.8 -0.4
v -0.3 1.9 0.4
v -0.3 1.9 -0.4
v -0.2 1.9 0.4
v -0.2 1.9 -0.4
v -0.2 2 0.4
v -0.2 2 -0.4
v -0.1 1.7 0.5
v -0.1 1.7 0.4
v -0.1 1.7 -0.4
v -0.1 1.7 -0.5
v -0.1 1.8 0.5
v -0.1 1.8 0.4
v -0.1 1.8 -0.4
v -0.1 1.8 -0.5
v 0.1 0 0.2
v 0.1 0 -0.1
v 0.1 0.1 0.2
v 0.1 0.1 0.1
v 0.1 0.2 0.1
v 0.1 0.2 -0.1
v 0.1 0.3 0.1
v 0.1 0.3 -0.1
v 0.2 1.5 0.5
v 0.2 1.5 0.4
v 0.2 1.6 0.5
v 0.2 1.6 0.4
v 0.4 1.3 0.4
v 0.4 1.3 0.3
v 0.4 1.4 0.5
v 0.4 1.4 0.4
v 0.4 1.4 0.3
v 0.4 1.5 0.5
v 0.4 1.5 0.4
v -0.4 1.3 0.4
v -0.4 1.3 0.3
v -0.4 1.4 0.5
v -0.4 1.4 0.4
v -0.4 1.4 0.3
v -0.4 1.5 0.5
v -0.4 1.5 0.4
v -0.2 1.5 0.5
v -0.2 1.5 0.4
v -0.2 1.6 0.5
v -0.2 1.6 0.4
v -0.1 0 0.2
v -0.1 0 -0.1
v -0.1 0.1 0.2
v -0.1 0.1 0.1
v -0.1 0.2 0.1
v -0.1 0.2 -0.1
v -0.1 0.3 0.1
v -0.1 0.3 -0.1
v 0.1 1.7 0.5
v 0.1 1.7 0.4
v 0.1 1.7 -0.4
v 0.1 1.7 -0.5
v 0.1 1.8 0.5
v 0.1 1.8 0.4
v 0.1 1.8 -0.4
v 0.1 1.8 -0.5
v 0.2 1.9 0.4
v 0.2 1.9 -0.4
v 0.2 2 0.4
v 0.2 2 -0.4
v 0.3 0 0.2
v 0.3 0 -0.1
v 0.3 0.1 0.2
v 0.3 0.1 0.1
v 0.3 0.2 0.1
v 0.3 0.2 -0.1
v 0.3 0.3 0.2
v 0.3 0.3 0.1
v 0.3 0.3 -0.1
v 0.3 0.3 -0.2
v 0.3 0.4 0.2
v 0.3 0.4 0.1
v 0.3 0.4 -0.1
v 0.3 0.4 -0.2
v 0.3 0.5 0.1
v 0.3 0.5 -0.1
v 0.3 0.7 0.1
v 0.3 0.7 -0.1
v 0.3 0.8 0.2
v 0.3 0.8 0
v 0.3 0.8 -0.2
v 0.3 0.8 -0.3
v 0.3 0.9 -0.2
v 0.3 0.9 -0.3
v 0.3 1.3 -0.4
v 0.3 1.3 -0.5
v 0.3 1.4 -0.4
v 0.3 1.4 -0.5
v 0.3 1.6 0.5
v 0.3 1.6 0.4
v 0.3 1.6 -0.4
v 0.3 1.6 -0.5
v 0.3 1.7 0.5
v 0.3 1.7 0.4
v 0.3 1.7 -0.4
v 0.3 1.7 -0.5
v 0.3 1.8 0.4
v 0.3 1.8 -0.4
v 0.3 1.9 0.4
v 0.3 1.9 -0.4
v 0.4 0.8 0.3
v 0.4 0.8 0
v 0.4 0.8 -0.2
v 0.4 0.9 0.3
v 0.4 0.9 0
v 0.4 0.9 -0.2
v 0.5 0.3 0.1
v 0.5 0.3 -0.1
v 0.5 0.4 0.1
v 0.5 0.4 -0.1
v 0.5 0.5 0.1
v 0.5 0.5 -0.1
v 0.5 0.7 0.1
v 0.5 0.7 -0.1
v 0.5 0.9 0.3
v 0.5 0.9 0
v 0.5 0.9 -0.4
v 0.5 1.3 0.3
v 0.5 1.3 0
v 0.5 1.3 -0.3
v 0.5 1.4 -0.3
v 0.5 1.4 -0.4
v 0.5 1.4 -0.5
v 0.5 1.5 0.5
v 0.5 1.5 0.4
v 0.5 1.5 -0.3
v 0.5 1.5 -0.4
v 0.5 1.6 0.5
v 0.5 1.6 0.4
v 0.5 1.6 -0.4
v 0.5 1.6 -0.5
v 0.5 1.7 0.4
v 0.5 1.7 -0.3
v 0.5 1.8 0.4
v 0.5 1.8 -0.4
v 0.6 1.3 0.4
v 0.6 1.3 -0.3
v 0.6 1.4 0.5
v 0.6 1.4 0.4
v 0.6 1.4 -0.3
v 0.6 1.4 -0.4
v 0.6 1.5 0.5
v 0.6 1.5 0.4
v 0.6 1.5 -0.3
v 0.6 1.5 -0.4
v 0.6 1.6 0.4
v 0.6 1.6 -0.3
v 0.6 1.7 0.4
v 0.6 1.7 -0.3
v 0.7 1.4 0.4
v 0.7 1.4 -0.3
v 0.7 1.6 0.4
v 0.7 1.6 -0.3
v -0.6 1.4 0.5
v -0.6 1.5 0.5
v -0.5 1.5 0.5
v -0.5 1.6 0.5
v -0.4 1.4 0.5
v -0.4 1.5 0.5
v -0.3 1.6 0.5
v -0.3 1.7 0.5
v -0.2 1.5 0.5
v -0.2 1.6 0.5
v -0.1 1.7 0.5
v -0.1 1.8 0.5
v 0.1 1.7 0.5
v 0.1 1.8 0.5
v 0.2 1.5 0.5
v 0.2 1.6 0.5
v 0.3 1.6 0.5
v 0.3 1.7 0.5
v 0.4 1.4 0.5
v 0.4 1.5 0.5
v 0.5 1.5 0.5
v 0.5 1.6 0.5
v 0.6 1.4 0.5
v 0.6 1.5 0.5
v -0.7 1.4 0.4
v -0.7 1.5 0.4
v -0.6 1.3 0.4
v -0.6 1.4 0.4
v -0.6 1.5 0.4
v -0.6 1.7 0.4
v -0.5 1.5 0.4
v -0.5 1.6 0.4
v -0.5 1.7 0.4
v -0.5 1.8 0.4
v -0.4 1.3 0.4
v -0.4 1.4 0.4
v -0.4 1.5 0.4
v -0.3 1.6 0.4
v -0.3 1.7 0.4
v -0.3 1.8 0.4
v -0.3 1.9 0.4
v -0.2 1.5 0.4
v -0.2 1.6 0.4
v -0.2 1.9 0.4
v -0.2 2 0.4
v -0.1 1.7 0.4
v -0.1 1.8 0.4
v 0.1 1.7 0.4
v 0.1 1.8 0.4
v 0.2 1.5 0.4
v 0.2 1.6 0.4
v 0.2 1.9 0.4
v 0.2 2 0.4
v 0.3 1.6 0.4
v 0.3 1.7 0.4
v 0.3 1.8 0.4
v 0.3 1.9 0.4
v 0.4 1.3 0.4
v 0.4 1.4 0.4
v 0.4 1.5 0.4
v 0.5 1.5 0.4
v 0.5 1.6 0.4
v 0.5 1.7 0.4
v 0.5 1.8 0.4
v 0.6 1.3 0.4
v 0.6 1.4 0.4
v 0.6 1.5 0.4
v 0.6 1.6 0.4
v 0.6 1.7 0.4
v 0.7 1.4 0.4
v 0.7 1.6 0.4
v -0.5 0.9 0.3
v -0.5 1.3 0.3
v -0.4 0.8 0.3
v -0.4 0.9 0.3
v -0.4 1.3 0.3
v -0.4 1.4 0.3
v -0.3 1.1 0.3
v -0.3 1.3 0.3
v -0.2 1.1 0.3
v -0.2 1.3 0.3
v -0.1 0.9 0.3
v -0.1 1 0.3
v -0.1 1.1 0.3
v -0.1 1.3 0.3
v 0.1 0.9 0.3
v 0.1 1 0.3
v 0.1 1.1 0.3
v 0.1 1.3 0.3
v 0.2 1.1 0.3
v 0.2 1.3 0.3
v 0.3 1.1 0.3
v 0.3 1.3 0.3
v 0.4 0.8 0.3
v 0.4 0.9 0.3
v 0.4 1.3 0.3
v 0.4 1.4 0.3
v 0.5 0.9 0.3
v 0.5 1.3 0.3
v -0.3 0 0.2
v -0.3 0.1 0.2
v -0.3 0.3 0.2
v -0.3 0.4 0.2
v -0.3 0.8 0.2
v -0.2 0.7 0.2
v -0.2 0.8 0.2
v -0.1 0 0.2
v -0.1 0.1 0.2
v -0.1 0.3 0.2
v -0.1 0.4 0.2
v -0.1 0.6 0.2
v -0.1 0.7 0.2
v -0.1 0.8 0.2
v 0.1 0 0.2
v 0.1 0.1 0.2
v 0.1 0.3 0.2
v 0.1 0.4 0.2
v 0.1 0.6 0.2
v 0.1 0.7 0.2
v 0.1 0.8 0.2
v 0.2 0.7 0.2
v 0.2 0.8 0.2
v 0.3 0 0.2
v 0.3 0.1 0.2
v 0.3 0.3 0.2
v 0.3 0.4 0.2
v 0.3 0.8 0.2
v -0.5 0.3 0.1
v -0.5 0.4 0.1
v -0.5 0.5 0.1
v -0.5 0.7 0.1
v -0.3 0.1 0.1
v -0.3 0.2 0.1
v -0.3 0.3 0.1
v -0.3 0.4 0.1
v -0.3 0.5 0.1
v -0.3 0.7 0.1
v -0.1 0.1 0.1
v -0.1 0.2 0.1
v -0.1 0.3 0.1
v 0.1 0.1 0.1
v 0.1 0.2 0.1
v 0.1 0.3 0.1
v 0.3 0.1 0.1
v 0.3 0.2 0.1
v 0.3 0.3 0.1
v 0.3 0.4 0.1
v 0.3 0.5 0.1
v 0.3 0.7 0.1
v 0.5 0.3 0.1
v 0.5 0.4 0.1
v 0.5 0.5 0.1
v 0.5 0.7 0.1
v -0.5 0.3 -0.1
v -0.5 0.4 -0.1
v -0.5 0.5 -0.1
v -0.5 0.7 -0.1
v -0.3 0 -0.1
v -0.3 0.2 -0.1
v -0.3 0.3 -0.1
v -0.3 0.4 -0.1
v -0.3 0.5 -0.1
v -0.3 0.7 -0.1
v -0.1 0 -0.1
v -0.1 0.2 -0.1
v -0.1 0.3 -0.1
v 0.1 0 -0.1
v 0.1 0.2 -0.1
v 0.1 0.3 -0.1
v 0.3 0 -0.1
v 0.3 0.2 -0.1
v 0.3 0.3 -0.1
v 0.3 0.4 -0.1
v 0.3 0.5 -0.1
v 0.3 0.7 -0.1
v 0.5 0.3 -0.1
v 0.5 0.4 -0.1
v 0.5 0.5 -0.1
v 0.5 0.7 -0.1
v -0.4 0.8 -0.2
v -0.4 0.9 -0.2
v -0.3 0.3 -0.2
v -0.3 0.4 -0.2
v -0.3 0.8 -0.2
v -0.3 0.9 -0.2
v -0.1 0.7 -0.2
v -0.1 0.8 -0.2
v 0.1 0.7 -0.2
v 0.1 0.8 -0.2
v 0.3 0.3 -0.2
v 0.3 0.4 -0.2
v 0.3 0.8 -0.2
v 0.3 0.9 -0.2
v 0.4 0.8 -0.2
v 0.4 0.9 -0.2
v -0.7 1.4 -0.3
v -0.7 1.5 -0.3
v -0.6 1.3 -0.3
v -0.6 1.4 -0.3
v -0.6 1.5 -0.3
v -0.6 1.7 -0.3
v -0.5 1.3 -0.3
v -0.5 1.4 -0.3
v -0.5 1.5 -0.3
v -0.5 1.7 -0.3
v -0.5 1.8 -0.3
v -0.4 1.7 -0.3
v -0.4 1.8 -0.3
v -0.3 0.8 -0.3
v -0.3 0.9 -0.3
v 0.3 0.8 -0.3
v 0.3 0.9 -0.3
v 0.5 1.3 -0.3
v 0.5 1.4 -0.3
v 0.5 1.5 -0.3
v 0.5 1.7 -0.3
v 0.6 1.3 -0.3
v 0.6 1.4 -0.3
v 0.6 1.5 -0.3
v 0.6 1.6 -0.3
v 0.6 1.7 -0.3
v 0.7 1.4 -0.3
v 0.7 1.6 -0.3
v -0.6 1.4 -0.4
v -0.6 1.5 -0.4
v -0.5 0.9 -0.4
v -0.5 1.4 -0.4
v -0.5 1.5 -0.4
v -0.5 1.6 -0.4
v -0.5 1.7 -0.4
v -0.4 1.7 -0.4
v -0.4 1.8 -0.4
v -0.3 1.3 -0.4
v -0.3 1.4 -0.4
v -0.3 1.6 -0.4
v -0.3 1.7 -0.4
v -0.3 1.8 -0.4
v -0.3 1.9 -0.4
v -0.2 1.9 -0.4
v -0.2 2 -0.4
v -0.1 1.7 -0.4
v -0.1 1.8 -0.4
v 0.1 1.7 -0.4
v 0.1 1.8 -0.4
v 0.2 1.9 -0.4
v 0.2 2 -0.4
v 0.3 1.3 -0.4
v 0.3 1.4 -0.4
v 0.3 1.6 -0.4
v 0.3 1.7 -0.4
v 0.3 1.8 -0.4
v 0.3 1.9 -0.4
v 0.5 0.9 -0.4
v 0.5 1.4 -0.4
v 0.5 1.5 -0.4
v 0.5 1.6 -0.4
v 0.5 1.8 -0.4
v 0.6 1.4 -0.4
v 0.6 1.5 -0.4
v -0.5 1.4 -0.5
v -0.5 1.6 -0.5
v -0.3 1.3 -0.5
v -0.3 1.4 -0.5
v -0.3 1.6 -0.5
v -0.3 1.7 -0.5
v -0.1 1.7 -0.5
v -0.1 1.8 -0.5
v 0.1 1.7 -0.5
v 0.1 1.8 -0.5
v 0.3 1.3 -0.5
v 0.3 1.4 -0.5
v 0.3 1.6 -0.5
v 0.3 1.7 -0.5
v 0.5 1.4 -0.5
v 0.5 1.6 -0.5
v -0.3 0 0.2
v -0.1 0 0.2
v 0.1 0 0.2
v 0.3 0 0.2
v -0.3 0 -0.1
v -0.1 0 -0.1
v 0.1 0 -0.1
v 0.3 0 -0.1
v -0.3 0.3 0.2
v -0.1 0.3 0.2
v 0.1 0.3 0.2
v 0.3 0.3 0.2
v -0.5 0.3 0.1
v -0.3 0.3 0.1
v -0.1 0.3 0.1
v 0.1 0.3 0.1
v 0.3 0.3 0.1
v 0.5 0.3 0.1
v -0.5 0.3 -0.1
v -0.3 0.3 -0.1
v -0.1 0.3 -0.1
v 0.1 0.3 -0.1
v 0.3 0.3 -0.1
v 0.5 0.3 -0.1
v -0.3 0.3 -0.2
v 0.3 0.3 -0.2
v -0.4 0.8 0.3
v 0.4 0.8 0.3
v -0.3 0.8 0.2
v -0.2 0.8 0.2
v -0.1 0.8 0.2
v 0.1 0.8 0.2
v 0.2 0.8 0.2
v 0.3 0.8 0.2
v -0.3 0.8 0.1
v -0.4 0.8 0
v -0.3 0.8 0
v 0.3 0.8 0
v 0.4 0.8 0
v -0.3 0.8 -0.1
v -0.4 0.8 -0.2
v -0.3 0.8 -0.2
v -0.1 0.8 -0.2
v 0.1 0.8 -0.2
v 0.3 0.8 -0.2
v 0.4 0.8 -0.2
v -0.3 0.8 -0.3
v 0.3 0.8 -0.3
v -0.5 0.9 0.3
v -0.4 0.9 0.3
v 0.4 0.9 0.3
v 0.5 0.9 0.3
v -0.5 0.9 0
v -0.4 0.9 0
v 0.4 0.9 0
v 0.5 0.9 0
v -0.4 0.9 -0.2
v -0.3 0.9 -0.2
v 0.3 0.9 -0.2
v 0.4 0.9 -0.2
v -0.3 0.9 -0.3
v 0.3 0.9 -0.3
v -0.5 0.9 -0.4
v 0.5 0.9 -0.4
v -0.6 1.3 0.4
v -0.4 1.3 0.4
v 0.4 1.3 0.4
v 0.6 1.3 0.4
v -0.5 1.3 0.3
v -0.4 1.3 0.3
v 0.4 1.3 0.3
v 0.5 1.3 0.3
v -0.5 1.3 0
v 0.5 1.3 0
v -0.6 1.3 -0.3
v -0.5 1.3 -0.3
v 0.5 1.3 -0.3
v 0.6 1.3 -0.3
v -0.3 1.3 -0.4
v 0.3 1.3 -0.4
v -0.3 1.3 -0.5
v 0.3 1.3 -0.5
v -0.6 1.4 0.5
v -0.4 1.4 0.5
v 0.4 1.4 0.5
v 0.6 1.4 0.5
v -0.7 1.4 0.4
v -0.6 1.4 0.4
v -0.4 1.4 0.4
v 0.4 1.4 0.4
v 0.6 1.4 0.4
v 0.7 1.4 0.4
v -0.4 1.4 0.3
v 0.4 1.4 0.3
v -0.7 1.4 -0.3
v -0.6 1.4 -0.3
v -0.5 1.4 -0.3
v 0.5 1.4 -0.3
v 0.6 1.4 -0.3
v 0.7 1.4 -0.3
v -0.6 1.4 -0.4
v -0.5 1.4 -0.4
v -0.3 1.4 -0.4
v 0.3 1.4 -0.4
v 0.5 1.4 -0.4
v 0.6 1.4 -0.4
v -0.5 1.4 -0.5
v -0.3 1.4 -0.5
v 0.3 1.4 -0.5
v 0.5 1.4 -0.5
v -0.4 1.5 0.5
v -0.2 1.5 0.5
v 0.2 1.5 0.5
v 0.4 1.5 0.5
v -0.4 1.5 0.4
v -0.2 1.5 0.4
v 0.2 1.5 0.4
v 0.4 1.5 0.4
v -0.2 1.6 0.5
v 0.2 1.6 0.5
v -0.2 1.6 0.4
v 0.2 1.6 0.4
v -0.3 0.1 0.2
v -0.1 0.1 0.2
v 0.1 0.1 0.2
v 0.3 0.1 0.2
v -0.3 0.1 0.1
v -0.1 0.1 0.1
v 0.1 0.1 0.1
v 0.3 0.1 0.1
v -0.5 0.7 0.1
v -0.3 0.7 0.1
v 0.3 0.7 0.1
v 0.5 0.7 0.1
v -0.5 0.7 -0.1
v -0.3 0.7 -0.1
v 0.3 0.7 -0.1
v 0.5 0.7 -0.1
v -0.6 1.5 0.5
v -0.5 1.5 0.5
v 0.5 1.5 0.5
v 0.6 1.5 0.5
v -0.7 1.5 0.4
v -0.6 1.5 0.4
v -0.5 1.5 0.4
v 0.5 1.5 0.4
v 0.6 1.5 0.4
v -0.7 1.5 -0.3
v -0.6 1.5 -0.3
v -0.5 1.5 -0.3
v 0.5 1.5 -0.3
v 0.6 1.5 -0.3
v -0.6 1.5 -0.4
v -0.5 1.5 -0.4
v 0.5 1.5 -0.4
v 0.6 1.5 -0.4
v -0.5 1.6 0.5
v -0.3 1.6 0.5
v 0.3 1.6 0.5
v 0.5 1.6 0.5
v -0.5 1.6 0.4
v -0.3 1.6 0.4
v 0.3 1.6 0.4
v 0.5 1.6 0.4
v 0.6 1.6 0.4
v 0.7 1.6 0.4
v 0.6 1.6 -0.3
v 0.7 1.6 -0.3
v -0.5 1.6 -0.4
v -0.3 1.6 -0.4
v 0.3 1.6 -0.4
v 0.5 1.6 -0.4
v -0.5 1.6 -0.5
v -0.3 1.6 -0.5
v 0.3 1.6 -0.5
v 0.5 1.6 -0.5
v -0.3 1.7 0.5
v -0.1 1.7 0.5
v 0.1 1.7 0.5
v 0.3 1.7 0.5
v -0.6 1.7 0.4
v -0.5 1.7 0.4
v -0.3 1.7 0.4
v -0.1 1.7 0.4
v 0.1 1.7 0.4
v 0.3 1.7 0.4
v 0.5 1.7 0.4
v 0.6 1.7 0.4
v -0.6 1.7 -0.3
v -0.5 1.7 -0.3
v -0.4 1.7 -0.3
v 0.5 1.7 -0.3
v 0.6 1.7 -0.3
v -0.5 1.7 -0.4
v -0.4 1.7 -0.4
v -0.3 1.7 -0.4
v -0.1 1.7 -0.4
v 0.1 1.7 -0.4
v 0.3 1.7 -0.4
v -0.3 1.7 -0.5
v -0.1 1.7 -0.5
v 0.1 1.7 -0.5
v 0.3 1.7 -0.5
v -0.1 1.8 0.5
v 0.1 1.8 0.5
v -0.5 1.8 0.4
v -0.3 1.8 0.4
v -0.1 1.8 0.4
v 0.1 1.8 0.4
v 0.3 1.8 0.4
v 0.5 1.8 0.4
v -0.5 1.8 -0.3
v -0.4 1.8 -0.3
v -0.4 1.8 -0.4
v -0.3 1.8 -0.4
v -0.1 1.8 -0.4
v 0.1 1.8 -0.4
v 0.3 1.8 -0.4
v 0.5 1.8 -0.4
v -0.1 1.8 -0.5
v 0.1 1.8 -0.5
v -0.3 1.9 0.4
v -0.2 1.9 0.4
v 0.2 1.9 0.4
v 0.3 1.9 0.4
v -0.3 1.9 -0.4
v -0.2 1.9 -0.4
v 0.2 1.9 -0.4
v 0.3 1.9 -0.4
v -0.2 2 0.4
v 0.2 2 0.4
v -0.2 2 -0.4
v 0.2 2 -0.4

# faces
f 3/7/1 2/7/1 1/7/1
f 4/7/1 2/7/1 3/7/1
f 8/4/1 6/4/1 5/4/1
f 9/4/1 6/4/1 8/4/1
f 11/7/1 8/7/1 7/7/1
f 12/7/1 8/7/1 11/7/1
f 13/7/1 10/7/1 9/7/1
f 14/7/1 10/7/1 13/7/1
f 15/7/1 13/7/1 12/7/1
f 16/7/1 13/7/1 15/7/1
f 19/5/1 18/5/1 17/5/1
f 20/5/1 18/5/1 19/5/1
f 21/2/1 20/2/1 19/2/1
f 22/2/1 20/2/1 21/2/1
f 23/8/1 22/8/1 21/8/1
f 24/8/1 22/8/1 23/8/1
f 28/2/1 26/2/1 25/2/1
f 29/4/1 27/4/1 26/4/1
f 29/2/1 26/2/1 28/2/1
f 30/4/1 27/4/1 29/4/1
f 31/4/1 27/4/1 30/4/1
f 32/4/1 27/4/1 31/4/1
f 37/7/1 33/7/1 32/7/1
f 38/7/1 35/7/1 34/7/1
f 39/7/1 35/7/1 38/7/1
f 40/7/1 37/7/1 36/7/1
f 40/7/1 33/7/1 37/7/1
f 41/7/1 33/7/1 40/7/1
f 43/7/1 40/7/1 36/7/1
f 44/7/1 40/7/1 43/7/1
f 45/7/1 43/7/1 42/7/1
f 46/7/1 43/7/1 45/7/1
f 50/2/1 48/2/1 47/2/1
f 51/4/1 49/4/1 48/4/1
f 51/2/1 48/2/1 50/2/1
f 52/4/1 49/4/1 51/4/1
f 55/7/1 54/7/1 53/7/1
f 56/7/1 54/7/1 55/7/1
f 59/5/1 58/5/1 57/5/1
f 60/5/1 58/5/1 59/5/1
f 61/5/1 58/5/1 60/5/1
f 62/5/1 58/5/1 61/5/1
f 64/3/1 62/3/1 61/3/1
f 65/3/1 62/3/1 64/3/1
f 67/5/1 64/5/1 63/5/1
f 68/5/1 64/5/1 67/5/1
f 69/5/1 66/5/1 65/5/1
f 70/5/1 66/5/1 69/5/1
f 71/3/1 68/3/1 67/3/1
f 72/3/1 70/3/1 69/3/1
f 73/3/1 71/3/1 67/3/1
f 74/3/1 70/3/1 72/3/1
f 75/3/1 73/3/1 67/3/1
f 76/8/1 74/8/1 73/8/1
f 76/3/1 73/3/1 75/3/1
f 77/8/1 74/8/1 76/8/1
f 78/3/1 70/3/1 74/3/1
f 78/8/1 74/8/1 77/8/1
f 79/3/1 70/3/1 78/3/1
f 81/4/1 80/4/1 79/4/1
f 82/4/1 80/4/1 81/4/1
f 85/7/1 84/7/1 83/7/1
f 86/7/1 84/7/1 85/7/1
f 91/7/1 88/7/1 87/7/1
f 92/7/1 88/7/1 91/7/1
f 93/7/1 90/7/1 89/7/1
f 94/7/1 90/7/1 93/7/1
f 97/7/1 96/7/1 95/7/1
f 98/7/1 96/7/1 97/7/1
f 101/7/1 100/7/1 99/7/1
f 102/7/1 100/7/1 101/7/1
f 107/7/1 104/7/1 103/7/1
f 108/7/1 104/7/1 107/7/1
f 109/7/1 106/7/1 105/7/1
f 110/7/1 106/7/1 109/7/1
f 113/5/1 112/5/1 111/5/1
f 114/5/1 112/5/1 113/5/1
f 115/5/1 112/5/1 114/5/1
f 116/5/1 112/5/1 115/5/1
f 117/3/1 116/3/1 115/3/1
f 118/3/1 116/3/1 117/3/1
f 121/7/1 120/7/1 119/7/1
f 122/7/1 120/7/1 121/7/1
f 126/4/1 124/4/1 123/4/1
f 127/4/1 124/4/1 126/4/1
f 128/7/1 126/7/1 125/7/1
f 129/7/1 126/7/1 128/7/1
f 130/4/2 131/4/2 133/4/2
f 133/4/2 131/4/2 134/4/2
f 132/7/2 133/7/2 135/7/2
f 135/7/2 133/7/2 136/7/2
f 137/7/2 138/7/2 139/7/2
f 139/7/2 138/7/2 140/7/2
f 141/5/2 142/5/2 143/5/2
f 143/5/2 142/5/2 144/5/2
f 144/5/2 142/5/2 145/5/2
f 145/5/2 142/5/2 146/5/2
f 145/3/2 146/3/2 147/3/2
f 147/3/2 146/3/2 148/3/2
f 149/7/2 150/7/2 153/7/2
f 153/7/2 150/7/2 154/7/2
f 151/7/2 152/7/2 155/7/2
f 155/7/2 152/7/2 156/7/2
f 157/7/2 158/7/2 159/7/2
f 159/7/2 158/7/2 160/7/2
f 161/5/2 162/5/2 163/5/2
f 163/5/2 162/5/2 164/5/2
f 164/5/2 162/5/2 165/5/2
f 165/5/2 162/5/2 166/5/2
f 165/3/2 166/3/2 168/3/2
f 168/3/2 166/3/2 169/3/2
f 167/5/2 168/5/2 171/5/2
f 171/5/2 168/5/2 172/5/2
f 169/5/2 170/5/2 173/5/2
f 173/5/2 170/5/2 174/5/2
f 171/3/2 172/3/2 175/3/2
f 173/3/2 174/3/2 176/3/2
f 171/3/2 175/3/2 177/3/2
f 176/3/2 174/3/2 178/3/2
f 171/3/2 177/3/2 179/3/2
f 177/3/2 178/3/2 179/3/2
f 179/3/2 178/3/2 180/3/2
f 178/3/2 174/3/2 181/3/2
f 180/3/2 178/3/2 181/3/2
f 181/4/2 182/4/2 183/4/2
f 183/4/2 182/4/2 184/4/2
f 185/7/2 186/7/2 187/7/2
f 187/7/2 186/7/2 188/7/2
f 189/7/2 190/7/2 193/7/2
f 193/7/2 190/7/2 194/7/2
f 191/7/2 192/7/2 195/7/2
f 195/7/2 192/7/2 196/7/2
f 197/7/2 198/7/2 199/7/2
f 199/7/2 198/7/2 200/7/2
f 201/2/2 202/2/2 204/2/2
f 202/4/2 203/4/2 205/4/2
f 204/2/2 202/2/2 205/2/2
f 205/4/2 203/4/2 206/4/2
f 207/5/2 208/5/2 209/5/2
f 209/5/2 208/5/2 210/5/2
f 209/2/2 210/2/2 211/2/2
f 211/2/2 210/2/2 212/2/2
f 211/8/2 212/8/2 213/8/2
f 213/8/2 212/8/2 214/8/2
f 215/2/2 216/2/2 218/2/2
f 216/4/2 217/4/2 219/4/2
f 218/2/2 216/2/2 219/2/2
f 219/4/2 217/4/2 220/4/2
f 220/4/2 217/4/2 221/4/2
f 221/4/2 217/4/2 222/4/2
f 222/7/2 223/7/2 227/7/2
f 224/7/2 225/7/2 228/7/2
f 228/7/2 225/7/2 229/7/2
f 226/7/2 227/7/2 230/7/2
f 227/7/2 223/7/2 230/7/2
f 230/7/2 223/7/2 231/7/2
f 226/7/2 230/7/2 233/7/2
f 232/7/2 233/7/2 234/7/2
f 233/7/2 230/7/2 235/7/2
f 234/7/2 233/7/2 235/7/2
f 236/4/2 237/4/2 239/4/2
f 239/4/2 237/4/2 240/4/2
f 238/7/2 239/7/2 242/7/2
f 242/7/2 239/7/2 243/7/2
f 240/7/2 241/7/2 244/7/2
f 244/7/2 241/7/2 245/7/2
f 246/7/2 247/7/2 248/7/2
f 248/7/2 247/7/2 249/7/2
f 250/7/2 251/7/2 252/7/2
f 252/7/2 251/7/2 253/7/2
f 256/7/3 255/7/3 254/7/3
f 258/7/3 256/7/3 254/7/3
f 258/7/3 257/7/3 256/7/3
f 259/7/3 257/7/3 258/7/3
f 260/7/3 257/7/3 259/7/3
f 262/7/3 260/7/3 259/7/3
f 262/7/3 261/7/3 260/7/3
f 263/7/3 261/7/3 262/7/3
f 264/7/3 261/7/3 263/7/3
f 266/7/3 264/7/3 263/7/3
f 266/7/3 265/7/3 264/7/3
f 267/7/3 265/7/3 266/7/3
f 269/7/3 266/7/3 263/7/3
f 270/7/3 266/7/3 269/7/3
f 270/7/3 269/7/3 268/7/3
f 271/7/3 266/7/3 270/7/3
f 273/7/3 270/7/3 268/7/3
f 274/7/3 270/7/3 273/7/3
f 274/7/3 273/7/3 272/7/3
f 275/7/3 270/7/3 274/7/3
f 276/7/3 274/7/3 272/7/3
f 277/7/3 274/7/3 276/7/3
f 281/7/3 279/7/3 278/7/3
f 282/7/3 279/7/3 281/7/3
f 284/7/3 283/7/3 282/7/3
f 285/7/3 283/7/3 284/7/3
f 286/7/3 283/7/3 285/7/3
f 288/4/3 281/4/3 280/4/3
f 289/4/3 281/4/3 288/4/3
f 291/7/3 287/7/3 286/7/3
f 291/7/3 286/7/3 285/7/3
f 292/7/3 287/7/3 291/7/3
f 293/7/3 287/7/3 292/7/3
f 295/4/3 290/4/3 289/4/3
f 297/7/3 294/7/3 293/7/3
f 297/7/3 293/7/3 292/7/3
f 299/7/3 297/7/3 292/7/3
f 299/7/3 298/7/3 297/7/3
f 300/7/3 298/7/3 299/7/3
f 302/7/3 298/7/3 300/7/3
f 303/4/3 296/4/3 295/4/3
f 303/4/3 295/4/3 289/4/3
f 304/4/3 296/4/3 303/4/3
f 305/7/3 302/7/3 301/7/3
f 305/7/3 298/7/3 302/7/3
f 306/7/3 298/7/3 305/7/3
f 308/7/3 305/7/3 301/7/3
f 309/7/3 305/7/3 308/7/3
f 310/7/3 305/7/3 309/7/3
f 312/4/3 303/4/3 289/4/3
f 313/4/3 303/4/3 312/4/3
f 315/7/3 308/7/3 307/7/3
f 315/7/3 309/7/3 308/7/3
f 316/7/3 309/7/3 315/7/3
f 317/7/3 309/7/3 316/7/3
f 318/4/3 312/4/3 311/4/3
f 319/4/3 312/4/3 318/4/3
f 320/7/3 315/7/3 314/7/3
f 320/7/3 316/7/3 315/7/3
f 321/7/3 316/7/3 320/7/3
f 322/7/3 316/7/3 321/7/3
f 323/7/3 320/7/3 319/7/3
f 323/7/3 321/7/3 320/7/3
f 324/7/3 321/7/3 323/7/3
f 328/2/3 326/2/3 325/2/3
f 329/2/3 326/2/3 328/2/3
f 331/2/3 328/2/3 327/2/3
f 331/2/3 330/2/3 329/2/3
f 331/2/3 329/2/3 328/2/3
f 332/2/3 330/2/3 331/2/3
f 333/2/3 331/2/3 327/2/3
f 333/9/3 332/9/3 331/9/3
f 334/2/3 330/2/3 332/2/3
f 334/9/3 332/9/3 333/9/3
f 335/2/3 333/2/3 327/2/3
f 336/2/3 333/2/3 335/2/3
f 337/10/3 334/10/3 333/10/3
f 337/2/3 333/2/3 336/2/3
f 338/2/3 330/2/3 334/2/3
f 338/10/3 334/10/3 337/10/3
f 339/1/3 336/1/3 335/1/3
f 339/2/3 335/2/3 327/2/3
f 340/2/3 337/2/3 336/2/3
f 340/1/3 336/1/3 339/1/3
f 340/2/3 338/2/3 337/2/3
f 341/2/3 338/2/3 340/2/3
f 342/2/3 330/2/3 338/2/3
f 342/2/3 338/2/3 341/2/3
f 343/2/3 341/2/3 340/2/3
f 343/2/3 340/2/3 339/2/3
f 343/10/3 342/10/3 341/10/3
f 344/2/3 330/2/3 342/2/3
f 344/10/3 342/10/3 343/10/3
f 345/2/3 343/2/3 339/2/3
f 345/9/3 344/9/3 343/9/3
f 346/2/3 330/2/3 344/2/3
f 346/9/3 344/9/3 345/9/3
f 347/2/3 339/2/3 327/2/3
f 347/2/3 345/2/3 339/2/3
f 347/2/3 346/2/3 345/2/3
f 348/2/3 346/2/3 347/2/3
f 349/2/3 330/2/3 346/2/3
f 349/2/3 346/2/3 348/2/3
f 350/2/3 330/2/3 349/2/3
f 351/2/3 349/2/3 348/2/3
f 352/2/3 349/2/3 351/2/3
f 358/3/3 357/3/3 356/3/3
f 359/3/3 357/3/3 358/3/3
f 360/5/3 354/5/3 353/5/3
f 361/5/3 354/5/3 360/5/3
f 362/5/3 356/5/3 355/5/3
f 363/3/3 358/3/3 356/3/3
f 363/5/3 356/5/3 362/5/3
f 364/3/3 358/3/3 363/3/3
f 365/8/3 359/8/3 358/8/3
f 365/3/3 358/3/3 364/3/3
f 366/8/3 359/8/3 365/8/3
f 369/6/3 363/6/3 362/6/3
f 370/3/3 364/3/3 363/3/3
f 370/6/3 363/6/3 369/6/3
f 371/8/3 365/8/3 364/8/3
f 371/3/3 364/3/3 370/3/3
f 372/2/3 366/2/3 365/2/3
f 372/8/3 365/8/3 371/8/3
f 373/2/3 366/2/3 372/2/3
f 374/3/3 371/3/3 370/3/3
f 374/3/3 372/3/3 371/3/3
f 374/8/3 373/8/3 372/8/3
f 375/8/3 373/8/3 374/8/3
f 376/5/3 368/5/3 367/5/3
f 377/5/3 368/5/3 376/5/3
f 378/5/3 370/5/3 369/5/3
f 379/3/3 374/3/3 370/3/3
f 379/5/3 370/5/3 378/5/3
f 379/3/3 375/3/3 374/3/3
f 380/3/3 375/3/3 379/3/3
f 387/5/3 382/5/3 381/5/3
f 388/2/3 383/2/3 382/2/3
f 388/5/3 382/5/3 387/5/3
f 389/8/3 384/8/3 383/8/3
f 389/2/3 383/2/3 388/2/3
f 390/8/3 384/8/3 389/8/3
f 391/5/3 386/5/3 385/5/3
f 392/3/3 387/3/3 386/3/3
f 392/5/3 386/5/3 391/5/3
f 393/3/3 387/3/3 392/3/3
f 397/5/3 395/5/3 394/5/3
f 398/3/3 396/3/3 395/3/3
f 398/5/3 395/5/3 397/5/3
f 399/3/3 396/3/3 398/3/3
f 403/5/3 400/5/3 399/5/3
f 404/2/3 401/2/3 400/2/3
f 404/5/3 400/5/3 403/5/3
f 405/8/3 402/8/3 401/8/3
f 405/2/3 401/2/3 404/2/3
f 406/8/3 402/8/3 405/8/3
f 407/5/4 408/5/4 413/5/4
f 408/2/4 409/2/4 414/2/4
f 413/5/4 408/5/4 414/5/4
f 409/8/4 410/8/4 415/8/4
f 414/2/4 409/2/4 415/2/4
f 415/8/4 410/8/4 416/8/4
f 411/5/4 412/5/4 417/5/4
f 412/3/4 413/3/4 418/3/4
f 417/5/4 412/5/4 418/5/4
f 418/3/4 413/3/4 419/3/4
f 420/5/4 421/5/4 423/5/4
f 421/3/4 422/3/4 424/3/4
f 423/5/4 421/5/4 424/5/4
f 424/3/4 422/3/4 425/3/4
f 425/5/4 426/5/4 429/5/4
f 426/2/4 427/2/4 430/2/4
f 429/5/4 426/5/4 430/5/4
f 427/8/4 428/8/4 431/8/4
f 430/2/4 427/2/4 431/2/4
f 431/8/4 428/8/4 432/8/4
f 433/4/4 434/4/4 437/4/4
f 437/4/4 434/4/4 438/4/4
f 436/3/4 437/3/4 439/3/4
f 439/3/4 437/3/4 440/3/4
f 436/3/4 439/3/4 441/3/4
f 439/8/4 440/8/4 441/8/4
f 441/8/4 440/8/4 442/8/4
f 435/5/4 436/5/4 443/5/4
f 436/3/4 441/3/4 444/3/4
f 443/5/4 436/5/4 444/5/4
f 441/3/4 442/3/4 444/3/4
f 444/3/4 442/3/4 445/3/4
f 445/4/4 446/4/4 447/4/4
f 447/4/4 446/4/4 448/4/4
f 449/7/4 450/7/4 452/7/4
f 452/7/4 450/7/4 453/7/4
f 451/4/4 452/4/4 455/4/4
f 455/4/4 452/4/4 456/4/4
f 453/7/4 454/7/4 457/7/4
f 457/7/4 454/7/4 458/7/4
f 458/7/4 459/7/4 460/7/4
f 460/7/4 459/7/4 461/7/4
f 462/4/4 463/4/4 464/4/4
f 464/4/4 463/4/4 465/4/4
f 466/4/4 467/4/4 470/4/4
f 470/4/4 467/4/4 471/4/4
f 468/7/4 469/7/4 472/7/4
f 472/7/4 469/7/4 473/7/4
f 473/7/4 469/7/4 474/7/4
f 471/7/4 472/7/4 475/7/4
f 472/7/4 473/7/4 475/7/4
f 475/7/4 473/7/4 476/7/4
f 477/7/4 478/7/4 480/7/4
f 480/7/4 478/7/4 481/7/4
f 482/7/4 483/7/4 484/7/4
f 479/4/4 480/4/4 486/4/4
f 486/4/4 480/4/4 487/4/4
f 484/7/4 485/7/4 488/7/4
f 482/7/4 484/7/4 488/7/4
f 488/7/4 485/7/4 489/7/4
f 489/7/4 485/7/4 490/7/4
f 490/7/4 491/7/4 492/7/4
f 489/7/4 490/7/4 492/7/4
f 489/7/4 492/7/4 494/7/4
f 492/7/4 493/7/4 494/7/4
f 494/7/4 493/7/4 495/7/4
f 495/7/4 493/7/4 497/7/4
f 497/7/4 493/7/4 498/7/4
f 496/7/4 497/7/4 498/7/4
f 498/7/4 493/7/4 499/7/4
f 479/4/4 486/4/4 500/4/4
f 496/7/4 498/7/4 503/7/4
f 503/7/4 498/7/4 504/7/4
f 504/7/4 498/7/4 505/7/4
f 500/4/4 501/4/4 506/4/4
f 479/4/4 500/4/4 506/4/4
f 506/4/4 501/4/4 507/4/4
f 503/7/4 504/7/4 509/7/4
f 502/7/4 503/7/4 509/7/4
f 509/7/4 504/7/4 510/7/4
f 507/7/4 508/7/4 511/7/4
f 511/7/4 508/7/4 512/7/4
f 513/7/4 514/7/4 516/7/4
f 516/7/4 514/7/4 517/7/4
f 515/7/4 516/7/4 519/7/4
f 517/7/4 518/7/4 519/7/4
f 516/7/4 517/7/4 519/7/4
f 515/7/4 519/7/4 521/7/4
f 519/7/4 520/7/4 521/7/4
f 521/7/4 520/7/4 522/7/4
f 515/7/4 521/7/4 523/7/4
f 523/7/4 521/7/4 524/7/4
f 524/7/4 521/7/4 525/7/4
f 525/7/4 521/7/4 526/7/4
f 524/7/4 525/7/4 527/7/4
f 527/7/4 525/7/4 528/7/4
f 533/5/5 530/5/5 529/5/5
f 534/5/5 530/5/5 533/5/5
f 535/5/5 532/5/5 531/5/5
f 536/5/5 532/5/5 535/5/5
f 542/5/5 538/5/5 537/5/5
f 543/6/5 539/6/5 538/6/5
f 543/5/5 538/5/5 542/5/5
f 544/5/5 540/5/5 539/5/5
f 544/6/5 539/6/5 543/6/5
f 545/5/5 540/5/5 544/5/5
f 547/5/5 542/5/5 541/5/5
f 548/5/5 542/5/5 547/5/5
f 549/3/5 544/3/5 543/3/5
f 550/3/5 544/3/5 549/3/5
f 551/5/5 546/5/5 545/5/5
f 552/5/5 546/5/5 551/5/5
f 553/5/5 550/5/5 549/5/5
f 553/5/5 551/5/5 550/5/5
f 553/5/5 549/5/5 548/5/5
f 554/5/5 551/5/5 553/5/5
f 557/2/5 556/2/5 555/2/5
f 558/2/5 556/2/5 557/2/5
f 559/2/5 556/2/5 558/2/5
f 560/2/5 556/2/5 559/2/5
f 561/2/5 556/2/5 560/2/5
f 562/2/5 556/2/5 561/2/5
f 563/2/5 557/2/5 555/2/5
f 564/2/5 563/2/5 555/2/5
f 565/2/5 563/2/5 564/2/5
f 566/2/5 556/2/5 562/2/5
f 567/2/5 556/2/5 566/2/5
f 568/4/5 565/4/5 564/4/5
f 569/4/5 568/4/5 564/4/5
f 570/4/5 568/4/5 569/4/5
f 573/4/5 567/4/5 566/4/5
f 574/4/5 567/4/5 573/4/5
f 575/4/5 572/4/5 571/4/5
f 575/4/5 573/4/5 572/4/5
f 575/4/5 571/4/5 570/4/5
f 576/4/5 573/4/5 575/4/5
f 581/2/5 578/2/5 577/2/5
f 582/2/5 578/2/5 581/2/5
f 583/2/5 580/2/5 579/2/5
f 584/2/5 580/2/5 583/2/5
f 585/4/5 582/4/5 581/4/5
f 588/4/5 584/4/5 583/4/5
f 589/4/5 586/4/5 585/4/5
f 590/4/5 588/4/5 587/4/5
f 591/4/5 589/4/5 585/4/5
f 591/4/5 590/4/5 589/4/5
f 591/4/5 585/4/5 581/4/5
f 592/4/5 588/4/5 590/4/5
f 592/4/5 590/4/5 591/4/5
f 592/4/5 584/4/5 588/4/5
f 597/4/5 594/4/5 593/4/5
f 598/4/5 594/4/5 597/4/5
f 599/4/5 596/4/5 595/4/5
f 600/4/5 596/4/5 599/4/5
f 601/4/5 597/4/5 593/4/5
f 602/4/5 596/4/5 600/4/5
f 603/4/5 601/4/5 593/4/5
f 604/4/5 601/4/5 603/4/5
f 605/4/5 596/4/5 602/4/5
f 606/4/5 596/4/5 605/4/5
f 609/7/5 608/7/5 607/7/5
f 610/7/5 608/7/5 609/7/5
f 616/7/5 612/7/5 611/7/5
f 617/7/5 612/7/5 616/7/5
f 618/7/5 614/7/5 613/7/5
f 619/7/5 614/7/5 618/7/5
f 621/4/5 618/4/5 617/4/5
f 622/4/5 618/4/5 621/4/5
f 623/7/5 616/7/5 615/7/5
f 624/7/5 616/7/5 623/7/5
f 627/7/5 620/7/5 619/7/5
f 628/7/5 620/7/5 627/7/5
f 629/7/5 625/7/5 624/7/5
f 630/7/5 625/7/5 629/7/5
f 633/7/5 627/7/5 626/7/5
f 634/7/5 627/7/5 633/7/5
f 635/7/5 631/7/5 630/7/5
f 636/7/5 631/7/5 635/7/5
f 637/7/5 633/7/5 632/7/5
f 638/7/5 633/7/5 637/7/5
f 643/7/5 640/7/5 639/7/5
f 644/7/5 640/7/5 643/7/5
f 645/7/5 642/7/5 641/7/5
f 646/7/5 642/7/5 645/7/5
f 649/7/5 648/7/5 647/7/5
f 650/7/5 648/7/5 649/7/5
f 651/5/6 652/5/6 655/5/6
f 655/5/6 652/5/6 656/5/6
f 653/5/6 654/5/6 657/5/6
f 657/5/6 654/5/6 658/5/6
f 659/8/6 660/8/6 663/8/6
f 663/8/6 660/8/6 664/8/6
f 661/8/6 662/8/6 665/8/6
f 665/8/6 662/8/6 666/8/6
f 667/7/6 668/7/6 672/7/6
f 672/7/6 668/7/6 673/7/6
f 669/7/6 670/7/6 674/7/6
f 674/7/6 670/7/6 675/7/6
f 671/7/6 672/7/6 676/7/6
f 676/7/6 672/7/6 677/7/6
f 677/7/6 678/7/6 681/7/6
f 681/7/6 678/7/6 682/7/6
f 679/7/6 680/7/6 683/7/6
f 683/7/6 680/7/6 684/7/6
f 685/7/6 686/7/6 689/7/6
f 689/7/6 686/7/6 690/7/6
f 687/7/6 688/7/6 691/7/6
f 691/7/6 688/7/6 692/7/6
f 693/7/6 694/7/6 695/7/6
f 695/7/6 694/7/6 696/7/6
f 697/7/6 698/7/6 701/7/6
f 701/7/6 698/7/6 702/7/6
f 699/7/6 700/7/6 703/7/6
f 703/7/6 700/7/6 704/7/6
f 705/7/6 706/7/6 711/7/6
f 711/7/6 706/7/6 712/7/6
f 707/7/6 708/7/6 713/7/6
f 713/7/6 708/7/6 714/7/6
f 709/7/6 710/7/6 717/7/6
f 717/7/6 710/7/6 718/7/6
f 715/7/6 716/7/6 720/7/6
f 720/7/6 716/7/6 721/7/6
f 718/7/6 719/7/6 722/7/6
f 722/7/6 719/7/6 723/7/6
f 724/7/6 725/7/6 728/7/6
f 728/7/6 725/7/6 729/7/6
f 726/7/6 727/7/6 730/7/6
f 730/7/6 727/7/6 731/7/6
f 732/7/6 733/7/6 736/7/6
f 736/7/6 733/7/6 737/7/6
f 734/7/6 735/7/6 740/7/6
f 740/7/6 735/7/6 741/7/6
f 741/7/6 735/7/6 742/7/6
f 742/7/6 735/7/6 743/7/6
f 738/7/6 739/7/6 746/7/6
f 746/7/6 739/7/6 747/7/6
f 744/7/6 745/7/6 748/7/6
f 748/7/6 745/7/6 749/7/6
f 750/7/6 751/7/6 754/7/6
f 754/7/6 751/7/6 755/7/6
f 752/7/6 753/7/6 756/7/6
f 756/7/6 753/7/6 757/7/6
f 758/7/6 759/7/6 760/7/6
f 760/7/6 759/7/6 761/7/6
