# MagicaVoxel @ Ephtracy

# group
o 

# material
mtllib Builder_Walk2.vox.mtl
usemtl palette

# normals
vn -1 0 0
vn 1 0 0
vn 0 0 1
vn 0 0 -1
vn 0 -1 0
vn 0 1 0

# texcoords
vt 0.0839844 0.5
vt 0.287109 0.5
vt 0.291016 0.5
vt 0.310547 0.5
vt 0.365234 0.5
vt 0.373047 0.5
vt 0.478516 0.5
vt 0.748047 0.5
vt 0.958984 0.5
vt 0.994141 0.5

# verts
v -0.7 1.4 0.4
v -0.7 1.4 -0.3
v -0.7 1.6 0.4
v -0.7 1.6 -0.3
v -0.6 1.3 0.4
v -0.6 1.3 -0.3
v -0.6 1.4 0.5
v -0.6 1.4 0.4
v -0.6 1.4 -0.3
v -0.6 1.4 -0.4
v -0.6 1.5 0.5
v -0.6 1.5 0.4
v -0.6 1.5 -0.3
v -0.6 1.5 -0.4
v -0.6 1.6 0.4
v -0.6 1.6 -0.3
v -0.6 1.7 0.4
v -0.6 1.7 -0.3
v -0.5 0.3 0.1
v -0.5 0.3 -0.1
v -0.5 0.4 0.1
v -0.5 0.4 -0.1
v -0.5 0.5 0.1
v -0.5 0.5 -0.1
v -0.5 0.7 0.1
v -0.5 0.7 -0.1
v -0.5 0.9 0.3
v -0.5 0.9 0
v -0.5 0.9 -0.4
v -0.5 1.3 0.3
v -0.5 1.3 0
v -0.5 1.3 -0.3
v -0.5 1.4 -0.3
v -0.5 1.4 -0.4
v -0.5 1.4 -0.5
v -0.5 1.5 0.5
v -0.5 1.5 0.4
v -0.5 1.5 -0.3
v -0.5 1.5 -0.4
v -0.5 1.6 0.5
v -0.5 1.6 0.4
v -0.5 1.6 -0.4
v -0.5 1.6 -0.5
v -0.5 1.7 0.4
v -0.5 1.7 -0.3
v -0.5 1.8 0.4
v -0.5 1.8 -0.4
v -0.4 0.8 0.3
v -0.4 0.8 0
v -0.4 0.8 -0.2
v -0.4 0.9 0.3
v -0.4 0.9 0
v -0.4 0.9 -0.2
v -0.3 0.1 0.4
v -0.3 0.1 0.2
v -0.3 0.1 -0.1
v -0.3 0.3 0.3
v -0.3 0.3 0.2
v -0.3 0.3 0.1
v -0.3 0.3 -0.1
v -0.3 0.3 -0.2
v -0.3 0.4 0.4
v -0.3 0.4 0.3
v -0.3 0.4 0.2
v -0.3 0.4 0.1
v -0.3 0.4 -0.1
v -0.3 0.4 -0.2
v -0.3 0.5 0.1
v -0.3 0.5 -0.1
v -0.3 0.7 0.1
v -0.3 0.7 -0.1
v -0.3 0.8 0.2
v -0.3 0.8 0
v -0.3 0.8 -0.2
v -0.3 0.8 -0.3
v -0.3 0.9 -0.2
v -0.3 0.9 -0.3
v -0.3 1.3 -0.4
v -0.3 1.3 -0.5
v -0.3 1.4 -0.4
v -0.3 1.4 -0.5
v -0.3 1.6 0.5
v -0.3 1.6 0.4
v -0.3 1.6 -0.4
v -0.3 1.6 -0.5
v -0.3 1.7 0.5
v -0.3 1.7 0.4
v -0.3 1.7 -0.4
v -0.3 1.7 -0.5
v -0.3 1.8 0.4
v -0.3 1.8 -0.4
v -0.3 1.9 0.4
v -0.3 1.9 -0.4
v -0.2 1.9 0.4
v -0.2 1.9 -0.4
v -0.2 2 0.4
v -0.2 2 -0.4
v -0.1 1.7 0.5
v -0.1 1.7 0.4
v -0.1 1.7 -0.4
v -0.1 1.7 -0.5
v -0.1 1.8 0.5
v -0.1 1.8 0.4
v -0.1 1.8 -0.4
v -0.1 1.8 -0.5
v 0.1 0 0.2
v 0.1 0 -0.1
v 0.1 0.1 0.2
v 0.1 0.1 0.1
v 0.1 0.2 0.1
v 0.1 0.2 -0.1
v 0.1 0.3 0.1
v 0.1 0.3 -0.1
v 0.2 1.5 0.5
v 0.2 1.5 0.4
v 0.2 1.6 0.5
v 0.2 1.6 0.4
v 0.3 0.5 0.3
v 0.3 0.5 0.2
v 0.3 0.7 0.3
v 0.3 0.7 0.2
v 0.4 1.3 0.4
v 0.4 1.3 0.3
v 0.4 1.4 0.5
v 0.4 1.4 0.4
v 0.4 1.4 0.3
v 0.4 1.5 0.5
v 0.4 1.5 0.4
v -0.4 1.3 0.4
v -0.4 1.3 0.3
v -0.4 1.4 0.5
v -0.4 1.4 0.4
v -0.4 1.4 0.3
v -0.4 1.5 0.5
v -0.4 1.5 0.4
v -0.2 1.5 0.5
v -0.2 1.5 0.4
v -0.2 1.6 0.5
v -0.2 1.6 0.4
v -0.1 0.1 0.4
v -0.1 0.1 0.2
v -0.1 0.1 -0.1
v -0.1 0.3 0.3
v -0.1 0.3 0.2
v -0.1 0.3 0.1
v -0.1 0.3 -0.1
v -0.1 0.4 0.4
v -0.1 0.4 0.3
v 0.1 1.7 0.5
v 0.1 1.7 0.4
v 0.1 1.7 -0.4
v 0.1 1.7 -0.5
v 0.1 1.8 0.5
v 0.1 1.8 0.4
v 0.1 1.8 -0.4
v 0.1 1.8 -0.5
v 0.2 1.9 0.4
v 0.2 1.9 -0.4
v 0.2 2 0.4
v 0.2 2 -0.4
v 0.3 0 0.2
v 0.3 0 -0.1
v 0.3 0.1 0.2
v 0.3 0.1 0.1
v 0.3 0.2 0.1
v 0.3 0.2 -0.1
v 0.3 0.3 0.2
v 0.3 0.3 0.1
v 0.3 0.3 -0.1
v 0.3 0.3 -0.2
v 0.3 0.4 0.2
v 0.3 0.4 -0.2
v 0.3 0.5 0.2
v 0.3 0.5 0.1
v 0.3 0.5 -0.1
v 0.3 0.7 0.2
v 0.3 0.7 0.1
v 0.3 0.7 -0.1
v 0.3 0.8 0.2
v 0.3 0.8 0.1
v 0.3 0.8 0
v 0.3 0.8 -0.1
v 0.3 0.8 -0.2
v 0.3 0.8 -0.3
v 0.3 0.9 -0.2
v 0.3 0.9 -0.3
v 0.3 1.3 -0.4
v 0.3 1.3 -0.5
v 0.3 1.4 -0.4
v 0.3 1.4 -0.5
v 0.3 1.6 0.5
v 0.3 1.6 0.4
v 0.3 1.6 -0.4
v 0.3 1.6 -0.5
v 0.3 1.7 0.5
v 0.3 1.7 0.4
v 0.3 1.7 -0.4
v 0.3 1.7 -0.5
v 0.3 1.8 0.4
v 0.3 1.8 -0.4
v 0.3 1.9 0.4
v 0.3 1.9 -0.4
v 0.4 0.8 0.3
v 0.4 0.8 0
v 0.4 0.8 -0.2
v 0.4 0.9 0.3
v 0.4 0.9 0
v 0.4 0.9 -0.2
v 0.4 1.7 -0.3
v 0.4 1.7 -0.4
v 0.4 1.8 -0.3
v 0.4 1.8 -0.4
v 0.5 0.5 0.3
v 0.5 0.5 0.2
v 0.5 0.5 0.1
v 0.5 0.5 -0.1
v 0.5 0.7 0.3
v 0.5 0.7 0.2
v 0.5 0.7 0.1
v 0.5 0.7 -0.1
v 0.5 0.9 0.3
v 0.5 0.9 0
v 0.5 0.9 -0.4
v 0.5 1.3 0.3
v 0.5 1.3 0
v 0.5 1.3 -0.3
v 0.5 1.4 -0.3
v 0.5 1.4 -0.4
v 0.5 1.4 -0.5
v 0.5 1.5 0.5
v 0.5 1.5 0.4
v 0.5 1.5 -0.3
v 0.5 1.5 -0.4
v 0.5 1.6 0.5
v 0.5 1.6 0.4
v 0.5 1.6 -0.4
v 0.5 1.6 -0.5
v 0.5 1.7 0.4
v 0.5 1.7 -0.3
v 0.5 1.7 -0.4
v 0.5 1.8 0.4
v 0.5 1.8 -0.3
v 0.6 1.3 0.4
v 0.6 1.3 -0.3
v 0.6 1.4 0.5
v 0.6 1.4 0.4
v 0.6 1.4 -0.3
v 0.6 1.4 -0.4
v 0.6 1.5 0.5
v 0.6 1.5 0.4
v 0.6 1.5 -0.3
v 0.6 1.5 -0.4
v 0.6 1.7 0.4
v 0.6 1.7 -0.3
v 0.7 1.4 0.4
v 0.7 1.4 -0.3
v 0.7 1.5 0.4
v 0.7 1.5 -0.3
v -0.6 1.4 0.5
v -0.6 1.5 0.5
v -0.5 1.5 0.5
v -0.5 1.6 0.5
v -0.4 1.4 0.5
v -0.4 1.5 0.5
v -0.3 1.6 0.5
v -0.3 1.7 0.5
v -0.2 1.5 0.5
v -0.2 1.6 0.5
v -0.1 1.7 0.5
v -0.1 1.8 0.5
v 0.1 1.7 0.5
v 0.1 1.8 0.5
v 0.2 1.5 0.5
v 0.2 1.6 0.5
v 0.3 1.6 0.5
v 0.3 1.7 0.5
v 0.4 1.4 0.5
v 0.4 1.5 0.5
v 0.5 1.5 0.5
v 0.5 1.6 0.5
v 0.6 1.4 0.5
v 0.6 1.5 0.5
v -0.7 1.4 0.4
v -0.7 1.6 0.4
v -0.6 1.3 0.4
v -0.6 1.4 0.4
v -0.6 1.5 0.4
v -0.6 1.6 0.4
v -0.6 1.7 0.4
v -0.5 1.5 0.4
v -0.5 1.6 0.4
v -0.5 1.7 0.4
v -0.5 1.8 0.4
v -0.4 1.3 0.4
v -0.4 1.4 0.4
v -0.4 1.5 0.4
v -0.3 0.1 0.4
v -0.3 0.4 0.4
v -0.3 1.6 0.4
v -0.3 1.7 0.4
v -0.3 1.8 0.4
v -0.3 1.9 0.4
v -0.2 1.5 0.4
v -0.2 1.6 0.4
v -0.2 1.9 0.4
v -0.2 2 0.4
v -0.1 0.1 0.4
v -0.1 0.4 0.4
v -0.1 1.7 0.4
v -0.1 1.8 0.4
v 0.1 1.7 0.4
v 0.1 1.8 0.4
v 0.2 1.5 0.4
v 0.2 1.6 0.4
v 0.2 1.9 0.4
v 0.2 2 0.4
v 0.3 1.6 0.4
v 0.3 1.7 0.4
v 0.3 1.8 0.4
v 0.3 1.9 0.4
v 0.4 1.3 0.4
v 0.4 1.4 0.4
v 0.4 1.5 0.4
v 0.5 1.5 0.4
v 0.5 1.6 0.4
v 0.5 1.7 0.4
v 0.5 1.8 0.4
v 0.6 1.3 0.4
v 0.6 1.4 0.4
v 0.6 1.5 0.4
v 0.6 1.7 0.4
v 0.7 1.4 0.4
v 0.7 1.5 0.4
v -0.5 0.9 0.3
v -0.5 1.3 0.3
v -0.4 0.8 0.3
v -0.4 0.9 0.3
v -0.4 1.3 0.3
v -0.4 1.4 0.3
v -0.3 1.1 0.3
v -0.3 1.3 0.3
v -0.2 1.1 0.3
v -0.2 1.3 0.3
v -0.1 0.9 0.3
v -0.1 1 0.3
v -0.1 1.1 0.3
v -0.1 1.3 0.3
v 0.1 0.9 0.3
v 0.1 1 0.3
v 0.1 1.1 0.3
v 0.1 1.3 0.3
v 0.2 1.1 0.3
v 0.2 1.3 0.3
v 0.3 0.5 0.3
v 0.3 0.7 0.3
v 0.3 1.1 0.3
v 0.3 1.3 0.3
v 0.4 0.8 0.3
v 0.4 0.9 0.3
v 0.4 1.3 0.3
v 0.4 1.4 0.3
v 0.5 0.5 0.3
v 0.5 0.7 0.3
v 0.5 0.9 0.3
v 0.5 1.3 0.3
v -0.3 0.3 0.2
v -0.3 0.4 0.2
v -0.3 0.8 0.2
v -0.2 0.7 0.2
v -0.2 0.8 0.2
v -0.1 0.3 0.2
v -0.1 0.4 0.2
v -0.1 0.6 0.2
v -0.1 0.7 0.2
v -0.1 0.8 0.2
v 0.1 0 0.2
v 0.1 0.1 0.2
v 0.1 0.3 0.2
v 0.1 0.4 0.2
v 0.1 0.6 0.2
v 0.1 0.7 0.2
v 0.1 0.8 0.2
v 0.2 0.7 0.2
v 0.2 0.8 0.2
v 0.3 0 0.2
v 0.3 0.1 0.2
v 0.3 0.3 0.2
v 0.3 0.4 0.2
v 0.3 0.5 0.2
v 0.3 0.7 0.2
v 0.3 0.8 0.2
v -0.5 0.3 0.1
v -0.5 0.4 0.1
v -0.5 0.5 0.1
v -0.5 0.7 0.1
v -0.3 0.3 0.1
v -0.3 0.4 0.1
v -0.3 0.5 0.1
v -0.3 0.7 0.1
v 0.1 0.1 0.1
v 0.1 0.2 0.1
v 0.1 0.3 0.1
v 0.3 0.1 0.1
v 0.3 0.2 0.1
v 0.3 0.3 0.1
v -0.3 0.3 0.3
v -0.3 0.4 0.3
v -0.1 0.3 0.3
v -0.1 0.4 0.3
v -0.5 0.3 -0.1
v -0.5 0.4 -0.1
v -0.5 0.5 -0.1
v -0.5 0.7 -0.1
v -0.3 0.1 -0.1
v -0.3 0.3 -0.1
v -0.3 0.4 -0.1
v -0.3 0.5 -0.1
v -0.3 0.7 -0.1
v -0.1 0.1 -0.1
v -0.1 0.3 -0.1
v 0.1 0 -0.1
v 0.1 0.2 -0.1
v 0.1 0.3 -0.1
v 0.3 0 -0.1
v 0.3 0.2 -0.1
v 0.3 0.3 -0.1
v 0.3 0.5 -0.1
v 0.3 0.7 -0.1
v 0.5 0.5 -0.1
v 0.5 0.7 -0.1
v -0.4 0.8 -0.2
v -0.4 0.9 -0.2
v -0.3 0.3 -0.2
v -0.3 0.4 -0.2
v -0.3 0.8 -0.2
v -0.3 0.9 -0.2
v -0.1 0.7 -0.2
v -0.1 0.8 -0.2
v 0.1 0.7 -0.2
v 0.1 0.8 -0.2
v 0.3 0.3 -0.2
v 0.3 0.4 -0.2
v 0.3 0.8 -0.2
v 0.3 0.9 -0.2
v 0.4 0.8 -0.2
v 0.4 0.9 -0.2
v -0.7 1.4 -0.3
v -0.7 1.6 -0.3
v -0.6 1.3 -0.3
v -0.6 1.4 -0.3
v -0.6 1.5 -0.3
v -0.6 1.6 -0.3
v -0.6 1.7 -0.3
v -0.5 1.3 -0.3
v -0.5 1.4 -0.3
v -0.5 1.5 -0.3
v -0.5 1.7 -0.3
v -0.3 0.8 -0.3
v -0.3 0.9 -0.3
v 0.3 0.8 -0.3
v 0.3 0.9 -0.3
v 0.4 1.7 -0.3
v 0.4 1.8 -0.3
v 0.5 1.3 -0.3
v 0.5 1.4 -0.3
v 0.5 1.5 -0.3
v 0.5 1.7 -0.3
v 0.5 1.8 -0.3
v 0.6 1.3 -0.3
v 0.6 1.4 -0.3
v 0.6 1.5 -0.3
v 0.6 1.7 -0.3
v 0.7 1.4 -0.3
v 0.7 1.5 -0.3
v -0.6 1.4 -0.4
v -0.6 1.5 -0.4
v -0.5 0.9 -0.4
v -0.5 1.4 -0.4
v -0.5 1.5 -0.4
v -0.5 1.6 -0.4
v -0.5 1.8 -0.4
v -0.3 1.3 -0.4
v -0.3 1.4 -0.4
v -0.3 1.6 -0.4
v -0.3 1.7 -0.4
v -0.3 1.8 -0.4
v -0.3 1.9 -0.4
v -0.2 1.9 -0.4
v -0.2 2 -0.4
v -0.1 1.7 -0.4
v -0.1 1.8 -0.4
v 0.1 1.7 -0.4
v 0.1 1.8 -0.4
v 0.2 1.9 -0.4
v 0.2 2 -0.4
v 0.3 1.3 -0.4
v 0.3 1.4 -0.4
v 0.3 1.6 -0.4
v 0.3 1.7 -0.4
v 0.3 1.8 -0.4
v 0.3 1.9 -0.4
v 0.4 1.7 -0.4
v 0.4 1.8 -0.4
v 0.5 0.9 -0.4
v 0.5 1.4 -0.4
v 0.5 1.5 -0.4
v 0.5 1.6 -0.4
v 0.5 1.7 -0.4
v 0.6 1.4 -0.4
v 0.6 1.5 -0.4
v -0.5 1.4 -0.5
v -0.5 1.6 -0.5
v -0.3 1.3 -0.5
v -0.3 1.4 -0.5
v -0.3 1.6 -0.5
v -0.3 1.7 -0.5
v -0.1 1.7 -0.5
v -0.1 1.8 -0.5
v 0.1 1.7 -0.5
v 0.1 1.8 -0.5
v 0.3 1.3 -0.5
v 0.3 1.4 -0.5
v 0.3 1.6 -0.5
v 0.3 1.7 -0.5
v 0.5 1.4 -0.5
v 0.5 1.6 -0.5
v 0.1 0 0.2
v 0.3 0 0.2
v 0.1 0 -0.1
v 0.3 0 -0.1
v -0.3 0.1 0.4
v -0.1 0.1 0.4
v -0.3 0.1 0.2
v -0.1 0.1 0.2
v -0.3 0.1 -0.1
v -0.1 0.1 -0.1
v -0.1 0.3 0.2
v 0.1 0.3 0.2
v 0.3 0.3 0.2
v -0.5 0.3 0.1
v -0.3 0.3 0.1
v -0.1 0.3 0.1
v 0.1 0.3 0.1
v 0.3 0.3 0.1
v -0.5 0.3 -0.1
v -0.3 0.3 -0.1
v -0.1 0.3 -0.1
v 0.1 0.3 -0.1
v 0.3 0.3 -0.1
v -0.3 0.3 -0.2
v 0.3 0.3 -0.2
v 0.3 0.5 0.3
v 0.5 0.5 0.3
v 0.3 0.5 0.2
v 0.5 0.5 0.2
v 0.3 0.5 0.1
v 0.5 0.5 0.1
v 0.3 0.5 -0.1
v 0.5 0.5 -0.1
v -0.4 0.8 0.3
v 0.4 0.8 0.3
v -0.3 0.8 0.2
v -0.2 0.8 0.2
v -0.1 0.8 0.2
v 0.1 0.8 0.2
v 0.2 0.8 0.2
v 0.3 0.8 0.2
v 0.3 0.8 0.1
v -0.4 0.8 0
v -0.3 0.8 0
v 0.3 0.8 0
v 0.4 0.8 0
v 0.3 0.8 -0.1
v -0.4 0.8 -0.2
v -0.3 0.8 -0.2
v -0.1 0.8 -0.2
v 0.1 0.8 -0.2
v 0.3 0.8 -0.2
v 0.4 0.8 -0.2
v -0.3 0.8 -0.3
v 0.3 0.8 -0.3
v -0.5 0.9 0.3
v -0.4 0.9 0.3
v 0.4 0.9 0.3
v 0.5 0.9 0.3
v -0.5 0.9 0
v -0.4 0.9 0
v 0.4 0.9 0
v 0.5 0.9 0
v -0.4 0.9 -0.2
v -0.3 0.9 -0.2
v 0.3 0.9 -0.2
v 0.4 0.9 -0.2
v -0.3 0.9 -0.3
v 0.3 0.9 -0.3
v -0.5 0.9 -0.4
v 0.5 0.9 -0.4
v -0.6 1.3 0.4
v -0.4 1.3 0.4
v 0.4 1.3 0.4
v 0.6 1.3 0.4
v -0.5 1.3 0.3
v -0.4 1.3 0.3
v 0.4 1.3 0.3
v 0.5 1.3 0.3
v -0.5 1.3 0
v 0.5 1.3 0
v -0.6 1.3 -0.3
v -0.5 1.3 -0.3
v 0.5 1.3 -0.3
v 0.6 1.3 -0.3
v -0.3 1.3 -0.4
v 0.3 1.3 -0.4
v -0.3 1.3 -0.5
v 0.3 1.3 -0.5
v -0.6 1.4 0.5
v -0.4 1.4 0.5
v 0.4 1.4 0.5
v 0.6 1.4 0.5
v -0.7 1.4 0.4
v -0.6 1.4 0.4
v -0.4 1.4 0.4
v 0.4 1.4 0.4
v 0.6 1.4 0.4
v 0.7 1.4 0.4
v -0.4 1.4 0.3
v 0.4 1.4 0.3
v -0.7 1.4 -0.3
v -0.6 1.4 -0.3
v -0.5 1.4 -0.3
v 0.5 1.4 -0.3
v 0.6 1.4 -0.3
v 0.7 1.4 -0.3
v -0.6 1.4 -0.4
v -0.5 1.4 -0.4
v -0.3 1.4 -0.4
v 0.3 1.4 -0.4
v 0.5 1.4 -0.4
v 0.6 1.4 -0.4
v -0.5 1.4 -0.5
v -0.3 1.4 -0.5
v 0.3 1.4 -0.5
v 0.5 1.4 -0.5
v -0.4 1.5 0.5
v -0.2 1.5 0.5
v 0.2 1.5 0.5
v 0.4 1.5 0.5
v -0.4 1.5 0.4
v -0.2 1.5 0.4
v 0.2 1.5 0.4
v 0.4 1.5 0.4
v -0.2 1.6 0.5
v 0.2 1.6 0.5
v -0.2 1.6 0.4
v 0.2 1.6 0.4
v 0.1 0.1 0.2
v 0.3 0.1 0.2
v 0.1 0.1 0.1
v 0.3 0.1 0.1
v -0.3 0.3 0.3
v -0.1 0.3 0.3
v -0.3 0.3 0.2
v -0.1 0.3 0.2
v -0.3 0.4 0.4
v -0.1 0.4 0.4
v -0.3 0.4 0.3
v -0.1 0.4 0.3
v 0.3 0.7 0.3
v 0.5 0.7 0.3
v 0.3 0.7 0.2
v 0.5 0.7 0.2
v -0.5 0.7 0.1
v -0.3 0.7 0.1
v 0.3 0.7 0.1
v 0.5 0.7 0.1
v -0.5 0.7 -0.1
v -0.3 0.7 -0.1
v 0.3 0.7 -0.1
v 0.5 0.7 -0.1
v -0.6 1.5 0.5
v -0.5 1.5 0.5
v 0.5 1.5 0.5
v 0.6 1.5 0.5
v -0.6 1.5 0.4
v -0.5 1.5 0.4
v 0.5 1.5 0.4
v 0.6 1.5 0.4
v 0.7 1.5 0.4
v -0.6 1.5 -0.3
v -0.5 1.5 -0.3
v 0.5 1.5 -0.3
v 0.6 1.5 -0.3
v 0.7 1.5 -0.3
v -0.6 1.5 -0.4
v -0.5 1.5 -0.4
v 0.5 1.5 -0.4
v 0.6 1.5 -0.4
v -0.5 1.6 0.5
v -0.3 1.6 0.5
v 0.3 1.6 0.5
v 0.5 1.6 0.5
v -0.7 1.6 0.4
v -0.6 1.6 0.4
v -0.5 1.6 0.4
v -0.3 1.6 0.4
v 0.3 1.6 0.4
v 0.5 1.6 0.4
v -0.7 1.6 -0.3
v -0.6 1.6 -0.3
v -0.5 1.6 -0.4
v -0.3 1.6 -0.4
v 0.3 1.6 -0.4
v 0.5 1.6 -0.4
v -0.5 1.6 -0.5
v -0.3 1.6 -0.5
v 0.3 1.6 -0.5
v 0.5 1.6 -0.5
v -0.3 1.7 0.5
v -0.1 1.7 0.5
v 0.1 1.7 0.5
v 0.3 1.7 0.5
v -0.6 1.7 0.4
v -0.5 1.7 0.4
v -0.3 1.7 0.4
v -0.1 1.7 0.4
v 0.1 1.7 0.4
v 0.3 1.7 0.4
v 0.5 1.7 0.4
v 0.6 1.7 0.4
v -0.6 1.7 -0.3
v -0.5 1.7 -0.3
v 0.4 1.7 -0.3
v 0.5 1.7 -0.3
v 0.6 1.7 -0.3
v -0.3 1.7 -0.4
v -0.1 1.7 -0.4
v 0.1 1.7 -0.4
v 0.3 1.7 -0.4
v 0.4 1.7 -0.4
v 0.5 1.7 -0.4
v -0.3 1.7 -0.5
v -0.1 1.7 -0.5
v 0.1 1.7 -0.5
v 0.3 1.7 -0.5
v -0.1 1.8 0.5
v 0.1 1.8 0.5
v -0.5 1.8 0.4
v -0.3 1.8 0.4
v -0.1 1.8 0.4
v 0.1 1.8 0.4
v 0.3 1.8 0.4
v 0.5 1.8 0.4
v 0.4 1.8 -0.3
v 0.5 1.8 -0.3
v -0.5 1.8 -0.4
v -0.3 1.8 -0.4
v -0.1 1.8 -0.4
v 0.1 1.8 -0.4
v 0.3 1.8 -0.4
v 0.4 1.8 -0.4
v -0.1 1.8 -0.5
v 0.1 1.8 -0.5
v -0.3 1.9 0.4
v -0.2 1.9 0.4
v 0.2 1.9 0.4
v 0.3 1.9 0.4
v -0.3 1.9 -0.4
v -0.2 1.9 -0.4
v 0.2 1.9 -0.4
v 0.3 1.9 -0.4
v -0.2 2 0.4
v 0.2 2 0.4
v -0.2 2 -0.4
v 0.2 2 -0.4

# faces
f 3/7/1 2/7/1 1/7/1
f 4/7/1 2/7/1 3/7/1
f 8/4/1 6/4/1 5/4/1
f 9/4/1 6/4/1 8/4/1
f 11/7/1 8/7/1 7/7/1
f 12/7/1 8/7/1 11/7/1
f 13/7/1 10/7/1 9/7/1
f 14/7/1 10/7/1 13/7/1
f 17/7/1 16/7/1 15/7/1
f 18/7/1 16/7/1 17/7/1
f 21/5/1 20/5/1 19/5/1
f 22/5/1 20/5/1 21/5/1
f 23/2/1 22/2/1 21/2/1
f 24/2/1 22/2/1 23/2/1
f 25/8/1 24/8/1 23/8/1
f 26/8/1 24/8/1 25/8/1
f 30/2/1 28/2/1 27/2/1
f 31/4/1 29/4/1 28/4/1
f 31/2/1 28/2/1 30/2/1
f 32/4/1 29/4/1 31/4/1
f 33/4/1 29/4/1 32/4/1
f 34/4/1 29/4/1 33/4/1
f 39/7/1 35/7/1 34/7/1
f 40/7/1 37/7/1 36/7/1
f 41/7/1 37/7/1 40/7/1
f 42/7/1 39/7/1 38/7/1
f 42/7/1 35/7/1 39/7/1
f 43/7/1 35/7/1 42/7/1
f 45/7/1 42/7/1 38/7/1
f 46/7/1 45/7/1 44/7/1
f 47/7/1 42/7/1 45/7/1
f 47/7/1 45/7/1 46/7/1
f 51/2/1 49/2/1 48/2/1
f 52/4/1 50/4/1 49/4/1
f 52/2/1 49/2/1 51/2/1
f 53/4/1 50/4/1 52/4/1
f 57/5/1 55/5/1 54/5/1
f 58/3/1 56/3/1 55/3/1
f 58/5/1 55/5/1 57/5/1
f 59/3/1 56/3/1 58/3/1
f 60/3/1 56/3/1 59/3/1
f 62/5/1 57/5/1 54/5/1
f 63/5/1 57/5/1 62/5/1
f 64/5/1 59/5/1 58/5/1
f 65/5/1 59/5/1 64/5/1
f 66/5/1 61/5/1 60/5/1
f 67/5/1 61/5/1 66/5/1
f 68/3/1 65/3/1 64/3/1
f 69/3/1 67/3/1 66/3/1
f 70/3/1 68/3/1 64/3/1
f 71/3/1 67/3/1 69/3/1
f 72/3/1 70/3/1 64/3/1
f 72/3/1 71/3/1 70/3/1
f 73/3/1 71/3/1 72/3/1
f 74/3/1 67/3/1 71/3/1
f 74/3/1 71/3/1 73/3/1
f 76/4/1 75/4/1 74/4/1
f 77/4/1 75/4/1 76/4/1
f 80/7/1 79/7/1 78/7/1
f 81/7/1 79/7/1 80/7/1
f 86/7/1 83/7/1 82/7/1
f 87/7/1 83/7/1 86/7/1
f 88/7/1 85/7/1 84/7/1
f 89/7/1 85/7/1 88/7/1
f 92/7/1 91/7/1 90/7/1
f 93/7/1 91/7/1 92/7/1
f 96/7/1 95/7/1 94/7/1
f 97/7/1 95/7/1 96/7/1
f 102/7/1 99/7/1 98/7/1
f 103/7/1 99/7/1 102/7/1
f 104/7/1 101/7/1 100/7/1
f 105/7/1 101/7/1 104/7/1
f 108/5/1 107/5/1 106/5/1
f 109/5/1 107/5/1 108/5/1
f 110/5/1 107/5/1 109/5/1
f 111/5/1 107/5/1 110/5/1
f 112/3/1 111/3/1 110/3/1
f 113/3/1 111/3/1 112/3/1
f 116/7/1 115/7/1 114/7/1
f 117/7/1 115/7/1 116/7/1
f 120/5/1 119/5/1 118/5/1
f 121/5/1 119/5/1 120/5/1
f 125/4/1 123/4/1 122/4/1
f 126/4/1 123/4/1 125/4/1
f 127/7/1 125/7/1 124/7/1
f 128/7/1 125/7/1 127/7/1
f 129/4/2 130/4/2 132/4/2
f 132/4/2 130/4/2 133/4/2
f 131/7/2 132/7/2 134/7/2
f 134/7/2 132/7/2 135/7/2
f 136/7/2 137/7/2 138/7/2
f 138/7/2 137/7/2 139/7/2
f 140/5/2 141/5/2 143/5/2
f 141/3/2 142/3/2 144/3/2
f 143/5/2 141/5/2 144/5/2
f 144/3/2 142/3/2 145/3/2
f 145/3/2 142/3/2 146/3/2
f 140/5/2 143/5/2 147/5/2
f 147/5/2 143/5/2 148/5/2
f 149/7/2 150/7/2 153/7/2
f 153/7/2 150/7/2 154/7/2
f 151/7/2 152/7/2 155/7/2
f 155/7/2 152/7/2 156/7/2
f 157/7/2 158/7/2 159/7/2
f 159/7/2 158/7/2 160/7/2
f 161/5/2 162/5/2 163/5/2
f 163/5/2 162/5/2 164/5/2
f 164/5/2 162/5/2 165/5/2
f 165/5/2 162/5/2 166/5/2
f 165/3/2 166/3/2 168/3/2
f 168/3/2 166/3/2 169/3/2
f 168/5/2 169/5/2 171/5/2
f 169/5/2 170/5/2 171/5/2
f 167/5/2 168/5/2 171/5/2
f 171/5/2 170/5/2 172/5/2
f 171/3/2 172/3/2 173/3/2
f 173/3/2 172/3/2 174/3/2
f 174/3/2 172/3/2 175/3/2
f 175/3/2 172/3/2 178/3/2
f 176/3/2 177/3/2 179/3/2
f 177/8/2 178/8/2 180/8/2
f 179/3/2 177/3/2 180/3/2
f 180/8/2 178/8/2 181/8/2
f 178/3/2 172/3/2 182/3/2
f 181/8/2 178/8/2 182/8/2
f 182/3/2 172/3/2 183/3/2
f 183/4/2 184/4/2 185/4/2
f 185/4/2 184/4/2 186/4/2
f 187/7/2 188/7/2 189/7/2
f 189/7/2 188/7/2 190/7/2
f 191/7/2 192/7/2 195/7/2
f 195/7/2 192/7/2 196/7/2
f 193/7/2 194/7/2 197/7/2
f 197/7/2 194/7/2 198/7/2
f 199/7/2 200/7/2 201/7/2
f 201/7/2 200/7/2 202/7/2
f 203/2/2 204/2/2 206/2/2
f 204/4/2 205/4/2 207/4/2
f 206/2/2 204/2/2 207/2/2
f 207/4/2 205/4/2 208/4/2
f 209/7/2 210/7/2 211/7/2
f 211/7/2 210/7/2 212/7/2
f 213/5/2 214/5/2 217/5/2
f 214/2/2 215/2/2 218/2/2
f 217/5/2 214/5/2 218/5/2
f 215/8/2 216/8/2 219/8/2
f 218/2/2 215/2/2 219/2/2
f 219/8/2 216/8/2 220/8/2
f 221/2/2 222/2/2 224/2/2
f 222/4/2 223/4/2 225/4/2
f 224/2/2 222/2/2 225/2/2
f 225/4/2 223/4/2 226/4/2
f 226/4/2 223/4/2 227/4/2
f 227/4/2 223/4/2 228/4/2
f 228/7/2 229/7/2 233/7/2
f 230/7/2 231/7/2 234/7/2
f 234/7/2 231/7/2 235/7/2
f 232/7/2 233/7/2 236/7/2
f 233/7/2 229/7/2 236/7/2
f 236/7/2 229/7/2 237/7/2
f 232/7/2 236/7/2 239/7/2
f 239/7/2 236/7/2 240/7/2
f 238/7/2 239/7/2 241/7/2
f 241/7/2 239/7/2 242/7/2
f 243/4/2 244/4/2 246/4/2
f 246/4/2 244/4/2 247/4/2
f 245/7/2 246/7/2 249/7/2
f 249/7/2 246/7/2 250/7/2
f 247/7/2 248/7/2 251/7/2
f 251/7/2 248/7/2 252/7/2
f 250/7/2 251/7/2 253/7/2
f 253/7/2 251/7/2 254/7/2
f 255/7/2 256/7/2 257/7/2
f 257/7/2 256/7/2 258/7/2
f 261/7/3 260/7/3 259/7/3
f 263/7/3 261/7/3 259/7/3
f 263/7/3 262/7/3 261/7/3
f 264/7/3 262/7/3 263/7/3
f 265/7/3 262/7/3 264/7/3
f 267/7/3 265/7/3 264/7/3
f 267/7/3 266/7/3 265/7/3
f 268/7/3 266/7/3 267/7/3
f 269/7/3 266/7/3 268/7/3
f 271/7/3 269/7/3 268/7/3
f 271/7/3 270/7/3 269/7/3
f 272/7/3 270/7/3 271/7/3
f 274/7/3 271/7/3 268/7/3
f 275/7/3 271/7/3 274/7/3
f 275/7/3 274/7/3 273/7/3
f 276/7/3 271/7/3 275/7/3
f 278/7/3 275/7/3 273/7/3
f 279/7/3 275/7/3 278/7/3
f 279/7/3 278/7/3 277/7/3
f 280/7/3 275/7/3 279/7/3
f 281/7/3 279/7/3 277/7/3
f 282/7/3 279/7/3 281/7/3
f 286/7/3 284/7/3 283/7/3
f 287/7/3 284/7/3 286/7/3
f 288/7/3 284/7/3 287/7/3
f 290/7/3 289/7/3 288/7/3
f 290/7/3 288/7/3 287/7/3
f 291/7/3 289/7/3 290/7/3
f 292/7/3 289/7/3 291/7/3
f 294/4/3 286/4/3 285/4/3
f 295/4/3 286/4/3 294/4/3
f 299/7/3 293/7/3 292/7/3
f 299/7/3 292/7/3 291/7/3
f 300/7/3 293/7/3 299/7/3
f 301/7/3 293/7/3 300/7/3
f 303/4/3 296/4/3 295/4/3
f 305/7/3 302/7/3 301/7/3
f 305/7/3 301/7/3 300/7/3
f 307/5/3 298/5/3 297/5/3
f 308/5/3 298/5/3 307/5/3
f 309/7/3 306/7/3 305/7/3
f 309/7/3 305/7/3 300/7/3
f 310/7/3 306/7/3 309/7/3
f 312/7/3 306/7/3 310/7/3
f 313/4/3 304/4/3 303/4/3
f 313/4/3 303/4/3 295/4/3
f 314/4/3 304/4/3 313/4/3
f 315/7/3 312/7/3 311/7/3
f 315/7/3 306/7/3 312/7/3
f 316/7/3 306/7/3 315/7/3
f 318/7/3 315/7/3 311/7/3
f 319/7/3 315/7/3 318/7/3
f 320/7/3 315/7/3 319/7/3
f 322/4/3 313/4/3 295/4/3
f 323/4/3 313/4/3 322/4/3
f 325/7/3 318/7/3 317/7/3
f 325/7/3 319/7/3 318/7/3
f 326/7/3 319/7/3 325/7/3
f 327/7/3 319/7/3 326/7/3
f 328/4/3 322/4/3 321/4/3
f 329/4/3 322/4/3 328/4/3
f 330/7/3 325/7/3 324/7/3
f 330/7/3 326/7/3 325/7/3
f 331/7/3 326/7/3 330/7/3
f 332/7/3 330/7/3 329/7/3
f 333/7/3 330/7/3 332/7/3
f 337/2/3 335/2/3 334/2/3
f 338/2/3 335/2/3 337/2/3
f 340/2/3 337/2/3 336/2/3
f 340/2/3 339/2/3 338/2/3
f 340/2/3 338/2/3 337/2/3
f 341/2/3 339/2/3 340/2/3
f 342/2/3 340/2/3 336/2/3
f 342/9/3 341/9/3 340/9/3
f 343/2/3 339/2/3 341/2/3
f 343/9/3 341/9/3 342/9/3
f 344/2/3 342/2/3 336/2/3
f 345/2/3 342/2/3 344/2/3
f 346/10/3 343/10/3 342/10/3
f 346/2/3 342/2/3 345/2/3
f 347/2/3 339/2/3 343/2/3
f 347/10/3 343/10/3 346/10/3
f 348/1/3 345/1/3 344/1/3
f 348/2/3 344/2/3 336/2/3
f 349/2/3 346/2/3 345/2/3
f 349/1/3 345/1/3 348/1/3
f 349/2/3 347/2/3 346/2/3
f 350/2/3 347/2/3 349/2/3
f 351/2/3 339/2/3 347/2/3
f 351/2/3 347/2/3 350/2/3
f 352/2/3 350/2/3 349/2/3
f 352/2/3 349/2/3 348/2/3
f 352/10/3 351/10/3 350/10/3
f 353/2/3 339/2/3 351/2/3
f 353/10/3 351/10/3 352/10/3
f 356/2/3 352/2/3 348/2/3
f 356/9/3 353/9/3 352/9/3
f 357/2/3 339/2/3 353/2/3
f 357/9/3 353/9/3 356/9/3
f 358/2/3 348/2/3 336/2/3
f 358/2/3 356/2/3 348/2/3
f 358/2/3 357/2/3 356/2/3
f 359/2/3 357/2/3 358/2/3
f 360/2/3 339/2/3 357/2/3
f 360/2/3 357/2/3 359/2/3
f 361/2/3 339/2/3 360/2/3
f 362/5/3 355/5/3 354/5/3
f 363/5/3 355/5/3 362/5/3
f 364/2/3 360/2/3 359/2/3
f 365/2/3 360/2/3 364/2/3
f 369/3/3 368/3/3 367/3/3
f 370/3/3 368/3/3 369/3/3
f 371/5/3 367/5/3 366/5/3
f 372/3/3 369/3/3 367/3/3
f 372/5/3 367/5/3 371/5/3
f 373/3/3 369/3/3 372/3/3
f 374/8/3 370/8/3 369/8/3
f 374/3/3 369/3/3 373/3/3
f 375/8/3 370/8/3 374/8/3
f 378/6/3 372/6/3 371/6/3
f 379/3/3 373/3/3 372/3/3
f 379/6/3 372/6/3 378/6/3
f 380/8/3 374/8/3 373/8/3
f 380/3/3 373/3/3 379/3/3
f 381/2/3 375/2/3 374/2/3
f 381/8/3 374/8/3 380/8/3
f 382/2/3 375/2/3 381/2/3
f 383/3/3 380/3/3 379/3/3
f 383/3/3 381/3/3 380/3/3
f 383/8/3 382/8/3 381/8/3
f 384/8/3 382/8/3 383/8/3
f 385/5/3 377/5/3 376/5/3
f 386/5/3 377/5/3 385/5/3
f 387/5/3 379/5/3 378/5/3
f 388/3/3 383/3/3 379/3/3
f 388/5/3 379/5/3 387/5/3
f 388/3/3 384/3/3 383/3/3
f 389/3/3 384/3/3 388/3/3
f 390/3/3 384/3/3 389/3/3
f 391/3/3 384/3/3 390/3/3
f 396/5/3 393/5/3 392/5/3
f 397/2/3 394/2/3 393/2/3
f 397/5/3 393/5/3 396/5/3
f 398/8/3 395/8/3 394/8/3
f 398/2/3 394/2/3 397/2/3
f 399/8/3 395/8/3 398/8/3
f 403/5/3 401/5/3 400/5/3
f 404/3/3 402/3/3 401/3/3
f 404/5/3 401/5/3 403/5/3
f 405/3/3 402/3/3 404/3/3
f 406/5/4 407/5/4 408/5/4
f 408/5/4 407/5/4 409/5/4
f 410/5/4 411/5/4 415/5/4
f 411/2/4 412/2/4 416/2/4
f 415/5/4 411/5/4 416/5/4
f 412/8/4 413/8/4 417/8/4
f 416/2/4 412/2/4 417/2/4
f 417/8/4 413/8/4 418/8/4
f 414/3/4 415/3/4 419/3/4
f 419/3/4 415/3/4 420/3/4
f 421/5/4 422/5/4 424/5/4
f 422/3/4 423/3/4 425/3/4
f 424/5/4 422/5/4 425/5/4
f 425/3/4 423/3/4 426/3/4
f 427/8/4 428/8/4 429/8/4
f 429/8/4 428/8/4 430/8/4
f 431/4/4 432/4/4 435/4/4
f 435/4/4 432/4/4 436/4/4
f 434/3/4 435/3/4 437/3/4
f 437/3/4 435/3/4 438/3/4
f 434/3/4 437/3/4 439/3/4
f 437/8/4 438/8/4 439/8/4
f 439/8/4 438/8/4 440/8/4
f 433/5/4 434/5/4 441/5/4
f 434/3/4 439/3/4 442/3/4
f 441/5/4 434/5/4 442/5/4
f 439/3/4 440/3/4 442/3/4
f 442/3/4 440/3/4 443/3/4
f 443/4/4 444/4/4 445/4/4
f 445/4/4 444/4/4 446/4/4
f 447/7/4 448/7/4 450/7/4
f 450/7/4 448/7/4 451/7/4
f 451/7/4 448/7/4 452/7/4
f 449/4/4 450/4/4 454/4/4
f 454/4/4 450/4/4 455/4/4
f 452/7/4 453/7/4 456/7/4
f 451/7/4 452/7/4 456/7/4
f 456/7/4 453/7/4 457/7/4
f 458/4/4 459/4/4 460/4/4
f 460/4/4 459/4/4 461/4/4
f 462/7/4 463/7/4 467/7/4
f 467/7/4 463/7/4 468/7/4
f 464/4/4 465/4/4 469/4/4
f 469/4/4 465/4/4 470/4/4
f 466/7/4 467/7/4 471/7/4
f 471/7/4 467/7/4 472/7/4
f 470/7/4 471/7/4 473/7/4
f 473/7/4 471/7/4 474/7/4
f 475/7/4 476/7/4 478/7/4
f 478/7/4 476/7/4 479/7/4
f 477/4/4 478/4/4 482/4/4
f 482/4/4 478/4/4 483/4/4
f 480/7/4 481/7/4 484/7/4
f 484/7/4 481/7/4 485/7/4
f 485/7/4 481/7/4 486/7/4
f 486/7/4 487/7/4 488/7/4
f 485/7/4 486/7/4 488/7/4
f 485/7/4 488/7/4 490/7/4
f 488/7/4 489/7/4 490/7/4
f 490/7/4 489/7/4 491/7/4
f 491/7/4 489/7/4 493/7/4
f 493/7/4 489/7/4 494/7/4
f 492/7/4 493/7/4 494/7/4
f 494/7/4 489/7/4 495/7/4
f 477/4/4 482/4/4 496/4/4
f 492/7/4 494/7/4 499/7/4
f 499/7/4 494/7/4 500/7/4
f 500/7/4 494/7/4 501/7/4
f 498/7/4 499/7/4 502/7/4
f 499/7/4 500/7/4 502/7/4
f 502/7/4 500/7/4 503/7/4
f 496/4/4 497/4/4 504/4/4
f 477/4/4 496/4/4 504/4/4
f 504/4/4 497/4/4 505/4/4
f 498/7/4 502/7/4 507/7/4
f 507/7/4 502/7/4 508/7/4
f 505/7/4 506/7/4 509/7/4
f 509/7/4 506/7/4 510/7/4
f 511/7/4 512/7/4 514/7/4
f 514/7/4 512/7/4 515/7/4
f 513/7/4 514/7/4 517/7/4
f 515/7/4 516/7/4 517/7/4
f 514/7/4 515/7/4 517/7/4
f 513/7/4 517/7/4 519/7/4
f 517/7/4 518/7/4 519/7/4
f 519/7/4 518/7/4 520/7/4
f 513/7/4 519/7/4 521/7/4
f 521/7/4 519/7/4 522/7/4
f 522/7/4 519/7/4 523/7/4
f 523/7/4 519/7/4 524/7/4
f 522/7/4 523/7/4 525/7/4
f 525/7/4 523/7/4 526/7/4
f 529/5/5 528/5/5 527/5/5
f 530/5/5 528/5/5 529/5/5
f 533/5/5 532/5/5 531/5/5
f 534/5/5 532/5/5 533/5/5
f 535/3/5 534/3/5 533/3/5
f 536/3/5 534/3/5 535/3/5
f 542/6/5 538/6/5 537/6/5
f 543/5/5 539/5/5 538/5/5
f 543/6/5 538/6/5 542/6/5
f 544/5/5 539/5/5 543/5/5
f 545/5/5 541/5/5 540/5/5
f 546/5/5 541/5/5 545/5/5
f 547/3/5 543/3/5 542/3/5
f 548/3/5 543/3/5 547/3/5
f 550/5/5 549/5/5 548/5/5
f 550/5/5 548/5/5 547/5/5
f 550/5/5 547/5/5 546/5/5
f 551/5/5 549/5/5 550/5/5
f 554/5/5 553/5/5 552/5/5
f 555/5/5 553/5/5 554/5/5
f 556/2/5 555/2/5 554/2/5
f 557/2/5 555/2/5 556/2/5
f 558/8/5 557/8/5 556/8/5
f 559/8/5 557/8/5 558/8/5
f 562/2/5 561/2/5 560/2/5
f 563/2/5 561/2/5 562/2/5
f 564/2/5 561/2/5 563/2/5
f 565/2/5 561/2/5 564/2/5
f 566/2/5 561/2/5 565/2/5
f 567/2/5 561/2/5 566/2/5
f 568/2/5 561/2/5 567/2/5
f 569/2/5 562/2/5 560/2/5
f 570/2/5 562/2/5 569/2/5
f 571/2/5 561/2/5 568/2/5
f 572/2/5 561/2/5 571/2/5
f 573/4/5 572/4/5 571/4/5
f 574/4/5 570/4/5 569/4/5
f 575/4/5 570/4/5 574/4/5
f 578/4/5 572/4/5 573/4/5
f 579/4/5 572/4/5 578/4/5
f 580/4/5 577/4/5 576/4/5
f 580/4/5 578/4/5 577/4/5
f 580/4/5 576/4/5 575/4/5
f 581/4/5 578/4/5 580/4/5
f 586/2/5 583/2/5 582/2/5
f 587/2/5 583/2/5 586/2/5
f 588/2/5 585/2/5 584/2/5
f 589/2/5 585/2/5 588/2/5
f 590/4/5 587/4/5 586/4/5
f 593/4/5 589/4/5 588/4/5
f 594/4/5 591/4/5 590/4/5
f 595/4/5 593/4/5 592/4/5
f 596/4/5 594/4/5 590/4/5
f 596/4/5 595/4/5 594/4/5
f 596/4/5 590/4/5 586/4/5
f 597/4/5 593/4/5 595/4/5
f 597/4/5 595/4/5 596/4/5
f 597/4/5 589/4/5 593/4/5
f 602/4/5 599/4/5 598/4/5
f 603/4/5 599/4/5 602/4/5
f 604/4/5 601/4/5 600/4/5
f 605/4/5 601/4/5 604/4/5
f 606/4/5 602/4/5 598/4/5
f 607/4/5 601/4/5 605/4/5
f 608/4/5 606/4/5 598/4/5
f 609/4/5 606/4/5 608/4/5
f 610/4/5 601/4/5 607/4/5
f 611/4/5 601/4/5 610/4/5
f 614/7/5 613/7/5 612/7/5
f 615/7/5 613/7/5 614/7/5
f 621/7/5 617/7/5 616/7/5
f 622/7/5 617/7/5 621/7/5
f 623/7/5 619/7/5 618/7/5
f 624/7/5 619/7/5 623/7/5
f 626/4/5 623/4/5 622/4/5
f 627/4/5 623/4/5 626/4/5
f 628/7/5 621/7/5 620/7/5
f 629/7/5 621/7/5 628/7/5
f 632/7/5 625/7/5 624/7/5
f 633/7/5 625/7/5 632/7/5
f 634/7/5 630/7/5 629/7/5
f 635/7/5 630/7/5 634/7/5
f 638/7/5 632/7/5 631/7/5
f 639/7/5 632/7/5 638/7/5
f 640/7/5 636/7/5 635/7/5
f 641/7/5 636/7/5 640/7/5
f 642/7/5 638/7/5 637/7/5
f 643/7/5 638/7/5 642/7/5
f 648/7/5 645/7/5 644/7/5
f 649/7/5 645/7/5 648/7/5
f 650/7/5 647/7/5 646/7/5
f 651/7/5 647/7/5 650/7/5
f 654/7/5 653/7/5 652/7/5
f 655/7/5 653/7/5 654/7/5
f 656/5/6 657/5/6 658/5/6
f 658/5/6 657/5/6 659/5/6
f 660/5/6 661/5/6 662/5/6
f 662/5/6 661/5/6 663/5/6
f 664/5/6 665/5/6 666/5/6
f 666/5/6 665/5/6 667/5/6
f 668/5/6 669/5/6 670/5/6
f 670/5/6 669/5/6 671/5/6
f 670/2/6 671/2/6 674/2/6
f 674/2/6 671/2/6 675/2/6
f 672/8/6 673/8/6 676/8/6
f 676/8/6 673/8/6 677/8/6
f 674/8/6 675/8/6 678/8/6
f 678/8/6 675/8/6 679/8/6
f 680/7/6 681/7/6 684/7/6
f 684/7/6 681/7/6 685/7/6
f 682/7/6 683/7/6 686/7/6
f 686/7/6 683/7/6 687/7/6
f 687/7/6 688/7/6 692/7/6
f 692/7/6 688/7/6 693/7/6
f 689/7/6 690/7/6 694/7/6
f 694/7/6 690/7/6 695/7/6
f 691/7/6 692/7/6 696/7/6
f 696/7/6 692/7/6 697/7/6
f 698/7/6 699/7/6 704/7/6
f 704/7/6 699/7/6 705/7/6
f 700/7/6 701/7/6 706/7/6
f 706/7/6 701/7/6 707/7/6
f 702/7/6 703/7/6 708/7/6
f 708/7/6 703/7/6 709/7/6
f 710/7/6 711/7/6 714/7/6
f 714/7/6 711/7/6 715/7/6
f 712/7/6 713/7/6 716/7/6
f 716/7/6 713/7/6 717/7/6
f 718/7/6 719/7/6 724/7/6
f 724/7/6 719/7/6 725/7/6
f 720/7/6 721/7/6 726/7/6
f 726/7/6 721/7/6 727/7/6
f 722/7/6 723/7/6 730/7/6
f 730/7/6 723/7/6 731/7/6
f 728/7/6 729/7/6 733/7/6
f 733/7/6 729/7/6 734/7/6
f 732/7/6 733/7/6 739/7/6
f 739/7/6 733/7/6 740/7/6
f 735/7/6 736/7/6 741/7/6
f 741/7/6 736/7/6 742/7/6
f 737/7/6 738/7/6 743/7/6
f 743/7/6 738/7/6 744/7/6
f 745/7/6 746/7/6 749/7/6
f 749/7/6 746/7/6 750/7/6
f 751/7/6 752/7/6 753/7/6
f 753/7/6 752/7/6 754/7/6
f 747/7/6 748/7/6 755/7/6
f 755/7/6 748/7/6 756/7/6
f 751/7/6 753/7/6 759/7/6
f 759/7/6 753/7/6 760/7/6
f 757/7/6 758/7/6 761/7/6
f 761/7/6 758/7/6 762/7/6
f 763/7/6 764/7/6 767/7/6
f 767/7/6 764/7/6 768/7/6
f 765/7/6 766/7/6 769/7/6
f 769/7/6 766/7/6 770/7/6
f 771/7/6 772/7/6 773/7/6
f 773/7/6 772/7/6 774/7/6
