# MagicaVoxel @ Ephtracy

# group
o 

# material
mtllib Chalkboard.vox.mtl
usemtl palette

# normals
vn -1 0 0
vn 1 0 0
vn 0 0 1
vn 0 0 -1
vn 0 -1 0
vn 0 1 0

# texcoords
vt 0.263672 0.5
vt 0.583984 0.5
vt 0.958984 0.5
vt 0.986328 0.5

# verts
v -1.6 0 -0.6
v -1.6 0 -0.8
v -1.6 0.1 -0.6
v -1.6 0.1 -0.7
v -1.6 2 -0.7
v -1.6 2 -0.8
v -1.4 0.1 -0.6
v -1.4 0.1 -0.7
v -1.4 0.2 -0.6
v -1.4 0.2 -0.7
v 0.7 0.1 -0.6
v 0.7 0.1 -0.7
v 0.7 0.2 -0.6
v 0.7 0.2 -0.7
v -1.1 0.1 -0.6
v -1.1 0.1 -0.7
v -1.1 0.2 -0.6
v -1.1 0.2 -0.7
v 1 0.1 -0.6
v 1 0.1 -0.7
v 1 0.2 -0.6
v 1 0.2 -0.7
v 1.6 0 -0.6
v 1.6 0 -0.8
v 1.6 0.1 -0.6
v 1.6 0.1 -0.7
v 1.6 2 -0.7
v 1.6 2 -0.8
v -1.6 0 -0.6
v -1.6 0.1 -0.6
v -1.4 0.1 -0.6
v -1.4 0.2 -0.6
v -1.1 0.1 -0.6
v -1.1 0.2 -0.6
v 0.7 0.1 -0.6
v 0.7 0.2 -0.6
v 1 0.1 -0.6
v 1 0.2 -0.6
v 1.6 0 -0.6
v 1.6 0.1 -0.6
v -1.6 0.1 -0.7
v -1.6 2 -0.7
v -1.5 0.1 -0.7
v -1.5 1.9 -0.7
v -1.4 0.1 -0.7
v -1.4 0.2 -0.7
v -1.1 0.1 -0.7
v -1.1 0.2 -0.7
v 0.7 0.1 -0.7
v 0.7 0.2 -0.7
v 1 0.1 -0.7
v 1 0.2 -0.7
v 1.5 0.1 -0.7
v 1.5 1.9 -0.7
v 1.6 0.1 -0.7
v 1.6 2 -0.7
v -1.6 0 -0.8
v -1.6 2 -0.8
v -1.5 0.1 -0.8
v -1.5 1.9 -0.8
v 1.5 0.1 -0.8
v 1.5 1.9 -0.8
v 1.6 0 -0.8
v 1.6 2 -0.8
v -1.6 0 -0.6
v 1.6 0 -0.6
v -1.6 0 -0.8
v 1.6 0 -0.8
v -1.6 0.1 -0.6
v -1.4 0.1 -0.6
v -1.1 0.1 -0.6
v 0.7 0.1 -0.6
v 1 0.1 -0.6
v 1.6 0.1 -0.6
v -1.6 0.1 -0.7
v -1.5 0.1 -0.7
v -1.4 0.1 -0.7
v -1.1 0.1 -0.7
v 0.7 0.1 -0.7
v 1 0.1 -0.7
v 1.5 0.1 -0.7
v 1.6 0.1 -0.7
v -1.4 0.2 -0.6
v -1.1 0.2 -0.6
v 0.7 0.2 -0.6
v 1 0.2 -0.6
v -1.4 0.2 -0.7
v -1.1 0.2 -0.7
v 0.7 0.2 -0.7
v 1 0.2 -0.7
v -1.6 2 -0.7
v 1.6 2 -0.7
v -1.6 2 -0.8
v 1.6 2 -0.8

# faces
f 3/1/1 2/1/1 1/1/1
f 4/1/1 2/1/1 3/1/1
f 5/1/1 2/1/1 4/1/1
f 6/1/1 2/1/1 5/1/1
f 9/3/1 8/3/1 7/3/1
f 10/3/1 8/3/1 9/3/1
f 13/4/1 12/4/1 11/4/1
f 14/4/1 12/4/1 13/4/1
f 15/3/2 16/3/2 17/3/2
f 17/3/2 16/3/2 18/3/2
f 19/4/2 20/4/2 21/4/2
f 21/4/2 20/4/2 22/4/2
f 23/1/2 24/1/2 25/1/2
f 25/1/2 24/1/2 26/1/2
f 26/1/2 24/1/2 27/1/2
f 27/1/2 24/1/2 28/1/2
f 31/1/3 30/1/3 29/1/3
f 33/1/3 31/1/3 29/1/3
f 33/3/3 32/3/3 31/3/3
f 34/3/3 32/3/3 33/3/3
f 35/1/3 33/1/3 29/1/3
f 37/1/3 35/1/3 29/1/3
f 37/4/3 36/4/3 35/4/3
f 38/4/3 36/4/3 37/4/3
f 39/1/3 37/1/3 29/1/3
f 40/1/3 37/1/3 39/1/3
f 43/1/3 42/1/3 41/1/3
f 44/1/3 42/1/3 43/1/3
f 45/2/3 44/2/3 43/2/3
f 46/2/3 44/2/3 45/2/3
f 48/2/3 44/2/3 46/2/3
f 49/2/3 48/2/3 47/2/3
f 50/2/3 44/2/3 48/2/3
f 50/2/3 48/2/3 49/2/3
f 52/2/3 44/2/3 50/2/3
f 53/2/3 52/2/3 51/2/3
f 54/1/3 42/1/3 44/1/3
f 54/2/3 52/2/3 53/2/3
f 54/2/3 44/2/3 52/2/3
f 55/1/3 54/1/3 53/1/3
f 56/1/3 42/1/3 54/1/3
f 56/1/3 54/1/3 55/1/3
f 57/1/4 58/1/4 59/1/4
f 59/1/4 58/1/4 60/1/4
f 57/1/4 59/1/4 61/1/4
f 59/2/4 60/2/4 61/2/4
f 60/1/4 58/1/4 62/1/4
f 61/2/4 60/2/4 62/2/4
f 57/1/4 61/1/4 63/1/4
f 61/1/4 62/1/4 63/1/4
f 62/1/4 58/1/4 64/1/4
f 63/1/4 62/1/4 64/1/4
f 67/1/5 66/1/5 65/1/5
f 68/1/5 66/1/5 67/1/5
f 69/1/6 70/1/6 75/1/6
f 75/1/6 70/1/6 76/1/6
f 76/1/6 70/1/6 77/1/6
f 71/1/6 72/1/6 78/1/6
f 78/1/6 72/1/6 79/1/6
f 73/1/6 74/1/6 80/1/6
f 80/1/6 74/1/6 81/1/6
f 81/1/6 74/1/6 82/1/6
f 83/3/6 84/3/6 87/3/6
f 87/3/6 84/3/6 88/3/6
f 85/4/6 86/4/6 89/4/6
f 89/4/6 86/4/6 90/4/6
f 91/1/6 92/1/6 93/1/6
f 93/1/6 92/1/6 94/1/6
