# MagicaVoxel @ Ephtracy

# group
o 

# material
mtllib Class_Desk.vox.mtl
usemtl palette

# normals
vn -1 0 0
vn 1 0 0
vn 0 0 1
vn 0 0 -1
vn 0 -1 0
vn 0 1 0

# texcoords
vt 0.263672 0.5
vt 0.751953 0.5
vt 0.978516 0.5

# verts
v -0.8 0.5 -0.9
v -0.8 0.5 -1
v -0.8 0.6 -0.8
v -0.8 0.6 -0.9
v -0.8 0.6 -1
v -0.8 0.7 -0.6
v -0.8 0.7 -0.8
v -0.8 0.7 -0.9
v -0.8 0.8 -1.19209e-07
v -0.8 0.8 -0.6
v -0.8 0.8 -0.8
v -0.8 0.9 1.2
v -0.8 0.9 -1.19209e-07
v -0.8 0.9 -0.6
v -0.8 1.1 1.2
v -0.8 1.1 -1.19209e-07
v -0.7 0 1
v -0.7 0 0.9
v -0.7 0 0.3
v -0.7 0 0.2
v -0.7 0.5 -0.6
v -0.7 0.5 -0.8
v -0.7 0.5 -0.9
v -0.7 0.6 -0.6
v -0.7 0.6 -0.7
v -0.7 0.6 -0.8
v -0.7 0.6 -0.9
v -0.7 0.6 -1
v -0.7 0.7 -1.19209e-07
v -0.7 0.7 -0.6
v -0.7 0.7 -0.7
v -0.7 0.7 -0.8
v -0.7 0.7 -0.9
v -0.7 0.7 -1
v -0.7 0.8 0.2
v -0.7 0.8 -1.19209e-07
v -0.7 0.8 -0.6
v -0.7 0.8 -0.8
v -0.7 0.8 -0.9
v -0.7 0.9 1
v -0.7 0.9 0.9
v -0.7 0.9 0.3
v -0.7 0.9 -1.19209e-07
v -0.7 0.9 -0.6
v -0.7 0.9 -0.8
v -0.7 0.9 -0.9
v -0.7 0.9 -1
v -0.6 0 1.1
v -0.6 0 1
v -0.6 0 0.2
v -0.6 0 0.0999999
v -0.6 0.5 -0.3
v -0.6 0.5 -0.6
v -0.6 0.6 -0.6
v -0.6 0.6 -0.7
v -0.6 0.6 -1
v -0.6 0.6 -1.1
v -0.6 0.7 -0.3
v -0.6 0.7 -0.7
v -0.6 0.7 -1
v -0.6 0.8 0.2
v -0.6 0.8 0.0999999
v -0.6 0.9 1.1
v -0.6 0.9 1
v -0.6 0.9 -1
v -0.6 1.1 -1
v -0.6 1.1 -1.1
v -0.5 0 -1.19209e-07
v -0.5 0 -0.1
v -0.5 0 -1.1
v -0.5 0 -1.2
v -0.5 0.2 -1.19209e-07
v -0.5 0.2 -0.1
v -0.5 0.2 -0.2
v -0.5 0.2 -1
v -0.5 0.2 -1.1
v -0.5 0.2 -1.2
v -0.5 0.4 -0.1
v -0.5 0.4 -0.2
v -0.5 0.4 -0.3
v -0.5 0.4 -0.9
v -0.5 0.4 -1
v -0.5 0.4 -1.1
v -0.5 0.5 -0.2
v -0.5 0.5 -0.3
v -0.5 0.5 -0.9
v -0.5 0.5 -1
v -0.5 0.7 -0.2
v -0.5 0.7 -0.3
v -0.5 0.7 -1.1
v -0.5 0.7 -1.2
v -0.5 0.8 0.9
v -0.5 0.8 0.8
v -0.5 0.9 0.9
v -0.5 0.9 0.8
v -0.5 1.1 -1.1
v -0.5 1.2 -1.1
v -0.5 1.2 -1.2
v -0.4 0.6 -0.1
v -0.4 0.6 -0.2
v -0.4 0.7 -0.1
v -0.4 0.7 -0.2
v -0.4 1.2 -1.1
v -0.4 1.2 -1.2
v -0.4 1.4 -1.1
v -0.4 1.4 -1.2
v -0.3 1.4 -1.1
v -0.3 1.4 -1.2
v -0.3 1.5 -1.1
v -0.3 1.5 -1.2
v -0.2 0.5 -0.2
v -0.2 0.5 -0.3
v -0.2 0.6 -1.19209e-07
v -0.2 0.6 -0.1
v -0.2 0.6 -0.2
v -0.2 0.6 -0.3
v -0.2 0.7 -1.19209e-07
v -0.2 0.7 -0.1
v -0.2 1.5 -1.1
v -0.2 1.5 -1.2
v -0.2 1.6 -1.1
v -0.2 1.6 -1.2
v 0.3 0.5 -0.9
v 0.3 0.5 -1
v 0.3 0.6 -0.9
v 0.3 0.6 -1
v 0.4 0 0.2
v 0.4 0 0.0999999
v 0.4 0 -1.19209e-07
v 0.4 0 -0.1
v 0.4 0 -1.1
v 0.4 0 -1.2
v 0.4 0.2 -1.19209e-07
v 0.4 0.2 -0.1
v 0.4 0.2 -0.2
v 0.4 0.2 -1
v 0.4 0.2 -1.1
v 0.4 0.2 -1.2
v 0.4 0.4 -0.1
v 0.4 0.4 -0.2
v 0.4 0.4 -0.3
v 0.4 0.4 -0.9
v 0.4 0.4 -1
v 0.4 0.4 -1.1
v 0.4 0.5 -0.2
v 0.4 0.5 -0.3
v 0.4 0.5 -0.5
v 0.4 0.5 -0.7
v 0.4 0.5 -0.9
v 0.4 0.5 -1
v 0.4 0.6 -0.2
v 0.4 0.6 -0.3
v 0.4 0.6 -0.5
v 0.4 0.6 -0.7
v 0.4 0.8 0.8
v 0.4 0.8 0.3
v 0.4 0.8 0.2
v 0.4 0.9 0.8
v 0.4 0.9 0.3
v 0.4 0.9 0.2
v 0.4 0.9 0.0999999
v 0.5 0 1.1
v 0.5 0 1
v 0.5 0 0.3
v 0.5 0 0.2
v 0.5 0.7 -1
v 0.5 0.7 -1.1
v 0.5 0.8 0.3
v 0.5 0.8 0.2
v 0.5 0.9 1.1
v 0.5 0.9 1
v 0.5 1.1 -1
v 0.5 1.1 -1.1
v 0.6 0 1
v 0.6 0 0.9
v 0.6 0.7 -0.8
v 0.6 0.7 -1
v 0.6 0.8 -0.8
v 0.6 0.8 -0.9
v 0.6 0.9 1
v 0.6 0.9 0.9
v 0.6 0.9 -0.9
v 0.6 0.9 -1
v -0.6 0 1
v -0.6 0 0.9
v -0.6 0 0.3
v -0.6 0 0.2
v -0.6 0.7 -1.19209e-07
v -0.6 0.7 -0.3
v -0.6 0.7 -0.9
v -0.6 0.7 -1
v -0.6 0.8 0.3
v -0.6 0.8 0.2
v -0.6 0.8 0.0999999
v -0.6 0.8 -1.19209e-07
v -0.6 0.8 -0.8
v -0.6 0.8 -0.9
v -0.6 0.9 1
v -0.6 0.9 0.9
v -0.6 0.9 0.0999999
v -0.6 0.9 -1.19209e-07
v -0.6 0.9 -0.8
v -0.6 0.9 -0.9
v -0.6 0.9 -1
v -0.5 0 1.1
v -0.5 0 1
v -0.5 0 0.2
v -0.5 0 0.0999999
v -0.5 0.7 -1
v -0.5 0.7 -1.1
v -0.5 0.8 0.2
v -0.5 0.9 1.1
v -0.5 0.9 1
v -0.5 0.9 0.2
v -0.5 0.9 0.0999999
v -0.5 1.1 -1
v -0.5 1.1 -1.1
v -0.4 0 -1.19209e-07
v -0.4 0 -0.1
v -0.4 0 -1.1
v -0.4 0 -1.2
v -0.4 0.2 -1.19209e-07
v -0.4 0.2 -0.1
v -0.4 0.2 -0.2
v -0.4 0.2 -1
v -0.4 0.2 -1.1
v -0.4 0.2 -1.2
v -0.4 0.4 -0.1
v -0.4 0.4 -0.2
v -0.4 0.4 -0.3
v -0.4 0.4 -0.9
v -0.4 0.4 -1
v -0.4 0.4 -1.1
v -0.4 0.5 -0.2
v -0.4 0.5 -0.3
v -0.4 0.5 -0.5
v -0.4 0.5 -0.7
v -0.4 0.5 -0.9
v -0.4 0.5 -1
v -0.4 0.6 -0.2
v -0.4 0.6 -0.3
v -0.4 0.6 -0.5
v -0.4 0.6 -0.7
v -0.3 0.5 -0.9
v -0.3 0.5 -1
v -0.3 0.6 -0.9
v -0.3 0.6 -1
v 0.2 0.5 -0.2
v 0.2 0.5 -0.3
v 0.2 0.6 -1.19209e-07
v 0.2 0.6 -0.1
v 0.2 0.6 -0.2
v 0.2 0.6 -0.3
v 0.2 0.7 -1.19209e-07
v 0.2 0.7 -0.1
v 0.2 1.5 -1.1
v 0.2 1.5 -1.2
v 0.2 1.6 -1.1
v 0.2 1.6 -1.2
v 0.3 1.4 -1.1
v 0.3 1.4 -1.2
v 0.3 1.5 -1.1
v 0.3 1.5 -1.2
v 0.4 0.6 -0.1
v 0.4 0.6 -0.2
v 0.4 0.7 -0.1
v 0.4 0.7 -0.2
v 0.4 1.2 -1.1
v 0.4 1.2 -1.2
v 0.4 1.4 -1.1
v 0.4 1.4 -1.2
v 0.5 0 0.2
v 0.5 0 0.0999999
v 0.5 0 -1.19209e-07
v 0.5 0 -0.1
v 0.5 0 -1.1
v 0.5 0 -1.2
v 0.5 0.2 -1.19209e-07
v 0.5 0.2 -0.1
v 0.5 0.2 -0.2
v 0.5 0.2 -1
v 0.5 0.2 -1.1
v 0.5 0.2 -1.2
v 0.5 0.4 -0.1
v 0.5 0.4 -0.2
v 0.5 0.4 -0.3
v 0.5 0.4 -0.9
v 0.5 0.4 -1
v 0.5 0.4 -1.1
v 0.5 0.5 -0.2
v 0.5 0.5 -0.3
v 0.5 0.5 -0.9
v 0.5 0.5 -1
v 0.5 0.7 -0.2
v 0.5 0.7 -0.3
v 0.5 0.7 -1.1
v 0.5 0.7 -1.2
v 0.5 0.8 0.9
v 0.5 0.8 0.3
v 0.5 0.9 0.9
v 0.5 0.9 0.3
v 0.5 0.9 0.2
v 0.5 0.9 0.0999999
v 0.5 1.1 -1.1
v 0.5 1.2 -1.1
v 0.5 1.2 -1.2
v 0.6 0 1.1
v 0.6 0 1
v 0.6 0 0.3
v 0.6 0 0.2
v 0.6 0.5 -0.3
v 0.6 0.5 -0.6
v 0.6 0.6 -0.6
v 0.6 0.6 -0.7
v 0.6 0.6 -1
v 0.6 0.6 -1.1
v 0.6 0.7 -0.3
v 0.6 0.7 -0.7
v 0.6 0.9 1.1
v 0.6 0.9 1
v 0.6 0.9 0.3
v 0.6 0.9 0.2
v 0.6 0.9 -1
v 0.6 1.1 -1
v 0.6 1.1 -1.1
v 0.7 0 1
v 0.7 0 0.9
v 0.7 0.5 -0.6
v 0.7 0.5 -1
v 0.7 0.6 -0.6
v 0.7 0.6 -0.7
v 0.7 0.7 -0.7
v 0.7 0.7 -0.8
v 0.7 0.8 -0.8
v 0.7 0.8 -0.9
v 0.7 0.9 1
v 0.7 0.9 0.9
v 0.7 0.9 -0.9
v 0.7 0.9 -1
v 0.8 0.9 1.2
v 0.8 0.9 -1.19209e-07
v 0.8 1.1 1.2
v 0.8 1.1 -1.19209e-07
v -0.8 0.9 1.2
v -0.8 1.1 1.2
v 0.8 0.9 1.2
v 0.8 1.1 1.2
v -0.6 0 1.1
v -0.6 0.9 1.1
v -0.5 0 1.1
v -0.5 0.9 1.1
v 0.5 0 1.1
v 0.5 0.9 1.1
v 0.6 0 1.1
v 0.6 0.9 1.1
v -0.7 0 1
v -0.7 0.9 1
v -0.6 0 1
v -0.6 0.9 1
v 0.6 0 1
v 0.6 0.9 1
v 0.7 0 1
v 0.7 0.9 1
v -0.5 0.8 0.9
v -0.5 0.9 0.9
v 0.5 0.8 0.9
v 0.5 0.9 0.9
v -0.7 0 0.3
v -0.7 0.9 0.3
v -0.6 0 0.3
v -0.6 0.8 0.3
v 0.4 0.8 0.3
v 0.4 0.9 0.3
v 0.5 0 0.3
v 0.5 0.8 0.3
v 0.5 0.9 0.3
v 0.6 0 0.3
v 0.6 0.9 0.3
v -0.6 0 0.2
v -0.6 0.8 0.2
v -0.5 0 0.2
v -0.5 0.8 0.2
v 0.4 0 0.2
v 0.4 0.8 0.2
v 0.5 0 0.2
v 0.5 0.8 0.2
v -0.8 0.8 -1.19209e-07
v -0.8 0.9 -1.19209e-07
v -0.7 0.7 -1.19209e-07
v -0.7 0.8 -1.19209e-07
v -0.7 0.9 -1.19209e-07
v -0.6 0.7 -1.19209e-07
v -0.6 0.8 -1.19209e-07
v -0.5 0 -1.19209e-07
v -0.5 0.2 -1.19209e-07
v -0.4 0 -1.19209e-07
v -0.4 0.2 -1.19209e-07
v -0.2 0.6 -1.19209e-07
v -0.2 0.7 -1.19209e-07
v 0.2 0.6 -1.19209e-07
v 0.2 0.7 -1.19209e-07
v 0.4 0 -1.19209e-07
v 0.4 0.2 -1.19209e-07
v 0.5 0 -1.19209e-07
v 0.5 0.2 -1.19209e-07
v -0.5 0.2 -0.1
v -0.5 0.4 -0.1
v -0.4 0.2 -0.1
v -0.4 0.4 -0.1
v -0.4 0.6 -0.1
v -0.4 0.7 -0.1
v -0.2 0.6 -0.1
v -0.2 0.7 -0.1
v 0.2 0.6 -0.1
v 0.2 0.7 -0.1
v 0.4 0.2 -0.1
v 0.4 0.4 -0.1
v 0.4 0.6 -0.1
v 0.4 0.7 -0.1
v 0.5 0.2 -0.1
v 0.5 0.4 -0.1
v -0.5 0.4 -0.2
v -0.5 0.5 -0.2
v -0.5 0.7 -0.2
v -0.4 0.4 -0.2
v -0.4 0.5 -0.2
v -0.4 0.6 -0.2
v -0.4 0.7 -0.2
v -0.2 0.5 -0.2
v -0.2 0.6 -0.2
v 0.2 0.5 -0.2
v 0.2 0.6 -0.2
v 0.4 0.4 -0.2
v 0.4 0.5 -0.2
v 0.4 0.6 -0.2
v 0.4 0.7 -0.2
v 0.5 0.4 -0.2
v 0.5 0.5 -0.2
v 0.5 0.7 -0.2
v -0.6 0.5 -0.3
v -0.6 0.7 -0.3
v -0.5 0.5 -0.3
v -0.5 0.7 -0.3
v -0.4 0.5 -0.3
v -0.4 0.6 -0.3
v -0.2 0.5 -0.3
v -0.2 0.6 -0.3
v 0.2 0.5 -0.3
v 0.2 0.6 -0.3
v 0.4 0.5 -0.3
v 0.4 0.6 -0.3
v 0.5 0.5 -0.3
v 0.5 0.7 -0.3
v 0.6 0.5 -0.3
v 0.6 0.7 -0.3
v -0.8 0.7 -0.6
v -0.8 0.8 -0.6
v -0.7 0.5 -0.6
v -0.7 0.6 -0.6
v -0.7 0.7 -0.6
v -0.7 0.8 -0.6
v -0.6 0.5 -0.6
v -0.6 0.6 -0.6
v 0.6 0.5 -0.6
v 0.6 0.6 -0.6
v 0.7 0.5 -0.6
v 0.7 0.6 -0.6
v -0.7 0.6 -0.7
v -0.7 0.7 -0.7
v -0.6 0.6 -0.7
v -0.6 0.7 -0.7
v -0.4 0.5 -0.7
v -0.4 0.6 -0.7
v 0.4 0.5 -0.7
v 0.4 0.6 -0.7
v 0.6 0.6 -0.7
v 0.6 0.7 -0.7
v 0.7 0.6 -0.7
v 0.7 0.7 -0.7
v -0.8 0.6 -0.8
v -0.8 0.7 -0.8
v -0.7 0.6 -0.8
v -0.7 0.7 -0.8
v 0.6 0.7 -0.8
v 0.6 0.8 -0.8
v 0.7 0.7 -0.8
v 0.7 0.8 -0.8
v -0.8 0.5 -0.9
v -0.8 0.6 -0.9
v -0.7 0.5 -0.9
v -0.7 0.6 -0.9
v -0.7 0.8 -0.9
v -0.7 0.9 -0.9
v -0.6 0.8 -0.9
v -0.6 0.9 -0.9
v -0.5 0.4 -0.9
v -0.5 0.5 -0.9
v -0.4 0.4 -0.9
v -0.4 0.5 -0.9
v 0.4 0.4 -0.9
v 0.4 0.5 -0.9
v 0.5 0.4 -0.9
v 0.5 0.5 -0.9
v 0.6 0.8 -0.9
v 0.6 0.9 -0.9
v 0.7 0.8 -0.9
v 0.7 0.9 -0.9
v -0.6 0.7 -1
v -0.6 0.9 -1
v -0.6 1.1 -1
v -0.5 0.2 -1
v -0.5 0.4 -1
v -0.5 0.7 -1
v -0.5 1.1 -1
v -0.4 0.2 -1
v -0.4 0.4 -1
v 0.4 0.2 -1
v 0.4 0.4 -1
v 0.5 0.2 -1
v 0.5 0.4 -1
v 0.5 0.7 -1
v 0.5 1.1 -1
v 0.6 0.7 -1
v 0.6 0.9 -1
v 0.6 1.1 -1
v -0.5 0 -1.1
v -0.5 0.2 -1.1
v -0.5 0.7 -1.1
v -0.5 1.1 -1.1
v -0.5 1.2 -1.1
v -0.4 0 -1.1
v -0.4 0.2 -1.1
v -0.4 1.2 -1.1
v -0.4 1.4 -1.1
v -0.3 1.4 -1.1
v -0.3 1.5 -1.1
v -0.2 1.5 -1.1
v -0.2 1.6 -1.1
v 0.2 1.5 -1.1
v 0.2 1.6 -1.1
v 0.3 1.4 -1.1
v 0.3 1.5 -1.1
v 0.4 0 -1.1
v 0.4 0.2 -1.1
v 0.4 1.2 -1.1
v 0.4 1.4 -1.1
v 0.5 0 -1.1
v 0.5 0.2 -1.1
v 0.5 0.7 -1.1
v 0.5 1.1 -1.1
v 0.5 1.2 -1.1
v -0.6 0 1
v -0.6 0.9 1
v -0.5 0 1
v -0.5 0.9 1
v 0.5 0 1
v 0.5 0.9 1
v 0.6 0 1
v 0.6 0.9 1
v -0.7 0 0.9
v -0.7 0.9 0.9
v -0.6 0 0.9
v -0.6 0.9 0.9
v 0.6 0 0.9
v 0.6 0.9 0.9
v 0.7 0 0.9
v 0.7 0.9 0.9
v -0.5 0.8 0.8
v -0.5 0.9 0.8
v 0.4 0.8 0.8
v 0.4 0.9 0.8
v -0.7 0 0.2
v -0.7 0.8 0.2
v -0.6 0 0.2
v -0.6 0.8 0.2
v -0.5 0.8 0.2
v -0.5 0.9 0.2
v 0.4 0.8 0.2
v 0.4 0.9 0.2
v 0.5 0 0.2
v 0.5 0.9 0.2
v 0.6 0 0.2
v 0.6 0.9 0.2
v -0.6 0 0.0999999
v -0.6 0.8 0.0999999
v -0.6 0.9 0.0999999
v -0.5 0 0.0999999
v -0.5 0.9 0.0999999
v 0.4 0 0.0999999
v 0.4 0.9 0.0999999
v 0.5 0 0.0999999
v 0.5 0.9 0.0999999
v -0.8 0.9 -1.19209e-07
v -0.8 1.1 -1.19209e-07
v -0.6 0.9 -1.19209e-07
v 0.8 0.9 -1.19209e-07
v 0.8 1.1 -1.19209e-07
v -0.5 0 -0.1
v -0.5 0.2 -0.1
v -0.4 0 -0.1
v -0.4 0.2 -0.1
v 0.4 0 -0.1
v 0.4 0.2 -0.1
v 0.5 0 -0.1
v 0.5 0.2 -0.1
v -0.5 0.2 -0.2
v -0.5 0.4 -0.2
v -0.4 0.2 -0.2
v -0.4 0.4 -0.2
v 0.4 0.2 -0.2
v 0.4 0.4 -0.2
v 0.5 0.2 -0.2
v 0.5 0.4 -0.2
v -0.5 0.4 -0.3
v -0.5 0.5 -0.3
v -0.4 0.4 -0.3
v -0.4 0.5 -0.3
v 0.4 0.4 -0.3
v 0.4 0.5 -0.3
v 0.5 0.4 -0.3
v 0.5 0.5 -0.3
v -0.4 0.5 -0.5
v -0.4 0.6 -0.5
v 0.4 0.5 -0.5
v 0.4 0.6 -0.5
v -0.8 0.8 -0.6
v -0.8 0.9 -0.6
v -0.7 0.8 -0.6
v -0.7 0.9 -0.6
v -0.8 0.7 -0.8
v -0.8 0.8 -0.8
v -0.7 0.7 -0.8
v -0.7 0.8 -0.8
v -0.7 0.9 -0.8
v -0.6 0.8 -0.8
v -0.6 0.9 -0.8
v -0.8 0.6 -0.9
v -0.8 0.7 -0.9
v -0.7 0.6 -0.9
v -0.7 0.7 -0.9
v -0.3 0.5 -0.9
v -0.3 0.6 -0.9
v 0.3 0.5 -0.9
v 0.3 0.6 -0.9
v -0.8 0.5 -1
v -0.8 0.6 -1
v -0.7 0.6 -1
v -0.7 0.7 -1
v -0.7 0.9 -1
v -0.6 0.5 -1
v -0.6 0.6 -1
v -0.6 0.7 -1
v -0.6 0.9 -1
v -0.5 0.4 -1
v -0.5 0.5 -1
v -0.4 0.4 -1
v -0.4 0.5 -1
v -0.3 0.5 -1
v -0.3 0.6 -1
v 0.3 0.5 -1
v 0.3 0.6 -1
v 0.4 0.4 -1
v 0.4 0.5 -1
v 0.5 0.4 -1
v 0.5 0.5 -1
v 0.6 0.6 -1
v 0.6 0.9 -1
v 0.7 0.5 -1
v 0.7 0.9 -1
v -0.6 0.6 -1.1
v -0.6 1.1 -1.1
v -0.5 0.2 -1.1
v -0.5 0.4 -1.1
v -0.5 0.7 -1.1
v -0.5 1.1 -1.1
v -0.4 0.2 -1.1
v -0.4 0.4 -1.1
v 0.4 0.2 -1.1
v 0.4 0.4 -1.1
v 0.5 0.2 -1.1
v 0.5 0.4 -1.1
v 0.5 0.7 -1.1
v 0.5 1.1 -1.1
v 0.6 0.6 -1.1
v 0.6 1.1 -1.1
v -0.5 0 -1.2
v -0.5 0.2 -1.2
v -0.5 0.7 -1.2
v -0.5 1.2 -1.2
v -0.4 0 -1.2
v -0.4 0.2 -1.2
v -0.4 1.2 -1.2
v -0.4 1.4 -1.2
v -0.3 1.4 -1.2
v -0.3 1.5 -1.2
v -0.2 1.5 -1.2
v -0.2 1.6 -1.2
v 0.2 1.5 -1.2
v 0.2 1.6 -1.2
v 0.3 1.4 -1.2
v 0.3 1.5 -1.2
v 0.4 0 -1.2
v 0.4 0.2 -1.2
v 0.4 1.2 -1.2
v 0.4 1.4 -1.2
v 0.5 0 -1.2
v 0.5 0.2 -1.2
v 0.5 0.7 -1.2
v 0.5 1.2 -1.2
v -0.6 0 1.1
v -0.5 0 1.1
v 0.5 0 1.1
v 0.6 0 1.1
v -0.7 0 1
v -0.6 0 1
v -0.5 0 1
v 0.5 0 1
v 0.6 0 1
v 0.7 0 1
v -0.7 0 0.9
v -0.6 0 0.9
v 0.6 0 0.9
v 0.7 0 0.9
v -0.7 0 0.3
v -0.6 0 0.3
v 0.5 0 0.3
v 0.6 0 0.3
v -0.7 0 0.2
v -0.6 0 0.2
v -0.5 0 0.2
v 0.4 0 0.2
v 0.5 0 0.2
v 0.6 0 0.2
v -0.6 0 0.0999999
v -0.5 0 0.0999999
v 0.4 0 0.0999999
v 0.5 0 0.0999999
v -0.5 0 -1.19209e-07
v -0.4 0 -1.19209e-07
v 0.4 0 -1.19209e-07
v 0.5 0 -1.19209e-07
v -0.5 0 -0.1
v -0.4 0 -0.1
v 0.4 0 -0.1
v 0.5 0 -0.1
v -0.5 0 -1.1
v -0.4 0 -1.1
v 0.4 0 -1.1
v 0.5 0 -1.1
v -0.5 0 -1.2
v -0.4 0 -1.2
v 0.4 0 -1.2
v 0.5 0 -1.2
v -0.5 0.2 -0.1
v -0.4 0.2 -0.1
v 0.4 0.2 -0.1
v 0.5 0.2 -0.1
v -0.5 0.2 -0.2
v -0.4 0.2 -0.2
v 0.4 0.2 -0.2
v 0.5 0.2 -0.2
v -0.5 0.2 -1
v -0.4 0.2 -1
v 0.4 0.2 -1
v 0.5 0.2 -1
v -0.5 0.2 -1.1
v -0.4 0.2 -1.1
v 0.4 0.2 -1.1
v 0.5 0.2 -1.1
v -0.5 0.4 -0.2
v -0.4 0.4 -0.2
v 0.4 0.4 -0.2
v 0.5 0.4 -0.2
v -0.5 0.4 -0.3
v -0.4 0.4 -0.3
v 0.4 0.4 -0.3
v 0.5 0.4 -0.3
v -0.5 0.4 -0.9
v -0.4 0.4 -0.9
v 0.4 0.4 -0.9
v 0.5 0.4 -0.9
v -0.5 0.4 -1
v -0.4 0.4 -1
v 0.4 0.4 -1
v 0.5 0.4 -1
v -0.2 0.5 -0.2
v 0.2 0.5 -0.2
v -0.6 0.5 -0.3
v -0.5 0.5 -0.3
v -0.4 0.5 -0.3
v -0.2 0.5 -0.3
v 0.2 0.5 -0.3
v 0.4 0.5 -0.3
v 0.5 0.5 -0.3
v 0.6 0.5 -0.3
v -0.4 0.5 -0.4
v 0.4 0.5 -0.4
v -0.4 0.5 -0.5
v 0.4 0.5 -0.5
v -0.7 0.5 -0.6
v -0.6 0.5 -0.6
v 0.6 0.5 -0.6
v 0.7 0.5 -0.6
v -0.4 0.5 -0.7
v 0.4 0.5 -0.7
v -0.7 0.5 -0.8
v -0.6 0.5 -0.8
v -0.4 0.5 -0.8
v 0.4 0.5 -0.8
v -0.8 0.5 -0.9
v -0.7 0.5 -0.9
v -0.5 0.5 -0.9
v -0.4 0.5 -0.9
v -0.3 0.5 -0.9
v 0.3 0.5 -0.9
v 0.4 0.5 -0.9
v 0.5 0.5 -0.9
v -0.8 0.5 -1
v -0.6 0.5 -1
v -0.5 0.5 -1
v -0.4 0.5 -1
v -0.3 0.5 -1
v 0.3 0.5 -1
v 0.4 0.5 -1
v 0.5 0.5 -1
v 0.7 0.5 -1
v -0.2 0.6 -1.19209e-07
v 0.2 0.6 -1.19209e-07
v -0.4 0.6 -0.1
v -0.2 0.6 -0.1
v 0.2 0.6 -0.1
v 0.4 0.6 -0.1
v -0.4 0.6 -0.2
v -0.2 0.6 -0.2
v 0.2 0.6 -0.2
v 0.4 0.6 -0.2
v -0.4 0.6 -0.3
v -0.2 0.6 -0.3
v 0.2 0.6 -0.3
v 0.4 0.6 -0.3
v -0.4 0.6 -0.5
v 0.4 0.6 -0.5
v -0.4 0.6 -0.7
v 0.4 0.6 -0.7
v -0.8 0.6 -0.8
v -0.7 0.6 -0.8
v -0.8 0.6 -0.9
v -0.7 0.6 -0.9
v -0.3 0.6 -0.9
v 0.3 0.6 -0.9
v -0.6 0.6 -1
v -0.3 0.6 -1
v 0.3 0.6 -1
v 0.6 0.6 -1
v -0.6 0.6 -1.1
v 0.6 0.6 -1.1
v -0.7 0.7 -1.19209e-07
v -0.6 0.7 -1.19209e-07
v -0.6 0.7 -0.3
v -0.8 0.7 -0.6
v -0.7 0.7 -0.6
v -0.7 0.7 -0.7
v -0.6 0.7 -0.7
v -0.8 0.7 -0.8
v -0.7 0.7 -0.8
v -0.5 0.7 -1.1
v 0.5 0.7 -1.1
v -0.5 0.7 -1.2
v 0.5 0.7 -1.2
v -0.5 0.8 0.9
v 0.5 0.8 0.9
v -0.5 0.8 0.8
v 0.4 0.8 0.8
v -0.6 0.8 0.3
v 0.4 0.8 0.3
v 0.5 0.8 0.3
v -0.7 0.8 0.2
v -0.6 0.8 0.2
v -0.5 0.8 0.2
v 0.4 0.8 0.2
v 0.5 0.8 0.2
v -0.6 0.8 0.0999999
v -0.8 0.8 -1.19209e-07
v -0.7 0.8 -1.19209e-07
v -0.6 0.8 -1.19209e-07
v -0.8 0.8 -0.6
v -0.7 0.8 -0.6
v -0.8 0.9 1.2
v 0.8 0.9 1.2
v -0.6 0.9 1.1
v -0.5 0.9 1.1
v 0.5 0.9 1.1
v 0.6 0.9 1.1
v -0.7 0.9 1
v -0.6 0.9 1
v -0.5 0.9 1
v 0.5 0.9 1
v 0.6 0.9 1
v 0.7 0.9 1
v -0.7 0.9 0.9
v -0.6 0.9 0.9
v -0.5 0.9 0.9
v 0.5 0.9 0.9
v 0.6 0.9 0.9
v 0.7 0.9 0.9
v -0.5 0.9 0.8
v 0.4 0.9 0.8
v -0.7 0.9 0.3
v 0.4 0.9 0.3
v 0.5 0.9 0.3
v 0.6 0.9 0.3
v -0.5 0.9 0.2
v 0.4 0.9 0.2
v 0.5 0.9 0.2
v 0.6 0.9 0.2
v -0.6 0.9 0.0999999
v -0.5 0.9 0.0999999
v 0.4 0.9 0.0999999
v 0.5 0.9 0.0999999
v -0.8 0.9 -1.19209e-07
v -0.7 0.9 -1.19209e-07
v -0.6 0.9 -1.19209e-07
v 0.8 0.9 -1.19209e-07
v -0.5 0.2 -1.19209e-07
v -0.4 0.2 -1.19209e-07
v 0.4 0.2 -1.19209e-07
v 0.5 0.2 -1.19209e-07
v -0.5 0.2 -0.1
v -0.4 0.2 -0.1
v 0.4 0.2 -0.1
v 0.5 0.2 -0.1
v -0.5 0.2 -1.1
v -0.4 0.2 -1.1
v 0.4 0.2 -1.1
v 0.5 0.2 -1.1
v -0.5 0.2 -1.2
v -0.4 0.2 -1.2
v 0.4 0.2 -1.2
v 0.5 0.2 -1.2
v -0.5 0.4 -0.1
v -0.4 0.4 -0.1
v 0.4 0.4 -0.1
v 0.5 0.4 -0.1
v -0.5 0.4 -0.2
v -0.4 0.4 -0.2
v 0.4 0.4 -0.2
v 0.5 0.4 -0.2
v -0.5 0.4 -1
v -0.4 0.4 -1
v 0.4 0.4 -1
v 0.5 0.4 -1
v -0.5 0.4 -1.1
v -0.4 0.4 -1.1
v 0.4 0.4 -1.1
v 0.5 0.4 -1.1
v -0.7 0.6 -0.6
v -0.6 0.6 -0.6
v 0.6 0.6 -0.6
v 0.7 0.6 -0.6
v -0.7 0.6 -0.7
v -0.6 0.6 -0.7
v 0.6 0.6 -0.7
v 0.7 0.6 -0.7
v -0.8 0.6 -0.9
v -0.7 0.6 -0.9
v -0.8 0.6 -1
v -0.7 0.6 -1
v -0.2 0.7 -1.19209e-07
v 0.2 0.7 -1.19209e-07
v -0.4 0.7 -0.1
v -0.2 0.7 -0.1
v 0.2 0.7 -0.1
v 0.4 0.7 -0.1
v -0.5 0.7 -0.2
v -0.4 0.7 -0.2
v 0.4 0.7 -0.2
v 0.5 0.7 -0.2
v -0.6 0.7 -0.3
v -0.5 0.7 -0.3
v 0.5 0.7 -0.3
v 0.6 0.7 -0.3
v 0.6 0.7 -0.7
v 0.7 0.7 -0.7
v -0.8 0.7 -0.8
v -0.7 0.7 -0.8
v 0.6 0.7 -0.8
v 0.7 0.7 -0.8
v -0.8 0.7 -0.9
v -0.7 0.7 -0.9
v -0.6 0.7 -0.9
v -0.6 0.7 -1
v -0.5 0.7 -1
v 0.5 0.7 -1
v 0.6 0.7 -1
v -0.5 0.7 -1.1
v 0.5 0.7 -1.1
v -0.8 0.8 -0.6
v -0.7 0.8 -0.6
v -0.8 0.8 -0.8
v -0.7 0.8 -0.8
v -0.6 0.8 -0.8
v 0.6 0.8 -0.8
v 0.7 0.8 -0.8
v -0.7 0.8 -0.9
v -0.6 0.8 -0.9
v 0.6 0.8 -0.9
v 0.7 0.8 -0.9
v -0.8 0.9 -1.19209e-07
v -0.6 0.9 -1.19209e-07
v -0.8 0.9 -0.6
v -0.7 0.9 -0.6
v -0.7 0.9 -0.8
v -0.6 0.9 -0.8
v -0.7 0.9 -0.9
v -0.6 0.9 -0.9
v 0.6 0.9 -0.9
v 0.7 0.9 -0.9
v -0.7 0.9 -1
v -0.6 0.9 -1
v 0.6 0.9 -1
v 0.7 0.9 -1
v -0.8 1.1 1.2
v 0.8 1.1 1.2
v -0.8 1.1 -1.19209e-07
v 0.8 1.1 -1.19209e-07
v -0.6 1.1 -1
v -0.5 1.1 -1
v 0.5 1.1 -1
v 0.6 1.1 -1
v -0.6 1.1 -1.1
v -0.5 1.1 -1.1
v 0.5 1.1 -1.1
v 0.6 1.1 -1.1
v -0.5 1.2 -1.1
v -0.4 1.2 -1.1
v 0.4 1.2 -1.1
v 0.5 1.2 -1.1
v -0.5 1.2 -1.2
v -0.4 1.2 -1.2
v 0.4 1.2 -1.2
v 0.5 1.2 -1.2
v -0.4 1.4 -1.1
v -0.3 1.4 -1.1
v 0.3 1.4 -1.1
v 0.4 1.4 -1.1
v -0.4 1.4 -1.2
v -0.3 1.4 -1.2
v 0.3 1.4 -1.2
v 0.4 1.4 -1.2
v -0.3 1.5 -1.1
v -0.2 1.5 -1.1
v 0.2 1.5 -1.1
v 0.3 1.5 -1.1
v -0.3 1.5 -1.2
v -0.2 1.5 -1.2
v 0.2 1.5 -1.2
v 0.3 1.5 -1.2
v -0.2 1.6 -1.1
v 0.2 1.6 -1.1
v -0.2 1.6 -1.2
v 0.2 1.6 -1.2

# faces
f 4/3/1 2/3/1 1/3/1
f 5/3/1 2/3/1 4/3/1
f 7/3/1 4/3/1 3/3/1
f 8/3/1 4/3/1 7/3/1
f 10/3/1 7/3/1 6/3/1
f 11/3/1 7/3/1 10/3/1
f 13/3/1 10/3/1 9/3/1
f 14/3/1 10/3/1 13/3/1
f 15/1/1 13/1/1 12/1/1
f 16/1/1 13/1/1 15/1/1
f 24/2/1 22/2/1 21/2/1
f 25/2/1 22/2/1 24/2/1
f 26/3/1 23/3/1 22/3/1
f 26/2/1 22/2/1 25/2/1
f 27/3/1 23/3/1 26/3/1
f 31/3/1 26/3/1 25/3/1
f 32/3/1 26/3/1 31/3/1
f 33/3/1 28/3/1 27/3/1
f 34/3/1 28/3/1 33/3/1
f 35/3/1 20/3/1 19/3/1
f 36/3/1 30/3/1 29/3/1
f 37/3/1 30/3/1 36/3/1
f 38/3/1 33/3/1 32/3/1
f 39/2/1 34/2/1 33/2/1
f 39/3/1 33/3/1 38/3/1
f 40/3/1 18/3/1 17/3/1
f 41/3/1 18/3/1 40/3/1
f 42/3/1 35/3/1 19/3/1
f 42/3/1 36/3/1 35/3/1
f 43/3/1 36/3/1 42/3/1
f 44/3/1 38/3/1 37/3/1
f 45/3/1 38/3/1 44/3/1
f 46/2/1 34/2/1 39/2/1
f 47/2/1 34/2/1 46/2/1
f 54/2/1 53/2/1 52/2/1
f 58/2/1 54/2/1 52/2/1
f 58/2/1 55/2/1 54/2/1
f 59/2/1 55/2/1 58/2/1
f 60/2/1 57/2/1 56/2/1
f 61/3/1 51/3/1 50/3/1
f 62/3/1 51/3/1 61/3/1
f 63/3/1 49/3/1 48/3/1
f 64/3/1 49/3/1 63/3/1
f 65/2/1 57/2/1 60/2/1
f 66/2/1 57/2/1 65/2/1
f 67/2/1 57/2/1 66/2/1
f 72/3/1 69/3/1 68/3/1
f 73/3/1 69/3/1 72/3/1
f 76/3/1 71/3/1 70/3/1
f 77/3/1 71/3/1 76/3/1
f 78/3/1 74/3/1 73/3/1
f 79/3/1 74/3/1 78/3/1
f 82/3/1 76/3/1 75/3/1
f 83/3/1 76/3/1 82/3/1
f 84/3/1 80/3/1 79/3/1
f 85/3/1 80/3/1 84/3/1
f 86/3/1 82/3/1 81/3/1
f 87/3/1 82/3/1 86/3/1
f 88/2/1 85/2/1 84/2/1
f 89/2/1 85/2/1 88/2/1
f 94/3/1 93/3/1 92/3/1
f 95/3/1 93/3/1 94/3/1
f 96/2/1 91/2/1 90/2/1
f 97/2/1 91/2/1 96/2/1
f 98/2/1 91/2/1 97/2/1
f 101/2/1 100/2/1 99/2/1
f 102/2/1 100/2/1 101/2/1
f 105/2/1 104/2/1 103/2/1
f 106/2/1 104/2/1 105/2/1
f 109/2/1 108/2/1 107/2/1
f 110/2/1 108/2/1 109/2/1
f 115/2/1 112/2/1 111/2/1
f 116/2/1 112/2/1 115/2/1
f 117/2/1 114/2/1 113/2/1
f 118/2/1 114/2/1 117/2/1
f 121/2/1 120/2/1 119/2/1
f 122/2/1 120/2/1 121/2/1
f 125/2/1 124/2/1 123/2/1
f 126/2/1 124/2/1 125/2/1
f 133/3/1 130/3/1 129/3/1
f 134/3/1 130/3/1 133/3/1
f 137/3/1 132/3/1 131/3/1
f 138/3/1 132/3/1 137/3/1
f 139/3/1 135/3/1 134/3/1
f 140/3/1 135/3/1 139/3/1
f 143/3/1 137/3/1 136/3/1
f 144/3/1 137/3/1 143/3/1
f 145/3/1 141/3/1 140/3/1
f 146/3/1 141/3/1 145/3/1
f 149/3/1 143/3/1 142/3/1
f 150/3/1 143/3/1 149/3/1
f 151/2/1 146/2/1 145/2/1
f 152/2/1 146/2/1 151/2/1
f 153/3/1 148/3/1 147/3/1
f 154/3/1 148/3/1 153/3/1
f 157/3/1 128/3/1 127/3/1
f 158/3/1 156/3/1 155/3/1
f 159/3/1 156/3/1 158/3/1
f 160/3/1 128/3/1 157/3/1
f 161/3/1 128/3/1 160/3/1
f 168/3/1 165/3/1 164/3/1
f 169/3/1 165/3/1 168/3/1
f 170/3/1 163/3/1 162/3/1
f 171/3/1 163/3/1 170/3/1
f 172/2/1 167/2/1 166/2/1
f 173/2/1 167/2/1 172/2/1
f 178/2/1 177/2/1 176/2/1
f 179/2/1 177/2/1 178/2/1
f 180/3/1 175/3/1 174/3/1
f 181/3/1 175/3/1 180/3/1
f 182/2/1 177/2/1 179/2/1
f 183/2/1 177/2/1 182/2/1
f 186/3/2 187/3/2 192/3/2
f 192/3/2 187/3/2 193/3/2
f 188/3/2 189/3/2 195/3/2
f 189/3/2 190/3/2 195/3/2
f 195/3/2 190/3/2 196/3/2
f 190/2/2 191/2/2 197/2/2
f 196/3/2 190/3/2 197/3/2
f 184/3/2 185/3/2 198/3/2
f 198/3/2 185/3/2 199/3/2
f 195/3/2 196/3/2 200/3/2
f 194/3/2 195/3/2 200/3/2
f 200/3/2 196/3/2 201/3/2
f 201/3/2 196/3/2 202/3/2
f 197/2/2 191/2/2 203/2/2
f 203/2/2 191/2/2 204/2/2
f 207/3/2 208/3/2 211/3/2
f 205/3/2 206/3/2 212/3/2
f 212/3/2 206/3/2 213/3/2
f 211/3/2 208/3/2 214/3/2
f 214/3/2 208/3/2 215/3/2
f 209/2/2 210/2/2 216/2/2
f 216/2/2 210/2/2 217/2/2
f 218/3/2 219/3/2 222/3/2
f 222/3/2 219/3/2 223/3/2
f 220/3/2 221/3/2 226/3/2
f 226/3/2 221/3/2 227/3/2
f 223/3/2 224/3/2 228/3/2
f 228/3/2 224/3/2 229/3/2
f 225/3/2 226/3/2 232/3/2
f 232/3/2 226/3/2 233/3/2
f 229/3/2 230/3/2 234/3/2
f 234/3/2 230/3/2 235/3/2
f 231/3/2 232/3/2 238/3/2
f 238/3/2 232/3/2 239/3/2
f 234/2/2 235/2/2 240/2/2
f 240/2/2 235/2/2 241/2/2
f 236/3/2 237/3/2 242/3/2
f 242/3/2 237/3/2 243/3/2
f 244/2/2 245/2/2 246/2/2
f 246/2/2 245/2/2 247/2/2
f 248/2/2 249/2/2 252/2/2
f 252/2/2 249/2/2 253/2/2
f 250/2/2 251/2/2 254/2/2
f 254/2/2 251/2/2 255/2/2
f 256/2/2 257/2/2 258/2/2
f 258/2/2 257/2/2 259/2/2
f 260/2/2 261/2/2 262/2/2
f 262/2/2 261/2/2 263/2/2
f 264/2/2 265/2/2 266/2/2
f 266/2/2 265/2/2 267/2/2
f 268/2/2 269/2/2 270/2/2
f 270/2/2 269/2/2 271/2/2
f 274/3/2 275/3/2 278/3/2
f 278/3/2 275/3/2 279/3/2
f 276/3/2 277/3/2 282/3/2
f 282/3/2 277/3/2 283/3/2
f 279/3/2 280/3/2 284/3/2
f 284/3/2 280/3/2 285/3/2
f 281/3/2 282/3/2 288/3/2
f 288/3/2 282/3/2 289/3/2
f 285/3/2 286/3/2 290/3/2
f 290/3/2 286/3/2 291/3/2
f 287/3/2 288/3/2 292/3/2
f 292/3/2 288/3/2 293/3/2
f 290/2/2 291/2/2 294/2/2
f 294/2/2 291/2/2 295/2/2
f 298/3/2 299/3/2 300/3/2
f 300/3/2 299/3/2 301/3/2
f 272/3/2 273/3/2 302/3/2
f 302/3/2 273/3/2 303/3/2
f 296/2/2 297/2/2 304/2/2
f 304/2/2 297/2/2 305/2/2
f 305/2/2 297/2/2 306/2/2
f 311/2/2 312/2/2 313/2/2
f 311/2/2 313/2/2 317/2/2
f 313/2/2 314/2/2 317/2/2
f 317/2/2 314/2/2 318/2/2
f 307/3/2 308/3/2 319/3/2
f 319/3/2 308/3/2 320/3/2
f 309/3/2 310/3/2 321/3/2
f 321/3/2 310/3/2 322/3/2
f 315/2/2 316/2/2 323/2/2
f 323/2/2 316/2/2 324/2/2
f 324/2/2 316/2/2 325/2/2
f 328/2/2 329/2/2 330/2/2
f 330/2/2 329/2/2 331/2/2
f 331/2/2 329/2/2 332/2/2
f 332/2/2 329/2/2 333/2/2
f 333/2/2 329/2/2 334/2/2
f 334/2/2 329/2/2 335/2/2
f 326/3/2 327/3/2 336/3/2
f 336/3/2 327/3/2 337/3/2
f 335/2/2 329/2/2 338/2/2
f 338/2/2 329/2/2 339/2/2
f 340/1/2 341/1/2 342/1/2
f 342/1/2 341/1/2 343/1/2
f 346/1/3 345/1/3 344/1/3
f 347/1/3 345/1/3 346/1/3
f 350/3/3 349/3/3 348/3/3
f 351/3/3 349/3/3 350/3/3
f 354/3/3 353/3/3 352/3/3
f 355/3/3 353/3/3 354/3/3
f 358/3/3 357/3/3 356/3/3
f 359/3/3 357/3/3 358/3/3
f 362/3/3 361/3/3 360/3/3
f 363/3/3 361/3/3 362/3/3
f 366/3/3 365/3/3 364/3/3
f 367/3/3 365/3/3 366/3/3
f 370/3/3 369/3/3 368/3/3
f 371/3/3 369/3/3 370/3/3
f 372/3/3 369/3/3 371/3/3
f 373/3/3 369/3/3 372/3/3
f 377/3/3 375/3/3 374/3/3
f 377/3/3 376/3/3 375/3/3
f 378/3/3 376/3/3 377/3/3
f 381/3/3 380/3/3 379/3/3
f 382/3/3 380/3/3 381/3/3
f 385/3/3 384/3/3 383/3/3
f 386/3/3 384/3/3 385/3/3
f 390/3/3 388/3/3 387/3/3
f 391/3/3 388/3/3 390/3/3
f 392/3/3 390/3/3 389/3/3
f 393/3/3 390/3/3 392/3/3
f 396/3/3 395/3/3 394/3/3
f 397/3/3 395/3/3 396/3/3
f 400/2/3 399/2/3 398/2/3
f 401/2/3 399/2/3 400/2/3
f 404/3/3 403/3/3 402/3/3
f 405/3/3 403/3/3 404/3/3
f 408/3/3 407/3/3 406/3/3
f 409/3/3 407/3/3 408/3/3
f 412/2/3 411/2/3 410/2/3
f 413/2/3 411/2/3 412/2/3
f 418/2/3 415/2/3 414/2/3
f 419/2/3 415/2/3 418/2/3
f 420/3/3 417/3/3 416/3/3
f 421/3/3 417/3/3 420/3/3
f 425/3/3 423/3/3 422/3/3
f 426/2/3 424/2/3 423/2/3
f 426/3/3 423/3/3 425/3/3
f 427/2/3 424/2/3 426/2/3
f 428/2/3 424/2/3 427/2/3
f 431/2/3 430/2/3 429/2/3
f 432/2/3 430/2/3 431/2/3
f 437/3/3 434/3/3 433/3/3
f 438/2/3 435/2/3 434/2/3
f 438/3/3 434/3/3 437/3/3
f 438/2/3 436/2/3 435/2/3
f 439/2/3 436/2/3 438/2/3
f 442/2/3 441/2/3 440/2/3
f 443/2/3 441/2/3 442/2/3
f 446/2/3 445/2/3 444/2/3
f 447/2/3 445/2/3 446/2/3
f 450/2/3 449/2/3 448/2/3
f 451/2/3 449/2/3 450/2/3
f 454/2/3 453/2/3 452/2/3
f 455/2/3 453/2/3 454/2/3
f 460/3/3 457/3/3 456/3/3
f 461/3/3 457/3/3 460/3/3
f 462/2/3 459/2/3 458/2/3
f 463/2/3 459/2/3 462/2/3
f 466/2/3 465/2/3 464/2/3
f 467/2/3 465/2/3 466/2/3
f 470/3/3 469/3/3 468/3/3
f 471/3/3 469/3/3 470/3/3
f 474/3/3 473/3/3 472/3/3
f 475/3/3 473/3/3 474/3/3
f 478/2/3 477/2/3 476/2/3
f 479/2/3 477/2/3 478/2/3
f 482/3/3 481/3/3 480/3/3
f 483/3/3 481/3/3 482/3/3
f 486/2/3 485/2/3 484/2/3
f 487/2/3 485/2/3 486/2/3
f 490/3/3 489/3/3 488/3/3
f 491/3/3 489/3/3 490/3/3
f 494/2/3 493/2/3 492/2/3
f 495/2/3 493/2/3 494/2/3
f 498/3/3 497/3/3 496/3/3
f 499/3/3 497/3/3 498/3/3
f 502/3/3 501/3/3 500/3/3
f 503/3/3 501/3/3 502/3/3
f 506/2/3 505/2/3 504/2/3
f 507/2/3 505/2/3 506/2/3
f 513/2/3 509/2/3 508/2/3
f 513/2/3 510/2/3 509/2/3
f 514/2/3 510/2/3 513/2/3
f 515/3/3 512/3/3 511/3/3
f 516/3/3 512/3/3 515/3/3
f 519/3/3 518/3/3 517/3/3
f 520/3/3 518/3/3 519/3/3
f 523/2/3 522/2/3 521/2/3
f 524/2/3 522/2/3 523/2/3
f 525/2/3 522/2/3 524/2/3
f 531/3/3 527/3/3 526/3/3
f 532/3/3 527/3/3 531/3/3
f 533/2/3 530/2/3 529/2/3
f 533/2/3 529/2/3 528/2/3
f 535/2/3 534/2/3 533/2/3
f 537/2/3 536/2/3 535/2/3
f 539/2/3 537/2/3 535/2/3
f 539/2/3 538/2/3 537/2/3
f 540/2/3 538/2/3 539/2/3
f 541/2/3 535/2/3 533/2/3
f 541/2/3 539/2/3 535/2/3
f 542/2/3 539/2/3 541/2/3
f 545/2/3 533/2/3 528/2/3
f 545/2/3 541/2/3 533/2/3
f 546/2/3 541/2/3 545/2/3
f 547/3/3 544/3/3 543/3/3
f 548/3/3 544/3/3 547/3/3
f 549/2/3 545/2/3 528/2/3
f 550/2/3 545/2/3 549/2/3
f 551/2/3 545/2/3 550/2/3
f 552/3/4 553/3/4 554/3/4
f 554/3/4 553/3/4 555/3/4
f 556/3/4 557/3/4 558/3/4
f 558/3/4 557/3/4 559/3/4
f 560/3/4 561/3/4 562/3/4
f 562/3/4 561/3/4 563/3/4
f 564/3/4 565/3/4 566/3/4
f 566/3/4 565/3/4 567/3/4
f 568/3/4 569/3/4 570/3/4
f 570/3/4 569/3/4 571/3/4
f 572/3/4 573/3/4 574/3/4
f 574/3/4 573/3/4 575/3/4
f 576/3/4 577/3/4 578/3/4
f 578/3/4 577/3/4 579/3/4
f 580/3/4 581/3/4 582/3/4
f 582/3/4 581/3/4 583/3/4
f 584/3/4 585/3/4 587/3/4
f 585/3/4 586/3/4 587/3/4
f 587/3/4 586/3/4 588/3/4
f 589/3/4 590/3/4 591/3/4
f 591/3/4 590/3/4 592/3/4
f 593/1/4 594/1/4 595/1/4
f 595/1/4 594/1/4 596/1/4
f 596/1/4 594/1/4 597/1/4
f 598/3/4 599/3/4 600/3/4
f 600/3/4 599/3/4 601/3/4
f 602/3/4 603/3/4 604/3/4
f 604/3/4 603/3/4 605/3/4
f 606/3/4 607/3/4 608/3/4
f 608/3/4 607/3/4 609/3/4
f 610/3/4 611/3/4 612/3/4
f 612/3/4 611/3/4 613/3/4
f 614/3/4 615/3/4 616/3/4
f 616/3/4 615/3/4 617/3/4
f 618/3/4 619/3/4 620/3/4
f 620/3/4 619/3/4 621/3/4
f 622/3/4 623/3/4 624/3/4
f 624/3/4 623/3/4 625/3/4
f 626/3/4 627/3/4 628/3/4
f 628/3/4 627/3/4 629/3/4
f 630/3/4 631/3/4 632/3/4
f 632/3/4 631/3/4 633/3/4
f 633/3/4 634/3/4 635/3/4
f 635/3/4 634/3/4 636/3/4
f 637/3/4 638/3/4 639/3/4
f 639/3/4 638/3/4 640/3/4
f 641/2/4 642/2/4 643/2/4
f 643/2/4 642/2/4 644/2/4
f 645/3/4 646/3/4 647/3/4
f 645/3/4 647/3/4 650/3/4
f 647/3/4 648/3/4 650/3/4
f 650/3/4 648/3/4 651/3/4
f 648/2/4 649/2/4 652/2/4
f 651/3/4 648/3/4 652/3/4
f 652/2/4 649/2/4 653/2/4
f 650/2/4 651/2/4 655/2/4
f 654/3/4 655/3/4 656/3/4
f 655/2/4 651/2/4 657/2/4
f 656/3/4 655/3/4 657/3/4
f 657/2/4 651/2/4 658/2/4
f 658/2/4 651/2/4 659/2/4
f 660/2/4 661/2/4 663/2/4
f 662/3/4 663/3/4 664/3/4
f 663/2/4 661/2/4 665/2/4
f 664/3/4 663/3/4 665/3/4
f 665/2/4 661/2/4 666/2/4
f 665/2/4 666/2/4 668/2/4
f 666/2/4 667/2/4 668/2/4
f 668/2/4 667/2/4 669/2/4
f 670/2/4 671/2/4 674/2/4
f 674/2/4 671/2/4 675/2/4
f 672/3/4 673/3/4 676/3/4
f 676/3/4 673/3/4 677/3/4
f 678/3/4 679/3/4 680/3/4
f 680/3/4 679/3/4 681/3/4
f 670/2/4 674/2/4 682/2/4
f 682/2/4 683/2/4 684/2/4
f 670/2/4 682/2/4 684/2/4
f 684/2/4 683/2/4 685/2/4
f 686/3/4 687/3/4 690/3/4
f 690/3/4 687/3/4 691/3/4
f 688/2/4 689/2/4 692/2/4
f 692/2/4 693/2/4 694/2/4
f 694/2/4 695/2/4 696/2/4
f 694/2/4 696/2/4 698/2/4
f 696/2/4 697/2/4 698/2/4
f 698/2/4 697/2/4 699/2/4
f 692/2/4 694/2/4 700/2/4
f 694/2/4 698/2/4 700/2/4
f 700/2/4 698/2/4 701/2/4
f 688/2/4 692/2/4 704/2/4
f 692/2/4 700/2/4 704/2/4
f 704/2/4 700/2/4 705/2/4
f 702/3/4 703/3/4 706/3/4
f 706/3/4 703/3/4 707/3/4
f 688/2/4 704/2/4 708/2/4
f 708/2/4 704/2/4 709/2/4
f 715/3/5 711/3/5 710/3/5
f 716/3/5 711/3/5 715/3/5
f 717/3/5 713/3/5 712/3/5
f 718/3/5 713/3/5 717/3/5
f 720/3/5 715/3/5 714/3/5
f 721/3/5 715/3/5 720/3/5
f 722/3/5 719/3/5 718/3/5
f 723/3/5 719/3/5 722/3/5
f 728/3/5 725/3/5 724/3/5
f 729/3/5 725/3/5 728/3/5
f 732/3/5 727/3/5 726/3/5
f 733/3/5 727/3/5 732/3/5
f 734/3/5 730/3/5 729/3/5
f 735/3/5 730/3/5 734/3/5
f 736/3/5 732/3/5 731/3/5
f 737/3/5 732/3/5 736/3/5
f 742/3/5 739/3/5 738/3/5
f 743/3/5 739/3/5 742/3/5
f 744/3/5 741/3/5 740/3/5
f 745/3/5 741/3/5 744/3/5
f 750/3/5 747/3/5 746/3/5
f 751/3/5 747/3/5 750/3/5
f 752/3/5 749/3/5 748/3/5
f 753/3/5 749/3/5 752/3/5
f 758/3/5 755/3/5 754/3/5
f 759/3/5 755/3/5 758/3/5
f 760/3/5 757/3/5 756/3/5
f 761/3/5 757/3/5 760/3/5
f 766/3/5 763/3/5 762/3/5
f 767/3/5 763/3/5 766/3/5
f 768/3/5 765/3/5 764/3/5
f 769/3/5 765/3/5 768/3/5
f 774/3/5 771/3/5 770/3/5
f 775/3/5 771/3/5 774/3/5
f 776/3/5 773/3/5 772/3/5
f 777/3/5 773/3/5 776/3/5
f 782/3/5 779/3/5 778/3/5
f 783/3/5 779/3/5 782/3/5
f 784/3/5 781/3/5 780/3/5
f 785/3/5 781/3/5 784/3/5
f 791/2/5 787/2/5 786/2/5
f 792/2/5 787/2/5 791/2/5
f 796/3/5 790/3/5 789/3/5
f 796/2/5 791/2/5 790/2/5
f 796/2/5 792/2/5 791/2/5
f 796/2/5 793/2/5 792/2/5
f 797/3/5 794/3/5 793/3/5
f 797/2/5 793/2/5 796/2/5
f 798/3/5 796/3/5 789/3/5
f 798/3/5 797/3/5 796/3/5
f 799/3/5 794/3/5 797/3/5
f 799/3/5 797/3/5 798/3/5
f 801/2/5 789/2/5 788/2/5
f 802/2/5 795/2/5 794/2/5
f 804/3/5 798/3/5 789/3/5
f 805/3/5 794/3/5 799/3/5
f 806/2/5 801/2/5 800/2/5
f 807/2/5 789/2/5 801/2/5
f 807/2/5 801/2/5 806/2/5
f 808/3/5 805/3/5 804/3/5
f 808/3/5 804/3/5 789/3/5
f 809/3/5 794/3/5 805/3/5
f 809/3/5 805/3/5 808/3/5
f 811/3/5 807/3/5 806/3/5
f 812/2/5 789/2/5 807/2/5
f 812/3/5 808/3/5 789/3/5
f 813/2/5 809/2/5 808/2/5
f 813/3/5 808/3/5 812/3/5
f 814/2/5 809/2/5 813/2/5
f 815/2/5 809/2/5 814/2/5
f 816/3/5 794/3/5 809/3/5
f 816/2/5 809/2/5 815/2/5
f 817/2/5 803/2/5 802/2/5
f 817/3/5 794/3/5 816/3/5
f 817/2/5 802/2/5 794/2/5
f 818/3/5 811/3/5 810/3/5
f 819/3/5 807/3/5 811/3/5
f 819/3/5 811/3/5 818/3/5
f 819/2/5 812/2/5 807/2/5
f 820/2/5 812/2/5 819/2/5
f 821/2/5 814/2/5 813/2/5
f 822/2/5 814/2/5 821/2/5
f 823/2/5 816/2/5 815/2/5
f 824/2/5 816/2/5 823/2/5
f 825/2/5 803/2/5 817/2/5
f 826/2/5 803/2/5 825/2/5
f 830/2/5 828/2/5 827/2/5
f 831/2/5 828/2/5 830/2/5
f 833/2/5 830/2/5 829/2/5
f 833/2/5 832/2/5 831/2/5
f 833/2/5 831/2/5 830/2/5
f 834/2/5 832/2/5 833/2/5
f 835/2/5 832/2/5 834/2/5
f 836/2/5 832/2/5 835/2/5
f 837/2/5 834/2/5 833/2/5
f 838/2/5 834/2/5 837/2/5
f 839/2/5 836/2/5 835/2/5
f 840/2/5 836/2/5 839/2/5
f 843/2/5 842/2/5 841/2/5
f 844/2/5 842/2/5 843/2/5
f 847/3/5 846/3/5 845/3/5
f 848/3/5 846/3/5 847/3/5
f 852/2/5 850/2/5 849/2/5
f 853/2/5 850/2/5 852/2/5
f 855/2/5 853/2/5 852/2/5
f 855/2/5 854/2/5 853/2/5
f 855/2/5 852/2/5 851/2/5
f 856/2/5 854/2/5 855/2/5
f 859/3/5 858/3/5 857/3/5
f 861/3/5 859/3/5 857/3/5
f 862/3/5 859/3/5 861/3/5
f 862/3/5 861/3/5 860/3/5
f 863/3/5 859/3/5 862/3/5
f 864/3/5 862/3/5 860/3/5
f 865/3/5 862/3/5 864/3/5
f 868/2/5 867/2/5 866/2/5
f 869/2/5 867/2/5 868/2/5
f 872/3/5 871/3/5 870/3/5
f 873/3/5 871/3/5 872/3/5
f 875/3/5 871/3/5 873/3/5
f 876/3/5 871/3/5 875/3/5
f 878/3/5 875/3/5 874/3/5
f 878/3/5 876/3/5 875/3/5
f 879/3/5 876/3/5 878/3/5
f 880/3/5 876/3/5 879/3/5
f 881/3/5 876/3/5 880/3/5
f 882/3/5 878/3/5 877/3/5
f 884/3/5 882/3/5 877/3/5
f 885/3/5 882/3/5 884/3/5
f 886/3/5 884/3/5 883/3/5
f 887/3/5 884/3/5 886/3/5
f 890/1/5 889/1/5 888/1/5
f 891/1/5 889/1/5 890/1/5
f 892/1/5 889/1/5 891/1/5
f 893/1/5 889/1/5 892/1/5
f 894/1/5 890/1/5 888/1/5
f 895/1/5 890/1/5 894/1/5
f 896/1/5 892/1/5 891/1/5
f 897/1/5 892/1/5 896/1/5
f 898/1/5 889/1/5 893/1/5
f 899/1/5 889/1/5 898/1/5
f 900/1/5 894/1/5 888/1/5
f 901/1/5 897/1/5 896/1/5
f 901/1/5 898/1/5 897/1/5
f 901/1/5 896/1/5 895/1/5
f 902/1/5 898/1/5 901/1/5
f 903/1/5 898/1/5 902/1/5
f 904/1/5 898/1/5 903/1/5
f 905/1/5 889/1/5 899/1/5
f 906/1/5 901/1/5 900/1/5
f 906/1/5 902/1/5 901/1/5
f 908/1/5 900/1/5 888/1/5
f 908/1/5 907/1/5 906/1/5
f 908/1/5 906/1/5 900/1/5
f 909/1/5 907/1/5 908/1/5
f 910/1/5 904/1/5 903/1/5
f 910/1/5 905/1/5 904/1/5
f 911/1/5 905/1/5 910/1/5
f 915/1/5 905/1/5 911/1/5
f 917/1/5 913/1/5 912/1/5
f 918/1/5 913/1/5 917/1/5
f 919/1/5 915/1/5 914/1/5
f 920/1/5 908/1/5 888/1/5
f 921/1/5 908/1/5 920/1/5
f 922/1/5 918/1/5 917/1/5
f 922/1/5 919/1/5 918/1/5
f 922/1/5 917/1/5 916/1/5
f 923/1/5 889/1/5 905/1/5
f 923/1/5 919/1/5 922/1/5
f 923/1/5 905/1/5 915/1/5
f 923/1/5 915/1/5 919/1/5
f 924/3/6 925/3/6 928/3/6
f 928/3/6 925/3/6 929/3/6
f 926/3/6 927/3/6 930/3/6
f 930/3/6 927/3/6 931/3/6
f 932/3/6 933/3/6 936/3/6
f 936/3/6 933/3/6 937/3/6
f 934/3/6 935/3/6 938/3/6
f 938/3/6 935/3/6 939/3/6
f 940/3/6 941/3/6 944/3/6
f 944/3/6 941/3/6 945/3/6
f 942/3/6 943/3/6 946/3/6
f 946/3/6 943/3/6 947/3/6
f 948/3/6 949/3/6 952/3/6
f 952/3/6 949/3/6 953/3/6
f 950/3/6 951/3/6 954/3/6
f 954/3/6 951/3/6 955/3/6
f 956/2/6 957/2/6 960/2/6
f 960/2/6 957/2/6 961/2/6
f 958/2/6 959/2/6 962/2/6
f 962/2/6 959/2/6 963/2/6
f 964/3/6 965/3/6 966/3/6
f 966/3/6 965/3/6 967/3/6
f 968/2/6 969/2/6 971/2/6
f 971/2/6 969/2/6 972/2/6
f 970/2/6 971/2/6 975/2/6
f 972/2/6 973/2/6 975/2/6
f 971/2/6 972/2/6 975/2/6
f 975/2/6 973/2/6 976/2/6
f 974/2/6 975/2/6 979/2/6
f 976/2/6 977/2/6 979/2/6
f 975/2/6 976/2/6 979/2/6
f 979/2/6 977/2/6 980/2/6
f 978/2/6 979/2/6 982/2/6
f 980/2/6 981/2/6 982/2/6
f 979/2/6 980/2/6 982/2/6
f 978/2/6 982/2/6 986/2/6
f 982/2/6 983/2/6 986/2/6
f 986/2/6 983/2/6 987/2/6
f 984/3/6 985/3/6 988/3/6
f 988/3/6 985/3/6 989/3/6
f 978/2/6 986/2/6 990/2/6
f 990/2/6 986/2/6 991/2/6
f 991/2/6 986/2/6 992/2/6
f 992/2/6 986/2/6 993/2/6
f 993/2/6 986/2/6 994/2/6
f 992/2/6 993/2/6 995/2/6
f 995/2/6 993/2/6 996/2/6
f 997/3/6 998/3/6 999/3/6
f 999/3/6 998/3/6 1000/3/6
f 1000/3/6 1001/3/6 1004/3/6
f 1004/3/6 1001/3/6 1005/3/6
f 1002/2/6 1003/2/6 1006/2/6
f 1006/2/6 1003/2/6 1007/2/6
f 1008/3/6 1009/3/6 1010/3/6
f 1010/3/6 1009/3/6 1011/3/6
f 1011/3/6 1009/3/6 1012/3/6
f 1012/3/6 1009/3/6 1013/3/6
f 1014/2/6 1015/2/6 1018/2/6
f 1018/2/6 1015/2/6 1019/2/6
f 1016/2/6 1017/2/6 1020/2/6
f 1020/2/6 1017/2/6 1021/2/6
f 1022/1/6 1023/1/6 1024/1/6
f 1024/1/6 1023/1/6 1025/1/6
f 1026/2/6 1027/2/6 1030/2/6
f 1030/2/6 1027/2/6 1031/2/6
f 1028/2/6 1029/2/6 1032/2/6
f 1032/2/6 1029/2/6 1033/2/6
f 1034/2/6 1035/2/6 1038/2/6
f 1038/2/6 1035/2/6 1039/2/6
f 1036/2/6 1037/2/6 1040/2/6
f 1040/2/6 1037/2/6 1041/2/6
f 1042/2/6 1043/2/6 1046/2/6
f 1046/2/6 1043/2/6 1047/2/6
f 1044/2/6 1045/2/6 1048/2/6
f 1048/2/6 1045/2/6 1049/2/6
f 1050/2/6 1051/2/6 1054/2/6
f 1054/2/6 1051/2/6 1055/2/6
f 1052/2/6 1053/2/6 1056/2/6
f 1056/2/6 1053/2/6 1057/2/6
f 1058/2/6 1059/2/6 1060/2/6
f 1060/2/6 1059/2/6 1061/2/6
