# MagicaVoxel @ Ephtracy

# group
o 

# material
mtllib Clock.vox.mtl
usemtl palette

# normals
vn -1 0 0
vn 1 0 0
vn 0 0 1
vn 0 0 -1
vn 0 -1 0
vn 0 1 0

# texcoords
vt 0.947266 0.5
vt 0.962891 0.5
vt 0.994141 0.5

# verts
v -0.8 0.5 -0.7
v -0.8 0.5 -0.8
v -0.8 1.1 -0.7
v -0.8 1.1 -0.8
v -0.7 0.3 -0.7
v -0.7 0.3 -0.8
v -0.7 0.5 -0.7
v -0.7 0.5 -0.8
v -0.7 1.1 -0.7
v -0.7 1.1 -0.8
v -0.7 1.3 -0.7
v -0.7 1.3 -0.8
v -0.6 0.2 -0.7
v -0.6 0.2 -0.8
v -0.6 0.3 -0.7
v -0.6 0.3 -0.8
v -0.6 1.3 -0.7
v -0.6 1.3 -0.8
v -0.6 1.4 -0.7
v -0.6 1.4 -0.8
v -0.5 0.1 -0.7
v -0.5 0.1 -0.8
v -0.5 0.2 -0.7
v -0.5 0.2 -0.8
v -0.5 1.4 -0.7
v -0.5 1.4 -0.8
v -0.5 1.5 -0.7
v -0.5 1.5 -0.8
v -0.3 0 -0.7
v -0.3 0 -0.8
v -0.3 0.1 -0.7
v -0.3 0.1 -0.8
v -0.3 1.5 -0.7
v -0.3 1.5 -0.8
v -0.3 1.6 -0.7
v -0.3 1.6 -0.8
v 0.3 0 -0.7
v 0.3 0 -0.8
v 0.3 0.1 -0.7
v 0.3 0.1 -0.8
v 0.3 1.5 -0.7
v 0.3 1.5 -0.8
v 0.3 1.6 -0.7
v 0.3 1.6 -0.8
v 0.5 0.1 -0.7
v 0.5 0.1 -0.8
v 0.5 0.2 -0.7
v 0.5 0.2 -0.8
v 0.5 1.4 -0.7
v 0.5 1.4 -0.8
v 0.5 1.5 -0.7
v 0.5 1.5 -0.8
v 0.6 0.2 -0.7
v 0.6 0.2 -0.8
v 0.6 0.3 -0.7
v 0.6 0.3 -0.8
v 0.6 1.3 -0.7
v 0.6 1.3 -0.8
v 0.6 1.4 -0.7
v 0.6 1.4 -0.8
v 0.7 0.3 -0.7
v 0.7 0.3 -0.8
v 0.7 0.5 -0.7
v 0.7 0.5 -0.8
v 0.7 1.1 -0.7
v 0.7 1.1 -0.8
v 0.7 1.3 -0.7
v 0.7 1.3 -0.8
v 0.8 0.5 -0.7
v 0.8 0.5 -0.8
v 0.8 1.1 -0.7
v 0.8 1.1 -0.8
v -0.8 0.5 -0.7
v -0.8 1.1 -0.7
v -0.7 0.3 -0.7
v -0.7 0.5 -0.7
v -0.7 1.1 -0.7
v -0.7 1.3 -0.7
v -0.6 0.2 -0.7
v -0.6 0.3 -0.7
v -0.6 0.5 -0.7
v -0.6 1.1 -0.7
v -0.6 1.3 -0.7
v -0.6 1.4 -0.7
v -0.5 0.1 -0.7
v -0.5 0.2 -0.7
v -0.5 0.3 -0.7
v -0.5 1.3 -0.7
v -0.5 1.4 -0.7
v -0.5 1.5 -0.7
v -0.3 0 -0.7
v -0.3 0.1 -0.7
v -0.3 0.2 -0.7
v -0.3 1.4 -0.7
v -0.3 1.5 -0.7
v -0.3 1.6 -0.7
v -0.1 0.7 -0.7
v -0.1 1.3 -0.7
v 0 0.9 -0.7
v 0 1.3 -0.7
v 0.1 0.7 -0.7
v 0.1 0.8 -0.7
v 0.2 0.8 -0.7
v 0.2 0.9 -0.7
v 0.2 1 -0.7
v 0.3 0 -0.7
v 0.3 0.1 -0.7
v 0.3 0.2 -0.7
v 0.3 1.4 -0.7
v 0.3 1.5 -0.7
v 0.3 1.6 -0.7
v 0.4 0.9 -0.7
v 0.4 1 -0.7
v 0.4 1.1 -0.7
v 0.5 0.1 -0.7
v 0.5 0.2 -0.7
v 0.5 0.3 -0.7
v 0.5 1 -0.7
v 0.5 1.1 -0.7
v 0.5 1.3 -0.7
v 0.5 1.4 -0.7
v 0.5 1.5 -0.7
v 0.6 0.2 -0.7
v 0.6 0.3 -0.7
v 0.6 0.5 -0.7
v 0.6 1.1 -0.7
v 0.6 1.3 -0.7
v 0.6 1.4 -0.7
v 0.7 0.3 -0.7
v 0.7 0.5 -0.7
v 0.7 1.1 -0.7
v 0.7 1.3 -0.7
v 0.8 0.5 -0.7
v 0.8 1.1 -0.7
v -0.8 0.5 -0.8
v -0.8 1.1 -0.8
v -0.7 0.3 -0.8
v -0.7 0.5 -0.8
v -0.7 1.1 -0.8
v -0.7 1.3 -0.8
v -0.6 0.2 -0.8
v -0.6 0.3 -0.8
v -0.6 0.5 -0.8
v -0.6 1.1 -0.8
v -0.6 1.3 -0.8
v -0.6 1.4 -0.8
v -0.5 0.1 -0.8
v -0.5 0.2 -0.8
v -0.5 0.3 -0.8
v -0.5 1.3 -0.8
v -0.5 1.4 -0.8
v -0.5 1.5 -0.8
v -0.3 0 -0.8
v -0.3 0.1 -0.8
v -0.3 0.2 -0.8
v -0.3 1.4 -0.8
v -0.3 1.5 -0.8
v -0.3 1.6 -0.8
v -0.1 0.7 -0.8
v -0.1 1.3 -0.8
v 0 0.9 -0.8
v 0 1.3 -0.8
v 0.1 0.7 -0.8
v 0.1 0.8 -0.8
v 0.2 0.8 -0.8
v 0.2 0.9 -0.8
v 0.2 1 -0.8
v 0.3 0 -0.8
v 0.3 0.1 -0.8
v 0.3 0.2 -0.8
v 0.3 1.4 -0.8
v 0.3 1.5 -0.8
v 0.3 1.6 -0.8
v 0.4 0.9 -0.8
v 0.4 1 -0.8
v 0.4 1.1 -0.8
v 0.5 0.1 -0.8
v 0.5 0.2 -0.8
v 0.5 0.3 -0.8
v 0.5 1 -0.8
v 0.5 1.1 -0.8
v 0.5 1.3 -0.8
v 0.5 1.4 -0.8
v 0.5 1.5 -0.8
v 0.6 0.2 -0.8
v 0.6 0.3 -0.8
v 0.6 0.5 -0.8
v 0.6 1.1 -0.8
v 0.6 1.3 -0.8
v 0.6 1.4 -0.8
v 0.7 0.3 -0.8
v 0.7 0.5 -0.8
v 0.7 1.1 -0.8
v 0.7 1.3 -0.8
v 0.8 0.5 -0.8
v 0.8 1.1 -0.8
v -0.3 0 -0.7
v 0.3 0 -0.7
v -0.3 0 -0.8
v 0.3 0 -0.8
v -0.5 0.1 -0.7
v -0.3 0.1 -0.7
v 0.3 0.1 -0.7
v 0.5 0.1 -0.7
v -0.5 0.1 -0.8
v -0.3 0.1 -0.8
v 0.3 0.1 -0.8
v 0.5 0.1 -0.8
v -0.6 0.2 -0.7
v -0.5 0.2 -0.7
v 0.5 0.2 -0.7
v 0.6 0.2 -0.7
v -0.6 0.2 -0.8
v -0.5 0.2 -0.8
v 0.5 0.2 -0.8
v 0.6 0.2 -0.8
v -0.7 0.3 -0.7
v -0.6 0.3 -0.7
v 0.6 0.3 -0.7
v 0.7 0.3 -0.7
v -0.7 0.3 -0.8
v -0.6 0.3 -0.8
v 0.6 0.3 -0.8
v 0.7 0.3 -0.8
v -0.8 0.5 -0.7
v -0.7 0.5 -0.7
v 0.7 0.5 -0.7
v 0.8 0.5 -0.7
v -0.8 0.5 -0.8
v -0.7 0.5 -0.8
v 0.7 0.5 -0.8
v 0.8 0.5 -0.8
v -0.8 1.1 -0.7
v -0.7 1.1 -0.7
v 0.7 1.1 -0.7
v 0.8 1.1 -0.7
v -0.8 1.1 -0.8
v -0.7 1.1 -0.8
v 0.7 1.1 -0.8
v 0.8 1.1 -0.8
v -0.7 1.3 -0.7
v -0.6 1.3 -0.7
v 0.6 1.3 -0.7
v 0.7 1.3 -0.7
v -0.7 1.3 -0.8
v -0.6 1.3 -0.8
v 0.6 1.3 -0.8
v 0.7 1.3 -0.8
v -0.6 1.4 -0.7
v -0.5 1.4 -0.7
v 0.5 1.4 -0.7
v 0.6 1.4 -0.7
v -0.6 1.4 -0.8
v -0.5 1.4 -0.8
v 0.5 1.4 -0.8
v 0.6 1.4 -0.8
v -0.5 1.5 -0.7
v -0.3 1.5 -0.7
v 0.3 1.5 -0.7
v 0.5 1.5 -0.7
v -0.5 1.5 -0.8
v -0.3 1.5 -0.8
v 0.3 1.5 -0.8
v 0.5 1.5 -0.8
v -0.3 1.6 -0.7
v 0.3 1.6 -0.7
v -0.3 1.6 -0.8
v 0.3 1.6 -0.8

# faces
f 3/1/1 2/1/1 1/1/1
f 4/1/1 2/1/1 3/1/1
f 7/1/1 6/1/1 5/1/1
f 8/1/1 6/1/1 7/1/1
f 11/1/1 10/1/1 9/1/1
f 12/1/1 10/1/1 11/1/1
f 15/1/1 14/1/1 13/1/1
f 16/1/1 14/1/1 15/1/1
f 19/1/1 18/1/1 17/1/1
f 20/1/1 18/1/1 19/1/1
f 23/1/1 22/1/1 21/1/1
f 24/1/1 22/1/1 23/1/1
f 27/1/1 26/1/1 25/1/1
f 28/1/1 26/1/1 27/1/1
f 31/1/1 30/1/1 29/1/1
f 32/1/1 30/1/1 31/1/1
f 35/1/1 34/1/1 33/1/1
f 36/1/1 34/1/1 35/1/1
f 37/1/2 38/1/2 39/1/2
f 39/1/2 38/1/2 40/1/2
f 41/1/2 42/1/2 43/1/2
f 43/1/2 42/1/2 44/1/2
f 45/1/2 46/1/2 47/1/2
f 47/1/2 46/1/2 48/1/2
f 49/1/2 50/1/2 51/1/2
f 51/1/2 50/1/2 52/1/2
f 53/1/2 54/1/2 55/1/2
f 55/1/2 54/1/2 56/1/2
f 57/1/2 58/1/2 59/1/2
f 59/1/2 58/1/2 60/1/2
f 61/1/2 62/1/2 63/1/2
f 63/1/2 62/1/2 64/1/2
f 65/1/2 66/1/2 67/1/2
f 67/1/2 66/1/2 68/1/2
f 69/1/2 70/1/2 71/1/2
f 71/1/2 70/1/2 72/1/2
f 76/1/3 74/1/3 73/1/3
f 77/1/3 74/1/3 76/1/3
f 80/1/3 76/1/3 75/1/3
f 81/2/3 77/2/3 76/2/3
f 81/1/3 76/1/3 80/1/3
f 82/1/3 78/1/3 77/1/3
f 82/2/3 77/2/3 81/2/3
f 83/1/3 78/1/3 82/1/3
f 86/1/3 80/1/3 79/1/3
f 87/2/3 81/2/3 80/2/3
f 87/2/3 82/2/3 81/2/3
f 87/1/3 80/1/3 86/1/3
f 87/2/3 83/2/3 82/2/3
f 88/1/3 84/1/3 83/1/3
f 88/2/3 83/2/3 87/2/3
f 89/1/3 84/1/3 88/1/3
f 92/1/3 86/1/3 85/1/3
f 93/2/3 87/2/3 86/2/3
f 93/2/3 88/2/3 87/2/3
f 93/1/3 86/1/3 92/1/3
f 93/2/3 89/2/3 88/2/3
f 94/1/3 90/1/3 89/1/3
f 94/2/3 89/2/3 93/2/3
f 95/1/3 90/1/3 94/1/3
f 97/2/3 93/2/3 92/2/3
f 97/2/3 94/2/3 93/2/3
f 97/2/3 95/2/3 94/2/3
f 98/2/3 95/2/3 97/2/3
f 99/3/3 98/3/3 97/3/3
f 100/2/3 95/2/3 98/2/3
f 100/3/3 98/3/3 99/3/3
f 101/2/3 97/2/3 92/2/3
f 101/3/3 99/3/3 97/3/3
f 102/3/3 99/3/3 101/3/3
f 103/2/3 102/2/3 101/2/3
f 103/3/3 99/3/3 102/3/3
f 104/2/3 100/2/3 99/2/3
f 104/3/3 99/3/3 103/3/3
f 105/2/3 100/2/3 104/2/3
f 106/1/3 92/1/3 91/1/3
f 107/2/3 103/2/3 101/2/3
f 107/1/3 92/1/3 106/1/3
f 107/2/3 101/2/3 92/2/3
f 107/2/3 104/2/3 103/2/3
f 108/2/3 104/2/3 107/2/3
f 109/2/3 100/2/3 105/2/3
f 109/2/3 95/2/3 100/2/3
f 110/1/3 96/1/3 95/1/3
f 110/2/3 95/2/3 109/2/3
f 111/1/3 96/1/3 110/1/3
f 112/2/3 104/2/3 108/2/3
f 112/3/3 105/3/3 104/3/3
f 113/2/3 109/2/3 105/2/3
f 113/3/3 105/3/3 112/3/3
f 114/2/3 109/2/3 113/2/3
f 115/1/3 108/1/3 107/1/3
f 116/2/3 112/2/3 108/2/3
f 116/1/3 108/1/3 115/1/3
f 116/2/3 113/2/3 112/2/3
f 117/2/3 113/2/3 116/2/3
f 118/3/3 114/3/3 113/3/3
f 118/2/3 113/2/3 117/2/3
f 119/2/3 109/2/3 114/2/3
f 119/3/3 114/3/3 118/3/3
f 120/2/3 109/2/3 119/2/3
f 121/1/3 110/1/3 109/1/3
f 121/2/3 109/2/3 120/2/3
f 122/1/3 110/1/3 121/1/3
f 123/1/3 117/1/3 116/1/3
f 124/2/3 118/2/3 117/2/3
f 124/1/3 117/1/3 123/1/3
f 124/2/3 120/2/3 119/2/3
f 124/2/3 119/2/3 118/2/3
f 125/2/3 120/2/3 124/2/3
f 126/2/3 120/2/3 125/2/3
f 127/1/3 121/1/3 120/1/3
f 127/2/3 120/2/3 126/2/3
f 128/1/3 121/1/3 127/1/3
f 129/1/3 125/1/3 124/1/3
f 130/2/3 126/2/3 125/2/3
f 130/1/3 125/1/3 129/1/3
f 131/1/3 127/1/3 126/1/3
f 131/2/3 126/2/3 130/2/3
f 132/1/3 127/1/3 131/1/3
f 133/1/3 131/1/3 130/1/3
f 134/1/3 131/1/3 133/1/3
f 135/1/4 136/1/4 138/1/4
f 138/1/4 136/1/4 139/1/4
f 137/1/4 138/1/4 142/1/4
f 138/2/4 139/2/4 143/2/4
f 142/1/4 138/1/4 143/1/4
f 139/1/4 140/1/4 144/1/4
f 143/2/4 139/2/4 144/2/4
f 144/1/4 140/1/4 145/1/4
f 141/1/4 142/1/4 148/1/4
f 142/2/4 143/2/4 149/2/4
f 143/2/4 144/2/4 149/2/4
f 148/1/4 142/1/4 149/1/4
f 144/2/4 145/2/4 149/2/4
f 145/1/4 146/1/4 150/1/4
f 149/2/4 145/2/4 150/2/4
f 150/1/4 146/1/4 151/1/4
f 147/1/4 148/1/4 154/1/4
f 148/2/4 149/2/4 155/2/4
f 149/2/4 150/2/4 155/2/4
f 154/1/4 148/1/4 155/1/4
f 150/2/4 151/2/4 155/2/4
f 151/1/4 152/1/4 156/1/4
f 155/2/4 151/2/4 156/2/4
f 156/1/4 152/1/4 157/1/4
f 154/2/4 155/2/4 159/2/4
f 155/2/4 156/2/4 159/2/4
f 156/2/4 157/2/4 159/2/4
f 159/2/4 157/2/4 160/2/4
f 159/3/4 160/3/4 161/3/4
f 160/2/4 157/2/4 162/2/4
f 161/3/4 160/3/4 162/3/4
f 154/2/4 159/2/4 163/2/4
f 159/3/4 161/3/4 163/3/4
f 163/3/4 161/3/4 164/3/4
f 163/2/4 164/2/4 165/2/4
f 164/3/4 161/3/4 165/3/4
f 161/2/4 162/2/4 166/2/4
f 165/3/4 161/3/4 166/3/4
f 166/2/4 162/2/4 167/2/4
f 153/1/4 154/1/4 168/1/4
f 163/2/4 165/2/4 169/2/4
f 168/1/4 154/1/4 169/1/4
f 154/2/4 163/2/4 169/2/4
f 165/2/4 166/2/4 169/2/4
f 169/2/4 166/2/4 170/2/4
f 167/2/4 162/2/4 171/2/4
f 162/2/4 157/2/4 171/2/4
f 157/1/4 158/1/4 172/1/4
f 171/2/4 157/2/4 172/2/4
f 172/1/4 158/1/4 173/1/4
f 170/2/4 166/2/4 174/2/4
f 166/3/4 167/3/4 174/3/4
f 167/2/4 171/2/4 175/2/4
f 174/3/4 167/3/4 175/3/4
f 175/2/4 171/2/4 176/2/4
f 169/1/4 170/1/4 177/1/4
f 170/2/4 174/2/4 178/2/4
f 177/1/4 170/1/4 178/1/4
f 174/2/4 175/2/4 178/2/4
f 178/2/4 175/2/4 179/2/4
f 175/3/4 176/3/4 180/3/4
f 179/2/4 175/2/4 180/2/4
f 176/2/4 171/2/4 181/2/4
f 180/3/4 176/3/4 181/3/4
f 181/2/4 171/2/4 182/2/4
f 171/1/4 172/1/4 183/1/4
f 182/2/4 171/2/4 183/2/4
f 183/1/4 172/1/4 184/1/4
f 178/1/4 179/1/4 185/1/4
f 179/2/4 180/2/4 186/2/4
f 185/1/4 179/1/4 186/1/4
f 181/2/4 182/2/4 186/2/4
f 180/2/4 181/2/4 186/2/4
f 186/2/4 182/2/4 187/2/4
f 187/2/4 182/2/4 188/2/4
f 182/1/4 183/1/4 189/1/4
f 188/2/4 182/2/4 189/2/4
f 189/1/4 183/1/4 190/1/4
f 186/1/4 187/1/4 191/1/4
f 187/2/4 188/2/4 192/2/4
f 191/1/4 187/1/4 192/1/4
f 188/1/4 189/1/4 193/1/4
f 192/2/4 188/2/4 193/2/4
f 193/1/4 189/1/4 194/1/4
f 192/1/4 193/1/4 195/1/4
f 195/1/4 193/1/4 196/1/4
f 199/1/5 198/1/5 197/1/5
f 200/1/5 198/1/5 199/1/5
f 205/1/5 202/1/5 201/1/5
f 206/1/5 202/1/5 205/1/5
f 207/1/5 204/1/5 203/1/5
f 208/1/5 204/1/5 207/1/5
f 213/1/5 210/1/5 209/1/5
f 214/1/5 210/1/5 213/1/5
f 215/1/5 212/1/5 211/1/5
f 216/1/5 212/1/5 215/1/5
f 221/1/5 218/1/5 217/1/5
f 222/1/5 218/1/5 221/1/5
f 223/1/5 220/1/5 219/1/5
f 224/1/5 220/1/5 223/1/5
f 229/1/5 226/1/5 225/1/5
f 230/1/5 226/1/5 229/1/5
f 231/1/5 228/1/5 227/1/5
f 232/1/5 228/1/5 231/1/5
f 233/1/6 234/1/6 237/1/6
f 237/1/6 234/1/6 238/1/6
f 235/1/6 236/1/6 239/1/6
f 239/1/6 236/1/6 240/1/6
f 241/1/6 242/1/6 245/1/6
f 245/1/6 242/1/6 246/1/6
f 243/1/6 244/1/6 247/1/6
f 247/1/6 244/1/6 248/1/6
f 249/1/6 250/1/6 253/1/6
f 253/1/6 250/1/6 254/1/6
f 251/1/6 252/1/6 255/1/6
f 255/1/6 252/1/6 256/1/6
f 257/1/6 258/1/6 261/1/6
f 261/1/6 258/1/6 262/1/6
f 259/1/6 260/1/6 263/1/6
f 263/1/6 260/1/6 264/1/6
f 265/1/6 266/1/6 267/1/6
f 267/1/6 266/1/6 268/1/6
