# MagicaVoxel @ Ephtracy

# group
o 

# material
mtllib Computer.vox.mtl
usemtl palette

# normals
vn -1 0 0
vn 1 0 0
vn 0 0 1
vn 0 0 -1
vn 0 -1 0
vn 0 1 0

# texcoords
vt 0.939453 0.5
vt 0.970703 0.5
vt 0.990234 0.5
vt 0.994141 0.5

# verts
v -0.7 0.2 -0.2
v -0.7 0.2 -0.3
v -0.7 0.3 -0.2
v -0.7 0.3 -0.3
v -0.7 0.3 -0.4
v -0.7 0.4 -0.3
v -0.7 0.4 -0.4
v -0.6 0 0.7
v -0.6 0 0
v -0.6 0 -0.1
v -0.6 0 -0.2
v -0.6 0.1 0.7
v -0.6 0.1 0
v -0.6 0.1 -0.1
v -0.6 0.1 -0.2
v -0.6 0.1 -0.3
v -0.6 0.2 -0.2
v -0.6 0.2 -0.3
v -0.6 0.4 -0.3
v -0.6 0.4 -0.4
v -0.6 0.4 -0.6
v -0.6 0.5 -0.4
v -0.6 0.5 -0.6
v -0.6 0.5 -0.7
v -0.6 0.6 -0.6
v -0.6 0.6 -0.7
v -0.6 1.1 -0.3
v -0.6 1.1 -0.4
v -0.5 0 0
v -0.5 0 -0.1
v -0.5 0.1 0
v -0.5 0.1 -0.1
v -0.5 0.5 -0.4
v -0.5 0.5 -0.5
v -0.5 0.6 -0.6
v -0.5 0.6 -0.7
v -0.5 0.7 -0.6
v -0.5 0.7 -0.7
v -0.5 1 -0.4
v -0.5 1 -0.5
v -0.4 0.5 -0.5
v -0.4 0.5 -0.6
v -0.4 0.6 -0.6
v -0.4 0.7 -0.6
v -0.4 0.9 -0.5
v -0.4 0.9 -0.6
v -0.3 0 -0.4
v -0.3 0 -0.5
v -0.3 0.1 -0.4
v -0.3 0.1 -0.5
v -0.2 0 -0.3
v -0.2 0 -0.4
v -0.2 0 -0.5
v -0.2 0 -0.6
v -0.2 0.1 -0.3
v -0.2 0.1 -0.4
v -0.2 0.1 -0.5
v -0.2 0.1 -0.6
v -0.2 0.3 -0.4
v -0.2 0.4 -0.4
v -0.2 0.4 -0.5
v -0.6 0.2 -0.2
v -0.6 0.2 -0.3
v -0.6 0.3 -0.2
v -0.6 0.3 -0.3
v -0.5 0 -0.1
v -0.5 0 -0.2
v -0.5 0.1 -0.1
v -0.5 0.1 -0.2
v -0.5 0.1 -0.3
v -0.5 0.2 -0.2
v -0.5 0.2 -0.3
v -0.5 0.4 -0.5
v -0.5 0.4 -0.6
v -0.5 0.5 -0.5
v -0.5 0.5 -0.6
v -0.5 0.5 -0.7
v -0.5 0.6 -0.6
v -0.5 0.6 -0.7
v -0.4 0 0
v -0.4 0 -0.1
v -0.4 0.1 0
v -0.4 0.1 -0.1
v -0.3 0.6 -0.6
v -0.3 0.6 -0.7
v -0.3 0.7 -0.6
v -0.3 0.7 -0.7
v 0.2 0 -0.3
v 0.2 0 -0.4
v 0.2 0 -0.5
v 0.2 0 -0.6
v 0.2 0.1 -0.3
v 0.2 0.1 -0.4
v 0.2 0.1 -0.5
v 0.2 0.1 -0.6
v 0.2 0.3 -0.4
v 0.2 0.4 -0.4
v 0.2 0.4 -0.5
v 0.3 0 -0.4
v 0.3 0 -0.5
v 0.3 0.1 -0.4
v 0.3 0.1 -0.5
v 0.4 0.5 -0.5
v 0.4 0.5 -0.6
v 0.4 0.9 -0.5
v 0.4 0.9 -0.6
v 0.5 0.4 -0.4
v 0.5 0.4 -0.5
v 0.5 1 -0.4
v 0.5 1 -0.5
v 0.6 0 0.7
v 0.6 0 0
v 0.6 0.1 0.7
v 0.6 0.1 0
v 0.6 0.3 -0.3
v 0.6 0.3 -0.4
v 0.6 1.1 -0.3
v 0.6 1.1 -0.4
v -0.6 0 0.7
v -0.6 0.1 0.7
v -0.3 0 0.7
v -0.3 0.1 0.7
v 0.3 0 0.7
v 0.3 0.1 0.7
v 0.6 0 0.7
v 0.6 0.1 0.7
v -0.6 0 -0.1
v -0.6 0.1 -0.1
v -0.5 0 -0.1
v -0.5 0.1 -0.1
v -0.7 0.2 -0.2
v -0.7 0.3 -0.2
v -0.6 0.1 -0.2
v -0.6 0.2 -0.2
v -0.6 0.3 -0.2
v -0.5 0.1 -0.2
v -0.5 0.2 -0.2
v -0.7 0.3 -0.3
v -0.7 0.4 -0.3
v -0.6 0.3 -0.3
v -0.6 0.4 -0.3
v -0.6 1.1 -0.3
v -0.5 0.4 -0.3
v -0.5 1 -0.3
v -0.2 0 -0.3
v -0.2 0.1 -0.3
v 0.2 0 -0.3
v 0.2 0.1 -0.3
v 0.5 0.4 -0.3
v 0.5 1 -0.3
v 0.6 0.3 -0.3
v 0.6 1.1 -0.3
v -0.3 0 -0.4
v -0.3 0.1 -0.4
v -0.2 0 -0.4
v -0.2 0.1 -0.4
v -0.2 0.3 -0.4
v 0.2 0 -0.4
v 0.2 0.1 -0.4
v 0.2 0.3 -0.4
v 0.3 0 -0.4
v 0.3 0.1 -0.4
v -0.6 0.5 -0.6
v -0.6 0.6 -0.6
v -0.5 0.5 -0.6
v -0.5 0.6 -0.6
v -0.5 0.7 -0.6
v -0.4 0.6 -0.6
v -0.4 0.7 -0.6
v -0.6 0 0
v -0.6 0.1 0
v -0.5 0 0
v -0.5 0.1 0
v -0.4 0 0
v -0.4 0.1 0
v 0.6 0 0
v 0.6 0.1 0
v -0.5 0 -0.1
v -0.5 0.1 -0.1
v -0.4 0 -0.1
v -0.4 0.1 -0.1
v -0.6 0 -0.2
v -0.6 0.1 -0.2
v -0.5 0 -0.2
v -0.5 0.1 -0.2
v -0.7 0.2 -0.3
v -0.7 0.3 -0.3
v -0.6 0.1 -0.3
v -0.6 0.2 -0.3
v -0.6 0.3 -0.3
v -0.5 0.1 -0.3
v -0.5 0.2 -0.3
v -0.7 0.3 -0.4
v -0.7 0.4 -0.4
v -0.6 0.3 -0.4
v -0.6 0.4 -0.4
v -0.6 0.5 -0.4
v -0.6 1.1 -0.4
v -0.5 0.4 -0.4
v -0.5 0.5 -0.4
v -0.5 1 -0.4
v -0.2 0.3 -0.4
v -0.2 0.4 -0.4
v 0.2 0.3 -0.4
v 0.2 0.4 -0.4
v 0.5 0.4 -0.4
v 0.5 1 -0.4
v 0.6 0.3 -0.4
v 0.6 1.1 -0.4
v -0.5 0.4 -0.5
v -0.5 0.5 -0.5
v -0.5 1 -0.5
v -0.4 0.5 -0.5
v -0.4 0.9 -0.5
v -0.3 0 -0.5
v -0.3 0.1 -0.5
v -0.2 0 -0.5
v -0.2 0.1 -0.5
v -0.2 0.4 -0.5
v 0.2 0 -0.5
v 0.2 0.1 -0.5
v 0.2 0.4 -0.5
v 0.3 0 -0.5
v 0.3 0.1 -0.5
v 0.4 0.5 -0.5
v 0.4 0.9 -0.5
v 0.5 0.4 -0.5
v 0.5 1 -0.5
v -0.6 0.4 -0.6
v -0.6 0.5 -0.6
v -0.5 0.4 -0.6
v -0.5 0.5 -0.6
v -0.4 0.5 -0.6
v -0.4 0.6 -0.6
v -0.4 0.7 -0.6
v -0.4 0.9 -0.6
v -0.3 0.6 -0.6
v -0.3 0.7 -0.6
v -0.2 0 -0.6
v -0.2 0.1 -0.6
v 0.2 0 -0.6
v 0.2 0.1 -0.6
v 0.4 0.5 -0.6
v 0.4 0.9 -0.6
v -0.6 0.5 -0.7
v -0.6 0.6 -0.7
v -0.5 0.5 -0.7
v -0.5 0.6 -0.7
v -0.5 0.7 -0.7
v -0.3 0.6 -0.7
v -0.3 0.7 -0.7
v -0.6 0 0.7
v -0.3 0 0.7
v 0.3 0 0.7
v 0.6 0 0.7
v -0.3 0 0.6
v 0.3 0 0.6
v -0.4 0 0.5
v -0.3 0 0.5
v -0.2 0 0.5
v -0.1 0 0.5
v 0 0 0.5
v 0.1 0 0.5
v 0.2 0 0.5
v 0.3 0 0.5
v 0.4 0 0.5
v 0.5 0 0.5
v -0.5 0 0.4
v -0.4 0 0.4
v -0.3 0 0.4
v -0.2 0 0.4
v -0.1 0 0.4
v 0 0 0.4
v 0.1 0 0.4
v 0.2 0 0.4
v 0.3 0 0.4
v 0.4 0 0.4
v 0.5 0 0.4
v -0.5 0 0.3
v -0.4 0 0.3
v -0.3 0 0.3
v -0.2 0 0.3
v -0.1 0 0.3
v 0 0 0.3
v 0.1 0 0.3
v 0.2 0 0.3
v 0.3 0 0.3
v 0.4 0 0.3
v 0.5 0 0.3
v -0.5 0 0.2
v -0.4 0 0.2
v -0.3 0 0.2
v -0.2 0 0.2
v -0.1 0 0.2
v 0 0 0.2
v 0.1 0 0.2
v 0.2 0 0.2
v 0.3 0 0.2
v 0.4 0 0.2
v 0.5 0 0.2
v -0.5 0 0.1
v -0.4 0 0.1
v -0.3 0 0.1
v -0.2 0 0.1
v -0.1 0 0.1
v 0 0 0.1
v 0.1 0 0.1
v 0.2 0 0.1
v 0.3 0 0.1
v 0.4 0 0.1
v -0.6 0 0
v -0.5 0 0
v -0.4 0 0
v 0.6 0 0
v -0.6 0 -0.1
v -0.5 0 -0.1
v -0.4 0 -0.1
v -0.6 0 -0.2
v -0.5 0 -0.2
v -0.2 0 -0.3
v 0.2 0 -0.3
v -0.3 0 -0.4
v -0.2 0 -0.4
v 0.2 0 -0.4
v 0.3 0 -0.4
v -0.3 0 -0.5
v -0.2 0 -0.5
v 0.2 0 -0.5
v 0.3 0 -0.5
v -0.2 0 -0.6
v 0.2 0 -0.6
v -0.6 0.1 -0.2
v -0.5 0.1 -0.2
v -0.6 0.1 -0.3
v -0.5 0.1 -0.3
v -0.7 0.2 -0.2
v -0.6 0.2 -0.2
v -0.7 0.2 -0.3
v -0.6 0.2 -0.3
v -0.7 0.3 -0.3
v -0.6 0.3 -0.3
v 0.6 0.3 -0.3
v -0.7 0.3 -0.4
v -0.6 0.3 -0.4
v -0.2 0.3 -0.4
v 0.2 0.3 -0.4
v 0.6 0.3 -0.4
v -0.6 0.4 -0.4
v -0.5 0.4 -0.4
v -0.2 0.4 -0.4
v 0.2 0.4 -0.4
v 0.5 0.4 -0.4
v -0.5 0.4 -0.5
v -0.2 0.4 -0.5
v 0.2 0.4 -0.5
v 0.5 0.4 -0.5
v -0.6 0.4 -0.6
v -0.5 0.4 -0.6
v -0.4 0.5 -0.5
v 0.4 0.5 -0.5
v -0.6 0.5 -0.6
v -0.5 0.5 -0.6
v -0.4 0.5 -0.6
v 0.4 0.5 -0.6
v -0.6 0.5 -0.7
v -0.5 0.5 -0.7
v -0.5 0.6 -0.6
v -0.4 0.6 -0.6
v -0.3 0.6 -0.6
v -0.5 0.6 -0.7
v -0.3 0.6 -0.7
v -0.6 0.1 0.7
v -0.3 0.1 0.7
v 0.3 0.1 0.7
v 0.6 0.1 0.7
v -0.3 0.1 0.6
v 0.3 0.1 0.6
v -0.4 0.1 0.5
v -0.3 0.1 0.5
v -0.2 0.1 0.5
v -0.1 0.1 0.5
v 0 0.1 0.5
v 0.1 0.1 0.5
v 0.2 0.1 0.5
v 0.3 0.1 0.5
v 0.4 0.1 0.5
v 0.5 0.1 0.5
v -0.5 0.1 0.4
v -0.4 0.1 0.4
v -0.3 0.1 0.4
v -0.2 0.1 0.4
v -0.1 0.1 0.4
v 0 0.1 0.4
v 0.1 0.1 0.4
v 0.2 0.1 0.4
v 0.3 0.1 0.4
v 0.4 0.1 0.4
v 0.5 0.1 0.4
v -0.5 0.1 0.3
v -0.4 0.1 0.3
v -0.3 0.1 0.3
v -0.2 0.1 0.3
v -0.1 0.1 0.3
v 0 0.1 0.3
v 0.1 0.1 0.3
v 0.2 0.1 0.3
v 0.3 0.1 0.3
v 0.4 0.1 0.3
v 0.5 0.1 0.3
v -0.5 0.1 0.2
v -0.4 0.1 0.2
v -0.3 0.1 0.2
v -0.2 0.1 0.2
v -0.1 0.1 0.2
v 0 0.1 0.2
v 0.1 0.1 0.2
v 0.2 0.1 0.2
v 0.3 0.1 0.2
v 0.4 0.1 0.2
v 0.5 0.1 0.2
v -0.5 0.1 0.1
v -0.4 0.1 0.1
v -0.3 0.1 0.1
v -0.2 0.1 0.1
v -0.1 0.1 0.1
v 0 0.1 0.1
v 0.1 0.1 0.1
v 0.2 0.1 0.1
v 0.3 0.1 0.1
v 0.4 0.1 0.1
v -0.6 0.1 0
v -0.5 0.1 0
v -0.4 0.1 0
v 0.6 0.1 0
v -0.6 0.1 -0.1
v -0.5 0.1 -0.1
v -0.4 0.1 -0.1
v -0.6 0.1 -0.2
v -0.5 0.1 -0.2
v -0.2 0.1 -0.3
v 0.2 0.1 -0.3
v -0.3 0.1 -0.4
v -0.2 0.1 -0.4
v 0.2 0.1 -0.4
v 0.3 0.1 -0.4
v -0.3 0.1 -0.5
v -0.2 0.1 -0.5
v 0.2 0.1 -0.5
v 0.3 0.1 -0.5
v -0.2 0.1 -0.6
v 0.2 0.1 -0.6
v -0.6 0.2 -0.2
v -0.5 0.2 -0.2
v -0.6 0.2 -0.3
v -0.5 0.2 -0.3
v -0.7 0.3 -0.2
v -0.6 0.3 -0.2
v -0.7 0.3 -0.3
v -0.6 0.3 -0.3
v -0.7 0.4 -0.3
v -0.6 0.4 -0.3
v -0.7 0.4 -0.4
v -0.6 0.4 -0.4
v -0.6 0.5 -0.4
v -0.5 0.5 -0.4
v -0.5 0.5 -0.5
v -0.6 0.5 -0.6
v -0.5 0.5 -0.6
v -0.6 0.6 -0.6
v -0.5 0.6 -0.6
v -0.6 0.6 -0.7
v -0.5 0.6 -0.7
v -0.5 0.7 -0.6
v -0.4 0.7 -0.6
v -0.3 0.7 -0.6
v -0.5 0.7 -0.7
v -0.3 0.7 -0.7
v -0.4 0.9 -0.5
v 0.4 0.9 -0.5
v -0.4 0.9 -0.6
v 0.4 0.9 -0.6
v -0.5 1 -0.4
v 0.5 1 -0.4
v -0.5 1 -0.5
v 0.5 1 -0.5
v -0.6 1.1 -0.3
v 0.6 1.1 -0.3
v -0.6 1.1 -0.4
v 0.6 1.1 -0.4

# faces
f 3/2/1 2/2/1 1/2/1
f 4/2/1 2/2/1 3/2/1
f 6/2/1 5/2/1 4/2/1
f 7/2/1 5/2/1 6/2/1
f 12/1/1 9/1/1 8/1/1
f 13/1/1 9/1/1 12/1/1
f 14/2/1 11/2/1 10/2/1
f 15/2/1 11/2/1 14/2/1
f 17/2/1 16/2/1 15/2/1
f 18/2/1 16/2/1 17/2/1
f 22/1/1 20/1/1 19/1/1
f 22/2/1 21/2/1 20/2/1
f 23/2/1 21/2/1 22/2/1
f 25/2/1 24/2/1 23/2/1
f 26/2/1 24/2/1 25/2/1
f 27/1/1 22/1/1 19/1/1
f 28/1/1 22/1/1 27/1/1
f 31/2/1 30/2/1 29/2/1
f 32/2/1 30/2/1 31/2/1
f 37/2/1 36/2/1 35/2/1
f 38/2/1 36/2/1 37/2/1
f 39/1/1 34/1/1 33/1/1
f 40/1/1 34/1/1 39/1/1
f 43/1/1 42/1/1 41/1/1
f 44/1/1 43/1/1 41/1/1
f 45/1/1 44/1/1 41/1/1
f 46/1/1 44/1/1 45/1/1
f 49/1/1 48/1/1 47/1/1
f 50/1/1 48/1/1 49/1/1
f 55/1/1 52/1/1 51/1/1
f 56/1/1 52/1/1 55/1/1
f 57/1/1 54/1/1 53/1/1
f 58/1/1 54/1/1 57/1/1
f 59/1/1 57/1/1 56/1/1
f 60/1/1 57/1/1 59/1/1
f 61/1/1 57/1/1 60/1/1
f 62/2/2 63/2/2 64/2/2
f 64/2/2 63/2/2 65/2/2
f 66/2/2 67/2/2 68/2/2
f 68/2/2 67/2/2 69/2/2
f 69/2/2 70/2/2 71/2/2
f 71/2/2 70/2/2 72/2/2
f 73/2/2 74/2/2 75/2/2
f 75/2/2 74/2/2 76/2/2
f 76/2/2 77/2/2 78/2/2
f 78/2/2 77/2/2 79/2/2
f 80/2/2 81/2/2 82/2/2
f 82/2/2 81/2/2 83/2/2
f 84/2/2 85/2/2 86/2/2
f 86/2/2 85/2/2 87/2/2
f 88/1/2 89/1/2 92/1/2
f 92/1/2 89/1/2 93/1/2
f 90/1/2 91/1/2 94/1/2
f 94/1/2 91/1/2 95/1/2
f 93/1/2 94/1/2 96/1/2
f 96/1/2 94/1/2 97/1/2
f 97/1/2 94/1/2 98/1/2
f 99/1/2 100/1/2 101/1/2
f 101/1/2 100/1/2 102/1/2
f 103/1/2 104/1/2 105/1/2
f 105/1/2 104/1/2 106/1/2
f 107/1/2 108/1/2 109/1/2
f 109/1/2 108/1/2 110/1/2
f 111/1/2 112/1/2 113/1/2
f 113/1/2 112/1/2 114/1/2
f 115/1/2 116/1/2 117/1/2
f 117/1/2 116/1/2 118/1/2
f 121/1/3 120/1/3 119/1/3
f 122/1/3 120/1/3 121/1/3
f 123/3/3 122/3/3 121/3/3
f 124/3/3 122/3/3 123/3/3
f 125/1/3 124/1/3 123/1/3
f 126/1/3 124/1/3 125/1/3
f 129/2/3 128/2/3 127/2/3
f 130/2/3 128/2/3 129/2/3
f 134/2/3 132/2/3 131/2/3
f 135/2/3 132/2/3 134/2/3
f 136/2/3 134/2/3 133/2/3
f 137/2/3 134/2/3 136/2/3
f 140/2/3 139/2/3 138/2/3
f 141/2/3 139/2/3 140/2/3
f 143/1/3 141/1/3 140/1/3
f 143/1/3 142/1/3 141/1/3
f 144/1/3 142/1/3 143/1/3
f 147/1/3 146/1/3 145/1/3
f 148/1/3 146/1/3 147/1/3
f 149/1/3 143/1/3 140/1/3
f 149/4/3 144/4/3 143/4/3
f 150/1/3 142/1/3 144/1/3
f 150/4/3 144/4/3 149/4/3
f 151/1/3 149/1/3 140/1/3
f 151/1/3 150/1/3 149/1/3
f 152/1/3 142/1/3 150/1/3
f 152/1/3 150/1/3 151/1/3
f 155/1/3 154/1/3 153/1/3
f 156/1/3 154/1/3 155/1/3
f 159/1/3 157/1/3 156/1/3
f 160/1/3 157/1/3 159/1/3
f 161/1/3 159/1/3 158/1/3
f 162/1/3 159/1/3 161/1/3
f 165/2/3 164/2/3 163/2/3
f 166/2/3 164/2/3 165/2/3
f 168/2/3 167/2/3 166/2/3
f 169/2/3 167/2/3 168/2/3
f 170/1/4 171/1/4 172/1/4
f 172/1/4 171/1/4 173/1/4
f 174/1/4 175/1/4 176/1/4
f 176/1/4 175/1/4 177/1/4
f 178/2/4 179/2/4 180/2/4
f 180/2/4 179/2/4 181/2/4
f 182/2/4 183/2/4 184/2/4
f 184/2/4 183/2/4 185/2/4
f 186/2/4 187/2/4 189/2/4
f 189/2/4 187/2/4 190/2/4
f 188/2/4 189/2/4 191/2/4
f 191/2/4 189/2/4 192/2/4
f 193/2/4 194/2/4 195/2/4
f 195/2/4 194/2/4 196/2/4
f 195/1/4 196/1/4 199/1/4
f 197/1/4 198/1/4 200/1/4
f 200/1/4 198/1/4 201/1/4
f 195/1/4 199/1/4 202/1/4
f 202/1/4 199/1/4 203/1/4
f 204/1/4 205/1/4 206/1/4
f 201/1/4 198/1/4 207/1/4
f 204/1/4 206/1/4 208/1/4
f 206/1/4 207/1/4 208/1/4
f 207/1/4 198/1/4 209/1/4
f 208/1/4 207/1/4 209/1/4
f 210/1/4 211/1/4 213/1/4
f 211/1/4 212/1/4 213/1/4
f 213/1/4 212/1/4 214/1/4
f 215/1/4 216/1/4 217/1/4
f 217/1/4 216/1/4 218/1/4
f 210/1/4 213/1/4 219/1/4
f 218/1/4 219/1/4 221/1/4
f 219/1/4 213/1/4 222/1/4
f 221/1/4 219/1/4 222/1/4
f 220/1/4 221/1/4 223/1/4
f 223/1/4 221/1/4 224/1/4
f 222/1/4 213/1/4 225/1/4
f 214/1/4 212/1/4 226/1/4
f 222/1/4 225/1/4 227/1/4
f 225/1/4 226/1/4 227/1/4
f 226/1/4 212/1/4 228/1/4
f 227/1/4 226/1/4 228/1/4
f 229/2/4 230/2/4 231/2/4
f 231/2/4 230/2/4 232/2/4
f 233/1/4 234/1/4 237/1/4
f 235/1/4 236/1/4 238/1/4
f 239/1/4 240/1/4 241/1/4
f 241/1/4 240/1/4 242/1/4
f 233/1/4 237/1/4 243/1/4
f 237/1/4 238/1/4 243/1/4
f 238/1/4 236/1/4 244/1/4
f 243/1/4 238/1/4 244/1/4
f 245/2/4 246/2/4 247/2/4
f 247/2/4 246/2/4 248/2/4
f 248/2/4 249/2/4 250/2/4
f 250/2/4 249/2/4 251/2/4
f 256/1/5 253/1/5 252/1/5
f 256/3/5 254/3/5 253/3/5
f 257/1/5 255/1/5 254/1/5
f 257/3/5 254/3/5 256/3/5
f 258/1/5 256/1/5 252/1/5
f 258/1/5 257/1/5 256/1/5
f 259/1/5 257/1/5 258/1/5
f 260/1/5 257/1/5 259/1/5
f 261/1/5 257/1/5 260/1/5
f 262/1/5 257/1/5 261/1/5
f 263/1/5 257/1/5 262/1/5
f 264/1/5 257/1/5 263/1/5
f 265/1/5 255/1/5 257/1/5
f 265/1/5 257/1/5 264/1/5
f 266/1/5 255/1/5 265/1/5
f 267/1/5 255/1/5 266/1/5
f 268/1/5 258/1/5 252/1/5
f 269/3/5 259/3/5 258/3/5
f 269/1/5 258/1/5 268/1/5
f 270/1/5 260/1/5 259/1/5
f 270/3/5 259/3/5 269/3/5
f 271/3/5 261/3/5 260/3/5
f 271/1/5 260/1/5 270/1/5
f 272/1/5 262/1/5 261/1/5
f 272/3/5 261/3/5 271/3/5
f 273/3/5 263/3/5 262/3/5
f 273/1/5 262/1/5 272/1/5
f 274/1/5 264/1/5 263/1/5
f 274/3/5 263/3/5 273/3/5
f 275/3/5 265/3/5 264/3/5
f 275/1/5 264/1/5 274/1/5
f 276/1/5 266/1/5 265/1/5
f 276/3/5 265/3/5 275/3/5
f 277/3/5 267/3/5 266/3/5
f 277/1/5 266/1/5 276/1/5
f 278/1/5 255/1/5 267/1/5
f 278/3/5 267/3/5 277/3/5
f 279/1/5 268/1/5 252/1/5
f 279/3/5 269/3/5 268/3/5
f 280/1/5 270/1/5 269/1/5
f 280/3/5 269/3/5 279/3/5
f 281/3/5 271/3/5 270/3/5
f 281/1/5 270/1/5 280/1/5
f 282/1/5 272/1/5 271/1/5
f 282/3/5 271/3/5 281/3/5
f 283/3/5 273/3/5 272/3/5
f 283/1/5 272/1/5 282/1/5
f 284/1/5 274/1/5 273/1/5
f 284/3/5 273/3/5 283/3/5
f 285/3/5 275/3/5 274/3/5
f 285/1/5 274/1/5 284/1/5
f 286/1/5 276/1/5 275/1/5
f 286/3/5 275/3/5 285/3/5
f 287/3/5 277/3/5 276/3/5
f 287/1/5 276/1/5 286/1/5
f 288/1/5 278/1/5 277/1/5
f 288/3/5 277/3/5 287/3/5
f 289/1/5 255/1/5 278/1/5
f 289/1/5 278/1/5 288/1/5
f 290/1/5 279/1/5 252/1/5
f 290/1/5 280/1/5 279/1/5
f 291/3/5 281/3/5 280/3/5
f 291/1/5 280/1/5 290/1/5
f 292/1/5 282/1/5 281/1/5
f 292/3/5 281/3/5 291/3/5
f 293/3/5 283/3/5 282/3/5
f 293/1/5 282/1/5 292/1/5
f 294/1/5 284/1/5 283/1/5
f 294/3/5 283/3/5 293/3/5
f 295/3/5 285/3/5 284/3/5
f 295/1/5 284/1/5 294/1/5
f 296/1/5 286/1/5 285/1/5
f 296/3/5 285/3/5 295/3/5
f 297/3/5 287/3/5 286/3/5
f 297/1/5 286/1/5 296/1/5
f 298/1/5 288/1/5 287/1/5
f 298/3/5 287/3/5 297/3/5
f 299/3/5 289/3/5 288/3/5
f 299/1/5 288/1/5 298/1/5
f 300/1/5 255/1/5 289/1/5
f 300/3/5 289/3/5 299/3/5
f 301/3/5 291/3/5 290/3/5
f 301/1/5 290/1/5 252/1/5
f 302/1/5 292/1/5 291/1/5
f 302/3/5 291/3/5 301/3/5
f 303/3/5 293/3/5 292/3/5
f 303/1/5 292/1/5 302/1/5
f 304/1/5 294/1/5 293/1/5
f 304/3/5 293/3/5 303/3/5
f 305/3/5 295/3/5 294/3/5
f 305/1/5 294/1/5 304/1/5
f 306/1/5 296/1/5 295/1/5
f 306/3/5 295/3/5 305/3/5
f 307/3/5 297/3/5 296/3/5
f 307/1/5 296/1/5 306/1/5
f 308/1/5 298/1/5 297/1/5
f 308/3/5 297/3/5 307/3/5
f 309/3/5 299/3/5 298/3/5
f 309/1/5 298/1/5 308/1/5
f 310/1/5 300/1/5 299/1/5
f 310/3/5 299/3/5 309/3/5
f 311/1/5 304/1/5 303/1/5
f 311/1/5 306/1/5 305/1/5
f 311/1/5 310/1/5 309/1/5
f 311/1/5 303/1/5 302/1/5
f 311/1/5 302/1/5 301/1/5
f 311/1/5 301/1/5 252/1/5
f 311/1/5 309/1/5 308/1/5
f 311/1/5 307/1/5 306/1/5
f 311/1/5 308/1/5 307/1/5
f 311/1/5 305/1/5 304/1/5
f 312/1/5 310/1/5 311/1/5
f 313/1/5 310/1/5 312/1/5
f 314/1/5 255/1/5 300/1/5
f 314/1/5 310/1/5 313/1/5
f 314/1/5 300/1/5 310/1/5
f 316/2/5 313/2/5 312/2/5
f 317/2/5 313/2/5 316/2/5
f 318/2/5 316/2/5 315/2/5
f 319/2/5 316/2/5 318/2/5
f 323/1/5 321/1/5 320/1/5
f 324/1/5 321/1/5 323/1/5
f 326/1/5 323/1/5 322/1/5
f 326/1/5 325/1/5 324/1/5
f 326/1/5 324/1/5 323/1/5
f 327/1/5 325/1/5 326/1/5
f 328/1/5 325/1/5 327/1/5
f 329/1/5 325/1/5 328/1/5
f 330/1/5 328/1/5 327/1/5
f 331/1/5 328/1/5 330/1/5
f 334/2/5 333/2/5 332/2/5
f 335/2/5 333/2/5 334/2/5
f 338/2/5 337/2/5 336/2/5
f 339/2/5 337/2/5 338/2/5
f 343/2/5 341/2/5 340/2/5
f 344/1/5 342/1/5 341/1/5
f 344/2/5 341/2/5 343/2/5
f 345/1/5 342/1/5 344/1/5
f 346/1/5 342/1/5 345/1/5
f 347/1/5 342/1/5 346/1/5
f 353/2/5 349/2/5 348/2/5
f 353/1/5 350/1/5 349/1/5
f 354/1/5 350/1/5 353/1/5
f 355/1/5 352/1/5 351/1/5
f 356/1/5 352/1/5 355/1/5
f 357/2/5 353/2/5 348/2/5
f 358/2/5 353/2/5 357/2/5
f 363/1/5 360/1/5 359/1/5
f 364/1/5 360/1/5 363/1/5
f 365/2/5 362/2/5 361/2/5
f 366/2/5 362/2/5 365/2/5
f 370/2/5 368/2/5 367/2/5
f 370/2/5 369/2/5 368/2/5
f 371/2/5 369/2/5 370/2/5
f 372/1/6 373/1/6 376/1/6
f 373/3/6 374/3/6 376/3/6
f 374/1/6 375/1/6 377/1/6
f 376/3/6 374/3/6 377/3/6
f 372/1/6 376/1/6 378/1/6
f 376/1/6 377/1/6 378/1/6
f 378/1/6 377/1/6 379/1/6
f 379/1/6 377/1/6 380/1/6
f 380/1/6 377/1/6 381/1/6
f 381/1/6 377/1/6 382/1/6
f 382/1/6 377/1/6 383/1/6
f 383/1/6 377/1/6 384/1/6
f 377/1/6 375/1/6 385/1/6
f 384/1/6 377/1/6 385/1/6
f 385/1/6 375/1/6 386/1/6
f 386/1/6 375/1/6 387/1/6
f 372/1/6 378/1/6 388/1/6
f 378/3/6 379/3/6 389/3/6
f 388/1/6 378/1/6 389/1/6
f 379/1/6 380/1/6 390/1/6
f 389/3/6 379/3/6 390/3/6
f 380/3/6 381/3/6 391/3/6
f 390/1/6 380/1/6 391/1/6
f 381/1/6 382/1/6 392/1/6
f 391/3/6 381/3/6 392/3/6
f 382/3/6 383/3/6 393/3/6
f 392/1/6 382/1/6 393/1/6
f 383/1/6 384/1/6 394/1/6
f 393/3/6 383/3/6 394/3/6
f 384/3/6 385/3/6 395/3/6
f 394/1/6 384/1/6 395/1/6
f 385/1/6 386/1/6 396/1/6
f 395/3/6 385/3/6 396/3/6
f 386/3/6 387/3/6 397/3/6
f 396/1/6 386/1/6 397/1/6
f 387/1/6 375/1/6 398/1/6
f 397/3/6 387/3/6 398/3/6
f 372/1/6 388/1/6 399/1/6
f 388/3/6 389/3/6 399/3/6
f 389/1/6 390/1/6 400/1/6
f 399/3/6 389/3/6 400/3/6
f 390/3/6 391/3/6 401/3/6
f 400/1/6 390/1/6 401/1/6
f 391/1/6 392/1/6 402/1/6
f 401/3/6 391/3/6 402/3/6
f 392/3/6 393/3/6 403/3/6
f 402/1/6 392/1/6 403/1/6
f 393/1/6 394/1/6 404/1/6
f 403/3/6 393/3/6 404/3/6
f 394/3/6 395/3/6 405/3/6
f 404/1/6 394/1/6 405/1/6
f 395/1/6 396/1/6 406/1/6
f 405/3/6 395/3/6 406/3/6
f 396/3/6 397/3/6 407/3/6
f 406/1/6 396/1/6 407/1/6
f 397/1/6 398/1/6 408/1/6
f 407/3/6 397/3/6 408/3/6
f 398/1/6 375/1/6 409/1/6
f 408/1/6 398/1/6 409/1/6
f 372/1/6 399/1/6 410/1/6
f 399/1/6 400/1/6 410/1/6
f 400/3/6 401/3/6 411/3/6
f 410/1/6 400/1/6 411/1/6
f 401/1/6 402/1/6 412/1/6
f 411/3/6 401/3/6 412/3/6
f 402/3/6 403/3/6 413/3/6
f 412/1/6 402/1/6 413/1/6
f 403/1/6 404/1/6 414/1/6
f 413/3/6 403/3/6 414/3/6
f 404/3/6 405/3/6 415/3/6
f 414/1/6 404/1/6 415/1/6
f 405/1/6 406/1/6 416/1/6
f 415/3/6 405/3/6 416/3/6
f 406/3/6 407/3/6 417/3/6
f 416/1/6 406/1/6 417/1/6
f 407/1/6 408/1/6 418/1/6
f 417/3/6 407/3/6 418/3/6
f 408/3/6 409/3/6 419/3/6
f 418/1/6 408/1/6 419/1/6
f 409/1/6 375/1/6 420/1/6
f 419/3/6 409/3/6 420/3/6
f 410/3/6 411/3/6 421/3/6
f 372/1/6 410/1/6 421/1/6
f 411/1/6 412/1/6 422/1/6
f 421/3/6 411/3/6 422/3/6
f 412/3/6 413/3/6 423/3/6
f 422/1/6 412/1/6 423/1/6
f 413/1/6 414/1/6 424/1/6
f 423/3/6 413/3/6 424/3/6
f 414/3/6 415/3/6 425/3/6
f 424/1/6 414/1/6 425/1/6
f 415/1/6 416/1/6 426/1/6
f 425/3/6 415/3/6 426/3/6
f 416/3/6 417/3/6 427/3/6
f 426/1/6 416/1/6 427/1/6
f 417/1/6 418/1/6 428/1/6
f 427/3/6 417/3/6 428/3/6
f 418/3/6 419/3/6 429/3/6
f 428/1/6 418/1/6 429/1/6
f 419/1/6 420/1/6 430/1/6
f 429/3/6 419/3/6 430/3/6
f 423/1/6 424/1/6 431/1/6
f 425/1/6 426/1/6 431/1/6
f 429/1/6 430/1/6 431/1/6
f 422/1/6 423/1/6 431/1/6
f 421/1/6 422/1/6 431/1/6
f 372/1/6 421/1/6 431/1/6
f 428/1/6 429/1/6 431/1/6
f 426/1/6 427/1/6 431/1/6
f 427/1/6 428/1/6 431/1/6
f 424/1/6 425/1/6 431/1/6
f 431/1/6 430/1/6 432/1/6
f 432/1/6 430/1/6 433/1/6
f 420/1/6 375/1/6 434/1/6
f 433/1/6 430/1/6 434/1/6
f 430/1/6 420/1/6 434/1/6
f 432/2/6 433/2/6 436/2/6
f 436/2/6 433/2/6 437/2/6
f 435/2/6 436/2/6 438/2/6
f 438/2/6 436/2/6 439/2/6
f 440/1/6 441/1/6 443/1/6
f 443/1/6 441/1/6 444/1/6
f 442/1/6 443/1/6 446/1/6
f 446/1/6 443/1/6 447/1/6
f 444/1/6 445/1/6 448/1/6
f 448/1/6 445/1/6 449/1/6
f 447/1/6 448/1/6 450/1/6
f 450/1/6 448/1/6 451/1/6
f 452/2/6 453/2/6 454/2/6
f 454/2/6 453/2/6 455/2/6
f 456/2/6 457/2/6 458/2/6
f 458/2/6 457/2/6 459/2/6
f 460/2/6 461/2/6 462/2/6
f 462/2/6 461/2/6 463/2/6
f 464/2/6 465/2/6 466/2/6
f 464/2/6 466/2/6 467/2/6
f 467/2/6 466/2/6 468/2/6
f 469/2/6 470/2/6 471/2/6
f 471/2/6 470/2/6 472/2/6
f 473/2/6 474/2/6 476/2/6
f 474/2/6 475/2/6 476/2/6
f 476/2/6 475/2/6 477/2/6
f 478/1/6 479/1/6 480/1/6
f 480/1/6 479/1/6 481/1/6
f 482/1/6 483/1/6 484/1/6
f 484/1/6 483/1/6 485/1/6
f 486/1/6 487/1/6 488/1/6
f 488/1/6 487/1/6 489/1/6
