# MagicaVoxel @ Ephtracy

# group
o 

# material
mtllib Dirt_Path.vox.mtl
usemtl palette

# normals
vn -1 0 0
vn 1 0 0
vn 0 0 1
vn 0 0 -1
vn 0 -1 0
vn 0 1 0

# texcoords
vt 0.302734 0.5
vt 0.337891 0.5
vt 0.927734 0.5

# verts
v -0.8 0 0.8
v -0.8 0 -0.8
v -0.8 0.1 -0.4
v -0.8 0.1 -0.5
v -0.8 0.2 0.5
v -0.8 0.2 0.4
v -0.8 0.2 -0.4
v -0.8 0.2 -0.5
v -0.8 0.3 0.5
v -0.8 0.3 0.4
v -0.8 0.4 0.2
v -0.8 0.4 0.1
v -0.8 0.5 0.2
v -0.8 0.5 0.1
v -0.8 0.7 -0.6
v -0.8 0.7 -0.7
v -0.8 0.8 -0.6
v -0.8 0.8 -0.7
v -0.8 0.9 0.3
v -0.8 0.9 0.2
v -0.8 1 0.8
v -0.8 1 0.7
v -0.8 1 0.5
v -0.8 1 0.4
v -0.8 1 0.3
v -0.8 1 0.2
v -0.8 1 -0.3
v -0.8 1 -0.4
v -0.8 1.1 0.6
v -0.8 1.1 0.5
v -0.8 1.1 0.4
v -0.8 1.1 0.3
v -0.8 1.1 0
v -0.8 1.1 -0.1
v -0.8 1.1 -0.5
v -0.8 1.1 -0.6
v -0.8 1.1 -0.7
v -0.8 1.1 -0.8
v -0.8 1.2 0.3
v -0.8 1.2 0.2
v -0.8 1.2 0.1
v -0.8 1.2 0
v -0.8 1.2 -0.1
v -0.8 1.2 -0.2
v -0.8 1.2 -0.6
v -0.8 1.2 -0.7
v -0.8 1.3 0.7
v -0.8 1.3 0.6
v -0.8 1.3 0.2
v -0.8 1.3 0.1
v -0.8 1.3 -0.2
v -0.8 1.3 -0.3
v -0.8 1.3 -0.4
v -0.8 1.3 -0.5
v -0.8 1.6 0.8
v -0.8 1.6 -0.8
v 0.8 0 0.8
v 0.8 0 -0.8
v 0.8 0.1 -0.5
v 0.8 0.1 -0.6
v 0.8 0.2 0
v 0.8 0.2 -0.1
v 0.8 0.2 -0.5
v 0.8 0.2 -0.6
v 0.8 0.3 0.5
v 0.8 0.3 0.4
v 0.8 0.3 0
v 0.8 0.3 -0.1
v 0.8 0.4 0.5
v 0.8 0.4 0.4
v 0.8 0.5 -0.2
v 0.8 0.5 -0.3
v 0.8 0.6 -0.2
v 0.8 0.6 -0.3
v 0.8 0.7 0.4
v 0.8 0.7 0.3
v 0.8 0.7 -0.4
v 0.8 0.7 -0.5
v 0.8 0.8 0.4
v 0.8 0.8 0.3
v 0.8 0.8 -0.4
v 0.8 0.8 -0.5
v 0.8 1 0.5
v 0.8 1 0.4
v 0.8 1 -0.1
v 0.8 1 -0.2
v 0.8 1 -0.4
v 0.8 1 -0.5
v 0.8 1 -0.7
v 0.8 1 -0.8
v 0.8 1.1 0.7
v 0.8 1.1 0.6
v 0.8 1.1 0.2
v 0.8 1.1 0.1
v 0.8 1.1 0
v 0.8 1.1 -0.1
v 0.8 1.1 -0.3
v 0.8 1.1 -0.4
v 0.8 1.2 0.8
v 0.8 1.2 0.7
v 0.8 1.2 0.3
v 0.8 1.2 0.2
v 0.8 1.2 0.1
v 0.8 1.2 0
v 0.8 1.2 -0.5
v 0.8 1.2 -0.6
v 0.8 1.3 0.6
v 0.8 1.3 0.5
v 0.8 1.3 0.4
v 0.8 1.3 0.3
v 0.8 1.3 -0.2
v 0.8 1.3 -0.3
v 0.8 1.3 -0.6
v 0.8 1.3 -0.7
v 0.8 1.6 0.8
v 0.8 1.6 -0.8
v -0.8 0 0.8
v -0.8 1 0.8
v -0.8 1.6 0.8
v -0.7 1 0.8
v -0.7 1.2 0.8
v -0.6 0.4 0.8
v -0.6 0.5 0.8
v -0.6 1.2 0.8
v -0.6 1.3 0.8
v -0.5 0.1 0.8
v -0.5 0.2 0.8
v -0.5 0.4 0.8
v -0.5 0.5 0.8
v -0.5 1 0.8
v -0.5 1.3 0.8
v -0.4 0.1 0.8
v -0.4 0.2 0.8
v -0.4 0.8 0.8
v -0.4 0.9 0.8
v -0.4 1 0.8
v -0.4 1.2 0.8
v -0.3 0.8 0.8
v -0.3 0.9 0.8
v -0.3 1.1 0.8
v -0.3 1.2 0.8
v -0.2 1.1 0.8
v -0.2 1.3 0.8
v -0.1 1.1 0.8
v -0.1 1.3 0.8
v 0 0.4 0.8
v 0 0.5 0.8
v 0 1 0.8
v 0 1.1 0.8
v 0.1 0.4 0.8
v 0.1 0.5 0.8
v 0.1 0.7 0.8
v 0.1 0.8 0.8
v 0.1 1 0.8
v 0.1 1.3 0.8
v 0.2 0.7 0.8
v 0.2 0.8 0.8
v 0.2 1.2 0.8
v 0.2 1.3 0.8
v 0.3 1.1 0.8
v 0.3 1.2 0.8
v 0.4 0.1 0.8
v 0.4 0.2 0.8
v 0.4 1.1 0.8
v 0.4 1.2 0.8
v 0.5 0.1 0.8
v 0.5 0.2 0.8
v 0.5 1.2 0.8
v 0.5 1.3 0.8
v 0.6 0.6 0.8
v 0.6 0.7 0.8
v 0.6 1.1 0.8
v 0.6 1.3 0.8
v 0.7 0.6 0.8
v 0.7 0.7 0.8
v 0.7 1.1 0.8
v 0.7 1.2 0.8
v 0.8 0 0.8
v 0.8 1.2 0.8
v 0.8 1.6 0.8
v -0.8 0 -0.8
v -0.8 1.1 -0.8
v -0.8 1.6 -0.8
v -0.7 1.1 -0.8
v -0.7 1.2 -0.8
v -0.6 0.1 -0.8
v -0.6 0.2 -0.8
v -0.5 0.1 -0.8
v -0.5 0.2 -0.8
v -0.5 1 -0.8
v -0.5 1.2 -0.8
v -0.4 0.4 -0.8
v -0.4 0.5 -0.8
v -0.4 1 -0.8
v -0.4 1.1 -0.8
v -0.3 0.4 -0.8
v -0.3 0.5 -0.8
v -0.3 1.1 -0.8
v -0.3 1.3 -0.8
v -0.2 1.2 -0.8
v -0.2 1.3 -0.8
v -0.1 1 -0.8
v -0.1 1.2 -0.8
v 0 0.8 -0.8
v 0 0.9 -0.8
v 0 1 -0.8
v 0 1.2 -0.8
v 0.1 0.8 -0.8
v 0.1 0.9 -0.8
v 0.2 1.2 -0.8
v 0.2 1.3 -0.8
v 0.3 1.1 -0.8
v 0.3 1.3 -0.8
v 0.4 0.2 -0.8
v 0.4 0.3 -0.8
v 0.4 0.7 -0.8
v 0.4 0.8 -0.8
v 0.4 1.1 -0.8
v 0.4 1.2 -0.8
v 0.5 0.2 -0.8
v 0.5 0.3 -0.8
v 0.5 0.7 -0.8
v 0.5 0.8 -0.8
v 0.5 1.1 -0.8
v 0.5 1.2 -0.8
v 0.6 1.1 -0.8
v 0.6 1.3 -0.8
v 0.7 1 -0.8
v 0.7 1.3 -0.8
v 0.8 0 -0.8
v 0.8 1 -0.8
v 0.8 1.6 -0.8
v -0.8 0 0.8
v 0.8 0 0.8
v -0.5 0 0.6
v -0.4 0 0.6
v -0.5 0 0.5
v -0.4 0 0.5
v -0.1 0 0.5
v 0 0 0.5
v 0.4 0 0.5
v 0.5 0 0.5
v -0.1 0 0.4
v 0 0 0.4
v 0.4 0 0.4
v 0.5 0 0.4
v -0.5 0 0.1
v -0.4 0 0.1
v 0.4 0 0.1
v 0.5 0 0.1
v -0.5 0 0
v -0.4 0 0
v -0.1 0 0
v 0 0 0
v 0.4 0 0
v 0.5 0 0
v -0.1 0 -0.1
v 0 0 -0.1
v -0.4 0 -0.4
v -0.3 0 -0.4
v -0.4 0 -0.5
v -0.3 0 -0.5
v 0.3 0 -0.5
v 0.4 0 -0.5
v 0.3 0 -0.6
v 0.4 0 -0.6
v -0.8 0 -0.8
v 0.8 0 -0.8
v -0.8 1.6 0.8
v 0.8 1.6 0.8
v -0.8 1.6 -0.8
v 0.8 1.6 -0.8

# faces
f 3/1/1 2/1/1 1/1/1
f 4/1/1 2/1/1 3/1/1
f 5/1/1 3/1/1 1/1/1
f 6/1/1 3/1/1 5/1/1
f 7/3/1 4/3/1 3/3/1
f 7/1/1 3/1/1 6/1/1
f 8/1/1 2/1/1 4/1/1
f 8/3/1 4/3/1 7/3/1
f 9/3/1 6/3/1 5/3/1
f 9/1/1 5/1/1 1/1/1
f 10/1/1 7/1/1 6/1/1
f 10/3/1 6/3/1 9/3/1
f 10/1/1 8/1/1 7/1/1
f 11/1/1 10/1/1 9/1/1
f 11/1/1 8/1/1 10/1/1
f 12/1/1 8/1/1 11/1/1
f 13/1/1 11/1/1 9/1/1
f 13/3/1 12/3/1 11/3/1
f 14/1/1 8/1/1 12/1/1
f 14/3/1 12/3/1 13/3/1
f 15/1/1 2/1/1 8/1/1
f 15/1/1 8/1/1 14/1/1
f 15/1/1 14/1/1 13/1/1
f 16/1/1 2/1/1 15/1/1
f 17/1/1 15/1/1 13/1/1
f 17/3/1 16/3/1 15/3/1
f 18/1/1 2/1/1 16/1/1
f 18/3/1 16/3/1 17/3/1
f 19/1/1 13/1/1 9/1/1
f 19/1/1 17/1/1 13/1/1
f 19/1/1 18/1/1 17/1/1
f 20/1/1 18/1/1 19/1/1
f 21/1/1 9/1/1 1/1/1
f 21/1/1 19/1/1 9/1/1
f 22/1/1 19/1/1 21/1/1
f 23/1/1 19/1/1 22/1/1
f 24/1/1 19/1/1 23/1/1
f 25/3/1 20/3/1 19/3/1
f 25/1/1 19/1/1 24/1/1
f 26/1/1 18/1/1 20/1/1
f 26/3/1 20/3/1 25/3/1
f 27/1/1 18/1/1 26/1/1
f 28/1/1 18/1/1 27/1/1
f 29/1/1 23/1/1 22/1/1
f 30/2/1 24/2/1 23/2/1
f 30/1/1 23/1/1 29/1/1
f 31/1/1 25/1/1 24/1/1
f 31/2/1 24/2/1 30/2/1
f 31/1/1 26/1/1 25/1/1
f 31/1/1 27/1/1 26/1/1
f 32/1/1 27/1/1 31/1/1
f 33/1/1 27/1/1 32/1/1
f 34/1/1 27/1/1 33/1/1
f 35/1/1 18/1/1 28/1/1
f 36/1/1 18/1/1 35/1/1
f 37/1/1 2/1/1 18/1/1
f 37/1/1 18/1/1 36/1/1
f 38/1/1 2/1/1 37/1/1
f 39/2/1 30/2/1 29/2/1
f 39/2/1 31/2/1 30/2/1
f 39/2/1 32/2/1 31/2/1
f 39/1/1 33/1/1 32/1/1
f 40/1/1 33/1/1 39/1/1
f 41/1/1 33/1/1 40/1/1
f 42/2/1 34/2/1 33/2/1
f 42/1/1 33/1/1 41/1/1
f 43/1/1 27/1/1 34/1/1
f 43/2/1 34/2/1 42/2/1
f 44/1/1 27/1/1 43/1/1
f 45/2/1 36/2/1 35/2/1
f 45/1/1 37/1/1 36/1/1
f 46/2/1 38/2/1 37/2/1
f 46/1/1 37/1/1 45/1/1
f 47/1/1 29/1/1 22/1/1
f 47/2/1 22/2/1 21/2/1
f 48/2/1 39/2/1 29/2/1
f 48/1/1 29/1/1 47/1/1
f 48/2/1 40/2/1 39/2/1
f 49/1/1 41/1/1 40/1/1
f 49/2/1 40/2/1 48/2/1
f 50/2/1 42/2/1 41/2/1
f 50/1/1 41/1/1 49/1/1
f 50/2/1 44/2/1 43/2/1
f 50/2/1 43/2/1 42/2/1
f 51/1/1 27/1/1 44/1/1
f 51/2/1 44/2/1 50/2/1
f 52/2/1 28/2/1 27/2/1
f 52/1/1 27/1/1 51/1/1
f 53/1/1 35/1/1 28/1/1
f 53/2/1 28/2/1 52/2/1
f 54/2/1 46/2/1 45/2/1
f 54/1/1 35/1/1 53/1/1
f 54/2/1 45/2/1 35/2/1
f 55/2/1 50/2/1 49/2/1
f 55/2/1 53/2/1 52/2/1
f 55/2/1 54/2/1 53/2/1
f 55/2/1 52/2/1 51/2/1
f 55/2/1 47/2/1 21/2/1
f 55/2/1 48/2/1 47/2/1
f 55/2/1 51/2/1 50/2/1
f 55/2/1 49/2/1 48/2/1
f 56/2/1 46/2/1 54/2/1
f 56/2/1 54/2/1 55/2/1
f 56/2/1 38/2/1 46/2/1
f 57/1/2 58/1/2 59/1/2
f 59/1/2 58/1/2 60/1/2
f 57/1/2 59/1/2 61/1/2
f 61/1/2 59/1/2 62/1/2
f 59/3/2 60/3/2 63/3/2
f 62/1/2 59/1/2 63/1/2
f 60/1/2 58/1/2 64/1/2
f 63/3/2 60/3/2 64/3/2
f 57/1/2 61/1/2 65/1/2
f 65/1/2 61/1/2 66/1/2
f 61/3/2 62/3/2 67/3/2
f 66/1/2 61/1/2 67/1/2
f 62/1/2 63/1/2 68/1/2
f 67/3/2 62/3/2 68/3/2
f 63/1/2 64/1/2 68/1/2
f 65/3/2 66/3/2 69/3/2
f 57/1/2 65/1/2 69/1/2
f 66/1/2 67/1/2 70/1/2
f 69/3/2 66/3/2 70/3/2
f 67/1/2 68/1/2 70/1/2
f 68/1/2 64/1/2 71/1/2
f 70/1/2 68/1/2 71/1/2
f 69/1/2 70/1/2 71/1/2
f 71/1/2 64/1/2 72/1/2
f 69/1/2 71/1/2 73/1/2
f 71/3/2 72/3/2 73/3/2
f 72/1/2 64/1/2 74/1/2
f 73/3/2 72/3/2 74/3/2
f 69/1/2 73/1/2 75/1/2
f 73/1/2 74/1/2 75/1/2
f 75/1/2 74/1/2 76/1/2
f 74/1/2 64/1/2 77/1/2
f 76/1/2 74/1/2 77/1/2
f 77/1/2 64/1/2 78/1/2
f 75/3/2 76/3/2 79/3/2
f 69/1/2 75/1/2 79/1/2
f 76/1/2 77/1/2 80/1/2
f 79/3/2 76/3/2 80/3/2
f 77/3/2 78/3/2 81/3/2
f 80/1/2 77/1/2 81/1/2
f 78/1/2 64/1/2 82/1/2
f 81/3/2 78/3/2 82/3/2
f 57/1/2 69/1/2 83/1/2
f 80/1/2 81/1/2 83/1/2
f 81/1/2 82/1/2 83/1/2
f 69/1/2 79/1/2 83/1/2
f 79/1/2 80/1/2 83/1/2
f 83/1/2 82/1/2 84/1/2
f 84/1/2 82/1/2 85/1/2
f 85/1/2 82/1/2 86/1/2
f 86/1/2 82/1/2 87/1/2
f 82/1/2 64/1/2 88/1/2
f 87/1/2 82/1/2 88/1/2
f 64/1/2 58/1/2 89/1/2
f 88/1/2 64/1/2 89/1/2
f 89/1/2 58/1/2 90/1/2
f 57/1/2 83/1/2 91/1/2
f 91/1/2 83/1/2 92/1/2
f 84/1/2 85/1/2 93/1/2
f 93/1/2 85/1/2 94/1/2
f 94/1/2 85/1/2 95/1/2
f 85/2/2 86/2/2 96/2/2
f 95/1/2 85/1/2 96/1/2
f 86/1/2 87/1/2 97/1/2
f 87/2/2 88/2/2 98/2/2
f 97/1/2 87/1/2 98/1/2
f 57/1/2 91/1/2 99/1/2
f 91/2/2 92/2/2 100/2/2
f 99/1/2 91/1/2 100/1/2
f 84/1/2 93/1/2 101/1/2
f 93/2/2 94/2/2 102/2/2
f 101/1/2 93/1/2 102/1/2
f 94/1/2 95/1/2 103/1/2
f 102/2/2 94/2/2 103/2/2
f 95/2/2 96/2/2 104/2/2
f 103/1/2 95/1/2 104/1/2
f 88/1/2 89/1/2 105/1/2
f 98/2/2 88/2/2 105/2/2
f 97/2/2 98/2/2 105/2/2
f 105/1/2 89/1/2 106/1/2
f 92/1/2 83/1/2 107/1/2
f 100/2/2 92/2/2 107/2/2
f 99/2/2 100/2/2 107/2/2
f 83/2/2 84/2/2 108/2/2
f 107/1/2 83/1/2 108/1/2
f 84/1/2 101/1/2 109/1/2
f 108/2/2 84/2/2 109/2/2
f 101/2/2 102/2/2 110/2/2
f 109/1/2 101/1/2 110/1/2
f 103/2/2 104/2/2 110/2/2
f 102/2/2 103/2/2 110/2/2
f 96/2/2 86/2/2 111/2/2
f 110/2/2 104/2/2 111/2/2
f 86/1/2 97/1/2 111/1/2
f 104/2/2 96/2/2 111/2/2
f 105/2/2 106/2/2 112/2/2
f 111/1/2 97/1/2 112/1/2
f 97/2/2 105/2/2 112/2/2
f 106/1/2 89/1/2 113/1/2
f 112/2/2 106/2/2 113/2/2
f 89/2/2 90/2/2 114/2/2
f 113/1/2 89/1/2 114/1/2
f 109/2/2 110/2/2 115/2/2
f 107/2/2 108/2/2 115/2/2
f 113/2/2 114/2/2 115/2/2
f 99/2/2 107/2/2 115/2/2
f 112/2/2 113/2/2 115/2/2
f 110/2/2 111/2/2 115/2/2
f 108/2/2 109/2/2 115/2/2
f 111/2/2 112/2/2 115/2/2
f 114/2/2 90/2/2 116/2/2
f 115/2/2 114/2/2 116/2/2
f 120/1/3 118/1/3 117/1/3
f 120/2/3 119/2/3 118/2/3
f 121/2/3 119/2/3 120/2/3
f 122/1/3 120/1/3 117/1/3
f 122/1/3 121/1/3 120/1/3
f 123/1/3 121/1/3 122/1/3
f 124/2/3 119/2/3 121/2/3
f 124/1/3 121/1/3 123/1/3
f 125/2/3 119/2/3 124/2/3
f 126/1/3 122/1/3 117/1/3
f 127/1/3 122/1/3 126/1/3
f 128/3/3 123/3/3 122/3/3
f 128/1/3 122/1/3 127/1/3
f 129/1/3 124/1/3 123/1/3
f 129/3/3 123/3/3 128/3/3
f 129/1/3 125/1/3 124/1/3
f 130/1/3 125/1/3 129/1/3
f 131/2/3 119/2/3 125/2/3
f 131/1/3 125/1/3 130/1/3
f 132/3/3 127/3/3 126/3/3
f 132/1/3 126/1/3 117/1/3
f 133/1/3 130/1/3 129/1/3
f 133/3/3 127/3/3 132/3/3
f 133/1/3 128/1/3 127/1/3
f 133/1/3 129/1/3 128/1/3
f 134/1/3 130/1/3 133/1/3
f 135/1/3 130/1/3 134/1/3
f 136/2/3 131/2/3 130/2/3
f 136/1/3 130/1/3 135/1/3
f 137/2/3 131/2/3 136/2/3
f 138/3/3 135/3/3 134/3/3
f 138/1/3 133/1/3 132/1/3
f 138/1/3 134/1/3 133/1/3
f 139/1/3 137/1/3 136/1/3
f 139/3/3 135/3/3 138/3/3
f 139/1/3 136/1/3 135/1/3
f 140/1/3 137/1/3 139/1/3
f 141/2/3 131/2/3 137/2/3
f 141/1/3 137/1/3 140/1/3
f 142/1/3 140/1/3 139/1/3
f 142/1/3 139/1/3 138/1/3
f 142/2/3 141/2/3 140/2/3
f 143/2/3 119/2/3 131/2/3
f 143/2/3 141/2/3 142/2/3
f 143/2/3 131/2/3 141/2/3
f 144/1/3 142/1/3 138/1/3
f 144/1/3 143/1/3 142/1/3
f 145/2/3 119/2/3 143/2/3
f 145/1/3 143/1/3 144/1/3
f 146/1/3 144/1/3 138/1/3
f 146/1/3 138/1/3 132/1/3
f 147/1/3 144/1/3 146/1/3
f 148/1/3 144/1/3 147/1/3
f 149/2/3 145/2/3 144/2/3
f 149/1/3 144/1/3 148/1/3
f 150/1/3 146/1/3 132/1/3
f 150/3/3 147/3/3 146/3/3
f 151/1/3 148/1/3 147/1/3
f 151/3/3 147/3/3 150/3/3
f 152/1/3 148/1/3 151/1/3
f 153/1/3 148/1/3 152/1/3
f 154/2/3 149/2/3 148/2/3
f 154/1/3 148/1/3 153/1/3
f 155/2/3 119/2/3 145/2/3
f 155/2/3 149/2/3 154/2/3
f 155/2/3 145/2/3 149/2/3
f 156/1/3 152/1/3 151/1/3
f 156/3/3 153/3/3 152/3/3
f 156/1/3 151/1/3 150/1/3
f 157/1/3 154/1/3 153/1/3
f 157/3/3 153/3/3 156/3/3
f 157/1/3 155/1/3 154/1/3
f 158/1/3 155/1/3 157/1/3
f 159/2/3 119/2/3 155/2/3
f 159/1/3 155/1/3 158/1/3
f 160/1/3 158/1/3 157/1/3
f 160/1/3 157/1/3 156/1/3
f 161/2/3 159/2/3 158/2/3
f 161/1/3 158/1/3 160/1/3
f 162/1/3 156/1/3 150/1/3
f 162/1/3 132/1/3 117/1/3
f 162/1/3 150/1/3 132/1/3
f 162/1/3 160/1/3 156/1/3
f 163/1/3 160/1/3 162/1/3
f 164/2/3 161/2/3 160/2/3
f 164/1/3 160/1/3 163/1/3
f 165/2/3 159/2/3 161/2/3
f 165/2/3 161/2/3 164/2/3
f 166/3/3 163/3/3 162/3/3
f 166/1/3 162/1/3 117/1/3
f 167/1/3 164/1/3 163/1/3
f 167/3/3 163/3/3 166/3/3
f 167/1/3 165/1/3 164/1/3
f 168/2/3 159/2/3 165/2/3
f 168/1/3 165/1/3 167/1/3
f 169/2/3 119/2/3 159/2/3
f 169/2/3 159/2/3 168/2/3
f 170/1/3 167/1/3 166/1/3
f 170/1/3 168/1/3 167/1/3
f 170/1/3 169/1/3 168/1/3
f 171/1/3 169/1/3 170/1/3
f 172/1/3 169/1/3 171/1/3
f 173/2/3 119/2/3 169/2/3
f 173/1/3 169/1/3 172/1/3
f 174/1/3 170/1/3 166/1/3
f 174/3/3 171/3/3 170/3/3
f 175/1/3 172/1/3 171/1/3
f 175/3/3 171/3/3 174/3/3
f 176/2/3 173/2/3 172/2/3
f 176/1/3 172/1/3 175/1/3
f 177/2/3 173/2/3 176/2/3
f 178/1/3 166/1/3 117/1/3
f 178/1/3 174/1/3 166/1/3
f 178/1/3 177/1/3 176/1/3
f 178/1/3 176/1/3 175/1/3
f 178/1/3 175/1/3 174/1/3
f 179/2/3 173/2/3 177/2/3
f 179/1/3 177/1/3 178/1/3
f 180/2/3 119/2/3 173/2/3
f 180/2/3 173/2/3 179/2/3
f 181/1/4 182/1/4 184/1/4
f 182/2/4 183/2/4 184/2/4
f 184/2/4 183/2/4 185/2/4
f 181/1/4 184/1/4 186/1/4
f 184/1/4 185/1/4 186/1/4
f 186/1/4 185/1/4 187/1/4
f 181/1/4 186/1/4 188/1/4
f 186/3/4 187/3/4 188/3/4
f 187/1/4 185/1/4 189/1/4
f 188/3/4 187/3/4 189/3/4
f 189/1/4 185/1/4 190/1/4
f 185/2/4 183/2/4 191/2/4
f 190/1/4 185/1/4 191/1/4
f 189/1/4 190/1/4 192/1/4
f 188/1/4 189/1/4 192/1/4
f 192/1/4 190/1/4 193/1/4
f 190/2/4 191/2/4 194/2/4
f 193/1/4 190/1/4 194/1/4
f 194/2/4 191/2/4 195/2/4
f 192/3/4 193/3/4 196/3/4
f 188/1/4 192/1/4 196/1/4
f 194/1/4 195/1/4 197/1/4
f 196/3/4 193/3/4 197/3/4
f 193/1/4 194/1/4 197/1/4
f 195/2/4 191/2/4 198/2/4
f 197/1/4 195/1/4 198/1/4
f 191/2/4 183/2/4 199/2/4
f 198/2/4 191/2/4 199/2/4
f 197/1/4 198/1/4 200/1/4
f 196/1/4 197/1/4 200/1/4
f 198/1/4 199/1/4 200/1/4
f 199/2/4 183/2/4 201/2/4
f 200/1/4 199/1/4 201/1/4
f 196/1/4 200/1/4 202/1/4
f 200/2/4 201/2/4 203/2/4
f 202/1/4 200/1/4 203/1/4
f 196/1/4 202/1/4 204/1/4
f 204/1/4 202/1/4 205/1/4
f 202/2/4 203/2/4 206/2/4
f 205/1/4 202/1/4 206/1/4
f 203/2/4 201/2/4 207/2/4
f 206/2/4 203/2/4 207/2/4
f 204/3/4 205/3/4 208/3/4
f 196/1/4 204/1/4 208/1/4
f 205/1/4 206/1/4 209/1/4
f 208/3/4 205/3/4 209/3/4
f 206/1/4 207/1/4 209/1/4
f 207/2/4 201/2/4 210/2/4
f 209/1/4 207/1/4 210/1/4
f 208/1/4 209/1/4 210/1/4
f 201/2/4 183/2/4 211/2/4
f 210/2/4 201/2/4 211/2/4
f 208/1/4 210/1/4 212/1/4
f 210/1/4 211/1/4 212/1/4
f 211/2/4 183/2/4 213/2/4
f 212/1/4 211/1/4 213/1/4
f 208/1/4 212/1/4 214/1/4
f 188/1/4 196/1/4 214/1/4
f 196/1/4 208/1/4 214/1/4
f 214/1/4 212/1/4 215/1/4
f 215/1/4 212/1/4 216/1/4
f 216/1/4 212/1/4 217/1/4
f 212/2/4 213/2/4 218/2/4
f 217/1/4 212/1/4 218/1/4
f 218/2/4 213/2/4 219/2/4
f 188/1/4 214/1/4 220/1/4
f 214/3/4 215/3/4 220/3/4
f 215/1/4 216/1/4 221/1/4
f 220/3/4 215/3/4 221/3/4
f 216/3/4 217/3/4 222/3/4
f 221/1/4 216/1/4 222/1/4
f 218/1/4 219/1/4 223/1/4
f 222/3/4 217/3/4 223/3/4
f 217/1/4 218/1/4 223/1/4
f 223/1/4 219/1/4 224/1/4
f 219/2/4 213/2/4 225/2/4
f 224/1/4 219/1/4 225/1/4
f 220/1/4 221/1/4 226/1/4
f 223/1/4 224/1/4 226/1/4
f 224/2/4 225/2/4 226/2/4
f 222/1/4 223/1/4 226/1/4
f 221/1/4 222/1/4 226/1/4
f 213/2/4 183/2/4 227/2/4
f 226/2/4 225/2/4 227/2/4
f 225/2/4 213/2/4 227/2/4
f 220/1/4 226/1/4 228/1/4
f 226/1/4 227/1/4 228/1/4
f 227/2/4 183/2/4 229/2/4
f 228/1/4 227/1/4 229/1/4
f 220/1/4 228/1/4 230/1/4
f 181/1/4 188/1/4 230/1/4
f 188/1/4 220/1/4 230/1/4
f 228/2/4 229/2/4 231/2/4
f 230/1/4 228/1/4 231/1/4
f 229/2/4 183/2/4 232/2/4
f 231/2/4 229/2/4 232/2/4
f 235/1/5 234/1/5 233/1/5
f 236/1/5 234/1/5 235/1/5
f 237/1/5 235/1/5 233/1/5
f 237/3/5 236/3/5 235/3/5
f 238/1/5 234/1/5 236/1/5
f 238/3/5 236/3/5 237/3/5
f 239/1/5 234/1/5 238/1/5
f 240/1/5 234/1/5 239/1/5
f 241/1/5 234/1/5 240/1/5
f 242/1/5 234/1/5 241/1/5
f 243/1/5 238/1/5 237/1/5
f 243/1/5 239/1/5 238/1/5
f 243/3/5 240/3/5 239/3/5
f 244/1/5 241/1/5 240/1/5
f 244/3/5 240/3/5 243/3/5
f 245/3/5 242/3/5 241/3/5
f 245/1/5 241/1/5 244/1/5
f 246/1/5 234/1/5 242/1/5
f 246/3/5 242/3/5 245/3/5
f 247/1/5 237/1/5 233/1/5
f 247/1/5 245/1/5 244/1/5
f 247/1/5 246/1/5 245/1/5
f 247/1/5 243/1/5 237/1/5
f 247/1/5 244/1/5 243/1/5
f 248/1/5 246/1/5 247/1/5
f 249/1/5 246/1/5 248/1/5
f 250/1/5 234/1/5 246/1/5
f 250/1/5 246/1/5 249/1/5
f 251/1/5 247/1/5 233/1/5
f 251/3/5 248/3/5 247/3/5
f 252/1/5 249/1/5 248/1/5
f 252/3/5 248/3/5 251/3/5
f 253/1/5 249/1/5 252/1/5
f 254/1/5 249/1/5 253/1/5
f 255/3/5 250/3/5 249/3/5
f 255/1/5 249/1/5 254/1/5
f 256/1/5 234/1/5 250/1/5
f 256/3/5 250/3/5 255/3/5
f 257/3/5 254/3/5 253/3/5
f 257/1/5 252/1/5 251/1/5
f 257/1/5 253/1/5 252/1/5
f 258/1/5 255/1/5 254/1/5
f 258/3/5 254/3/5 257/3/5
f 258/1/5 256/1/5 255/1/5
f 259/1/5 257/1/5 251/1/5
f 259/1/5 258/1/5 257/1/5
f 260/1/5 258/1/5 259/1/5
f 261/1/5 259/1/5 251/1/5
f 261/3/5 260/3/5 259/3/5
f 262/1/5 258/1/5 260/1/5
f 262/3/5 260/3/5 261/3/5
f 263/1/5 256/1/5 258/1/5
f 263/1/5 258/1/5 262/1/5
f 264/1/5 256/1/5 263/1/5
f 265/1/5 262/1/5 261/1/5
f 265/1/5 263/1/5 262/1/5
f 265/3/5 264/3/5 263/3/5
f 266/1/5 256/1/5 264/1/5
f 266/3/5 264/3/5 265/3/5
f 267/1/5 251/1/5 233/1/5
f 267/1/5 265/1/5 261/1/5
f 267/1/5 266/1/5 265/1/5
f 267/1/5 261/1/5 251/1/5
f 268/1/5 256/1/5 266/1/5
f 268/1/5 266/1/5 267/1/5
f 268/1/5 234/1/5 256/1/5
f 269/2/6 270/2/6 271/2/6
f 271/2/6 270/2/6 272/2/6
