# MagicaVoxel @ Ephtracy

# group
o 

# material
mtllib Health_Monitor.vox.mtl
usemtl palette

# normals
vn -1 0 0
vn 1 0 0
vn 0 0 1
vn 0 0 -1
vn 0 -1 0
vn 0 1 0

# texcoords
vt 0.583984 0.5
vt 0.931641 0.5
vt 0.978516 0.5
vt 0.982422 0.5
vt 0.994141 0.5

# verts
v -0.6 1.8 -0.1
v -0.6 1.8 -0.2
v -0.6 1.9 0.1
v -0.6 1.9 -0.1
v -0.6 2.5 0
v -0.6 2.5 -0.2
v -0.6 2.6 0.1
v -0.6 2.6 0
v -0.5 0 0.4
v -0.5 0 0.2
v -0.5 0 -0.3
v -0.5 0 -0.5
v -0.5 0.2 0.4
v -0.5 0.2 0.2
v -0.5 0.2 -0.3
v -0.5 0.2 -0.5
v -0.5 1.8 0.2
v -0.5 1.8 0.1
v -0.5 1.8 -0.2
v -0.5 1.8 -0.3
v -0.5 1.9 0.2
v -0.5 1.9 0.1
v -0.5 2.5 0
v -0.5 2.5 -0.2
v -0.5 2.5 -0.3
v -0.5 2.6 0
v -0.5 2.6 -0.2
v -0.4 0.2 0.3
v -0.4 0.2 0.2
v -0.4 0.2 -0.3
v -0.4 0.2 -0.4
v -0.4 0.3 0.3
v -0.4 0.3 0.2
v -0.4 0.3 -0.3
v -0.4 0.3 -0.4
v -0.4 1.7 0.2
v -0.4 1.7 0.1
v -0.4 1.8 0.2
v -0.4 1.8 0.1
v -0.4 1.8 -0.1
v -0.4 1.8 -0.3
v -0.4 1.8 -0.4
v -0.4 1.9 0.1
v -0.4 1.9 0
v -0.4 1.9 -0.1
v -0.4 2.5 -0.2
v -0.4 2.5 -0.3
v -0.4 2.5 -0.4
v -0.4 2.6 -0.2
v -0.4 2.6 -0.3
v -0.3 0.2 0.2
v -0.3 0.2 0.1
v -0.3 0.2 -0.2
v -0.3 0.2 -0.3
v -0.3 0.3 0.2
v -0.3 0.3 -0.3
v -0.3 0.4 0.2
v -0.3 0.4 0.1
v -0.3 0.4 -0.2
v -0.3 0.4 -0.3
v -0.3 0.7 0.1
v -0.3 0.7 -0.2
v -0.3 1.7 0.1
v -0.3 1.8 0.1
v -0.3 1.8 -0.2
v -0.2 0.3 0.1
v -0.2 0.3 0
v -0.2 0.3 -0.1
v -0.2 0.3 -0.2
v -0.2 0.4 0.1
v -0.2 0.4 -0.2
v -0.2 0.5 0.1
v -0.2 0.5 0
v -0.2 0.5 -0.1
v -0.2 0.5 -0.2
v -0.2 0.7 0.2
v -0.2 0.7 0.1
v -0.2 0.7 -0.2
v -0.2 0.7 -0.3
v -0.2 1.7 0.2
v -0.2 1.7 0.1
v -0.2 1.8 -0.2
v -0.2 1.8 -0.3
v -0.1 0.2 0
v -0.1 0.2 -0.1
v -0.1 0.3 0
v -0.1 0.3 -0.1
v -0.1 0.5 0
v -0.1 0.5 -0.1
v -0.1 0.7 0
v -0.1 0.7 -0.1
v 0.1 0.3 0.1
v 0.1 0.3 0
v 0.1 0.3 -0.1
v 0.1 0.3 -0.2
v 0.1 0.5 0.1
v 0.1 0.5 0
v 0.1 0.5 -0.1
v 0.1 0.5 -0.2
v 0.1 0.7 0
v 0.1 0.7 -0.1
v 0.1 0.9 0
v 0.1 0.9 -0.1
v 0.2 0.2 0.2
v 0.2 0.2 0.1
v 0.2 0.2 -0.2
v 0.2 0.2 -0.3
v 0.2 0.3 0.1
v 0.2 0.3 -0.2
v 0.2 0.4 0.2
v 0.2 0.4 0.1
v 0.2 0.4 -0.2
v 0.2 0.4 -0.3
v 0.3 0 0.4
v 0.3 0 0.2
v 0.3 0 -0.3
v 0.3 0 -0.5
v 0.3 0.2 0.4
v 0.3 0.2 0.3
v 0.3 0.2 0.2
v 0.3 0.2 -0.3
v 0.3 0.2 -0.4
v 0.3 0.2 -0.5
v 0.3 0.3 0.3
v 0.3 0.3 0.2
v 0.3 0.3 -0.3
v 0.3 0.3 -0.4
v -0.3 0 0.4
v -0.3 0 0.2
v -0.3 0 -0.3
v -0.3 0 -0.5
v -0.3 0.2 0.4
v -0.3 0.2 0.3
v -0.3 0.2 0.2
v -0.3 0.2 -0.3
v -0.3 0.2 -0.4
v -0.3 0.2 -0.5
v -0.3 0.3 0.3
v -0.3 0.3 0.2
v -0.3 0.3 -0.3
v -0.3 0.3 -0.4
v -0.2 0.2 0.2
v -0.2 0.2 0.1
v -0.2 0.2 -0.2
v -0.2 0.2 -0.3
v -0.2 0.3 0.1
v -0.2 0.3 -0.2
v -0.2 0.4 0.2
v -0.2 0.4 0.1
v -0.2 0.4 -0.2
v -0.2 0.4 -0.3
v -0.1 0.3 0.1
v -0.1 0.3 0
v -0.1 0.3 -0.1
v -0.1 0.3 -0.2
v -0.1 0.5 0.1
v -0.1 0.5 0
v -0.1 0.5 -0.1
v -0.1 0.5 -0.2
v -0.1 0.7 0
v -0.1 0.7 -0.1
v -0.1 0.9 0
v -0.1 0.9 -0.1
v 0.1 0.2 0
v 0.1 0.2 -0.1
v 0.1 0.3 0
v 0.1 0.3 -0.1
v 0.1 0.5 0
v 0.1 0.5 -0.1
v 0.1 0.7 0
v 0.1 0.7 -0.1
v 0.2 0.3 0.1
v 0.2 0.3 0
v 0.2 0.3 -0.1
v 0.2 0.3 -0.2
v 0.2 0.4 0.1
v 0.2 0.4 -0.2
v 0.2 0.5 0.1
v 0.2 0.5 0
v 0.2 0.5 -0.1
v 0.2 0.5 -0.2
v 0.2 0.7 0.2
v 0.2 0.7 0.1
v 0.2 0.7 -0.2
v 0.2 0.7 -0.3
v 0.2 1.7 0.2
v 0.2 1.7 0.1
v 0.2 1.8 -0.2
v 0.2 1.8 -0.3
v 0.2 1.8 -0.4
v 0.2 2.5 -0.2
v 0.2 2.5 -0.3
v 0.2 2.5 -0.4
v 0.2 2.6 -0.2
v 0.2 2.6 -0.3
v 0.3 0.2 0.2
v 0.3 0.2 0.1
v 0.3 0.2 -0.2
v 0.3 0.2 -0.3
v 0.3 0.3 0.2
v 0.3 0.3 -0.3
v 0.3 0.4 0.2
v 0.3 0.4 0.1
v 0.3 0.4 -0.2
v 0.3 0.4 -0.3
v 0.3 0.7 0.1
v 0.3 0.7 -0.2
v 0.3 1.7 0.1
v 0.3 1.8 0.1
v 0.3 1.8 -0.2
v 0.4 0.2 0.3
v 0.4 0.2 0.2
v 0.4 0.2 -0.3
v 0.4 0.2 -0.4
v 0.4 0.3 0.3
v 0.4 0.3 0.2
v 0.4 0.3 -0.3
v 0.4 0.3 -0.4
v 0.4 1.7 0.2
v 0.4 1.7 0.1
v 0.4 1.8 0.2
v 0.4 1.8 0.1
v 0.4 1.8 0
v 0.4 1.9 0.1
v 0.4 1.9 0
v 0.5 0 0.4
v 0.5 0 0.2
v 0.5 0 -0.3
v 0.5 0 -0.5
v 0.5 0.2 0.4
v 0.5 0.2 0.2
v 0.5 0.2 -0.3
v 0.5 0.2 -0.5
v 0.5 1.8 0.2
v 0.5 1.8 0.1
v 0.5 1.8 -0.2
v 0.5 1.8 -0.3
v 0.5 1.9 0.2
v 0.5 1.9 0.1
v 0.5 2.5 0
v 0.5 2.5 -0.2
v 0.5 2.5 -0.3
v 0.5 2.6 0
v 0.5 2.6 -0.2
v 0.6 1.8 0
v 0.6 1.8 -0.2
v 0.6 1.9 0.1
v 0.6 1.9 0
v 0.6 2.5 0
v 0.6 2.5 -0.2
v 0.6 2.6 0.1
v 0.6 2.6 0
v -0.5 0 0.4
v -0.5 0.2 0.4
v -0.3 0 0.4
v -0.3 0.2 0.4
v 0.3 0 0.4
v 0.3 0.2 0.4
v 0.5 0 0.4
v 0.5 0.2 0.4
v -0.4 0.2 0.3
v -0.4 0.3 0.3
v -0.3 0.2 0.3
v -0.3 0.3 0.3
v 0.3 0.2 0.3
v 0.3 0.3 0.3
v 0.4 0.2 0.3
v 0.4 0.3 0.3
v -0.5 1.8 0.2
v -0.5 1.9 0.2
v -0.4 1.7 0.2
v -0.4 1.8 0.2
v -0.3 0.2 0.2
v -0.3 0.3 0.2
v -0.3 0.4 0.2
v -0.2 0.2 0.2
v -0.2 0.4 0.2
v -0.2 0.7 0.2
v -0.2 1.7 0.2
v -0.2 1.8 0.2
v 0.2 0.2 0.2
v 0.2 0.4 0.2
v 0.2 0.7 0.2
v 0.2 1.7 0.2
v 0.2 1.8 0.2
v 0.3 0.2 0.2
v 0.3 0.3 0.2
v 0.3 0.4 0.2
v 0.4 1.7 0.2
v 0.4 1.8 0.2
v 0.5 1.8 0.2
v 0.5 1.9 0.2
v -0.6 1.9 0.1
v -0.6 2.6 0.1
v -0.5 1.9 0.1
v -0.5 2.1 0.1
v -0.5 2.2 0.1
v -0.5 2.5 0.1
v -0.3 0.7 0.1
v -0.3 1.7 0.1
v -0.3 2 0.1
v -0.3 2.1 0.1
v -0.3 2.2 0.1
v -0.2 0.3 0.1
v -0.2 0.4 0.1
v -0.2 0.5 0.1
v -0.2 0.7 0.1
v -0.2 1.7 0.1
v -0.2 1.9 0.1
v -0.2 2 0.1
v -0.2 2.1 0.1
v -0.1 0.3 0.1
v -0.1 0.5 0.1
v -0.1 1.9 0.1
v -0.1 2 0.1
v -0.1 2.3 0.1
v 0 2 0.1
v 0 2.3 0.1
v 0 2.4 0.1
v 0.1 0.3 0.1
v 0.1 0.5 0.1
v 0.1 2.3 0.1
v 0.1 2.4 0.1
v 0.1 2.5 0.1
v 0.2 0.3 0.1
v 0.2 0.4 0.1
v 0.2 0.5 0.1
v 0.2 0.7 0.1
v 0.2 1.7 0.1
v 0.2 2.2 0.1
v 0.2 2.4 0.1
v 0.2 2.5 0.1
v 0.3 0.7 0.1
v 0.3 1.7 0.1
v 0.3 2.1 0.1
v 0.3 2.2 0.1
v 0.3 2.4 0.1
v 0.5 1.9 0.1
v 0.5 2.1 0.1
v 0.5 2.2 0.1
v 0.5 2.5 0.1
v 0.6 1.9 0.1
v 0.6 2.6 0.1
v -0.1 0.2 0
v -0.1 0.3 0
v -0.1 0.5 0
v -0.1 0.7 0
v 0.1 0.2 0
v 0.1 0.3 0
v 0.1 0.5 0
v 0.1 0.7 0
v 0.4 1.8 0
v 0.4 1.9 0
v 0.5 1.9 0
v 0.6 1.8 0
v 0.6 1.9 0
v -0.6 1.8 -0.1
v -0.6 1.9 -0.1
v -0.4 1.8 -0.1
v -0.4 1.9 -0.1
v -0.2 0.3 -0.1
v -0.2 0.5 -0.1
v -0.1 0.3 -0.1
v -0.1 0.5 -0.1
v -0.1 0.7 -0.1
v -0.1 0.9 -0.1
v 0.1 0.3 -0.1
v 0.1 0.5 -0.1
v 0.1 0.7 -0.1
v 0.1 0.9 -0.1
v 0.2 0.3 -0.1
v 0.2 0.5 -0.1
v -0.3 0.2 -0.2
v -0.3 0.4 -0.2
v -0.2 0.2 -0.2
v -0.2 0.3 -0.2
v -0.2 0.4 -0.2
v 0.2 0.2 -0.2
v 0.2 0.3 -0.2
v 0.2 0.4 -0.2
v 0.3 0.2 -0.2
v 0.3 0.4 -0.2
v -0.5 0 -0.3
v -0.5 0.2 -0.3
v -0.4 0.2 -0.3
v -0.4 0.3 -0.3
v -0.3 0 -0.3
v -0.3 0.2 -0.3
v -0.3 0.3 -0.3
v 0.3 0 -0.3
v 0.3 0.2 -0.3
v 0.3 0.3 -0.3
v 0.4 0.2 -0.3
v 0.4 0.3 -0.3
v 0.5 0 -0.3
v 0.5 0.2 -0.3
v -0.5 0 0.2
v -0.5 0.2 0.2
v -0.4 0.2 0.2
v -0.4 0.3 0.2
v -0.3 0 0.2
v -0.3 0.2 0.2
v -0.3 0.3 0.2
v 0.3 0 0.2
v 0.3 0.2 0.2
v 0.3 0.3 0.2
v 0.4 0.2 0.2
v 0.4 0.3 0.2
v 0.5 0 0.2
v 0.5 0.2 0.2
v -0.5 1.8 0.1
v -0.5 1.9 0.1
v -0.4 1.7 0.1
v -0.4 1.8 0.1
v -0.4 1.9 0.1
v -0.3 0.2 0.1
v -0.3 0.4 0.1
v -0.3 1.7 0.1
v -0.3 1.8 0.1
v -0.2 0.2 0.1
v -0.2 0.3 0.1
v -0.2 0.4 0.1
v 0.2 0.2 0.1
v 0.2 0.3 0.1
v 0.2 0.4 0.1
v 0.3 0.2 0.1
v 0.3 0.4 0.1
v 0.3 1.7 0.1
v 0.3 1.8 0.1
v 0.4 1.7 0.1
v 0.4 1.8 0.1
v 0.4 1.9 0.1
v 0.5 1.8 0.1
v 0.5 1.9 0.1
v -0.6 2.5 0
v -0.6 2.6 0
v -0.5 2.5 0
v -0.5 2.6 0
v -0.2 0.3 0
v -0.2 0.5 0
v -0.1 0.3 0
v -0.1 0.5 0
v -0.1 0.7 0
v -0.1 0.9 0
v 0.1 0.3 0
v 0.1 0.5 0
v 0.1 0.7 0
v 0.1 0.9 0
v 0.2 0.3 0
v 0.2 0.5 0
v 0.5 2.5 0
v 0.5 2.6 0
v 0.6 2.5 0
v 0.6 2.6 0
v -0.1 0.2 -0.1
v -0.1 0.3 -0.1
v -0.1 0.5 -0.1
v -0.1 0.7 -0.1
v 0.1 0.2 -0.1
v 0.1 0.3 -0.1
v 0.1 0.5 -0.1
v 0.1 0.7 -0.1
v -0.6 1.8 -0.2
v -0.6 2.5 -0.2
v -0.5 1.8 -0.2
v -0.5 2.5 -0.2
v -0.5 2.6 -0.2
v -0.4 2.5 -0.2
v -0.4 2.6 -0.2
v -0.3 0.7 -0.2
v -0.3 1.8 -0.2
v -0.2 0.3 -0.2
v -0.2 0.4 -0.2
v -0.2 0.5 -0.2
v -0.2 0.7 -0.2
v -0.2 1.8 -0.2
v -0.1 0.3 -0.2
v -0.1 0.5 -0.2
v 0.1 0.3 -0.2
v 0.1 0.5 -0.2
v 0.2 0.3 -0.2
v 0.2 0.4 -0.2
v 0.2 0.5 -0.2
v 0.2 0.7 -0.2
v 0.2 1.8 -0.2
v 0.2 2.5 -0.2
v 0.2 2.6 -0.2
v 0.3 0.7 -0.2
v 0.3 1.8 -0.2
v 0.5 1.8 -0.2
v 0.5 2.5 -0.2
v 0.5 2.6 -0.2
v 0.6 1.8 -0.2
v 0.6 2.5 -0.2
v -0.5 1.8 -0.3
v -0.5 2.5 -0.3
v -0.4 1.8 -0.3
v -0.4 2.5 -0.3
v -0.4 2.6 -0.3
v -0.3 0.2 -0.3
v -0.3 0.3 -0.3
v -0.3 0.4 -0.3
v -0.2 0.2 -0.3
v -0.2 0.4 -0.3
v -0.2 0.7 -0.3
v -0.2 1.8 -0.3
v 0.2 0.2 -0.3
v 0.2 0.4 -0.3
v 0.2 0.7 -0.3
v 0.2 1.8 -0.3
v 0.2 2.5 -0.3
v 0.2 2.6 -0.3
v 0.3 0.2 -0.3
v 0.3 0.3 -0.3
v 0.3 0.4 -0.3
v 0.5 1.8 -0.3
v 0.5 2.5 -0.3
v -0.4 0.2 -0.4
v -0.4 0.3 -0.4
v -0.4 1.8 -0.4
v -0.4 2.5 -0.4
v -0.3 0.2 -0.4
v -0.3 0.3 -0.4
v 0.2 1.8 -0.4
v 0.2 2.5 -0.4
v 0.3 0.2 -0.4
v 0.3 0.3 -0.4
v 0.4 0.2 -0.4
v 0.4 0.3 -0.4
v -0.5 0 -0.5
v -0.5 0.2 -0.5
v -0.3 0 -0.5
v -0.3 0.2 -0.5
v 0.3 0 -0.5
v 0.3 0.2 -0.5
v 0.5 0 -0.5
v 0.5 0.2 -0.5
v -0.5 0 0.4
v -0.3 0 0.4
v 0.3 0 0.4
v 0.5 0 0.4
v -0.5 0 0.2
v -0.3 0 0.2
v 0.3 0 0.2
v 0.5 0 0.2
v -0.5 0 -0.3
v -0.3 0 -0.3
v 0.3 0 -0.3
v 0.5 0 -0.3
v -0.5 0 -0.5
v -0.3 0 -0.5
v 0.3 0 -0.5
v 0.5 0 -0.5
v -0.3 0.2 0.2
v -0.2 0.2 0.2
v 0.2 0.2 0.2
v 0.3 0.2 0.2
v -0.3 0.2 0.1
v -0.2 0.2 0.1
v 0.2 0.2 0.1
v 0.3 0.2 0.1
v -0.1 0.2 0
v 0.1 0.2 0
v -0.1 0.2 -0.1
v 0.1 0.2 -0.1
v -0.3 0.2 -0.2
v -0.2 0.2 -0.2
v 0.2 0.2 -0.2
v 0.3 0.2 -0.2
v -0.3 0.2 -0.3
v -0.2 0.2 -0.3
v 0.2 0.2 -0.3
v 0.3 0.2 -0.3
v -0.2 0.3 0.1
v -0.1 0.3 0.1
v 0.1 0.3 0.1
v 0.2 0.3 0.1
v -0.2 0.3 0
v -0.1 0.3 0
v 0.1 0.3 0
v 0.2 0.3 0
v -0.2 0.3 -0.1
v -0.1 0.3 -0.1
v 0.1 0.3 -0.1
v 0.2 0.3 -0.1
v -0.2 0.3 -0.2
v -0.1 0.3 -0.2
v 0.1 0.3 -0.2
v 0.2 0.3 -0.2
v -0.2 0.7 0.2
v 0.2 0.7 0.2
v -0.3 0.7 0.1
v -0.2 0.7 0.1
v 0.2 0.7 0.1
v 0.3 0.7 0.1
v -0.1 0.7 0
v 0.1 0.7 0
v -0.1 0.7 -0.1
v 0.1 0.7 -0.1
v -0.3 0.7 -0.2
v -0.2 0.7 -0.2
v 0.2 0.7 -0.2
v 0.3 0.7 -0.2
v -0.2 0.7 -0.3
v 0.2 0.7 -0.3
v -0.1 0.9 0
v 0.1 0.9 0
v -0.1 0.9 -0.1
v 0.1 0.9 -0.1
v -0.4 1.7 0.2
v -0.2 1.7 0.2
v 0.2 1.7 0.2
v 0.4 1.7 0.2
v -0.4 1.7 0.1
v -0.3 1.7 0.1
v -0.2 1.7 0.1
v 0.2 1.7 0.1
v 0.3 1.7 0.1
v 0.4 1.7 0.1
v -0.5 1.8 0.2
v -0.4 1.8 0.2
v 0.4 1.8 0.2
v 0.5 1.8 0.2
v -0.5 1.8 0.1
v -0.4 1.8 0.1
v -0.3 1.8 0.1
v 0.3 1.8 0.1
v 0.4 1.8 0.1
v 0.5 1.8 0.1
v 0.4 1.8 0
v 0.6 1.8 0
v -0.6 1.8 -0.1
v -0.4 1.8 -0.1
v -0.6 1.8 -0.2
v -0.5 1.8 -0.2
v -0.3 1.8 -0.2
v -0.2 1.8 -0.2
v 0.2 1.8 -0.2
v 0.3 1.8 -0.2
v 0.5 1.8 -0.2
v 0.6 1.8 -0.2
v -0.5 1.8 -0.3
v -0.4 1.8 -0.3
v -0.2 1.8 -0.3
v 0.2 1.8 -0.3
v 0.5 1.8 -0.3
v -0.4 1.8 -0.4
v 0.2 1.8 -0.4
v -0.6 1.9 0.1
v -0.5 1.9 0.1
v -0.4 1.9 0.1
v 0.4 1.9 0.1
v 0.5 1.9 0.1
v 0.6 1.9 0.1
v -0.5 1.9 0
v -0.4 1.9 0
v 0.4 1.9 0
v 0.5 1.9 0
v 0.6 1.9 0
v -0.6 1.9 -0.1
v -0.4 1.9 -0.1
v -0.5 0.2 0.4
v -0.3 0.2 0.4
v 0.3 0.2 0.4
v 0.5 0.2 0.4
v -0.4 0.2 0.3
v -0.3 0.2 0.3
v 0.3 0.2 0.3
v 0.4 0.2 0.3
v -0.5 0.2 0.2
v -0.4 0.2 0.2
v 0.4 0.2 0.2
v 0.5 0.2 0.2
v -0.5 0.2 -0.3
v -0.4 0.2 -0.3
v 0.4 0.2 -0.3
v 0.5 0.2 -0.3
v -0.4 0.2 -0.4
v -0.3 0.2 -0.4
v 0.3 0.2 -0.4
v 0.4 0.2 -0.4
v -0.5 0.2 -0.5
v -0.3 0.2 -0.5
v 0.3 0.2 -0.5
v 0.5 0.2 -0.5
v -0.4 0.3 0.3
v -0.3 0.3 0.3
v 0.3 0.3 0.3
v 0.4 0.3 0.3
v -0.4 0.3 0.2
v -0.3 0.3 0.2
v 0.3 0.3 0.2
v 0.4 0.3 0.2
v -0.4 0.3 -0.3
v -0.3 0.3 -0.3
v 0.3 0.3 -0.3
v 0.4 0.3 -0.3
v -0.4 0.3 -0.4
v -0.3 0.3 -0.4
v 0.3 0.3 -0.4
v 0.4 0.3 -0.4
v -0.3 0.4 0.2
v -0.2 0.4 0.2
v 0.2 0.4 0.2
v 0.3 0.4 0.2
v -0.3 0.4 0.1
v -0.2 0.4 0.1
v 0.2 0.4 0.1
v 0.3 0.4 0.1
v -0.3 0.4 -0.2
v -0.2 0.4 -0.2
v 0.2 0.4 -0.2
v 0.3 0.4 -0.2
v -0.3 0.4 -0.3
v -0.2 0.4 -0.3
v 0.2 0.4 -0.3
v 0.3 0.4 -0.3
v -0.2 0.5 0.1
v -0.1 0.5 0.1
v 0.1 0.5 0.1
v 0.2 0.5 0.1
v -0.2 0.5 0
v -0.1 0.5 0
v 0.1 0.5 0
v 0.2 0.5 0
v -0.2 0.5 -0.1
v -0.1 0.5 -0.1
v 0.1 0.5 -0.1
v 0.2 0.5 -0.1
v -0.2 0.5 -0.2
v -0.1 0.5 -0.2
v 0.1 0.5 -0.2
v 0.2 0.5 -0.2
v -0.1 0.7 0
v 0.1 0.7 0
v -0.1 0.7 -0.1
v 0.1 0.7 -0.1
v -0.5 1.9 0.2
v 0.5 1.9 0.2
v -0.5 1.9 0.1
v -0.2 1.9 0.1
v -0.1 1.9 0.1
v 0.5 1.9 0.1
v -0.6 2.5 0
v -0.5 2.5 0
v 0.5 2.5 0
v 0.6 2.5 0
v -0.6 2.5 -0.2
v -0.5 2.5 -0.2
v -0.4 2.5 -0.2
v 0.2 2.5 -0.2
v 0.5 2.5 -0.2
v 0.6 2.5 -0.2
v -0.5 2.5 -0.3
v -0.4 2.5 -0.3
v 0.2 2.5 -0.3
v 0.5 2.5 -0.3
v -0.4 2.5 -0.4
v 0.2 2.5 -0.4
v -0.6 2.6 0.1
v 0.6 2.6 0.1
v -0.6 2.6 0
v -0.5 2.6 0
v 0.5 2.6 0
v 0.6 2.6 0
v -0.5 2.6 -0.2
v -0.4 2.6 -0.2
v 0.2 2.6 -0.2
v 0.5 2.6 -0.2
v -0.4 2.6 -0.3
v 0.2 2.6 -0.3

# faces
f 4/2/1 2/2/1 1/2/1
f 5/2/1 4/2/1 3/2/1
f 6/2/1 2/2/1 4/2/1
f 6/2/1 4/2/1 5/2/1
f 7/2/1 5/2/1 3/2/1
f 8/2/1 5/2/1 7/2/1
f 13/4/1 10/4/1 9/4/1
f 14/4/1 10/4/1 13/4/1
f 15/4/1 12/4/1 11/4/1
f 16/4/1 12/4/1 15/4/1
f 21/2/1 18/2/1 17/2/1
f 22/2/1 18/2/1 21/2/1
f 24/2/1 20/2/1 19/2/1
f 25/2/1 20/2/1 24/2/1
f 26/2/1 24/2/1 23/2/1
f 27/2/1 24/2/1 26/2/1
f 32/4/1 29/4/1 28/4/1
f 33/4/1 29/4/1 32/4/1
f 34/4/1 31/4/1 30/4/1
f 35/4/1 31/4/1 34/4/1
f 38/2/1 37/2/1 36/2/1
f 39/2/1 37/2/1 38/2/1
f 43/2/1 40/2/1 39/2/1
f 44/2/1 40/2/1 43/2/1
f 45/2/1 40/2/1 44/2/1
f 47/2/1 42/2/1 41/2/1
f 48/2/1 42/2/1 47/2/1
f 49/2/1 47/2/1 46/2/1
f 50/2/1 47/2/1 49/2/1
f 55/4/1 52/4/1 51/4/1
f 56/4/1 54/4/1 53/4/1
f 57/4/1 52/4/1 55/4/1
f 58/4/1 52/4/1 57/4/1
f 59/4/1 56/4/1 53/4/1
f 60/4/1 56/4/1 59/4/1
f 63/3/1 62/3/1 61/3/1
f 64/3/1 62/3/1 63/3/1
f 65/3/1 62/3/1 64/3/1
f 70/4/1 67/4/1 66/4/1
f 71/4/1 69/4/1 68/4/1
f 72/4/1 67/4/1 70/4/1
f 73/4/1 67/4/1 72/4/1
f 74/4/1 71/4/1 68/4/1
f 75/4/1 71/4/1 74/4/1
f 80/3/1 77/3/1 76/3/1
f 81/3/1 77/3/1 80/3/1
f 82/3/1 79/3/1 78/3/1
f 83/3/1 79/3/1 82/3/1
f 86/4/1 85/4/1 84/4/1
f 87/4/1 85/4/1 86/4/1
f 88/4/1 87/4/1 86/4/1
f 89/4/1 87/4/1 88/4/1
f 90/4/1 89/4/1 88/4/1
f 91/4/1 89/4/1 90/4/1
f 96/4/1 93/4/1 92/4/1
f 97/4/1 93/4/1 96/4/1
f 98/4/1 95/4/1 94/4/1
f 99/4/1 95/4/1 98/4/1
f 102/3/1 101/3/1 100/3/1
f 103/3/1 101/3/1 102/3/1
f 108/4/1 105/4/1 104/4/1
f 109/4/1 107/4/1 106/4/1
f 110/4/1 108/4/1 104/4/1
f 111/4/1 108/4/1 110/4/1
f 112/4/1 107/4/1 109/4/1
f 113/4/1 107/4/1 112/4/1
f 118/4/1 115/4/1 114/4/1
f 119/4/1 115/4/1 118/4/1
f 120/4/1 115/4/1 119/4/1
f 121/4/1 117/4/1 116/4/1
f 122/4/1 117/4/1 121/4/1
f 123/4/1 117/4/1 122/4/1
f 124/4/1 120/4/1 119/4/1
f 125/4/1 120/4/1 124/4/1
f 126/4/1 122/4/1 121/4/1
f 127/4/1 122/4/1 126/4/1
f 128/4/2 129/4/2 132/4/2
f 132/4/2 129/4/2 133/4/2
f 133/4/2 129/4/2 134/4/2
f 130/4/2 131/4/2 135/4/2
f 135/4/2 131/4/2 136/4/2
f 136/4/2 131/4/2 137/4/2
f 133/4/2 134/4/2 138/4/2
f 138/4/2 134/4/2 139/4/2
f 135/4/2 136/4/2 140/4/2
f 140/4/2 136/4/2 141/4/2
f 142/4/2 143/4/2 146/4/2
f 144/4/2 145/4/2 147/4/2
f 142/4/2 146/4/2 148/4/2
f 148/4/2 146/4/2 149/4/2
f 147/4/2 145/4/2 150/4/2
f 150/4/2 145/4/2 151/4/2
f 152/4/2 153/4/2 156/4/2
f 156/4/2 153/4/2 157/4/2
f 154/4/2 155/4/2 158/4/2
f 158/4/2 155/4/2 159/4/2
f 160/3/2 161/3/2 162/3/2
f 162/3/2 161/3/2 163/3/2
f 164/4/2 165/4/2 166/4/2
f 166/4/2 165/4/2 167/4/2
f 166/4/2 167/4/2 168/4/2
f 168/4/2 167/4/2 169/4/2
f 168/4/2 169/4/2 170/4/2
f 170/4/2 169/4/2 171/4/2
f 172/4/2 173/4/2 176/4/2
f 174/4/2 175/4/2 177/4/2
f 176/4/2 173/4/2 178/4/2
f 178/4/2 173/4/2 179/4/2
f 174/4/2 177/4/2 180/4/2
f 180/4/2 177/4/2 181/4/2
f 182/3/2 183/3/2 186/3/2
f 186/3/2 183/3/2 187/3/2
f 184/3/2 185/3/2 188/3/2
f 188/3/2 185/3/2 189/3/2
f 189/2/2 190/2/2 192/2/2
f 192/2/2 190/2/2 193/2/2
f 191/2/2 192/2/2 194/2/2
f 194/2/2 192/2/2 195/2/2
f 196/4/2 197/4/2 200/4/2
f 198/4/2 199/4/2 201/4/2
f 200/4/2 197/4/2 202/4/2
f 202/4/2 197/4/2 203/4/2
f 198/4/2 201/4/2 204/4/2
f 204/4/2 201/4/2 205/4/2
f 206/3/2 207/3/2 208/3/2
f 208/3/2 207/3/2 209/3/2
f 209/3/2 207/3/2 210/3/2
f 211/4/2 212/4/2 215/4/2
f 215/4/2 212/4/2 216/4/2
f 213/4/2 214/4/2 217/4/2
f 217/4/2 214/4/2 218/4/2
f 219/2/2 220/2/2 221/2/2
f 221/2/2 220/2/2 222/2/2
f 222/2/2 223/2/2 224/2/2
f 224/2/2 223/2/2 225/2/2
f 226/4/2 227/4/2 230/4/2
f 230/4/2 227/4/2 231/4/2
f 228/4/2 229/4/2 232/4/2
f 232/4/2 229/4/2 233/4/2
f 234/2/2 235/2/2 238/2/2
f 238/2/2 235/2/2 239/2/2
f 236/2/2 237/2/2 241/2/2
f 241/2/2 237/2/2 242/2/2
f 240/2/2 241/2/2 243/2/2
f 243/2/2 241/2/2 244/2/2
f 245/2/2 246/2/2 248/2/2
f 248/2/2 246/2/2 249/2/2
f 247/2/2 248/2/2 249/2/2
f 249/2/2 246/2/2 250/2/2
f 247/2/2 249/2/2 251/2/2
f 251/2/2 249/2/2 252/2/2
f 255/4/3 254/4/3 253/4/3
f 256/4/3 254/4/3 255/4/3
f 259/4/3 258/4/3 257/4/3
f 260/4/3 258/4/3 259/4/3
f 263/4/3 262/4/3 261/4/3
f 264/4/3 262/4/3 263/4/3
f 267/4/3 266/4/3 265/4/3
f 268/4/3 266/4/3 267/4/3
f 272/2/3 270/2/3 269/2/3
f 276/4/3 274/4/3 273/4/3
f 276/4/3 275/4/3 274/4/3
f 277/4/3 275/4/3 276/4/3
f 279/2/3 272/2/3 271/2/3
f 280/2/3 270/2/3 272/2/3
f 280/2/3 272/2/3 279/2/3
f 283/3/3 279/3/3 278/3/3
f 283/3/3 280/3/3 279/3/3
f 284/3/3 280/3/3 283/3/3
f 285/2/3 270/2/3 280/2/3
f 285/3/3 280/3/3 284/3/3
f 286/4/3 282/4/3 281/4/3
f 287/4/3 282/4/3 286/4/3
f 288/4/3 282/4/3 287/4/3
f 289/2/3 285/2/3 284/2/3
f 290/2/3 270/2/3 285/2/3
f 290/2/3 285/2/3 289/2/3
f 291/2/3 270/2/3 290/2/3
f 292/2/3 270/2/3 291/2/3
f 295/2/3 294/2/3 293/2/3
f 296/2/3 294/2/3 295/2/3
f 297/2/3 294/2/3 296/2/3
f 298/2/3 294/2/3 297/2/3
f 301/5/3 296/5/3 295/5/3
f 302/1/3 297/1/3 296/1/3
f 302/5/3 296/5/3 301/5/3
f 303/5/3 298/5/3 297/5/3
f 303/1/3 297/1/3 302/1/3
f 307/3/3 300/3/3 299/3/3
f 308/3/3 300/3/3 307/3/3
f 309/5/3 301/5/3 295/5/3
f 310/1/3 302/1/3 301/1/3
f 310/5/3 301/5/3 309/5/3
f 311/5/3 303/5/3 302/5/3
f 311/1/3 302/1/3 310/1/3
f 312/4/3 306/4/3 305/4/3
f 312/4/3 305/4/3 304/4/3
f 313/4/3 306/4/3 312/4/3
f 314/1/3 310/1/3 309/1/3
f 315/5/3 311/5/3 310/5/3
f 315/1/3 310/1/3 314/1/3
f 316/5/3 303/5/3 311/5/3
f 316/5/3 311/5/3 315/5/3
f 316/5/3 298/5/3 303/5/3
f 317/5/3 315/5/3 314/5/3
f 317/1/3 316/1/3 315/1/3
f 318/5/3 298/5/3 316/5/3
f 318/1/3 316/1/3 317/1/3
f 319/5/3 298/5/3 318/5/3
f 322/5/3 318/5/3 317/5/3
f 322/1/3 319/1/3 318/1/3
f 323/5/3 298/5/3 319/5/3
f 323/1/3 319/1/3 322/1/3
f 324/2/3 294/2/3 298/2/3
f 324/5/3 298/5/3 323/5/3
f 325/4/3 321/4/3 320/4/3
f 326/4/3 321/4/3 325/4/3
f 327/4/3 321/4/3 326/4/3
f 330/5/3 323/5/3 322/5/3
f 330/5/3 322/5/3 317/5/3
f 331/1/3 324/1/3 323/1/3
f 331/5/3 323/5/3 330/5/3
f 332/2/3 294/2/3 324/2/3
f 332/1/3 324/1/3 331/1/3
f 333/3/3 329/3/3 328/3/3
f 334/3/3 329/3/3 333/3/3
f 335/5/3 330/5/3 317/5/3
f 336/1/3 331/1/3 330/1/3
f 336/5/3 330/5/3 335/5/3
f 337/5/3 332/5/3 331/5/3
f 337/1/3 331/1/3 336/1/3
f 338/5/3 317/5/3 314/5/3
f 338/5/3 335/5/3 317/5/3
f 339/1/3 336/1/3 335/1/3
f 339/5/3 335/5/3 338/5/3
f 340/5/3 337/5/3 336/5/3
f 340/1/3 336/1/3 339/1/3
f 341/5/3 332/5/3 337/5/3
f 341/5/3 337/5/3 340/5/3
f 341/2/3 294/2/3 332/2/3
f 342/2/3 340/2/3 339/2/3
f 342/2/3 339/2/3 338/2/3
f 342/2/3 341/2/3 340/2/3
f 343/2/3 294/2/3 341/2/3
f 343/2/3 341/2/3 342/2/3
f 348/4/3 345/4/3 344/4/3
f 348/4/3 347/4/3 346/4/3
f 348/4/3 346/4/3 345/4/3
f 349/4/3 347/4/3 348/4/3
f 350/4/3 347/4/3 349/4/3
f 351/4/3 347/4/3 350/4/3
f 354/2/3 353/2/3 352/2/3
f 355/2/3 354/2/3 352/2/3
f 356/2/3 354/2/3 355/2/3
f 359/2/3 358/2/3 357/2/3
f 360/2/3 358/2/3 359/2/3
f 363/4/3 362/4/3 361/4/3
f 364/4/3 362/4/3 363/4/3
f 369/3/3 366/3/3 365/3/3
f 370/3/3 366/3/3 369/3/3
f 371/4/3 368/4/3 367/4/3
f 372/4/3 368/4/3 371/4/3
f 375/4/3 374/4/3 373/4/3
f 376/4/3 374/4/3 375/4/3
f 377/4/3 374/4/3 376/4/3
f 381/4/3 379/4/3 378/4/3
f 381/4/3 380/4/3 379/4/3
f 382/4/3 380/4/3 381/4/3
f 385/4/3 384/4/3 383/4/3
f 387/4/3 385/4/3 383/4/3
f 387/4/3 386/4/3 385/4/3
f 388/4/3 386/4/3 387/4/3
f 389/4/3 386/4/3 388/4/3
f 393/4/3 391/4/3 390/4/3
f 393/4/3 392/4/3 391/4/3
f 394/4/3 392/4/3 393/4/3
f 395/4/3 393/4/3 390/4/3
f 396/4/3 393/4/3 395/4/3
f 397/4/4 398/4/4 399/4/4
f 397/4/4 399/4/4 401/4/4
f 399/4/4 400/4/4 401/4/4
f 401/4/4 400/4/4 402/4/4
f 402/4/4 400/4/4 403/4/4
f 404/4/4 405/4/4 407/4/4
f 405/4/4 406/4/4 407/4/4
f 407/4/4 406/4/4 408/4/4
f 404/4/4 407/4/4 409/4/4
f 409/4/4 407/4/4 410/4/4
f 411/2/4 412/2/4 414/2/4
f 414/2/4 412/2/4 415/2/4
f 413/2/4 414/2/4 418/2/4
f 418/2/4 414/2/4 419/2/4
f 416/4/4 417/4/4 420/4/4
f 420/4/4 417/4/4 421/4/4
f 421/4/4 417/4/4 422/4/4
f 423/4/4 424/4/4 426/4/4
f 424/4/4 425/4/4 426/4/4
f 426/4/4 425/4/4 427/4/4
f 428/2/4 429/2/4 430/2/4
f 430/2/4 429/2/4 431/2/4
f 431/2/4 432/2/4 433/2/4
f 433/2/4 432/2/4 434/2/4
f 435/2/4 436/2/4 437/2/4
f 437/2/4 436/2/4 438/2/4
f 439/4/4 440/4/4 441/4/4
f 441/4/4 440/4/4 442/4/4
f 443/3/4 444/3/4 447/3/4
f 447/3/4 444/3/4 448/3/4
f 445/4/4 446/4/4 449/4/4
f 449/4/4 446/4/4 450/4/4
f 451/2/4 452/2/4 453/2/4
f 453/2/4 452/2/4 454/2/4
f 455/4/4 456/4/4 459/4/4
f 457/4/4 458/4/4 459/4/4
f 456/4/4 457/4/4 459/4/4
f 459/4/4 458/4/4 460/4/4
f 460/4/4 458/4/4 461/4/4
f 461/4/4 458/4/4 462/4/4
f 463/2/4 464/2/4 465/2/4
f 465/2/4 464/2/4 466/2/4
f 466/2/4 467/2/4 468/2/4
f 468/2/4 467/2/4 469/2/4
f 470/3/4 471/3/4 475/3/4
f 475/3/4 471/3/4 476/3/4
f 473/4/4 474/4/4 477/4/4
f 472/4/4 473/4/4 477/4/4
f 477/4/4 474/4/4 478/4/4
f 479/4/4 480/4/4 481/4/4
f 481/4/4 480/4/4 482/4/4
f 482/4/4 480/4/4 483/4/4
f 484/3/4 485/3/4 488/3/4
f 488/3/4 485/3/4 489/3/4
f 486/2/4 487/2/4 491/2/4
f 491/2/4 487/2/4 492/2/4
f 490/2/4 491/2/4 493/2/4
f 493/2/4 491/2/4 494/2/4
f 495/2/4 496/2/4 497/2/4
f 497/2/4 496/2/4 498/2/4
f 500/4/4 501/4/4 503/4/4
f 501/4/4 502/4/4 503/4/4
f 503/4/4 502/4/4 504/4/4
f 505/3/4 506/3/4 509/3/4
f 509/3/4 506/3/4 510/3/4
f 498/2/4 499/2/4 511/2/4
f 511/2/4 499/2/4 512/2/4
f 507/4/4 508/4/4 513/4/4
f 513/4/4 508/4/4 514/4/4
f 514/4/4 508/4/4 515/4/4
f 510/2/4 511/2/4 516/2/4
f 516/2/4 511/2/4 517/2/4
f 518/4/4 519/4/4 522/4/4
f 522/4/4 519/4/4 523/4/4
f 520/2/4 521/2/4 524/2/4
f 524/2/4 521/2/4 525/2/4
f 526/4/4 527/4/4 528/4/4
f 528/4/4 527/4/4 529/4/4
f 530/4/4 531/4/4 532/4/4
f 532/4/4 531/4/4 533/4/4
f 534/4/4 535/4/4 536/4/4
f 536/4/4 535/4/4 537/4/4
f 542/4/5 539/4/5 538/4/5
f 543/4/5 539/4/5 542/4/5
f 544/4/5 541/4/5 540/4/5
f 545/4/5 541/4/5 544/4/5
f 550/4/5 547/4/5 546/4/5
f 551/4/5 547/4/5 550/4/5
f 552/4/5 549/4/5 548/4/5
f 553/4/5 549/4/5 552/4/5
f 558/4/5 555/4/5 554/4/5
f 559/4/5 555/4/5 558/4/5
f 560/4/5 557/4/5 556/4/5
f 561/4/5 557/4/5 560/4/5
f 564/4/5 563/4/5 562/4/5
f 565/4/5 563/4/5 564/4/5
f 570/4/5 567/4/5 566/4/5
f 571/4/5 567/4/5 570/4/5
f 572/4/5 569/4/5 568/4/5
f 573/4/5 569/4/5 572/4/5
f 578/4/5 575/4/5 574/4/5
f 579/4/5 575/4/5 578/4/5
f 580/4/5 577/4/5 576/4/5
f 581/4/5 577/4/5 580/4/5
f 586/4/5 583/4/5 582/4/5
f 587/4/5 583/4/5 586/4/5
f 588/4/5 585/4/5 584/4/5
f 589/4/5 585/4/5 588/4/5
f 593/3/5 591/3/5 590/3/5
f 594/3/5 591/3/5 593/3/5
f 596/3/5 593/3/5 592/3/5
f 596/3/5 595/3/5 594/3/5
f 596/3/5 594/3/5 593/3/5
f 597/3/5 595/3/5 596/3/5
f 598/3/5 596/3/5 592/3/5
f 599/3/5 595/3/5 597/3/5
f 600/3/5 598/3/5 592/3/5
f 600/3/5 599/3/5 598/3/5
f 601/3/5 599/3/5 600/3/5
f 602/3/5 595/3/5 599/3/5
f 602/3/5 599/3/5 601/3/5
f 603/3/5 595/3/5 602/3/5
f 604/3/5 602/3/5 601/3/5
f 605/3/5 602/3/5 604/3/5
f 608/4/5 607/4/5 606/4/5
f 609/4/5 607/4/5 608/4/5
f 614/2/5 611/2/5 610/2/5
f 615/2/5 611/2/5 614/2/5
f 616/2/5 611/2/5 615/2/5
f 617/2/5 613/2/5 612/2/5
f 618/2/5 613/2/5 617/2/5
f 619/2/5 613/2/5 618/2/5
f 624/2/5 621/2/5 620/2/5
f 625/2/5 621/2/5 624/2/5
f 628/2/5 623/2/5 622/2/5
f 629/2/5 623/2/5 628/2/5
f 630/2/5 628/2/5 627/2/5
f 633/2/5 626/2/5 625/2/5
f 634/2/5 633/2/5 632/2/5
f 635/2/5 633/2/5 634/2/5
f 636/2/5 626/2/5 633/2/5
f 636/2/5 633/2/5 635/2/5
f 639/2/5 631/2/5 630/2/5
f 639/2/5 630/2/5 627/2/5
f 640/2/5 631/2/5 639/2/5
f 641/2/5 631/2/5 640/2/5
f 642/2/5 637/2/5 636/2/5
f 642/2/5 636/2/5 635/2/5
f 643/2/5 637/2/5 642/2/5
f 644/2/5 637/2/5 643/2/5
f 645/2/5 640/2/5 639/2/5
f 645/2/5 639/2/5 638/2/5
f 646/2/5 640/2/5 645/2/5
f 647/2/5 644/2/5 643/2/5
f 647/2/5 645/2/5 644/2/5
f 648/2/5 645/2/5 647/2/5
f 655/2/5 650/2/5 649/2/5
f 655/5/5 651/5/5 650/5/5
f 656/5/5 651/5/5 655/5/5
f 657/5/5 653/5/5 652/5/5
f 658/2/5 654/2/5 653/2/5
f 658/5/5 653/5/5 657/5/5
f 659/2/5 654/2/5 658/2/5
f 660/2/5 656/2/5 655/2/5
f 660/2/5 655/2/5 649/2/5
f 661/2/5 656/2/5 660/2/5
f 662/4/6 663/4/6 666/4/6
f 666/4/6 663/4/6 667/4/6
f 664/4/6 665/4/6 668/4/6
f 668/4/6 665/4/6 669/4/6
f 662/4/6 666/4/6 670/4/6
f 670/4/6 666/4/6 671/4/6
f 669/4/6 665/4/6 672/4/6
f 672/4/6 665/4/6 673/4/6
f 674/4/6 675/4/6 678/4/6
f 676/4/6 677/4/6 681/4/6
f 678/4/6 679/4/6 682/4/6
f 674/4/6 678/4/6 682/4/6
f 682/4/6 679/4/6 683/4/6
f 680/4/6 681/4/6 684/4/6
f 681/4/6 677/4/6 685/4/6
f 684/4/6 681/4/6 685/4/6
f 686/4/6 687/4/6 690/4/6
f 690/4/6 687/4/6 691/4/6
f 688/4/6 689/4/6 692/4/6
f 692/4/6 689/4/6 693/4/6
f 694/4/6 695/4/6 698/4/6
f 698/4/6 695/4/6 699/4/6
f 696/4/6 697/4/6 700/4/6
f 700/4/6 697/4/6 701/4/6
f 702/4/6 703/4/6 706/4/6
f 706/4/6 703/4/6 707/4/6
f 704/4/6 705/4/6 708/4/6
f 708/4/6 705/4/6 709/4/6
f 710/4/6 711/4/6 714/4/6
f 714/4/6 711/4/6 715/4/6
f 712/4/6 713/4/6 716/4/6
f 716/4/6 713/4/6 717/4/6
f 718/4/6 719/4/6 722/4/6
f 722/4/6 719/4/6 723/4/6
f 720/4/6 721/4/6 724/4/6
f 724/4/6 721/4/6 725/4/6
f 726/4/6 727/4/6 730/4/6
f 730/4/6 727/4/6 731/4/6
f 728/4/6 729/4/6 732/4/6
f 732/4/6 729/4/6 733/4/6
f 734/4/6 735/4/6 736/4/6
f 736/4/6 735/4/6 737/4/6
f 738/2/6 739/2/6 740/2/6
f 740/2/6 739/2/6 741/2/6
f 741/2/6 739/2/6 742/2/6
f 742/2/6 739/2/6 743/2/6
f 744/2/6 745/2/6 748/2/6
f 748/2/6 745/2/6 749/2/6
f 746/2/6 747/2/6 752/2/6
f 752/2/6 747/2/6 753/2/6
f 749/2/6 750/2/6 754/2/6
f 754/2/6 750/2/6 755/2/6
f 751/2/6 752/2/6 756/2/6
f 756/2/6 752/2/6 757/2/6
f 755/2/6 756/2/6 758/2/6
f 758/2/6 756/2/6 759/2/6
f 760/2/6 761/2/6 762/2/6
f 762/2/6 761/2/6 763/2/6
f 763/2/6 761/2/6 764/2/6
f 764/2/6 761/2/6 765/2/6
f 763/2/6 764/2/6 766/2/6
f 766/2/6 764/2/6 767/2/6
f 767/2/6 764/2/6 768/2/6
f 768/2/6 764/2/6 769/2/6
f 767/2/6 768/2/6 770/2/6
f 770/2/6 768/2/6 771/2/6
