# MagicaVoxel @ Ephtracy

# group
o 

# material
mtllib IV_Drip.vox.mtl
usemtl palette

# normals
vn -1 0 0
vn 1 0 0
vn 0 0 1
vn 0 0 -1
vn 0 -1 0
vn 0 1 0

# texcoords
vt 0.689453 0.5
vt 0.923828 0.5
vt 0.978516 0.5
vt 0.982422 0.5

# verts
v -0.5 0 0.4
v -0.5 0 0.2
v -0.5 0 -0.3
v -0.5 0 -0.5
v -0.5 0.2 0.4
v -0.5 0.2 0.2
v -0.5 0.2 -0.3
v -0.5 0.2 -0.5
v -0.4 0.2 0.3
v -0.4 0.2 0.2
v -0.4 0.2 -0.3
v -0.4 0.2 -0.4
v -0.4 0.3 0.3
v -0.4 0.3 0.2
v -0.4 0.3 -0.3
v -0.4 0.3 -0.4
v -0.4 2.1 0.5
v -0.4 2.1 0.3
v -0.4 2.4 0.5
v -0.4 2.4 0.3
v -0.3 0.2 0.2
v -0.3 0.2 0.1
v -0.3 0.2 -0.2
v -0.3 0.2 -0.3
v -0.3 0.3 0.2
v -0.3 0.3 -0.3
v -0.3 0.4 0.2
v -0.3 0.4 0.1
v -0.3 0.4 -0.2
v -0.3 0.4 -0.3
v -0.3 2 0.5
v -0.3 2 0.3
v -0.3 2.1 0.6
v -0.3 2.1 0.5
v -0.3 2.1 0.3
v -0.3 2.4 0.6
v -0.3 2.4 0.5
v -0.3 2.4 0.4
v -0.3 2.6 0.5
v -0.3 2.6 0.4
v -0.2 0.3 0.1
v -0.2 0.3 0
v -0.2 0.3 -0.1
v -0.2 0.3 -0.2
v -0.2 0.4 0.1
v -0.2 0.4 -0.2
v -0.2 0.5 0.1
v -0.2 0.5 0
v -0.2 0.5 -0.1
v -0.2 0.5 -0.2
v -0.2 2 0.6
v -0.2 2 0.5
v -0.2 2.1 0.6
v -0.2 2.1 0.5
v -0.2 2.4 0.6
v -0.2 2.4 0.5
v -0.2 2.4 0.4
v -0.2 2.4 0.3
v -0.2 2.5 0.6
v -0.2 2.5 0.5
v -0.2 2.5 0.4
v -0.2 2.5 0.3
v -0.2 2.6 0.5
v -0.2 2.6 0.4
v -0.2 2.7 0.5
v -0.2 2.7 0.4
v -0.1 0.2 0
v -0.1 0.2 -0.1
v -0.1 0.3 0
v -0.1 0.3 -0.1
v -0.1 0.5 0
v -0.1 0.5 -0.1
v -0.1 1.1 0
v -0.1 1.1 -0.1
v -0.1 1.9 0.6
v -0.1 1.9 0.4
v -0.1 2 0.6
v -0.1 2 0.4
v -0.1 2.1 0.3
v -0.1 2.1 0.2
v -0.1 2.4 0.1
v -0.1 2.4 0
v -0.1 2.4 -0.1
v -0.1 2.5 0.6
v -0.1 2.5 0.5
v -0.1 2.5 0.4
v -0.1 2.5 0.3
v -0.1 2.5 0.2
v -0.1 2.6 0.6
v -0.1 2.6 0.5
v -0.1 2.6 0.4
v -0.1 2.6 0.3
v -0.1 2.7 0.5
v -0.1 2.7 0.4
v -0.1 2.7 0.2
v -0.1 2.7 0.1
v -0.1 2.7 0
v -0.1 2.9 0.7
v -0.1 2.9 0.5
v -0.1 2.9 0.4
v -0.1 2.9 0.2
v -0.1 2.9 0.1
v -0.1 3 0.7
v -0.1 3 0.2
v 0.1 0.3 0.1
v 0.1 0.3 0
v 0.1 0.3 -0.1
v 0.1 0.3 -0.2
v 0.1 0.5 0.1
v 0.1 0.5 0
v 0.1 0.5 -0.1
v 0.1 0.5 -0.2
v 0.1 2 0.6
v 0.1 2 0.5
v 0.1 2.1 0.6
v 0.1 2.1 0.5
v 0.1 2.3 0.5
v 0.1 2.3 0.4
v 0.1 2.4 0.6
v 0.1 2.4 0.5
v 0.1 2.4 0.4
v 0.1 2.4 0.3
v 0.1 2.5 0.6
v 0.1 2.5 0.5
v 0.1 2.5 0.4
v 0.1 2.5 0.3
v 0.1 2.6 0.5
v 0.1 2.6 0.4
v 0.2 0.2 0.2
v 0.2 0.2 0.1
v 0.2 0.2 -0.2
v 0.2 0.2 -0.3
v 0.2 0.3 0.1
v 0.2 0.3 -0.2
v 0.2 0.4 0.2
v 0.2 0.4 0.1
v 0.2 0.4 -0.2
v 0.2 0.4 -0.3
v 0.2 2.1 0.6
v 0.2 2.1 0.5
v 0.2 2.4 0.6
v 0.2 2.4 0.5
v 0.2 2.4 0.4
v 0.2 2.5 0.5
v 0.2 2.5 0.4
v 0.3 0 0.4
v 0.3 0 0.2
v 0.3 0 -0.3
v 0.3 0 -0.5
v 0.3 0.2 0.4
v 0.3 0.2 0.3
v 0.3 0.2 0.2
v 0.3 0.2 -0.3
v 0.3 0.2 -0.4
v 0.3 0.2 -0.5
v 0.3 0.3 0.3
v 0.3 0.3 0.2
v 0.3 0.3 -0.3
v 0.3 0.3 -0.4
v -0.3 0 0.4
v -0.3 0 0.2
v -0.3 0 -0.3
v -0.3 0 -0.5
v -0.3 0.2 0.4
v -0.3 0.2 0.3
v -0.3 0.2 0.2
v -0.3 0.2 -0.3
v -0.3 0.2 -0.4
v -0.3 0.2 -0.5
v -0.3 0.3 0.3
v -0.3 0.3 0.2
v -0.3 0.3 -0.3
v -0.3 0.3 -0.4
v -0.2 0.2 0.2
v -0.2 0.2 0.1
v -0.2 0.2 -0.2
v -0.2 0.2 -0.3
v -0.2 0.3 0.1
v -0.2 0.3 -0.2
v -0.2 0.4 0.2
v -0.2 0.4 0.1
v -0.2 0.4 -0.2
v -0.2 0.4 -0.3
v -0.2 2.1 0.6
v -0.2 2.1 0.5
v -0.2 2.4 0.6
v -0.2 2.4 0.5
v -0.2 2.4 0.4
v -0.2 2.5 0.5
v -0.2 2.5 0.4
v -0.1 0.3 0.1
v -0.1 0.3 0
v -0.1 0.3 -0.1
v -0.1 0.3 -0.2
v -0.1 0.5 0.1
v -0.1 0.5 0
v -0.1 0.5 -0.1
v -0.1 0.5 -0.2
v -0.1 2 0.6
v -0.1 2 0.5
v -0.1 2.1 0.6
v -0.1 2.1 0.5
v -0.1 2.3 0.5
v -0.1 2.3 0.4
v -0.1 2.4 0.6
v -0.1 2.4 0.5
v -0.1 2.4 0.4
v -0.1 2.4 0.3
v -0.1 2.5 0.6
v -0.1 2.5 0.5
v -0.1 2.5 0.4
v -0.1 2.5 0.3
v -0.1 2.6 0.5
v -0.1 2.6 0.4
v 0.1 0.2 0
v 0.1 0.2 -0.1
v 0.1 0.3 0
v 0.1 0.3 -0.1
v 0.1 0.5 0
v 0.1 0.5 -0.1
v 0.1 1.1 0
v 0.1 1.1 -0.1
v 0.1 1.9 0.6
v 0.1 1.9 0.4
v 0.1 2 0.6
v 0.1 2 0.4
v 0.1 2.1 0.3
v 0.1 2.1 0.2
v 0.1 2.4 0.1
v 0.1 2.4 0
v 0.1 2.4 -0.1
v 0.1 2.5 0.6
v 0.1 2.5 0.5
v 0.1 2.5 0.4
v 0.1 2.5 0.3
v 0.1 2.5 0.2
v 0.1 2.6 0.6
v 0.1 2.6 0.5
v 0.1 2.6 0.4
v 0.1 2.6 0.3
v 0.1 2.7 0.5
v 0.1 2.7 0.4
v 0.1 2.7 0.2
v 0.1 2.7 0.1
v 0.1 2.7 0
v 0.1 2.9 0.7
v 0.1 2.9 0.5
v 0.1 2.9 0.4
v 0.1 2.9 0.2
v 0.1 2.9 0.1
v 0.1 3 0.7
v 0.1 3 0.2
v 0.2 0.3 0.1
v 0.2 0.3 0
v 0.2 0.3 -0.1
v 0.2 0.3 -0.2
v 0.2 0.4 0.1
v 0.2 0.4 -0.2
v 0.2 0.5 0.1
v 0.2 0.5 0
v 0.2 0.5 -0.1
v 0.2 0.5 -0.2
v 0.2 2 0.6
v 0.2 2 0.5
v 0.2 2.1 0.6
v 0.2 2.1 0.5
v 0.2 2.4 0.6
v 0.2 2.4 0.5
v 0.2 2.4 0.4
v 0.2 2.4 0.3
v 0.2 2.5 0.6
v 0.2 2.5 0.5
v 0.2 2.5 0.4
v 0.2 2.5 0.3
v 0.2 2.6 0.5
v 0.2 2.6 0.4
v 0.2 2.7 0.5
v 0.2 2.7 0.4
v 0.3 0.2 0.2
v 0.3 0.2 0.1
v 0.3 0.2 -0.2
v 0.3 0.2 -0.3
v 0.3 0.3 0.2
v 0.3 0.3 -0.3
v 0.3 0.4 0.2
v 0.3 0.4 0.1
v 0.3 0.4 -0.2
v 0.3 0.4 -0.3
v 0.3 2 0.5
v 0.3 2 0.3
v 0.3 2.1 0.6
v 0.3 2.1 0.5
v 0.3 2.1 0.3
v 0.3 2.4 0.6
v 0.3 2.4 0.5
v 0.3 2.4 0.4
v 0.3 2.6 0.5
v 0.3 2.6 0.4
v 0.4 0.2 0.3
v 0.4 0.2 0.2
v 0.4 0.2 -0.3
v 0.4 0.2 -0.4
v 0.4 0.3 0.3
v 0.4 0.3 0.2
v 0.4 0.3 -0.3
v 0.4 0.3 -0.4
v 0.4 2.1 0.5
v 0.4 2.1 0.3
v 0.4 2.4 0.5
v 0.4 2.4 0.3
v 0.5 0 0.4
v 0.5 0 0.2
v 0.5 0 -0.3
v 0.5 0 -0.5
v 0.5 0.2 0.4
v 0.5 0.2 0.2
v 0.5 0.2 -0.3
v 0.5 0.2 -0.5
v -0.1 2.9 0.7
v -0.1 3 0.7
v 0.1 2.9 0.7
v 0.1 3 0.7
v -0.3 2.1 0.6
v -0.3 2.4 0.6
v -0.2 2 0.6
v -0.2 2.1 0.6
v -0.2 2.4 0.6
v -0.2 2.5 0.6
v -0.1 1.9 0.6
v -0.1 2 0.6
v -0.1 2.1 0.6
v -0.1 2.4 0.6
v -0.1 2.5 0.6
v -0.1 2.6 0.6
v 0.1 1.9 0.6
v 0.1 2 0.6
v 0.1 2.1 0.6
v 0.1 2.4 0.6
v 0.1 2.5 0.6
v 0.1 2.6 0.6
v 0.2 2 0.6
v 0.2 2.1 0.6
v 0.2 2.4 0.6
v 0.2 2.5 0.6
v 0.3 2.1 0.6
v 0.3 2.4 0.6
v -0.4 2.1 0.5
v -0.4 2.4 0.5
v -0.3 2 0.5
v -0.3 2.1 0.5
v -0.3 2.4 0.5
v -0.3 2.6 0.5
v -0.2 2 0.5
v -0.2 2.1 0.5
v -0.2 2.4 0.5
v -0.2 2.5 0.5
v -0.2 2.6 0.5
v -0.2 2.7 0.5
v -0.1 2 0.5
v -0.1 2.1 0.5
v -0.1 2.3 0.5
v -0.1 2.4 0.5
v -0.1 2.5 0.5
v -0.1 2.6 0.5
v -0.1 2.7 0.5
v -0.1 2.9 0.5
v 0.1 2 0.5
v 0.1 2.1 0.5
v 0.1 2.3 0.5
v 0.1 2.4 0.5
v 0.1 2.5 0.5
v 0.1 2.6 0.5
v 0.1 2.7 0.5
v 0.1 2.9 0.5
v 0.2 2 0.5
v 0.2 2.1 0.5
v 0.2 2.4 0.5
v 0.2 2.5 0.5
v 0.2 2.6 0.5
v 0.2 2.7 0.5
v 0.3 2 0.5
v 0.3 2.1 0.5
v 0.3 2.4 0.5
v 0.3 2.6 0.5
v 0.4 2.1 0.5
v 0.4 2.4 0.5
v -0.5 0 0.4
v -0.5 0.2 0.4
v -0.3 0 0.4
v -0.3 0.2 0.4
v -0.2 2.4 0.4
v -0.2 2.5 0.4
v -0.1 2.3 0.4
v -0.1 2.4 0.4
v -0.1 2.5 0.4
v -0.1 2.6 0.4
v 0.1 2.3 0.4
v 0.1 2.4 0.4
v 0.1 2.5 0.4
v 0.1 2.6 0.4
v 0.2 2.4 0.4
v 0.2 2.5 0.4
v 0.3 0 0.4
v 0.3 0.2 0.4
v 0.5 0 0.4
v 0.5 0.2 0.4
v -0.4 0.2 0.3
v -0.4 0.3 0.3
v -0.3 0.2 0.3
v -0.3 0.3 0.3
v -0.1 2.4 0.3
v -0.1 2.5 0.3
v 0.1 2.4 0.3
v 0.1 2.5 0.3
v 0.3 0.2 0.3
v 0.3 0.3 0.3
v 0.4 0.2 0.3
v 0.4 0.3 0.3
v -0.3 0.2 0.2
v -0.3 0.3 0.2
v -0.3 0.4 0.2
v -0.2 0.2 0.2
v -0.2 0.4 0.2
v -0.1 2.7 0.2
v -0.1 2.9 0.2
v 0.1 2.7 0.2
v 0.1 2.9 0.2
v 0.2 0.2 0.2
v 0.2 0.4 0.2
v 0.3 0.2 0.2
v 0.3 0.3 0.2
v 0.3 0.4 0.2
v -0.2 0.3 0.1
v -0.2 0.4 0.1
v -0.2 0.5 0.1
v -0.1 0.3 0.1
v -0.1 0.5 0.1
v -0.1 2.4 0.1
v -0.1 2.7 0.1
v 0.1 0.3 0.1
v 0.1 0.5 0.1
v 0.1 2.4 0.1
v 0.1 2.7 0.1
v 0.2 0.3 0.1
v 0.2 0.4 0.1
v 0.2 0.5 0.1
v -0.1 0.2 0
v -0.1 0.3 0
v -0.1 0.5 0
v -0.1 1.1 0
v -0.1 2.4 0
v 0.1 0.2 0
v 0.1 0.3 0
v 0.1 0.5 0
v 0.1 1.1 0
v 0.1 2.4 0
v -0.2 0.3 -0.1
v -0.2 0.5 -0.1
v -0.1 0.3 -0.1
v -0.1 0.5 -0.1
v 0.1 0.3 -0.1
v 0.1 0.5 -0.1
v 0.2 0.3 -0.1
v 0.2 0.5 -0.1
v -0.3 0.2 -0.2
v -0.3 0.4 -0.2
v -0.2 0.2 -0.2
v -0.2 0.3 -0.2
v -0.2 0.4 -0.2
v 0.2 0.2 -0.2
v 0.2 0.3 -0.2
v 0.2 0.4 -0.2
v 0.3 0.2 -0.2
v 0.3 0.4 -0.2
v -0.5 0 -0.3
v -0.5 0.2 -0.3
v -0.4 0.2 -0.3
v -0.4 0.3 -0.3
v -0.3 0 -0.3
v -0.3 0.2 -0.3
v -0.3 0.3 -0.3
v 0.3 0 -0.3
v 0.3 0.2 -0.3
v 0.3 0.3 -0.3
v 0.4 0.2 -0.3
v 0.4 0.3 -0.3
v 0.5 0 -0.3
v 0.5 0.2 -0.3
v -0.2 2.4 0.5
v -0.2 2.5 0.5
v -0.1 2.4 0.5
v -0.1 2.5 0.5
v -0.1 2.6 0.5
v 0.1 2.4 0.5
v 0.1 2.5 0.5
v 0.1 2.6 0.5
v 0.2 2.4 0.5
v 0.2 2.5 0.5
v -0.3 2.4 0.4
v -0.3 2.6 0.4
v -0.2 2.4 0.4
v -0.2 2.5 0.4
v -0.2 2.6 0.4
v -0.2 2.7 0.4
v -0.1 1.9 0.4
v -0.1 2 0.4
v -0.1 2.5 0.4
v -0.1 2.6 0.4
v -0.1 2.7 0.4
v -0.1 2.9 0.4
v 0.1 1.9 0.4
v 0.1 2 0.4
v 0.1 2.5 0.4
v 0.1 2.6 0.4
v 0.1 2.7 0.4
v 0.1 2.9 0.4
v 0.2 2.4 0.4
v 0.2 2.5 0.4
v 0.2 2.6 0.4
v 0.2 2.7 0.4
v 0.3 2.4 0.4
v 0.3 2.6 0.4
v -0.4 2.1 0.3
v -0.4 2.4 0.3
v -0.3 2 0.3
v -0.3 2.1 0.3
v -0.2 2.4 0.3
v -0.2 2.5 0.3
v -0.1 2.1 0.3
v -0.1 2.5 0.3
v -0.1 2.6 0.3
v 0.1 2.1 0.3
v 0.1 2.5 0.3
v 0.1 2.6 0.3
v 0.2 2.4 0.3
v 0.2 2.5 0.3
v 0.3 2 0.3
v 0.3 2.1 0.3
v 0.4 2.1 0.3
v 0.4 2.4 0.3
v -0.5 0 0.2
v -0.5 0.2 0.2
v -0.4 0.2 0.2
v -0.4 0.3 0.2
v -0.3 0 0.2
v -0.3 0.2 0.2
v -0.3 0.3 0.2
v -0.1 2.1 0.2
v -0.1 2.5 0.2
v -0.1 2.9 0.2
v -0.1 3 0.2
v 0.1 2.1 0.2
v 0.1 2.5 0.2
v 0.1 2.9 0.2
v 0.1 3 0.2
v 0.3 0 0.2
v 0.3 0.2 0.2
v 0.3 0.3 0.2
v 0.4 0.2 0.2
v 0.4 0.3 0.2
v 0.5 0 0.2
v 0.5 0.2 0.2
v -0.3 0.2 0.1
v -0.3 0.4 0.1
v -0.2 0.2 0.1
v -0.2 0.3 0.1
v -0.2 0.4 0.1
v -0.1 2.7 0.1
v -0.1 2.9 0.1
v 0.1 2.7 0.1
v 0.1 2.9 0.1
v 0.2 0.2 0.1
v 0.2 0.3 0.1
v 0.2 0.4 0.1
v 0.3 0.2 0.1
v 0.3 0.4 0.1
v -0.2 0.3 0
v -0.2 0.5 0
v -0.1 0.3 0
v -0.1 0.5 0
v -0.1 2.4 0
v -0.1 2.7 0
v 0.1 0.3 0
v 0.1 0.5 0
v 0.1 2.4 0
v 0.1 2.7 0
v 0.2 0.3 0
v 0.2 0.5 0
v -0.1 0.2 -0.1
v -0.1 0.3 -0.1
v -0.1 0.5 -0.1
v -0.1 1.1 -0.1
v -0.1 2.4 -0.1
v 0.1 0.2 -0.1
v 0.1 0.3 -0.1
v 0.1 0.5 -0.1
v 0.1 1.1 -0.1
v 0.1 2.4 -0.1
v -0.2 0.3 -0.2
v -0.2 0.4 -0.2
v -0.2 0.5 -0.2
v -0.1 0.3 -0.2
v -0.1 0.5 -0.2
v 0.1 0.3 -0.2
v 0.1 0.5 -0.2
v 0.2 0.3 -0.2
v 0.2 0.4 -0.2
v 0.2 0.5 -0.2
v -0.3 0.2 -0.3
v -0.3 0.3 -0.3
v -0.3 0.4 -0.3
v -0.2 0.2 -0.3
v -0.2 0.4 -0.3
v 0.2 0.2 -0.3
v 0.2 0.4 -0.3
v 0.3 0.2 -0.3
v 0.3 0.3 -0.3
v 0.3 0.4 -0.3
v -0.4 0.2 -0.4
v -0.4 0.3 -0.4
v -0.3 0.2 -0.4
v -0.3 0.3 -0.4
v 0.3 0.2 -0.4
v 0.3 0.3 -0.4
v 0.4 0.2 -0.4
v 0.4 0.3 -0.4
v -0.5 0 -0.5
v -0.5 0.2 -0.5
v -0.3 0 -0.5
v -0.3 0.2 -0.5
v 0.3 0 -0.5
v 0.3 0.2 -0.5
v 0.5 0 -0.5
v 0.5 0.2 -0.5
v -0.5 0 0.4
v -0.3 0 0.4
v 0.3 0 0.4
v 0.5 0 0.4
v -0.5 0 0.2
v -0.3 0 0.2
v 0.3 0 0.2
v 0.5 0 0.2
v -0.5 0 -0.3
v -0.3 0 -0.3
v 0.3 0 -0.3
v 0.5 0 -0.3
v -0.5 0 -0.5
v -0.3 0 -0.5
v 0.3 0 -0.5
v 0.5 0 -0.5
v -0.3 0.2 0.2
v -0.2 0.2 0.2
v 0.2 0.2 0.2
v 0.3 0.2 0.2
v -0.3 0.2 0.1
v -0.2 0.2 0.1
v 0.2 0.2 0.1
v 0.3 0.2 0.1
v -0.1 0.2 0
v 0.1 0.2 0
v -0.1 0.2 -0.1
v 0.1 0.2 -0.1
v -0.3 0.2 -0.2
v -0.2 0.2 -0.2
v 0.2 0.2 -0.2
v 0.3 0.2 -0.2
v -0.3 0.2 -0.3
v -0.2 0.2 -0.3
v 0.2 0.2 -0.3
v 0.3 0.2 -0.3
v -0.2 0.3 0.1
v -0.1 0.3 0.1
v 0.1 0.3 0.1
v 0.2 0.3 0.1
v -0.2 0.3 0
v -0.1 0.3 0
v 0.1 0.3 0
v 0.2 0.3 0
v -0.2 0.3 -0.1
v -0.1 0.3 -0.1
v 0.1 0.3 -0.1
v 0.2 0.3 -0.1
v -0.2 0.3 -0.2
v -0.1 0.3 -0.2
v 0.1 0.3 -0.2
v 0.2 0.3 -0.2
v -0.1 1.9 0.6
v 0.1 1.9 0.6
v -0.1 1.9 0.4
v 0.1 1.9 0.4
v -0.2 2 0.6
v -0.1 2 0.6
v 0.1 2 0.6
v 0.2 2 0.6
v -0.3 2 0.5
v -0.2 2 0.5
v 0.2 2 0.5
v 0.3 2 0.5
v -0.1 2 0.4
v 0.1 2 0.4
v -0.3 2 0.3
v 0.3 2 0.3
v -0.3 2.1 0.6
v -0.2 2.1 0.6
v 0.2 2.1 0.6
v 0.3 2.1 0.6
v -0.4 2.1 0.5
v -0.3 2.1 0.5
v -0.2 2.1 0.5
v 0.2 2.1 0.5
v 0.3 2.1 0.5
v 0.4 2.1 0.5
v -0.4 2.1 0.3
v -0.3 2.1 0.3
v -0.1 2.1 0.3
v 0.1 2.1 0.3
v 0.3 2.1 0.3
v 0.4 2.1 0.3
v -0.1 2.1 0.2
v 0.1 2.1 0.2
v -0.2 2.4 0.6
v -0.1 2.4 0.6
v 0.1 2.4 0.6
v 0.2 2.4 0.6
v -0.2 2.4 0.5
v -0.1 2.4 0.5
v 0.1 2.4 0.5
v 0.2 2.4 0.5
v -0.1 2.4 0.1
v 0.1 2.4 0.1
v -0.1 2.4 0
v 0.1 2.4 0
v -0.1 2.5 0.6
v 0.1 2.5 0.6
v -0.2 2.5 0.5
v -0.1 2.5 0.5
v 0.1 2.5 0.5
v 0.2 2.5 0.5
v -0.2 2.5 0.4
v -0.1 2.5 0.4
v 0.1 2.5 0.4
v 0.2 2.5 0.4
v -0.1 2.5 0.3
v 0.1 2.5 0.3
v -0.1 2.6 0.5
v 0.1 2.6 0.5
v -0.1 2.6 0.4
v 0.1 2.6 0.4
v -0.1 2.7 0.2
v 0.1 2.7 0.2
v -0.1 2.7 0.1
v 0.1 2.7 0.1
v -0.1 2.9 0.7
v 0.1 2.9 0.7
v -0.1 2.9 0.5
v 0.1 2.9 0.5
v -0.1 2.9 0.4
v 0.1 2.9 0.4
v -0.1 2.9 0.2
v 0.1 2.9 0.2
v -0.5 0.2 0.4
v -0.3 0.2 0.4
v 0.3 0.2 0.4
v 0.5 0.2 0.4
v -0.4 0.2 0.3
v -0.3 0.2 0.3
v 0.3 0.2 0.3
v 0.4 0.2 0.3
v -0.5 0.2 0.2
v -0.4 0.2 0.2
v 0.4 0.2 0.2
v 0.5 0.2 0.2
v -0.5 0.2 -0.3
v -0.4 0.2 -0.3
v 0.4 0.2 -0.3
v 0.5 0.2 -0.3
v -0.4 0.2 -0.4
v -0.3 0.2 -0.4
v 0.3 0.2 -0.4
v 0.4 0.2 -0.4
v -0.5 0.2 -0.5
v -0.3 0.2 -0.5
v 0.3 0.2 -0.5
v 0.5 0.2 -0.5
v -0.4 0.3 0.3
v -0.3 0.3 0.3
v 0.3 0.3 0.3
v 0.4 0.3 0.3
v -0.4 0.3 0.2
v -0.3 0.3 0.2
v 0.3 0.3 0.2
v 0.4 0.3 0.2
v -0.4 0.3 -0.3
v -0.3 0.3 -0.3
v 0.3 0.3 -0.3
v 0.4 0.3 -0.3
v -0.4 0.3 -0.4
v -0.3 0.3 -0.4
v 0.3 0.3 -0.4
v 0.4 0.3 -0.4
v -0.3 0.4 0.2
v -0.2 0.4 0.2
v 0.2 0.4 0.2
v 0.3 0.4 0.2
v -0.3 0.4 0.1
v -0.2 0.4 0.1
v 0.2 0.4 0.1
v 0.3 0.4 0.1
v -0.3 0.4 -0.2
v -0.2 0.4 -0.2
v 0.2 0.4 -0.2
v 0.3 0.4 -0.2
v -0.3 0.4 -0.3
v -0.2 0.4 -0.3
v 0.2 0.4 -0.3
v 0.3 0.4 -0.3
v -0.2 0.5 0.1
v -0.1 0.5 0.1
v 0.1 0.5 0.1
v 0.2 0.5 0.1
v -0.2 0.5 0
v -0.1 0.5 0
v 0.1 0.5 0
v 0.2 0.5 0
v -0.2 0.5 -0.1
v -0.1 0.5 -0.1
v 0.1 0.5 -0.1
v 0.2 0.5 -0.1
v -0.2 0.5 -0.2
v -0.1 0.5 -0.2
v 0.1 0.5 -0.2
v 0.2 0.5 -0.2
v -0.1 2 0.6
v 0.1 2 0.6
v -0.1 2 0.5
v 0.1 2 0.5
v -0.2 2.1 0.6
v -0.1 2.1 0.6
v 0.1 2.1 0.6
v 0.2 2.1 0.6
v -0.2 2.1 0.5
v -0.1 2.1 0.5
v 0.1 2.1 0.5
v 0.2 2.1 0.5
v -0.1 2.3 0.5
v 0.1 2.3 0.5
v -0.1 2.3 0.4
v 0.1 2.3 0.4
v -0.3 2.4 0.6
v -0.2 2.4 0.6
v 0.2 2.4 0.6
v 0.3 2.4 0.6
v -0.4 2.4 0.5
v -0.3 2.4 0.5
v -0.2 2.4 0.5
v -0.1 2.4 0.5
v 0.1 2.4 0.5
v 0.2 2.4 0.5
v 0.3 2.4 0.5
v 0.4 2.4 0.5
v -0.3 2.4 0.4
v -0.2 2.4 0.4
v -0.1 2.4 0.4
v 0.1 2.4 0.4
v 0.2 2.4 0.4
v 0.3 2.4 0.4
v -0.4 2.4 0.3
v -0.2 2.4 0.3
v -0.1 2.4 0.3
v 0.1 2.4 0.3
v 0.2 2.4 0.3
v 0.4 2.4 0.3
v -0.1 2.4 0
v 0.1 2.4 0
v -0.1 2.4 -0.1
v 0.1 2.4 -0.1
v -0.2 2.5 0.6
v -0.1 2.5 0.6
v 0.1 2.5 0.6
v 0.2 2.5 0.6
v -0.2 2.5 0.5
v -0.1 2.5 0.5
v 0.1 2.5 0.5
v 0.2 2.5 0.5
v -0.2 2.5 0.4
v -0.1 2.5 0.4
v 0.1 2.5 0.4
v 0.2 2.5 0.4
v -0.2 2.5 0.3
v -0.1 2.5 0.3
v 0.1 2.5 0.3
v 0.2 2.5 0.3
v -0.1 2.5 0.2
v 0.1 2.5 0.2
v -0.1 2.6 0.6
v 0.1 2.6 0.6
v -0.3 2.6 0.5
v -0.2 2.6 0.5
v -0.1 2.6 0.5
v 0.1 2.6 0.5
v 0.2 2.6 0.5
v 0.3 2.6 0.5
v -0.3 2.6 0.4
v -0.2 2.6 0.4
v -0.1 2.6 0.4
v 0.1 2.6 0.4
v 0.2 2.6 0.4
v 0.3 2.6 0.4
v -0.1 2.6 0.3
v 0.1 2.6 0.3
v -0.2 2.7 0.5
v -0.1 2.7 0.5
v 0.1 2.7 0.5
v 0.2 2.7 0.5
v -0.2 2.7 0.4
v -0.1 2.7 0.4
v 0.1 2.7 0.4
v 0.2 2.7 0.4
v -0.1 2.7 0.1
v 0.1 2.7 0.1
v -0.1 2.7 0
v 0.1 2.7 0
v -0.1 2.9 0.2
v 0.1 2.9 0.2
v -0.1 2.9 0.1
v 0.1 2.9 0.1
v -0.1 3 0.7
v 0.1 3 0.7
v -0.1 3 0.2
v 0.1 3 0.2

# faces
f 5/4/1 2/4/1 1/4/1
f 6/4/1 2/4/1 5/4/1
f 7/4/1 4/4/1 3/4/1
f 8/4/1 4/4/1 7/4/1
f 13/4/1 10/4/1 9/4/1
f 14/4/1 10/4/1 13/4/1
f 15/4/1 12/4/1 11/4/1
f 16/4/1 12/4/1 15/4/1
f 19/2/1 18/2/1 17/2/1
f 20/2/1 18/2/1 19/2/1
f 25/4/1 22/4/1 21/4/1
f 26/4/1 24/4/1 23/4/1
f 27/4/1 22/4/1 25/4/1
f 28/4/1 22/4/1 27/4/1
f 29/4/1 26/4/1 23/4/1
f 30/4/1 26/4/1 29/4/1
f 34/2/1 32/2/1 31/2/1
f 35/2/1 32/2/1 34/2/1
f 36/2/1 34/2/1 33/2/1
f 37/2/1 34/2/1 36/2/1
f 39/2/1 38/2/1 37/2/1
f 40/2/1 38/2/1 39/2/1
f 45/4/1 42/4/1 41/4/1
f 46/4/1 44/4/1 43/4/1
f 47/4/1 42/4/1 45/4/1
f 48/4/1 42/4/1 47/4/1
f 49/4/1 46/4/1 43/4/1
f 50/4/1 46/4/1 49/4/1
f 53/2/1 52/2/1 51/2/1
f 54/2/1 52/2/1 53/2/1
f 59/2/1 56/2/1 55/2/1
f 60/2/1 56/2/1 59/2/1
f 61/2/1 58/2/1 57/2/1
f 62/2/1 58/2/1 61/2/1
f 65/2/1 64/2/1 63/2/1
f 66/2/1 64/2/1 65/2/1
f 69/4/1 68/4/1 67/4/1
f 70/4/1 68/4/1 69/4/1
f 71/4/1 70/4/1 69/4/1
f 72/4/1 70/4/1 71/4/1
f 73/4/1 72/4/1 71/4/1
f 74/4/1 72/4/1 73/4/1
f 77/2/1 76/2/1 75/2/1
f 78/2/1 76/2/1 77/2/1
f 82/3/1 74/3/1 73/3/1
f 83/3/1 74/3/1 82/3/1
f 87/2/1 80/2/1 79/2/1
f 88/2/1 80/2/1 87/2/1
f 89/2/1 85/2/1 84/2/1
f 90/2/1 85/2/1 89/2/1
f 91/2/1 87/2/1 86/2/1
f 92/2/1 87/2/1 91/2/1
f 96/3/1 82/3/1 81/3/1
f 97/3/1 82/3/1 96/3/1
f 99/2/1 94/2/1 93/2/1
f 100/2/1 94/2/1 99/2/1
f 101/3/1 96/3/1 95/3/1
f 102/3/1 96/3/1 101/3/1
f 103/3/1 100/3/1 99/3/1
f 103/3/1 99/3/1 98/3/1
f 103/3/1 101/3/1 100/3/1
f 104/3/1 101/3/1 103/3/1
f 109/4/1 106/4/1 105/4/1
f 110/4/1 106/4/1 109/4/1
f 111/4/1 108/4/1 107/4/1
f 112/4/1 108/4/1 111/4/1
f 115/2/1 114/2/1 113/2/1
f 116/2/1 114/2/1 115/2/1
f 120/1/1 118/1/1 117/1/1
f 121/1/1 118/1/1 120/1/1
f 123/2/1 120/2/1 119/2/1
f 124/2/1 120/2/1 123/2/1
f 125/2/1 122/2/1 121/2/1
f 126/2/1 122/2/1 125/2/1
f 127/2/1 125/2/1 124/2/1
f 128/2/1 125/2/1 127/2/1
f 133/4/1 130/4/1 129/4/1
f 134/4/1 132/4/1 131/4/1
f 135/4/1 133/4/1 129/4/1
f 136/4/1 133/4/1 135/4/1
f 137/4/1 132/4/1 134/4/1
f 138/4/1 132/4/1 137/4/1
f 141/2/1 140/2/1 139/2/1
f 142/2/1 140/2/1 141/2/1
f 144/2/1 143/2/1 142/2/1
f 145/2/1 143/2/1 144/2/1
f 150/4/1 147/4/1 146/4/1
f 151/4/1 147/4/1 150/4/1
f 152/4/1 147/4/1 151/4/1
f 153/4/1 149/4/1 148/4/1
f 154/4/1 149/4/1 153/4/1
f 155/4/1 149/4/1 154/4/1
f 156/4/1 152/4/1 151/4/1
f 157/4/1 152/4/1 156/4/1
f 158/4/1 154/4/1 153/4/1
f 159/4/1 154/4/1 158/4/1
f 160/4/2 161/4/2 164/4/2
f 164/4/2 161/4/2 165/4/2
f 165/4/2 161/4/2 166/4/2
f 162/4/2 163/4/2 167/4/2
f 167/4/2 163/4/2 168/4/2
f 168/4/2 163/4/2 169/4/2
f 165/4/2 166/4/2 170/4/2
f 170/4/2 166/4/2 171/4/2
f 167/4/2 168/4/2 172/4/2
f 172/4/2 168/4/2 173/4/2
f 174/4/2 175/4/2 178/4/2
f 176/4/2 177/4/2 179/4/2
f 174/4/2 178/4/2 180/4/2
f 180/4/2 178/4/2 181/4/2
f 179/4/2 177/4/2 182/4/2
f 182/4/2 177/4/2 183/4/2
f 184/2/2 185/2/2 186/2/2
f 186/2/2 185/2/2 187/2/2
f 187/2/2 188/2/2 189/2/2
f 189/2/2 188/2/2 190/2/2
f 191/4/2 192/4/2 195/4/2
f 195/4/2 192/4/2 196/4/2
f 193/4/2 194/4/2 197/4/2
f 197/4/2 194/4/2 198/4/2
f 199/2/2 200/2/2 201/2/2
f 201/2/2 200/2/2 202/2/2
f 203/1/2 204/1/2 206/1/2
f 206/1/2 204/1/2 207/1/2
f 205/2/2 206/2/2 209/2/2
f 209/2/2 206/2/2 210/2/2
f 207/2/2 208/2/2 211/2/2
f 211/2/2 208/2/2 212/2/2
f 210/2/2 211/2/2 213/2/2
f 213/2/2 211/2/2 214/2/2
f 215/4/2 216/4/2 217/4/2
f 217/4/2 216/4/2 218/4/2
f 217/4/2 218/4/2 219/4/2
f 219/4/2 218/4/2 220/4/2
f 219/4/2 220/4/2 221/4/2
f 221/4/2 220/4/2 222/4/2
f 223/2/2 224/2/2 225/2/2
f 225/2/2 224/2/2 226/2/2
f 221/3/2 222/3/2 230/3/2
f 230/3/2 222/3/2 231/3/2
f 227/2/2 228/2/2 235/2/2
f 235/2/2 228/2/2 236/2/2
f 232/2/2 233/2/2 237/2/2
f 237/2/2 233/2/2 238/2/2
f 234/2/2 235/2/2 239/2/2
f 239/2/2 235/2/2 240/2/2
f 229/3/2 230/3/2 244/3/2
f 244/3/2 230/3/2 245/3/2
f 241/2/2 242/2/2 247/2/2
f 247/2/2 242/2/2 248/2/2
f 243/3/2 244/3/2 249/3/2
f 249/3/2 244/3/2 250/3/2
f 247/3/2 248/3/2 251/3/2
f 246/3/2 247/3/2 251/3/2
f 248/3/2 249/3/2 251/3/2
f 251/3/2 249/3/2 252/3/2
f 253/4/2 254/4/2 257/4/2
f 255/4/2 256/4/2 258/4/2
f 257/4/2 254/4/2 259/4/2
f 259/4/2 254/4/2 260/4/2
f 255/4/2 258/4/2 261/4/2
f 261/4/2 258/4/2 262/4/2
f 263/2/2 264/2/2 265/2/2
f 265/2/2 264/2/2 266/2/2
f 267/2/2 268/2/2 271/2/2
f 271/2/2 268/2/2 272/2/2
f 269/2/2 270/2/2 273/2/2
f 273/2/2 270/2/2 274/2/2
f 275/2/2 276/2/2 277/2/2
f 277/2/2 276/2/2 278/2/2
f 279/4/2 280/4/2 283/4/2
f 281/4/2 282/4/2 284/4/2
f 283/4/2 280/4/2 285/4/2
f 285/4/2 280/4/2 286/4/2
f 281/4/2 284/4/2 287/4/2
f 287/4/2 284/4/2 288/4/2
f 289/2/2 290/2/2 292/2/2
f 292/2/2 290/2/2 293/2/2
f 291/2/2 292/2/2 294/2/2
f 294/2/2 292/2/2 295/2/2
f 295/2/2 296/2/2 297/2/2
f 297/2/2 296/2/2 298/2/2
f 299/4/2 300/4/2 303/4/2
f 303/4/2 300/4/2 304/4/2
f 301/4/2 302/4/2 305/4/2
f 305/4/2 302/4/2 306/4/2
f 307/2/2 308/2/2 309/2/2
f 309/2/2 308/2/2 310/2/2
f 311/4/2 312/4/2 315/4/2
f 315/4/2 312/4/2 316/4/2
f 313/4/2 314/4/2 317/4/2
f 317/4/2 314/4/2 318/4/2
f 321/3/3 320/3/3 319/3/3
f 322/3/3 320/3/3 321/3/3
f 326/2/3 324/2/3 323/2/3
f 327/2/3 324/2/3 326/2/3
f 330/2/3 326/2/3 325/2/3
f 331/2/3 326/2/3 330/2/3
f 332/2/3 328/2/3 327/2/3
f 333/2/3 328/2/3 332/2/3
f 335/2/3 330/2/3 329/2/3
f 336/2/3 330/2/3 335/2/3
f 339/2/3 334/2/3 333/2/3
f 340/2/3 334/2/3 339/2/3
f 341/2/3 337/2/3 336/2/3
f 342/2/3 337/2/3 341/2/3
f 343/2/3 339/2/3 338/2/3
f 344/2/3 339/2/3 343/2/3
f 345/2/3 343/2/3 342/2/3
f 346/2/3 343/2/3 345/2/3
f 350/2/3 348/2/3 347/2/3
f 351/2/3 348/2/3 350/2/3
f 353/2/3 350/2/3 349/2/3
f 354/2/3 350/2/3 353/2/3
f 355/2/3 352/2/3 351/2/3
f 356/2/3 352/2/3 355/2/3
f 357/2/3 352/2/3 356/2/3
f 360/1/3 355/1/3 354/1/3
f 361/1/3 355/1/3 360/1/3
f 362/1/3 355/1/3 361/1/3
f 363/2/3 358/2/3 357/2/3
f 363/2/3 357/2/3 356/2/3
f 364/2/3 358/2/3 363/2/3
f 365/2/3 358/2/3 364/2/3
f 367/1/3 361/1/3 360/1/3
f 367/1/3 360/1/3 359/1/3
f 368/1/3 361/1/3 367/1/3
f 369/1/3 361/1/3 368/1/3
f 372/2/3 366/2/3 365/2/3
f 372/2/3 365/2/3 364/2/3
f 373/2/3 366/2/3 372/2/3
f 374/2/3 366/2/3 373/2/3
f 376/1/3 370/1/3 369/1/3
f 376/1/3 369/1/3 368/1/3
f 377/1/3 370/1/3 376/1/3
f 378/2/3 373/2/3 372/2/3
f 378/2/3 372/2/3 371/2/3
f 379/2/3 373/2/3 378/2/3
f 380/2/3 373/2/3 379/2/3
f 381/2/3 376/2/3 375/2/3
f 382/2/3 376/2/3 381/2/3
f 383/2/3 379/2/3 378/2/3
f 383/2/3 378/2/3 377/2/3
f 384/2/3 379/2/3 383/2/3
f 385/2/3 383/2/3 382/2/3
f 386/2/3 383/2/3 385/2/3
f 389/4/3 388/4/3 387/4/3
f 390/4/3 388/4/3 389/4/3
f 394/2/3 392/2/3 391/2/3
f 395/2/3 392/2/3 394/2/3
f 397/1/3 394/1/3 393/1/3
f 398/1/3 394/1/3 397/1/3
f 399/2/3 396/2/3 395/2/3
f 400/2/3 396/2/3 399/2/3
f 401/2/3 399/2/3 398/2/3
f 402/2/3 399/2/3 401/2/3
f 405/4/3 404/4/3 403/4/3
f 406/4/3 404/4/3 405/4/3
f 409/4/3 408/4/3 407/4/3
f 410/4/3 408/4/3 409/4/3
f 413/2/3 412/2/3 411/2/3
f 414/2/3 412/2/3 413/2/3
f 417/4/3 416/4/3 415/4/3
f 418/4/3 416/4/3 417/4/3
f 422/4/3 420/4/3 419/4/3
f 422/4/3 421/4/3 420/4/3
f 423/4/3 421/4/3 422/4/3
f 426/3/3 425/3/3 424/3/3
f 427/3/3 425/3/3 426/3/3
f 430/4/3 429/4/3 428/4/3
f 431/4/3 429/4/3 430/4/3
f 432/4/3 429/4/3 431/4/3
f 436/4/3 434/4/3 433/4/3
f 436/4/3 435/4/3 434/4/3
f 437/4/3 435/4/3 436/4/3
f 442/3/3 439/3/3 438/3/3
f 443/3/3 439/3/3 442/3/3
f 444/4/3 441/4/3 440/4/3
f 445/4/3 441/4/3 444/4/3
f 446/4/3 441/4/3 445/4/3
f 452/4/3 448/4/3 447/4/3
f 452/4/3 449/4/3 448/4/3
f 452/4/3 450/4/3 449/4/3
f 453/4/3 450/4/3 452/4/3
f 454/4/3 450/4/3 453/4/3
f 455/3/3 451/3/3 450/3/3
f 455/4/3 450/4/3 454/4/3
f 456/3/3 451/3/3 455/3/3
f 459/4/3 458/4/3 457/4/3
f 460/4/3 458/4/3 459/4/3
f 463/4/3 462/4/3 461/4/3
f 464/4/3 462/4/3 463/4/3
f 467/4/3 466/4/3 465/4/3
f 468/4/3 466/4/3 467/4/3
f 469/4/3 466/4/3 468/4/3
f 473/4/3 471/4/3 470/4/3
f 473/4/3 472/4/3 471/4/3
f 474/4/3 472/4/3 473/4/3
f 477/4/3 476/4/3 475/4/3
f 479/4/3 477/4/3 475/4/3
f 479/4/3 478/4/3 477/4/3
f 480/4/3 478/4/3 479/4/3
f 481/4/3 478/4/3 480/4/3
f 485/4/3 483/4/3 482/4/3
f 485/4/3 484/4/3 483/4/3
f 486/4/3 484/4/3 485/4/3
f 487/4/3 485/4/3 482/4/3
f 488/4/3 485/4/3 487/4/3
f 489/2/4 490/2/4 491/2/4
f 491/2/4 490/2/4 492/2/4
f 492/2/4 493/2/4 495/2/4
f 495/2/4 493/2/4 496/2/4
f 494/2/4 495/2/4 497/2/4
f 497/2/4 495/2/4 498/2/4
f 499/2/4 500/2/4 501/2/4
f 501/2/4 500/2/4 502/2/4
f 502/2/4 500/2/4 503/2/4
f 503/2/4 504/2/4 507/2/4
f 502/2/4 503/2/4 507/2/4
f 507/2/4 504/2/4 508/2/4
f 508/2/4 504/2/4 509/2/4
f 505/2/4 506/2/4 511/2/4
f 511/2/4 506/2/4 512/2/4
f 509/2/4 510/2/4 514/2/4
f 508/2/4 509/2/4 514/2/4
f 514/2/4 510/2/4 515/2/4
f 515/2/4 510/2/4 516/2/4
f 513/2/4 514/2/4 518/2/4
f 514/2/4 515/2/4 518/2/4
f 518/2/4 515/2/4 519/2/4
f 519/2/4 515/2/4 520/2/4
f 517/2/4 518/2/4 521/2/4
f 518/2/4 519/2/4 521/2/4
f 521/2/4 519/2/4 522/2/4
f 523/2/4 524/2/4 526/2/4
f 526/2/4 524/2/4 527/2/4
f 525/2/4 526/2/4 527/2/4
f 525/2/4 527/2/4 529/2/4
f 527/2/4 528/2/4 529/2/4
f 529/2/4 528/2/4 530/2/4
f 525/2/4 529/2/4 532/2/4
f 530/2/4 531/2/4 533/2/4
f 533/2/4 531/2/4 534/2/4
f 532/2/4 533/2/4 535/2/4
f 535/2/4 533/2/4 536/2/4
f 525/2/4 532/2/4 537/2/4
f 532/2/4 535/2/4 537/2/4
f 537/2/4 535/2/4 538/2/4
f 538/2/4 535/2/4 539/2/4
f 539/2/4 535/2/4 540/2/4
f 541/4/4 542/4/4 543/4/4
f 541/4/4 543/4/4 545/4/4
f 543/4/4 544/4/4 545/4/4
f 545/4/4 544/4/4 546/4/4
f 546/4/4 544/4/4 547/4/4
f 548/2/4 549/2/4 552/2/4
f 552/2/4 549/2/4 553/2/4
f 550/3/4 551/3/4 554/3/4
f 554/3/4 551/3/4 555/3/4
f 556/4/4 557/4/4 559/4/4
f 557/4/4 558/4/4 559/4/4
f 559/4/4 558/4/4 560/4/4
f 556/4/4 559/4/4 561/4/4
f 561/4/4 559/4/4 562/4/4
f 563/4/4 564/4/4 565/4/4
f 565/4/4 564/4/4 566/4/4
f 566/4/4 564/4/4 567/4/4
f 568/3/4 569/3/4 570/3/4
f 570/3/4 569/3/4 571/3/4
f 572/4/4 573/4/4 575/4/4
f 573/4/4 574/4/4 575/4/4
f 575/4/4 574/4/4 576/4/4
f 577/4/4 578/4/4 579/4/4
f 579/4/4 578/4/4 580/4/4
f 581/3/4 582/3/4 585/3/4
f 585/3/4 582/3/4 586/3/4
f 583/4/4 584/4/4 587/4/4
f 587/4/4 584/4/4 588/4/4
f 589/4/4 590/4/4 594/4/4
f 590/4/4 591/4/4 594/4/4
f 591/4/4 592/4/4 594/4/4
f 594/4/4 592/4/4 595/4/4
f 595/4/4 592/4/4 596/4/4
f 592/3/4 593/3/4 597/3/4
f 596/4/4 592/4/4 597/4/4
f 597/3/4 593/3/4 598/3/4
f 599/4/4 600/4/4 602/4/4
f 600/4/4 601/4/4 602/4/4
f 602/4/4 601/4/4 603/4/4
f 604/4/4 605/4/4 606/4/4
f 606/4/4 605/4/4 607/4/4
f 607/4/4 605/4/4 608/4/4
f 609/4/4 610/4/4 612/4/4
f 610/4/4 611/4/4 612/4/4
f 612/4/4 611/4/4 613/4/4
f 614/4/4 615/4/4 616/4/4
f 616/4/4 615/4/4 617/4/4
f 617/4/4 615/4/4 618/4/4
f 619/4/4 620/4/4 621/4/4
f 621/4/4 620/4/4 622/4/4
f 623/4/4 624/4/4 625/4/4
f 625/4/4 624/4/4 626/4/4
f 627/4/4 628/4/4 629/4/4
f 629/4/4 628/4/4 630/4/4
f 631/4/4 632/4/4 633/4/4
f 633/4/4 632/4/4 634/4/4
f 639/4/5 636/4/5 635/4/5
f 640/4/5 636/4/5 639/4/5
f 641/4/5 638/4/5 637/4/5
f 642/4/5 638/4/5 641/4/5
f 647/4/5 644/4/5 643/4/5
f 648/4/5 644/4/5 647/4/5
f 649/4/5 646/4/5 645/4/5
f 650/4/5 646/4/5 649/4/5
f 655/4/5 652/4/5 651/4/5
f 656/4/5 652/4/5 655/4/5
f 657/4/5 654/4/5 653/4/5
f 658/4/5 654/4/5 657/4/5
f 661/4/5 660/4/5 659/4/5
f 662/4/5 660/4/5 661/4/5
f 667/4/5 664/4/5 663/4/5
f 668/4/5 664/4/5 667/4/5
f 669/4/5 666/4/5 665/4/5
f 670/4/5 666/4/5 669/4/5
f 675/4/5 672/4/5 671/4/5
f 676/4/5 672/4/5 675/4/5
f 677/4/5 674/4/5 673/4/5
f 678/4/5 674/4/5 677/4/5
f 683/4/5 680/4/5 679/4/5
f 684/4/5 680/4/5 683/4/5
f 685/4/5 682/4/5 681/4/5
f 686/4/5 682/4/5 685/4/5
f 689/2/5 688/2/5 687/2/5
f 690/2/5 688/2/5 689/2/5
f 696/2/5 692/2/5 691/2/5
f 697/2/5 694/2/5 693/2/5
f 699/2/5 696/2/5 695/2/5
f 699/2/5 692/2/5 696/2/5
f 700/2/5 698/2/5 697/2/5
f 700/2/5 697/2/5 693/2/5
f 701/2/5 699/2/5 695/2/5
f 701/2/5 700/2/5 699/2/5
f 702/2/5 698/2/5 700/2/5
f 702/2/5 700/2/5 701/2/5
f 708/2/5 704/2/5 703/2/5
f 709/2/5 704/2/5 708/2/5
f 710/2/5 706/2/5 705/2/5
f 711/2/5 706/2/5 710/2/5
f 713/2/5 708/2/5 707/2/5
f 714/2/5 708/2/5 713/2/5
f 717/2/5 712/2/5 711/2/5
f 718/2/5 712/2/5 717/2/5
f 719/2/5 716/2/5 715/2/5
f 720/2/5 716/2/5 719/2/5
f 725/2/5 722/2/5 721/2/5
f 726/2/5 722/2/5 725/2/5
f 727/2/5 724/2/5 723/2/5
f 728/2/5 724/2/5 727/2/5
f 731/3/5 730/3/5 729/3/5
f 732/3/5 730/3/5 731/3/5
f 736/2/5 734/2/5 733/2/5
f 737/2/5 734/2/5 736/2/5
f 739/2/5 736/2/5 735/2/5
f 740/2/5 736/2/5 739/2/5
f 741/2/5 738/2/5 737/2/5
f 742/2/5 738/2/5 741/2/5
f 743/2/5 741/2/5 740/2/5
f 744/2/5 741/2/5 743/2/5
f 747/2/5 746/2/5 745/2/5
f 748/2/5 746/2/5 747/2/5
f 751/3/5 750/3/5 749/3/5
f 752/3/5 750/3/5 751/3/5
f 755/3/5 754/3/5 753/3/5
f 756/3/5 754/3/5 755/3/5
f 759/3/5 758/3/5 757/3/5
f 760/3/5 758/3/5 759/3/5
f 761/4/6 762/4/6 765/4/6
f 765/4/6 762/4/6 766/4/6
f 763/4/6 764/4/6 767/4/6
f 767/4/6 764/4/6 768/4/6
f 761/4/6 765/4/6 769/4/6
f 769/4/6 765/4/6 770/4/6
f 768/4/6 764/4/6 771/4/6
f 771/4/6 764/4/6 772/4/6
f 773/4/6 774/4/6 777/4/6
f 775/4/6 776/4/6 780/4/6
f 777/4/6 778/4/6 781/4/6
f 773/4/6 777/4/6 781/4/6
f 781/4/6 778/4/6 782/4/6
f 779/4/6 780/4/6 783/4/6
f 780/4/6 776/4/6 784/4/6
f 783/4/6 780/4/6 784/4/6
f 785/4/6 786/4/6 789/4/6
f 789/4/6 786/4/6 790/4/6
f 787/4/6 788/4/6 791/4/6
f 791/4/6 788/4/6 792/4/6
f 793/4/6 794/4/6 797/4/6
f 797/4/6 794/4/6 798/4/6
f 795/4/6 796/4/6 799/4/6
f 799/4/6 796/4/6 800/4/6
f 801/4/6 802/4/6 805/4/6
f 805/4/6 802/4/6 806/4/6
f 803/4/6 804/4/6 807/4/6
f 807/4/6 804/4/6 808/4/6
f 809/4/6 810/4/6 813/4/6
f 813/4/6 810/4/6 814/4/6
f 811/4/6 812/4/6 815/4/6
f 815/4/6 812/4/6 816/4/6
f 817/4/6 818/4/6 821/4/6
f 821/4/6 818/4/6 822/4/6
f 819/4/6 820/4/6 823/4/6
f 823/4/6 820/4/6 824/4/6
f 825/4/6 826/4/6 829/4/6
f 829/4/6 826/4/6 830/4/6
f 827/4/6 828/4/6 831/4/6
f 831/4/6 828/4/6 832/4/6
f 833/2/6 834/2/6 835/2/6
f 835/2/6 834/2/6 836/2/6
f 837/2/6 838/2/6 841/2/6
f 841/2/6 838/2/6 842/2/6
f 839/2/6 840/2/6 843/2/6
f 843/2/6 840/2/6 844/2/6
f 845/1/6 846/1/6 847/1/6
f 847/1/6 846/1/6 848/1/6
f 849/2/6 850/2/6 854/2/6
f 854/2/6 850/2/6 855/2/6
f 851/2/6 852/2/6 858/2/6
f 858/2/6 852/2/6 859/2/6
f 853/2/6 854/2/6 861/2/6
f 855/1/6 856/1/6 862/1/6
f 862/1/6 856/1/6 863/1/6
f 857/1/6 858/1/6 864/1/6
f 864/1/6 858/1/6 865/1/6
f 859/2/6 860/2/6 866/2/6
f 853/2/6 861/2/6 867/2/6
f 861/2/6 862/2/6 867/2/6
f 867/2/6 862/2/6 868/2/6
f 863/1/6 864/1/6 869/1/6
f 869/1/6 864/1/6 870/1/6
f 865/2/6 866/2/6 871/2/6
f 866/2/6 860/2/6 872/2/6
f 871/2/6 866/2/6 872/2/6
f 873/3/6 874/3/6 875/3/6
f 875/3/6 874/3/6 876/3/6
f 877/2/6 878/2/6 881/2/6
f 881/2/6 878/2/6 882/2/6
f 879/2/6 880/2/6 883/2/6
f 883/2/6 880/2/6 884/2/6
f 885/2/6 886/2/6 889/2/6
f 889/2/6 886/2/6 890/2/6
f 887/2/6 888/2/6 891/2/6
f 891/2/6 888/2/6 892/2/6
f 890/2/6 891/2/6 893/2/6
f 893/2/6 891/2/6 894/2/6
f 895/2/6 896/2/6 899/2/6
f 899/2/6 896/2/6 900/2/6
f 897/2/6 898/2/6 903/2/6
f 903/2/6 898/2/6 904/2/6
f 901/2/6 902/2/6 907/2/6
f 907/2/6 902/2/6 908/2/6
f 905/2/6 906/2/6 909/2/6
f 909/2/6 906/2/6 910/2/6
f 911/2/6 912/2/6 915/2/6
f 915/2/6 912/2/6 916/2/6
f 913/2/6 914/2/6 917/2/6
f 917/2/6 914/2/6 918/2/6
f 919/3/6 920/3/6 921/3/6
f 921/3/6 920/3/6 922/3/6
f 923/3/6 924/3/6 925/3/6
f 925/3/6 924/3/6 926/3/6
f 927/3/6 928/3/6 929/3/6
f 929/3/6 928/3/6 930/3/6
