# MagicaVoxel @ Ephtracy

# group
o 

# material
mtllib Lab_Table.vox.mtl
usemtl palette

# normals
vn -1 0 0
vn 1 0 0
vn 0 0 1
vn 0 0 -1
vn 0 -1 0
vn 0 1 0

# texcoords
vt 0.478516 0.5
vt 0.548828 0.5
vt 0.646484 0.5
vt 0.919922 0.5
vt 0.923828 0.5
vt 0.962891 0.5
vt 0.982422 0.5
vt 0.994141 0.5

# verts
v -1.5 0 0.6
v -1.5 0 -0.6
v -1.5 1.1 0.6
v -1.5 1.1 -0.6
v -1.5 1.4 0.6
v -1.5 1.4 -0.6
v -1.1 1.5 0.1
v -1.1 1.5 -0.1
v -1.1 1.6 0.1
v -1.1 1.6 -0.1
v -0.9 1.2 0.3
v -0.9 1.2 -0.3
v -0.9 1.3 0.3
v -0.9 1.3 0.1
v -0.9 1.3 -0.1
v -0.9 1.3 -0.3
v -0.9 1.4 0.3
v -0.9 1.4 0.1
v -0.9 1.4 -0.1
v -0.9 1.4 -0.3
v -0.9 1.5 0.1
v -0.9 1.5 -0.1
v 0.2 1.4 0.4
v 0.2 1.4 0.3
v 0.2 1.4 -0.2
v 0.2 1.4 -0.4
v 0.2 1.7 0.4
v 0.2 1.7 0.3
v 0.2 1.8 -0.2
v 0.2 1.8 -0.4
v 0.3 1.4 0.5
v 0.3 1.4 0.4
v 0.3 1.4 0.3
v 0.3 1.4 0.2
v 0.3 1.4 -0.1
v 0.3 1.4 -0.2
v 0.3 1.4 -0.4
v 0.3 1.4 -0.5
v 0.3 1.7 0.5
v 0.3 1.7 0.4
v 0.3 1.7 0.3
v 0.3 1.7 0.2
v 0.3 1.8 -0.1
v 0.3 1.8 -0.2
v 0.3 1.8 -0.4
v 0.3 1.8 -0.5
v 0.4 1.6 0.4
v 0.4 1.6 0.3
v 0.4 1.7 0.4
v 0.4 1.7 0.3
v 0.5 1.7 -0.2
v 0.5 1.7 -0.4
v 0.5 1.8 -0.2
v 0.5 1.8 -0.4
v 0.7 1.4 0.3
v 0.7 1.4 0
v 0.7 1.9 0.3
v 0.7 1.9 0
v 0.8 1.4 0.4
v 0.8 1.4 0.3
v 0.8 1.4 0
v 0.8 1.4 -0.1
v 0.8 1.9 0.4
v 0.8 1.9 0.3
v 0.8 1.9 0
v 0.8 1.9 -0.1
v 1.1 1.8 0.3
v 1.1 1.8 0
v 1.1 1.9 0.3
v 1.1 1.9 0
v -1.4 1.3 0.3
v -1.4 1.3 -0.3
v -1.4 1.4 0.3
v -1.4 1.4 -0.3
v -1.3 1.2 0.3
v -1.3 1.2 -0.3
v -1.3 1.3 0.3
v -1.3 1.3 -0.3
v -0.8 1.4 0.1
v -0.8 1.4 -0.1
v -0.8 1.6 0.1
v -0.8 1.6 -0.1
v 0.3 1.6 0.4
v 0.3 1.6 0.3
v 0.3 1.7 0.4
v 0.3 1.7 0.3
v 0.3 1.7 -0.2
v 0.3 1.7 -0.4
v 0.3 1.8 -0.2
v 0.3 1.8 -0.4
v 0.4 1.4 0.5
v 0.4 1.4 0.4
v 0.4 1.4 0.3
v 0.4 1.4 0.2
v 0.4 1.7 0.5
v 0.4 1.7 0.4
v 0.4 1.7 0.3
v 0.4 1.7 0.2
v 0.5 1.4 0.4
v 0.5 1.4 0.3
v 0.5 1.4 -0.1
v 0.5 1.4 -0.2
v 0.5 1.4 -0.4
v 0.5 1.4 -0.5
v 0.5 1.7 0.4
v 0.5 1.7 0.3
v 0.5 1.8 -0.1
v 0.5 1.8 -0.2
v 0.5 1.8 -0.4
v 0.5 1.8 -0.5
v 0.6 1.4 -0.2
v 0.6 1.4 -0.4
v 0.6 1.8 -0.2
v 0.6 1.8 -0.4
v 0.8 1.8 0.3
v 0.8 1.8 0
v 0.8 1.9 0.3
v 0.8 1.9 0
v 1.1 1.4 0.4
v 1.1 1.4 0.3
v 1.1 1.4 0
v 1.1 1.4 -0.1
v 1.1 1.9 0.4
v 1.1 1.9 0.3
v 1.1 1.9 0
v 1.1 1.9 -0.1
v 1.2 1.4 0.3
v 1.2 1.4 0
v 1.2 1.9 0.3
v 1.2 1.9 0
v 1.5 0 0.6
v 1.5 0 -0.6
v 1.5 1.1 0.6
v 1.5 1.1 -0.6
v 1.5 1.4 0.6
v 1.5 1.4 -0.6
v -1.5 0 0.6
v -1.5 1.1 0.6
v -1.5 1.4 0.6
v -0.8 0.4 0.6
v -0.8 0.7 0.6
v -0.7 0.4 0.6
v -0.7 0.7 0.6
v -0.4 0.1 0.6
v -0.4 0.9 0.6
v -0.3 0.1 0.6
v -0.3 0.9 0.6
v 0.2 0.1 0.6
v 0.2 0.9 0.6
v 0.3 0.1 0.6
v 0.3 0.9 0.6
v 0.6 0.4 0.6
v 0.6 0.7 0.6
v 0.7 0.4 0.6
v 0.7 0.7 0.6
v 1.5 0 0.6
v 1.5 1.1 0.6
v 1.5 1.4 0.6
v 0.3 1.4 0.5
v 0.3 1.7 0.5
v 0.4 1.4 0.5
v 0.4 1.7 0.5
v 0.2 1.4 0.4
v 0.2 1.7 0.4
v 0.3 1.4 0.4
v 0.3 1.7 0.4
v 0.4 1.4 0.4
v 0.4 1.7 0.4
v 0.5 1.4 0.4
v 0.5 1.7 0.4
v 0.8 1.4 0.4
v 0.8 1.9 0.4
v 1.1 1.4 0.4
v 1.1 1.9 0.4
v 0.3 1.6 0.3
v 0.3 1.7 0.3
v 0.4 1.6 0.3
v 0.4 1.7 0.3
v 0.7 1.4 0.3
v 0.7 1.9 0.3
v 0.8 1.4 0.3
v 0.8 1.9 0.3
v 1.1 1.4 0.3
v 1.1 1.9 0.3
v 1.2 1.4 0.3
v 1.2 1.9 0.3
v -1.1 1.5 0.1
v -1.1 1.6 0.1
v -0.9 1.4 0.1
v -0.9 1.5 0.1
v -0.8 1.4 0.1
v -0.8 1.6 0.1
v 0.8 1.8 0
v 0.8 1.9 0
v 1.1 1.8 0
v 1.1 1.9 0
v 0.3 1.4 -0.1
v 0.3 1.8 -0.1
v 0.5 1.4 -0.1
v 0.5 1.8 -0.1
v 0.2 1.4 -0.2
v 0.2 1.8 -0.2
v 0.3 1.4 -0.2
v 0.3 1.8 -0.2
v 0.5 1.4 -0.2
v 0.5 1.8 -0.2
v 0.6 1.4 -0.2
v 0.6 1.8 -0.2
v -1.4 1.3 -0.3
v -1.4 1.4 -0.3
v -1.3 1.2 -0.3
v -1.3 1.3 -0.3
v -0.9 1.2 -0.3
v -0.9 1.3 -0.3
v -0.9 1.4 -0.3
v 0.3 1.7 -0.4
v 0.3 1.8 -0.4
v 0.5 1.7 -0.4
v 0.5 1.8 -0.4
v 0.3 1.6 0.4
v 0.3 1.7 0.4
v 0.4 1.6 0.4
v 0.4 1.7 0.4
v -1.4 1.3 0.3
v -1.4 1.4 0.3
v -1.3 1.2 0.3
v -1.3 1.3 0.3
v -0.9 1.2 0.3
v -0.9 1.3 0.3
v -0.9 1.4 0.3
v 0.2 1.4 0.3
v 0.2 1.7 0.3
v 0.3 1.4 0.3
v 0.3 1.7 0.3
v 0.4 1.4 0.3
v 0.4 1.7 0.3
v 0.5 1.4 0.3
v 0.5 1.7 0.3
v 0.8 1.8 0.3
v 0.8 1.9 0.3
v 1.1 1.8 0.3
v 1.1 1.9 0.3
v 0.3 1.4 0.2
v 0.3 1.7 0.2
v 0.4 1.4 0.2
v 0.4 1.7 0.2
v 0.7 1.4 0
v 0.7 1.9 0
v 0.8 1.4 0
v 0.8 1.9 0
v 1.1 1.4 0
v 1.1 1.9 0
v 1.2 1.4 0
v 1.2 1.9 0
v -1.1 1.5 -0.1
v -1.1 1.6 -0.1
v -0.9 1.4 -0.1
v -0.9 1.5 -0.1
v -0.8 1.4 -0.1
v -0.8 1.6 -0.1
v 0.8 1.4 -0.1
v 0.8 1.9 -0.1
v 1.1 1.4 -0.1
v 1.1 1.9 -0.1
v 0.3 1.7 -0.2
v 0.3 1.8 -0.2
v 0.5 1.7 -0.2
v 0.5 1.8 -0.2
v 0.2 1.4 -0.4
v 0.2 1.8 -0.4
v 0.3 1.4 -0.4
v 0.3 1.8 -0.4
v 0.5 1.4 -0.4
v 0.5 1.8 -0.4
v 0.6 1.4 -0.4
v 0.6 1.8 -0.4
v 0.3 1.4 -0.5
v 0.3 1.8 -0.5
v 0.5 1.4 -0.5
v 0.5 1.8 -0.5
v -1.5 0 -0.6
v -1.5 1.1 -0.6
v -1.5 1.4 -0.6
v -0.8 0.4 -0.6
v -0.8 0.7 -0.6
v -0.7 0.4 -0.6
v -0.7 0.7 -0.6
v -0.4 0.1 -0.6
v -0.4 0.9 -0.6
v -0.3 0.1 -0.6
v -0.3 0.9 -0.6
v 0.2 0.1 -0.6
v 0.2 0.9 -0.6
v 0.3 0.1 -0.6
v 0.3 0.9 -0.6
v 0.6 0.4 -0.6
v 0.6 0.7 -0.6
v 0.7 0.4 -0.6
v 0.7 0.7 -0.6
v 1.5 0 -0.6
v 1.5 1.1 -0.6
v 1.5 1.4 -0.6
v -1.5 0 0.6
v 1.5 0 0.6
v -1.5 0 -0.6
v 1.5 0 -0.6
v -1.1 1.5 0.1
v -0.9 1.5 0.1
v -1.1 1.5 -0.1
v -0.9 1.5 -0.1
v -1.3 1.2 0.3
v -0.9 1.2 0.3
v -1.3 1.2 -0.3
v -0.9 1.2 -0.3
v -1.4 1.3 0.3
v -1.3 1.3 0.3
v -1.4 1.3 -0.3
v -1.3 1.3 -0.3
v -1.5 1.4 0.6
v 1.5 1.4 0.6
v 0.3 1.4 0.5
v 0.4 1.4 0.5
v 0.2 1.4 0.4
v 0.3 1.4 0.4
v 0.4 1.4 0.4
v 0.5 1.4 0.4
v 0.8 1.4 0.4
v 1.1 1.4 0.4
v -1.4 1.4 0.3
v -0.9 1.4 0.3
v 0.2 1.4 0.3
v 0.3 1.4 0.3
v 0.4 1.4 0.3
v 0.5 1.4 0.3
v 0.7 1.4 0.3
v 0.8 1.4 0.3
v 1.1 1.4 0.3
v 1.2 1.4 0.3
v 0.3 1.4 0.2
v 0.4 1.4 0.2
v -0.9 1.4 0.1
v -0.8 1.4 0.1
v 0.7 1.4 0
v 0.8 1.4 0
v 1.1 1.4 0
v 1.2 1.4 0
v -0.9 1.4 -0.1
v -0.8 1.4 -0.1
v 0.3 1.4 -0.1
v 0.5 1.4 -0.1
v 0.8 1.4 -0.1
v 1.1 1.4 -0.1
v 0.2 1.4 -0.2
v 0.3 1.4 -0.2
v 0.5 1.4 -0.2
v 0.6 1.4 -0.2
v -1.4 1.4 -0.3
v -0.9 1.4 -0.3
v 0.2 1.4 -0.4
v 0.3 1.4 -0.4
v 0.5 1.4 -0.4
v 0.6 1.4 -0.4
v 0.3 1.4 -0.5
v 0.5 1.4 -0.5
v -1.5 1.4 -0.6
v 1.5 1.4 -0.6
v 0.3 1.6 0.4
v 0.4 1.6 0.4
v 0.3 1.6 0.3
v 0.4 1.6 0.3
v -1.1 1.6 0.1
v -0.8 1.6 0.1
v -1.1 1.6 -0.1
v -0.8 1.6 -0.1
v 0.3 1.7 0.5
v 0.4 1.7 0.5
v 0.2 1.7 0.4
v 0.3 1.7 0.4
v 0.4 1.7 0.4
v 0.5 1.7 0.4
v 0.2 1.7 0.3
v 0.3 1.7 0.3
v 0.4 1.7 0.3
v 0.5 1.7 0.3
v 0.3 1.7 0.2
v 0.4 1.7 0.2
v 0.3 1.7 -0.2
v 0.5 1.7 -0.2
v 0.3 1.7 -0.4
v 0.5 1.7 -0.4
v 0.8 1.8 0.3
v 1.1 1.8 0.3
v 0.8 1.8 0
v 1.1 1.8 0
v 0.3 1.8 -0.1
v 0.5 1.8 -0.1
v 0.2 1.8 -0.2
v 0.3 1.8 -0.2
v 0.5 1.8 -0.2
v 0.6 1.8 -0.2
v 0.2 1.8 -0.4
v 0.3 1.8 -0.4
v 0.5 1.8 -0.4
v 0.6 1.8 -0.4
v 0.3 1.8 -0.5
v 0.5 1.8 -0.5
v 0.8 1.9 0.4
v 1.1 1.9 0.4
v 0.7 1.9 0.3
v 0.8 1.9 0.3
v 1.1 1.9 0.3
v 1.2 1.9 0.3
v 0.7 1.9 0
v 0.8 1.9 0
v 1.1 1.9 0
v 1.2 1.9 0
v 0.8 1.9 -0.1
v 1.1 1.9 -0.1

# faces
f 3/6/1 2/6/1 1/6/1
f 4/6/1 2/6/1 3/6/1
f 5/7/1 4/7/1 3/7/1
f 6/7/1 4/7/1 5/7/1
f 9/5/1 8/5/1 7/5/1
f 10/5/1 8/5/1 9/5/1
f 13/8/1 12/8/1 11/8/1
f 14/8/1 12/8/1 13/8/1
f 15/8/1 12/8/1 14/8/1
f 16/8/1 12/8/1 15/8/1
f 17/7/1 14/7/1 13/7/1
f 18/5/1 15/5/1 14/5/1
f 18/7/1 14/7/1 17/7/1
f 19/7/1 16/7/1 15/7/1
f 19/5/1 15/5/1 18/5/1
f 20/7/1 16/7/1 19/7/1
f 21/5/1 19/5/1 18/5/1
f 22/5/1 19/5/1 21/5/1
f 27/4/1 24/4/1 23/4/1
f 28/4/1 24/4/1 27/4/1
f 29/4/1 26/4/1 25/4/1
f 30/4/1 26/4/1 29/4/1
f 39/4/1 32/4/1 31/4/1
f 40/4/1 32/4/1 39/4/1
f 41/4/1 34/4/1 33/4/1
f 42/4/1 34/4/1 41/4/1
f 43/4/1 36/4/1 35/4/1
f 44/4/1 36/4/1 43/4/1
f 45/4/1 38/4/1 37/4/1
f 46/4/1 38/4/1 45/4/1
f 49/4/1 48/4/1 47/4/1
f 50/4/1 48/4/1 49/4/1
f 53/4/1 52/4/1 51/4/1
f 54/4/1 52/4/1 53/4/1
f 57/4/1 56/4/1 55/4/1
f 58/4/1 56/4/1 57/4/1
f 63/4/1 60/4/1 59/4/1
f 64/4/1 60/4/1 63/4/1
f 65/4/1 62/4/1 61/4/1
f 66/4/1 62/4/1 65/4/1
f 69/4/1 68/4/1 67/4/1
f 70/4/1 68/4/1 69/4/1
f 71/7/2 72/7/2 73/7/2
f 73/7/2 72/7/2 74/7/2
f 75/8/2 76/8/2 77/8/2
f 77/8/2 76/8/2 78/8/2
f 79/5/2 80/5/2 81/5/2
f 81/5/2 80/5/2 82/5/2
f 83/4/2 84/4/2 85/4/2
f 85/4/2 84/4/2 86/4/2
f 87/4/2 88/4/2 89/4/2
f 89/4/2 88/4/2 90/4/2
f 91/4/2 92/4/2 95/4/2
f 95/4/2 92/4/2 96/4/2
f 93/4/2 94/4/2 97/4/2
f 97/4/2 94/4/2 98/4/2
f 99/4/2 100/4/2 105/4/2
f 105/4/2 100/4/2 106/4/2
f 101/4/2 102/4/2 107/4/2
f 107/4/2 102/4/2 108/4/2
f 103/4/2 104/4/2 109/4/2
f 109/4/2 104/4/2 110/4/2
f 111/4/2 112/4/2 113/4/2
f 113/4/2 112/4/2 114/4/2
f 115/4/2 116/4/2 117/4/2
f 117/4/2 116/4/2 118/4/2
f 119/4/2 120/4/2 123/4/2
f 123/4/2 120/4/2 124/4/2
f 121/4/2 122/4/2 125/4/2
f 125/4/2 122/4/2 126/4/2
f 127/4/2 128/4/2 129/4/2
f 129/4/2 128/4/2 130/4/2
f 131/6/2 132/6/2 133/6/2
f 133/6/2 132/6/2 134/6/2
f 133/7/2 134/7/2 135/7/2
f 135/7/2 134/7/2 136/7/2
f 140/6/3 138/6/3 137/6/3
f 141/6/3 138/6/3 140/6/3
f 142/6/3 140/6/3 137/6/3
f 142/8/3 141/8/3 140/8/3
f 143/6/3 138/6/3 141/6/3
f 143/8/3 141/8/3 142/8/3
f 144/6/3 142/6/3 137/6/3
f 144/6/3 143/6/3 142/6/3
f 145/6/3 138/6/3 143/6/3
f 145/6/3 143/6/3 144/6/3
f 146/6/3 144/6/3 137/6/3
f 146/7/3 145/7/3 144/7/3
f 147/6/3 138/6/3 145/6/3
f 147/7/3 145/7/3 146/7/3
f 148/6/3 146/6/3 137/6/3
f 148/6/3 147/6/3 146/6/3
f 149/6/3 138/6/3 147/6/3
f 149/6/3 147/6/3 148/6/3
f 150/6/3 148/6/3 137/6/3
f 150/7/3 149/7/3 148/7/3
f 151/6/3 138/6/3 149/6/3
f 151/7/3 149/7/3 150/7/3
f 152/6/3 151/6/3 150/6/3
f 153/6/3 151/6/3 152/6/3
f 154/6/3 152/6/3 150/6/3
f 154/8/3 153/8/3 152/8/3
f 155/6/3 151/6/3 153/6/3
f 155/8/3 153/8/3 154/8/3
f 156/6/3 150/6/3 137/6/3
f 156/6/3 154/6/3 150/6/3
f 156/6/3 155/6/3 154/6/3
f 157/7/3 139/7/3 138/7/3
f 157/6/3 155/6/3 156/6/3
f 157/6/3 151/6/3 155/6/3
f 157/6/3 138/6/3 151/6/3
f 158/7/3 139/7/3 157/7/3
f 161/4/3 160/4/3 159/4/3
f 162/4/3 160/4/3 161/4/3
f 165/4/3 164/4/3 163/4/3
f 166/4/3 164/4/3 165/4/3
f 169/4/3 168/4/3 167/4/3
f 170/4/3 168/4/3 169/4/3
f 173/4/3 172/4/3 171/4/3
f 174/4/3 172/4/3 173/4/3
f 177/4/3 176/4/3 175/4/3
f 178/4/3 176/4/3 177/4/3
f 181/4/3 180/4/3 179/4/3
f 182/4/3 180/4/3 181/4/3
f 185/4/3 184/4/3 183/4/3
f 186/4/3 184/4/3 185/4/3
f 190/5/3 188/5/3 187/5/3
f 191/5/3 190/5/3 189/5/3
f 192/5/3 188/5/3 190/5/3
f 192/5/3 190/5/3 191/5/3
f 195/4/3 194/4/3 193/4/3
f 196/4/3 194/4/3 195/4/3
f 199/4/3 198/4/3 197/4/3
f 200/4/3 198/4/3 199/4/3
f 203/4/3 202/4/3 201/4/3
f 204/4/3 202/4/3 203/4/3
f 207/4/3 206/4/3 205/4/3
f 208/4/3 206/4/3 207/4/3
f 212/7/3 210/7/3 209/7/3
f 213/8/3 212/8/3 211/8/3
f 214/7/3 210/7/3 212/7/3
f 214/8/3 212/8/3 213/8/3
f 215/7/3 210/7/3 214/7/3
f 218/4/3 217/4/3 216/4/3
f 219/4/3 217/4/3 218/4/3
f 220/4/4 221/4/4 222/4/4
f 222/4/4 221/4/4 223/4/4
f 224/7/4 225/7/4 227/7/4
f 226/8/4 227/8/4 228/8/4
f 227/7/4 225/7/4 229/7/4
f 228/8/4 227/8/4 229/8/4
f 229/7/4 225/7/4 230/7/4
f 231/4/4 232/4/4 233/4/4
f 233/4/4 232/4/4 234/4/4
f 235/4/4 236/4/4 237/4/4
f 237/4/4 236/4/4 238/4/4
f 239/4/4 240/4/4 241/4/4
f 241/4/4 240/4/4 242/4/4
f 243/4/4 244/4/4 245/4/4
f 245/4/4 244/4/4 246/4/4
f 247/4/4 248/4/4 249/4/4
f 249/4/4 248/4/4 250/4/4
f 251/4/4 252/4/4 253/4/4
f 253/4/4 252/4/4 254/4/4
f 255/5/4 256/5/4 258/5/4
f 257/5/4 258/5/4 259/5/4
f 258/5/4 256/5/4 260/5/4
f 259/5/4 258/5/4 260/5/4
f 261/4/4 262/4/4 263/4/4
f 263/4/4 262/4/4 264/4/4
f 265/4/4 266/4/4 267/4/4
f 267/4/4 266/4/4 268/4/4
f 269/4/4 270/4/4 271/4/4
f 271/4/4 270/4/4 272/4/4
f 273/4/4 274/4/4 275/4/4
f 275/4/4 274/4/4 276/4/4
f 277/4/4 278/4/4 279/4/4
f 279/4/4 278/4/4 280/4/4
f 281/6/4 282/6/4 284/6/4
f 284/6/4 282/6/4 285/6/4
f 281/6/4 284/6/4 286/6/4
f 284/8/4 285/8/4 286/8/4
f 285/6/4 282/6/4 287/6/4
f 286/8/4 285/8/4 287/8/4
f 281/6/4 286/6/4 288/6/4
f 286/6/4 287/6/4 288/6/4
f 287/6/4 282/6/4 289/6/4
f 288/6/4 287/6/4 289/6/4
f 281/6/4 288/6/4 290/6/4
f 288/7/4 289/7/4 290/7/4
f 289/6/4 282/6/4 291/6/4
f 290/7/4 289/7/4 291/7/4
f 281/6/4 290/6/4 292/6/4
f 290/6/4 291/6/4 292/6/4
f 291/6/4 282/6/4 293/6/4
f 292/6/4 291/6/4 293/6/4
f 281/6/4 292/6/4 294/6/4
f 292/7/4 293/7/4 294/7/4
f 293/6/4 282/6/4 295/6/4
f 294/7/4 293/7/4 295/7/4
f 294/6/4 295/6/4 296/6/4
f 296/6/4 295/6/4 297/6/4
f 294/6/4 296/6/4 298/6/4
f 296/8/4 297/8/4 298/8/4
f 297/6/4 295/6/4 299/6/4
f 298/8/4 297/8/4 299/8/4
f 281/6/4 294/6/4 300/6/4
f 294/6/4 298/6/4 300/6/4
f 298/6/4 299/6/4 300/6/4
f 282/7/4 283/7/4 301/7/4
f 300/6/4 299/6/4 301/6/4
f 299/6/4 295/6/4 301/6/4
f 295/6/4 282/6/4 301/6/4
f 301/7/4 283/7/4 302/7/4
f 305/6/5 304/6/5 303/6/5
f 306/6/5 304/6/5 305/6/5
f 309/5/5 308/5/5 307/5/5
f 310/5/5 308/5/5 309/5/5
f 311/8/6 312/8/6 313/8/6
f 313/8/6 312/8/6 314/8/6
f 315/8/6 316/8/6 317/8/6
f 317/8/6 316/8/6 318/8/6
f 319/7/6 320/7/6 321/7/6
f 321/7/6 320/7/6 322/7/6
f 319/7/6 321/7/6 323/7/6
f 323/7/6 321/7/6 324/7/6
f 322/7/6 320/7/6 325/7/6
f 325/7/6 320/7/6 326/7/6
f 326/7/6 320/7/6 327/7/6
f 327/7/6 320/7/6 328/7/6
f 319/7/6 323/7/6 329/7/6
f 329/7/6 323/7/6 330/7/6
f 330/7/6 323/7/6 331/7/6
f 326/7/6 327/7/6 334/7/6
f 334/7/6 327/7/6 335/7/6
f 335/7/6 327/7/6 336/7/6
f 328/7/6 320/7/6 337/7/6
f 337/7/6 320/7/6 338/7/6
f 331/7/6 332/7/6 339/7/6
f 330/7/6 331/7/6 339/7/6
f 334/7/6 335/7/6 340/7/6
f 333/7/6 334/7/6 340/7/6
f 330/7/6 339/7/6 341/7/6
f 339/7/6 340/7/6 341/7/6
f 341/7/6 340/7/6 342/7/6
f 340/7/6 335/7/6 343/7/6
f 342/7/6 340/7/6 343/7/6
f 338/7/6 320/7/6 346/7/6
f 343/7/6 344/7/6 348/7/6
f 342/7/6 343/7/6 348/7/6
f 348/7/6 344/7/6 349/7/6
f 349/7/6 344/7/6 350/7/6
f 350/7/6 344/7/6 351/7/6
f 345/7/6 346/7/6 352/7/6
f 347/7/6 348/7/6 353/7/6
f 348/7/6 349/7/6 353/7/6
f 353/7/6 349/7/6 354/7/6
f 350/7/6 351/7/6 355/7/6
f 351/7/6 352/7/6 355/7/6
f 355/7/6 352/7/6 356/7/6
f 319/7/6 329/7/6 357/7/6
f 347/7/6 353/7/6 358/7/6
f 358/7/6 353/7/6 359/7/6
f 357/7/6 358/7/6 359/7/6
f 356/7/6 352/7/6 362/7/6
f 359/7/6 360/7/6 363/7/6
f 361/7/6 362/7/6 364/7/6
f 359/7/6 363/7/6 365/7/6
f 363/7/6 364/7/6 365/7/6
f 319/7/6 357/7/6 365/7/6
f 357/7/6 359/7/6 365/7/6
f 364/7/6 362/7/6 366/7/6
f 365/7/6 364/7/6 366/7/6
f 346/7/6 320/7/6 366/7/6
f 352/7/6 346/7/6 366/7/6
f 362/7/6 352/7/6 366/7/6
f 367/1/6 368/1/6 369/1/6
f 369/1/6 368/1/6 370/1/6
f 371/5/6 372/5/6 373/5/6
f 373/5/6 372/5/6 374/5/6
f 375/4/6 376/4/6 378/4/6
f 378/4/6 376/4/6 379/4/6
f 377/4/6 378/4/6 381/4/6
f 381/4/6 378/4/6 382/4/6
f 379/4/6 380/4/6 383/4/6
f 383/4/6 380/4/6 384/4/6
f 382/4/6 383/4/6 385/4/6
f 385/4/6 383/4/6 386/4/6
f 387/3/6 388/3/6 389/3/6
f 389/3/6 388/3/6 390/3/6
f 391/2/6 392/2/6 393/2/6
f 393/2/6 392/2/6 394/2/6
f 395/4/6 396/4/6 398/4/6
f 398/4/6 396/4/6 399/4/6
f 397/4/6 398/4/6 401/4/6
f 401/4/6 398/4/6 402/4/6
f 399/4/6 400/4/6 403/4/6
f 403/4/6 400/4/6 404/4/6
f 402/4/6 403/4/6 405/4/6
f 405/4/6 403/4/6 406/4/6
f 407/4/6 408/4/6 410/4/6
f 410/4/6 408/4/6 411/4/6
f 409/4/6 410/4/6 413/4/6
f 413/4/6 410/4/6 414/4/6
f 411/4/6 412/4/6 415/4/6
f 415/4/6 412/4/6 416/4/6
f 414/4/6 415/4/6 417/4/6
f 417/4/6 415/4/6 418/4/6
