# MagicaVoxel @ Ephtracy

# group
o 

# material
mtllib Ladder.vox.mtl
usemtl palette

# normals
vn -1 0 0
vn 1 0 0
vn 0 0 1
vn 0 0 -1
vn 0 -1 0
vn 0 1 0

# texcoords
vt 0.533203 0.5
vt 0.537109 0.5

# verts
v -0.8 0 0.2
v -0.8 0 -0.2
v -0.8 6.4 0.2
v -0.8 6.4 -0.2
v 0.4 0 0.2
v 0.4 0 -0.2
v 0.4 0.8 0.1
v 0.4 0.8 -0.1
v 0.4 1 0.1
v 0.4 1 -0.1
v 0.4 1.7 0.1
v 0.4 1.7 -0.1
v 0.4 1.9 0.1
v 0.4 1.9 -0.1
v 0.4 2.5 0.1
v 0.4 2.5 -0.1
v 0.4 2.7 0.1
v 0.4 2.7 -0.1
v 0.4 3.3 0.1
v 0.4 3.3 -0.1
v 0.4 3.5 0.1
v 0.4 3.5 -0.1
v 0.4 4.1 0.1
v 0.4 4.1 -0.1
v 0.4 4.3 0.1
v 0.4 4.3 -0.1
v 0.4 4.9 0.1
v 0.4 4.9 -0.1
v 0.4 5.1 0.1
v 0.4 5.1 -0.1
v 0.4 5.6 0.1
v 0.4 5.6 -0.1
v 0.4 5.8 0.1
v 0.4 5.8 -0.1
v 0.4 6.4 0.2
v 0.4 6.4 -0.2
v -0.5 6 0.2
v -0.5 6 0
v -0.5 6.1 0
v -0.5 6.1 -0.1
v -0.5 6.2 0.2
v -0.5 6.2 -0.1
v -0.4 0 0.2
v -0.4 0 -0.2
v -0.4 0.8 0.1
v -0.4 0.8 -0.1
v -0.4 1 0.1
v -0.4 1 -0.1
v -0.4 1.7 0.1
v -0.4 1.7 -0.1
v -0.4 1.9 0.1
v -0.4 1.9 -0.1
v -0.4 2.5 0.1
v -0.4 2.5 -0.1
v -0.4 2.7 0.1
v -0.4 2.7 -0.1
v -0.4 3.3 0.1
v -0.4 3.3 -0.1
v -0.4 3.5 0.1
v -0.4 3.5 -0.1
v -0.4 4.1 0.1
v -0.4 4.1 -0.1
v -0.4 4.3 0.1
v -0.4 4.3 -0.1
v -0.4 4.9 0.1
v -0.4 4.9 -0.1
v -0.4 5.1 0.1
v -0.4 5.1 -0.1
v -0.4 5.6 0.1
v -0.4 5.6 -0.1
v -0.4 5.8 0.1
v -0.4 5.8 -0.1
v -0.4 6 0.2
v -0.4 6 0
v -0.4 6.1 0
v -0.4 6.1 -0.1
v -0.4 6.2 0.2
v -0.4 6.2 -0.1
v -0.4 6.4 0.2
v -0.4 6.4 -0.2
v 0.8 0 0.2
v 0.8 0 -0.2
v 0.8 6.4 0.2
v 0.8 6.4 -0.2
v -0.8 0 0.2
v -0.8 6.4 0.2
v -0.5 6 0.2
v -0.5 6.2 0.2
v -0.4 0 0.2
v -0.4 6 0.2
v -0.4 6.2 0.2
v -0.4 6.4 0.2
v 0.4 0 0.2
v 0.4 6.4 0.2
v 0.8 0 0.2
v 0.8 6.4 0.2
v -0.4 0.8 0.1
v -0.4 1 0.1
v -0.4 1.7 0.1
v -0.4 1.9 0.1
v -0.4 2.5 0.1
v -0.4 2.7 0.1
v -0.4 3.3 0.1
v -0.4 3.5 0.1
v -0.4 4.1 0.1
v -0.4 4.3 0.1
v -0.4 4.9 0.1
v -0.4 5.1 0.1
v -0.4 5.6 0.1
v -0.4 5.8 0.1
v 0.4 0.8 0.1
v 0.4 1 0.1
v 0.4 1.7 0.1
v 0.4 1.9 0.1
v 0.4 2.5 0.1
v 0.4 2.7 0.1
v 0.4 3.3 0.1
v 0.4 3.5 0.1
v 0.4 4.1 0.1
v 0.4 4.3 0.1
v 0.4 4.9 0.1
v 0.4 5.1 0.1
v 0.4 5.6 0.1
v 0.4 5.8 0.1
v -0.5 6 0
v -0.5 6.1 0
v -0.4 6 0
v -0.4 6.1 0
v -0.5 6.1 -0.1
v -0.5 6.2 -0.1
v -0.4 6.1 -0.1
v -0.4 6.2 -0.1
v -0.4 0.8 -0.1
v -0.4 1 -0.1
v -0.4 1.7 -0.1
v -0.4 1.9 -0.1
v -0.4 2.5 -0.1
v -0.4 2.7 -0.1
v -0.4 3.3 -0.1
v -0.4 3.5 -0.1
v -0.4 4.1 -0.1
v -0.4 4.3 -0.1
v -0.4 4.9 -0.1
v -0.4 5.1 -0.1
v -0.4 5.6 -0.1
v -0.4 5.8 -0.1
v 0.4 0.8 -0.1
v 0.4 1 -0.1
v 0.4 1.7 -0.1
v 0.4 1.9 -0.1
v 0.4 2.5 -0.1
v 0.4 2.7 -0.1
v 0.4 3.3 -0.1
v 0.4 3.5 -0.1
v 0.4 4.1 -0.1
v 0.4 4.3 -0.1
v 0.4 4.9 -0.1
v 0.4 5.1 -0.1
v 0.4 5.6 -0.1
v 0.4 5.8 -0.1
v -0.8 0 -0.2
v -0.8 6.4 -0.2
v -0.4 0 -0.2
v -0.4 6.4 -0.2
v 0.4 0 -0.2
v 0.4 6.4 -0.2
v 0.8 0 -0.2
v 0.8 6.4 -0.2
v -0.8 0 0.2
v -0.4 0 0.2
v 0.4 0 0.2
v 0.8 0 0.2
v -0.8 0 -0.2
v -0.4 0 -0.2
v 0.4 0 -0.2
v 0.8 0 -0.2
v -0.4 0.8 0.1
v 0.4 0.8 0.1
v -0.4 0.8 -0.1
v 0.4 0.8 -0.1
v -0.4 1.7 0.1
v 0.4 1.7 0.1
v -0.4 1.7 -0.1
v 0.4 1.7 -0.1
v -0.4 2.5 0.1
v 0.4 2.5 0.1
v -0.4 2.5 -0.1
v 0.4 2.5 -0.1
v -0.4 3.3 0.1
v 0.4 3.3 0.1
v -0.4 3.3 -0.1
v 0.4 3.3 -0.1
v -0.4 4.1 0.1
v 0.4 4.1 0.1
v -0.4 4.1 -0.1
v 0.4 4.1 -0.1
v -0.4 4.9 0.1
v 0.4 4.9 0.1
v -0.4 4.9 -0.1
v 0.4 4.9 -0.1
v -0.4 5.6 0.1
v 0.4 5.6 0.1
v -0.4 5.6 -0.1
v 0.4 5.6 -0.1
v -0.5 6.2 0.2
v -0.4 6.2 0.2
v -0.5 6.2 -0.1
v -0.4 6.2 -0.1
v -0.4 1 0.1
v 0.4 1 0.1
v -0.4 1 -0.1
v 0.4 1 -0.1
v -0.4 1.9 0.1
v 0.4 1.9 0.1
v -0.4 1.9 -0.1
v 0.4 1.9 -0.1
v -0.4 2.7 0.1
v 0.4 2.7 0.1
v -0.4 2.7 -0.1
v 0.4 2.7 -0.1
v -0.4 3.5 0.1
v 0.4 3.5 0.1
v -0.4 3.5 -0.1
v 0.4 3.5 -0.1
v -0.4 4.3 0.1
v 0.4 4.3 0.1
v -0.4 4.3 -0.1
v 0.4 4.3 -0.1
v -0.4 5.1 0.1
v 0.4 5.1 0.1
v -0.4 5.1 -0.1
v 0.4 5.1 -0.1
v -0.4 5.8 0.1
v 0.4 5.8 0.1
v -0.4 5.8 -0.1
v 0.4 5.8 -0.1
v -0.5 6 0.2
v -0.4 6 0.2
v -0.5 6 0
v -0.4 6 0
v -0.5 6.1 0
v -0.4 6.1 0
v -0.5 6.1 -0.1
v -0.4 6.1 -0.1
v -0.8 6.4 0.2
v -0.4 6.4 0.2
v 0.4 6.4 0.2
v 0.8 6.4 0.2
v -0.8 6.4 -0.2
v -0.4 6.4 -0.2
v 0.4 6.4 -0.2
v 0.8 6.4 -0.2

# faces
f 3/2/1 2/2/1 1/2/1
f 4/2/1 2/2/1 3/2/1
f 7/2/1 6/2/1 5/2/1
f 8/2/1 6/2/1 7/2/1
f 9/2/1 7/2/1 5/2/1
f 10/2/1 6/2/1 8/2/1
f 11/2/1 9/2/1 5/2/1
f 11/2/1 10/2/1 9/2/1
f 12/2/1 6/2/1 10/2/1
f 12/2/1 10/2/1 11/2/1
f 13/2/1 11/2/1 5/2/1
f 14/2/1 6/2/1 12/2/1
f 15/2/1 13/2/1 5/2/1
f 15/2/1 14/2/1 13/2/1
f 16/2/1 6/2/1 14/2/1
f 16/2/1 14/2/1 15/2/1
f 17/2/1 15/2/1 5/2/1
f 18/2/1 6/2/1 16/2/1
f 19/2/1 17/2/1 5/2/1
f 19/2/1 18/2/1 17/2/1
f 20/2/1 6/2/1 18/2/1
f 20/2/1 18/2/1 19/2/1
f 21/2/1 19/2/1 5/2/1
f 22/2/1 6/2/1 20/2/1
f 23/2/1 21/2/1 5/2/1
f 23/2/1 22/2/1 21/2/1
f 24/2/1 6/2/1 22/2/1
f 24/2/1 22/2/1 23/2/1
f 25/2/1 23/2/1 5/2/1
f 26/2/1 6/2/1 24/2/1
f 27/2/1 25/2/1 5/2/1
f 27/2/1 26/2/1 25/2/1
f 28/2/1 6/2/1 26/2/1
f 28/2/1 26/2/1 27/2/1
f 29/2/1 27/2/1 5/2/1
f 30/2/1 6/2/1 28/2/1
f 31/2/1 29/2/1 5/2/1
f 31/2/1 30/2/1 29/2/1
f 32/2/1 6/2/1 30/2/1
f 32/2/1 30/2/1 31/2/1
f 33/2/1 31/2/1 5/2/1
f 34/2/1 6/2/1 32/2/1
f 35/2/1 33/2/1 5/2/1
f 35/2/1 34/2/1 33/2/1
f 36/2/1 6/2/1 34/2/1
f 36/2/1 34/2/1 35/2/1
f 37/2/2 38/2/2 39/2/2
f 37/2/2 39/2/2 41/2/2
f 39/2/2 40/2/2 41/2/2
f 41/2/2 40/2/2 42/2/2
f 43/2/2 44/2/2 45/2/2
f 45/2/2 44/2/2 46/2/2
f 43/2/2 45/2/2 47/2/2
f 46/2/2 44/2/2 48/2/2
f 43/2/2 47/2/2 49/2/2
f 47/2/2 48/2/2 49/2/2
f 48/2/2 44/2/2 50/2/2
f 49/2/2 48/2/2 50/2/2
f 43/2/2 49/2/2 51/2/2
f 50/2/2 44/2/2 52/2/2
f 43/2/2 51/2/2 53/2/2
f 51/2/2 52/2/2 53/2/2
f 52/2/2 44/2/2 54/2/2
f 53/2/2 52/2/2 54/2/2
f 43/2/2 53/2/2 55/2/2
f 54/2/2 44/2/2 56/2/2
f 43/2/2 55/2/2 57/2/2
f 55/2/2 56/2/2 57/2/2
f 56/2/2 44/2/2 58/2/2
f 57/2/2 56/2/2 58/2/2
f 43/2/2 57/2/2 59/2/2
f 58/2/2 44/2/2 60/2/2
f 43/2/2 59/2/2 61/2/2
f 59/2/2 60/2/2 61/2/2
f 60/2/2 44/2/2 62/2/2
f 61/2/2 60/2/2 62/2/2
f 43/2/2 61/2/2 63/2/2
f 62/2/2 44/2/2 64/2/2
f 43/2/2 63/2/2 65/2/2
f 63/2/2 64/2/2 65/2/2
f 64/2/2 44/2/2 66/2/2
f 65/2/2 64/2/2 66/2/2
f 43/2/2 65/2/2 67/2/2
f 66/2/2 44/2/2 68/2/2
f 43/2/2 67/2/2 69/2/2
f 67/2/2 68/2/2 69/2/2
f 68/2/2 44/2/2 70/2/2
f 69/2/2 68/2/2 70/2/2
f 43/2/2 69/2/2 71/2/2
f 70/2/2 44/2/2 72/2/2
f 43/2/2 71/2/2 73/2/2
f 71/2/2 72/2/2 73/2/2
f 73/2/2 72/2/2 74/2/2
f 74/2/2 72/2/2 75/2/2
f 72/2/2 44/2/2 76/2/2
f 75/2/2 72/2/2 76/2/2
f 76/2/2 44/2/2 78/2/2
f 77/2/2 78/2/2 79/2/2
f 78/2/2 44/2/2 80/2/2
f 79/2/2 78/2/2 80/2/2
f 81/2/2 82/2/2 83/2/2
f 83/2/2 82/2/2 84/2/2
f 87/2/3 86/2/3 85/2/3
f 88/2/3 86/2/3 87/2/3
f 89/2/3 87/2/3 85/2/3
f 90/2/3 87/2/3 89/2/3
f 91/2/3 86/2/3 88/2/3
f 92/2/3 86/2/3 91/2/3
f 95/2/3 94/2/3 93/2/3
f 96/2/3 94/2/3 95/2/3
f 111/1/3 98/1/3 97/1/3
f 112/1/3 98/1/3 111/1/3
f 113/1/3 100/1/3 99/1/3
f 114/1/3 100/1/3 113/1/3
f 115/1/3 102/1/3 101/1/3
f 116/1/3 102/1/3 115/1/3
f 117/1/3 104/1/3 103/1/3
f 118/1/3 104/1/3 117/1/3
f 119/1/3 106/1/3 105/1/3
f 120/1/3 106/1/3 119/1/3
f 121/1/3 108/1/3 107/1/3
f 122/1/3 108/1/3 121/1/3
f 123/1/3 110/1/3 109/1/3
f 124/1/3 110/1/3 123/1/3
f 127/2/3 126/2/3 125/2/3
f 128/2/3 126/2/3 127/2/3
f 131/2/3 130/2/3 129/2/3
f 132/2/3 130/2/3 131/2/3
f 133/1/4 134/1/4 147/1/4
f 147/1/4 134/1/4 148/1/4
f 135/1/4 136/1/4 149/1/4
f 149/1/4 136/1/4 150/1/4
f 137/1/4 138/1/4 151/1/4
f 151/1/4 138/1/4 152/1/4
f 139/1/4 140/1/4 153/1/4
f 153/1/4 140/1/4 154/1/4
f 141/1/4 142/1/4 155/1/4
f 155/1/4 142/1/4 156/1/4
f 143/1/4 144/1/4 157/1/4
f 157/1/4 144/1/4 158/1/4
f 145/1/4 146/1/4 159/1/4
f 159/1/4 146/1/4 160/1/4
f 161/2/4 162/2/4 163/2/4
f 163/2/4 162/2/4 164/2/4
f 165/2/4 166/2/4 167/2/4
f 167/2/4 166/2/4 168/2/4
f 173/2/5 170/2/5 169/2/5
f 174/2/5 170/2/5 173/2/5
f 175/2/5 172/2/5 171/2/5
f 176/2/5 172/2/5 175/2/5
f 179/1/5 178/1/5 177/1/5
f 180/1/5 178/1/5 179/1/5
f 183/1/5 182/1/5 181/1/5
f 184/1/5 182/1/5 183/1/5
f 187/1/5 186/1/5 185/1/5
f 188/1/5 186/1/5 187/1/5
f 191/1/5 190/1/5 189/1/5
f 192/1/5 190/1/5 191/1/5
f 195/1/5 194/1/5 193/1/5
f 196/1/5 194/1/5 195/1/5
f 199/1/5 198/1/5 197/1/5
f 200/1/5 198/1/5 199/1/5
f 203/1/5 202/1/5 201/1/5
f 204/1/5 202/1/5 203/1/5
f 207/2/5 206/2/5 205/2/5
f 208/2/5 206/2/5 207/2/5
f 209/1/6 210/1/6 211/1/6
f 211/1/6 210/1/6 212/1/6
f 213/1/6 214/1/6 215/1/6
f 215/1/6 214/1/6 216/1/6
f 217/1/6 218/1/6 219/1/6
f 219/1/6 218/1/6 220/1/6
f 221/1/6 222/1/6 223/1/6
f 223/1/6 222/1/6 224/1/6
f 225/1/6 226/1/6 227/1/6
f 227/1/6 226/1/6 228/1/6
f 229/1/6 230/1/6 231/1/6
f 231/1/6 230/1/6 232/1/6
f 233/1/6 234/1/6 235/1/6
f 235/1/6 234/1/6 236/1/6
f 237/2/6 238/2/6 239/2/6
f 239/2/6 238/2/6 240/2/6
f 241/2/6 242/2/6 243/2/6
f 243/2/6 242/2/6 244/2/6
f 245/2/6 246/2/6 249/2/6
f 249/2/6 246/2/6 250/2/6
f 247/2/6 248/2/6 251/2/6
f 251/2/6 248/2/6 252/2/6
