# MagicaVoxel @ Ephtracy

# group
o 

# material
mtllib Medicman.vox.mtl
usemtl palette

# normals
vn -1 0 0
vn 1 0 0
vn 0 0 1
vn 0 0 -1
vn 0 -1 0
vn 0 1 0

# texcoords
vt 0.0839844 0.5
vt 0.287109 0.5
vt 0.291016 0.5
vt 0.310547 0.5
vt 0.365234 0.5
vt 0.748047 0.5
vt 0.951172 0.5
vt 0.958984 0.5
vt 0.978516 0.5
vt 0.982422 0.5
vt 0.994141 0.5

# verts
v -0.6 0.3 0.1
v -0.6 0.3 -0.1
v -0.6 0.5 0.1
v -0.6 0.5 -0.1
v -0.6 0.7 0.1
v -0.6 0.7 -0.1
v -0.6 1.3 0.4
v -0.6 1.3 -0.3
v -0.6 1.5 0.4
v -0.6 1.5 -0.3
v -0.5 0.7 0.2
v -0.5 0.7 0.1
v -0.5 0.7 -0.1
v -0.5 0.7 -0.2
v -0.5 0.8 0.2
v -0.5 0.8 -0.2
v -0.5 0.9 0.3
v -0.5 0.9 0
v -0.5 0.9 -0.4
v -0.5 1.3 0.3
v -0.5 1.3 0
v -0.5 1.3 -0.3
v -0.5 1.5 0.4
v -0.5 1.5 -0.3
v -0.5 1.5 -0.4
v -0.5 1.6 0.4
v -0.5 1.6 -0.3
v -0.4 0.3 0.2
v -0.4 0.3 0.1
v -0.4 0.3 -0.1
v -0.4 0.3 -0.2
v -0.4 0.5 0.1
v -0.4 0.5 -0.1
v -0.4 0.6 0.3
v -0.4 0.6 0.2
v -0.4 0.6 -0.1
v -0.4 0.7 0.2
v -0.4 0.7 0.1
v -0.4 0.7 -0.1
v -0.4 0.7 -0.2
v -0.4 0.7 -0.3
v -0.4 0.8 0.3
v -0.4 0.8 0.2
v -0.4 0.8 0
v -0.4 0.8 -0.2
v -0.4 0.8 -0.3
v -0.4 0.9 0.3
v -0.4 0.9 0
v -0.4 0.9 -0.2
v -0.4 1.6 0.3
v -0.4 1.6 -0.2
v -0.4 1.7 0.3
v -0.4 1.7 -0.2
v -0.3 0 0.2
v -0.3 0 -0.1
v -0.3 0.1 0.2
v -0.3 0.1 0.1
v -0.3 0.2 0.1
v -0.3 0.2 -0.1
v -0.3 0.3 0.3
v -0.3 0.3 0.2
v -0.3 0.3 0.1
v -0.3 0.3 -0.1
v -0.3 0.3 -0.2
v -0.3 0.3 -0.3
v -0.3 0.5 0.4
v -0.3 0.5 0.3
v -0.3 0.6 0.3
v -0.3 0.6 0.2
v -0.3 0.7 0.4
v -0.3 0.7 0.3
v -0.3 0.7 -0.2
v -0.3 0.7 -0.3
v -0.3 0.8 -0.2
v -0.3 0.8 -0.3
v -0.3 0.8 -0.4
v -0.3 0.9 -0.2
v -0.3 0.9 -0.3
v -0.3 0.9 -0.4
v 0.1 0 0.2
v 0.1 0 -0.1
v 0.1 0.1 0.2
v 0.1 0.1 0.1
v 0.1 0.2 0.1
v 0.1 0.2 -0.1
v 0.1 0.3 0.3
v 0.1 0.3 0.2
v 0.1 0.3 0.1
v 0.1 0.3 -0.1
v 0.1 0.7 0.3
v 0.1 0.7 0.2
v 0.2 0.5 0.4
v 0.2 0.5 0.3
v 0.2 0.6 0.4
v 0.2 0.6 0.3
v 0.2 0.7 0.4
v 0.2 0.7 0.3
v 0.2 0.7 0.2
v 0.2 0.8 0.3
v 0.2 0.8 0.2
v 0.4 1.3 0.4
v 0.4 1.3 0.3
v 0.4 1.4 0.4
v 0.4 1.4 0.3
v -0.4 1.3 0.4
v -0.4 1.3 0.3
v -0.4 1.4 0.4
v -0.4 1.4 0.3
v -0.2 0.5 0.4
v -0.2 0.5 0.3
v -0.2 0.6 0.4
v -0.2 0.6 0.3
v -0.2 0.7 0.3
v -0.2 0.7 0.2
v -0.2 0.8 0.3
v -0.2 0.8 0.2
v -0.1 0 0.2
v -0.1 0 -0.1
v -0.1 0.1 0.2
v -0.1 0.1 0.1
v -0.1 0.2 0.1
v -0.1 0.2 -0.1
v -0.1 0.3 0.3
v -0.1 0.3 0.2
v -0.1 0.3 0.1
v -0.1 0.3 -0.1
v -0.1 0.6 0.4
v -0.1 0.6 0.3
v -0.1 0.7 0.4
v -0.1 0.7 0.3
v -0.1 0.7 0.2
v 0.3 0 0.2
v 0.3 0 -0.1
v 0.3 0.1 0.2
v 0.3 0.1 0.1
v 0.3 0.2 0.1
v 0.3 0.2 -0.1
v 0.3 0.3 0.3
v 0.3 0.3 0.2
v 0.3 0.3 0.1
v 0.3 0.3 -0.1
v 0.3 0.3 -0.2
v 0.3 0.3 -0.3
v 0.3 0.5 0.3
v 0.3 0.6 0.3
v 0.3 0.6 0.2
v 0.3 0.7 -0.2
v 0.3 0.7 -0.3
v 0.3 0.8 -0.2
v 0.3 0.8 -0.3
v 0.3 0.8 -0.4
v 0.3 0.9 -0.2
v 0.3 0.9 -0.3
v 0.3 0.9 -0.4
v 0.4 0.3 0.2
v 0.4 0.3 0.1
v 0.4 0.3 -0.1
v 0.4 0.3 -0.2
v 0.4 0.5 0.4
v 0.4 0.5 0.3
v 0.4 0.5 0.1
v 0.4 0.5 -0.1
v 0.4 0.6 0.3
v 0.4 0.6 0.2
v 0.4 0.7 0.4
v 0.4 0.7 0.3
v 0.4 0.7 0.2
v 0.4 0.7 0.1
v 0.4 0.7 -0.1
v 0.4 0.7 -0.2
v 0.4 0.7 -0.3
v 0.4 0.8 0.3
v 0.4 0.8 0.2
v 0.4 0.8 0
v 0.4 0.8 -0.2
v 0.4 0.8 -0.3
v 0.4 0.9 0.3
v 0.4 0.9 0
v 0.4 0.9 -0.2
v 0.4 1.6 0.3
v 0.4 1.6 -0.2
v 0.4 1.7 0.3
v 0.4 1.7 -0.2
v 0.5 0.7 0.2
v 0.5 0.7 0.1
v 0.5 0.7 -0.1
v 0.5 0.7 -0.2
v 0.5 0.8 0.2
v 0.5 0.8 -0.2
v 0.5 0.9 0.3
v 0.5 0.9 0
v 0.5 0.9 -0.4
v 0.5 1.3 0.3
v 0.5 1.3 0
v 0.5 1.3 -0.3
v 0.5 1.5 0.4
v 0.5 1.5 -0.3
v 0.5 1.5 -0.4
v 0.5 1.6 0.4
v 0.5 1.6 -0.3
v 0.6 0.3 0.1
v 0.6 0.3 -0.1
v 0.6 0.5 0.1
v 0.6 0.5 -0.1
v 0.6 0.7 0.1
v 0.6 0.7 -0.1
v 0.6 1.3 0.4
v 0.6 1.3 -0.3
v 0.6 1.5 0.4
v 0.6 1.5 -0.3
v -0.6 1.3 0.4
v -0.6 1.5 0.4
v -0.5 1.5 0.4
v -0.5 1.6 0.4
v -0.4 1.3 0.4
v -0.4 1.4 0.4
v -0.3 0.5 0.4
v -0.3 0.7 0.4
v -0.2 0.5 0.4
v -0.2 0.6 0.4
v -0.1 0.6 0.4
v -0.1 0.7 0.4
v 0.2 0.5 0.4
v 0.2 0.6 0.4
v 0.2 0.7 0.4
v 0.3 0.5 0.4
v 0.3 0.6 0.4
v 0.4 0.5 0.4
v 0.4 0.7 0.4
v 0.4 1.3 0.4
v 0.4 1.4 0.4
v 0.5 1.5 0.4
v 0.5 1.6 0.4
v 0.6 1.3 0.4
v 0.6 1.5 0.4
v -0.5 0.9 0.3
v -0.5 1.3 0.3
v -0.4 0.6 0.3
v -0.4 0.8 0.3
v -0.4 0.9 0.3
v -0.4 1.3 0.3
v -0.4 1.4 0.3
v -0.4 1.6 0.3
v -0.4 1.7 0.3
v -0.3 0.3 0.3
v -0.3 0.5 0.3
v -0.3 0.6 0.3
v -0.3 0.7 0.3
v -0.3 0.8 0.3
v -0.3 1.1 0.3
v -0.3 1.3 0.3
v -0.2 0.5 0.3
v -0.2 0.6 0.3
v -0.2 0.7 0.3
v -0.2 0.8 0.3
v -0.2 1.1 0.3
v -0.2 1.3 0.3
v -0.1 0.3 0.3
v -0.1 0.6 0.3
v -0.1 0.9 0.3
v -0.1 1 0.3
v -0.1 1.1 0.3
v -0.1 1.3 0.3
v 0.1 0.3 0.3
v 0.1 0.7 0.3
v 0.1 0.9 0.3
v 0.1 1 0.3
v 0.1 1.1 0.3
v 0.1 1.3 0.3
v 0.2 0.5 0.3
v 0.2 0.6 0.3
v 0.2 0.7 0.3
v 0.2 0.8 0.3
v 0.2 1.1 0.3
v 0.2 1.3 0.3
v 0.3 0.3 0.3
v 0.3 0.5 0.3
v 0.3 0.7 0.3
v 0.3 0.8 0.3
v 0.3 1.1 0.3
v 0.3 1.3 0.3
v 0.4 0.7 0.3
v 0.4 0.8 0.3
v 0.4 0.9 0.3
v 0.4 1.3 0.3
v 0.4 1.4 0.3
v 0.4 1.6 0.3
v 0.4 1.7 0.3
v 0.5 0.9 0.3
v 0.5 1.3 0.3
v -0.5 0.7 0.2
v -0.5 0.8 0.2
v -0.4 0.3 0.2
v -0.4 0.6 0.2
v -0.4 0.7 0.2
v -0.4 0.8 0.2
v -0.3 0 0.2
v -0.3 0.1 0.2
v -0.3 0.3 0.2
v -0.3 0.6 0.2
v -0.2 0.7 0.2
v -0.2 0.8 0.2
v -0.1 0 0.2
v -0.1 0.1 0.2
v -0.1 0.3 0.2
v -0.1 0.7 0.2
v -0.1 0.8 0.2
v 0.1 0 0.2
v 0.1 0.1 0.2
v 0.1 0.3 0.2
v 0.1 0.7 0.2
v 0.1 0.8 0.2
v 0.2 0.7 0.2
v 0.2 0.8 0.2
v 0.3 0 0.2
v 0.3 0.1 0.2
v 0.3 0.3 0.2
v 0.3 0.6 0.2
v 0.4 0.3 0.2
v 0.4 0.6 0.2
v 0.4 0.7 0.2
v 0.4 0.8 0.2
v 0.5 0.7 0.2
v 0.5 0.8 0.2
v -0.6 0.3 0.1
v -0.6 0.5 0.1
v -0.6 0.7 0.1
v -0.5 0.7 0.1
v -0.4 0.3 0.1
v -0.4 0.5 0.1
v -0.4 0.7 0.1
v -0.3 0.1 0.1
v -0.3 0.2 0.1
v -0.3 0.3 0.1
v -0.1 0.1 0.1
v -0.1 0.2 0.1
v -0.1 0.3 0.1
v 0.1 0.1 0.1
v 0.1 0.2 0.1
v 0.1 0.3 0.1
v 0.3 0.1 0.1
v 0.3 0.2 0.1
v 0.3 0.3 0.1
v 0.4 0.3 0.1
v 0.4 0.5 0.1
v 0.4 0.7 0.1
v 0.5 0.7 0.1
v 0.6 0.3 0.1
v 0.6 0.5 0.1
v 0.6 0.7 0.1
v 0.3 0.5 0.3
v 0.3 0.6 0.3
v 0.4 0.5 0.3
v 0.4 0.6 0.3
v -0.6 0.3 -0.1
v -0.6 0.5 -0.1
v -0.6 0.7 -0.1
v -0.5 0.5 -0.1
v -0.5 0.6 -0.1
v -0.5 0.7 -0.1
v -0.4 0.3 -0.1
v -0.4 0.5 -0.1
v -0.4 0.6 -0.1
v -0.4 0.7 -0.1
v -0.3 0 -0.1
v -0.3 0.2 -0.1
v -0.3 0.3 -0.1
v -0.1 0 -0.1
v -0.1 0.2 -0.1
v -0.1 0.3 -0.1
v 0.1 0 -0.1
v 0.1 0.2 -0.1
v 0.1 0.3 -0.1
v 0.3 0 -0.1
v 0.3 0.2 -0.1
v 0.3 0.3 -0.1
v 0.4 0.3 -0.1
v 0.4 0.5 -0.1
v 0.4 0.7 -0.1
v 0.5 0.7 -0.1
v 0.6 0.3 -0.1
v 0.6 0.5 -0.1
v 0.6 0.7 -0.1
v -0.5 0.7 -0.2
v -0.5 0.8 -0.2
v -0.4 0.3 -0.2
v -0.4 0.7 -0.2
v -0.4 0.8 -0.2
v -0.4 0.9 -0.2
v -0.4 1.6 -0.2
v -0.4 1.7 -0.2
v -0.3 0.3 -0.2
v -0.3 0.7 -0.2
v -0.3 0.8 -0.2
v -0.3 0.9 -0.2
v 0.3 0.3 -0.2
v 0.3 0.7 -0.2
v 0.3 0.8 -0.2
v 0.3 0.9 -0.2
v 0.4 0.3 -0.2
v 0.4 0.7 -0.2
v 0.4 0.8 -0.2
v 0.4 0.9 -0.2
v 0.4 1.6 -0.2
v 0.4 1.7 -0.2
v 0.5 0.7 -0.2
v 0.5 0.8 -0.2
v -0.6 1.3 -0.3
v -0.6 1.5 -0.3
v -0.5 1.3 -0.3
v -0.5 1.5 -0.3
v -0.5 1.6 -0.3
v -0.4 0.7 -0.3
v -0.4 0.8 -0.3
v -0.3 0.3 -0.3
v -0.3 0.7 -0.3
v -0.3 0.8 -0.3
v 0.3 0.3 -0.3
v 0.3 0.7 -0.3
v 0.3 0.8 -0.3
v 0.4 0.7 -0.3
v 0.4 0.8 -0.3
v 0.5 1.3 -0.3
v 0.5 1.5 -0.3
v 0.5 1.6 -0.3
v 0.6 1.3 -0.3
v 0.6 1.5 -0.3
v -0.5 0.9 -0.4
v -0.5 1.5 -0.4
v -0.3 0.8 -0.4
v -0.3 0.9 -0.4
v 0.3 0.8 -0.4
v 0.3 0.9 -0.4
v 0.5 0.9 -0.4
v 0.5 1.5 -0.4
v -0.3 0 0.2
v -0.1 0 0.2
v 0.1 0 0.2
v 0.3 0 0.2
v -0.3 0 -0.1
v -0.1 0 -0.1
v 0.1 0 -0.1
v 0.3 0 -0.1
v -0.3 0.3 0.3
v -0.1 0.3 0.3
v 0.1 0.3 0.3
v 0.3 0.3 0.3
v -0.4 0.3 0.2
v -0.3 0.3 0.2
v -0.1 0.3 0.2
v 0.1 0.3 0.2
v 0.3 0.3 0.2
v 0.4 0.3 0.2
v -0.6 0.3 0.1
v -0.4 0.3 0.1
v -0.3 0.3 0.1
v -0.1 0.3 0.1
v 0.1 0.3 0.1
v 0.3 0.3 0.1
v 0.4 0.3 0.1
v 0.6 0.3 0.1
v -0.6 0.3 -0.1
v -0.4 0.3 -0.1
v -0.3 0.3 -0.1
v -0.1 0.3 -0.1
v 0.1 0.3 -0.1
v 0.3 0.3 -0.1
v 0.4 0.3 -0.1
v 0.6 0.3 -0.1
v -0.4 0.3 -0.2
v -0.3 0.3 -0.2
v 0.3 0.3 -0.2
v 0.4 0.3 -0.2
v -0.3 0.3 -0.3
v 0.3 0.3 -0.3
v -0.3 0.5 0.4
v -0.2 0.5 0.4
v 0.2 0.5 0.4
v 0.3 0.5 0.4
v 0.4 0.5 0.4
v -0.3 0.5 0.3
v -0.2 0.5 0.3
v 0.2 0.5 0.3
v 0.3 0.5 0.3
v 0.4 0.5 0.3
v -0.2 0.6 0.4
v -0.1 0.6 0.4
v -0.4 0.6 0.3
v -0.3 0.6 0.3
v -0.2 0.6 0.3
v -0.1 0.6 0.3
v 0.3 0.6 0.3
v 0.4 0.6 0.3
v -0.4 0.6 0.2
v -0.3 0.6 0.2
v 0.3 0.6 0.2
v 0.4 0.6 0.2
v -0.5 0.7 0.2
v -0.4 0.7 0.2
v 0.4 0.7 0.2
v 0.5 0.7 0.2
v -0.5 0.7 0.1
v -0.4 0.7 0.1
v 0.4 0.7 0.1
v 0.5 0.7 0.1
v -0.5 0.7 -0.1
v -0.4 0.7 -0.1
v 0.4 0.7 -0.1
v 0.5 0.7 -0.1
v -0.5 0.7 -0.2
v -0.4 0.7 -0.2
v -0.3 0.7 -0.2
v 0.3 0.7 -0.2
v 0.4 0.7 -0.2
v 0.5 0.7 -0.2
v -0.4 0.7 -0.3
v -0.3 0.7 -0.3
v 0.3 0.7 -0.3
v 0.4 0.7 -0.3
v -0.2 0.8 0.3
v 0.2 0.8 0.3
v -0.2 0.8 0.2
v -0.1 0.8 0.2
v 0.1 0.8 0.2
v 0.2 0.8 0.2
v -0.3 0.8 -0.3
v 0.3 0.8 -0.3
v -0.3 0.8 -0.4
v 0.3 0.8 -0.4
v -0.5 0.9 0.3
v -0.4 0.9 0.3
v 0.4 0.9 0.3
v 0.5 0.9 0.3
v -0.5 0.9 0
v -0.4 0.9 0
v 0.4 0.9 0
v 0.5 0.9 0
v -0.4 0.9 -0.2
v -0.3 0.9 -0.2
v 0.3 0.9 -0.2
v 0.4 0.9 -0.2
v -0.3 0.9 -0.3
v 0.3 0.9 -0.3
v -0.5 0.9 -0.4
v -0.3 0.9 -0.4
v 0.3 0.9 -0.4
v 0.5 0.9 -0.4
v -0.6 1.3 0.4
v -0.4 1.3 0.4
v 0.4 1.3 0.4
v 0.6 1.3 0.4
v -0.5 1.3 0.3
v -0.4 1.3 0.3
v 0.4 1.3 0.3
v 0.5 1.3 0.3
v -0.5 1.3 0
v 0.5 1.3 0
v -0.6 1.3 -0.3
v -0.5 1.3 -0.3
v 0.5 1.3 -0.3
v 0.6 1.3 -0.3
v -0.4 1.4 0.4
v 0.4 1.4 0.4
v -0.4 1.4 0.3
v 0.4 1.4 0.3
v -0.3 0.1 0.2
v -0.1 0.1 0.2
v 0.1 0.1 0.2
v 0.3 0.1 0.2
v -0.3 0.1 0.1
v -0.1 0.1 0.1
v 0.1 0.1 0.1
v 0.3 0.1 0.1
v -0.3 0.7 0.4
v -0.1 0.7 0.4
v 0.2 0.7 0.4
v 0.4 0.7 0.4
v -0.3 0.7 0.3
v -0.2 0.7 0.3
v -0.1 0.7 0.3
v 0.1 0.7 0.3
v 0.2 0.7 0.3
v 0.3 0.7 0.3
v 0.4 0.7 0.3
v -0.2 0.7 0.2
v -0.1 0.7 0.2
v 0.1 0.7 0.2
v 0.2 0.7 0.2
v -0.6 0.7 0.1
v -0.5 0.7 0.1
v 0.5 0.7 0.1
v 0.6 0.7 0.1
v -0.6 0.7 -0.1
v -0.5 0.7 -0.1
v 0.5 0.7 -0.1
v 0.6 0.7 -0.1
v -0.5 0.8 0.2
v -0.4 0.8 0.2
v 0.4 0.8 0.2
v 0.5 0.8 0.2
v -0.4 0.8 0
v 0.4 0.8 0
v -0.5 0.8 -0.2
v -0.4 0.8 -0.2
v -0.3 0.8 -0.2
v 0.3 0.8 -0.2
v 0.4 0.8 -0.2
v 0.5 0.8 -0.2
v -0.4 0.8 -0.3
v -0.3 0.8 -0.3
v 0.3 0.8 -0.3
v 0.4 0.8 -0.3
v -0.6 1.5 0.4
v -0.5 1.5 0.4
v 0.5 1.5 0.4
v 0.6 1.5 0.4
v -0.6 1.5 -0.3
v -0.5 1.5 -0.3
v 0.5 1.5 -0.3
v 0.6 1.5 -0.3
v -0.5 1.5 -0.4
v 0.5 1.5 -0.4
v -0.5 1.6 0.4
v 0.5 1.6 0.4
v -0.4 1.6 0.3
v 0.4 1.6 0.3
v -0.4 1.6 -0.2
v 0.4 1.6 -0.2
v -0.5 1.6 -0.3
v 0.5 1.6 -0.3
v -0.4 1.7 0.3
v 0.4 1.7 0.3
v -0.4 1.7 -0.2
v 0.4 1.7 -0.2

# faces
f 3/2/1 2/2/1 1/2/1
f 4/2/1 2/2/1 3/2/1
f 5/8/1 4/8/1 3/8/1
f 6/8/1 4/8/1 5/8/1
f 9/4/1 8/4/1 7/4/1
f 10/4/1 8/4/1 9/4/1
f 15/10/1 12/10/1 11/10/1
f 15/10/1 14/10/1 13/10/1
f 15/10/1 13/10/1 12/10/1
f 16/10/1 14/10/1 15/10/1
f 20/2/1 18/2/1 17/2/1
f 21/4/1 19/4/1 18/4/1
f 21/2/1 18/2/1 20/2/1
f 22/4/1 19/4/1 21/4/1
f 24/4/1 19/4/1 22/4/1
f 25/4/1 19/4/1 24/4/1
f 26/4/1 24/4/1 23/4/1
f 27/4/1 24/4/1 26/4/1
f 32/8/1 29/8/1 28/8/1
f 33/8/1 31/8/1 30/8/1
f 35/8/1 32/8/1 28/8/1
f 36/8/1 31/8/1 33/8/1
f 37/10/1 35/10/1 34/10/1
f 37/8/1 32/8/1 35/8/1
f 38/8/1 32/8/1 37/8/1
f 39/8/1 31/8/1 36/8/1
f 40/8/1 31/8/1 39/8/1
f 42/10/1 37/10/1 34/10/1
f 43/10/1 37/10/1 42/10/1
f 45/10/1 41/10/1 40/10/1
f 46/10/1 41/10/1 45/10/1
f 47/2/1 44/2/1 43/2/1
f 47/2/1 43/2/1 42/2/1
f 48/4/1 45/4/1 44/4/1
f 48/2/1 44/2/1 47/2/1
f 49/4/1 45/4/1 48/4/1
f 52/4/1 51/4/1 50/4/1
f 53/4/1 51/4/1 52/4/1
f 56/5/1 55/5/1 54/5/1
f 57/5/1 55/5/1 56/5/1
f 58/5/1 55/5/1 57/5/1
f 59/5/1 55/5/1 58/5/1
f 62/6/1 59/6/1 58/6/1
f 63/6/1 59/6/1 62/6/1
f 67/8/1 61/8/1 60/8/1
f 68/8/1 61/8/1 67/8/1
f 68/7/1 67/7/1 66/7/1
f 69/8/1 61/8/1 68/8/1
f 70/7/1 68/7/1 66/7/1
f 71/7/1 68/7/1 70/7/1
f 72/8/1 65/8/1 64/8/1
f 73/8/1 65/8/1 72/8/1
f 77/4/1 75/4/1 74/4/1
f 78/10/1 76/10/1 75/10/1
f 78/4/1 75/4/1 77/4/1
f 79/10/1 76/10/1 78/10/1
f 82/5/1 81/5/1 80/5/1
f 83/5/1 81/5/1 82/5/1
f 84/5/1 81/5/1 83/5/1
f 85/5/1 81/5/1 84/5/1
f 88/6/1 85/6/1 84/6/1
f 89/6/1 85/6/1 88/6/1
f 90/8/1 87/8/1 86/8/1
f 91/8/1 87/8/1 90/8/1
f 94/7/1 93/7/1 92/7/1
f 95/7/1 93/7/1 94/7/1
f 96/9/1 95/9/1 94/9/1
f 97/9/1 95/9/1 96/9/1
f 99/8/1 98/8/1 97/8/1
f 100/8/1 98/8/1 99/8/1
f 103/4/1 102/4/1 101/4/1
f 104/4/1 102/4/1 103/4/1
f 105/4/2 106/4/2 107/4/2
f 107/4/2 106/4/2 108/4/2
f 109/7/2 110/7/2 111/7/2
f 111/7/2 110/7/2 112/7/2
f 113/8/2 114/8/2 115/8/2
f 115/8/2 114/8/2 116/8/2
f 117/5/2 118/5/2 119/5/2
f 119/5/2 118/5/2 120/5/2
f 120/5/2 118/5/2 121/5/2
f 121/5/2 118/5/2 122/5/2
f 121/6/2 122/6/2 125/6/2
f 125/6/2 122/6/2 126/6/2
f 123/8/2 124/8/2 128/8/2
f 127/7/2 128/7/2 129/7/2
f 128/8/2 124/8/2 130/8/2
f 129/7/2 128/7/2 130/7/2
f 130/8/2 124/8/2 131/8/2
f 132/5/2 133/5/2 134/5/2
f 134/5/2 133/5/2 135/5/2
f 135/5/2 133/5/2 136/5/2
f 136/5/2 133/5/2 137/5/2
f 136/6/2 137/6/2 140/6/2
f 140/6/2 137/6/2 141/6/2
f 138/8/2 139/8/2 144/8/2
f 144/8/2 139/8/2 145/8/2
f 145/8/2 139/8/2 146/8/2
f 142/8/2 143/8/2 147/8/2
f 147/8/2 143/8/2 148/8/2
f 149/4/2 150/4/2 152/4/2
f 150/10/2 151/10/2 153/10/2
f 152/4/2 150/4/2 153/4/2
f 153/10/2 151/10/2 154/10/2
f 155/8/2 156/8/2 161/8/2
f 157/8/2 158/8/2 162/8/2
f 159/9/2 160/9/2 163/9/2
f 155/8/2 161/8/2 164/8/2
f 159/9/2 163/9/2 165/9/2
f 163/10/2 164/10/2 166/10/2
f 165/9/2 163/9/2 166/9/2
f 164/8/2 161/8/2 167/8/2
f 166/10/2 164/10/2 167/10/2
f 167/8/2 161/8/2 168/8/2
f 162/8/2 158/8/2 169/8/2
f 169/8/2 158/8/2 170/8/2
f 166/10/2 167/10/2 172/10/2
f 172/10/2 167/10/2 173/10/2
f 170/10/2 171/10/2 175/10/2
f 175/10/2 171/10/2 176/10/2
f 173/2/2 174/2/2 177/2/2
f 172/2/2 173/2/2 177/2/2
f 174/4/2 175/4/2 178/4/2
f 177/2/2 174/2/2 178/2/2
f 178/4/2 175/4/2 179/4/2
f 180/4/2 181/4/2 182/4/2
f 182/4/2 181/4/2 183/4/2
f 184/10/2 185/10/2 188/10/2
f 186/10/2 187/10/2 188/10/2
f 185/10/2 186/10/2 188/10/2
f 188/10/2 187/10/2 189/10/2
f 190/2/2 191/2/2 193/2/2
f 191/4/2 192/4/2 194/4/2
f 193/2/2 191/2/2 194/2/2
f 194/4/2 192/4/2 195/4/2
f 195/4/2 192/4/2 197/4/2
f 197/4/2 192/4/2 198/4/2
f 196/4/2 197/4/2 199/4/2
f 199/4/2 197/4/2 200/4/2
f 201/2/2 202/2/2 203/2/2
f 203/2/2 202/2/2 204/2/2
f 203/8/2 204/8/2 205/8/2
f 205/8/2 204/8/2 206/8/2
f 207/4/2 208/4/2 209/4/2
f 209/4/2 208/4/2 210/4/2
f 213/4/3 212/4/3 211/4/3
f 215/4/3 213/4/3 211/4/3
f 215/4/3 214/4/3 213/4/3
f 216/4/3 214/4/3 215/4/3
f 219/7/3 218/7/3 217/7/3
f 220/7/3 218/7/3 219/7/3
f 221/7/3 218/7/3 220/7/3
f 222/7/3 218/7/3 221/7/3
f 226/7/3 224/7/3 223/7/3
f 227/9/3 225/9/3 224/9/3
f 227/7/3 224/7/3 226/7/3
f 228/9/3 227/9/3 226/9/3
f 229/9/3 225/9/3 227/9/3
f 229/9/3 227/9/3 228/9/3
f 231/4/3 214/4/3 216/4/3
f 232/4/3 231/4/3 230/4/3
f 232/4/3 214/4/3 231/4/3
f 233/4/3 214/4/3 232/4/3
f 234/4/3 232/4/3 230/4/3
f 235/4/3 232/4/3 234/4/3
f 240/2/3 237/2/3 236/2/3
f 241/2/3 237/2/3 240/2/3
f 247/10/3 239/10/3 238/10/3
f 248/10/3 239/10/3 247/10/3
f 249/2/3 240/2/3 239/2/3
f 249/10/3 239/10/3 248/10/3
f 249/2/3 241/2/3 240/2/3
f 249/2/3 242/2/3 241/2/3
f 250/2/3 242/2/3 249/2/3
f 251/2/3 242/2/3 250/2/3
f 252/8/3 246/8/3 245/8/3
f 254/8/3 249/8/3 248/8/3
f 255/2/3 250/2/3 249/2/3
f 255/8/3 249/8/3 254/8/3
f 256/8/3 251/8/3 250/8/3
f 256/2/3 250/2/3 255/2/3
f 257/2/3 242/2/3 251/2/3
f 257/8/3 251/8/3 256/8/3
f 258/8/3 253/8/3 252/8/3
f 258/8/3 252/8/3 245/8/3
f 259/8/3 253/8/3 258/8/3
f 260/2/3 256/2/3 255/2/3
f 261/2/3 256/2/3 260/2/3
f 262/11/3 257/11/3 256/11/3
f 262/2/3 256/2/3 261/2/3
f 263/2/3 242/2/3 257/2/3
f 263/11/3 257/11/3 262/11/3
f 266/1/3 261/1/3 260/1/3
f 266/2/3 260/2/3 255/2/3
f 267/2/3 262/2/3 261/2/3
f 267/1/3 261/1/3 266/1/3
f 267/2/3 263/2/3 262/2/3
f 268/2/3 263/2/3 267/2/3
f 269/2/3 242/2/3 263/2/3
f 269/2/3 263/2/3 268/2/3
f 270/8/3 265/8/3 264/8/3
f 271/8/3 265/8/3 270/8/3
f 272/8/3 265/8/3 271/8/3
f 273/2/3 268/2/3 267/2/3
f 273/2/3 266/2/3 255/2/3
f 273/2/3 267/2/3 266/2/3
f 274/11/3 269/11/3 268/11/3
f 274/2/3 268/2/3 273/2/3
f 275/2/3 242/2/3 269/2/3
f 275/11/3 269/11/3 274/11/3
f 276/8/3 270/8/3 264/8/3
f 277/8/3 270/8/3 276/8/3
f 278/8/3 273/8/3 272/8/3
f 279/2/3 274/2/3 273/2/3
f 279/8/3 273/8/3 278/8/3
f 280/8/3 275/8/3 274/8/3
f 280/2/3 274/2/3 279/2/3
f 281/2/3 242/2/3 275/2/3
f 281/8/3 275/8/3 280/8/3
f 282/10/3 279/10/3 278/10/3
f 283/2/3 280/2/3 279/2/3
f 283/10/3 279/10/3 282/10/3
f 283/2/3 281/2/3 280/2/3
f 284/2/3 281/2/3 283/2/3
f 285/2/3 242/2/3 281/2/3
f 285/2/3 281/2/3 284/2/3
f 286/2/3 242/2/3 285/2/3
f 287/4/3 244/4/3 243/4/3
f 288/4/3 244/4/3 287/4/3
f 289/2/3 285/2/3 284/2/3
f 290/2/3 285/2/3 289/2/3
f 295/10/3 292/10/3 291/10/3
f 296/10/3 292/10/3 295/10/3
f 299/8/3 294/8/3 293/8/3
f 300/8/3 294/8/3 299/8/3
f 303/5/3 298/5/3 297/5/3
f 304/5/3 298/5/3 303/5/3
f 306/6/3 302/6/3 301/6/3
f 307/6/3 302/6/3 306/6/3
f 310/6/3 306/6/3 305/6/3
f 311/2/3 307/2/3 306/2/3
f 311/6/3 306/6/3 310/6/3
f 312/2/3 307/2/3 311/2/3
f 313/6/3 312/6/3 311/6/3
f 314/6/3 312/6/3 313/6/3
f 315/5/3 309/5/3 308/5/3
f 316/5/3 309/5/3 315/5/3
f 319/8/3 318/8/3 317/8/3
f 320/8/3 318/8/3 319/8/3
f 323/10/3 322/10/3 321/10/3
f 324/10/3 322/10/3 323/10/3
f 328/8/3 327/8/3 326/8/3
f 329/2/3 326/2/3 325/2/3
f 330/8/3 328/8/3 326/8/3
f 330/2/3 326/2/3 329/2/3
f 331/8/3 328/8/3 330/8/3
f 335/5/3 333/5/3 332/5/3
f 336/6/3 334/6/3 333/6/3
f 336/5/3 333/5/3 335/5/3
f 337/6/3 334/6/3 336/6/3
f 341/5/3 339/5/3 338/5/3
f 342/6/3 340/6/3 339/6/3
f 342/5/3 339/5/3 341/5/3
f 343/6/3 340/6/3 342/6/3
f 347/8/3 346/8/3 345/8/3
f 348/2/3 345/2/3 344/2/3
f 349/8/3 347/8/3 345/8/3
f 349/2/3 345/2/3 348/2/3
f 350/8/3 347/8/3 349/8/3
f 351/9/4 352/9/4 353/9/4
f 353/9/4 352/9/4 354/9/4
f 355/2/4 356/2/4 358/2/4
f 356/8/4 357/8/4 358/8/4
f 358/8/4 357/8/4 359/8/4
f 359/8/4 357/8/4 360/8/4
f 355/2/4 358/2/4 361/2/4
f 358/6/4 359/6/4 362/6/4
f 361/2/4 358/2/4 362/2/4
f 359/8/4 360/8/4 363/8/4
f 362/6/4 359/6/4 363/6/4
f 363/8/4 360/8/4 364/8/4
f 365/5/4 366/5/4 368/5/4
f 366/6/4 367/6/4 369/6/4
f 368/5/4 366/5/4 369/5/4
f 369/6/4 367/6/4 370/6/4
f 371/5/4 372/5/4 374/5/4
f 372/6/4 373/6/4 375/6/4
f 374/5/4 372/5/4 375/5/4
f 375/6/4 373/6/4 376/6/4
f 378/8/4 379/8/4 380/8/4
f 377/2/4 378/2/4 381/2/4
f 378/8/4 380/8/4 382/8/4
f 381/2/4 378/2/4 382/2/4
f 382/8/4 380/8/4 383/8/4
f 384/10/4 385/10/4 387/10/4
f 387/10/4 385/10/4 388/10/4
f 386/8/4 387/8/4 392/8/4
f 392/8/4 387/8/4 393/8/4
f 388/4/4 389/4/4 394/4/4
f 394/4/4 389/4/4 395/4/4
f 396/8/4 397/8/4 400/8/4
f 400/8/4 397/8/4 401/8/4
f 398/4/4 399/4/4 402/4/4
f 402/4/4 399/4/4 403/4/4
f 390/4/4 391/4/4 404/4/4
f 404/4/4 391/4/4 405/4/4
f 401/10/4 402/10/4 406/10/4
f 406/10/4 402/10/4 407/10/4
f 408/4/4 409/4/4 410/4/4
f 410/4/4 409/4/4 411/4/4
f 413/10/4 414/10/4 416/10/4
f 416/10/4 414/10/4 417/10/4
f 415/8/4 416/8/4 418/8/4
f 416/8/4 417/8/4 418/8/4
f 418/8/4 417/8/4 419/8/4
f 419/8/4 417/8/4 420/8/4
f 419/10/4 420/10/4 421/10/4
f 421/10/4 420/10/4 422/10/4
f 411/4/4 412/4/4 424/4/4
f 424/4/4 412/4/4 425/4/4
f 423/4/4 424/4/4 426/4/4
f 426/4/4 424/4/4 427/4/4
f 428/4/4 429/4/4 431/4/4
f 430/10/4 431/10/4 432/10/4
f 431/4/4 429/4/4 433/4/4
f 432/10/4 431/10/4 433/10/4
f 433/4/4 429/4/4 434/4/4
f 434/4/4 429/4/4 435/4/4
f 440/5/5 437/5/5 436/5/5
f 441/5/5 437/5/5 440/5/5
f 442/5/5 439/5/5 438/5/5
f 443/5/5 439/5/5 442/5/5
f 449/8/5 445/8/5 444/8/5
f 450/8/5 445/8/5 449/8/5
f 451/8/5 447/8/5 446/8/5
f 452/8/5 447/8/5 451/8/5
f 455/8/5 449/8/5 448/8/5
f 456/6/5 450/6/5 449/6/5
f 456/6/5 451/6/5 450/6/5
f 456/8/5 449/8/5 455/8/5
f 456/6/5 452/6/5 451/6/5
f 457/6/5 452/6/5 456/6/5
f 458/6/5 452/6/5 457/6/5
f 459/8/5 453/8/5 452/8/5
f 459/6/5 452/6/5 458/6/5
f 460/8/5 453/8/5 459/8/5
f 462/2/5 455/2/5 454/2/5
f 463/8/5 456/8/5 455/8/5
f 463/2/5 455/2/5 462/2/5
f 464/8/5 456/8/5 463/8/5
f 465/3/5 458/3/5 457/3/5
f 466/3/5 458/3/5 465/3/5
f 467/8/5 460/8/5 459/8/5
f 468/2/5 461/2/5 460/2/5
f 468/8/5 460/8/5 467/8/5
f 469/2/5 461/2/5 468/2/5
f 470/8/5 464/8/5 463/8/5
f 471/6/5 467/6/5 466/6/5
f 471/8/5 464/8/5 470/8/5
f 471/6/5 466/6/5 465/6/5
f 471/6/5 465/6/5 464/6/5
f 472/8/5 468/8/5 467/8/5
f 472/6/5 467/6/5 471/6/5
f 473/8/5 468/8/5 472/8/5
f 474/8/5 472/8/5 471/8/5
f 475/8/5 472/8/5 474/8/5
f 481/7/5 477/7/5 476/7/5
f 482/7/5 477/7/5 481/7/5
f 483/7/5 479/7/5 478/7/5
f 484/9/5 480/9/5 479/9/5
f 484/7/5 479/7/5 483/7/5
f 485/9/5 480/9/5 484/9/5
f 490/7/5 487/7/5 486/7/5
f 491/7/5 487/7/5 490/7/5
f 494/10/5 489/10/5 488/10/5
f 495/10/5 489/10/5 494/10/5
f 496/10/5 493/10/5 492/10/5
f 497/10/5 493/10/5 496/10/5
f 502/10/5 499/10/5 498/10/5
f 503/10/5 499/10/5 502/10/5
f 504/10/5 501/10/5 500/10/5
f 505/10/5 501/10/5 504/10/5
f 510/10/5 507/10/5 506/10/5
f 511/10/5 507/10/5 510/10/5
f 514/10/5 509/10/5 508/10/5
f 515/10/5 509/10/5 514/10/5
f 516/10/5 512/10/5 511/10/5
f 517/10/5 512/10/5 516/10/5
f 518/10/5 514/10/5 513/10/5
f 519/10/5 514/10/5 518/10/5
f 522/2/5 521/2/5 520/2/5
f 523/2/5 521/2/5 522/2/5
f 524/2/5 521/2/5 523/2/5
f 525/2/5 521/2/5 524/2/5
f 528/10/5 527/10/5 526/10/5
f 529/10/5 527/10/5 528/10/5
f 534/2/5 531/2/5 530/2/5
f 535/2/5 531/2/5 534/2/5
f 536/2/5 533/2/5 532/2/5
f 537/2/5 533/2/5 536/2/5
f 538/4/5 535/4/5 534/4/5
f 541/4/5 537/4/5 536/4/5
f 542/4/5 539/4/5 538/4/5
f 543/4/5 541/4/5 540/4/5
f 544/4/5 542/4/5 538/4/5
f 544/4/5 538/4/5 534/4/5
f 545/4/5 542/4/5 544/4/5
f 546/4/5 541/4/5 543/4/5
f 547/4/5 537/4/5 541/4/5
f 547/4/5 541/4/5 546/4/5
f 552/4/5 549/4/5 548/4/5
f 553/4/5 549/4/5 552/4/5
f 554/4/5 551/4/5 550/4/5
f 555/4/5 551/4/5 554/4/5
f 556/4/5 552/4/5 548/4/5
f 557/4/5 551/4/5 555/4/5
f 558/4/5 556/4/5 548/4/5
f 559/4/5 556/4/5 558/4/5
f 560/4/5 551/4/5 557/4/5
f 561/4/5 551/4/5 560/4/5
f 564/4/5 563/4/5 562/4/5
f 565/4/5 563/4/5 564/4/5
f 566/5/6 567/5/6 570/5/6
f 570/5/6 567/5/6 571/5/6
f 568/5/6 569/5/6 572/5/6
f 572/5/6 569/5/6 573/5/6
f 574/7/6 575/7/6 578/7/6
f 578/7/6 575/7/6 579/7/6
f 579/7/6 575/7/6 580/7/6
f 576/9/6 577/9/6 582/9/6
f 582/9/6 577/9/6 583/9/6
f 583/9/6 577/9/6 584/9/6
f 579/8/6 580/8/6 585/8/6
f 585/8/6 580/8/6 586/8/6
f 581/8/6 582/8/6 587/8/6
f 587/8/6 582/8/6 588/8/6
f 589/8/6 590/8/6 593/8/6
f 593/8/6 590/8/6 594/8/6
f 591/8/6 592/8/6 595/8/6
f 595/8/6 592/8/6 596/8/6
f 597/10/6 598/10/6 601/10/6
f 599/10/6 600/10/6 602/10/6
f 597/10/6 601/10/6 603/10/6
f 603/10/6 601/10/6 604/10/6
f 602/10/6 600/10/6 607/10/6
f 607/10/6 600/10/6 608/10/6
f 604/10/6 605/10/6 609/10/6
f 609/10/6 605/10/6 610/10/6
f 606/10/6 607/10/6 611/10/6
f 611/10/6 607/10/6 612/10/6
f 613/4/6 614/4/6 617/4/6
f 617/4/6 614/4/6 618/4/6
f 615/4/6 616/4/6 619/4/6
f 619/4/6 616/4/6 620/4/6
f 618/4/6 619/4/6 621/4/6
f 621/4/6 619/4/6 622/4/6
f 623/4/6 624/4/6 625/4/6
f 625/4/6 624/4/6 626/4/6
f 623/4/6 625/4/6 627/4/6
f 626/4/6 624/4/6 628/4/6
f 623/4/6 627/4/6 629/4/6
f 627/4/6 628/4/6 629/4/6
f 628/4/6 624/4/6 630/4/6
f 629/4/6 628/4/6 630/4/6
f 631/4/6 632/4/6 633/4/6
f 633/4/6 632/4/6 634/4/6
