# MagicaVoxel @ Ephtracy

# group
o 

# material
mtllib Occupied_Chair.vox.mtl
usemtl palette

# normals
vn -1 0 0
vn 1 0 0
vn 0 0 1
vn 0 0 -1
vn 0 -1 0
vn 0 1 0

# texcoords
vt 0.228516 0.5
vt 0.232422 0.5
vt 0.306641 0.5
vt 0.736328 0.5
vt 0.923828 0.5
vt 0.958984 0.5
vt 0.966797 0.5
vt 0.974609 0.5
vt 0.978516 0.5
vt 0.982422 0.5
vt 0.994141 0.5

# verts
v -0.8 0.9 0.5
v -0.8 0.9 0.3
v -0.8 1 0.5
v -0.8 1 0.3
v -0.7 0.8 0.6
v -0.7 0.8 0.1
v -0.7 0.9 0.6
v -0.7 0.9 0.5
v -0.7 0.9 0.3
v -0.7 0.9 0.1
v -0.7 1 0.6
v -0.7 1 0.5
v -0.7 1 0.3
v -0.7 1 0.1
v -0.6 0.8 0.7
v -0.6 0.8 0.6
v -0.6 0.8 0.1
v -0.6 0.8 0
v -0.6 0.9 0.7
v -0.6 0.9 0.6
v -0.6 0.9 0.1
v -0.6 0.9 0
v -0.6 1 0.7
v -0.6 1 0.6
v -0.6 1 0.5
v -0.6 1 0.1
v -0.6 1 0
v -0.6 1.1 0.5
v -0.6 1.1 0.4
v -0.6 1.2 0.7
v -0.6 1.2 0.6
v -0.6 1.4 0.6
v -0.6 1.4 0.5
v -0.6 1.4 0.4
v -0.6 1.4 0.3
v -0.6 1.5 0.6
v -0.6 1.5 0.5
v -0.6 1.5 0.4
v -0.6 1.5 0.3
v -0.6 1.7 0.6
v -0.6 1.7 0.4
v -0.5 0.5 0.2
v -0.5 0.5 -0.3
v -0.5 0.6 0.5
v -0.5 0.6 0.4
v -0.5 0.6 0.2
v -0.5 0.6 -0.3
v -0.5 0.7 0.6
v -0.5 0.7 0.5
v -0.5 0.7 0.2
v -0.5 0.7 -0.1
v -0.5 0.7 -0.3
v -0.5 0.7 -0.4
v -0.5 0.8 0.9
v -0.5 0.8 0.7
v -0.5 0.8 0.6
v -0.5 0.8 0.4
v -0.5 0.9 0.9
v -0.5 0.9 0.7
v -0.5 0.9 -0.1
v -0.5 0.9 -0.3
v -0.5 0.9 -0.4
v -0.5 1 0.9
v -0.5 1 0.7
v -0.5 1 0.5
v -0.5 1 0.1
v -0.5 1.1 0.5
v -0.5 1.1 0.4
v -0.5 1.1 0.1
v -0.5 1.1 0
v -0.5 1.2 0.7
v -0.5 1.2 0.6
v -0.5 1.2 0.1
v -0.5 1.2 0
v -0.5 1.4 0.7
v -0.5 1.4 0.6
v -0.5 1.4 0.5
v -0.5 1.4 0.4
v -0.5 1.4 0.3
v -0.5 1.4 0.2
v -0.5 1.4 0.1
v -0.5 1.4 0
v -0.5 1.4 -0.1
v -0.5 1.5 0.8
v -0.5 1.5 0.6
v -0.5 1.5 0.5
v -0.5 1.5 0.4
v -0.5 1.5 0.3
v -0.5 1.5 0
v -0.5 1.5 -0.1
v -0.5 1.6 0.8
v -0.5 1.6 0.7
v -0.5 1.6 0.4
v -0.5 1.6 0.2
v -0.5 1.6 0
v -0.5 1.7 0.7
v -0.5 1.7 0.6
v -0.5 1.7 0.5
v -0.5 1.8 0.6
v -0.5 1.8 0.5
v -0.4 0 0.2
v -0.4 0 -0.3
v -0.4 0.1 0.2
v -0.4 0.1 -0.3
v -0.4 0.4 0.2
v -0.4 0.4 -0.3
v -0.4 0.5 0.3
v -0.4 0.5 0.2
v -0.4 0.5 -0.3
v -0.4 0.5 -0.5
v -0.4 0.6 0.6
v -0.4 0.6 0.5
v -0.4 0.6 0.4
v -0.4 0.6 0.3
v -0.4 0.6 0.2
v -0.4 0.6 -0.3
v -0.4 0.6 -0.5
v -0.4 0.6 -0.6
v -0.4 0.7 0.6
v -0.4 0.7 0.5
v -0.4 0.7 0.4
v -0.4 0.7 0.2
v -0.4 0.7 -0.3
v -0.4 0.7 -0.4
v -0.4 0.7 -0.6
v -0.4 0.8 0.7
v -0.4 0.8 0.6
v -0.4 0.9 0.7
v -0.4 0.9 0.6
v -0.4 1 0
v -0.4 1 -0.1
v -0.4 1.1 0.8
v -0.4 1.1 0.7
v -0.4 1.1 0
v -0.4 1.2 0.8
v -0.4 1.2 0.7
v -0.4 1.2 0
v -0.4 1.3 0
v -0.4 1.3 -0.1
v -0.4 1.3 -0.2
v -0.4 1.4 0
v -0.4 1.4 -0.1
v -0.4 1.5 -0.1
v -0.4 1.5 -0.2
v -0.4 1.6 0.9
v -0.4 1.6 0.8
v -0.4 1.8 0.9
v -0.4 1.8 0.8
v -0.3 0 0.3
v -0.3 0 0.2
v -0.3 0 -0.3
v -0.3 0 -0.4
v -0.3 0.1 0.3
v -0.3 0.1 0.2
v -0.3 0.1 0.1
v -0.3 0.1 -0.2
v -0.3 0.1 -0.3
v -0.3 0.1 -0.4
v -0.3 0.4 0.4
v -0.3 0.4 0.2
v -0.3 0.4 0.1
v -0.3 0.4 -0.2
v -0.3 0.4 -0.3
v -0.3 0.4 -0.5
v -0.3 0.5 0.3
v -0.3 0.5 0.2
v -0.3 0.5 -0.3
v -0.3 0.5 -0.5
v -0.3 0.5 -0.8
v -0.3 0.6 0.4
v -0.3 0.6 0.3
v -0.3 0.6 -0.5
v -0.3 0.6 -0.6
v -0.3 0.6 -0.8
v -0.3 0.6 -0.9
v -0.3 0.7 0.7
v -0.3 0.7 0.6
v -0.3 0.7 0.5
v -0.3 0.7 -0.6
v -0.3 0.7 -0.7
v -0.3 0.7 -0.8
v -0.3 0.7 -0.9
v -0.3 0.8 0.7
v -0.3 0.8 0.6
v -0.3 0.8 0.5
v -0.3 0.8 -0.5
v -0.3 0.8 -0.6
v -0.3 0.8 -0.7
v -0.3 0.9 0
v -0.3 0.9 -0.1
v -0.3 0.9 -0.3
v -0.3 0.9 -0.4
v -0.3 0.9 -0.5
v -0.3 0.9 -0.6
v -0.3 0.9 -0.7
v -0.3 0.9 -0.8
v -0.3 1 0.1
v -0.3 1 0
v -0.3 1 -0.1
v -0.3 1 -0.4
v -0.3 1 -0.7
v -0.3 1 -0.8
v -0.3 1.1 0.1
v -0.3 1.1 0
v -0.3 1.2 0.8
v -0.3 1.2 0.7
v -0.3 1.4 0.8
v -0.3 1.4 0.7
v -0.3 1.5 0.9
v -0.3 1.5 0.8
v -0.3 1.6 0.9
v -0.3 1.6 0.8
v -0.3 1.6 0.5
v -0.3 1.6 0.4
v -0.3 1.7 0.5
v -0.3 1.7 0.4
v -0.3 1.8 0.9
v -0.3 1.8 0.8
v -0.3 1.9 0.9
v -0.3 1.9 0.8
v -0.2 0 0.5
v -0.2 0 0.3
v -0.2 0 -0.4
v -0.2 0 -0.6
v -0.2 0.1 0.5
v -0.2 0.1 0.3
v -0.2 0.1 0.1
v -0.2 0.1 -0.2
v -0.2 0.1 -0.4
v -0.2 0.1 -0.6
v -0.2 0.4 0.3
v -0.2 0.4 0.1
v -0.2 0.4 -0.2
v -0.2 0.4 -0.4
v -0.2 0.4 -0.5
v -0.2 0.4 -0.7
v -0.2 0.5 0.5
v -0.2 0.5 0.4
v -0.2 0.5 -0.5
v -0.2 0.5 -0.7
v -0.2 0.5 -0.8
v -0.2 0.5 -0.9
v -0.2 0.6 0.5
v -0.2 0.6 0.4
v -0.2 0.6 -0.8
v -0.2 0.6 -0.9
v -0.2 0.6 -1.1
v -0.2 0.7 -0.9
v -0.2 0.7 -1.1
v -0.2 0.9 0.8
v -0.2 0.9 0.7
v -0.2 1 0.9
v -0.2 1 0.8
v -0.2 1.1 0.8
v -0.2 1.1 0.7
v -0.2 1.2 -0.1
v -0.2 1.2 -0.2
v -0.2 1.3 0.9
v -0.2 1.3 0.8
v -0.2 1.3 -0.1
v -0.2 1.3 -0.2
v -0.2 1.4 -0.2
v -0.2 1.4 -0.3
v -0.2 1.5 -0.2
v -0.2 1.5 -0.3
v -0.1 0 0.6
v -0.1 0 0.5
v -0.1 0 -0.6
v -0.1 0 -0.7
v -0.1 0.1 0.6
v -0.1 0.1 0.5
v -0.1 0.1 0.4
v -0.1 0.1 0.3
v -0.1 0.1 -0.4
v -0.1 0.1 -0.5
v -0.1 0.1 -0.6
v -0.1 0.1 -0.7
v -0.1 0.4 0.4
v -0.1 0.4 0.3
v -0.1 0.4 -0.4
v -0.1 0.4 -0.5
v -0.1 0.4 -0.7
v -0.1 0.4 -0.8
v -0.1 0.5 -0.7
v -0.1 0.5 -0.8
v -0.1 0.5 -0.9
v -0.1 0.5 -1
v -0.1 0.6 -0.9
v -0.1 0.6 -1
v -0.1 0.6 -1.1
v -0.1 0.6 -1.2
v -0.1 0.7 -1.1
v -0.1 0.7 -1.2
v -0.1 0.8 0.8
v -0.1 0.8 0.7
v -0.1 0.9 0.9
v -0.1 0.9 0.8
v -0.1 0.9 0.7
v -0.1 1 0.9
v -0.1 1 0.8
v -0.1 1.2 -0.2
v -0.1 1.2 -0.3
v -0.1 1.3 0.9
v -0.1 1.3 0.8
v -0.1 1.3 -0.2
v -0.1 1.4 0.8
v -0.1 1.4 -0.2
v -0.1 1.4 -0.3
v -0.1 1.5 0.9
v -0.1 1.5 0.8
v 0.1 0.7 -0.7
v 0.1 0.7 -0.8
v 0.1 0.8 -0.5
v 0.1 0.8 -0.6
v 0.1 0.8 -0.7
v 0.1 0.9 -0.4
v 0.1 0.9 -0.5
v 0.1 0.9 -0.6
v 0.1 0.9 -0.7
v 0.1 0.9 -0.8
v 0.1 1 -0.4
v 0.1 1 -0.7
v 0.1 1 -0.8
v 0.1 1.6 0.5
v 0.1 1.6 0.4
v 0.1 1.7 0.5
v 0.1 1.7 0.4
v 0.3 0.8 0.8
v 0.3 0.8 0.7
v 0.3 0.9 0.8
v 0.3 0.9 0.7
v 0.3 1 0.8
v 0.3 1 0.7
v 0.3 1 -0.1
v 0.3 1 -0.3
v 0.3 1.1 -0.1
v 0.3 1.1 -0.3
v 0.4 0.7 0.7
v 0.4 0.7 0.6
v 0.4 0.7 0.5
v 0.4 0.8 0.9
v 0.4 0.8 0.8
v 0.4 0.8 0.7
v 0.4 0.8 0.6
v 0.4 0.8 0.5
v 0.4 0.9 0.9
v 0.4 0.9 0.8
v 0.4 1 0.9
v 0.4 1 0.8
v 0.4 1.6 0.5
v 0.4 1.6 0.4
v 0.4 1.7 0.5
v 0.4 1.7 0.4
v 0.5 0.8 0.1
v 0.5 0.8 0
v 0.5 0.9 0.1
v 0.5 0.9 0
v -0.5 0.8 0.7
v -0.5 0.8 0.6
v -0.5 0.8 0.1
v -0.5 0.8 0
v -0.5 0.9 0.7
v -0.5 0.9 0.6
v -0.5 0.9 0.1
v -0.5 0.9 0
v -0.4 0.7 0.6
v -0.4 0.7 0.5
v -0.4 0.8 0.9
v -0.4 0.8 0.8
v -0.4 0.8 0.6
v -0.4 0.8 0.5
v -0.4 0.9 0.9
v -0.4 0.9 0.8
v -0.4 1 0.9
v -0.4 1 0.8
v -0.4 1.6 0.5
v -0.4 1.6 0.4
v -0.4 1.7 0.5
v -0.4 1.7 0.4
v -0.3 0.8 0.8
v -0.3 0.8 0.7
v -0.3 0.9 0.8
v -0.3 0.9 0.7
v -0.3 1 0.8
v -0.3 1 0.7
v -0.1 0.7 -0.7
v -0.1 0.7 -0.8
v -0.1 0.8 -0.5
v -0.1 0.8 -0.6
v -0.1 0.8 -0.7
v -0.1 0.9 -0.4
v -0.1 0.9 -0.5
v -0.1 0.9 -0.6
v -0.1 0.9 -0.7
v -0.1 0.9 -0.8
v -0.1 1 -0.4
v -0.1 1 -0.7
v -0.1 1 -0.8
v -0.1 1.6 0.5
v -0.1 1.6 0.4
v -0.1 1.7 0.5
v -0.1 1.7 0.4
v 0.1 0 0.6
v 0.1 0 0.5
v 0.1 0 -0.6
v 0.1 0 -0.7
v 0.1 0.1 0.6
v 0.1 0.1 0.5
v 0.1 0.1 0.4
v 0.1 0.1 0.3
v 0.1 0.1 -0.4
v 0.1 0.1 -0.5
v 0.1 0.1 -0.6
v 0.1 0.1 -0.7
v 0.1 0.4 0.4
v 0.1 0.4 0.3
v 0.1 0.4 -0.4
v 0.1 0.4 -0.5
v 0.1 0.4 -0.7
v 0.1 0.4 -0.8
v 0.1 0.5 -0.7
v 0.1 0.5 -0.8
v 0.1 0.5 -0.9
v 0.1 0.5 -1
v 0.1 0.6 -0.9
v 0.1 0.6 -1
v 0.1 0.6 -1.1
v 0.1 0.6 -1.2
v 0.1 0.7 -1.1
v 0.1 0.7 -1.2
v 0.1 0.8 0.8
v 0.1 0.8 0.7
v 0.1 0.9 0.9
v 0.1 0.9 0.8
v 0.1 0.9 0.7
v 0.1 1 0.9
v 0.1 1 0.8
v 0.1 1.2 -0.2
v 0.1 1.2 -0.3
v 0.1 1.3 0.9
v 0.1 1.3 0.8
v 0.1 1.3 -0.2
v 0.1 1.4 0.8
v 0.1 1.4 -0.2
v 0.1 1.4 -0.3
v 0.1 1.5 0.9
v 0.1 1.5 0.8
v 0.2 0 0.5
v 0.2 0 0.3
v 0.2 0 -0.4
v 0.2 0 -0.6
v 0.2 0.1 0.5
v 0.2 0.1 0.3
v 0.2 0.1 0.1
v 0.2 0.1 -0.2
v 0.2 0.1 -0.4
v 0.2 0.1 -0.6
v 0.2 0.4 0.3
v 0.2 0.4 0.1
v 0.2 0.4 -0.2
v 0.2 0.4 -0.4
v 0.2 0.4 -0.5
v 0.2 0.4 -0.7
v 0.2 0.5 0.5
v 0.2 0.5 0.4
v 0.2 0.5 -0.5
v 0.2 0.5 -0.7
v 0.2 0.5 -0.8
v 0.2 0.5 -0.9
v 0.2 0.6 0.5
v 0.2 0.6 0.4
v 0.2 0.6 -0.8
v 0.2 0.6 -0.9
v 0.2 0.6 -1.1
v 0.2 0.7 -0.9
v 0.2 0.7 -1.1
v 0.2 0.9 0.8
v 0.2 0.9 0.7
v 0.2 1 0.9
v 0.2 1 0.8
v 0.2 1.1 0.8
v 0.2 1.1 0.7
v 0.2 1.2 -0.1
v 0.2 1.2 -0.2
v 0.2 1.3 0.9
v 0.2 1.3 0.8
v 0.2 1.3 -0.1
v 0.2 1.3 -0.2
v 0.2 1.4 -0.2
v 0.2 1.4 -0.3
v 0.2 1.5 -0.2
v 0.2 1.5 -0.3
v 0.3 0 0.3
v 0.3 0 0.2
v 0.3 0 -0.3
v 0.3 0 -0.4
v 0.3 0.1 0.3
v 0.3 0.1 0.2
v 0.3 0.1 0.1
v 0.3 0.1 -0.2
v 0.3 0.1 -0.3
v 0.3 0.1 -0.4
v 0.3 0.4 0.4
v 0.3 0.4 0.2
v 0.3 0.4 0.1
v 0.3 0.4 -0.2
v 0.3 0.4 -0.3
v 0.3 0.4 -0.5
v 0.3 0.5 0.3
v 0.3 0.5 0.2
v 0.3 0.5 -0.3
v 0.3 0.5 -0.5
v 0.3 0.5 -0.8
v 0.3 0.6 0.4
v 0.3 0.6 0.3
v 0.3 0.6 -0.5
v 0.3 0.6 -0.6
v 0.3 0.6 -0.8
v 0.3 0.6 -0.9
v 0.3 0.7 0.7
v 0.3 0.7 0.6
v 0.3 0.7 0.5
v 0.3 0.7 -0.3
v 0.3 0.7 -0.4
v 0.3 0.7 -0.6
v 0.3 0.7 -0.7
v 0.3 0.7 -0.8
v 0.3 0.7 -0.9
v 0.3 0.8 0.7
v 0.3 0.8 0.6
v 0.3 0.8 0.5
v 0.3 0.8 -0.5
v 0.3 0.8 -0.6
v 0.3 0.8 -0.7
v 0.3 0.9 0
v 0.3 0.9 -0.1
v 0.3 0.9 -0.3
v 0.3 0.9 -0.4
v 0.3 0.9 -0.5
v 0.3 0.9 -0.6
v 0.3 0.9 -0.7
v 0.3 0.9 -0.8
v 0.3 1 0.1
v 0.3 1 0
v 0.3 1 -0.1
v 0.3 1 -0.4
v 0.3 1 -0.7
v 0.3 1 -0.8
v 0.3 1.1 0.1
v 0.3 1.1 0
v 0.3 1.2 0.8
v 0.3 1.2 0.7
v 0.3 1.4 0.8
v 0.3 1.4 0.7
v 0.3 1.5 0.9
v 0.3 1.5 0.8
v 0.3 1.6 0.9
v 0.3 1.6 0.8
v 0.3 1.6 0.5
v 0.3 1.6 0.4
v 0.3 1.7 0.5
v 0.3 1.7 0.4
v 0.3 1.8 0.9
v 0.3 1.8 0.8
v 0.3 1.9 0.9
v 0.3 1.9 0.8
v 0.4 0 0.2
v 0.4 0 -0.3
v 0.4 0.1 0.2
v 0.4 0.1 -0.3
v 0.4 0.4 0.2
v 0.4 0.4 -0.3
v 0.4 0.5 0.3
v 0.4 0.5 0.2
v 0.4 0.5 -0.3
v 0.4 0.5 -0.5
v 0.4 0.6 0.6
v 0.4 0.6 0.5
v 0.4 0.6 0.4
v 0.4 0.6 0.3
v 0.4 0.6 0.2
v 0.4 0.6 -0.3
v 0.4 0.6 -0.5
v 0.4 0.6 -0.6
v 0.4 0.7 0.6
v 0.4 0.7 0.5
v 0.4 0.7 0.4
v 0.4 0.7 0.2
v 0.4 0.7 -0.3
v 0.4 0.7 -0.6
v 0.4 1 0
v 0.4 1 -0.1
v 0.4 1.1 0.8
v 0.4 1.1 0.7
v 0.4 1.1 0
v 0.4 1.1 -0.1
v 0.4 1.2 0.8
v 0.4 1.2 0.7
v 0.4 1.2 0
v 0.4 1.3 0
v 0.4 1.3 -0.1
v 0.4 1.3 -0.2
v 0.4 1.4 0
v 0.4 1.4 -0.1
v 0.4 1.5 -0.1
v 0.4 1.5 -0.2
v 0.4 1.6 0.9
v 0.4 1.6 0.8
v 0.4 1.8 0.9
v 0.4 1.8 0.8
v 0.5 0.5 0.2
v 0.5 0.5 -0.3
v 0.5 0.6 0.5
v 0.5 0.6 0.4
v 0.5 0.6 0.2
v 0.5 0.6 -0.3
v 0.5 0.7 0.7
v 0.5 0.7 0.5
v 0.5 0.7 0.2
v 0.5 0.7 -0.1
v 0.5 0.7 -0.3
v 0.5 0.8 0.9
v 0.5 0.8 0.7
v 0.5 0.8 0.4
v 0.5 0.9 0.9
v 0.5 0.9 0.7
v 0.5 0.9 -0.1
v 0.5 0.9 -0.3
v 0.5 0.9 -0.4
v 0.5 1 0.9
v 0.5 1 0.7
v 0.5 1 0.5
v 0.5 1 0.1
v 0.5 1 -0.3
v 0.5 1 -0.4
v 0.5 1.1 0.5
v 0.5 1.1 0.4
v 0.5 1.1 0.1
v 0.5 1.1 0
v 0.5 1.1 -0.1
v 0.5 1.1 -0.3
v 0.5 1.2 0.7
v 0.5 1.2 0.6
v 0.5 1.2 0.1
v 0.5 1.2 0
v 0.5 1.4 0.7
v 0.5 1.4 0.6
v 0.5 1.4 0.5
v 0.5 1.4 0.4
v 0.5 1.4 0.3
v 0.5 1.4 0.2
v 0.5 1.4 0.1
v 0.5 1.4 0
v 0.5 1.4 -0.1
v 0.5 1.5 0.8
v 0.5 1.5 0.6
v 0.5 1.5 0.5
v 0.5 1.5 0.4
v 0.5 1.5 0.3
v 0.5 1.5 0
v 0.5 1.5 -0.1
v 0.5 1.6 0.8
v 0.5 1.6 0.7
v 0.5 1.6 0.4
v 0.5 1.6 0.2
v 0.5 1.6 0
v 0.5 1.7 0.7
v 0.5 1.7 0.6
v 0.5 1.7 0.5
v 0.5 1.8 0.6
v 0.5 1.8 0.5
v 0.6 0.8 0.7
v 0.6 0.8 0.6
v 0.6 0.8 0.1
v 0.6 0.8 0
v 0.6 0.9 0.7
v 0.6 0.9 0.6
v 0.6 0.9 0.1
v 0.6 0.9 0
v 0.6 1 0.7
v 0.6 1 0.6
v 0.6 1 0.5
v 0.6 1 0.1
v 0.6 1 0
v 0.6 1.1 0.5
v 0.6 1.1 0.4
v 0.6 1.2 0.7
v 0.6 1.2 0.6
v 0.6 1.4 0.6
v 0.6 1.4 0.5
v 0.6 1.4 0.4
v 0.6 1.4 0.3
v 0.6 1.5 0.6
v 0.6 1.5 0.5
v 0.6 1.5 0.4
v 0.6 1.5 0.3
v 0.6 1.7 0.6
v 0.6 1.7 0.4
v 0.7 0.8 0.6
v 0.7 0.8 0.1
v 0.7 0.9 0.6
v 0.7 0.9 0.5
v 0.7 0.9 0.3
v 0.7 0.9 0.1
v 0.7 1 0.6
v 0.7 1 0.5
v 0.7 1 0.3
v 0.7 1 0.1
v 0.8 0.9 0.5
v 0.8 0.9 0.3
v 0.8 1 0.5
v 0.8 1 0.3
v -0.5 0.8 0.9
v -0.5 0.9 0.9
v -0.5 1 0.9
v -0.4 0.8 0.9
v -0.4 0.9 0.9
v -0.4 1 0.9
v -0.4 1.6 0.9
v -0.4 1.8 0.9
v -0.3 1.5 0.9
v -0.3 1.6 0.9
v -0.3 1.8 0.9
v -0.3 1.9 0.9
v -0.2 1 0.9
v -0.2 1.3 0.9
v -0.1 0.9 0.9
v -0.1 1 0.9
v -0.1 1.3 0.9
v -0.1 1.5 0.9
v 0.1 0.9 0.9
v 0.1 1 0.9
v 0.1 1.3 0.9
v 0.1 1.5 0.9
v 0.2 1 0.9
v 0.2 1.3 0.9
v 0.3 1.5 0.9
v 0.3 1.6 0.9
v 0.3 1.8 0.9
v 0.3 1.9 0.9
v 0.4 0.8 0.9
v 0.4 0.9 0.9
v 0.4 1 0.9
v 0.4 1.6 0.9
v 0.4 1.8 0.9
v 0.5 0.8 0.9
v 0.5 0.9 0.9
v 0.5 1 0.9
v -0.5 1.5 0.8
v -0.5 1.6 0.8
v -0.4 0.8 0.8
v -0.4 0.9 0.8
v -0.4 1 0.8
v -0.4 1.1 0.8
v -0.4 1.2 0.8
v -0.4 1.6 0.8
v -0.3 0.8 0.8
v -0.3 0.9 0.8
v -0.3 1 0.8
v -0.3 1.2 0.8
v -0.3 1.4 0.8
v -0.3 1.5 0.8
v -0.3 1.6 0.8
v -0.2 0.9 0.8
v -0.2 1 0.8
v -0.2 1.1 0.8
v -0.2 1.3 0.8
v -0.1 0.8 0.8
v -0.1 0.9 0.8
v -0.1 1 0.8
v -0.1 1.3 0.8
v -0.1 1.4 0.8
v 0.1 0.8 0.8
v 0.1 0.9 0.8
v 0.1 1 0.8
v 0.1 1.3 0.8
v 0.1 1.4 0.8
v 0.2 0.9 0.8
v 0.2 1 0.8
v 0.2 1.1 0.8
v 0.2 1.3 0.8
v 0.3 0.8 0.8
v 0.3 0.9 0.8
v 0.3 1 0.8
v 0.3 1.2 0.8
v 0.3 1.4 0.8
v 0.3 1.5 0.8
v 0.3 1.6 0.8
v 0.4 0.8 0.8
v 0.4 0.9 0.8
v 0.4 1 0.8
v 0.4 1.1 0.8
v 0.4 1.2 0.8
v 0.4 1.6 0.8
v 0.5 1.5 0.8
v 0.5 1.6 0.8
v -0.6 0.8 0.7
v -0.6 0.9 0.7
v -0.6 1 0.7
v -0.6 1.2 0.7
v -0.5 0.8 0.7
v -0.5 0.9 0.7
v -0.5 1 0.7
v -0.5 1.2 0.7
v -0.5 1.4 0.7
v -0.5 1.6 0.7
v -0.5 1.7 0.7
v -0.4 1.1 0.7
v -0.4 1.2 0.7
v -0.3 0.7 0.7
v -0.3 0.8 0.7
v -0.3 0.9 0.7
v -0.3 1 0.7
v -0.3 1.2 0.7
v -0.3 1.4 0.7
v -0.2 0.9 0.7
v -0.2 1.1 0.7
v -0.1 0.8 0.7
v -0.1 0.9 0.7
v 0.1 0.8 0.7
v 0.1 0.9 0.7
v 0.2 0.9 0.7
v 0.2 1.1 0.7
v 0.3 0.7 0.7
v 0.3 0.8 0.7
v 0.3 0.9 0.7
v 0.3 1 0.7
v 0.3 1.2 0.7
v 0.3 1.4 0.7
v 0.4 0.7 0.7
v 0.4 0.8 0.7
v 0.4 1.1 0.7
v 0.4 1.2 0.7
v 0.5 0.7 0.7
v 0.5 0.8 0.7
v 0.5 0.9 0.7
v 0.5 1 0.7
v 0.5 1.2 0.7
v 0.5 1.4 0.7
v 0.5 1.6 0.7
v 0.5 1.7 0.7
v 0.6 0.8 0.7
v 0.6 0.9 0.7
v 0.6 1 0.7
v 0.6 1.2 0.7
v -0.7 0.8 0.6
v -0.7 0.9 0.6
v -0.7 1 0.6
v -0.6 0.8 0.6
v -0.6 0.9 0.6
v -0.6 1 0.6
v -0.6 1.2 0.6
v -0.6 1.4 0.6
v -0.6 1.5 0.6
v -0.6 1.7 0.6
v -0.5 0.7 0.6
v -0.5 0.8 0.6
v -0.5 0.9 0.6
v -0.5 1.2 0.6
v -0.5 1.4 0.6
v -0.5 1.5 0.6
v -0.5 1.7 0.6
v -0.5 1.8 0.6
v -0.4 0.6 0.6
v -0.4 0.7 0.6
v -0.4 0.8 0.6
v -0.4 0.9 0.6
v -0.3 0.7 0.6
v -0.1 0 0.6
v -0.1 0.1 0.6
v 0.1 0 0.6
v 0.1 0.1 0.6
v 0.3 0.7 0.6
v 0.4 0.6 0.6
v 0.4 0.7 0.6
v 0.5 1.2 0.6
v 0.5 1.4 0.6
v 0.5 1.5 0.6
v 0.5 1.7 0.6
v 0.5 1.8 0.6
v 0.6 0.8 0.6
v 0.6 0.9 0.6
v 0.6 1 0.6
v 0.6 1.2 0.6
v 0.6 1.4 0.6
v 0.6 1.5 0.6
v 0.6 1.7 0.6
v 0.7 0.8 0.6
v 0.7 0.9 0.6
v 0.7 1 0.6
v -0.8 0.9 0.5
v -0.8 1 0.5
v -0.7 0.9 0.5
v -0.7 1 0.5
v -0.6 1.4 0.5
v -0.6 1.5 0.5
v -0.5 0.6 0.5
v -0.5 0.7 0.5
v -0.5 1.4 0.5
v -0.5 1.5 0.5
v -0.4 0.6 0.5
v -0.4 0.7 0.5
v -0.4 0.8 0.5
v -0.3 0.7 0.5
v -0.3 0.8 0.5
v -0.2 0 0.5
v -0.2 0.1 0.5
v -0.2 0.5 0.5
v -0.2 0.6 0.5
v -0.1 0 0.5
v -0.1 0.1 0.5
v 0.1 0 0.5
v 0.1 0.1 0.5
v 0.2 0 0.5
v 0.2 0.1 0.5
v 0.2 0.5 0.5
v 0.2 0.6 0.5
v 0.3 0.7 0.5
v 0.3 0.8 0.5
v 0.4 0.6 0.5
v 0.4 0.7 0.5
v 0.4 0.8 0.5
v 0.5 0.6 0.5
v 0.5 0.7 0.5
v 0.5 1.4 0.5
v 0.5 1.5 0.5
v 0.6 1.4 0.5
v 0.6 1.5 0.5
v 0.7 0.9 0.5
v 0.7 1 0.5
v 0.8 0.9 0.5
v 0.8 1 0.5
v -0.3 0.4 0.4
v -0.3 0.6 0.4
v -0.2 0.5 0.4
v -0.2 0.6 0.4
v -0.1 0.1 0.4
v -0.1 0.4 0.4
v 0.1 0.1 0.4
v 0.1 0.4 0.4
v 0.2 0.5 0.4
v 0.2 0.6 0.4
v 0.3 0.4 0.4
v 0.3 0.6 0.4
v -0.4 0.5 0.3
v -0.4 0.6 0.3
v -0.3 0 0.3
v -0.3 0.1 0.3
v -0.3 0.5 0.3
v -0.3 0.6 0.3
v -0.2 0 0.3
v -0.2 0.1 0.3
v -0.2 0.4 0.3
v -0.1 0.1 0.3
v -0.1 0.4 0.3
v 0.1 0.1 0.3
v 0.1 0.4 0.3
v 0.2 0 0.3
v 0.2 0.1 0.3
v 0.2 0.4 0.3
v 0.3 0 0.3
v 0.3 0.1 0.3
v 0.3 0.5 0.3
v 0.3 0.6 0.3
v 0.4 0.5 0.3
v 0.4 0.6 0.3
v -0.5 0.5 0.2
v -0.5 0.6 0.2
v -0.5 0.7 0.2
v -0.4 0 0.2
v -0.4 0.1 0.2
v -0.4 0.4 0.2
v -0.4 0.5 0.2
v -0.4 0.6 0.2
v -0.4 0.7 0.2
v -0.3 0 0.2
v -0.3 0.1 0.2
v -0.3 0.4 0.2
v -0.3 0.5 0.2
v 0.3 0 0.2
v 0.3 0.1 0.2
v 0.3 0.4 0.2
v 0.3 0.5 0.2
v 0.4 0 0.2
v 0.4 0.1 0.2
v 0.4 0.4 0.2
v 0.4 0.5 0.2
v 0.4 0.6 0.2
v 0.4 0.7 0.2
v 0.5 0.5 0.2
v 0.5 0.6 0.2
v 0.5 0.7 0.2
v -0.3 0.1 0.1
v -0.3 0.4 0.1
v -0.2 0.1 0.1
v -0.2 0.4 0.1
v 0.2 0.1 0.1
v 0.2 0.4 0.1
v 0.3 0.1 0.1
v 0.3 0.4 0.1
v -0.4 1 0
v -0.4 1.1 0
v -0.3 1 0
v -0.3 1.1 0
v 0.3 1 0
v 0.3 1.1 0
v 0.4 1 0
v 0.4 1.1 0
v -0.5 0.7 -0.1
v -0.5 0.9 -0.1
v -0.3 0.8 -0.1
v -0.3 0.9 -0.1
v 0.3 0.8 -0.1
v 0.3 0.9 -0.1
v 0.3 1 -0.1
v 0.4 1 -0.1
v 0.4 1.1 -0.1
v 0.5 0.7 -0.1
v 0.5 0.9 -0.1
v 0.5 1.1 -0.1
v -0.3 0.8 -0.5
v -0.3 0.9 -0.5
v -0.1 0.8 -0.5
v -0.1 0.9 -0.5
v 0.1 0.8 -0.5
v 0.1 0.9 -0.5
v 0.3 0.8 -0.5
v 0.3 0.9 -0.5
v -0.3 0.7 -0.7
v -0.3 0.8 -0.7
v -0.1 0.7 -0.7
v -0.1 0.8 -0.7
v 0.1 0.7 -0.7
v 0.1 0.8 -0.7
v 0.3 0.7 -0.7
v 0.3 0.8 -0.7
v -0.4 1.6 0.8
v -0.4 1.8 0.8
v -0.3 1.8 0.8
v -0.3 1.9 0.8
v -0.1 1.4 0.8
v -0.1 1.5 0.8
v 0.1 1.4 0.8
v 0.1 1.5 0.8
v 0.3 1.8 0.8
v 0.3 1.9 0.8
v 0.4 1.6 0.8
v 0.4 1.8 0.8
v -0.5 0.8 0.7
v -0.5 0.9 0.7
v -0.4 0.8 0.7
v -0.4 0.9 0.7
v -0.6 1 0.5
v -0.6 1.1 0.5
v -0.5 1 0.5
v -0.5 1.1 0.5
v -0.5 1.7 0.5
v -0.5 1.8 0.5
v -0.4 1.6 0.5
v -0.4 1.7 0.5
v -0.3 1.6 0.5
v -0.3 1.7 0.5
v -0.1 1.6 0.5
v -0.1 1.7 0.5
v 0.1 1.6 0.5
v 0.1 1.7 0.5
v 0.3 1.6 0.5
v 0.3 1.7 0.5
v 0.4 1.6 0.5
v 0.4 1.7 0.5
v 0.5 1 0.5
v 0.5 1.1 0.5
v 0.5 1.7 0.5
v 0.5 1.8 0.5
v 0.6 1 0.5
v 0.6 1.1 0.5
v -0.6 1.1 0.4
v -0.6 1.4 0.4
v -0.6 1.5 0.4
v -0.6 1.7 0.4
v -0.5 0.6 0.4
v -0.5 0.8 0.4
v -0.5 1.1 0.4
v -0.5 1.4 0.4
v -0.5 1.5 0.4
v -0.5 1.6 0.4
v -0.4 0.6 0.4
v -0.4 0.7 0.4
v -0.4 1.6 0.4
v -0.4 1.7 0.4
v -0.3 1.6 0.4
v -0.3 1.7 0.4
v -0.2 1.6 0.4
v -0.1 1.6 0.4
v -0.1 1.7 0.4
v 0.1 1.6 0.4
v 0.1 1.7 0.4
v 0.2 1.6 0.4
v 0.3 1.6 0.4
v 0.3 1.7 0.4
v 0.4 0.6 0.4
v 0.4 0.7 0.4
v 0.4 1.6 0.4
v 0.4 1.7 0.4
v 0.5 0.6 0.4
v 0.5 0.8 0.4
v 0.5 1.1 0.4
v 0.5 1.4 0.4
v 0.5 1.5 0.4
v 0.5 1.6 0.4
v 0.6 1.1 0.4
v 0.6 1.4 0.4
v 0.6 1.5 0.4
v 0.6 1.7 0.4
v -0.8 0.9 0.3
v -0.8 1 0.3
v -0.7 0.9 0.3
v -0.7 1 0.3
v -0.6 1.4 0.3
v -0.6 1.5 0.3
v -0.5 1.4 0.3
v -0.5 1.5 0.3
v 0.5 1.4 0.3
v 0.5 1.5 0.3
v 0.6 1.4 0.3
v 0.6 1.5 0.3
v 0.7 0.9 0.3
v 0.7 1 0.3
v 0.8 0.9 0.3
v 0.8 1 0.3
v -0.7 0.8 0.1
v -0.7 0.9 0.1
v -0.7 1 0.1
v -0.6 0.8 0.1
v -0.6 0.9 0.1
v -0.6 1 0.1
v -0.5 0.8 0.1
v -0.5 0.9 0.1
v -0.5 1 0.1
v -0.5 1.1 0.1
v -0.4 1.1 0.1
v -0.3 1 0.1
v -0.3 1.1 0.1
v 0.3 1 0.1
v 0.3 1.1 0.1
v 0.4 1.1 0.1
v 0.5 0.8 0.1
v 0.5 0.9 0.1
v 0.5 1 0.1
v 0.5 1.1 0.1
v 0.6 0.8 0.1
v 0.6 0.9 0.1
v 0.6 1 0.1
v 0.7 0.8 0.1
v 0.7 0.9 0.1
v 0.7 1 0.1
v -0.6 0.8 0
v -0.6 0.9 0
v -0.6 1 0
v -0.5 0.8 0
v -0.5 0.9 0
v -0.5 1 0
v -0.5 1.1 0
v -0.5 1.2 0
v -0.5 1.4 0
v -0.5 1.5 0
v -0.5 1.6 0
v -0.4 1 0
v -0.4 1.1 0
v -0.4 1.2 0
v -0.4 1.3 0
v -0.4 1.4 0
v -0.4 1.5 0
v -0.3 0.9 0
v -0.3 1 0
v -0.1 1.5 0
v -0.1 1.6 0
v 0.1 1.5 0
v 0.1 1.6 0
v 0.3 0.9 0
v 0.3 1 0
v 0.4 1 0
v 0.4 1.1 0
v 0.4 1.2 0
v 0.4 1.3 0
v 0.4 1.4 0
v 0.4 1.5 0
v 0.5 0.8 0
v 0.5 0.9 0
v 0.5 1 0
v 0.5 1.1 0
v 0.5 1.2 0
v 0.5 1.4 0
v 0.5 1.5 0
v 0.5 1.6 0
v 0.6 0.8 0
v 0.6 0.9 0
v 0.6 1 0
v -0.5 1.4 -0.1
v -0.5 1.5 -0.1
v -0.4 1 -0.1
v -0.4 1.3 -0.1
v -0.4 1.4 -0.1
v -0.4 1.5 -0.1
v -0.3 1 -0.1
v -0.2 1.2 -0.1
v -0.2 1.3 -0.1
v -0.1 1.2 -0.1
v 0.1 1.2 -0.1
v 0.2 1.2 -0.1
v 0.2 1.3 -0.1
v 0.3 1 -0.1
v 0.3 1.1 -0.1
v 0.4 1.1 -0.1
v 0.4 1.3 -0.1
v 0.4 1.4 -0.1
v 0.4 1.5 -0.1
v 0.5 1.4 -0.1
v 0.5 1.5 -0.1
v -0.4 1.3 -0.2
v -0.4 1.5 -0.2
v -0.3 0.1 -0.2
v -0.3 0.4 -0.2
v -0.2 0.1 -0.2
v -0.2 0.4 -0.2
v -0.2 1.2 -0.2
v -0.2 1.3 -0.2
v -0.2 1.4 -0.2
v -0.2 1.5 -0.2
v -0.1 1.2 -0.2
v -0.1 1.3 -0.2
v -0.1 1.4 -0.2
v 0.1 1.2 -0.2
v 0.1 1.3 -0.2
v 0.1 1.4 -0.2
v 0.2 0.1 -0.2
v 0.2 0.4 -0.2
v 0.2 1.2 -0.2
v 0.2 1.3 -0.2
v 0.2 1.4 -0.2
v 0.2 1.5 -0.2
v 0.3 0.1 -0.2
v 0.3 0.4 -0.2
v 0.4 1.3 -0.2
v 0.4 1.5 -0.2
v -0.5 0.5 -0.3
v -0.5 0.6 -0.3
v -0.5 0.7 -0.3
v -0.4 0 -0.3
v -0.4 0.1 -0.3
v -0.4 0.4 -0.3
v -0.4 0.5 -0.3
v -0.4 0.6 -0.3
v -0.4 0.7 -0.3
v -0.3 0 -0.3
v -0.3 0.1 -0.3
v -0.3 0.4 -0.3
v -0.3 0.5 -0.3
v -0.2 1.4 -0.3
v -0.2 1.5 -0.3
v -0.1 1.2 -0.3
v -0.1 1.4 -0.3
v 0.1 1.2 -0.3
v 0.1 1.4 -0.3
v 0.2 1.4 -0.3
v 0.2 1.5 -0.3
v 0.3 0 -0.3
v 0.3 0.1 -0.3
v 0.3 0.4 -0.3
v 0.3 0.5 -0.3
v 0.3 0.7 -0.3
v 0.3 0.9 -0.3
v 0.3 1 -0.3
v 0.3 1.1 -0.3
v 0.4 0 -0.3
v 0.4 0.1 -0.3
v 0.4 0.4 -0.3
v 0.4 0.5 -0.3
v 0.4 0.6 -0.3
v 0.4 0.7 -0.3
v 0.5 0.5 -0.3
v 0.5 0.6 -0.3
v 0.5 0.7 -0.3
v 0.5 0.9 -0.3
v 0.5 1 -0.3
v 0.5 1.1 -0.3
v -0.5 0.7 -0.4
v -0.5 0.9 -0.4
v -0.4 0.7 -0.4
v -0.3 0 -0.4
v -0.3 0.1 -0.4
v -0.3 0.7 -0.4
v -0.3 0.8 -0.4
v -0.3 0.9 -0.4
v -0.2 0 -0.4
v -0.2 0.1 -0.4
v -0.2 0.4 -0.4
v -0.1 0.1 -0.4
v -0.1 0.4 -0.4
v -0.1 0.9 -0.4
v -0.1 1 -0.4
v 0.1 0.1 -0.4
v 0.1 0.4 -0.4
v 0.1 0.9 -0.4
v 0.1 1 -0.4
v 0.2 0 -0.4
v 0.2 0.1 -0.4
v 0.2 0.4 -0.4
v 0.2 0.8 -0.4
v 0.2 0.9 -0.4
v 0.3 0 -0.4
v 0.3 0.1 -0.4
v 0.3 0.7 -0.4
v 0.3 0.9 -0.4
v 0.3 1 -0.4
v 0.5 0.9 -0.4
v 0.5 1 -0.4
v -0.4 0.5 -0.5
v -0.4 0.6 -0.5
v -0.3 0.4 -0.5
v -0.3 0.5 -0.5
v -0.3 0.6 -0.5
v -0.2 0.4 -0.5
v -0.2 0.5 -0.5
v -0.1 0.1 -0.5
v -0.1 0.4 -0.5
v 0.1 0.1 -0.5
v 0.1 0.4 -0.5
v 0.2 0.4 -0.5
v 0.2 0.5 -0.5
v 0.3 0.4 -0.5
v 0.3 0.5 -0.5
v 0.3 0.6 -0.5
v 0.4 0.5 -0.5
v 0.4 0.6 -0.5
v -0.4 0.6 -0.6
v -0.4 0.7 -0.6
v -0.3 0.6 -0.6
v -0.3 0.7 -0.6
v -0.2 0 -0.6
v -0.2 0.1 -0.6
v -0.1 0 -0.6
v -0.1 0.1 -0.6
v 0.1 0 -0.6
v 0.1 0.1 -0.6
v 0.2 0 -0.6
v 0.2 0.1 -0.6
v 0.3 0.6 -0.6
v 0.3 0.7 -0.6
v 0.4 0.6 -0.6
v 0.4 0.7 -0.6
v -0.2 0.4 -0.7
v -0.2 0.5 -0.7
v -0.1 0 -0.7
v -0.1 0.1 -0.7
v -0.1 0.4 -0.7
v -0.1 0.5 -0.7
v 0.1 0 -0.7
v 0.1 0.1 -0.7
v 0.1 0.4 -0.7
v 0.1 0.5 -0.7
v 0.2 0.4 -0.7
v 0.2 0.5 -0.7
v -0.3 0.5 -0.8
v -0.3 0.6 -0.8
v -0.3 0.7 -0.8
v -0.3 0.9 -0.8
v -0.3 1 -0.8
v -0.2 0.5 -0.8
v -0.2 0.6 -0.8
v -0.1 0.4 -0.8
v -0.1 0.5 -0.8
v -0.1 0.7 -0.8
v -0.1 0.9 -0.8
v -0.1 1 -0.8
v 0.1 0.4 -0.8
v 0.1 0.5 -0.8
v 0.1 0.7 -0.8
v 0.1 0.9 -0.8
v 0.1 1 -0.8
v 0.2 0.5 -0.8
v 0.2 0.6 -0.8
v 0.3 0.5 -0.8
v 0.3 0.6 -0.8
v 0.3 0.7 -0.8
v 0.3 0.9 -0.8
v 0.3 1 -0.8
v -0.3 0.6 -0.9
v -0.3 0.7 -0.9
v -0.2 0.5 -0.9
v -0.2 0.6 -0.9
v -0.2 0.7 -0.9
v -0.1 0.5 -0.9
v -0.1 0.6 -0.9
v 0.1 0.5 -0.9
v 0.1 0.6 -0.9
v 0.2 0.5 -0.9
v 0.2 0.6 -0.9
v 0.2 0.7 -0.9
v 0.3 0.6 -0.9
v 0.3 0.7 -0.9
v -0.1 0.5 -1
v -0.1 0.6 -1
v 0.1 0.5 -1
v 0.1 0.6 -1
v -0.2 0.6 -1.1
v -0.2 0.7 -1.1
v -0.1 0.6 -1.1
v -0.1 0.7 -1.1
v 0.1 0.6 -1.1
v 0.1 0.7 -1.1
v 0.2 0.6 -1.1
v 0.2 0.7 -1.1
v -0.1 0.6 -1.2
v -0.1 0.7 -1.2
v 0.1 0.6 -1.2
v 0.1 0.7 -1.2
v -0.1 0 0.6
v 0.1 0 0.6
v -0.2 0 0.5
v -0.1 0 0.5
v 0.1 0 0.5
v 0.2 0 0.5
v -0.3 0 0.3
v -0.2 0 0.3
v 0.2 0 0.3
v 0.3 0 0.3
v -0.4 0 0.2
v -0.3 0 0.2
v 0.3 0 0.2
v 0.4 0 0.2
v -0.4 0 -0.3
v -0.3 0 -0.3
v 0.3 0 -0.3
v 0.4 0 -0.3
v -0.3 0 -0.4
v -0.2 0 -0.4
v 0.2 0 -0.4
v 0.3 0 -0.4
v -0.2 0 -0.6
v -0.1 0 -0.6
v 0.1 0 -0.6
v 0.2 0 -0.6
v -0.1 0 -0.7
v 0.1 0 -0.7
v -0.3 0.4 0.4
v -0.1 0.4 0.4
v 0.1 0.4 0.4
v 0.3 0.4 0.4
v -0.2 0.4 0.3
v -0.1 0.4 0.3
v 0.1 0.4 0.3
v 0.2 0.4 0.3
v -0.4 0.4 0.2
v -0.3 0.4 0.2
v 0.3 0.4 0.2
v 0.4 0.4 0.2
v -0.3 0.4 0.1
v -0.2 0.4 0.1
v 0.2 0.4 0.1
v 0.3 0.4 0.1
v -0.3 0.4 -0.2
v -0.2 0.4 -0.2
v 0.2 0.4 -0.2
v 0.3 0.4 -0.2
v -0.4 0.4 -0.3
v -0.3 0.4 -0.3
v 0.3 0.4 -0.3
v 0.4 0.4 -0.3
v -0.2 0.4 -0.4
v -0.1 0.4 -0.4
v 0.1 0.4 -0.4
v 0.2 0.4 -0.4
v -0.3 0.4 -0.5
v -0.2 0.4 -0.5
v -0.1 0.4 -0.5
v 0.1 0.4 -0.5
v 0.2 0.4 -0.5
v 0.3 0.4 -0.5
v -0.2 0.4 -0.7
v -0.1 0.4 -0.7
v 0.1 0.4 -0.7
v 0.2 0.4 -0.7
v -0.1 0.4 -0.8
v 0.1 0.4 -0.8
v -0.2 0.5 0.5
v 0.2 0.5 0.5
v -0.2 0.5 0.4
v 0.2 0.5 0.4
v -0.4 0.5 0.3
v -0.3 0.5 0.3
v 0.3 0.5 0.3
v 0.4 0.5 0.3
v -0.5 0.5 0.2
v -0.4 0.5 0.2
v -0.3 0.5 0.2
v 0.3 0.5 0.2
v 0.4 0.5 0.2
v 0.5 0.5 0.2
v -0.5 0.5 -0.3
v -0.4 0.5 -0.3
v -0.3 0.5 -0.3
v 0.3 0.5 -0.3
v 0.4 0.5 -0.3
v 0.5 0.5 -0.3
v -0.4 0.5 -0.5
v -0.3 0.5 -0.5
v -0.2 0.5 -0.5
v 0.2 0.5 -0.5
v 0.3 0.5 -0.5
v 0.4 0.5 -0.5
v -0.2 0.5 -0.7
v -0.1 0.5 -0.7
v 0.1 0.5 -0.7
v 0.2 0.5 -0.7
v -0.3 0.5 -0.8
v -0.2 0.5 -0.8
v -0.1 0.5 -0.8
v 0.1 0.5 -0.8
v 0.2 0.5 -0.8
v 0.3 0.5 -0.8
v -0.2 0.5 -0.9
v -0.1 0.5 -0.9
v 0.1 0.5 -0.9
v 0.2 0.5 -0.9
v -0.1 0.5 -1
v 0.1 0.5 -1
v -0.4 0.6 0.6
v 0.4 0.6 0.6
v -0.5 0.6 0.5
v -0.4 0.6 0.5
v -0.2 0.6 0.5
v 0.2 0.6 0.5
v 0.4 0.6 0.5
v 0.5 0.6 0.5
v -0.5 0.6 0.4
v -0.4 0.6 0.4
v -0.3 0.6 0.4
v -0.2 0.6 0.4
v 0.2 0.6 0.4
v 0.3 0.6 0.4
v 0.4 0.6 0.4
v 0.5 0.6 0.4
v -0.4 0.6 0.3
v -0.3 0.6 0.3
v 0.3 0.6 0.3
v 0.4 0.6 0.3
v -0.4 0.6 -0.5
v -0.3 0.6 -0.5
v 0.3 0.6 -0.5
v 0.4 0.6 -0.5
v -0.4 0.6 -0.6
v -0.3 0.6 -0.6
v 0.3 0.6 -0.6
v 0.4 0.6 -0.6
v -0.3 0.6 -0.8
v -0.2 0.6 -0.8
v 0.2 0.6 -0.8
v 0.3 0.6 -0.8
v -0.3 0.6 -0.9
v -0.2 0.6 -0.9
v -0.1 0.6 -0.9
v 0.1 0.6 -0.9
v 0.2 0.6 -0.9
v 0.3 0.6 -0.9
v -0.1 0.6 -1
v 0.1 0.6 -1
v -0.2 0.6 -1.1
v -0.1 0.6 -1.1
v 0.1 0.6 -1.1
v 0.2 0.6 -1.1
v -0.1 0.6 -1.2
v 0.1 0.6 -1.2
v -0.3 0.7 0.7
v 0.3 0.7 0.7
v 0.4 0.7 0.7
v 0.5 0.7 0.7
v -0.5 0.7 0.6
v -0.4 0.7 0.6
v -0.3 0.7 0.6
v 0.3 0.7 0.6
v 0.4 0.7 0.6
v -0.5 0.7 0.5
v -0.4 0.7 0.5
v 0.4 0.7 0.5
v 0.5 0.7 0.5
v -0.5 0.7 -0.3
v -0.4 0.7 -0.3
v -0.5 0.7 -0.4
v -0.4 0.7 -0.4
v -0.5 0.8 0.9
v -0.4 0.8 0.9
v 0.4 0.8 0.9
v 0.5 0.8 0.9
v -0.4 0.8 0.8
v -0.3 0.8 0.8
v -0.1 0.8 0.8
v 0.1 0.8 0.8
v 0.3 0.8 0.8
v 0.4 0.8 0.8
v -0.6 0.8 0.7
v -0.5 0.8 0.7
v -0.4 0.8 0.7
v -0.3 0.8 0.7
v -0.1 0.8 0.7
v 0.1 0.8 0.7
v 0.3 0.8 0.7
v 0.4 0.8 0.7
v 0.5 0.8 0.7
v 0.6 0.8 0.7
v -0.7 0.8 0.6
v -0.6 0.8 0.6
v -0.5 0.8 0.6
v -0.4 0.8 0.6
v -0.3 0.8 0.6
v 0.3 0.8 0.6
v 0.4 0.8 0.6
v 0.6 0.8 0.6
v 0.7 0.8 0.6
v -0.4 0.8 0.5
v -0.3 0.8 0.5
v 0.3 0.8 0.5
v 0.4 0.8 0.5
v -0.5 0.8 0.4
v 0.5 0.8 0.4
v -0.7 0.8 0.1
v -0.6 0.8 0.1
v -0.5 0.8 0.1
v 0.5 0.8 0.1
v 0.6 0.8 0.1
v 0.7 0.8 0.1
v -0.6 0.8 0
v -0.5 0.8 0
v 0.5 0.8 0
v 0.6 0.8 0
v -0.3 0.8 -0.5
v -0.1 0.8 -0.5
v 0.1 0.8 -0.5
v 0.3 0.8 -0.5
v -0.3 0.8 -0.6
v -0.1 0.8 -0.6
v 0.1 0.8 -0.6
v 0.3 0.8 -0.6
v -0.3 0.8 -0.7
v -0.1 0.8 -0.7
v 0.1 0.8 -0.7
v 0.3 0.8 -0.7
v -0.1 0.9 0.9
v 0.1 0.9 0.9
v -0.2 0.9 0.8
v -0.1 0.9 0.8
v 0.1 0.9 0.8
v 0.2 0.9 0.8
v -0.5 0.9 0.7
v -0.4 0.9 0.7
v -0.2 0.9 0.7
v -0.1 0.9 0.7
v 0.1 0.9 0.7
v 0.2 0.9 0.7
v -0.5 0.9 0.6
v -0.4 0.9 0.6
v -0.8 0.9 0.5
v -0.7 0.9 0.5
v 0.7 0.9 0.5
v 0.8 0.9 0.5
v -0.8 0.9 0.3
v -0.7 0.9 0.3
v 0.7 0.9 0.3
v 0.8 0.9 0.3
v -0.5 0.9 0.1
v 0.5 0.9 0.1
v -0.5 0.9 0
v -0.3 0.9 0
v 0.3 0.9 0
v 0.5 0.9 0
v -0.3 0.9 -0.1
v 0.3 0.9 -0.1
v 0.3 0.9 -0.3
v 0.5 0.9 -0.3
v -0.3 0.9 -0.4
v -0.1 0.9 -0.4
v 0.1 0.9 -0.4
v 0.2 0.9 -0.4
v 0.3 0.9 -0.4
v 0.5 0.9 -0.4
v -0.3 0.9 -0.5
v -0.1 0.9 -0.5
v 0.1 0.9 -0.5
v 0.3 0.9 -0.5
v -0.2 1 0.9
v -0.1 1 0.9
v 0.1 1 0.9
v 0.2 1 0.9
v -0.2 1 0.8
v -0.1 1 0.8
v 0.1 1 0.8
v 0.2 1 0.8
v -0.4 1 0
v -0.3 1 0
v 0.3 1 0
v 0.4 1 0
v -0.4 1 -0.1
v -0.3 1 -0.1
v 0.3 1 -0.1
v 0.4 1 -0.1
v -0.4 1.1 0.8
v -0.2 1.1 0.8
v 0.2 1.1 0.8
v 0.4 1.1 0.8
v -0.4 1.1 0.7
v -0.2 1.1 0.7
v 0.2 1.1 0.7
v 0.4 1.1 0.7
v -0.6 1.1 0.5
v -0.5 1.1 0.5
v 0.5 1.1 0.5
v 0.6 1.1 0.5
v -0.6 1.1 0.4
v -0.5 1.1 0.4
v 0.5 1.1 0.4
v 0.6 1.1 0.4
v -0.5 1.1 0.1
v -0.4 1.1 0.1
v -0.3 1.1 0.1
v 0.3 1.1 0.1
v 0.4 1.1 0.1
v 0.5 1.1 0.1
v -0.5 1.1 0
v -0.4 1.1 0
v -0.3 1.1 0
v 0.3 1.1 0
v 0.4 1.1 0
v 0.5 1.1 0
v -0.2 1.2 -0.1
v -0.1 1.2 -0.1
v 0.1 1.2 -0.1
v 0.2 1.2 -0.1
v -0.2 1.2 -0.2
v -0.1 1.2 -0.2
v 0.1 1.2 -0.2
v 0.2 1.2 -0.2
v -0.1 1.2 -0.3
v 0.1 1.2 -0.3
v -0.4 1.3 -0.1
v -0.2 1.3 -0.1
v 0.2 1.3 -0.1
v 0.4 1.3 -0.1
v -0.4 1.3 -0.2
v -0.2 1.3 -0.2
v 0.2 1.3 -0.2
v 0.4 1.3 -0.2
v -0.6 1.4 0.4
v -0.5 1.4 0.4
v 0.5 1.4 0.4
v 0.6 1.4 0.4
v -0.6 1.4 0.3
v -0.5 1.4 0.3
v 0.5 1.4 0.3
v 0.6 1.4 0.3
v -0.5 1.4 0
v -0.4 1.4 0
v 0.4 1.4 0
v 0.5 1.4 0
v -0.5 1.4 -0.1
v -0.4 1.4 -0.1
v 0.4 1.4 -0.1
v 0.5 1.4 -0.1
v -0.2 1.4 -0.2
v -0.1 1.4 -0.2
v 0.1 1.4 -0.2
v 0.2 1.4 -0.2
v -0.2 1.4 -0.3
v -0.1 1.4 -0.3
v 0.1 1.4 -0.3
v 0.2 1.4 -0.3
v -0.3 1.5 0.9
v -0.1 1.5 0.9
v 0.1 1.5 0.9
v 0.3 1.5 0.9
v -0.5 1.5 0.8
v -0.3 1.5 0.8
v -0.1 1.5 0.8
v 0.1 1.5 0.8
v 0.3 1.5 0.8
v 0.5 1.5 0.8
v -0.6 1.5 0.6
v -0.5 1.5 0.6
v 0.5 1.5 0.6
v 0.6 1.5 0.6
v -0.6 1.5 0.5
v -0.5 1.5 0.5
v 0.5 1.5 0.5
v 0.6 1.5 0.5
v -0.4 1.6 0.9
v -0.3 1.6 0.9
v 0.3 1.6 0.9
v 0.4 1.6 0.9
v -0.4 1.6 0.8
v -0.3 1.6 0.8
v 0.3 1.6 0.8
v 0.4 1.6 0.8
v -0.1 0.1 0.6
v 0.1 0.1 0.6
v -0.2 0.1 0.5
v -0.1 0.1 0.5
v 0.1 0.1 0.5
v 0.2 0.1 0.5
v -0.1 0.1 0.4
v 0.1 0.1 0.4
v -0.3 0.1 0.3
v -0.2 0.1 0.3
v -0.1 0.1 0.3
v 0.1 0.1 0.3
v 0.2 0.1 0.3
v 0.3 0.1 0.3
v -0.4 0.1 0.2
v -0.3 0.1 0.2
v 0.3 0.1 0.2
v 0.4 0.1 0.2
v -0.3 0.1 0.1
v -0.2 0.1 0.1
v 0.2 0.1 0.1
v 0.3 0.1 0.1
v -0.3 0.1 -0.2
v -0.2 0.1 -0.2
v 0.2 0.1 -0.2
v 0.3 0.1 -0.2
v -0.4 0.1 -0.3
v -0.3 0.1 -0.3
v 0.3 0.1 -0.3
v 0.4 0.1 -0.3
v -0.3 0.1 -0.4
v -0.2 0.1 -0.4
v -0.1 0.1 -0.4
v 0.1 0.1 -0.4
v 0.2 0.1 -0.4
v 0.3 0.1 -0.4
v -0.1 0.1 -0.5
v 0.1 0.1 -0.5
v -0.2 0.1 -0.6
v -0.1 0.1 -0.6
v 0.1 0.1 -0.6
v 0.2 0.1 -0.6
v -0.1 0.1 -0.7
v 0.1 0.1 -0.7
v -0.4 0.7 0.6
v -0.3 0.7 0.6
v 0.3 0.7 0.6
v 0.4 0.7 0.6
v -0.4 0.7 0.5
v -0.3 0.7 0.5
v 0.3 0.7 0.5
v 0.4 0.7 0.5
v -0.4 0.7 0.4
v 0.4 0.7 0.4
v -0.5 0.7 0.2
v -0.4 0.7 0.2
v 0.4 0.7 0.2
v 0.5 0.7 0.2
v -0.5 0.7 -0.1
v 0.5 0.7 -0.1
v 0.3 0.7 -0.3
v 0.4 0.7 -0.3
v -0.4 0.7 -0.4
v -0.3 0.7 -0.4
v 0.3 0.7 -0.4
v -0.4 0.7 -0.6
v -0.3 0.7 -0.6
v 0.3 0.7 -0.6
v 0.4 0.7 -0.6
v -0.3 0.7 -0.7
v -0.1 0.7 -0.7
v 0.1 0.7 -0.7
v 0.3 0.7 -0.7
v -0.3 0.7 -0.8
v -0.1 0.7 -0.8
v 0.1 0.7 -0.8
v 0.3 0.7 -0.8
v -0.3 0.7 -0.9
v -0.2 0.7 -0.9
v 0.2 0.7 -0.9
v 0.3 0.7 -0.9
v -0.2 0.7 -1.1
v -0.1 0.7 -1.1
v 0.1 0.7 -1.1
v 0.2 0.7 -1.1
v -0.1 0.7 -1.2
v 0.1 0.7 -1.2
v -0.5 0.9 -0.1
v -0.3 0.9 -0.1
v -0.5 0.9 -0.3
v -0.3 0.9 -0.3
v -0.5 0.9 -0.4
v -0.3 0.9 -0.4
v -0.5 1 0.9
v -0.4 1 0.9
v 0.4 1 0.9
v 0.5 1 0.9
v -0.4 1 0.8
v -0.3 1 0.8
v 0.3 1 0.8
v 0.4 1 0.8
v -0.5 1 0.7
v -0.3 1 0.7
v 0.3 1 0.7
v 0.5 1 0.7
v -0.7 1 0.6
v -0.6 1 0.6
v 0.6 1 0.6
v 0.7 1 0.6
v -0.8 1 0.5
v -0.7 1 0.5
v -0.6 1 0.5
v -0.5 1 0.5
v 0.5 1 0.5
v 0.6 1 0.5
v 0.7 1 0.5
v 0.8 1 0.5
v -0.8 1 0.3
v -0.7 1 0.3
v 0.7 1 0.3
v 0.8 1 0.3
v -0.7 1 0.1
v -0.6 1 0.1
v -0.5 1 0.1
v -0.3 1 0.1
v 0.3 1 0.1
v 0.5 1 0.1
v 0.6 1 0.1
v 0.7 1 0.1
v -0.6 1 0
v -0.5 1 0
v -0.4 1 0
v -0.3 1 0
v 0.3 1 0
v 0.4 1 0
v 0.5 1 0
v 0.6 1 0
v -0.3 1 -0.1
v 0.3 1 -0.1
v 0.3 1 -0.3
v 0.5 1 -0.3
v -0.3 1 -0.4
v -0.1 1 -0.4
v 0.1 1 -0.4
v 0.3 1 -0.4
v 0.5 1 -0.4
v -0.3 1 -0.7
v -0.1 1 -0.7
v 0.1 1 -0.7
v 0.3 1 -0.7
v -0.3 1 -0.8
v -0.1 1 -0.8
v 0.1 1 -0.8
v 0.3 1 -0.8
v 0.3 1.1 -0.1
v 0.4 1.1 -0.1
v 0.5 1.1 -0.1
v 0.3 1.1 -0.3
v 0.5 1.1 -0.3
v -0.4 1.2 0.8
v -0.3 1.2 0.8
v 0.3 1.2 0.8
v 0.4 1.2 0.8
v -0.6 1.2 0.7
v -0.5 1.2 0.7
v -0.4 1.2 0.7
v -0.3 1.2 0.7
v 0.3 1.2 0.7
v 0.4 1.2 0.7
v 0.5 1.2 0.7
v 0.6 1.2 0.7
v -0.6 1.2 0.6
v -0.5 1.2 0.6
v 0.5 1.2 0.6
v 0.6 1.2 0.6
v -0.2 1.3 0.9
v -0.1 1.3 0.9
v 0.1 1.3 0.9
v 0.2 1.3 0.9
v -0.2 1.3 0.8
v -0.1 1.3 0.8
v 0.1 1.3 0.8
v 0.2 1.3 0.8
v -0.3 1.4 0.8
v -0.1 1.4 0.8
v 0.1 1.4 0.8
v 0.3 1.4 0.8
v -0.5 1.4 0.7
v -0.3 1.4 0.7
v 0.3 1.4 0.7
v 0.5 1.4 0.7
v -0.6 1.4 0.6
v -0.5 1.4 0.6
v 0.5 1.4 0.6
v 0.6 1.4 0.6
v -0.6 1.4 0.5
v -0.5 1.4 0.5
v 0.5 1.4 0.5
v 0.6 1.4 0.5
v -0.6 1.5 0.4
v -0.5 1.5 0.4
v 0.5 1.5 0.4
v 0.6 1.5 0.4
v -0.6 1.5 0.3
v -0.5 1.5 0.3
v 0.5 1.5 0.3
v 0.6 1.5 0.3
v -0.5 1.5 0
v -0.4 1.5 0
v -0.1 1.5 0
v 0.1 1.5 0
v 0.4 1.5 0
v 0.5 1.5 0
v -0.5 1.5 -0.1
v -0.4 1.5 -0.1
v -0.2 1.5 -0.1
v 0.2 1.5 -0.1
v 0.4 1.5 -0.1
v 0.5 1.5 -0.1
v -0.4 1.5 -0.2
v -0.2 1.5 -0.2
v 0.2 1.5 -0.2
v 0.4 1.5 -0.2
v -0.2 1.5 -0.3
v 0.2 1.5 -0.3
v -0.5 1.6 0.8
v -0.4 1.6 0.8
v 0.4 1.6 0.8
v 0.5 1.6 0.8
v -0.5 1.6 0.7
v 0.5 1.6 0.7
v -0.4 1.6 0.5
v -0.3 1.6 0.5
v -0.1 1.6 0.5
v 0.1 1.6 0.5
v 0.3 1.6 0.5
v 0.4 1.6 0.5
v -0.5 1.6 0.4
v -0.4 1.6 0.4
v -0.3 1.6 0.4
v -0.2 1.6 0.4
v -0.1 1.6 0.4
v 0.1 1.6 0.4
v 0.2 1.6 0.4
v 0.3 1.6 0.4
v 0.4 1.6 0.4
v 0.5 1.6 0.4
v -0.3 1.6 0.3
v -0.2 1.6 0.3
v -0.1 1.6 0.3
v 0.1 1.6 0.3
v 0.2 1.6 0.3
v 0.3 1.6 0.3
v -0.5 1.6 0.2
v 0.5 1.6 0.2
v -0.1 1.6 0.1
v 0.1 1.6 0.1
v -0.5 1.6 0
v -0.1 1.6 0
v 0.1 1.6 0
v 0.5 1.6 0
v -0.5 1.7 0.7
v 0.5 1.7 0.7
v -0.6 1.7 0.6
v -0.5 1.7 0.6
v 0.5 1.7 0.6
v 0.6 1.7 0.6
v -0.5 1.7 0.5
v -0.4 1.7 0.5
v -0.3 1.7 0.5
v -0.1 1.7 0.5
v 0.1 1.7 0.5
v 0.3 1.7 0.5
v 0.4 1.7 0.5
v 0.5 1.7 0.5
v -0.6 1.7 0.4
v -0.4 1.7 0.4
v -0.3 1.7 0.4
v -0.1 1.7 0.4
v 0.1 1.7 0.4
v 0.3 1.7 0.4
v 0.4 1.7 0.4
v 0.6 1.7 0.4
v -0.4 1.8 0.9
v -0.3 1.8 0.9
v 0.3 1.8 0.9
v 0.4 1.8 0.9
v -0.4 1.8 0.8
v -0.3 1.8 0.8
v 0.3 1.8 0.8
v 0.4 1.8 0.8
v -0.5 1.8 0.6
v 0.5 1.8 0.6
v -0.5 1.8 0.5
v 0.5 1.8 0.5
v -0.3 1.9 0.9
v 0.3 1.9 0.9
v -0.3 1.9 0.8
v 0.3 1.9 0.8

# faces
f 3/4/1 2/4/1 1/4/1
f 4/4/1 2/4/1 3/4/1
f 7/5/1 6/5/1 5/5/1
f 8/5/1 6/5/1 7/5/1
f 9/5/1 6/5/1 8/5/1
f 10/5/1 6/5/1 9/5/1
f 11/4/1 8/4/1 7/4/1
f 12/4/1 8/4/1 11/4/1
f 13/4/1 10/4/1 9/4/1
f 14/4/1 10/4/1 13/4/1
f 19/5/1 16/5/1 15/5/1
f 20/5/1 16/5/1 19/5/1
f 21/5/1 18/5/1 17/5/1
f 22/5/1 18/5/1 21/5/1
f 23/4/1 20/4/1 19/4/1
f 24/4/1 20/4/1 23/4/1
f 26/4/1 22/4/1 21/4/1
f 27/4/1 22/4/1 26/4/1
f 28/7/1 25/7/1 24/7/1
f 28/7/1 24/7/1 23/7/1
f 30/7/1 28/7/1 23/7/1
f 30/7/1 29/7/1 28/7/1
f 31/7/1 29/7/1 30/7/1
f 32/7/1 29/7/1 31/7/1
f 33/7/1 29/7/1 32/7/1
f 34/7/1 29/7/1 33/7/1
f 37/7/1 35/7/1 34/7/1
f 37/7/1 34/7/1 33/7/1
f 38/7/1 35/7/1 37/7/1
f 39/7/1 35/7/1 38/7/1
f 40/7/1 37/7/1 36/7/1
f 40/7/1 38/7/1 37/7/1
f 41/7/1 38/7/1 40/7/1
f 46/5/1 43/5/1 42/5/1
f 47/5/1 43/5/1 46/5/1
f 49/4/1 45/4/1 44/4/1
f 50/4/1 47/4/1 46/4/1
f 51/4/1 47/4/1 50/4/1
f 52/4/1 47/4/1 51/4/1
f 56/4/1 49/4/1 48/4/1
f 57/4/1 45/4/1 49/4/1
f 57/4/1 49/4/1 56/4/1
f 58/5/1 55/5/1 54/5/1
f 59/5/1 55/5/1 58/5/1
f 60/10/1 52/10/1 51/10/1
f 61/1/1 53/1/1 52/1/1
f 61/10/1 52/10/1 60/10/1
f 62/1/1 53/1/1 61/1/1
f 63/4/1 59/4/1 58/4/1
f 64/4/1 59/4/1 63/4/1
f 67/7/1 66/7/1 65/7/1
f 68/7/1 66/7/1 67/7/1
f 69/7/1 66/7/1 68/7/1
f 73/1/1 70/1/1 69/1/1
f 73/1/1 69/1/1 68/1/1
f 74/1/1 70/1/1 73/1/1
f 75/7/1 72/7/1 71/7/1
f 76/7/1 72/7/1 75/7/1
f 78/1/1 73/1/1 68/1/1
f 79/1/1 73/1/1 78/1/1
f 80/1/1 73/1/1 79/1/1
f 81/8/1 74/8/1 73/8/1
f 81/1/1 73/1/1 80/1/1
f 82/8/1 74/8/1 81/8/1
f 85/7/1 77/7/1 76/7/1
f 86/7/1 77/7/1 85/7/1
f 88/1/1 80/1/1 79/1/1
f 89/8/1 82/8/1 81/8/1
f 89/8/1 81/8/1 80/8/1
f 89/8/1 83/8/1 82/8/1
f 90/8/1 83/8/1 89/8/1
f 91/7/1 85/7/1 84/7/1
f 92/7/1 85/7/1 91/7/1
f 93/1/1 88/1/1 87/1/1
f 94/1/1 80/1/1 88/1/1
f 94/1/1 88/1/1 93/1/1
f 94/8/1 89/8/1 80/8/1
f 95/8/1 89/8/1 94/8/1
f 96/7/1 85/7/1 92/7/1
f 97/7/1 85/7/1 96/7/1
f 99/7/1 98/7/1 97/7/1
f 100/7/1 98/7/1 99/7/1
f 103/5/1 102/5/1 101/5/1
f 104/5/1 102/5/1 103/5/1
f 108/5/1 106/5/1 105/5/1
f 109/5/1 106/5/1 108/5/1
f 114/5/1 108/5/1 107/5/1
f 115/5/1 108/5/1 114/5/1
f 116/5/1 110/5/1 109/5/1
f 117/5/1 110/5/1 116/5/1
f 119/4/1 112/4/1 111/4/1
f 120/4/1 112/4/1 119/4/1
f 121/4/1 115/4/1 114/4/1
f 121/4/1 114/4/1 113/4/1
f 122/4/1 115/4/1 121/4/1
f 123/4/1 118/4/1 117/4/1
f 123/4/1 117/4/1 116/4/1
f 124/4/1 118/4/1 123/4/1
f 125/4/1 118/4/1 124/4/1
f 128/4/1 127/4/1 126/4/1
f 129/4/1 127/4/1 128/4/1
f 134/1/1 131/1/1 130/1/1
f 135/4/1 133/4/1 132/4/1
f 136/4/1 133/4/1 135/4/1
f 137/1/1 131/1/1 134/1/1
f 138/1/1 131/1/1 137/1/1
f 139/1/1 131/1/1 138/1/1
f 141/8/1 139/8/1 138/8/1
f 141/8/1 140/8/1 139/8/1
f 142/8/1 140/8/1 141/8/1
f 143/8/1 140/8/1 142/8/1
f 144/8/1 140/8/1 143/8/1
f 147/4/1 146/4/1 145/4/1
f 148/4/1 146/4/1 147/4/1
f 153/5/1 150/5/1 149/5/1
f 154/5/1 150/5/1 153/5/1
f 157/5/1 152/5/1 151/5/1
f 158/5/1 152/5/1 157/5/1
f 161/5/1 156/5/1 155/5/1
f 162/5/1 156/5/1 161/5/1
f 165/5/1 160/5/1 159/5/1
f 166/5/1 160/5/1 165/5/1
f 167/5/1 164/5/1 163/5/1
f 168/5/1 164/5/1 167/5/1
f 170/5/1 165/5/1 159/5/1
f 171/5/1 165/5/1 170/5/1
f 172/5/1 169/5/1 168/5/1
f 173/5/1 169/5/1 172/5/1
f 174/5/1 169/5/1 173/5/1
f 179/4/1 175/4/1 174/4/1
f 179/4/1 174/4/1 173/4/1
f 180/4/1 175/4/1 179/4/1
f 181/4/1 175/4/1 180/4/1
f 182/4/1 175/4/1 181/4/1
f 183/4/1 178/4/1 177/4/1
f 183/4/1 177/4/1 176/4/1
f 184/4/1 178/4/1 183/4/1
f 185/4/1 178/4/1 184/4/1
f 188/11/1 181/11/1 180/11/1
f 193/9/1 187/9/1 186/9/1
f 194/11/1 188/11/1 187/11/1
f 194/9/1 187/9/1 193/9/1
f 195/11/1 181/11/1 188/11/1
f 195/11/1 188/11/1 194/11/1
f 196/11/1 181/11/1 195/11/1
f 198/10/1 192/10/1 191/10/1
f 198/10/1 190/10/1 189/10/1
f 198/10/1 191/10/1 190/10/1
f 199/10/1 192/10/1 198/10/1
f 200/9/1 193/9/1 192/9/1
f 200/10/1 192/10/1 199/10/1
f 200/9/1 194/9/1 193/9/1
f 200/9/1 195/9/1 194/9/1
f 201/1/1 196/1/1 195/1/1
f 201/9/1 195/9/1 200/9/1
f 202/1/1 196/1/1 201/1/1
f 203/7/1 198/7/1 197/7/1
f 204/7/1 198/7/1 203/7/1
f 207/4/1 206/4/1 205/4/1
f 208/4/1 206/4/1 207/4/1
f 211/4/1 210/4/1 209/4/1
f 212/4/1 210/4/1 211/4/1
f 215/9/1 214/9/1 213/9/1
f 216/9/1 214/9/1 215/9/1
f 219/4/1 218/4/1 217/4/1
f 220/4/1 218/4/1 219/4/1
f 225/5/1 222/5/1 221/5/1
f 226/5/1 222/5/1 225/5/1
f 229/5/1 224/5/1 223/5/1
f 230/5/1 224/5/1 229/5/1
f 231/5/1 227/5/1 226/5/1
f 232/5/1 227/5/1 231/5/1
f 233/5/1 229/5/1 228/5/1
f 234/5/1 229/5/1 233/5/1
f 239/5/1 236/5/1 235/5/1
f 240/5/1 236/5/1 239/5/1
f 243/5/1 238/5/1 237/5/1
f 244/5/1 238/5/1 243/5/1
f 245/5/1 242/5/1 241/5/1
f 246/5/1 242/5/1 245/5/1
f 248/4/1 247/4/1 246/4/1
f 249/4/1 247/4/1 248/4/1
f 253/4/1 251/4/1 250/4/1
f 254/4/1 251/4/1 253/4/1
f 254/4/1 253/4/1 252/4/1
f 255/4/1 251/4/1 254/4/1
f 258/4/1 254/4/1 252/4/1
f 259/4/1 254/4/1 258/4/1
f 260/8/1 257/8/1 256/8/1
f 261/8/1 257/8/1 260/8/1
f 264/8/1 263/8/1 262/8/1
f 265/8/1 263/8/1 264/8/1
f 270/5/1 267/5/1 266/5/1
f 271/5/1 267/5/1 270/5/1
f 276/5/1 269/5/1 268/5/1
f 277/5/1 269/5/1 276/5/1
f 278/5/1 273/5/1 272/5/1
f 279/5/1 273/5/1 278/5/1
f 280/5/1 275/5/1 274/5/1
f 281/5/1 275/5/1 280/5/1
f 284/5/1 283/5/1 282/5/1
f 285/5/1 283/5/1 284/5/1
f 288/5/1 287/5/1 286/5/1
f 289/5/1 287/5/1 288/5/1
f 292/4/1 291/4/1 290/4/1
f 293/4/1 291/4/1 292/4/1
f 297/4/1 295/4/1 294/4/1
f 298/4/1 295/4/1 297/4/1
f 299/4/1 297/4/1 296/4/1
f 300/4/1 297/4/1 299/4/1
f 305/8/1 302/8/1 301/8/1
f 306/4/1 304/4/1 303/4/1
f 307/8/1 302/8/1 305/8/1
f 308/8/1 302/8/1 307/8/1
f 309/4/1 306/4/1 303/4/1
f 310/4/1 306/4/1 309/4/1
f 315/11/1 312/11/1 311/11/1
f 317/9/1 314/9/1 313/9/1
f 318/11/1 315/11/1 314/11/1
f 318/9/1 314/9/1 317/9/1
f 319/11/1 312/11/1 315/11/1
f 319/11/1 315/11/1 318/11/1
f 320/11/1 312/11/1 319/11/1
f 321/9/1 317/9/1 316/9/1
f 321/9/1 318/9/1 317/9/1
f 321/9/1 319/9/1 318/9/1
f 322/1/1 320/1/1 319/1/1
f 322/9/1 319/9/1 321/9/1
f 323/1/1 320/1/1 322/1/1
f 326/9/1 325/9/1 324/9/1
f 327/9/1 325/9/1 326/9/1
f 330/5/1 329/5/1 328/5/1
f 331/5/1 329/5/1 330/5/1
f 332/4/1 331/4/1 330/4/1
f 333/4/1 331/4/1 332/4/1
f 336/1/1 335/1/1 334/1/1
f 337/1/1 335/1/1 336/1/1
f 343/4/1 339/4/1 338/4/1
f 343/4/1 340/4/1 339/4/1
f 344/4/1 340/4/1 343/4/1
f 345/4/1 340/4/1 344/4/1
f 346/5/1 342/5/1 341/5/1
f 347/5/1 342/5/1 346/5/1
f 348/4/1 347/4/1 346/4/1
f 349/4/1 347/4/1 348/4/1
f 352/7/1 351/7/1 350/7/1
f 353/7/1 351/7/1 352/7/1
f 356/5/1 355/5/1 354/5/1
f 357/5/1 355/5/1 356/5/1
f 358/5/2 359/5/2 362/5/2
f 362/5/2 359/5/2 363/5/2
f 360/5/2 361/5/2 364/5/2
f 364/5/2 361/5/2 365/5/2
f 366/4/2 367/4/2 370/4/2
f 370/4/2 367/4/2 371/4/2
f 368/5/2 369/5/2 372/5/2
f 372/5/2 369/5/2 373/5/2
f 372/4/2 373/4/2 374/4/2
f 374/4/2 373/4/2 375/4/2
f 376/7/2 377/7/2 378/7/2
f 378/7/2 377/7/2 379/7/2
f 380/5/2 381/5/2 382/5/2
f 382/5/2 381/5/2 383/5/2
f 382/4/2 383/4/2 384/4/2
f 384/4/2 383/4/2 385/4/2
f 386/11/2 387/11/2 390/11/2
f 388/9/2 389/9/2 392/9/2
f 389/11/2 390/11/2 393/11/2
f 392/9/2 389/9/2 393/9/2
f 390/11/2 387/11/2 394/11/2
f 393/11/2 390/11/2 394/11/2
f 394/11/2 387/11/2 395/11/2
f 391/9/2 392/9/2 396/9/2
f 392/9/2 393/9/2 396/9/2
f 393/9/2 394/9/2 396/9/2
f 394/1/2 395/1/2 397/1/2
f 396/9/2 394/9/2 397/9/2
f 397/1/2 395/1/2 398/1/2
f 399/9/2 400/9/2 401/9/2
f 401/9/2 400/9/2 402/9/2
f 403/5/2 404/5/2 407/5/2
f 407/5/2 404/5/2 408/5/2
f 405/5/2 406/5/2 413/5/2
f 413/5/2 406/5/2 414/5/2
f 409/5/2 410/5/2 415/5/2
f 415/5/2 410/5/2 416/5/2
f 411/5/2 412/5/2 417/5/2
f 417/5/2 412/5/2 418/5/2
f 419/5/2 420/5/2 421/5/2
f 421/5/2 420/5/2 422/5/2
f 423/5/2 424/5/2 425/5/2
f 425/5/2 424/5/2 426/5/2
f 427/4/2 428/4/2 429/4/2
f 429/4/2 428/4/2 430/4/2
f 431/4/2 432/4/2 434/4/2
f 434/4/2 432/4/2 435/4/2
f 433/4/2 434/4/2 436/4/2
f 436/4/2 434/4/2 437/4/2
f 438/8/2 439/8/2 442/8/2
f 440/4/2 441/4/2 443/4/2
f 442/8/2 439/8/2 444/8/2
f 444/8/2 439/8/2 445/8/2
f 440/4/2 443/4/2 446/4/2
f 446/4/2 443/4/2 447/4/2
f 448/5/2 449/5/2 452/5/2
f 452/5/2 449/5/2 453/5/2
f 450/5/2 451/5/2 456/5/2
f 456/5/2 451/5/2 457/5/2
f 453/5/2 454/5/2 458/5/2
f 458/5/2 454/5/2 459/5/2
f 455/5/2 456/5/2 460/5/2
f 460/5/2 456/5/2 461/5/2
f 462/5/2 463/5/2 466/5/2
f 466/5/2 463/5/2 467/5/2
f 464/5/2 465/5/2 470/5/2
f 470/5/2 465/5/2 471/5/2
f 468/5/2 469/5/2 472/5/2
f 472/5/2 469/5/2 473/5/2
f 473/4/2 474/4/2 475/4/2
f 475/4/2 474/4/2 476/4/2
f 477/4/2 478/4/2 480/4/2
f 480/4/2 478/4/2 481/4/2
f 479/4/2 480/4/2 481/4/2
f 481/4/2 478/4/2 482/4/2
f 479/4/2 481/4/2 485/4/2
f 485/4/2 481/4/2 486/4/2
f 483/8/2 484/8/2 487/8/2
f 487/8/2 484/8/2 488/8/2
f 489/8/2 490/8/2 491/8/2
f 491/8/2 490/8/2 492/8/2
f 493/5/2 494/5/2 497/5/2
f 497/5/2 494/5/2 498/5/2
f 495/5/2 496/5/2 501/5/2
f 501/5/2 496/5/2 502/5/2
f 499/5/2 500/5/2 505/5/2
f 505/5/2 500/5/2 506/5/2
f 503/5/2 504/5/2 509/5/2
f 509/5/2 504/5/2 510/5/2
f 507/5/2 508/5/2 511/5/2
f 511/5/2 508/5/2 512/5/2
f 503/5/2 509/5/2 514/5/2
f 514/5/2 509/5/2 515/5/2
f 512/5/2 513/5/2 516/5/2
f 516/5/2 513/5/2 517/5/2
f 517/5/2 513/5/2 518/5/2
f 518/4/2 519/4/2 525/4/2
f 517/4/2 518/4/2 525/4/2
f 525/4/2 519/4/2 526/4/2
f 526/4/2 519/4/2 527/4/2
f 527/4/2 519/4/2 528/4/2
f 521/4/2 522/4/2 529/4/2
f 520/4/2 521/4/2 529/4/2
f 529/4/2 522/4/2 530/4/2
f 530/4/2 522/4/2 531/4/2
f 526/11/2 527/11/2 534/11/2
f 523/10/2 524/10/2 537/10/2
f 537/10/2 524/10/2 538/10/2
f 532/9/2 533/9/2 539/9/2
f 533/11/2 534/11/2 540/11/2
f 539/9/2 533/9/2 540/9/2
f 534/11/2 527/11/2 541/11/2
f 540/11/2 534/11/2 541/11/2
f 541/11/2 527/11/2 542/11/2
f 535/10/2 536/10/2 544/10/2
f 544/10/2 536/10/2 545/10/2
f 538/9/2 539/9/2 546/9/2
f 539/9/2 540/9/2 546/9/2
f 540/9/2 541/9/2 546/9/2
f 541/1/2 542/1/2 547/1/2
f 546/9/2 541/9/2 547/9/2
f 547/1/2 542/1/2 548/1/2
f 543/7/2 544/7/2 549/7/2
f 549/7/2 544/7/2 550/7/2
f 551/4/2 552/4/2 553/4/2
f 553/4/2 552/4/2 554/4/2
f 555/4/2 556/4/2 557/4/2
f 557/4/2 556/4/2 558/4/2
f 559/9/2 560/9/2 561/9/2
f 561/9/2 560/9/2 562/9/2
f 563/4/2 564/4/2 565/4/2
f 565/4/2 564/4/2 566/4/2
f 567/5/2 568/5/2 569/5/2
f 569/5/2 568/5/2 570/5/2
f 571/5/2 572/5/2 574/5/2
f 574/5/2 572/5/2 575/5/2
f 573/5/2 574/5/2 580/5/2
f 580/5/2 574/5/2 581/5/2
f 575/5/2 576/5/2 582/5/2
f 582/5/2 576/5/2 583/5/2
f 577/4/2 578/4/2 585/4/2
f 585/4/2 578/4/2 586/4/2
f 580/4/2 581/4/2 587/4/2
f 579/4/2 580/4/2 587/4/2
f 587/4/2 581/4/2 588/4/2
f 583/4/2 584/4/2 589/4/2
f 582/4/2 583/4/2 589/4/2
f 589/4/2 584/4/2 590/4/2
f 591/1/2 592/1/2 595/1/2
f 595/1/2 592/1/2 596/1/2
f 593/4/2 594/4/2 597/4/2
f 597/4/2 594/4/2 598/4/2
f 595/1/2 596/1/2 599/1/2
f 599/1/2 596/1/2 600/1/2
f 600/1/2 596/1/2 601/1/2
f 600/8/2 601/8/2 603/8/2
f 601/8/2 602/8/2 603/8/2
f 603/8/2 602/8/2 604/8/2
f 604/8/2 602/8/2 605/8/2
f 605/8/2 602/8/2 606/8/2
f 607/4/2 608/4/2 609/4/2
f 609/4/2 608/4/2 610/4/2
f 611/5/2 612/5/2 615/5/2
f 615/5/2 612/5/2 616/5/2
f 613/4/2 614/4/2 618/4/2
f 615/4/2 616/4/2 619/4/2
f 619/4/2 616/4/2 620/4/2
f 620/4/2 616/4/2 621/4/2
f 617/4/2 618/4/2 623/4/2
f 618/4/2 614/4/2 624/4/2
f 623/4/2 618/4/2 624/4/2
f 622/5/2 623/5/2 625/5/2
f 625/5/2 623/5/2 626/5/2
f 620/10/2 621/10/2 627/10/2
f 627/10/2 621/10/2 628/10/2
f 625/4/2 626/4/2 630/4/2
f 630/4/2 626/4/2 631/4/2
f 627/1/2 628/1/2 634/1/2
f 628/1/2 629/1/2 634/1/2
f 634/1/2 629/1/2 635/1/2
f 632/7/2 633/7/2 636/7/2
f 636/7/2 633/7/2 637/7/2
f 637/7/2 633/7/2 638/7/2
f 627/1/2 634/1/2 640/1/2
f 640/1/2 634/1/2 641/1/2
f 638/1/2 639/1/2 644/1/2
f 637/1/2 638/1/2 644/1/2
f 644/1/2 639/1/2 645/1/2
f 642/7/2 643/7/2 646/7/2
f 646/7/2 643/7/2 647/7/2
f 637/1/2 644/1/2 649/1/2
f 649/1/2 644/1/2 650/1/2
f 650/1/2 644/1/2 651/1/2
f 644/8/2 645/8/2 652/8/2
f 651/1/2 644/1/2 652/1/2
f 652/8/2 645/8/2 653/8/2
f 647/7/2 648/7/2 656/7/2
f 656/7/2 648/7/2 657/7/2
f 650/1/2 651/1/2 659/1/2
f 652/8/2 653/8/2 660/8/2
f 651/8/2 652/8/2 660/8/2
f 653/8/2 654/8/2 660/8/2
f 660/8/2 654/8/2 661/8/2
f 655/7/2 656/7/2 662/7/2
f 662/7/2 656/7/2 663/7/2
f 658/1/2 659/1/2 664/1/2
f 659/1/2 651/1/2 665/1/2
f 664/1/2 659/1/2 665/1/2
f 651/8/2 660/8/2 665/8/2
f 665/8/2 660/8/2 666/8/2
f 663/7/2 656/7/2 667/7/2
f 667/7/2 656/7/2 668/7/2
f 668/7/2 669/7/2 670/7/2
f 670/7/2 669/7/2 671/7/2
f 672/5/2 673/5/2 676/5/2
f 676/5/2 673/5/2 677/5/2
f 674/5/2 675/5/2 678/5/2
f 678/5/2 675/5/2 679/5/2
f 676/4/2 677/4/2 680/4/2
f 680/4/2 677/4/2 681/4/2
f 678/4/2 679/4/2 683/4/2
f 683/4/2 679/4/2 684/4/2
f 681/7/2 682/7/2 685/7/2
f 680/7/2 681/7/2 685/7/2
f 680/7/2 685/7/2 687/7/2
f 685/7/2 686/7/2 687/7/2
f 687/7/2 686/7/2 688/7/2
f 688/7/2 686/7/2 689/7/2
f 689/7/2 686/7/2 690/7/2
f 690/7/2 686/7/2 691/7/2
f 691/7/2 692/7/2 694/7/2
f 690/7/2 691/7/2 694/7/2
f 694/7/2 692/7/2 695/7/2
f 695/7/2 692/7/2 696/7/2
f 693/7/2 694/7/2 697/7/2
f 694/7/2 695/7/2 697/7/2
f 697/7/2 695/7/2 698/7/2
f 699/5/2 700/5/2 701/5/2
f 701/5/2 700/5/2 702/5/2
f 702/5/2 700/5/2 703/5/2
f 703/5/2 700/5/2 704/5/2
f 701/4/2 702/4/2 705/4/2
f 705/4/2 702/4/2 706/4/2
f 703/4/2 704/4/2 707/4/2
f 707/4/2 704/4/2 708/4/2
f 709/4/2 710/4/2 711/4/2
f 711/4/2 710/4/2 712/4/2
f 716/5/3 714/5/3 713/5/3
f 717/4/3 715/4/3 714/4/3
f 717/5/3 714/5/3 716/5/3
f 718/4/3 715/4/3 717/4/3
f 722/4/3 720/4/3 719/4/3
f 723/4/3 720/4/3 722/4/3
f 728/4/3 726/4/3 725/4/3
f 729/4/3 726/4/3 728/4/3
f 730/4/3 722/4/3 721/4/3
f 730/4/3 723/4/3 722/4/3
f 730/4/3 724/4/3 723/4/3
f 731/4/3 729/4/3 728/4/3
f 731/4/3 730/4/3 729/4/3
f 731/4/3 728/4/3 727/4/3
f 732/4/3 730/4/3 731/4/3
f 733/4/3 730/4/3 732/4/3
f 734/4/3 724/4/3 730/4/3
f 734/4/3 730/4/3 733/4/3
f 735/4/3 733/4/3 732/4/3
f 736/4/3 733/4/3 735/4/3
f 737/4/3 724/4/3 734/4/3
f 738/4/3 724/4/3 737/4/3
f 739/4/3 724/4/3 738/4/3
f 740/4/3 724/4/3 739/4/3
f 744/4/3 739/4/3 738/4/3
f 745/4/3 739/4/3 744/4/3
f 746/5/3 742/5/3 741/5/3
f 747/4/3 743/4/3 742/4/3
f 747/5/3 742/5/3 746/5/3
f 748/4/3 743/4/3 747/4/3
f 756/7/3 750/7/3 749/7/3
f 757/5/3 752/5/3 751/5/3
f 758/4/3 753/4/3 752/4/3
f 758/5/3 752/5/3 757/5/3
f 759/4/3 753/4/3 758/4/3
f 760/4/3 755/4/3 754/4/3
f 762/7/3 756/7/3 749/7/3
f 763/7/3 756/7/3 762/7/3
f 766/4/3 761/4/3 760/4/3
f 766/4/3 760/4/3 754/4/3
f 767/4/3 761/4/3 766/4/3
f 769/4/3 765/4/3 764/4/3
f 770/4/3 765/4/3 769/4/3
f 771/4/3 761/4/3 767/4/3
f 772/4/3 761/4/3 771/4/3
f 773/4/3 769/4/3 768/4/3
f 774/4/3 769/4/3 773/4/3
f 778/4/3 775/4/3 774/4/3
f 779/4/3 775/4/3 778/4/3
f 781/4/3 777/4/3 776/4/3
f 785/4/3 781/4/3 780/4/3
f 786/4/3 777/4/3 781/4/3
f 786/4/3 781/4/3 785/4/3
f 789/5/3 783/5/3 782/5/3
f 790/4/3 784/4/3 783/4/3
f 790/5/3 783/5/3 789/5/3
f 791/4/3 784/4/3 790/4/3
f 792/4/3 785/4/3 780/4/3
f 793/4/3 785/4/3 792/4/3
f 794/7/3 788/7/3 787/7/3
f 795/7/3 794/7/3 787/7/3
f 796/7/3 794/7/3 795/7/3
f 801/5/3 798/5/3 797/5/3
f 802/4/3 799/4/3 798/4/3
f 802/5/3 798/5/3 801/5/3
f 803/7/3 800/7/3 799/7/3
f 803/4/3 799/4/3 802/4/3
f 804/7/3 800/7/3 803/7/3
f 808/7/3 805/7/3 804/7/3
f 808/7/3 804/7/3 803/7/3
f 809/7/3 805/7/3 808/7/3
f 813/7/3 808/7/3 803/7/3
f 814/7/3 805/7/3 809/7/3
f 815/7/3 805/7/3 814/7/3
f 816/4/3 812/4/3 811/4/3
f 816/7/3 813/7/3 812/7/3
f 816/4/3 811/4/3 810/4/3
f 817/7/3 808/7/3 813/7/3
f 817/7/3 813/7/3 816/7/3
f 818/4/3 816/4/3 810/4/3
f 819/4/3 816/4/3 818/4/3
f 820/4/3 818/4/3 810/4/3
f 822/4/3 821/4/3 820/4/3
f 824/4/3 822/4/3 820/4/3
f 824/4/3 820/4/3 810/4/3
f 825/4/3 822/4/3 824/4/3
f 826/7/3 823/7/3 822/7/3
f 826/4/3 822/4/3 825/4/3
f 827/7/3 823/7/3 826/7/3
f 832/7/3 823/7/3 827/7/3
f 833/7/3 829/7/3 828/7/3
f 834/4/3 831/4/3 830/4/3
f 835/4/3 831/4/3 834/4/3
f 837/7/3 833/7/3 832/7/3
f 837/7/3 832/7/3 827/7/3
f 838/7/3 829/7/3 833/7/3
f 838/7/3 833/7/3 837/7/3
f 839/7/3 829/7/3 838/7/3
f 840/7/3 807/7/3 806/7/3
f 841/7/3 807/7/3 840/7/3
f 842/5/3 836/5/3 835/5/3
f 843/4/3 837/4/3 836/4/3
f 843/5/3 836/5/3 842/5/3
f 844/7/3 838/7/3 837/7/3
f 844/4/3 837/4/3 843/4/3
f 845/7/3 838/7/3 844/7/3
f 849/5/3 847/5/3 846/5/3
f 850/4/3 848/4/3 847/4/3
f 850/5/3 847/5/3 849/5/3
f 851/4/3 848/4/3 850/4/3
f 859/7/3 853/7/3 852/7/3
f 860/7/3 853/7/3 859/7/3
f 861/7/3 855/7/3 854/7/3
f 862/7/3 855/7/3 861/7/3
f 865/4/3 857/4/3 856/4/3
f 866/7/3 858/7/3 857/7/3
f 866/4/3 857/4/3 865/4/3
f 867/7/3 858/7/3 866/7/3
f 868/4/3 865/4/3 864/4/3
f 871/5/3 870/5/3 869/5/3
f 872/5/3 870/5/3 871/5/3
f 873/4/3 868/4/3 864/4/3
f 874/4/3 873/4/3 864/4/3
f 875/4/3 873/4/3 874/4/3
f 877/7/3 861/7/3 860/7/3
f 878/7/3 861/7/3 877/7/3
f 879/7/3 863/7/3 862/7/3
f 880/7/3 863/7/3 879/7/3
f 884/7/3 877/7/3 876/7/3
f 885/7/3 877/7/3 884/7/3
f 886/7/3 879/7/3 878/7/3
f 887/7/3 879/7/3 886/7/3
f 888/5/3 882/5/3 881/5/3
f 889/4/3 883/4/3 882/4/3
f 889/5/3 882/5/3 888/5/3
f 890/4/3 883/4/3 889/4/3
f 893/4/3 892/4/3 891/4/3
f 894/4/3 892/4/3 893/4/3
f 899/7/3 896/7/3 895/7/3
f 900/7/3 896/7/3 899/7/3
f 901/4/3 898/4/3 897/4/3
f 902/4/3 898/4/3 901/4/3
f 904/4/3 903/4/3 902/4/3
f 905/4/3 903/4/3 904/4/3
f 910/5/3 907/5/3 906/5/3
f 911/5/3 907/5/3 910/5/3
f 914/5/3 913/5/3 912/5/3
f 915/5/3 913/5/3 914/5/3
f 916/5/3 909/5/3 908/5/3
f 917/5/3 909/5/3 916/5/3
f 921/4/3 919/4/3 918/4/3
f 922/4/3 919/4/3 921/4/3
f 923/4/3 921/4/3 920/4/3
f 924/4/3 921/4/3 923/4/3
f 927/7/3 926/7/3 925/7/3
f 928/7/3 926/7/3 927/7/3
f 931/4/3 930/4/3 929/4/3
f 932/4/3 930/4/3 931/4/3
f 935/5/3 934/5/3 933/5/3
f 936/5/3 934/5/3 935/5/3
f 938/5/3 935/5/3 933/5/3
f 939/5/3 938/5/3 937/5/3
f 940/5/3 935/5/3 938/5/3
f 940/5/3 938/5/3 939/5/3
f 941/5/3 935/5/3 940/5/3
f 943/5/3 941/5/3 940/5/3
f 943/5/3 942/5/3 941/5/3
f 944/5/3 942/5/3 943/5/3
f 949/5/3 946/5/3 945/5/3
f 950/5/3 946/5/3 949/5/3
f 951/5/3 948/5/3 947/5/3
f 952/5/3 948/5/3 951/5/3
f 954/5/3 953/5/3 952/5/3
f 955/5/3 953/5/3 954/5/3
f 959/5/3 957/5/3 956/5/3
f 960/5/3 957/5/3 959/5/3
f 961/5/3 959/5/3 958/5/3
f 962/5/3 959/5/3 961/5/3
f 965/5/3 964/5/3 963/5/3
f 966/5/3 964/5/3 965/5/3
f 973/5/3 968/5/3 967/5/3
f 974/4/3 969/4/3 968/4/3
f 974/5/3 968/5/3 973/5/3
f 975/4/3 969/4/3 974/4/3
f 976/5/3 971/5/3 970/5/3
f 977/5/3 971/5/3 976/5/3
f 978/5/3 973/5/3 972/5/3
f 979/5/3 973/5/3 978/5/3
f 984/5/3 981/5/3 980/5/3
f 985/5/3 981/5/3 984/5/3
f 986/5/3 983/5/3 982/5/3
f 987/5/3 983/5/3 986/5/3
f 990/5/3 988/5/3 987/5/3
f 991/4/3 989/4/3 988/4/3
f 991/5/3 988/5/3 990/5/3
f 992/4/3 989/4/3 991/4/3
f 995/5/3 994/5/3 993/5/3
f 996/5/3 994/5/3 995/5/3
f 999/5/3 998/5/3 997/5/3
f 1000/5/3 998/5/3 999/5/3
f 1003/1/3 1002/1/3 1001/1/3
f 1004/1/3 1002/1/3 1003/1/3
f 1007/1/3 1006/1/3 1005/1/3
f 1008/1/3 1006/1/3 1007/1/3
f 1011/10/3 1010/10/3 1009/10/3
f 1012/10/3 1010/10/3 1011/10/3
f 1013/10/3 1011/10/3 1009/10/3
f 1013/3/3 1012/3/3 1011/3/3
f 1014/3/3 1012/3/3 1013/3/3
f 1016/1/3 1015/1/3 1014/1/3
f 1018/10/3 1014/10/3 1013/10/3
f 1018/10/3 1013/10/3 1009/10/3
f 1019/1/3 1017/1/3 1016/1/3
f 1019/10/3 1014/10/3 1018/10/3
f 1019/1/3 1016/1/3 1014/1/3
f 1020/1/3 1017/1/3 1019/1/3
f 1023/9/3 1022/9/3 1021/9/3
f 1024/9/3 1022/9/3 1023/9/3
f 1027/9/3 1026/9/3 1025/9/3
f 1028/9/3 1026/9/3 1027/9/3
f 1031/11/3 1030/11/3 1029/11/3
f 1032/11/3 1030/11/3 1031/11/3
f 1035/11/3 1034/11/3 1033/11/3
f 1036/11/3 1034/11/3 1035/11/3
f 1037/4/4 1038/4/4 1039/4/4
f 1041/4/4 1042/4/4 1043/4/4
f 1043/4/4 1042/4/4 1044/4/4
f 1037/4/4 1039/4/4 1045/4/4
f 1039/4/4 1040/4/4 1045/4/4
f 1045/4/4 1040/4/4 1046/4/4
f 1037/4/4 1045/4/4 1047/4/4
f 1047/4/4 1045/4/4 1048/4/4
f 1049/5/4 1050/5/4 1051/5/4
f 1051/5/4 1050/5/4 1052/5/4
f 1053/7/4 1054/7/4 1055/7/4
f 1055/7/4 1054/7/4 1056/7/4
f 1057/7/4 1058/7/4 1060/7/4
f 1059/7/4 1060/7/4 1061/7/4
f 1060/7/4 1058/7/4 1062/7/4
f 1061/7/4 1060/7/4 1062/7/4
f 1062/7/4 1058/7/4 1064/7/4
f 1063/7/4 1064/7/4 1065/7/4
f 1064/7/4 1058/7/4 1066/7/4
f 1065/7/4 1064/7/4 1066/7/4
f 1066/7/4 1058/7/4 1068/7/4
f 1067/7/4 1068/7/4 1069/7/4
f 1068/7/4 1058/7/4 1070/7/4
f 1069/7/4 1068/7/4 1070/7/4
f 1070/7/4 1058/7/4 1073/7/4
f 1073/7/4 1058/7/4 1074/7/4
f 1071/7/4 1072/7/4 1075/7/4
f 1075/7/4 1072/7/4 1076/7/4
f 1077/7/4 1078/7/4 1083/7/4
f 1083/7/4 1078/7/4 1084/7/4
f 1079/7/4 1080/7/4 1085/7/4
f 1085/7/4 1080/7/4 1086/7/4
f 1081/4/4 1082/4/4 1087/4/4
f 1087/4/4 1082/4/4 1088/4/4
f 1086/7/4 1080/7/4 1089/7/4
f 1089/7/4 1080/7/4 1090/7/4
f 1091/9/4 1092/9/4 1093/9/4
f 1093/9/4 1092/9/4 1094/9/4
f 1094/9/4 1092/9/4 1095/9/4
f 1096/9/4 1097/9/4 1098/9/4
f 1098/9/4 1097/9/4 1099/9/4
f 1099/9/4 1097/9/4 1100/9/4
f 1088/4/4 1082/4/4 1102/4/4
f 1101/4/4 1102/4/4 1105/4/4
f 1102/4/4 1082/4/4 1106/4/4
f 1105/4/4 1102/4/4 1106/4/4
f 1103/7/4 1104/7/4 1110/7/4
f 1107/7/4 1108/7/4 1111/7/4
f 1111/7/4 1108/7/4 1112/7/4
f 1109/7/4 1110/7/4 1113/7/4
f 1110/7/4 1104/7/4 1114/7/4
f 1113/7/4 1110/7/4 1114/7/4
f 1115/4/4 1116/4/4 1117/4/4
f 1117/4/4 1116/4/4 1118/4/4
f 1119/7/4 1120/7/4 1121/7/4
f 1121/7/4 1120/7/4 1122/7/4
f 1123/7/4 1124/7/4 1125/7/4
f 1125/7/4 1124/7/4 1126/7/4
f 1127/4/4 1128/4/4 1129/4/4
f 1129/4/4 1128/4/4 1130/4/4
f 1131/5/4 1132/5/4 1134/5/4
f 1132/4/4 1133/4/4 1135/4/4
f 1134/5/4 1132/5/4 1135/5/4
f 1135/4/4 1133/4/4 1136/4/4
f 1139/7/4 1140/7/4 1141/7/4
f 1139/7/4 1141/7/4 1142/7/4
f 1142/7/4 1141/7/4 1143/7/4
f 1144/7/4 1145/7/4 1146/7/4
f 1137/7/4 1138/7/4 1147/7/4
f 1147/7/4 1138/7/4 1148/7/4
f 1144/7/4 1146/7/4 1149/7/4
f 1149/7/4 1146/7/4 1150/7/4
f 1151/5/4 1152/5/4 1154/5/4
f 1152/4/4 1153/4/4 1155/4/4
f 1154/5/4 1152/5/4 1155/5/4
f 1155/4/4 1153/4/4 1156/4/4
f 1157/5/4 1158/5/4 1160/5/4
f 1158/4/4 1159/4/4 1161/4/4
f 1160/5/4 1158/5/4 1161/5/4
f 1161/4/4 1159/4/4 1162/4/4
f 1161/7/4 1162/7/4 1168/7/4
f 1163/1/4 1164/1/4 1169/1/4
f 1164/8/4 1165/8/4 1170/8/4
f 1169/1/4 1164/1/4 1170/1/4
f 1170/8/4 1165/8/4 1171/8/4
f 1171/8/4 1165/8/4 1172/8/4
f 1166/8/4 1167/8/4 1173/8/4
f 1161/7/4 1168/7/4 1174/7/4
f 1174/7/4 1168/7/4 1175/7/4
f 1173/8/4 1167/8/4 1176/8/4
f 1176/8/4 1167/8/4 1177/8/4
f 1176/2/4 1177/2/4 1178/2/4
f 1178/2/4 1177/2/4 1179/2/4
f 1180/7/4 1181/7/4 1182/7/4
f 1178/8/4 1179/8/4 1187/8/4
f 1180/7/4 1182/7/4 1189/7/4
f 1189/7/4 1182/7/4 1190/7/4
f 1183/1/4 1184/1/4 1191/1/4
f 1185/8/4 1186/8/4 1192/8/4
f 1191/1/4 1184/1/4 1192/1/4
f 1184/8/4 1185/8/4 1192/8/4
f 1192/8/4 1186/8/4 1193/8/4
f 1187/8/4 1179/8/4 1194/8/4
f 1194/8/4 1179/8/4 1195/8/4
f 1188/5/4 1189/5/4 1196/5/4
f 1189/4/4 1190/4/4 1197/4/4
f 1196/5/4 1189/5/4 1197/5/4
f 1197/4/4 1190/4/4 1198/4/4
f 1199/8/4 1200/8/4 1203/8/4
f 1203/8/4 1200/8/4 1204/8/4
f 1201/1/4 1202/1/4 1205/1/4
f 1205/1/4 1202/1/4 1206/1/4
f 1206/1/4 1202/1/4 1207/1/4
f 1205/1/4 1206/1/4 1208/1/4
f 1205/1/4 1208/1/4 1209/1/4
f 1205/1/4 1209/1/4 1210/1/4
f 1205/1/4 1210/1/4 1212/1/4
f 1210/1/4 1211/1/4 1212/1/4
f 1212/1/4 1211/1/4 1213/1/4
f 1213/1/4 1211/1/4 1214/1/4
f 1214/1/4 1211/1/4 1215/1/4
f 1216/8/4 1217/8/4 1218/8/4
f 1218/8/4 1217/8/4 1219/8/4
f 1222/5/4 1223/5/4 1224/5/4
f 1224/5/4 1223/5/4 1225/5/4
f 1220/8/4 1221/8/4 1227/8/4
f 1227/8/4 1221/8/4 1228/8/4
f 1228/8/4 1221/8/4 1229/8/4
f 1226/8/4 1227/8/4 1230/8/4
f 1227/9/4 1228/9/4 1231/9/4
f 1230/8/4 1227/8/4 1231/8/4
f 1231/9/4 1228/9/4 1232/9/4
f 1233/8/4 1234/8/4 1238/8/4
f 1234/9/4 1235/9/4 1239/9/4
f 1238/8/4 1234/8/4 1239/8/4
f 1239/9/4 1235/9/4 1240/9/4
f 1236/5/4 1237/5/4 1242/5/4
f 1242/5/4 1237/5/4 1243/5/4
f 1239/8/4 1240/8/4 1244/8/4
f 1240/8/4 1241/8/4 1244/8/4
f 1244/8/4 1241/8/4 1245/8/4
f 1246/5/4 1247/5/4 1252/5/4
f 1247/4/4 1248/4/4 1253/4/4
f 1252/5/4 1247/5/4 1253/5/4
f 1253/4/4 1248/4/4 1254/4/4
f 1249/5/4 1250/5/4 1255/5/4
f 1255/5/4 1250/5/4 1256/5/4
f 1251/5/4 1252/5/4 1257/5/4
f 1257/5/4 1252/5/4 1258/5/4
f 1259/8/4 1260/8/4 1262/8/4
f 1261/8/4 1262/8/4 1263/8/4
f 1262/8/4 1260/8/4 1264/8/4
f 1263/8/4 1262/8/4 1264/8/4
f 1264/8/4 1260/8/4 1265/8/4
f 1265/8/4 1260/8/4 1266/8/4
f 1267/5/4 1268/5/4 1275/5/4
f 1275/5/4 1268/5/4 1276/5/4
f 1269/5/4 1270/5/4 1277/5/4
f 1277/5/4 1270/5/4 1278/5/4
f 1271/10/4 1272/10/4 1280/10/4
f 1278/5/4 1279/5/4 1281/5/4
f 1279/4/4 1280/4/4 1282/4/4
f 1281/5/4 1279/5/4 1282/5/4
f 1280/10/4 1272/10/4 1283/10/4
f 1282/4/4 1280/4/4 1283/4/4
f 1283/10/4 1272/10/4 1284/10/4
f 1273/1/4 1274/1/4 1285/1/4
f 1285/1/4 1274/1/4 1286/1/4
f 1287/1/4 1288/1/4 1289/1/4
f 1289/1/4 1288/1/4 1292/1/4
f 1292/1/4 1288/1/4 1293/1/4
f 1293/1/4 1288/1/4 1294/1/4
f 1290/5/4 1291/5/4 1295/5/4
f 1295/5/4 1291/5/4 1296/5/4
f 1296/5/4 1297/5/4 1298/5/4
f 1298/5/4 1297/5/4 1299/5/4
f 1293/3/4 1294/3/4 1300/3/4
f 1293/3/4 1300/3/4 1304/3/4
f 1300/10/4 1301/10/4 1304/10/4
f 1304/10/4 1301/10/4 1305/10/4
f 1302/5/4 1303/5/4 1307/5/4
f 1307/5/4 1303/5/4 1308/5/4
f 1292/10/4 1293/10/4 1309/10/4
f 1293/3/4 1304/3/4 1309/3/4
f 1309/3/4 1304/3/4 1310/3/4
f 1306/5/4 1307/5/4 1311/5/4
f 1311/5/4 1307/5/4 1312/5/4
f 1309/10/4 1310/10/4 1313/10/4
f 1292/10/4 1309/10/4 1313/10/4
f 1313/10/4 1310/10/4 1314/10/4
f 1314/1/4 1315/1/4 1316/1/4
f 1316/1/4 1315/1/4 1317/1/4
f 1318/5/4 1319/5/4 1321/5/4
f 1321/5/4 1319/5/4 1322/5/4
f 1320/5/4 1321/5/4 1323/5/4
f 1323/5/4 1321/5/4 1324/5/4
f 1325/5/4 1326/5/4 1327/5/4
f 1327/5/4 1326/5/4 1328/5/4
f 1329/5/4 1330/5/4 1331/5/4
f 1331/5/4 1330/5/4 1332/5/4
f 1332/5/4 1333/5/4 1334/5/4
f 1334/5/4 1333/5/4 1335/5/4
f 1336/4/4 1337/4/4 1338/4/4
f 1338/4/4 1337/4/4 1339/4/4
f 1340/5/4 1341/5/4 1342/5/4
f 1342/5/4 1341/5/4 1343/5/4
f 1344/5/4 1345/5/4 1346/5/4
f 1346/5/4 1345/5/4 1347/5/4
f 1348/4/4 1349/4/4 1350/4/4
f 1350/4/4 1349/4/4 1351/4/4
f 1352/5/4 1353/5/4 1356/5/4
f 1356/5/4 1353/5/4 1357/5/4
f 1354/5/4 1355/5/4 1358/5/4
f 1358/5/4 1355/5/4 1359/5/4
f 1360/5/4 1361/5/4 1362/5/4
f 1362/5/4 1361/5/4 1363/5/4
f 1364/5/4 1365/5/4 1369/5/4
f 1369/5/4 1365/5/4 1370/5/4
f 1366/11/4 1367/11/4 1373/11/4
f 1367/1/4 1368/1/4 1374/1/4
f 1373/11/4 1367/11/4 1374/11/4
f 1374/1/4 1368/1/4 1375/1/4
f 1371/5/4 1372/5/4 1376/5/4
f 1376/5/4 1372/5/4 1377/5/4
f 1381/5/4 1382/5/4 1383/5/4
f 1383/5/4 1382/5/4 1384/5/4
f 1378/11/4 1379/11/4 1385/11/4
f 1379/1/4 1380/1/4 1386/1/4
f 1385/11/4 1379/11/4 1386/11/4
f 1386/1/4 1380/1/4 1387/1/4
f 1388/4/4 1389/4/4 1391/4/4
f 1391/4/4 1389/4/4 1392/4/4
f 1390/5/4 1391/5/4 1393/5/4
f 1393/5/4 1391/5/4 1394/5/4
f 1395/5/4 1396/5/4 1397/5/4
f 1397/5/4 1396/5/4 1398/5/4
f 1398/4/4 1399/4/4 1400/4/4
f 1400/4/4 1399/4/4 1401/4/4
f 1402/5/4 1403/5/4 1404/5/4
f 1404/5/4 1403/5/4 1405/5/4
f 1406/4/4 1407/4/4 1408/4/4
f 1408/4/4 1407/4/4 1409/4/4
f 1410/4/4 1411/4/4 1412/4/4
f 1412/4/4 1411/4/4 1413/4/4
f 1414/4/4 1415/4/4 1416/4/4
f 1416/4/4 1415/4/4 1417/4/4
f 1421/5/5 1419/5/5 1418/5/5
f 1422/5/5 1419/5/5 1421/5/5
f 1425/5/5 1421/5/5 1420/5/5
f 1425/5/5 1423/5/5 1422/5/5
f 1425/5/5 1422/5/5 1421/5/5
f 1426/5/5 1423/5/5 1425/5/5
f 1429/5/5 1425/5/5 1424/5/5
f 1429/5/5 1427/5/5 1426/5/5
f 1429/5/5 1426/5/5 1425/5/5
f 1430/5/5 1427/5/5 1429/5/5
f 1432/5/5 1429/5/5 1428/5/5
f 1432/5/5 1431/5/5 1430/5/5
f 1432/5/5 1430/5/5 1429/5/5
f 1433/5/5 1431/5/5 1432/5/5
f 1434/5/5 1431/5/5 1433/5/5
f 1435/5/5 1431/5/5 1434/5/5
f 1436/5/5 1434/5/5 1433/5/5
f 1437/5/5 1434/5/5 1436/5/5
f 1438/5/5 1434/5/5 1437/5/5
f 1439/5/5 1434/5/5 1438/5/5
f 1440/5/5 1438/5/5 1437/5/5
f 1441/5/5 1438/5/5 1440/5/5
f 1442/5/5 1438/5/5 1441/5/5
f 1443/5/5 1438/5/5 1442/5/5
f 1444/5/5 1442/5/5 1441/5/5
f 1445/5/5 1442/5/5 1444/5/5
f 1450/5/5 1447/5/5 1446/5/5
f 1451/5/5 1447/5/5 1450/5/5
f 1452/5/5 1449/5/5 1448/5/5
f 1453/5/5 1449/5/5 1452/5/5
f 1455/5/5 1450/5/5 1446/5/5
f 1456/5/5 1449/5/5 1453/5/5
f 1458/5/5 1455/5/5 1454/5/5
f 1458/5/5 1450/5/5 1455/5/5
f 1459/5/5 1450/5/5 1458/5/5
f 1460/5/5 1457/5/5 1456/5/5
f 1460/5/5 1456/5/5 1453/5/5
f 1461/5/5 1457/5/5 1460/5/5
f 1462/5/5 1458/5/5 1454/5/5
f 1465/5/5 1457/5/5 1461/5/5
f 1466/5/5 1463/5/5 1462/5/5
f 1466/5/5 1462/5/5 1454/5/5
f 1467/5/5 1463/5/5 1466/5/5
f 1468/5/5 1465/5/5 1464/5/5
f 1468/5/5 1457/5/5 1465/5/5
f 1469/5/5 1457/5/5 1468/5/5
f 1470/5/5 1463/5/5 1467/5/5
f 1473/5/5 1468/5/5 1464/5/5
f 1474/5/5 1471/5/5 1470/5/5
f 1474/5/5 1470/5/5 1467/5/5
f 1475/5/5 1471/5/5 1474/5/5
f 1476/5/5 1471/5/5 1475/5/5
f 1477/5/5 1473/5/5 1472/5/5
f 1478/5/5 1468/5/5 1473/5/5
f 1478/5/5 1473/5/5 1477/5/5
f 1479/5/5 1468/5/5 1478/5/5
f 1480/5/5 1476/5/5 1475/5/5
f 1480/5/5 1477/5/5 1476/5/5
f 1480/5/5 1478/5/5 1477/5/5
f 1481/5/5 1478/5/5 1480/5/5
f 1482/5/5 1478/5/5 1481/5/5
f 1483/5/5 1478/5/5 1482/5/5
f 1484/5/5 1482/5/5 1481/5/5
f 1485/5/5 1482/5/5 1484/5/5
f 1488/5/5 1487/5/5 1486/5/5
f 1489/5/5 1487/5/5 1488/5/5
f 1495/5/5 1491/5/5 1490/5/5
f 1496/5/5 1491/5/5 1495/5/5
f 1497/5/5 1493/5/5 1492/5/5
f 1498/5/5 1493/5/5 1497/5/5
f 1500/5/5 1495/5/5 1494/5/5
f 1501/5/5 1495/5/5 1500/5/5
f 1504/5/5 1499/5/5 1498/5/5
f 1505/5/5 1499/5/5 1504/5/5
f 1506/5/5 1502/5/5 1501/5/5
f 1507/5/5 1502/5/5 1506/5/5
f 1510/5/5 1504/5/5 1503/5/5
f 1511/5/5 1504/5/5 1510/5/5
f 1512/5/5 1508/5/5 1507/5/5
f 1515/5/5 1510/5/5 1509/5/5
f 1516/5/5 1513/5/5 1512/5/5
f 1516/5/5 1512/5/5 1507/5/5
f 1517/5/5 1513/5/5 1516/5/5
f 1518/5/5 1513/5/5 1517/5/5
f 1519/5/5 1515/5/5 1514/5/5
f 1520/5/5 1510/5/5 1515/5/5
f 1520/5/5 1515/5/5 1519/5/5
f 1521/5/5 1510/5/5 1520/5/5
f 1522/5/5 1518/5/5 1517/5/5
f 1522/5/5 1519/5/5 1518/5/5
f 1522/5/5 1520/5/5 1519/5/5
f 1523/5/5 1520/5/5 1522/5/5
f 1524/5/5 1520/5/5 1523/5/5
f 1525/5/5 1520/5/5 1524/5/5
f 1526/5/5 1524/5/5 1523/5/5
f 1527/5/5 1524/5/5 1526/5/5
f 1531/4/5 1529/4/5 1528/4/5
f 1532/4/5 1529/4/5 1531/4/5
f 1533/4/5 1529/4/5 1532/4/5
f 1534/4/5 1529/4/5 1533/4/5
f 1536/4/5 1531/4/5 1530/4/5
f 1536/4/5 1532/4/5 1531/4/5
f 1537/4/5 1532/4/5 1536/4/5
f 1538/4/5 1532/4/5 1537/4/5
f 1539/4/5 1532/4/5 1538/4/5
f 1540/4/5 1535/4/5 1534/4/5
f 1540/4/5 1534/4/5 1533/4/5
f 1541/4/5 1535/4/5 1540/4/5
f 1542/4/5 1535/4/5 1541/4/5
f 1543/4/5 1535/4/5 1542/4/5
f 1544/4/5 1538/4/5 1537/4/5
f 1545/4/5 1538/4/5 1544/4/5
f 1546/4/5 1542/4/5 1541/4/5
f 1547/4/5 1542/4/5 1546/4/5
f 1552/4/5 1549/4/5 1548/4/5
f 1553/4/5 1549/4/5 1552/4/5
f 1554/4/5 1551/4/5 1550/4/5
f 1555/4/5 1551/4/5 1554/4/5
f 1560/4/5 1557/4/5 1556/4/5
f 1561/4/5 1557/4/5 1560/4/5
f 1564/4/5 1559/4/5 1558/4/5
f 1565/4/5 1559/4/5 1564/4/5
f 1566/4/5 1562/4/5 1561/4/5
f 1567/4/5 1564/4/5 1563/4/5
f 1568/4/5 1566/4/5 1561/4/5
f 1568/4/5 1567/4/5 1566/4/5
f 1569/4/5 1567/4/5 1568/4/5
f 1570/4/5 1564/4/5 1567/4/5
f 1570/4/5 1567/4/5 1569/4/5
f 1571/4/5 1564/4/5 1570/4/5
f 1572/4/5 1570/4/5 1569/4/5
f 1573/4/5 1570/4/5 1572/4/5
f 1580/4/5 1575/4/5 1574/4/5
f 1581/4/5 1575/4/5 1580/4/5
f 1582/4/5 1577/4/5 1576/4/5
f 1583/4/5 1579/4/5 1578/4/5
f 1584/4/5 1579/4/5 1583/4/5
f 1585/4/5 1577/4/5 1582/4/5
f 1586/4/5 1577/4/5 1585/4/5
f 1589/1/5 1588/1/5 1587/1/5
f 1590/1/5 1588/1/5 1589/1/5
f 1595/5/5 1592/5/5 1591/5/5
f 1600/5/5 1594/5/5 1593/5/5
f 1602/5/5 1595/5/5 1591/5/5
f 1602/5/5 1596/5/5 1595/5/5
f 1603/5/5 1596/5/5 1602/5/5
f 1604/5/5 1596/5/5 1603/5/5
f 1605/4/5 1598/4/5 1597/4/5
f 1606/4/5 1598/4/5 1605/4/5
f 1607/5/5 1600/5/5 1599/5/5
f 1608/5/5 1594/5/5 1600/5/5
f 1608/5/5 1600/5/5 1607/5/5
f 1609/5/5 1594/5/5 1608/5/5
f 1612/5/5 1602/5/5 1601/5/5
f 1613/5/5 1602/5/5 1612/5/5
f 1614/4/5 1604/4/5 1603/4/5
f 1615/4/5 1604/4/5 1614/4/5
f 1616/4/5 1608/4/5 1607/4/5
f 1617/4/5 1608/4/5 1616/4/5
f 1618/5/5 1610/5/5 1609/5/5
f 1620/7/5 1615/7/5 1614/7/5
f 1621/7/5 1615/7/5 1620/7/5
f 1622/7/5 1617/7/5 1616/7/5
f 1623/7/5 1617/7/5 1622/7/5
f 1624/5/5 1613/5/5 1612/5/5
f 1624/5/5 1612/5/5 1611/5/5
f 1625/5/5 1619/5/5 1618/5/5
f 1625/5/5 1618/5/5 1609/5/5
f 1626/5/5 1624/5/5 1611/5/5
f 1627/5/5 1624/5/5 1626/5/5
f 1628/7/5 1625/7/5 1624/7/5
f 1628/5/5 1624/5/5 1627/5/5
f 1629/5/5 1619/5/5 1625/5/5
f 1629/7/5 1625/7/5 1628/7/5
f 1630/5/5 1619/5/5 1629/5/5
f 1631/5/5 1619/5/5 1630/5/5
f 1632/5/5 1628/5/5 1627/5/5
f 1633/5/5 1628/5/5 1632/5/5
f 1634/5/5 1630/5/5 1629/5/5
f 1635/5/5 1630/5/5 1634/5/5
f 1640/9/5 1637/9/5 1636/9/5
f 1641/9/5 1637/9/5 1640/9/5
f 1642/9/5 1639/9/5 1638/9/5
f 1643/9/5 1639/9/5 1642/9/5
f 1644/11/5 1641/11/5 1640/11/5
f 1645/11/5 1641/11/5 1644/11/5
f 1646/11/5 1643/11/5 1642/11/5
f 1647/11/5 1643/11/5 1646/11/5
f 1651/4/5 1649/4/5 1648/4/5
f 1652/4/5 1649/4/5 1651/4/5
f 1656/4/5 1651/4/5 1650/4/5
f 1657/4/5 1651/4/5 1656/4/5
f 1658/4/5 1653/4/5 1652/4/5
f 1659/4/5 1653/4/5 1658/4/5
f 1660/7/5 1655/7/5 1654/7/5
f 1661/7/5 1655/7/5 1660/7/5
f 1666/4/5 1663/4/5 1662/4/5
f 1667/4/5 1663/4/5 1666/4/5
f 1668/4/5 1665/4/5 1664/4/5
f 1669/4/5 1665/4/5 1668/4/5
f 1672/7/5 1671/7/5 1670/7/5
f 1673/7/5 1671/7/5 1672/7/5
f 1674/7/5 1671/7/5 1673/7/5
f 1675/7/5 1671/7/5 1674/7/5
f 1676/10/5 1674/10/5 1673/10/5
f 1677/10/5 1674/10/5 1676/10/5
f 1684/1/5 1679/1/5 1678/1/5
f 1685/1/5 1679/1/5 1684/1/5
f 1686/9/5 1681/9/5 1680/9/5
f 1687/9/5 1681/9/5 1686/9/5
f 1688/9/5 1683/9/5 1682/9/5
f 1688/9/5 1684/9/5 1683/9/5
f 1689/9/5 1684/9/5 1688/9/5
f 1694/4/5 1691/4/5 1690/4/5
f 1695/4/5 1691/4/5 1694/4/5
f 1696/4/5 1693/4/5 1692/4/5
f 1697/4/5 1693/4/5 1696/4/5
f 1702/1/5 1699/1/5 1698/1/5
f 1703/1/5 1699/1/5 1702/1/5
f 1704/1/5 1701/1/5 1700/1/5
f 1705/1/5 1701/1/5 1704/1/5
f 1710/4/5 1707/4/5 1706/4/5
f 1711/4/5 1707/4/5 1710/4/5
f 1712/4/5 1709/4/5 1708/4/5
f 1713/4/5 1709/4/5 1712/4/5
f 1718/7/5 1715/7/5 1714/7/5
f 1719/7/5 1715/7/5 1718/7/5
f 1720/7/5 1717/7/5 1716/7/5
f 1721/7/5 1717/7/5 1720/7/5
f 1728/1/5 1723/1/5 1722/1/5
f 1729/7/5 1724/7/5 1723/7/5
f 1729/1/5 1723/1/5 1728/1/5
f 1730/7/5 1724/7/5 1729/7/5
f 1731/7/5 1726/7/5 1725/7/5
f 1732/1/5 1727/1/5 1726/1/5
f 1732/7/5 1726/7/5 1731/7/5
f 1733/1/5 1727/1/5 1732/1/5
f 1738/8/5 1735/8/5 1734/8/5
f 1739/9/5 1736/9/5 1735/9/5
f 1739/8/5 1735/8/5 1738/8/5
f 1740/8/5 1737/8/5 1736/8/5
f 1740/9/5 1736/9/5 1739/9/5
f 1741/8/5 1737/8/5 1740/8/5
f 1742/8/5 1740/8/5 1739/8/5
f 1743/8/5 1740/8/5 1742/8/5
f 1748/8/5 1745/8/5 1744/8/5
f 1749/8/5 1745/8/5 1748/8/5
f 1750/8/5 1747/8/5 1746/8/5
f 1751/8/5 1747/8/5 1750/8/5
f 1756/7/5 1753/7/5 1752/7/5
f 1757/7/5 1753/7/5 1756/7/5
f 1758/7/5 1755/7/5 1754/7/5
f 1759/7/5 1755/7/5 1758/7/5
f 1764/8/5 1761/8/5 1760/8/5
f 1765/8/5 1761/8/5 1764/8/5
f 1766/8/5 1763/8/5 1762/8/5
f 1767/8/5 1763/8/5 1766/8/5
f 1772/8/5 1769/8/5 1768/8/5
f 1773/8/5 1769/8/5 1772/8/5
f 1774/8/5 1771/8/5 1770/8/5
f 1775/8/5 1771/8/5 1774/8/5
f 1781/4/5 1777/4/5 1776/4/5
f 1782/4/5 1777/4/5 1781/4/5
f 1783/4/5 1779/4/5 1778/4/5
f 1784/4/5 1779/4/5 1783/4/5
f 1787/7/5 1782/7/5 1781/7/5
f 1787/7/5 1785/7/5 1784/7/5
f 1787/7/5 1784/7/5 1783/7/5
f 1787/7/5 1783/7/5 1782/7/5
f 1787/7/5 1781/7/5 1780/7/5
f 1788/7/5 1785/7/5 1787/7/5
f 1790/7/5 1787/7/5 1786/7/5
f 1791/7/5 1787/7/5 1790/7/5
f 1792/7/5 1789/7/5 1788/7/5
f 1793/7/5 1789/7/5 1792/7/5
f 1798/4/5 1795/4/5 1794/4/5
f 1799/4/5 1795/4/5 1798/4/5
f 1800/4/5 1797/4/5 1796/4/5
f 1801/4/5 1797/4/5 1800/4/5
f 1802/5/6 1803/5/6 1805/5/6
f 1805/5/6 1803/5/6 1806/5/6
f 1804/5/6 1805/5/6 1808/5/6
f 1806/5/6 1807/5/6 1808/5/6
f 1805/5/6 1806/5/6 1808/5/6
f 1808/5/6 1807/5/6 1809/5/6
f 1804/5/6 1808/5/6 1811/5/6
f 1811/5/6 1808/5/6 1812/5/6
f 1809/5/6 1807/5/6 1813/5/6
f 1813/5/6 1807/5/6 1814/5/6
f 1810/5/6 1811/5/6 1817/5/6
f 1814/5/6 1815/5/6 1818/5/6
f 1816/5/6 1817/5/6 1820/5/6
f 1817/5/6 1811/5/6 1820/5/6
f 1820/5/6 1811/5/6 1821/5/6
f 1818/5/6 1819/5/6 1822/5/6
f 1814/5/6 1818/5/6 1822/5/6
f 1822/5/6 1819/5/6 1823/5/6
f 1816/5/6 1820/5/6 1824/5/6
f 1823/5/6 1819/5/6 1827/5/6
f 1824/5/6 1825/5/6 1828/5/6
f 1816/5/6 1824/5/6 1828/5/6
f 1828/5/6 1825/5/6 1829/5/6
f 1826/5/6 1827/5/6 1830/5/6
f 1827/5/6 1819/5/6 1830/5/6
f 1830/5/6 1819/5/6 1831/5/6
f 1829/5/6 1825/5/6 1832/5/6
f 1832/5/6 1825/5/6 1833/5/6
f 1826/5/6 1830/5/6 1836/5/6
f 1836/5/6 1830/5/6 1837/5/6
f 1833/5/6 1834/5/6 1838/5/6
f 1835/5/6 1836/5/6 1839/5/6
f 1833/5/6 1838/5/6 1840/5/6
f 1838/5/6 1839/5/6 1840/5/6
f 1840/5/6 1839/5/6 1841/5/6
f 1839/5/6 1836/5/6 1842/5/6
f 1841/5/6 1839/5/6 1842/5/6
f 1842/5/6 1836/5/6 1843/5/6
f 1841/5/6 1842/5/6 1844/5/6
f 1844/5/6 1842/5/6 1845/5/6
f 1846/4/6 1847/4/6 1850/4/6
f 1850/4/6 1847/4/6 1851/4/6
f 1848/4/6 1849/4/6 1852/4/6
f 1852/4/6 1849/4/6 1853/4/6
f 1854/4/6 1855/4/6 1857/4/6
f 1857/4/6 1855/4/6 1858/4/6
f 1857/4/6 1858/4/6 1860/4/6
f 1858/4/6 1859/4/6 1860/4/6
f 1856/4/6 1857/4/6 1860/4/6
f 1860/4/6 1859/4/6 1861/4/6
f 1862/4/6 1863/4/6 1866/4/6
f 1864/4/6 1865/4/6 1867/4/6
f 1865/4/6 1866/4/6 1867/4/6
f 1867/4/6 1866/4/6 1868/4/6
f 1866/4/6 1863/4/6 1869/4/6
f 1868/4/6 1866/4/6 1869/4/6
f 1869/4/6 1863/4/6 1870/4/6
f 1868/4/6 1869/4/6 1871/4/6
f 1871/4/6 1869/4/6 1872/4/6
f 1872/4/6 1869/4/6 1873/4/6
f 1873/4/6 1869/4/6 1874/4/6
f 1872/4/6 1873/4/6 1876/4/6
f 1876/4/6 1873/4/6 1877/4/6
f 1875/4/6 1876/4/6 1879/4/6
f 1877/4/6 1878/4/6 1879/4/6
f 1876/4/6 1877/4/6 1879/4/6
f 1879/4/6 1878/4/6 1880/4/6
f 1880/4/6 1878/4/6 1881/4/6
f 1881/4/6 1878/4/6 1882/4/6
f 1880/4/6 1881/4/6 1883/4/6
f 1883/4/6 1881/4/6 1884/4/6
f 1884/4/6 1881/4/6 1885/4/6
f 1885/4/6 1881/4/6 1886/4/6
f 1884/4/6 1885/4/6 1887/4/6
f 1887/4/6 1885/4/6 1888/4/6
f 1889/10/6 1890/10/6 1891/10/6
f 1891/10/6 1890/10/6 1892/10/6
f 1891/1/6 1892/1/6 1893/1/6
f 1893/1/6 1892/1/6 1894/1/6
f 1895/4/6 1896/4/6 1899/4/6
f 1897/4/6 1898/4/6 1902/4/6
f 1899/4/6 1900/4/6 1903/4/6
f 1895/4/6 1899/4/6 1903/4/6
f 1903/4/6 1900/4/6 1904/4/6
f 1901/4/6 1902/4/6 1905/4/6
f 1902/4/6 1898/4/6 1906/4/6
f 1905/4/6 1902/4/6 1906/4/6
f 1907/4/6 1908/4/6 1912/4/6
f 1912/4/6 1908/4/6 1913/4/6
f 1909/4/6 1910/4/6 1916/4/6
f 1916/4/6 1910/4/6 1917/4/6
f 1913/4/6 1914/4/6 1919/4/6
f 1911/4/6 1912/4/6 1919/4/6
f 1912/4/6 1913/4/6 1919/4/6
f 1919/4/6 1914/4/6 1920/4/6
f 1917/4/6 1918/4/6 1921/4/6
f 1916/4/6 1917/4/6 1921/4/6
f 1915/4/6 1916/4/6 1921/4/6
f 1921/4/6 1918/4/6 1922/4/6
f 1920/4/6 1914/4/6 1923/4/6
f 1923/4/6 1914/4/6 1924/4/6
f 1924/4/6 1914/4/6 1925/4/6
f 1915/4/6 1921/4/6 1928/4/6
f 1928/4/6 1921/4/6 1929/4/6
f 1929/4/6 1921/4/6 1930/4/6
f 1924/4/6 1925/4/6 1931/4/6
f 1925/7/6 1926/7/6 1932/7/6
f 1931/4/6 1925/4/6 1932/4/6
f 1932/7/6 1926/7/6 1933/7/6
f 1933/7/6 1926/7/6 1934/7/6
f 1927/7/6 1928/7/6 1935/7/6
f 1935/7/6 1928/7/6 1936/7/6
f 1928/4/6 1929/4/6 1937/4/6
f 1936/7/6 1928/7/6 1937/7/6
f 1937/4/6 1929/4/6 1938/4/6
f 1939/10/6 1940/10/6 1941/10/6
f 1939/10/6 1941/10/6 1943/10/6
f 1943/10/6 1941/10/6 1944/10/6
f 1944/10/6 1941/10/6 1945/10/6
f 1941/1/6 1942/1/6 1946/1/6
f 1945/10/6 1941/10/6 1946/10/6
f 1946/1/6 1942/1/6 1947/1/6
f 1943/9/6 1944/9/6 1948/9/6
f 1948/9/6 1944/9/6 1949/9/6
f 1945/9/6 1946/9/6 1950/9/6
f 1950/9/6 1946/9/6 1951/9/6
f 1948/1/6 1949/1/6 1952/1/6
f 1952/1/6 1949/1/6 1953/1/6
f 1950/1/6 1951/1/6 1954/1/6
f 1954/1/6 1951/1/6 1955/1/6
f 1956/1/6 1957/1/6 1959/1/6
f 1957/1/6 1958/1/6 1959/1/6
f 1959/1/6 1958/1/6 1960/1/6
f 1961/4/6 1962/4/6 1967/4/6
f 1967/4/6 1962/4/6 1968/4/6
f 1963/4/6 1964/4/6 1969/4/6
f 1969/4/6 1964/4/6 1970/4/6
f 1965/7/6 1966/7/6 1973/7/6
f 1973/7/6 1966/7/6 1974/7/6
f 1971/7/6 1972/7/6 1975/7/6
f 1975/7/6 1972/7/6 1976/7/6
f 1977/4/6 1978/4/6 1981/4/6
f 1981/4/6 1978/4/6 1982/4/6
f 1979/4/6 1980/4/6 1983/4/6
f 1983/4/6 1980/4/6 1984/4/6
f 1985/4/6 1986/4/6 1990/4/6
f 1987/4/6 1988/4/6 1990/4/6
f 1986/4/6 1987/4/6 1990/4/6
f 1990/4/6 1988/4/6 1991/4/6
f 1989/7/6 1990/7/6 1994/7/6
f 1991/7/6 1992/7/6 1994/7/6
f 1990/7/6 1991/7/6 1994/7/6
f 1994/7/6 1992/7/6 1995/7/6
f 1993/7/6 1994/7/6 1997/7/6
f 1997/7/6 1994/7/6 1998/7/6
f 1995/7/6 1996/7/6 1999/7/6
f 1999/7/6 1996/7/6 2000/7/6
f 2001/7/6 2002/7/6 2005/7/6
f 2005/7/6 2002/7/6 2006/7/6
f 2003/7/6 2004/7/6 2007/7/6
f 2007/7/6 2004/7/6 2008/7/6
f 2009/8/6 2010/8/6 2015/8/6
f 2010/7/6 2011/7/6 2016/7/6
f 2015/8/6 2010/8/6 2016/8/6
f 2011/7/6 2012/7/6 2016/7/6
f 2012/7/6 2013/7/6 2016/7/6
f 2016/7/6 2013/7/6 2017/7/6
f 2017/7/6 2013/7/6 2018/7/6
f 2013/8/6 2014/8/6 2019/8/6
f 2018/7/6 2013/7/6 2019/7/6
f 2019/8/6 2014/8/6 2020/8/6
f 2016/8/6 2017/8/6 2021/8/6
f 2017/9/6 2018/9/6 2022/9/6
f 2021/8/6 2017/8/6 2022/8/6
f 2018/8/6 2019/8/6 2023/8/6
f 2022/9/6 2018/9/6 2023/9/6
f 2023/8/6 2019/8/6 2024/8/6
f 2022/8/6 2023/8/6 2025/8/6
f 2025/8/6 2023/8/6 2026/8/6
f 2027/7/6 2028/7/6 2031/7/6
f 2029/7/6 2030/7/6 2031/7/6
f 2028/7/6 2029/7/6 2031/7/6
f 2031/7/6 2030/7/6 2032/7/6
f 2033/1/6 2034/1/6 2040/1/6
f 2040/1/6 2034/1/6 2041/1/6
f 2035/1/6 2036/1/6 2043/1/6
f 2043/1/6 2036/1/6 2044/1/6
f 2037/1/6 2038/1/6 2046/1/6
f 2046/1/6 2038/1/6 2047/1/6
f 2041/6/6 2042/6/6 2049/6/6
f 2039/1/6 2040/1/6 2049/1/6
f 2040/1/6 2041/1/6 2049/1/6
f 2042/11/6 2043/11/6 2050/11/6
f 2049/6/6 2042/6/6 2050/6/6
f 2043/1/6 2044/1/6 2051/1/6
f 2050/11/6 2043/11/6 2051/11/6
f 2044/11/6 2045/11/6 2052/11/6
f 2051/1/6 2044/1/6 2052/1/6
f 2045/6/6 2046/6/6 2053/6/6
f 2052/11/6 2045/11/6 2053/11/6
f 2047/1/6 2048/1/6 2054/1/6
f 2053/6/6 2046/6/6 2054/6/6
f 2046/1/6 2047/1/6 2054/1/6
f 2050/1/6 2051/1/6 2055/1/6
f 2052/1/6 2053/1/6 2055/1/6
f 2053/1/6 2054/1/6 2055/1/6
f 2049/1/6 2050/1/6 2055/1/6
f 2039/1/6 2049/1/6 2055/1/6
f 2051/1/6 2052/1/6 2055/1/6
f 2054/1/6 2048/1/6 2056/1/6
f 2055/1/6 2054/1/6 2056/1/6
f 2055/8/6 2056/8/6 2057/8/6
f 2057/8/6 2056/8/6 2058/8/6
f 2055/8/6 2057/8/6 2059/8/6
f 2057/2/6 2058/2/6 2060/2/6
f 2059/8/6 2057/8/6 2060/8/6
f 2058/8/6 2056/8/6 2061/8/6
f 2060/2/6 2058/2/6 2061/2/6
f 2061/8/6 2056/8/6 2062/8/6
f 2063/7/6 2064/7/6 2066/7/6
f 2066/7/6 2064/7/6 2067/7/6
f 2065/7/6 2066/7/6 2069/7/6
f 2067/7/6 2068/7/6 2076/7/6
f 2065/7/6 2069/7/6 2077/7/6
f 2069/7/6 2070/7/6 2077/7/6
f 2077/7/6 2070/7/6 2078/7/6
f 2071/9/6 2072/9/6 2079/9/6
f 2079/9/6 2072/9/6 2080/9/6
f 2073/9/6 2074/9/6 2081/9/6
f 2081/9/6 2074/9/6 2082/9/6
f 2075/7/6 2076/7/6 2083/7/6
f 2076/7/6 2068/7/6 2084/7/6
f 2083/7/6 2076/7/6 2084/7/6
f 2085/4/6 2086/4/6 2089/4/6
f 2089/4/6 2086/4/6 2090/4/6
f 2087/4/6 2088/4/6 2091/4/6
f 2091/4/6 2088/4/6 2092/4/6
f 2093/7/6 2094/7/6 2095/7/6
f 2095/7/6 2094/7/6 2096/7/6
f 2097/4/6 2098/4/6 2099/4/6
f 2099/4/6 2098/4/6 2100/4/6
