# MagicaVoxel @ Ephtracy

# group
o 

# material
mtllib Operating_Chair.vox.mtl
usemtl palette

# normals
vn -1 0 0
vn 1 0 0
vn 0 0 1
vn 0 0 -1
vn 0 -1 0
vn 0 1 0

# texcoords
vt 0.736328 0.5
vt 0.923828 0.5

# verts
v -0.8 0.9 0.5
v -0.8 0.9 0.3
v -0.8 1 0.5
v -0.8 1 0.3
v -0.7 0.8 0.6
v -0.7 0.8 0.1
v -0.7 0.9 0.6
v -0.7 0.9 0.5
v -0.7 0.9 0.3
v -0.7 0.9 0.1
v -0.7 1 0.6
v -0.7 1 0.5
v -0.7 1 0.3
v -0.7 1 0.1
v -0.6 0.8 0.7
v -0.6 0.8 0.6
v -0.6 0.8 0.1
v -0.6 0.8 0
v -0.6 0.9 0.7
v -0.6 0.9 0.6
v -0.6 0.9 0.1
v -0.6 0.9 0
v -0.6 1 0.7
v -0.6 1 0.6
v -0.6 1 0.1
v -0.6 1 0
v -0.5 0.5 0.2
v -0.5 0.5 -0.3
v -0.5 0.6 0.5
v -0.5 0.6 0.4
v -0.5 0.6 0.2
v -0.5 0.6 -0.3
v -0.5 0.7 0.6
v -0.5 0.7 0.5
v -0.5 0.7 0.2
v -0.5 0.7 -0.3
v -0.5 0.8 0.9
v -0.5 0.8 0.7
v -0.5 0.8 0.6
v -0.5 0.8 0.4
v -0.5 0.9 0.9
v -0.5 0.9 0.7
v -0.5 1 0.9
v -0.5 1 0.7
v -0.4 0 0.2
v -0.4 0 -0.3
v -0.4 0.1 0.2
v -0.4 0.1 -0.3
v -0.4 0.4 0.2
v -0.4 0.4 -0.3
v -0.4 0.5 0.3
v -0.4 0.5 0.2
v -0.4 0.5 -0.3
v -0.4 0.5 -0.5
v -0.4 0.6 0.6
v -0.4 0.6 0.5
v -0.4 0.6 0.4
v -0.4 0.6 0.3
v -0.4 0.6 0.2
v -0.4 0.6 -0.3
v -0.4 0.6 -0.5
v -0.4 0.6 -0.6
v -0.4 0.7 0.6
v -0.4 0.7 0.5
v -0.4 0.7 0.4
v -0.4 0.7 0.2
v -0.4 0.7 -0.3
v -0.4 0.7 -0.6
v -0.4 0.8 0.7
v -0.4 0.8 0.6
v -0.4 0.9 0.7
v -0.4 0.9 0.6
v -0.4 0.9 0.5
v -0.4 1 0.7
v -0.4 1 0.6
v -0.4 1 0.5
v -0.4 1.1 0.8
v -0.4 1.1 0.7
v -0.4 1.1 0.6
v -0.4 1.2 0.8
v -0.4 1.2 0.7
v -0.4 1.6 0.9
v -0.4 1.6 0.8
v -0.4 1.8 0.9
v -0.4 1.8 0.8
v -0.3 0 0.3
v -0.3 0 0.2
v -0.3 0 -0.3
v -0.3 0 -0.4
v -0.3 0.1 0.3
v -0.3 0.1 0.2
v -0.3 0.1 0.1
v -0.3 0.1 -0.2
v -0.3 0.1 -0.3
v -0.3 0.1 -0.4
v -0.3 0.4 0.4
v -0.3 0.4 0.2
v -0.3 0.4 0.1
v -0.3 0.4 -0.2
v -0.3 0.4 -0.3
v -0.3 0.4 -0.5
v -0.3 0.5 0.3
v -0.3 0.5 0.2
v -0.3 0.5 -0.3
v -0.3 0.5 -0.5
v -0.3 0.5 -0.8
v -0.3 0.6 0.4
v -0.3 0.6 0.3
v -0.3 0.6 -0.5
v -0.3 0.6 -0.6
v -0.3 0.6 -0.8
v -0.3 0.6 -0.9
v -0.3 0.7 0.7
v -0.3 0.7 0.6
v -0.3 0.7 0.5
v -0.3 0.7 -0.6
v -0.3 0.7 -0.9
v -0.3 0.8 0.7
v -0.3 0.8 0.5
v -0.3 1.2 0.8
v -0.3 1.2 0.7
v -0.3 1.4 0.8
v -0.3 1.4 0.7
v -0.3 1.5 0.9
v -0.3 1.5 0.8
v -0.3 1.6 0.9
v -0.3 1.6 0.8
v -0.3 1.8 0.9
v -0.3 1.8 0.8
v -0.3 1.9 0.9
v -0.3 1.9 0.8
v -0.2 0 0.5
v -0.2 0 0.3
v -0.2 0 -0.4
v -0.2 0 -0.6
v -0.2 0.1 0.5
v -0.2 0.1 0.3
v -0.2 0.1 0.1
v -0.2 0.1 -0.2
v -0.2 0.1 -0.4
v -0.2 0.1 -0.6
v -0.2 0.4 0.3
v -0.2 0.4 0.1
v -0.2 0.4 -0.2
v -0.2 0.4 -0.4
v -0.2 0.4 -0.5
v -0.2 0.4 -0.7
v -0.2 0.5 0.5
v -0.2 0.5 0.4
v -0.2 0.5 -0.5
v -0.2 0.5 -0.7
v -0.2 0.5 -0.8
v -0.2 0.5 -0.9
v -0.2 0.6 0.5
v -0.2 0.6 0.4
v -0.2 0.6 -0.8
v -0.2 0.6 -0.9
v -0.2 0.6 -1.1
v -0.2 0.7 -0.9
v -0.2 0.7 -1.1
v -0.2 0.9 0.8
v -0.2 0.9 0.7
v -0.2 1 0.9
v -0.2 1 0.8
v -0.2 1.1 0.8
v -0.2 1.1 0.7
v -0.2 1.3 0.9
v -0.2 1.3 0.8
v -0.1 0 0.6
v -0.1 0 0.5
v -0.1 0 -0.6
v -0.1 0 -0.7
v -0.1 0.1 0.6
v -0.1 0.1 0.5
v -0.1 0.1 0.4
v -0.1 0.1 0.3
v -0.1 0.1 -0.4
v -0.1 0.1 -0.5
v -0.1 0.1 -0.6
v -0.1 0.1 -0.7
v -0.1 0.4 0.4
v -0.1 0.4 0.3
v -0.1 0.4 -0.4
v -0.1 0.4 -0.5
v -0.1 0.4 -0.7
v -0.1 0.4 -0.8
v -0.1 0.5 -0.7
v -0.1 0.5 -0.8
v -0.1 0.5 -0.9
v -0.1 0.5 -1
v -0.1 0.6 -0.9
v -0.1 0.6 -1
v -0.1 0.6 -1.1
v -0.1 0.6 -1.2
v -0.1 0.7 -1.1
v -0.1 0.7 -1.2
v -0.1 0.8 0.8
v -0.1 0.8 0.7
v -0.1 0.9 0.9
v -0.1 0.9 0.8
v -0.1 0.9 0.7
v -0.1 1 0.9
v -0.1 1 0.8
v -0.1 1.3 0.9
v -0.1 1.3 0.8
v -0.1 1.4 0.8
v -0.1 1.5 0.9
v -0.1 1.5 0.8
v 0.3 0.8 0.8
v 0.3 0.8 0.7
v 0.3 0.9 0.8
v 0.3 0.9 0.7
v 0.3 0.9 0.6
v 0.3 0.9 0.5
v 0.3 1 0.8
v 0.3 1 0.7
v 0.3 1 0.6
v 0.3 1 0.5
v 0.4 0.7 0.7
v 0.4 0.7 0.6
v 0.4 0.7 0.5
v 0.4 0.8 0.9
v 0.4 0.8 0.8
v 0.4 0.8 0.7
v 0.4 0.8 0.5
v 0.4 0.9 0.9
v 0.4 0.9 0.8
v 0.4 0.9 0.3
v 0.4 0.9 0.1
v 0.4 1 0.9
v 0.4 1 0.8
v 0.4 1 0.3
v 0.4 1 0.1
v 0.5 0.8 0.5
v 0.5 0.8 0.4
v 0.5 0.8 0
v 0.5 0.9 0.7
v 0.5 0.9 0.5
v 0.5 0.9 0.3
v 0.5 0.9 0.1
v 0.5 0.9 0
v 0.5 1 0.7
v 0.5 1 0.3
v 0.5 1 0.1
v 0.5 1 0
v -0.5 0.8 0.7
v -0.5 0.8 0.6
v -0.5 0.8 0.5
v -0.5 0.8 0.4
v -0.5 0.8 0
v -0.5 0.9 0.7
v -0.5 0.9 0.6
v -0.5 0.9 0.5
v -0.5 0.9 0.3
v -0.5 0.9 0.1
v -0.5 0.9 0
v -0.5 1 0.7
v -0.5 1 0.3
v -0.5 1 0.1
v -0.5 1 0
v -0.4 0.7 0.6
v -0.4 0.7 0.5
v -0.4 0.8 0.9
v -0.4 0.8 0.8
v -0.4 0.8 0.6
v -0.4 0.8 0.5
v -0.4 0.9 0.9
v -0.4 0.9 0.8
v -0.4 0.9 0.3
v -0.4 0.9 0.1
v -0.4 1 0.9
v -0.4 1 0.8
v -0.4 1 0.3
v -0.4 1 0.1
v -0.3 0.8 0.8
v -0.3 0.8 0.7
v -0.3 0.9 0.8
v -0.3 0.9 0.7
v -0.3 0.9 0.6
v -0.3 0.9 0.5
v -0.3 1 0.8
v -0.3 1 0.7
v -0.3 1 0.6
v -0.3 1 0.5
v 0.1 0 0.6
v 0.1 0 0.5
v 0.1 0 -0.6
v 0.1 0 -0.7
v 0.1 0.1 0.6
v 0.1 0.1 0.5
v 0.1 0.1 0.4
v 0.1 0.1 0.3
v 0.1 0.1 -0.4
v 0.1 0.1 -0.5
v 0.1 0.1 -0.6
v 0.1 0.1 -0.7
v 0.1 0.4 0.4
v 0.1 0.4 0.3
v 0.1 0.4 -0.4
v 0.1 0.4 -0.5
v 0.1 0.4 -0.7
v 0.1 0.4 -0.8
v 0.1 0.5 -0.7
v 0.1 0.5 -0.8
v 0.1 0.5 -0.9
v 0.1 0.5 -1
v 0.1 0.6 -0.9
v 0.1 0.6 -1
v 0.1 0.6 -1.1
v 0.1 0.6 -1.2
v 0.1 0.7 -1.1
v 0.1 0.7 -1.2
v 0.1 0.8 0.8
v 0.1 0.8 0.7
v 0.1 0.9 0.9
v 0.1 0.9 0.8
v 0.1 0.9 0.7
v 0.1 1 0.9
v 0.1 1 0.8
v 0.1 1.3 0.9
v 0.1 1.3 0.8
v 0.1 1.4 0.8
v 0.1 1.5 0.9
v 0.1 1.5 0.8
v 0.2 0 0.5
v 0.2 0 0.3
v 0.2 0 -0.4
v 0.2 0 -0.6
v 0.2 0.1 0.5
v 0.2 0.1 0.3
v 0.2 0.1 0.1
v 0.2 0.1 -0.2
v 0.2 0.1 -0.4
v 0.2 0.1 -0.6
v 0.2 0.4 0.3
v 0.2 0.4 0.1
v 0.2 0.4 -0.2
v 0.2 0.4 -0.4
v 0.2 0.4 -0.5
v 0.2 0.4 -0.7
v 0.2 0.5 0.5
v 0.2 0.5 0.4
v 0.2 0.5 -0.5
v 0.2 0.5 -0.7
v 0.2 0.5 -0.8
v 0.2 0.5 -0.9
v 0.2 0.6 0.5
v 0.2 0.6 0.4
v 0.2 0.6 -0.8
v 0.2 0.6 -0.9
v 0.2 0.6 -1.1
v 0.2 0.7 -0.9
v 0.2 0.7 -1.1
v 0.2 0.9 0.8
v 0.2 0.9 0.7
v 0.2 1 0.9
v 0.2 1 0.8
v 0.2 1.1 0.8
v 0.2 1.1 0.7
v 0.2 1.3 0.9
v 0.2 1.3 0.8
v 0.3 0 0.3
v 0.3 0 0.2
v 0.3 0 -0.3
v 0.3 0 -0.4
v 0.3 0.1 0.3
v 0.3 0.1 0.2
v 0.3 0.1 0.1
v 0.3 0.1 -0.2
v 0.3 0.1 -0.3
v 0.3 0.1 -0.4
v 0.3 0.4 0.4
v 0.3 0.4 0.2
v 0.3 0.4 0.1
v 0.3 0.4 -0.2
v 0.3 0.4 -0.3
v 0.3 0.4 -0.5
v 0.3 0.5 0.3
v 0.3 0.5 0.2
v 0.3 0.5 -0.3
v 0.3 0.5 -0.5
v 0.3 0.5 -0.8
v 0.3 0.6 0.4
v 0.3 0.6 0.3
v 0.3 0.6 -0.5
v 0.3 0.6 -0.6
v 0.3 0.6 -0.8
v 0.3 0.6 -0.9
v 0.3 0.7 0.7
v 0.3 0.7 0.6
v 0.3 0.7 0.5
v 0.3 0.7 -0.6
v 0.3 0.7 -0.9
v 0.3 0.8 0.7
v 0.3 0.8 0.5
v 0.3 1.2 0.8
v 0.3 1.2 0.7
v 0.3 1.4 0.8
v 0.3 1.4 0.7
v 0.3 1.5 0.9
v 0.3 1.5 0.8
v 0.3 1.6 0.9
v 0.3 1.6 0.8
v 0.3 1.8 0.9
v 0.3 1.8 0.8
v 0.3 1.9 0.9
v 0.3 1.9 0.8
v 0.4 0 0.2
v 0.4 0 -0.3
v 0.4 0.1 0.2
v 0.4 0.1 -0.3
v 0.4 0.4 0.2
v 0.4 0.4 -0.3
v 0.4 0.5 0.3
v 0.4 0.5 0.2
v 0.4 0.5 -0.3
v 0.4 0.5 -0.5
v 0.4 0.6 0.6
v 0.4 0.6 0.5
v 0.4 0.6 0.4
v 0.4 0.6 0.3
v 0.4 0.6 0.2
v 0.4 0.6 -0.3
v 0.4 0.6 -0.5
v 0.4 0.6 -0.6
v 0.4 0.7 0.6
v 0.4 0.7 0.5
v 0.4 0.7 0.4
v 0.4 0.7 0.2
v 0.4 0.7 -0.3
v 0.4 0.7 -0.6
v 0.4 0.9 0.7
v 0.4 0.9 0.5
v 0.4 1 0.7
v 0.4 1 0.6
v 0.4 1 0.5
v 0.4 1.1 0.8
v 0.4 1.1 0.7
v 0.4 1.1 0.6
v 0.4 1.2 0.8
v 0.4 1.2 0.7
v 0.4 1.6 0.9
v 0.4 1.6 0.8
v 0.4 1.8 0.9
v 0.4 1.8 0.8
v 0.5 0.5 0.2
v 0.5 0.5 -0.3
v 0.5 0.6 0.5
v 0.5 0.6 0.4
v 0.5 0.6 0.2
v 0.5 0.6 -0.3
v 0.5 0.7 0.7
v 0.5 0.7 0.5
v 0.5 0.7 0.2
v 0.5 0.7 -0.3
v 0.5 0.8 0.9
v 0.5 0.8 0.7
v 0.5 0.8 0.4
v 0.5 0.9 0.9
v 0.5 0.9 0.7
v 0.5 1 0.9
v 0.5 1 0.7
v 0.6 0.8 0.7
v 0.6 0.8 0.6
v 0.6 0.8 0.1
v 0.6 0.8 0
v 0.6 0.9 0.7
v 0.6 0.9 0.6
v 0.6 0.9 0.1
v 0.6 0.9 0
v 0.6 1 0.7
v 0.6 1 0.6
v 0.6 1 0.1
v 0.6 1 0
v 0.7 0.8 0.6
v 0.7 0.8 0.1
v 0.7 0.9 0.6
v 0.7 0.9 0.5
v 0.7 0.9 0.3
v 0.7 0.9 0.1
v 0.7 1 0.6
v 0.7 1 0.5
v 0.7 1 0.3
v 0.7 1 0.1
v 0.8 0.9 0.5
v 0.8 0.9 0.3
v 0.8 1 0.5
v 0.8 1 0.3
v -0.5 0.8 0.9
v -0.5 0.9 0.9
v -0.5 1 0.9
v -0.4 0.8 0.9
v -0.4 0.9 0.9
v -0.4 1 0.9
v -0.4 1.6 0.9
v -0.4 1.8 0.9
v -0.3 1.5 0.9
v -0.3 1.6 0.9
v -0.3 1.8 0.9
v -0.3 1.9 0.9
v -0.2 1 0.9
v -0.2 1.3 0.9
v -0.1 0.9 0.9
v -0.1 1 0.9
v -0.1 1.3 0.9
v -0.1 1.5 0.9
v 0.1 0.9 0.9
v 0.1 1 0.9
v 0.1 1.3 0.9
v 0.1 1.5 0.9
v 0.2 1 0.9
v 0.2 1.3 0.9
v 0.3 1.5 0.9
v 0.3 1.6 0.9
v 0.3 1.8 0.9
v 0.3 1.9 0.9
v 0.4 0.8 0.9
v 0.4 0.9 0.9
v 0.4 1 0.9
v 0.4 1.6 0.9
v 0.4 1.8 0.9
v 0.5 0.8 0.9
v 0.5 0.9 0.9
v 0.5 1 0.9
v -0.4 0.8 0.8
v -0.4 0.9 0.8
v -0.4 1 0.8
v -0.4 1.1 0.8
v -0.4 1.2 0.8
v -0.3 0.8 0.8
v -0.3 0.9 0.8
v -0.3 1 0.8
v -0.3 1.2 0.8
v -0.3 1.4 0.8
v -0.2 0.9 0.8
v -0.2 1 0.8
v -0.2 1.1 0.8
v -0.2 1.3 0.8
v -0.1 0.8 0.8
v -0.1 0.9 0.8
v -0.1 1 0.8
v -0.1 1.3 0.8
v -0.1 1.4 0.8
v 0.1 0.8 0.8
v 0.1 0.9 0.8
v 0.1 1 0.8
v 0.1 1.3 0.8
v 0.1 1.4 0.8
v 0.2 0.9 0.8
v 0.2 1 0.8
v 0.2 1.1 0.8
v 0.2 1.3 0.8
v 0.3 0.8 0.8
v 0.3 0.9 0.8
v 0.3 1 0.8
v 0.3 1.2 0.8
v 0.3 1.4 0.8
v 0.4 0.8 0.8
v 0.4 0.9 0.8
v 0.4 1 0.8
v 0.4 1.1 0.8
v 0.4 1.2 0.8
v -0.6 0.8 0.7
v -0.6 0.9 0.7
v -0.6 1 0.7
v -0.5 0.8 0.7
v -0.5 0.9 0.7
v -0.5 1 0.7
v -0.4 1 0.7
v -0.4 1.1 0.7
v -0.3 0.7 0.7
v -0.3 0.8 0.7
v -0.3 0.9 0.7
v -0.3 1 0.7
v -0.2 0.9 0.7
v -0.2 1.1 0.7
v -0.1 0.8 0.7
v -0.1 0.9 0.7
v 0.1 0.8 0.7
v 0.1 0.9 0.7
v 0.2 0.9 0.7
v 0.2 1.1 0.7
v 0.3 0.7 0.7
v 0.3 0.8 0.7
v 0.3 0.9 0.7
v 0.3 1 0.7
v 0.4 0.7 0.7
v 0.4 0.8 0.7
v 0.4 1 0.7
v 0.4 1.1 0.7
v 0.5 0.7 0.7
v 0.5 0.8 0.7
v 0.5 0.9 0.7
v 0.5 1 0.7
v 0.6 0.8 0.7
v 0.6 0.9 0.7
v 0.6 1 0.7
v -0.7 0.8 0.6
v -0.7 0.9 0.6
v -0.7 1 0.6
v -0.6 0.8 0.6
v -0.6 0.9 0.6
v -0.6 1 0.6
v -0.5 0.7 0.6
v -0.5 0.8 0.6
v -0.5 0.9 0.6
v -0.4 0.6 0.6
v -0.4 0.7 0.6
v -0.4 0.8 0.6
v -0.4 0.9 0.6
v -0.3 0.7 0.6
v -0.1 0 0.6
v -0.1 0.1 0.6
v 0.1 0 0.6
v 0.1 0.1 0.6
v 0.3 0.7 0.6
v 0.4 0.6 0.6
v 0.4 0.7 0.6
v 0.6 0.8 0.6
v 0.6 0.9 0.6
v 0.6 1 0.6
v 0.7 0.8 0.6
v 0.7 0.9 0.6
v 0.7 1 0.6
v -0.8 0.9 0.5
v -0.8 1 0.5
v -0.7 0.9 0.5
v -0.7 1 0.5
v -0.5 0.6 0.5
v -0.5 0.7 0.5
v -0.4 0.6 0.5
v -0.4 0.7 0.5
v -0.4 0.8 0.5
v -0.3 0.7 0.5
v -0.3 0.8 0.5
v -0.2 0 0.5
v -0.2 0.1 0.5
v -0.2 0.5 0.5
v -0.2 0.6 0.5
v -0.1 0 0.5
v -0.1 0.1 0.5
v 0.1 0 0.5
v 0.1 0.1 0.5
v 0.2 0 0.5
v 0.2 0.1 0.5
v 0.2 0.5 0.5
v 0.2 0.6 0.5
v 0.3 0.7 0.5
v 0.3 0.8 0.5
v 0.4 0.6 0.5
v 0.4 0.7 0.5
v 0.4 0.8 0.5
v 0.5 0.6 0.5
v 0.5 0.7 0.5
v 0.7 0.9 0.5
v 0.7 1 0.5
v 0.8 0.9 0.5
v 0.8 1 0.5
v -0.3 0.4 0.4
v -0.3 0.6 0.4
v -0.2 0.5 0.4
v -0.2 0.6 0.4
v -0.1 0.1 0.4
v -0.1 0.4 0.4
v 0.1 0.1 0.4
v 0.1 0.4 0.4
v 0.2 0.5 0.4
v 0.2 0.6 0.4
v 0.3 0.4 0.4
v 0.3 0.6 0.4
v -0.5 0.9 0.3
v -0.5 1 0.3
v -0.4 0.5 0.3
v -0.4 0.6 0.3
v -0.4 0.9 0.3
v -0.4 1 0.3
v -0.3 0 0.3
v -0.3 0.1 0.3
v -0.3 0.5 0.3
v -0.3 0.6 0.3
v -0.2 0 0.3
v -0.2 0.1 0.3
v -0.2 0.4 0.3
v -0.1 0.1 0.3
v -0.1 0.4 0.3
v 0.1 0.1 0.3
v 0.1 0.4 0.3
v 0.2 0 0.3
v 0.2 0.1 0.3
v 0.2 0.4 0.3
v 0.3 0 0.3
v 0.3 0.1 0.3
v 0.3 0.5 0.3
v 0.3 0.6 0.3
v 0.4 0.5 0.3
v 0.4 0.6 0.3
v 0.4 0.9 0.3
v 0.4 1 0.3
v 0.5 0.9 0.3
v 0.5 1 0.3
v -0.5 0.5 0.2
v -0.5 0.6 0.2
v -0.5 0.7 0.2
v -0.4 0 0.2
v -0.4 0.1 0.2
v -0.4 0.4 0.2
v -0.4 0.5 0.2
v -0.4 0.6 0.2
v -0.4 0.7 0.2
v -0.3 0 0.2
v -0.3 0.1 0.2
v -0.3 0.4 0.2
v -0.3 0.5 0.2
v 0.3 0 0.2
v 0.3 0.1 0.2
v 0.3 0.4 0.2
v 0.3 0.5 0.2
v 0.4 0 0.2
v 0.4 0.1 0.2
v 0.4 0.4 0.2
v 0.4 0.5 0.2
v 0.4 0.6 0.2
v 0.4 0.7 0.2
v 0.5 0.5 0.2
v 0.5 0.6 0.2
v 0.5 0.7 0.2
v -0.3 0.1 0.1
v -0.3 0.4 0.1
v -0.2 0.1 0.1
v -0.2 0.4 0.1
v 0.2 0.1 0.1
v 0.2 0.4 0.1
v 0.3 0.1 0.1
v 0.3 0.4 0.1
v -0.4 1.6 0.8
v -0.4 1.8 0.8
v -0.3 1.5 0.8
v -0.3 1.6 0.8
v -0.3 1.8 0.8
v -0.3 1.9 0.8
v -0.1 1.4 0.8
v -0.1 1.5 0.8
v 0.1 1.4 0.8
v 0.1 1.5 0.8
v 0.3 1.5 0.8
v 0.3 1.6 0.8
v 0.3 1.8 0.8
v 0.3 1.9 0.8
v 0.4 1.6 0.8
v 0.4 1.8 0.8
v -0.5 0.8 0.7
v -0.5 0.9 0.7
v -0.5 1 0.7
v -0.4 0.8 0.7
v -0.4 0.9 0.7
v -0.4 1 0.7
v -0.4 1.1 0.7
v -0.4 1.2 0.7
v -0.3 1.2 0.7
v -0.3 1.4 0.7
v 0.3 1.2 0.7
v 0.3 1.4 0.7
v 0.4 0.9 0.7
v 0.4 1 0.7
v 0.4 1.1 0.7
v 0.4 1.2 0.7
v 0.5 0.9 0.7
v 0.5 1 0.7
v -0.4 1 0.6
v -0.4 1.1 0.6
v -0.3 0.9 0.6
v -0.3 1 0.6
v 0.3 0.9 0.6
v 0.3 1 0.6
v 0.4 1 0.6
v 0.4 1.1 0.6
v -0.5 0.8 0.5
v -0.5 0.9 0.5
v -0.4 0.9 0.5
v -0.4 1 0.5
v -0.3 0.9 0.5
v -0.3 1 0.5
v 0.3 0.9 0.5
v 0.3 1 0.5
v 0.4 0.9 0.5
v 0.4 1 0.5
v 0.5 0.8 0.5
v 0.5 0.9 0.5
v -0.5 0.6 0.4
v -0.5 0.8 0.4
v -0.4 0.6 0.4
v -0.4 0.7 0.4
v 0.4 0.6 0.4
v 0.4 0.7 0.4
v 0.5 0.6 0.4
v 0.5 0.8 0.4
v -0.8 0.9 0.3
v -0.8 1 0.3
v -0.7 0.9 0.3
v -0.7 1 0.3
v 0.7 0.9 0.3
v 0.7 1 0.3
v 0.8 0.9 0.3
v 0.8 1 0.3
v -0.7 0.8 0.1
v -0.7 0.9 0.1
v -0.7 1 0.1
v -0.6 0.8 0.1
v -0.6 0.9 0.1
v -0.6 1 0.1
v -0.5 0.9 0.1
v -0.5 1 0.1
v -0.4 0.9 0.1
v -0.4 1 0.1
v 0.4 0.9 0.1
v 0.4 1 0.1
v 0.5 0.9 0.1
v 0.5 1 0.1
v 0.6 0.8 0.1
v 0.6 0.9 0.1
v 0.6 1 0.1
v 0.7 0.8 0.1
v 0.7 0.9 0.1
v 0.7 1 0.1
v -0.6 0.8 0
v -0.6 0.9 0
v -0.6 1 0
v -0.5 0.8 0
v -0.5 0.9 0
v -0.5 1 0
v 0.5 0.8 0
v 0.5 0.9 0
v 0.5 1 0
v 0.6 0.8 0
v 0.6 0.9 0
v 0.6 1 0
v -0.3 0.1 -0.2
v -0.3 0.4 -0.2
v -0.2 0.1 -0.2
v -0.2 0.4 -0.2
v 0.2 0.1 -0.2
v 0.2 0.4 -0.2
v 0.3 0.1 -0.2
v 0.3 0.4 -0.2
v -0.5 0.5 -0.3
v -0.5 0.6 -0.3
v -0.5 0.7 -0.3
v -0.4 0 -0.3
v -0.4 0.1 -0.3
v -0.4 0.4 -0.3
v -0.4 0.5 -0.3
v -0.4 0.6 -0.3
v -0.4 0.7 -0.3
v -0.3 0 -0.3
v -0.3 0.1 -0.3
v -0.3 0.4 -0.3
v -0.3 0.5 -0.3
v 0.3 0 -0.3
v 0.3 0.1 -0.3
v 0.3 0.4 -0.3
v 0.3 0.5 -0.3
v 0.4 0 -0.3
v 0.4 0.1 -0.3
v 0.4 0.4 -0.3
v 0.4 0.5 -0.3
v 0.4 0.6 -0.3
v 0.4 0.7 -0.3
v 0.5 0.5 -0.3
v 0.5 0.6 -0.3
v 0.5 0.7 -0.3
v -0.3 0 -0.4
v -0.3 0.1 -0.4
v -0.2 0 -0.4
v -0.2 0.1 -0.4
v -0.2 0.4 -0.4
v -0.1 0.1 -0.4
v -0.1 0.4 -0.4
v 0.1 0.1 -0.4
v 0.1 0.4 -0.4
v 0.2 0 -0.4
v 0.2 0.1 -0.4
v 0.2 0.4 -0.4
v 0.3 0 -0.4
v 0.3 0.1 -0.4
v -0.4 0.5 -0.5
v -0.4 0.6 -0.5
v -0.3 0.4 -0.5
v -0.3 0.5 -0.5
v -0.3 0.6 -0.5
v -0.2 0.4 -0.5
v -0.2 0.5 -0.5
v -0.1 0.1 -0.5
v -0.1 0.4 -0.5
v 0.1 0.1 -0.5
v 0.1 0.4 -0.5
v 0.2 0.4 -0.5
v 0.2 0.5 -0.5
v 0.3 0.4 -0.5
v 0.3 0.5 -0.5
v 0.3 0.6 -0.5
v 0.4 0.5 -0.5
v 0.4 0.6 -0.5
v -0.4 0.6 -0.6
v -0.4 0.7 -0.6
v -0.3 0.6 -0.6
v -0.3 0.7 -0.6
v -0.2 0 -0.6
v -0.2 0.1 -0.6
v -0.1 0 -0.6
v -0.1 0.1 -0.6
v 0.1 0 -0.6
v 0.1 0.1 -0.6
v 0.2 0 -0.6
v 0.2 0.1 -0.6
v 0.3 0.6 -0.6
v 0.3 0.7 -0.6
v 0.4 0.6 -0.6
v 0.4 0.7 -0.6
v -0.2 0.4 -0.7
v -0.2 0.5 -0.7
v -0.1 0 -0.7
v -0.1 0.1 -0.7
v -0.1 0.4 -0.7
v -0.1 0.5 -0.7
v 0.1 0 -0.7
v 0.1 0.1 -0.7
v 0.1 0.4 -0.7
v 0.1 0.5 -0.7
v 0.2 0.4 -0.7
v 0.2 0.5 -0.7
v -0.3 0.5 -0.8
v -0.3 0.6 -0.8
v -0.2 0.5 -0.8
v -0.2 0.6 -0.8
v -0.1 0.4 -0.8
v -0.1 0.5 -0.8
v 0.1 0.4 -0.8
v 0.1 0.5 -0.8
v 0.2 0.5 -0.8
v 0.2 0.6 -0.8
v 0.3 0.5 -0.8
v 0.3 0.6 -0.8
v -0.3 0.6 -0.9
v -0.3 0.7 -0.9
v -0.2 0.5 -0.9
v -0.2 0.6 -0.9
v -0.2 0.7 -0.9
v -0.1 0.5 -0.9
v -0.1 0.6 -0.9
v 0.1 0.5 -0.9
v 0.1 0.6 -0.9
v 0.2 0.5 -0.9
v 0.2 0.6 -0.9
v 0.2 0.7 -0.9
v 0.3 0.6 -0.9
v 0.3 0.7 -0.9
v -0.1 0.5 -1
v -0.1 0.6 -1
v 0.1 0.5 -1
v 0.1 0.6 -1
v -0.2 0.6 -1.1
v -0.2 0.7 -1.1
v -0.1 0.6 -1.1
v -0.1 0.7 -1.1
v 0.1 0.6 -1.1
v 0.1 0.7 -1.1
v 0.2 0.6 -1.1
v 0.2 0.7 -1.1
v -0.1 0.6 -1.2
v -0.1 0.7 -1.2
v 0.1 0.6 -1.2
v 0.1 0.7 -1.2
v -0.1 0 0.6
v 0.1 0 0.6
v -0.2 0 0.5
v -0.1 0 0.5
v 0.1 0 0.5
v 0.2 0 0.5
v -0.3 0 0.3
v -0.2 0 0.3
v 0.2 0 0.3
v 0.3 0 0.3
v -0.4 0 0.2
v -0.3 0 0.2
v 0.3 0 0.2
v 0.4 0 0.2
v -0.4 0 -0.3
v -0.3 0 -0.3
v 0.3 0 -0.3
v 0.4 0 -0.3
v -0.3 0 -0.4
v -0.2 0 -0.4
v 0.2 0 -0.4
v 0.3 0 -0.4
v -0.2 0 -0.6
v -0.1 0 -0.6
v 0.1 0 -0.6
v 0.2 0 -0.6
v -0.1 0 -0.7
v 0.1 0 -0.7
v -0.3 0.4 0.4
v -0.1 0.4 0.4
v 0.1 0.4 0.4
v 0.3 0.4 0.4
v -0.2 0.4 0.3
v -0.1 0.4 0.3
v 0.1 0.4 0.3
v 0.2 0.4 0.3
v -0.4 0.4 0.2
v -0.3 0.4 0.2
v 0.3 0.4 0.2
v 0.4 0.4 0.2
v -0.3 0.4 0.1
v -0.2 0.4 0.1
v 0.2 0.4 0.1
v 0.3 0.4 0.1
v -0.3 0.4 -0.2
v -0.2 0.4 -0.2
v 0.2 0.4 -0.2
v 0.3 0.4 -0.2
v -0.4 0.4 -0.3
v -0.3 0.4 -0.3
v 0.3 0.4 -0.3
v 0.4 0.4 -0.3
v -0.2 0.4 -0.4
v -0.1 0.4 -0.4
v 0.1 0.4 -0.4
v 0.2 0.4 -0.4
v -0.3 0.4 -0.5
v -0.2 0.4 -0.5
v -0.1 0.4 -0.5
v 0.1 0.4 -0.5
v 0.2 0.4 -0.5
v 0.3 0.4 -0.5
v -0.2 0.4 -0.7
v -0.1 0.4 -0.7
v 0.1 0.4 -0.7
v 0.2 0.4 -0.7
v -0.1 0.4 -0.8
v 0.1 0.4 -0.8
v -0.2 0.5 0.5
v 0.2 0.5 0.5
v -0.2 0.5 0.4
v 0.2 0.5 0.4
v -0.4 0.5 0.3
v -0.3 0.5 0.3
v 0.3 0.5 0.3
v 0.4 0.5 0.3
v -0.5 0.5 0.2
v -0.4 0.5 0.2
v -0.3 0.5 0.2
v 0.3 0.5 0.2
v 0.4 0.5 0.2
v 0.5 0.5 0.2
v -0.5 0.5 -0.3
v -0.4 0.5 -0.3
v -0.3 0.5 -0.3
v 0.3 0.5 -0.3
v 0.4 0.5 -0.3
v 0.5 0.5 -0.3
v -0.4 0.5 -0.5
v -0.3 0.5 -0.5
v -0.2 0.5 -0.5
v 0.2 0.5 -0.5
v 0.3 0.5 -0.5
v 0.4 0.5 -0.5
v -0.2 0.5 -0.7
v -0.1 0.5 -0.7
v 0.1 0.5 -0.7
v 0.2 0.5 -0.7
v -0.3 0.5 -0.8
v -0.2 0.5 -0.8
v -0.1 0.5 -0.8
v 0.1 0.5 -0.8
v 0.2 0.5 -0.8
v 0.3 0.5 -0.8
v -0.2 0.5 -0.9
v -0.1 0.5 -0.9
v 0.1 0.5 -0.9
v 0.2 0.5 -0.9
v -0.1 0.5 -1
v 0.1 0.5 -1
v -0.4 0.6 0.6
v 0.4 0.6 0.6
v -0.5 0.6 0.5
v -0.4 0.6 0.5
v -0.2 0.6 0.5
v 0.2 0.6 0.5
v 0.4 0.6 0.5
v 0.5 0.6 0.5
v -0.5 0.6 0.4
v -0.4 0.6 0.4
v -0.3 0.6 0.4
v -0.2 0.6 0.4
v 0.2 0.6 0.4
v 0.3 0.6 0.4
v 0.4 0.6 0.4
v 0.5 0.6 0.4
v -0.4 0.6 0.3
v -0.3 0.6 0.3
v 0.3 0.6 0.3
v 0.4 0.6 0.3
v -0.4 0.6 -0.5
v -0.3 0.6 -0.5
v 0.3 0.6 -0.5
v 0.4 0.6 -0.5
v -0.4 0.6 -0.6
v -0.3 0.6 -0.6
v 0.3 0.6 -0.6
v 0.4 0.6 -0.6
v -0.3 0.6 -0.8
v -0.2 0.6 -0.8
v 0.2 0.6 -0.8
v 0.3 0.6 -0.8
v -0.3 0.6 -0.9
v -0.2 0.6 -0.9
v -0.1 0.6 -0.9
v 0.1 0.6 -0.9
v 0.2 0.6 -0.9
v 0.3 0.6 -0.9
v -0.1 0.6 -1
v 0.1 0.6 -1
v -0.2 0.6 -1.1
v -0.1 0.6 -1.1
v 0.1 0.6 -1.1
v 0.2 0.6 -1.1
v -0.1 0.6 -1.2
v 0.1 0.6 -1.2
v -0.3 0.7 0.7
v 0.3 0.7 0.7
v 0.4 0.7 0.7
v 0.5 0.7 0.7
v -0.5 0.7 0.6
v -0.4 0.7 0.6
v -0.3 0.7 0.6
v 0.3 0.7 0.6
v 0.4 0.7 0.6
v -0.5 0.7 0.5
v -0.4 0.7 0.5
v 0.4 0.7 0.5
v 0.5 0.7 0.5
v -0.5 0.8 0.9
v -0.4 0.8 0.9
v 0.4 0.8 0.9
v 0.5 0.8 0.9
v -0.4 0.8 0.8
v -0.3 0.8 0.8
v -0.1 0.8 0.8
v 0.1 0.8 0.8
v 0.3 0.8 0.8
v 0.4 0.8 0.8
v -0.6 0.8 0.7
v -0.5 0.8 0.7
v -0.4 0.8 0.7
v -0.3 0.8 0.7
v -0.1 0.8 0.7
v 0.1 0.8 0.7
v 0.3 0.8 0.7
v 0.4 0.8 0.7
v 0.5 0.8 0.7
v 0.6 0.8 0.7
v -0.7 0.8 0.6
v -0.6 0.8 0.6
v -0.5 0.8 0.6
v -0.4 0.8 0.6
v 0.6 0.8 0.6
v 0.7 0.8 0.6
v -0.4 0.8 0.5
v -0.3 0.8 0.5
v 0.3 0.8 0.5
v 0.4 0.8 0.5
v -0.5 0.8 0.4
v 0.5 0.8 0.4
v -0.7 0.8 0.1
v -0.6 0.8 0.1
v 0.6 0.8 0.1
v 0.7 0.8 0.1
v -0.6 0.8 0
v -0.5 0.8 0
v 0.5 0.8 0
v 0.6 0.8 0
v -0.1 0.9 0.9
v 0.1 0.9 0.9
v -0.2 0.9 0.8
v -0.1 0.9 0.8
v 0.1 0.9 0.8
v 0.2 0.9 0.8
v -0.2 0.9 0.7
v -0.1 0.9 0.7
v 0.1 0.9 0.7
v 0.2 0.9 0.7
v -0.8 0.9 0.5
v -0.7 0.9 0.5
v 0.7 0.9 0.5
v 0.8 0.9 0.5
v -0.8 0.9 0.3
v -0.7 0.9 0.3
v -0.5 0.9 0.3
v -0.4 0.9 0.3
v 0.4 0.9 0.3
v 0.5 0.9 0.3
v 0.7 0.9 0.3
v 0.8 0.9 0.3
v -0.5 0.9 0.1
v -0.4 0.9 0.1
v 0.4 0.9 0.1
v 0.5 0.9 0.1
v -0.2 1 0.9
v -0.1 1 0.9
v 0.1 1 0.9
v 0.2 1 0.9
v -0.2 1 0.8
v -0.1 1 0.8
v 0.1 1 0.8
v 0.2 1 0.8
v -0.4 1.1 0.8
v -0.2 1.1 0.8
v 0.2 1.1 0.8
v 0.4 1.1 0.8
v -0.4 1.1 0.7
v -0.2 1.1 0.7
v 0.2 1.1 0.7
v 0.4 1.1 0.7
v -0.3 1.5 0.9
v -0.1 1.5 0.9
v 0.1 1.5 0.9
v 0.3 1.5 0.9
v -0.3 1.5 0.8
v -0.1 1.5 0.8
v 0.1 1.5 0.8
v 0.3 1.5 0.8
v -0.4 1.6 0.9
v -0.3 1.6 0.9
v 0.3 1.6 0.9
v 0.4 1.6 0.9
v -0.4 1.6 0.8
v -0.3 1.6 0.8
v 0.3 1.6 0.8
v 0.4 1.6 0.8
v -0.1 0.1 0.6
v 0.1 0.1 0.6
v -0.2 0.1 0.5
v -0.1 0.1 0.5
v 0.1 0.1 0.5
v 0.2 0.1 0.5
v -0.1 0.1 0.4
v 0.1 0.1 0.4
v -0.3 0.1 0.3
v -0.2 0.1 0.3
v -0.1 0.1 0.3
v 0.1 0.1 0.3
v 0.2 0.1 0.3
v 0.3 0.1 0.3
v -0.4 0.1 0.2
v -0.3 0.1 0.2
v 0.3 0.1 0.2
v 0.4 0.1 0.2
v -0.3 0.1 0.1
v -0.2 0.1 0.1
v 0.2 0.1 0.1
v 0.3 0.1 0.1
v -0.3 0.1 -0.2
v -0.2 0.1 -0.2
v 0.2 0.1 -0.2
v 0.3 0.1 -0.2
v -0.4 0.1 -0.3
v -0.3 0.1 -0.3
v 0.3 0.1 -0.3
v 0.4 0.1 -0.3
v -0.3 0.1 -0.4
v -0.2 0.1 -0.4
v -0.1 0.1 -0.4
v 0.1 0.1 -0.4
v 0.2 0.1 -0.4
v 0.3 0.1 -0.4
v -0.1 0.1 -0.5
v 0.1 0.1 -0.5
v -0.2 0.1 -0.6
v -0.1 0.1 -0.6
v 0.1 0.1 -0.6
v 0.2 0.1 -0.6
v -0.1 0.1 -0.7
v 0.1 0.1 -0.7
v -0.4 0.7 0.6
v -0.3 0.7 0.6
v 0.3 0.7 0.6
v 0.4 0.7 0.6
v -0.4 0.7 0.5
v -0.3 0.7 0.5
v 0.3 0.7 0.5
v 0.4 0.7 0.5
v -0.4 0.7 0.4
v 0.4 0.7 0.4
v -0.5 0.7 0.2
v -0.4 0.7 0.2
v 0.4 0.7 0.2
v 0.5 0.7 0.2
v -0.5 0.7 -0.3
v -0.4 0.7 -0.3
v 0.4 0.7 -0.3
v 0.5 0.7 -0.3
v -0.4 0.7 -0.6
v -0.3 0.7 -0.6
v 0.3 0.7 -0.6
v 0.4 0.7 -0.6
v -0.3 0.7 -0.9
v -0.2 0.7 -0.9
v 0.2 0.7 -0.9
v 0.3 0.7 -0.9
v -0.2 0.7 -1.1
v -0.1 0.7 -1.1
v 0.1 0.7 -1.1
v 0.2 0.7 -1.1
v -0.1 0.7 -1.2
v 0.1 0.7 -1.2
v -0.5 0.8 0.5
v 0.5 0.8 0.5
v -0.5 0.8 0.4
v 0.5 0.8 0.4
v 0.4 0.9 0.7
v 0.5 0.9 0.7
v -0.5 0.9 0.6
v -0.4 0.9 0.6
v -0.3 0.9 0.6
v 0.3 0.9 0.6
v -0.5 0.9 0.5
v -0.4 0.9 0.5
v -0.3 0.9 0.5
v 0.3 0.9 0.5
v 0.4 0.9 0.5
v 0.5 0.9 0.5
v -0.5 1 0.9
v -0.4 1 0.9
v 0.4 1 0.9
v 0.5 1 0.9
v -0.4 1 0.8
v -0.3 1 0.8
v 0.3 1 0.8
v 0.4 1 0.8
v -0.6 1 0.7
v -0.5 1 0.7
v -0.4 1 0.7
v -0.3 1 0.7
v 0.3 1 0.7
v 0.4 1 0.7
v 0.5 1 0.7
v 0.6 1 0.7
v -0.7 1 0.6
v -0.6 1 0.6
v -0.4 1 0.6
v -0.3 1 0.6
v 0.3 1 0.6
v 0.4 1 0.6
v 0.6 1 0.6
v 0.7 1 0.6
v -0.8 1 0.5
v -0.7 1 0.5
v -0.4 1 0.5
v -0.3 1 0.5
v 0.3 1 0.5
v 0.4 1 0.5
v 0.7 1 0.5
v 0.8 1 0.5
v -0.8 1 0.3
v -0.7 1 0.3
v -0.5 1 0.3
v -0.4 1 0.3
v 0.4 1 0.3
v 0.5 1 0.3
v 0.7 1 0.3
v 0.8 1 0.3
v -0.7 1 0.1
v -0.6 1 0.1
v -0.5 1 0.1
v -0.4 1 0.1
v 0.4 1 0.1
v 0.5 1 0.1
v 0.6 1 0.1
v 0.7 1 0.1
v -0.6 1 0
v -0.5 1 0
v 0.5 1 0
v 0.6 1 0
v -0.4 1.1 0.7
v 0.4 1.1 0.7
v -0.4 1.1 0.6
v 0.4 1.1 0.6
v -0.4 1.2 0.8
v -0.3 1.2 0.8
v 0.3 1.2 0.8
v 0.4 1.2 0.8
v -0.4 1.2 0.7
v -0.3 1.2 0.7
v 0.3 1.2 0.7
v 0.4 1.2 0.7
v -0.2 1.3 0.9
v -0.1 1.3 0.9
v 0.1 1.3 0.9
v 0.2 1.3 0.9
v -0.2 1.3 0.8
v -0.1 1.3 0.8
v 0.1 1.3 0.8
v 0.2 1.3 0.8
v -0.3 1.4 0.8
v -0.1 1.4 0.8
v 0.1 1.4 0.8
v 0.3 1.4 0.8
v -0.3 1.4 0.7
v 0.3 1.4 0.7
v -0.4 1.8 0.9
v -0.3 1.8 0.9
v 0.3 1.8 0.9
v 0.4 1.8 0.9
v -0.4 1.8 0.8
v -0.3 1.8 0.8
v 0.3 1.8 0.8
v 0.4 1.8 0.8
v -0.3 1.9 0.9
v 0.3 1.9 0.9
v -0.3 1.9 0.8
v 0.3 1.9 0.8

# faces
f 3/1/1 2/1/1 1/1/1
f 4/1/1 2/1/1 3/1/1
f 7/2/1 6/2/1 5/2/1
f 8/2/1 6/2/1 7/2/1
f 9/2/1 6/2/1 8/2/1
f 10/2/1 6/2/1 9/2/1
f 11/1/1 8/1/1 7/1/1
f 12/1/1 8/1/1 11/1/1
f 13/1/1 10/1/1 9/1/1
f 14/1/1 10/1/1 13/1/1
f 19/2/1 16/2/1 15/2/1
f 20/2/1 16/2/1 19/2/1
f 21/2/1 18/2/1 17/2/1
f 22/2/1 18/2/1 21/2/1
f 23/1/1 20/1/1 19/1/1
f 24/1/1 20/1/1 23/1/1
f 25/1/1 22/1/1 21/1/1
f 26/1/1 22/1/1 25/1/1
f 31/2/1 28/2/1 27/2/1
f 32/2/1 28/2/1 31/2/1
f 34/1/1 30/1/1 29/1/1
f 35/1/1 32/1/1 31/1/1
f 36/1/1 32/1/1 35/1/1
f 39/1/1 34/1/1 33/1/1
f 40/1/1 30/1/1 34/1/1
f 40/1/1 34/1/1 39/1/1
f 41/2/1 38/2/1 37/2/1
f 42/2/1 38/2/1 41/2/1
f 43/1/1 42/1/1 41/1/1
f 44/1/1 42/1/1 43/1/1
f 47/2/1 46/2/1 45/2/1
f 48/2/1 46/2/1 47/2/1
f 52/2/1 50/2/1 49/2/1
f 53/2/1 50/2/1 52/2/1
f 58/2/1 52/2/1 51/2/1
f 59/2/1 52/2/1 58/2/1
f 60/2/1 54/2/1 53/2/1
f 61/2/1 54/2/1 60/2/1
f 63/1/1 56/1/1 55/1/1
f 64/1/1 56/1/1 63/1/1
f 65/1/1 59/1/1 58/1/1
f 65/1/1 58/1/1 57/1/1
f 66/1/1 59/1/1 65/1/1
f 67/1/1 62/1/1 61/1/1
f 67/1/1 61/1/1 60/1/1
f 68/1/1 62/1/1 67/1/1
f 71/1/1 70/1/1 69/1/1
f 72/1/1 70/1/1 71/1/1
f 74/1/1 72/1/1 71/1/1
f 74/1/1 73/1/1 72/1/1
f 75/1/1 73/1/1 74/1/1
f 76/1/1 73/1/1 75/1/1
f 78/1/1 75/1/1 74/1/1
f 79/1/1 75/1/1 78/1/1
f 80/1/1 78/1/1 77/1/1
f 81/1/1 78/1/1 80/1/1
f 84/1/1 83/1/1 82/1/1
f 85/1/1 83/1/1 84/1/1
f 90/2/1 87/2/1 86/2/1
f 91/2/1 87/2/1 90/2/1
f 94/2/1 89/2/1 88/2/1
f 95/2/1 89/2/1 94/2/1
f 98/2/1 93/2/1 92/2/1
f 99/2/1 93/2/1 98/2/1
f 102/2/1 97/2/1 96/2/1
f 103/2/1 97/2/1 102/2/1
f 104/2/1 101/2/1 100/2/1
f 105/2/1 101/2/1 104/2/1
f 107/2/1 102/2/1 96/2/1
f 108/2/1 102/2/1 107/2/1
f 109/2/1 106/2/1 105/2/1
f 110/2/1 106/2/1 109/2/1
f 111/2/1 106/2/1 110/2/1
f 116/1/1 112/1/1 111/1/1
f 116/1/1 111/1/1 110/1/1
f 117/1/1 112/1/1 116/1/1
f 118/1/1 115/1/1 114/1/1
f 118/1/1 114/1/1 113/1/1
f 119/1/1 115/1/1 118/1/1
f 122/1/1 121/1/1 120/1/1
f 123/1/1 121/1/1 122/1/1
f 126/1/1 125/1/1 124/1/1
f 127/1/1 125/1/1 126/1/1
f 130/1/1 129/1/1 128/1/1
f 131/1/1 129/1/1 130/1/1
f 136/2/1 133/2/1 132/2/1
f 137/2/1 133/2/1 136/2/1
f 140/2/1 135/2/1 134/2/1
f 141/2/1 135/2/1 140/2/1
f 142/2/1 138/2/1 137/2/1
f 143/2/1 138/2/1 142/2/1
f 144/2/1 140/2/1 139/2/1
f 145/2/1 140/2/1 144/2/1
f 150/2/1 147/2/1 146/2/1
f 151/2/1 147/2/1 150/2/1
f 154/2/1 149/2/1 148/2/1
f 155/2/1 149/2/1 154/2/1
f 156/2/1 153/2/1 152/2/1
f 157/2/1 153/2/1 156/2/1
f 159/1/1 158/1/1 157/1/1
f 160/1/1 158/1/1 159/1/1
f 164/1/1 162/1/1 161/1/1
f 165/1/1 162/1/1 164/1/1
f 165/1/1 164/1/1 163/1/1
f 166/1/1 162/1/1 165/1/1
f 167/1/1 165/1/1 163/1/1
f 168/1/1 165/1/1 167/1/1
f 173/2/1 170/2/1 169/2/1
f 174/2/1 170/2/1 173/2/1
f 179/2/1 172/2/1 171/2/1
f 180/2/1 172/2/1 179/2/1
f 181/2/1 176/2/1 175/2/1
f 182/2/1 176/2/1 181/2/1
f 183/2/1 178/2/1 177/2/1
f 184/2/1 178/2/1 183/2/1
f 187/2/1 186/2/1 185/2/1
f 188/2/1 186/2/1 187/2/1
f 191/2/1 190/2/1 189/2/1
f 192/2/1 190/2/1 191/2/1
f 195/1/1 194/1/1 193/1/1
f 196/1/1 194/1/1 195/1/1
f 200/1/1 198/1/1 197/1/1
f 201/1/1 198/1/1 200/1/1
f 202/1/1 200/1/1 199/1/1
f 203/1/1 200/1/1 202/1/1
f 206/1/1 205/1/1 204/1/1
f 207/1/1 206/1/1 204/1/1
f 208/1/1 206/1/1 207/1/1
f 211/2/1 210/2/1 209/2/1
f 212/2/1 210/2/1 211/2/1
f 215/1/1 212/1/1 211/1/1
f 216/1/1 212/1/1 215/1/1
f 217/1/1 214/1/1 213/1/1
f 218/1/1 214/1/1 217/1/1
f 224/1/1 220/1/1 219/1/1
f 224/1/1 221/1/1 220/1/1
f 225/1/1 221/1/1 224/1/1
f 226/2/1 223/2/1 222/2/1
f 227/2/1 223/2/1 226/2/1
f 230/1/1 227/1/1 226/1/1
f 231/1/1 227/1/1 230/1/1
f 232/1/1 229/1/1 228/1/1
f 233/1/1 229/1/1 232/1/1
f 238/2/1 235/2/1 234/2/1
f 238/2/1 236/2/1 235/2/1
f 239/2/1 236/2/1 238/2/1
f 240/2/1 236/2/1 239/2/1
f 241/2/1 236/2/1 240/2/1
f 242/1/1 238/1/1 237/1/1
f 242/1/1 239/1/1 238/1/1
f 243/1/1 239/1/1 242/1/1
f 244/1/1 241/1/1 240/1/1
f 245/1/1 241/1/1 244/1/1
f 246/2/2 247/2/2 251/2/2
f 251/2/2 247/2/2 252/2/2
f 249/2/2 250/2/2 253/2/2
f 248/2/2 249/2/2 253/2/2
f 253/2/2 250/2/2 254/2/2
f 254/2/2 250/2/2 255/2/2
f 255/2/2 250/2/2 256/2/2
f 251/1/2 252/1/2 257/1/2
f 252/1/2 253/1/2 257/1/2
f 253/1/2 254/1/2 257/1/2
f 257/1/2 254/1/2 258/1/2
f 255/1/2 256/1/2 259/1/2
f 259/1/2 256/1/2 260/1/2
f 261/1/2 262/1/2 265/1/2
f 265/1/2 262/1/2 266/1/2
f 263/2/2 264/2/2 267/2/2
f 267/2/2 264/2/2 268/2/2
f 267/1/2 268/1/2 271/1/2
f 271/1/2 268/1/2 272/1/2
f 269/1/2 270/1/2 273/1/2
f 273/1/2 270/1/2 274/1/2
f 275/2/2 276/2/2 277/2/2
f 277/2/2 276/2/2 278/2/2
f 277/1/2 278/1/2 281/1/2
f 281/1/2 278/1/2 282/1/2
f 279/1/2 280/1/2 283/1/2
f 283/1/2 280/1/2 284/1/2
f 285/2/2 286/2/2 289/2/2
f 289/2/2 286/2/2 290/2/2
f 287/2/2 288/2/2 295/2/2
f 295/2/2 288/2/2 296/2/2
f 291/2/2 292/2/2 297/2/2
f 297/2/2 292/2/2 298/2/2
f 293/2/2 294/2/2 299/2/2
f 299/2/2 294/2/2 300/2/2
f 301/2/2 302/2/2 303/2/2
f 303/2/2 302/2/2 304/2/2
f 305/2/2 306/2/2 307/2/2
f 307/2/2 306/2/2 308/2/2
f 309/1/2 310/1/2 311/1/2
f 311/1/2 310/1/2 312/1/2
f 313/1/2 314/1/2 316/1/2
f 316/1/2 314/1/2 317/1/2
f 315/1/2 316/1/2 318/1/2
f 318/1/2 316/1/2 319/1/2
f 320/1/2 321/1/2 322/1/2
f 320/1/2 322/1/2 323/1/2
f 323/1/2 322/1/2 324/1/2
f 325/2/2 326/2/2 329/2/2
f 329/2/2 326/2/2 330/2/2
f 327/2/2 328/2/2 333/2/2
f 333/2/2 328/2/2 334/2/2
f 330/2/2 331/2/2 335/2/2
f 335/2/2 331/2/2 336/2/2
f 332/2/2 333/2/2 337/2/2
f 337/2/2 333/2/2 338/2/2
f 339/2/2 340/2/2 343/2/2
f 343/2/2 340/2/2 344/2/2
f 341/2/2 342/2/2 347/2/2
f 347/2/2 342/2/2 348/2/2
f 345/2/2 346/2/2 349/2/2
f 349/2/2 346/2/2 350/2/2
f 350/1/2 351/1/2 352/1/2
f 352/1/2 351/1/2 353/1/2
f 354/1/2 355/1/2 357/1/2
f 357/1/2 355/1/2 358/1/2
f 356/1/2 357/1/2 358/1/2
f 358/1/2 355/1/2 359/1/2
f 356/1/2 358/1/2 360/1/2
f 360/1/2 358/1/2 361/1/2
f 362/2/2 363/2/2 366/2/2
f 366/2/2 363/2/2 367/2/2
f 364/2/2 365/2/2 370/2/2
f 370/2/2 365/2/2 371/2/2
f 368/2/2 369/2/2 374/2/2
f 374/2/2 369/2/2 375/2/2
f 372/2/2 373/2/2 378/2/2
f 378/2/2 373/2/2 379/2/2
f 376/2/2 377/2/2 380/2/2
f 380/2/2 377/2/2 381/2/2
f 372/2/2 378/2/2 383/2/2
f 383/2/2 378/2/2 384/2/2
f 381/2/2 382/2/2 385/2/2
f 385/2/2 382/2/2 386/2/2
f 386/2/2 382/2/2 387/2/2
f 387/1/2 388/1/2 392/1/2
f 386/1/2 387/1/2 392/1/2
f 392/1/2 388/1/2 393/1/2
f 390/1/2 391/1/2 394/1/2
f 389/1/2 390/1/2 394/1/2
f 394/1/2 391/1/2 395/1/2
f 396/1/2 397/1/2 398/1/2
f 398/1/2 397/1/2 399/1/2
f 400/1/2 401/1/2 402/1/2
f 402/1/2 401/1/2 403/1/2
f 404/1/2 405/1/2 406/1/2
f 406/1/2 405/1/2 407/1/2
f 408/2/2 409/2/2 410/2/2
f 410/2/2 409/2/2 411/2/2
f 412/2/2 413/2/2 415/2/2
f 415/2/2 413/2/2 416/2/2
f 414/2/2 415/2/2 421/2/2
f 421/2/2 415/2/2 422/2/2
f 416/2/2 417/2/2 423/2/2
f 423/2/2 417/2/2 424/2/2
f 418/1/2 419/1/2 426/1/2
f 426/1/2 419/1/2 427/1/2
f 421/1/2 422/1/2 428/1/2
f 420/1/2 421/1/2 428/1/2
f 428/1/2 422/1/2 429/1/2
f 424/1/2 425/1/2 430/1/2
f 423/1/2 424/1/2 430/1/2
f 430/1/2 425/1/2 431/1/2
f 432/1/2 433/1/2 434/1/2
f 434/1/2 433/1/2 435/1/2
f 435/1/2 433/1/2 436/1/2
f 434/1/2 435/1/2 438/1/2
f 438/1/2 435/1/2 439/1/2
f 437/1/2 438/1/2 440/1/2
f 440/1/2 438/1/2 441/1/2
f 442/1/2 443/1/2 444/1/2
f 444/1/2 443/1/2 445/1/2
f 446/2/2 447/2/2 450/2/2
f 450/2/2 447/2/2 451/2/2
f 448/1/2 449/1/2 453/1/2
f 450/1/2 451/1/2 454/1/2
f 454/1/2 451/1/2 455/1/2
f 452/1/2 453/1/2 457/1/2
f 453/1/2 449/1/2 458/1/2
f 457/1/2 453/1/2 458/1/2
f 456/2/2 457/2/2 459/2/2
f 459/2/2 457/2/2 460/2/2
f 459/1/2 460/1/2 461/1/2
f 461/1/2 460/1/2 462/1/2
f 463/2/2 464/2/2 467/2/2
f 467/2/2 464/2/2 468/2/2
f 465/2/2 466/2/2 469/2/2
f 469/2/2 466/2/2 470/2/2
f 467/1/2 468/1/2 471/1/2
f 471/1/2 468/1/2 472/1/2
f 469/1/2 470/1/2 473/1/2
f 473/1/2 470/1/2 474/1/2
f 475/2/2 476/2/2 477/2/2
f 477/2/2 476/2/2 478/2/2
f 478/2/2 476/2/2 479/2/2
f 479/2/2 476/2/2 480/2/2
f 477/1/2 478/1/2 481/1/2
f 481/1/2 478/1/2 482/1/2
f 479/1/2 480/1/2 483/1/2
f 483/1/2 480/1/2 484/1/2
f 485/1/2 486/1/2 487/1/2
f 487/1/2 486/1/2 488/1/2
f 492/2/3 490/2/3 489/2/3
f 493/1/3 491/1/3 490/1/3
f 493/2/3 490/2/3 492/2/3
f 494/1/3 491/1/3 493/1/3
f 498/1/3 496/1/3 495/1/3
f 499/1/3 496/1/3 498/1/3
f 504/1/3 502/1/3 501/1/3
f 505/1/3 502/1/3 504/1/3
f 506/1/3 498/1/3 497/1/3
f 506/1/3 499/1/3 498/1/3
f 506/1/3 500/1/3 499/1/3
f 507/1/3 505/1/3 504/1/3
f 507/1/3 506/1/3 505/1/3
f 507/1/3 504/1/3 503/1/3
f 508/1/3 506/1/3 507/1/3
f 509/1/3 506/1/3 508/1/3
f 510/1/3 500/1/3 506/1/3
f 510/1/3 506/1/3 509/1/3
f 511/1/3 509/1/3 508/1/3
f 512/1/3 509/1/3 511/1/3
f 513/1/3 500/1/3 510/1/3
f 514/1/3 500/1/3 513/1/3
f 515/1/3 500/1/3 514/1/3
f 516/1/3 500/1/3 515/1/3
f 520/1/3 515/1/3 514/1/3
f 521/1/3 515/1/3 520/1/3
f 522/2/3 518/2/3 517/2/3
f 523/1/3 519/1/3 518/1/3
f 523/2/3 518/2/3 522/2/3
f 524/1/3 519/1/3 523/1/3
f 530/2/3 526/2/3 525/2/3
f 531/1/3 527/1/3 526/1/3
f 531/2/3 526/2/3 530/2/3
f 532/1/3 527/1/3 531/1/3
f 533/1/3 529/1/3 528/1/3
f 537/1/3 534/1/3 533/1/3
f 537/1/3 533/1/3 528/1/3
f 538/1/3 534/1/3 537/1/3
f 540/1/3 536/1/3 535/1/3
f 541/1/3 536/1/3 540/1/3
f 542/1/3 534/1/3 538/1/3
f 543/1/3 534/1/3 542/1/3
f 544/1/3 540/1/3 539/1/3
f 545/1/3 540/1/3 544/1/3
f 549/1/3 546/1/3 545/1/3
f 550/1/3 546/1/3 549/1/3
f 552/1/3 548/1/3 547/1/3
f 556/1/3 552/1/3 551/1/3
f 557/1/3 548/1/3 552/1/3
f 557/1/3 552/1/3 556/1/3
f 558/2/3 554/2/3 553/2/3
f 559/1/3 555/1/3 554/1/3
f 559/2/3 554/2/3 558/2/3
f 560/1/3 555/1/3 559/1/3
f 561/1/3 556/1/3 551/1/3
f 562/1/3 556/1/3 561/1/3
f 566/2/3 564/2/3 563/2/3
f 567/1/3 565/1/3 564/1/3
f 567/2/3 564/2/3 566/2/3
f 568/1/3 565/1/3 567/1/3
f 574/1/3 570/1/3 569/1/3
f 575/1/3 573/1/3 572/1/3
f 575/1/3 574/1/3 573/1/3
f 575/1/3 572/1/3 571/1/3
f 576/1/3 570/1/3 574/1/3
f 576/1/3 574/1/3 575/1/3
f 577/1/3 575/1/3 571/1/3
f 578/1/3 575/1/3 577/1/3
f 579/1/3 577/1/3 571/1/3
f 581/1/3 580/1/3 579/1/3
f 583/1/3 581/1/3 579/1/3
f 583/1/3 582/1/3 581/1/3
f 583/1/3 579/1/3 571/1/3
f 584/1/3 582/1/3 583/1/3
f 585/1/3 582/1/3 584/1/3
f 586/1/3 582/1/3 585/1/3
f 589/1/3 582/1/3 586/1/3
f 590/1/3 582/1/3 589/1/3
f 591/1/3 588/1/3 587/1/3
f 592/1/3 588/1/3 591/1/3
f 595/2/3 593/2/3 592/2/3
f 596/1/3 594/1/3 593/1/3
f 596/2/3 593/2/3 595/2/3
f 597/1/3 594/1/3 596/1/3
f 601/2/3 599/2/3 598/2/3
f 602/1/3 600/1/3 599/1/3
f 602/2/3 599/2/3 601/2/3
f 603/1/3 600/1/3 602/1/3
f 608/1/3 605/1/3 604/1/3
f 608/1/3 606/1/3 605/1/3
f 609/1/3 606/1/3 608/1/3
f 610/1/3 606/1/3 609/1/3
f 611/1/3 608/1/3 607/1/3
f 614/2/3 613/2/3 612/2/3
f 615/2/3 613/2/3 614/2/3
f 616/1/3 611/1/3 607/1/3
f 617/1/3 616/1/3 607/1/3
f 618/1/3 616/1/3 617/1/3
f 622/2/3 620/2/3 619/2/3
f 623/1/3 621/1/3 620/1/3
f 623/2/3 620/2/3 622/2/3
f 624/1/3 621/1/3 623/1/3
f 627/1/3 626/1/3 625/1/3
f 628/1/3 626/1/3 627/1/3
f 631/1/3 630/1/3 629/1/3
f 632/1/3 630/1/3 631/1/3
f 634/1/3 633/1/3 632/1/3
f 635/1/3 633/1/3 634/1/3
f 640/2/3 637/2/3 636/2/3
f 641/2/3 637/2/3 640/2/3
f 644/2/3 643/2/3 642/2/3
f 645/2/3 643/2/3 644/2/3
f 646/2/3 639/2/3 638/2/3
f 647/2/3 639/2/3 646/2/3
f 651/1/3 649/1/3 648/1/3
f 652/1/3 649/1/3 651/1/3
f 653/1/3 651/1/3 650/1/3
f 654/1/3 651/1/3 653/1/3
f 657/1/3 656/1/3 655/1/3
f 658/1/3 656/1/3 657/1/3
f 661/2/3 660/2/3 659/2/3
f 662/2/3 660/2/3 661/2/3
f 664/2/3 661/2/3 659/2/3
f 665/2/3 664/2/3 663/2/3
f 666/2/3 661/2/3 664/2/3
f 666/2/3 664/2/3 665/2/3
f 667/2/3 661/2/3 666/2/3
f 669/2/3 667/2/3 666/2/3
f 669/2/3 668/2/3 667/2/3
f 670/2/3 668/2/3 669/2/3
f 675/1/3 672/1/3 671/1/3
f 676/1/3 672/1/3 675/1/3
f 679/2/3 674/2/3 673/2/3
f 680/2/3 674/2/3 679/2/3
f 681/2/3 678/2/3 677/2/3
f 682/2/3 678/2/3 681/2/3
f 684/2/3 683/2/3 682/2/3
f 685/2/3 683/2/3 684/2/3
f 689/2/3 687/2/3 686/2/3
f 690/2/3 687/2/3 689/2/3
f 691/2/3 689/2/3 688/2/3
f 692/2/3 689/2/3 691/2/3
f 695/2/3 694/2/3 693/2/3
f 696/2/3 694/2/3 695/2/3
f 699/1/3 698/1/3 697/1/3
f 700/1/3 698/1/3 699/1/3
f 707/2/3 702/2/3 701/2/3
f 708/1/3 703/1/3 702/1/3
f 708/2/3 702/2/3 707/2/3
f 709/1/3 703/1/3 708/1/3
f 710/2/3 705/2/3 704/2/3
f 711/2/3 705/2/3 710/2/3
f 712/2/3 707/2/3 706/2/3
f 713/2/3 707/2/3 712/2/3
f 718/2/3 715/2/3 714/2/3
f 719/2/3 715/2/3 718/2/3
f 720/2/3 717/2/3 716/2/3
f 721/2/3 717/2/3 720/2/3
f 724/2/3 722/2/3 721/2/3
f 725/1/3 723/1/3 722/1/3
f 725/2/3 722/2/3 724/2/3
f 726/1/3 723/1/3 725/1/3
f 729/2/3 728/2/3 727/2/3
f 730/2/3 728/2/3 729/2/3
f 733/2/3 732/2/3 731/2/3
f 734/2/3 732/2/3 733/2/3
f 735/1/4 736/1/4 738/1/4
f 738/1/4 736/1/4 739/1/4
f 737/1/4 738/1/4 742/1/4
f 739/1/4 740/1/4 742/1/4
f 738/1/4 739/1/4 742/1/4
f 741/1/4 742/1/4 743/1/4
f 742/1/4 740/1/4 744/1/4
f 743/1/4 742/1/4 744/1/4
f 744/1/4 740/1/4 745/1/4
f 745/1/4 740/1/4 746/1/4
f 746/1/4 740/1/4 747/1/4
f 747/1/4 740/1/4 748/1/4
f 746/1/4 747/1/4 749/1/4
f 749/1/4 747/1/4 750/1/4
f 751/2/4 752/2/4 754/2/4
f 752/1/4 753/1/4 755/1/4
f 754/2/4 752/2/4 755/2/4
f 755/1/4 753/1/4 756/1/4
f 757/1/4 758/1/4 759/1/4
f 757/1/4 759/1/4 761/1/4
f 759/1/4 760/1/4 761/1/4
f 761/1/4 760/1/4 762/1/4
f 757/1/4 761/1/4 765/1/4
f 765/1/4 761/1/4 766/1/4
f 763/1/4 764/1/4 767/1/4
f 767/1/4 764/1/4 768/1/4
f 769/1/4 770/1/4 772/1/4
f 771/1/4 772/1/4 773/1/4
f 772/1/4 770/1/4 774/1/4
f 773/1/4 772/1/4 774/1/4
f 774/1/4 770/1/4 775/1/4
f 775/1/4 770/1/4 776/1/4
f 777/1/4 778/1/4 779/1/4
f 777/1/4 779/1/4 781/1/4
f 779/1/4 780/1/4 781/1/4
f 781/1/4 780/1/4 782/1/4
f 777/1/4 781/1/4 783/1/4
f 777/1/4 783/1/4 785/1/4
f 783/1/4 784/1/4 785/1/4
f 785/1/4 784/1/4 786/1/4
f 777/1/4 785/1/4 787/1/4
f 787/1/4 785/1/4 788/1/4
f 789/1/4 790/1/4 791/1/4
f 791/1/4 790/1/4 792/1/4
f 792/1/4 790/1/4 794/1/4
f 793/1/4 794/1/4 795/1/4
f 794/1/4 790/1/4 796/1/4
f 795/1/4 794/1/4 796/1/4
f 797/1/4 798/1/4 799/1/4
f 799/1/4 798/1/4 800/1/4
f 801/1/4 802/1/4 803/1/4
f 803/1/4 802/1/4 804/1/4
f 805/2/4 806/2/4 808/2/4
f 806/1/4 807/1/4 809/1/4
f 808/2/4 806/2/4 809/2/4
f 809/1/4 807/1/4 810/1/4
f 811/1/4 812/1/4 813/1/4
f 813/1/4 812/1/4 814/1/4
f 815/1/4 816/1/4 817/1/4
f 817/1/4 816/1/4 818/1/4
f 819/2/4 820/2/4 822/2/4
f 820/1/4 821/1/4 823/1/4
f 822/2/4 820/2/4 823/2/4
f 823/1/4 821/1/4 824/1/4
f 825/2/4 826/2/4 828/2/4
f 826/1/4 827/1/4 829/1/4
f 828/2/4 826/2/4 829/2/4
f 829/1/4 827/1/4 830/1/4
f 831/2/4 832/2/4 834/2/4
f 832/1/4 833/1/4 835/1/4
f 834/2/4 832/2/4 835/2/4
f 835/1/4 833/1/4 836/1/4
f 837/2/4 838/2/4 839/2/4
f 839/2/4 838/2/4 840/2/4
f 841/2/4 842/2/4 843/2/4
f 843/2/4 842/2/4 844/2/4
f 845/2/4 846/2/4 851/2/4
f 846/1/4 847/1/4 852/1/4
f 851/2/4 846/2/4 852/2/4
f 852/1/4 847/1/4 853/1/4
f 848/2/4 849/2/4 854/2/4
f 854/2/4 849/2/4 855/2/4
f 850/2/4 851/2/4 856/2/4
f 856/2/4 851/2/4 857/2/4
f 858/2/4 859/2/4 862/2/4
f 862/2/4 859/2/4 863/2/4
f 860/2/4 861/2/4 864/2/4
f 864/2/4 861/2/4 865/2/4
f 865/2/4 866/2/4 868/2/4
f 866/1/4 867/1/4 869/1/4
f 868/2/4 866/2/4 869/2/4
f 869/1/4 867/1/4 870/1/4
f 871/2/4 872/2/4 873/2/4
f 873/2/4 872/2/4 874/2/4
f 874/2/4 875/2/4 876/2/4
f 876/2/4 875/2/4 877/2/4
f 878/2/4 879/2/4 881/2/4
f 881/2/4 879/2/4 882/2/4
f 880/2/4 881/2/4 883/2/4
f 883/2/4 881/2/4 884/2/4
f 885/2/4 886/2/4 888/2/4
f 888/2/4 886/2/4 889/2/4
f 887/2/4 888/2/4 890/2/4
f 890/2/4 888/2/4 891/2/4
f 892/2/4 893/2/4 894/2/4
f 894/2/4 893/2/4 895/2/4
f 896/2/4 897/2/4 898/2/4
f 898/2/4 897/2/4 899/2/4
f 899/2/4 900/2/4 901/2/4
f 901/2/4 900/2/4 902/2/4
f 903/1/4 904/1/4 905/1/4
f 905/1/4 904/1/4 906/1/4
f 907/2/4 908/2/4 909/2/4
f 909/2/4 908/2/4 910/2/4
f 911/2/4 912/2/4 913/2/4
f 913/2/4 912/2/4 914/2/4
f 915/1/4 916/1/4 917/1/4
f 917/1/4 916/1/4 918/1/4
f 919/2/4 920/2/4 923/2/4
f 923/2/4 920/2/4 924/2/4
f 921/2/4 922/2/4 925/2/4
f 925/2/4 922/2/4 926/2/4
f 927/2/4 928/2/4 929/2/4
f 929/2/4 928/2/4 930/2/4
f 931/2/4 932/2/4 933/2/4
f 933/2/4 932/2/4 934/2/4
f 935/2/4 936/2/4 937/2/4
f 937/2/4 936/2/4 938/2/4
f 939/2/4 940/2/4 941/2/4
f 941/2/4 940/2/4 942/2/4
f 943/1/4 944/1/4 946/1/4
f 946/1/4 944/1/4 947/1/4
f 945/2/4 946/2/4 948/2/4
f 948/2/4 946/2/4 949/2/4
f 950/2/4 951/2/4 952/2/4
f 952/2/4 951/2/4 953/2/4
f 953/1/4 954/1/4 955/1/4
f 955/1/4 954/1/4 956/1/4
f 957/2/4 958/2/4 959/2/4
f 959/2/4 958/2/4 960/2/4
f 961/1/4 962/1/4 963/1/4
f 963/1/4 962/1/4 964/1/4
f 965/1/4 966/1/4 967/1/4
f 967/1/4 966/1/4 968/1/4
f 969/1/4 970/1/4 971/1/4
f 971/1/4 970/1/4 972/1/4
f 976/2/5 974/2/5 973/2/5
f 977/2/5 974/2/5 976/2/5
f 980/2/5 976/2/5 975/2/5
f 980/2/5 978/2/5 977/2/5
f 980/2/5 977/2/5 976/2/5
f 981/2/5 978/2/5 980/2/5
f 984/2/5 980/2/5 979/2/5
f 984/2/5 982/2/5 981/2/5
f 984/2/5 981/2/5 980/2/5
f 985/2/5 982/2/5 984/2/5
f 987/2/5 984/2/5 983/2/5
f 987/2/5 986/2/5 985/2/5
f 987/2/5 985/2/5 984/2/5
f 988/2/5 986/2/5 987/2/5
f 989/2/5 986/2/5 988/2/5
f 990/2/5 986/2/5 989/2/5
f 991/2/5 989/2/5 988/2/5
f 992/2/5 989/2/5 991/2/5
f 993/2/5 989/2/5 992/2/5
f 994/2/5 989/2/5 993/2/5
f 995/2/5 993/2/5 992/2/5
f 996/2/5 993/2/5 995/2/5
f 997/2/5 993/2/5 996/2/5
f 998/2/5 993/2/5 997/2/5
f 999/2/5 997/2/5 996/2/5
f 1000/2/5 997/2/5 999/2/5
f 1005/2/5 1002/2/5 1001/2/5
f 1006/2/5 1002/2/5 1005/2/5
f 1007/2/5 1004/2/5 1003/2/5
f 1008/2/5 1004/2/5 1007/2/5
f 1010/2/5 1005/2/5 1001/2/5
f 1011/2/5 1004/2/5 1008/2/5
f 1013/2/5 1010/2/5 1009/2/5
f 1013/2/5 1005/2/5 1010/2/5
f 1014/2/5 1005/2/5 1013/2/5
f 1015/2/5 1012/2/5 1011/2/5
f 1015/2/5 1011/2/5 1008/2/5
f 1016/2/5 1012/2/5 1015/2/5
f 1017/2/5 1013/2/5 1009/2/5
f 1020/2/5 1012/2/5 1016/2/5
f 1021/2/5 1018/2/5 1017/2/5
f 1021/2/5 1017/2/5 1009/2/5
f 1022/2/5 1018/2/5 1021/2/5
f 1023/2/5 1020/2/5 1019/2/5
f 1023/2/5 1012/2/5 1020/2/5
f 1024/2/5 1012/2/5 1023/2/5
f 1025/2/5 1018/2/5 1022/2/5
f 1028/2/5 1023/2/5 1019/2/5
f 1029/2/5 1026/2/5 1025/2/5
f 1029/2/5 1025/2/5 1022/2/5
f 1030/2/5 1026/2/5 1029/2/5
f 1031/2/5 1026/2/5 1030/2/5
f 1032/2/5 1028/2/5 1027/2/5
f 1033/2/5 1023/2/5 1028/2/5
f 1033/2/5 1028/2/5 1032/2/5
f 1034/2/5 1023/2/5 1033/2/5
f 1035/2/5 1031/2/5 1030/2/5
f 1035/2/5 1032/2/5 1031/2/5
f 1035/2/5 1033/2/5 1032/2/5
f 1036/2/5 1033/2/5 1035/2/5
f 1037/2/5 1033/2/5 1036/2/5
f 1038/2/5 1033/2/5 1037/2/5
f 1039/2/5 1037/2/5 1036/2/5
f 1040/2/5 1037/2/5 1039/2/5
f 1043/2/5 1042/2/5 1041/2/5
f 1044/2/5 1042/2/5 1043/2/5
f 1050/2/5 1046/2/5 1045/2/5
f 1051/2/5 1046/2/5 1050/2/5
f 1052/2/5 1048/2/5 1047/2/5
f 1053/2/5 1048/2/5 1052/2/5
f 1055/2/5 1050/2/5 1049/2/5
f 1056/2/5 1050/2/5 1055/2/5
f 1059/2/5 1054/2/5 1053/2/5
f 1060/2/5 1054/2/5 1059/2/5
f 1061/2/5 1057/2/5 1056/2/5
f 1062/2/5 1057/2/5 1061/2/5
f 1065/2/5 1059/2/5 1058/2/5
f 1066/2/5 1059/2/5 1065/2/5
f 1067/2/5 1063/2/5 1062/2/5
f 1070/2/5 1065/2/5 1064/2/5
f 1071/2/5 1068/2/5 1067/2/5
f 1071/2/5 1067/2/5 1062/2/5
f 1072/2/5 1068/2/5 1071/2/5
f 1073/2/5 1068/2/5 1072/2/5
f 1074/2/5 1070/2/5 1069/2/5
f 1075/2/5 1065/2/5 1070/2/5
f 1075/2/5 1070/2/5 1074/2/5
f 1076/2/5 1065/2/5 1075/2/5
f 1077/2/5 1073/2/5 1072/2/5
f 1077/2/5 1074/2/5 1073/2/5
f 1077/2/5 1075/2/5 1074/2/5
f 1078/2/5 1075/2/5 1077/2/5
f 1079/2/5 1075/2/5 1078/2/5
f 1080/2/5 1075/2/5 1079/2/5
f 1081/2/5 1079/2/5 1078/2/5
f 1082/2/5 1079/2/5 1081/2/5
f 1086/1/5 1084/1/5 1083/1/5
f 1087/1/5 1084/1/5 1086/1/5
f 1088/1/5 1084/1/5 1087/1/5
f 1089/1/5 1084/1/5 1088/1/5
f 1091/1/5 1086/1/5 1085/1/5
f 1091/1/5 1087/1/5 1086/1/5
f 1092/1/5 1087/1/5 1091/1/5
f 1093/1/5 1087/1/5 1092/1/5
f 1094/1/5 1087/1/5 1093/1/5
f 1095/1/5 1090/1/5 1089/1/5
f 1095/1/5 1089/1/5 1088/1/5
f 1096/1/5 1090/1/5 1095/1/5
f 1097/1/5 1090/1/5 1096/1/5
f 1098/1/5 1090/1/5 1097/1/5
f 1099/1/5 1093/1/5 1092/1/5
f 1100/1/5 1093/1/5 1099/1/5
f 1101/1/5 1097/1/5 1096/1/5
f 1102/1/5 1097/1/5 1101/1/5
f 1107/1/5 1104/1/5 1103/1/5
f 1108/1/5 1104/1/5 1107/1/5
f 1109/1/5 1106/1/5 1105/1/5
f 1110/1/5 1106/1/5 1109/1/5
f 1115/1/5 1112/1/5 1111/1/5
f 1116/1/5 1112/1/5 1115/1/5
f 1119/1/5 1114/1/5 1113/1/5
f 1120/1/5 1114/1/5 1119/1/5
f 1121/1/5 1117/1/5 1116/1/5
f 1122/1/5 1119/1/5 1118/1/5
f 1123/1/5 1121/1/5 1116/1/5
f 1123/1/5 1122/1/5 1121/1/5
f 1124/1/5 1122/1/5 1123/1/5
f 1125/1/5 1119/1/5 1122/1/5
f 1125/1/5 1122/1/5 1124/1/5
f 1126/1/5 1119/1/5 1125/1/5
f 1127/1/5 1125/1/5 1124/1/5
f 1128/1/5 1125/1/5 1127/1/5
f 1135/1/5 1130/1/5 1129/1/5
f 1136/1/5 1130/1/5 1135/1/5
f 1137/1/5 1132/1/5 1131/1/5
f 1138/1/5 1134/1/5 1133/1/5
f 1139/1/5 1134/1/5 1138/1/5
f 1140/1/5 1132/1/5 1137/1/5
f 1141/1/5 1132/1/5 1140/1/5
f 1146/2/5 1143/2/5 1142/2/5
f 1151/2/5 1145/2/5 1144/2/5
f 1153/2/5 1146/2/5 1142/2/5
f 1153/2/5 1147/2/5 1146/2/5
f 1154/2/5 1147/2/5 1153/2/5
f 1155/2/5 1147/2/5 1154/2/5
f 1156/1/5 1149/1/5 1148/1/5
f 1157/1/5 1149/1/5 1156/1/5
f 1158/2/5 1151/2/5 1150/2/5
f 1159/2/5 1145/2/5 1151/2/5
f 1159/2/5 1151/2/5 1158/2/5
f 1160/2/5 1145/2/5 1159/2/5
f 1163/2/5 1153/2/5 1152/2/5
f 1164/2/5 1153/2/5 1163/2/5
f 1165/1/5 1155/1/5 1154/1/5
f 1166/2/5 1161/2/5 1160/2/5
f 1168/1/5 1155/1/5 1165/1/5
f 1169/1/5 1155/1/5 1168/1/5
f 1170/1/5 1159/1/5 1158/1/5
f 1171/1/5 1159/1/5 1170/1/5
f 1172/2/5 1164/2/5 1163/2/5
f 1172/2/5 1163/2/5 1162/2/5
f 1173/2/5 1167/2/5 1166/2/5
f 1173/2/5 1166/2/5 1160/2/5
f 1174/2/5 1172/2/5 1162/2/5
f 1175/2/5 1172/2/5 1174/2/5
f 1176/2/5 1167/2/5 1173/2/5
f 1177/2/5 1167/2/5 1176/2/5
f 1178/2/5 1172/2/5 1175/2/5
f 1179/2/5 1172/2/5 1178/2/5
f 1180/2/5 1176/2/5 1173/2/5
f 1181/2/5 1176/2/5 1180/2/5
f 1185/1/5 1183/1/5 1182/1/5
f 1186/1/5 1183/1/5 1185/1/5
f 1188/1/5 1185/1/5 1184/1/5
f 1189/1/5 1185/1/5 1188/1/5
f 1190/1/5 1187/1/5 1186/1/5
f 1191/1/5 1187/1/5 1190/1/5
f 1196/1/5 1193/1/5 1192/1/5
f 1197/1/5 1193/1/5 1196/1/5
f 1202/1/5 1195/1/5 1194/1/5
f 1203/1/5 1195/1/5 1202/1/5
f 1204/1/5 1199/1/5 1198/1/5
f 1205/1/5 1199/1/5 1204/1/5
f 1206/1/5 1201/1/5 1200/1/5
f 1207/1/5 1201/1/5 1206/1/5
f 1212/1/5 1209/1/5 1208/1/5
f 1213/1/5 1209/1/5 1212/1/5
f 1214/1/5 1211/1/5 1210/1/5
f 1215/1/5 1211/1/5 1214/1/5
f 1220/1/5 1217/1/5 1216/1/5
f 1221/1/5 1217/1/5 1220/1/5
f 1222/1/5 1219/1/5 1218/1/5
f 1223/1/5 1219/1/5 1222/1/5
f 1228/1/5 1225/1/5 1224/1/5
f 1229/1/5 1225/1/5 1228/1/5
f 1230/1/5 1227/1/5 1226/1/5
f 1231/1/5 1227/1/5 1230/1/5
f 1236/1/5 1233/1/5 1232/1/5
f 1237/1/5 1233/1/5 1236/1/5
f 1238/1/5 1235/1/5 1234/1/5
f 1239/1/5 1235/1/5 1238/1/5
f 1240/2/6 1241/2/6 1243/2/6
f 1243/2/6 1241/2/6 1244/2/6
f 1242/2/6 1243/2/6 1246/2/6
f 1244/2/6 1245/2/6 1246/2/6
f 1243/2/6 1244/2/6 1246/2/6
f 1246/2/6 1245/2/6 1247/2/6
f 1242/2/6 1246/2/6 1249/2/6
f 1249/2/6 1246/2/6 1250/2/6
f 1247/2/6 1245/2/6 1251/2/6
f 1251/2/6 1245/2/6 1252/2/6
f 1248/2/6 1249/2/6 1255/2/6
f 1252/2/6 1253/2/6 1256/2/6
f 1254/2/6 1255/2/6 1258/2/6
f 1255/2/6 1249/2/6 1258/2/6
f 1258/2/6 1249/2/6 1259/2/6
f 1256/2/6 1257/2/6 1260/2/6
f 1252/2/6 1256/2/6 1260/2/6
f 1260/2/6 1257/2/6 1261/2/6
f 1254/2/6 1258/2/6 1262/2/6
f 1261/2/6 1257/2/6 1265/2/6
f 1262/2/6 1263/2/6 1266/2/6
f 1254/2/6 1262/2/6 1266/2/6
f 1266/2/6 1263/2/6 1267/2/6
f 1264/2/6 1265/2/6 1268/2/6
f 1265/2/6 1257/2/6 1268/2/6
f 1268/2/6 1257/2/6 1269/2/6
f 1267/2/6 1263/2/6 1270/2/6
f 1270/2/6 1263/2/6 1271/2/6
f 1264/2/6 1268/2/6 1274/2/6
f 1274/2/6 1268/2/6 1275/2/6
f 1271/2/6 1272/2/6 1276/2/6
f 1273/2/6 1274/2/6 1277/2/6
f 1271/2/6 1276/2/6 1278/2/6
f 1276/2/6 1277/2/6 1278/2/6
f 1278/2/6 1277/2/6 1279/2/6
f 1277/2/6 1274/2/6 1280/2/6
f 1279/2/6 1277/2/6 1280/2/6
f 1280/2/6 1274/2/6 1281/2/6
f 1279/2/6 1280/2/6 1282/2/6
f 1282/2/6 1280/2/6 1283/2/6
f 1284/1/6 1285/1/6 1288/1/6
f 1288/1/6 1285/1/6 1289/1/6
f 1286/1/6 1287/1/6 1290/1/6
f 1290/1/6 1287/1/6 1291/1/6
f 1292/1/6 1293/1/6 1295/1/6
f 1295/1/6 1293/1/6 1296/1/6
f 1295/1/6 1296/1/6 1298/1/6
f 1296/1/6 1297/1/6 1298/1/6
f 1294/1/6 1295/1/6 1298/1/6
f 1298/1/6 1297/1/6 1299/1/6
f 1299/1/6 1297/1/6 1300/1/6
f 1300/1/6 1297/1/6 1301/1/6
f 1299/1/6 1300/1/6 1302/1/6
f 1302/1/6 1300/1/6 1303/1/6
f 1303/1/6 1300/1/6 1304/1/6
f 1304/1/6 1300/1/6 1305/1/6
f 1303/1/6 1304/1/6 1306/1/6
f 1306/1/6 1304/1/6 1307/1/6
f 1307/1/6 1304/1/6 1308/1/6
f 1308/1/6 1304/1/6 1309/1/6
f 1307/1/6 1308/1/6 1310/1/6
f 1310/1/6 1308/1/6 1311/1/6
f 1311/1/6 1308/1/6 1312/1/6
f 1312/1/6 1308/1/6 1313/1/6
f 1311/1/6 1312/1/6 1314/1/6
f 1314/1/6 1312/1/6 1315/1/6
f 1316/1/6 1317/1/6 1318/1/6
f 1318/1/6 1317/1/6 1319/1/6
f 1322/1/6 1323/1/6 1326/1/6
f 1326/1/6 1323/1/6 1327/1/6
f 1324/1/6 1325/1/6 1328/1/6
f 1328/1/6 1325/1/6 1329/1/6
f 1320/1/6 1321/1/6 1330/1/6
f 1330/1/6 1321/1/6 1331/1/6
f 1332/1/6 1333/1/6 1336/1/6
f 1334/1/6 1335/1/6 1339/1/6
f 1336/1/6 1337/1/6 1341/1/6
f 1332/1/6 1336/1/6 1341/1/6
f 1341/1/6 1337/1/6 1342/1/6
f 1342/1/6 1337/1/6 1343/1/6
f 1338/1/6 1339/1/6 1344/1/6
f 1339/1/6 1335/1/6 1345/1/6
f 1344/1/6 1339/1/6 1345/1/6
f 1345/1/6 1335/1/6 1346/1/6
f 1340/1/6 1341/1/6 1349/1/6
f 1346/1/6 1347/1/6 1354/1/6
f 1348/1/6 1349/1/6 1357/1/6
f 1350/1/6 1351/1/6 1358/1/6
f 1358/1/6 1351/1/6 1359/1/6
f 1352/1/6 1353/1/6 1360/1/6
f 1360/1/6 1353/1/6 1361/1/6
f 1354/1/6 1355/1/6 1362/1/6
f 1356/1/6 1357/1/6 1364/1/6
f 1357/1/6 1349/1/6 1365/1/6
f 1364/1/6 1357/1/6 1365/1/6
f 1349/1/6 1341/1/6 1366/1/6
f 1365/1/6 1349/1/6 1366/1/6
f 1362/1/6 1363/1/6 1369/1/6
f 1354/1/6 1362/1/6 1369/1/6
f 1346/1/6 1354/1/6 1369/1/6
f 1369/1/6 1363/1/6 1370/1/6
f 1370/1/6 1363/1/6 1371/1/6
f 1366/1/6 1367/1/6 1372/1/6
f 1365/1/6 1366/1/6 1372/1/6
f 1372/1/6 1367/1/6 1373/1/6
f 1373/1/6 1367/1/6 1374/1/6
f 1374/1/6 1367/1/6 1375/1/6
f 1369/1/6 1370/1/6 1376/1/6
f 1368/1/6 1369/1/6 1376/1/6
f 1376/1/6 1370/1/6 1377/1/6
f 1377/1/6 1370/1/6 1378/1/6
f 1378/1/6 1370/1/6 1379/1/6
f 1373/1/6 1374/1/6 1380/1/6
f 1380/1/6 1374/1/6 1381/1/6
f 1377/1/6 1378/1/6 1382/1/6
f 1382/1/6 1378/1/6 1383/1/6
f 1384/1/6 1385/1/6 1386/1/6
f 1386/1/6 1385/1/6 1387/1/6
f 1388/1/6 1389/1/6 1392/1/6
f 1392/1/6 1389/1/6 1393/1/6
f 1390/1/6 1391/1/6 1394/1/6
f 1394/1/6 1391/1/6 1395/1/6
f 1396/1/6 1397/1/6 1400/1/6
f 1400/1/6 1397/1/6 1401/1/6
f 1398/1/6 1399/1/6 1402/1/6
f 1402/1/6 1399/1/6 1403/1/6
f 1404/1/6 1405/1/6 1408/1/6
f 1406/1/6 1407/1/6 1408/1/6
f 1405/1/6 1406/1/6 1408/1/6
f 1408/1/6 1407/1/6 1409/1/6
f 1410/1/6 1411/1/6 1414/1/6
f 1414/1/6 1411/1/6 1415/1/6
f 1412/1/6 1413/1/6 1416/1/6
f 1416/1/6 1413/1/6 1417/1/6
f 1418/1/6 1419/1/6 1420/1/6
f 1420/1/6 1419/1/6 1421/1/6
