# MagicaVoxel @ Ephtracy

# group
o 

# material
mtllib Spilled_Beaker.vox.mtl
usemtl palette

# normals
vn -1 0 0
vn 1 0 0
vn 0 0 1
vn 0 0 -1
vn 0 -1 0
vn 0 1 0

# texcoords
vt 0.896484 0.5
vt 0.919922 0.5

# verts
v -0.8 0 -0.1
v -0.8 0 -0.2
v -0.8 0.1 -0.1
v -0.8 0.1 -0.2
v -0.7 0 0.5
v -0.7 0 0.2
v -0.7 0 0
v -0.7 0 -0.1
v -0.7 0 -0.2
v -0.7 0 -0.3
v -0.7 0.1 0.5
v -0.7 0.1 0.2
v -0.7 0.1 0
v -0.7 0.1 -0.1
v -0.7 0.1 -0.2
v -0.7 0.1 -0.3
v -0.6 0 0.2
v -0.6 0 0
v -0.6 0.1 0.2
v -0.6 0.1 0
v -0.5 0 -0.3
v -0.5 0 -0.4
v -0.5 0.1 -0.3
v -0.5 0.1 -0.4
v -0.4 0 -0.4
v -0.4 0 -0.5
v -0.4 0.1 -0.4
v -0.4 0.1 -0.5
v -0.2 0 0.2
v -0.2 0 0.1
v -0.2 0.1 0.3
v -0.2 0.1 0.2
v -0.2 0.1 0.1
v -0.2 0.2 0.4
v -0.2 0.2 0.3
v -0.2 0.2 0.2
v -0.2 0.5 0.4
v -0.2 0.5 0.3
v -0.2 0.5 0.2
v -0.2 0.6 0.3
v -0.2 0.6 0.2
v -0.1 0 0.3
v -0.1 0 0.2
v -0.1 0.1 0.4
v -0.1 0.1 0.3
v -0.1 0.1 0.2
v -0.1 0.1 0
v -0.1 0.1 -0.1
v -0.1 0.2 0.5
v -0.1 0.2 0.4
v -0.1 0.2 0.3
v -0.1 0.2 0.2
v -0.1 0.2 0
v -0.1 0.2 -0.1
v -0.1 0.2 -0.2
v -0.1 0.5 0.5
v -0.1 0.5 0.4
v -0.1 0.5 0.3
v -0.1 0.5 0
v -0.1 0.5 -0.1
v -0.1 0.5 -0.2
v -0.1 0.6 0.4
v -0.1 0.6 0.3
v -0.1 0.6 0.2
v -0.1 0.6 0
v -0.1 0.7 0.3
v -0.1 0.7 -0.1
v 0 0.1 0.3
v 0 0.1 0.2
v 0 0.2 0.3
v 0 0.2 0.2
v 0.1 0.1 0.1
v 0.1 0.1 0
v 0.1 0.2 0.1
v 0.1 0.2 0
v 0.2 0 0.4
v 0.2 0 0.3
v 0.2 0.1 0.5
v 0.2 0.1 0.4
v 0.2 0.1 0.3
v 0.2 0.2 0.6
v 0.2 0.2 0.5
v 0.2 0.2 0.4
v 0.2 0.5 0.6
v 0.2 0.5 0.5
v 0.2 0.5 0.4
v 0.2 0.5 0.1
v 0.2 0.5 0
v 0.2 0.6 0.5
v 0.2 0.6 0.4
v 0.2 0.6 0.3
v 0.2 0.6 0.1
v 0.2 0.6 0
v 0.2 0.7 0.4
v 0.2 0.7 0.3
v 0.3 0.2 0.4
v 0.3 0.2 0.3
v 0.3 0.2 0.2
v 0.3 0.2 0.1
v 0.3 0.2 0
v 0.3 0.2 -0.1
v 0.3 0.3 0.4
v 0.3 0.3 0.3
v 0.3 0.3 0.2
v 0.3 0.3 0.1
v 0.3 0.5 0
v 0.3 0.5 -0.1
v 0.4 0.1 0.6
v 0.4 0.1 0.5
v 0.4 0.2 0.7
v 0.4 0.2 0.6
v 0.4 0.2 0.5
v 0.4 0.2 0.4
v 0.4 0.3 0.5
v 0.4 0.3 0.4
v 0.4 0.5 0.7
v 0.4 0.5 0.6
v 0.4 0.5 0.5
v 0.4 0.6 0.6
v 0.4 0.6 0.5
v 0.5 0 0.5
v 0.5 0 0.4
v 0.5 0.1 0.5
v 0.5 0.1 0.4
v 0.5 0.2 0.4
v 0.5 0.2 0.2
v 0.5 0.2 0.1
v 0.5 0.2 0
v 0.5 0.3 0.4
v 0.5 0.3 0.2
v 0.5 0.3 0.1
v 0.5 0.5 0.2
v 0.5 0.5 0.1
v 0.5 0.5 0
v 0.5 0.6 0.5
v 0.5 0.6 0.4
v 0.5 0.6 0.2
v 0.5 0.6 0.1
v 0.5 0.7 0.5
v 0.5 0.7 0.4
v 0.6 0.2 0.6
v 0.6 0.2 0.5
v 0.6 0.3 0.6
v 0.6 0.3 0.5
v 0.6 0.3 0.4
v 0.6 0.3 0.3
v 0.6 0.4 0.4
v 0.6 0.4 0.3
v 0.7 0 0.6
v 0.7 0 0.5
v 0.7 0.1 0.6
v 0.7 0.1 0.5
v 0.7 0.3 0.6
v 0.7 0.3 0.4
v 0.7 0.3 0.3
v 0.7 0.3 0.1
v 0.7 0.4 0.4
v 0.7 0.4 0.3
v 0.7 0.5 0.6
v 0.7 0.5 0.5
v 0.7 0.5 0.2
v 0.7 0.5 0.1
v 0.7 0.6 0.6
v 0.7 0.6 0.5
v 0.7 0.6 0.2
v 0.7 0.7 0.6
v 0.7 0.7 0.5
v -0.6 0 0.5
v -0.6 0 0.4
v -0.6 0.1 0.5
v -0.6 0.1 0.4
v -0.4 0 0.4
v -0.4 0 0.3
v -0.4 0.1 0.4
v -0.4 0.1 0.3
v -0.3 0 0.3
v -0.3 0 0.1
v -0.3 0 -0.3
v -0.3 0 -0.5
v -0.3 0.1 0.3
v -0.3 0.1 0.1
v -0.3 0.1 -0.3
v -0.3 0.1 -0.5
v -0.2 0 -0.2
v -0.2 0 -0.3
v -0.2 0.1 -0.2
v -0.2 0.1 -0.3
v -0.1 0 -0.1
v -0.1 0 -0.2
v -0.1 0.1 0.3
v -0.1 0.1 0.2
v -0.1 0.1 -0.1
v -0.1 0.1 -0.2
v -0.1 0.2 0.4
v -0.1 0.2 0.3
v -0.1 0.2 0.2
v -0.1 0.5 0.4
v -0.1 0.5 0.3
v -0.1 0.5 0.2
v -0.1 0.6 0.3
v -0.1 0.6 0.2
v 0 0 0
v 0 0 -0.1
v 0 0.1 0.1
v 0 0.1 0
v 0 0.1 -0.1
v 0 0.2 0.1
v 0 0.2 0
v 0 0.6 0
v 0 0.6 -0.1
v 0 0.7 0
v 0 0.7 -0.1
v 0.2 0 0.1
v 0.2 0 0
v 0.2 0.1 0.1
v 0.2 0.1 0
v 0.2 0.2 0.5
v 0.2 0.2 0.4
v 0.2 0.5 0.5
v 0.2 0.5 0.4
v 0.2 0.5 0.3
v 0.2 0.6 0.4
v 0.2 0.6 0.3
v 0.2 0.6 0.1
v 0.2 0.6 0
v 0.2 0.7 0.1
v 0.2 0.7 0
v 0.3 0.1 0
v 0.3 0.1 -0.1
v 0.3 0.2 0
v 0.3 0.2 -0.1
v 0.3 0.2 -0.2
v 0.3 0.5 0
v 0.3 0.5 -0.1
v 0.3 0.5 -0.2
v 0.3 0.6 0
v 0.3 0.6 -0.1
v 0.4 0.2 0.6
v 0.4 0.2 0.5
v 0.4 0.2 0.4
v 0.4 0.2 0.3
v 0.4 0.3 0.5
v 0.4 0.3 0.4
v 0.4 0.3 0.3
v 0.4 0.5 0.6
v 0.4 0.5 0.5
v 0.5 0 0.2
v 0.5 0 0.1
v 0.5 0.1 0.2
v 0.5 0.1 0.1
v 0.5 0.1 0
v 0.5 0.2 0.1
v 0.5 0.2 0
v 0.5 0.2 -0.1
v 0.5 0.5 0.5
v 0.5 0.5 0.4
v 0.5 0.5 0.1
v 0.5 0.5 0
v 0.5 0.5 -0.1
v 0.5 0.6 0.5
v 0.5 0.6 0.4
v 0.5 0.6 0.2
v 0.5 0.6 0.1
v 0.5 0.6 0
v 0.5 0.7 0.2
v 0.5 0.7 0.1
v 0.8 0 0.6
v 0.8 0 0.2
v 0.8 0.1 0.2
v 0.8 0.1 0.1
v 0.8 0.2 0.7
v 0.8 0.2 0.6
v 0.8 0.2 0.1
v 0.8 0.2 0
v 0.8 0.5 0.7
v 0.8 0.5 0.6
v 0.8 0.5 0.1
v 0.8 0.5 0
v 0.8 0.6 0.2
v 0.8 0.6 0.1
v 0.8 0.7 0.6
v 0.8 0.7 0.2
v 0.4 0.2 0.7
v 0.4 0.5 0.7
v 0.8 0.2 0.7
v 0.8 0.5 0.7
v 0.2 0.2 0.6
v 0.2 0.5 0.6
v 0.4 0.1 0.6
v 0.4 0.2 0.6
v 0.4 0.5 0.6
v 0.4 0.6 0.6
v 0.7 0 0.6
v 0.7 0.1 0.6
v 0.7 0.6 0.6
v 0.7 0.7 0.6
v 0.8 0 0.6
v 0.8 0.2 0.6
v 0.8 0.5 0.6
v 0.8 0.7 0.6
v -0.7 0 0.5
v -0.7 0.1 0.5
v -0.6 0 0.5
v -0.6 0.1 0.5
v -0.1 0.2 0.5
v -0.1 0.5 0.5
v 0.2 0.1 0.5
v 0.2 0.2 0.5
v 0.2 0.5 0.5
v 0.2 0.6 0.5
v 0.4 0.1 0.5
v 0.4 0.2 0.5
v 0.4 0.3 0.5
v 0.4 0.5 0.5
v 0.4 0.6 0.5
v 0.5 0 0.5
v 0.5 0.1 0.5
v 0.5 0.6 0.5
v 0.5 0.7 0.5
v 0.6 0.2 0.5
v 0.6 0.3 0.5
v 0.7 0 0.5
v 0.7 0.1 0.5
v 0.7 0.6 0.5
v 0.7 0.7 0.5
v -0.6 0 0.4
v -0.6 0.1 0.4
v -0.4 0 0.4
v -0.4 0.1 0.4
v -0.2 0.2 0.4
v -0.2 0.5 0.4
v -0.1 0.1 0.4
v -0.1 0.2 0.4
v -0.1 0.5 0.4
v -0.1 0.6 0.4
v 0.2 0 0.4
v 0.2 0.1 0.4
v 0.2 0.2 0.4
v 0.2 0.5 0.4
v 0.2 0.6 0.4
v 0.2 0.7 0.4
v 0.3 0.2 0.4
v 0.3 0.3 0.4
v 0.4 0.2 0.4
v 0.4 0.3 0.4
v 0.5 0 0.4
v 0.5 0.1 0.4
v 0.5 0.6 0.4
v 0.5 0.7 0.4
v 0.6 0.3 0.4
v 0.6 0.4 0.4
v 0.7 0.3 0.4
v 0.7 0.4 0.4
v -0.4 0 0.3
v -0.4 0.1 0.3
v -0.3 0 0.3
v -0.3 0.1 0.3
v -0.2 0.1 0.3
v -0.2 0.2 0.3
v -0.2 0.5 0.3
v -0.2 0.6 0.3
v -0.1 0 0.3
v -0.1 0.1 0.3
v -0.1 0.2 0.3
v -0.1 0.5 0.3
v -0.1 0.6 0.3
v -0.1 0.7 0.3
v 0.2 0 0.3
v 0.2 0.1 0.3
v 0.2 0.6 0.3
v 0.2 0.7 0.3
v -0.2 0 0.2
v -0.2 0.1 0.2
v -0.1 0 0.2
v -0.1 0.1 0.2
v -0.1 0.2 0.2
v 0 0.1 0.2
v 0 0.2 0.2
v 0.3 0.2 0.2
v 0.3 0.3 0.2
v 0.5 0.2 0.2
v 0.5 0.3 0.2
v 0.5 0.5 0.2
v 0.5 0.6 0.2
v 0.7 0.5 0.2
v 0.7 0.6 0.2
v -0.3 0 0.1
v -0.3 0.1 0.1
v -0.2 0 0.1
v -0.2 0.1 0.1
v 0.2 0.5 0.1
v 0.2 0.6 0.1
v 0.5 0.3 0.1
v 0.5 0.5 0.1
v 0.5 0.6 0.1
v 0.7 0.3 0.1
v 0.7 0.5 0.1
v -0.7 0 0
v -0.7 0.1 0
v -0.6 0 0
v -0.6 0.1 0
v -0.1 0.5 0
v -0.1 0.6 0
v 0 0.1 0
v 0 0.2 0
v 0.1 0.1 0
v 0.1 0.2 0
v 0.2 0.5 0
v 0.2 0.6 0
v 0.3 0.2 0
v 0.3 0.5 0
v 0.5 0.2 0
v 0.5 0.5 0
v -0.8 0 -0.1
v -0.8 0.1 -0.1
v -0.7 0 -0.1
v -0.7 0.1 -0.1
v -0.1 0.2 -0.1
v -0.1 0.5 -0.1
v 0.3 0.2 -0.1
v 0.3 0.5 -0.1
v 0.4 0.2 0.6
v 0.4 0.5 0.6
v 0.6 0.2 0.6
v 0.6 0.3 0.6
v 0.7 0.3 0.6
v 0.7 0.5 0.6
v 0.2 0.2 0.5
v 0.2 0.5 0.5
v 0.4 0.2 0.5
v 0.4 0.3 0.5
v 0.4 0.5 0.5
v 0.5 0.5 0.5
v 0.5 0.6 0.5
v 0.7 0.5 0.5
v 0.7 0.6 0.5
v -0.1 0.2 0.4
v -0.1 0.5 0.4
v 0.2 0.2 0.4
v 0.2 0.5 0.4
v 0.2 0.6 0.4
v 0.4 0.2 0.4
v 0.4 0.3 0.4
v 0.5 0.2 0.4
v 0.5 0.3 0.4
v 0.5 0.5 0.4
v 0.5 0.6 0.4
v -0.2 0.2 0.3
v -0.2 0.5 0.3
v -0.1 0.1 0.3
v -0.1 0.2 0.3
v -0.1 0.5 0.3
v -0.1 0.6 0.3
v 0 0.1 0.3
v 0 0.2 0.3
v 0.2 0.5 0.3
v 0.2 0.6 0.3
v 0.3 0.2 0.3
v 0.3 0.3 0.3
v 0.4 0.2 0.3
v 0.4 0.3 0.3
v 0.6 0.3 0.3
v 0.6 0.4 0.3
v 0.7 0.3 0.3
v 0.7 0.4 0.3
v -0.7 0 0.2
v -0.7 0.1 0.2
v -0.6 0 0.2
v -0.6 0.1 0.2
v -0.2 0.1 0.2
v -0.2 0.2 0.2
v -0.2 0.5 0.2
v -0.2 0.6 0.2
v -0.1 0.1 0.2
v -0.1 0.2 0.2
v -0.1 0.5 0.2
v -0.1 0.6 0.2
v 0.5 0 0.2
v 0.5 0.1 0.2
v 0.5 0.6 0.2
v 0.5 0.7 0.2
v 0.8 0 0.2
v 0.8 0.1 0.2
v 0.8 0.6 0.2
v 0.8 0.7 0.2
v 0 0.1 0.1
v 0 0.2 0.1
v 0.1 0.1 0.1
v 0.1 0.2 0.1
v 0.2 0 0.1
v 0.2 0.1 0.1
v 0.2 0.6 0.1
v 0.2 0.7 0.1
v 0.3 0.2 0.1
v 0.3 0.3 0.1
v 0.5 0 0.1
v 0.5 0.1 0.1
v 0.5 0.2 0.1
v 0.5 0.3 0.1
v 0.5 0.5 0.1
v 0.5 0.6 0.1
v 0.5 0.7 0.1
v 0.8 0.1 0.1
v 0.8 0.2 0.1
v 0.8 0.5 0.1
v 0.8 0.6 0.1
v 0 0 0
v 0 0.1 0
v 0 0.6 0
v 0 0.7 0
v 0.2 0 0
v 0.2 0.1 0
v 0.2 0.6 0
v 0.2 0.7 0
v 0.3 0.1 0
v 0.3 0.2 0
v 0.3 0.5 0
v 0.3 0.6 0
v 0.5 0.1 0
v 0.5 0.2 0
v 0.5 0.5 0
v 0.5 0.6 0
v 0.8 0.2 0
v 0.8 0.5 0
v -0.1 0 -0.1
v -0.1 0.1 -0.1
v -0.1 0.2 -0.1
v -0.1 0.5 -0.1
v -0.1 0.7 -0.1
v 0 0 -0.1
v 0 0.1 -0.1
v 0 0.6 -0.1
v 0 0.7 -0.1
v 0.3 0.1 -0.1
v 0.3 0.2 -0.1
v 0.3 0.5 -0.1
v 0.3 0.6 -0.1
v 0.5 0.2 -0.1
v 0.5 0.5 -0.1
v -0.8 0 -0.2
v -0.8 0.1 -0.2
v -0.7 0 -0.2
v -0.7 0.1 -0.2
v -0.2 0 -0.2
v -0.2 0.1 -0.2
v -0.1 0 -0.2
v -0.1 0.1 -0.2
v -0.1 0.2 -0.2
v -0.1 0.5 -0.2
v 0.3 0.2 -0.2
v 0.3 0.5 -0.2
v -0.7 0 -0.3
v -0.7 0.1 -0.3
v -0.5 0 -0.3
v -0.5 0.1 -0.3
v -0.3 0 -0.3
v -0.3 0.1 -0.3
v -0.2 0 -0.3
v -0.2 0.1 -0.3
v -0.5 0 -0.4
v -0.5 0.1 -0.4
v -0.4 0 -0.4
v -0.4 0.1 -0.4
v -0.4 0 -0.5
v -0.4 0.1 -0.5
v -0.3 0 -0.5
v -0.3 0.1 -0.5
v 0.7 0 0.6
v 0.8 0 0.6
v -0.7 0 0.5
v -0.6 0 0.5
v 0.5 0 0.5
v 0.7 0 0.5
v -0.6 0 0.4
v -0.4 0 0.4
v 0.2 0 0.4
v 0.5 0 0.4
v -0.4 0 0.3
v -0.3 0 0.3
v -0.1 0 0.3
v 0.2 0 0.3
v -0.7 0 0.2
v -0.6 0 0.2
v -0.2 0 0.2
v -0.1 0 0.2
v 0.5 0 0.2
v 0.8 0 0.2
v -0.3 0 0.1
v -0.2 0 0.1
v 0.2 0 0.1
v 0.5 0 0.1
v -0.7 0 0
v -0.6 0 0
v 0 0 0
v 0.2 0 0
v -0.8 0 -0.1
v -0.7 0 -0.1
v -0.1 0 -0.1
v 0 0 -0.1
v -0.8 0 -0.2
v -0.7 0 -0.2
v -0.2 0 -0.2
v -0.1 0 -0.2
v -0.7 0 -0.3
v -0.5 0 -0.3
v -0.3 0 -0.3
v -0.2 0 -0.3
v -0.5 0 -0.4
v -0.4 0 -0.4
v -0.4 0 -0.5
v -0.3 0 -0.5
v 0.4 0.1 0.6
v 0.7 0.1 0.6
v 0.2 0.1 0.5
v 0.4 0.1 0.5
v 0.5 0.1 0.5
v 0.7 0.1 0.5
v -0.1 0.1 0.4
v 0.2 0.1 0.4
v 0.5 0.1 0.4
v -0.2 0.1 0.3
v -0.1 0.1 0.3
v 0.2 0.1 0.3
v -0.2 0.1 0.2
v -0.1 0.1 0.2
v 0.5 0.1 0.2
v 0.8 0.1 0.2
v 0.2 0.1 0.1
v 0.5 0.1 0.1
v 0.8 0.1 0.1
v 0 0.1 0
v 0.2 0.1 0
v 0.3 0.1 0
v 0.5 0.1 0
v 0 0.1 -0.1
v 0.3 0.1 -0.1
v 0.4 0.2 0.7
v 0.8 0.2 0.7
v 0.2 0.2 0.6
v 0.4 0.2 0.6
v 0.8 0.2 0.6
v -0.1 0.2 0.5
v 0.2 0.2 0.5
v 0.4 0.2 0.5
v -0.2 0.2 0.4
v -0.1 0.2 0.4
v 0.2 0.2 0.4
v -0.2 0.2 0.3
v -0.1 0.2 0.3
v 0.5 0.2 0.1
v 0.8 0.2 0.1
v 0.3 0.2 0
v 0.5 0.2 0
v 0.8 0.2 0
v -0.1 0.2 -0.1
v 0.3 0.2 -0.1
v 0.5 0.2 -0.1
v -0.1 0.2 -0.2
v 0.3 0.2 -0.2
v 0.4 0.5 0.6
v 0.7 0.5 0.6
v 0.2 0.5 0.5
v 0.4 0.5 0.5
v 0.5 0.5 0.5
v 0.7 0.5 0.5
v -0.1 0.5 0.4
v 0.2 0.5 0.4
v 0.5 0.5 0.4
v -0.2 0.5 0.3
v -0.1 0.5 0.3
v 0.2 0.5 0.3
v -0.2 0.5 0.2
v -0.1 0.5 0.2
v 0.5 0.5 0.2
v 0.7 0.5 0.2
v 0.2 0.5 0.1
v 0.5 0.5 0.1
v 0.7 0.5 0.1
v -0.1 0.5 0
v 0.2 0.5 0
v 0.3 0.5 0
v 0.5 0.5 0
v -0.1 0.5 -0.1
v 0.3 0.5 -0.1
v 0.5 0.6 0.5
v 0.7 0.6 0.5
v 0.2 0.6 0.4
v 0.5 0.6 0.4
v -0.1 0.6 0.3
v 0.2 0.6 0.3
v -0.1 0.6 0.2
v 0.5 0.6 0.2
v 0.7 0.6 0.2
v 0.2 0.6 0.1
v 0.5 0.6 0.1
v -0.1 0.6 0
v 0.2 0.6 0
v -0.7 0.1 0.5
v -0.6 0.1 0.5
v -0.6 0.1 0.4
v -0.4 0.1 0.4
v -0.4 0.1 0.3
v -0.3 0.1 0.3
v -0.1 0.1 0.3
v 0 0.1 0.3
v -0.7 0.1 0.2
v -0.6 0.1 0.2
v -0.2 0.1 0.2
v -0.1 0.1 0.2
v 0 0.1 0.2
v -0.3 0.1 0.1
v -0.2 0.1 0.1
v 0 0.1 0.1
v 0.1 0.1 0.1
v -0.7 0.1 0
v -0.6 0.1 0
v -0.1 0.1 0
v 0 0.1 0
v 0.1 0.1 0
v -0.8 0.1 -0.1
v -0.7 0.1 -0.1
v -0.1 0.1 -0.1
v -0.8 0.1 -0.2
v -0.7 0.1 -0.2
v -0.2 0.1 -0.2
v -0.1 0.1 -0.2
v -0.7 0.1 -0.3
v -0.5 0.1 -0.3
v -0.3 0.1 -0.3
v -0.2 0.1 -0.3
v -0.5 0.1 -0.4
v -0.4 0.1 -0.4
v -0.4 0.1 -0.5
v -0.3 0.1 -0.5
v 0.4 0.2 0.6
v 0.6 0.2 0.6
v 0.2 0.2 0.5
v 0.4 0.2 0.5
v 0.6 0.2 0.5
v -0.1 0.2 0.4
v 0.2 0.2 0.4
v 0.3 0.2 0.4
v 0.4 0.2 0.4
v 0.5 0.2 0.4
v -0.2 0.2 0.3
v -0.1 0.2 0.3
v 0 0.2 0.3
v 0.2 0.2 0.3
v 0.3 0.2 0.3
v 0.4 0.2 0.3
v -0.2 0.2 0.2
v -0.1 0.2 0.2
v 0 0.2 0.2
v 0.3 0.2 0.2
v 0.5 0.2 0.2
v 0 0.2 0.1
v 0.1 0.2 0.1
v 0.2 0.2 0.1
v 0.3 0.2 0.1
v 0.5 0.2 0.1
v -0.1 0.2 0
v 0 0.2 0
v 0.1 0.2 0
v 0.2 0.2 0
v 0.3 0.2 0
v 0.5 0.2 0
v -0.1 0.2 -0.1
v 0.3 0.2 -0.1
v 0.6 0.3 0.6
v 0.7 0.3 0.6
v 0.4 0.3 0.5
v 0.6 0.3 0.5
v 0.3 0.3 0.4
v 0.4 0.3 0.4
v 0.5 0.3 0.4
v 0.6 0.3 0.4
v 0.7 0.3 0.4
v 0.3 0.3 0.3
v 0.4 0.3 0.3
v 0.6 0.3 0.3
v 0.7 0.3 0.3
v 0.3 0.3 0.2
v 0.5 0.3 0.2
v 0.3 0.3 0.1
v 0.5 0.3 0.1
v 0.7 0.3 0.1
v 0.6 0.4 0.4
v 0.7 0.4 0.4
v 0.6 0.4 0.3
v 0.7 0.4 0.3
v 0.4 0.5 0.7
v 0.8 0.5 0.7
v 0.2 0.5 0.6
v 0.4 0.5 0.6
v 0.8 0.5 0.6
v -0.1 0.5 0.5
v 0.2 0.5 0.5
v 0.4 0.5 0.5
v -0.2 0.5 0.4
v -0.1 0.5 0.4
v 0.2 0.5 0.4
v -0.2 0.5 0.3
v -0.1 0.5 0.3
v 0.5 0.5 0.1
v 0.8 0.5 0.1
v 0.3 0.5 0
v 0.5 0.5 0
v 0.8 0.5 0
v -0.1 0.5 -0.1
v 0.3 0.5 -0.1
v 0.5 0.5 -0.1
v -0.1 0.5 -0.2
v 0.3 0.5 -0.2
v 0.4 0.6 0.6
v 0.7 0.6 0.6
v 0.2 0.6 0.5
v 0.4 0.6 0.5
v 0.5 0.6 0.5
v 0.7 0.6 0.5
v -0.1 0.6 0.4
v 0.2 0.6 0.4
v 0.5 0.6 0.4
v -0.2 0.6 0.3
v -0.1 0.6 0.3
v 0.2 0.6 0.3
v -0.2 0.6 0.2
v -0.1 0.6 0.2
v 0.5 0.6 0.2
v 0.8 0.6 0.2
v 0.2 0.6 0.1
v 0.5 0.6 0.1
v 0.8 0.6 0.1
v 0 0.6 0
v 0.2 0.6 0
v 0.3 0.6 0
v 0.5 0.6 0
v 0 0.6 -0.1
v 0.3 0.6 -0.1
v 0.7 0.7 0.6
v 0.8 0.7 0.6
v 0.5 0.7 0.5
v 0.7 0.7 0.5
v 0.2 0.7 0.4
v 0.5 0.7 0.4
v -0.1 0.7 0.3
v 0.2 0.7 0.3
v 0.5 0.7 0.2
v 0.8 0.7 0.2
v 0.2 0.7 0.1
v 0.5 0.7 0.1
v 0 0.7 0
v 0.2 0.7 0
v -0.1 0.7 -0.1
v 0 0.7 -0.1

# faces
f 3/1/1 2/1/1 1/1/1
f 4/1/1 2/1/1 3/1/1
f 11/1/1 6/1/1 5/1/1
f 12/1/1 6/1/1 11/1/1
f 13/1/1 8/1/1 7/1/1
f 14/1/1 8/1/1 13/1/1
f 15/1/1 10/1/1 9/1/1
f 16/1/1 10/1/1 15/1/1
f 19/1/1 18/1/1 17/1/1
f 20/1/1 18/1/1 19/1/1
f 23/1/1 22/1/1 21/1/1
f 24/1/1 22/1/1 23/1/1
f 27/1/1 26/1/1 25/1/1
f 28/1/1 26/1/1 27/1/1
f 32/1/1 30/1/1 29/1/1
f 33/1/1 30/1/1 32/1/1
f 35/2/1 32/2/1 31/2/1
f 36/2/1 32/2/1 35/2/1
f 37/2/1 35/2/1 34/2/1
f 38/2/1 35/2/1 37/2/1
f 40/2/1 39/2/1 38/2/1
f 41/2/1 39/2/1 40/2/1
f 45/2/1 43/2/1 42/2/1
f 46/2/1 43/2/1 45/2/1
f 50/2/1 45/2/1 44/2/1
f 51/2/1 45/2/1 50/2/1
f 52/1/1 47/1/1 46/1/1
f 53/2/1 48/2/1 47/2/1
f 53/1/1 47/1/1 52/1/1
f 54/2/1 48/2/1 53/2/1
f 56/2/1 50/2/1 49/2/1
f 57/2/1 50/2/1 56/2/1
f 60/2/1 55/2/1 54/2/1
f 61/2/1 55/2/1 60/2/1
f 62/2/1 58/2/1 57/2/1
f 63/2/1 58/2/1 62/2/1
f 65/2/1 60/2/1 59/2/1
f 66/2/1 64/2/1 63/2/1
f 66/2/1 65/2/1 64/2/1
f 67/2/1 60/2/1 65/2/1
f 67/2/1 65/2/1 66/2/1
f 70/1/1 69/1/1 68/1/1
f 71/1/1 69/1/1 70/1/1
f 74/1/1 73/1/1 72/1/1
f 75/1/1 73/1/1 74/1/1
f 79/2/1 77/2/1 76/2/1
f 80/2/1 77/2/1 79/2/1
f 82/2/1 79/2/1 78/2/1
f 83/2/1 79/2/1 82/2/1
f 84/2/1 82/2/1 81/2/1
f 85/2/1 82/2/1 84/2/1
f 89/2/1 86/2/1 85/2/1
f 90/2/1 86/2/1 89/2/1
f 92/2/1 88/2/1 87/2/1
f 93/2/1 88/2/1 92/2/1
f 94/2/1 91/2/1 90/2/1
f 95/2/1 91/2/1 94/2/1
f 102/1/1 97/1/1 96/1/1
f 103/1/1 97/1/1 102/1/1
f 104/1/1 99/1/1 98/1/1
f 105/1/1 99/1/1 104/1/1
f 106/2/1 101/2/1 100/2/1
f 107/2/1 101/2/1 106/2/1
f 111/2/1 109/2/1 108/2/1
f 112/2/1 109/2/1 111/2/1
f 114/1/1 113/1/1 112/1/1
f 115/1/1 113/1/1 114/1/1
f 116/2/1 111/2/1 110/2/1
f 117/2/1 111/2/1 116/2/1
f 119/2/1 118/2/1 117/2/1
f 120/2/1 118/2/1 119/2/1
f 123/2/1 122/2/1 121/2/1
f 124/2/1 122/2/1 123/2/1
f 129/1/1 126/1/1 125/1/1
f 130/1/1 126/1/1 129/1/1
f 131/2/1 128/2/1 127/2/1
f 133/2/1 128/2/1 131/2/1
f 134/2/1 128/2/1 133/2/1
f 137/2/1 133/2/1 132/2/1
f 138/2/1 133/2/1 137/2/1
f 139/2/1 136/2/1 135/2/1
f 140/2/1 136/2/1 139/2/1
f 143/1/1 142/1/1 141/1/1
f 144/1/1 142/1/1 143/1/1
f 147/1/1 146/1/1 145/1/1
f 148/1/1 146/1/1 147/1/1
f 151/2/1 150/2/1 149/2/1
f 152/2/1 150/2/1 151/2/1
f 157/2/1 154/2/1 153/2/1
f 158/2/1 156/2/1 155/2/1
f 159/2/1 157/2/1 153/2/1
f 159/2/1 158/2/1 157/2/1
f 160/2/1 158/2/1 159/2/1
f 161/2/1 156/2/1 158/2/1
f 161/2/1 158/2/1 160/2/1
f 162/2/1 156/2/1 161/2/1
f 164/2/1 161/2/1 160/2/1
f 165/2/1 161/2/1 164/2/1
f 166/2/1 164/2/1 163/2/1
f 167/2/1 164/2/1 166/2/1
f 168/1/2 169/1/2 170/1/2
f 170/1/2 169/1/2 171/1/2
f 172/1/2 173/1/2 174/1/2
f 174/1/2 173/1/2 175/1/2
f 176/1/2 177/1/2 180/1/2
f 180/1/2 177/1/2 181/1/2
f 178/1/2 179/1/2 182/1/2
f 182/1/2 179/1/2 183/1/2
f 184/1/2 185/1/2 186/1/2
f 186/1/2 185/1/2 187/1/2
f 188/1/2 189/1/2 192/1/2
f 192/1/2 189/1/2 193/1/2
f 190/2/2 191/2/2 195/2/2
f 195/2/2 191/2/2 196/2/2
f 194/2/2 195/2/2 197/2/2
f 197/2/2 195/2/2 198/2/2
f 198/2/2 199/2/2 200/2/2
f 200/2/2 199/2/2 201/2/2
f 202/2/2 203/2/2 205/2/2
f 205/2/2 203/2/2 206/2/2
f 204/1/2 205/1/2 207/1/2
f 207/1/2 205/1/2 208/1/2
f 209/2/2 210/2/2 211/2/2
f 211/2/2 210/2/2 212/2/2
f 213/2/2 214/2/2 215/2/2
f 215/2/2 214/2/2 216/2/2
f 217/2/2 218/2/2 219/2/2
f 219/2/2 218/2/2 220/2/2
f 220/2/2 221/2/2 222/2/2
f 222/2/2 221/2/2 223/2/2
f 224/2/2 225/2/2 226/2/2
f 226/2/2 225/2/2 227/2/2
f 228/2/2 229/2/2 230/2/2
f 230/2/2 229/2/2 231/2/2
f 231/2/2 232/2/2 234/2/2
f 234/2/2 232/2/2 235/2/2
f 233/2/2 234/2/2 236/2/2
f 236/2/2 234/2/2 237/2/2
f 238/2/2 239/2/2 242/2/2
f 240/1/2 241/1/2 243/1/2
f 243/1/2 241/1/2 244/1/2
f 238/2/2 242/2/2 245/2/2
f 245/2/2 242/2/2 246/2/2
f 247/2/2 248/2/2 249/2/2
f 249/2/2 248/2/2 250/2/2
f 250/2/2 251/2/2 252/2/2
f 252/2/2 251/2/2 253/2/2
f 253/2/2 254/2/2 258/2/2
f 258/2/2 254/2/2 259/2/2
f 255/2/2 256/2/2 260/2/2
f 260/2/2 256/2/2 261/2/2
f 257/2/2 258/2/2 263/2/2
f 263/2/2 258/2/2 264/2/2
f 262/2/2 263/2/2 265/2/2
f 265/2/2 263/2/2 266/2/2
f 267/2/2 268/2/2 269/2/2
f 267/2/2 269/2/2 272/2/2
f 269/2/2 270/2/2 272/2/2
f 272/2/2 270/2/2 273/2/2
f 271/2/2 272/2/2 275/2/2
f 273/2/2 274/2/2 275/2/2
f 272/2/2 273/2/2 275/2/2
f 275/2/2 274/2/2 276/2/2
f 276/2/2 274/2/2 277/2/2
f 277/2/2 274/2/2 278/2/2
f 276/2/2 277/2/2 279/2/2
f 279/2/2 277/2/2 280/2/2
f 276/2/2 279/2/2 281/2/2
f 281/2/2 279/2/2 282/2/2
f 285/2/3 284/2/3 283/2/3
f 286/2/3 284/2/3 285/2/3
f 290/2/3 288/2/3 287/2/3
f 291/2/3 288/2/3 290/2/3
f 294/2/3 290/2/3 289/2/3
f 295/2/3 292/2/3 291/2/3
f 297/2/3 294/2/3 293/2/3
f 298/2/3 290/2/3 294/2/3
f 298/2/3 294/2/3 297/2/3
f 299/2/3 296/2/3 295/2/3
f 299/2/3 295/2/3 291/2/3
f 300/2/3 296/2/3 299/2/3
f 303/1/3 302/1/3 301/1/3
f 304/1/3 302/1/3 303/1/3
f 308/2/3 306/2/3 305/2/3
f 309/2/3 306/2/3 308/2/3
f 311/2/3 308/2/3 307/2/3
f 312/2/3 308/2/3 311/2/3
f 314/2/3 310/2/3 309/2/3
f 315/2/3 310/2/3 314/2/3
f 320/1/3 313/1/3 312/1/3
f 321/1/3 313/1/3 320/1/3
f 322/2/3 317/2/3 316/2/3
f 323/2/3 317/2/3 322/2/3
f 324/2/3 319/2/3 318/2/3
f 325/2/3 319/2/3 324/2/3
f 328/1/3 327/1/3 326/1/3
f 329/1/3 327/1/3 328/1/3
f 333/2/3 331/2/3 330/2/3
f 334/2/3 331/2/3 333/2/3
f 337/2/3 333/2/3 332/2/3
f 338/2/3 333/2/3 337/2/3
f 339/2/3 335/2/3 334/2/3
f 340/2/3 335/2/3 339/2/3
f 344/1/3 343/1/3 342/1/3
f 345/1/3 343/1/3 344/1/3
f 346/2/3 337/2/3 336/2/3
f 347/2/3 337/2/3 346/2/3
f 348/2/3 341/2/3 340/2/3
f 349/2/3 341/2/3 348/2/3
f 352/1/3 351/1/3 350/1/3
f 353/1/3 351/1/3 352/1/3
f 356/1/3 355/1/3 354/1/3
f 357/1/3 355/1/3 356/1/3
f 363/2/3 359/2/3 358/2/3
f 364/2/3 359/2/3 363/2/3
f 365/2/3 361/2/3 360/2/3
f 366/2/3 361/2/3 365/2/3
f 368/2/3 363/2/3 362/2/3
f 369/2/3 363/2/3 368/2/3
f 370/2/3 367/2/3 366/2/3
f 371/2/3 367/2/3 370/2/3
f 374/1/3 373/1/3 372/1/3
f 375/1/3 373/1/3 374/1/3
f 377/1/3 376/1/3 375/1/3
f 378/1/3 376/1/3 377/1/3
f 381/1/3 380/1/3 379/1/3
f 382/1/3 380/1/3 381/1/3
f 385/2/3 384/2/3 383/2/3
f 386/2/3 384/2/3 385/2/3
f 389/1/3 388/1/3 387/1/3
f 390/1/3 388/1/3 389/1/3
f 394/2/3 392/2/3 391/2/3
f 395/2/3 392/2/3 394/2/3
f 396/2/3 394/2/3 393/2/3
f 397/2/3 394/2/3 396/2/3
f 400/1/3 399/1/3 398/1/3
f 401/1/3 399/1/3 400/1/3
f 406/2/3 405/2/3 404/2/3
f 407/2/3 405/2/3 406/2/3
f 408/2/3 403/2/3 402/2/3
f 409/2/3 403/2/3 408/2/3
f 412/2/3 411/2/3 410/2/3
f 413/2/3 411/2/3 412/2/3
f 416/1/3 415/1/3 414/1/3
f 417/1/3 415/1/3 416/1/3
f 420/2/3 419/2/3 418/2/3
f 421/2/3 419/2/3 420/2/3
f 422/2/4 423/2/4 424/2/4
f 424/2/4 423/2/4 425/2/4
f 425/2/4 423/2/4 426/2/4
f 426/2/4 423/2/4 427/2/4
f 428/2/4 429/2/4 430/2/4
f 430/2/4 429/2/4 431/2/4
f 431/2/4 429/2/4 432/2/4
f 433/2/4 434/2/4 435/2/4
f 435/2/4 434/2/4 436/2/4
f 437/2/4 438/2/4 439/2/4
f 439/2/4 438/2/4 440/2/4
f 442/1/4 443/1/4 444/1/4
f 444/1/4 443/1/4 445/1/4
f 440/2/4 441/2/4 446/2/4
f 446/2/4 441/2/4 447/2/4
f 448/2/4 449/2/4 451/2/4
f 451/2/4 449/2/4 452/2/4
f 450/2/4 451/2/4 454/2/4
f 454/2/4 451/2/4 455/2/4
f 452/2/4 453/2/4 456/2/4
f 456/2/4 453/2/4 457/2/4
f 458/1/4 459/1/4 460/1/4
f 460/1/4 459/1/4 461/1/4
f 462/1/4 463/1/4 464/1/4
f 464/1/4 463/1/4 465/1/4
f 466/1/4 467/1/4 468/1/4
f 468/1/4 467/1/4 469/1/4
f 470/2/4 471/2/4 474/2/4
f 474/2/4 471/2/4 475/2/4
f 472/2/4 473/2/4 476/2/4
f 476/2/4 473/2/4 477/2/4
f 478/2/4 479/2/4 482/2/4
f 482/2/4 479/2/4 483/2/4
f 480/2/4 481/2/4 484/2/4
f 484/2/4 481/2/4 485/2/4
f 486/1/4 487/1/4 488/1/4
f 488/1/4 487/1/4 489/1/4
f 490/2/4 491/2/4 496/2/4
f 496/2/4 491/2/4 497/2/4
f 494/1/4 495/1/4 498/1/4
f 498/1/4 495/1/4 499/1/4
f 492/2/4 493/2/4 501/2/4
f 501/2/4 493/2/4 502/2/4
f 497/2/4 498/2/4 503/2/4
f 503/2/4 498/2/4 504/2/4
f 500/2/4 501/2/4 505/2/4
f 505/2/4 501/2/4 506/2/4
f 507/2/4 508/2/4 511/2/4
f 511/2/4 508/2/4 512/2/4
f 509/2/4 510/2/4 513/2/4
f 513/2/4 510/2/4 514/2/4
f 515/2/4 516/2/4 519/2/4
f 519/2/4 516/2/4 520/2/4
f 517/2/4 518/2/4 521/2/4
f 521/2/4 518/2/4 522/2/4
f 520/2/4 521/2/4 523/2/4
f 523/2/4 521/2/4 524/2/4
f 525/2/4 526/2/4 530/2/4
f 526/2/4 527/2/4 530/2/4
f 530/2/4 527/2/4 531/2/4
f 528/2/4 529/2/4 532/2/4
f 532/2/4 529/2/4 533/2/4
f 531/2/4 527/2/4 534/2/4
f 534/2/4 527/2/4 535/2/4
f 528/2/4 532/2/4 536/2/4
f 536/2/4 532/2/4 537/2/4
f 535/2/4 536/2/4 538/2/4
f 538/2/4 536/2/4 539/2/4
f 540/1/4 541/1/4 542/1/4
f 542/1/4 541/1/4 543/1/4
f 544/1/4 545/1/4 546/1/4
f 546/1/4 545/1/4 547/1/4
f 548/2/4 549/2/4 550/2/4
f 550/2/4 549/2/4 551/2/4
f 552/1/4 553/1/4 554/1/4
f 554/1/4 553/1/4 555/1/4
f 556/1/4 557/1/4 558/1/4
f 558/1/4 557/1/4 559/1/4
f 560/1/4 561/1/4 562/1/4
f 562/1/4 561/1/4 563/1/4
f 564/1/4 565/1/4 566/1/4
f 566/1/4 565/1/4 567/1/4
f 573/2/5 569/2/5 568/2/5
f 574/1/5 571/1/5 570/1/5
f 577/2/5 573/2/5 572/2/5
f 578/1/5 575/1/5 574/1/5
f 581/2/5 577/2/5 576/2/5
f 582/1/5 579/1/5 578/1/5
f 582/1/5 574/1/5 570/1/5
f 582/1/5 578/1/5 574/1/5
f 583/1/5 579/1/5 582/1/5
f 585/2/5 581/2/5 580/2/5
f 586/2/5 577/2/5 581/2/5
f 586/2/5 573/2/5 577/2/5
f 586/2/5 581/2/5 585/2/5
f 587/2/5 569/2/5 573/2/5
f 587/2/5 573/2/5 586/2/5
f 588/1/5 579/1/5 583/1/5
f 589/1/5 585/1/5 584/1/5
f 590/2/5 586/2/5 585/2/5
f 591/2/5 586/2/5 590/2/5
f 593/1/5 589/1/5 588/1/5
f 593/1/5 588/1/5 583/1/5
f 594/2/5 590/2/5 585/2/5
f 595/2/5 590/2/5 594/2/5
f 597/1/5 593/1/5 592/1/5
f 598/1/5 585/1/5 589/1/5
f 598/1/5 589/1/5 593/1/5
f 598/1/5 593/1/5 597/1/5
f 598/2/5 594/2/5 585/2/5
f 599/2/5 594/2/5 598/2/5
f 600/1/5 597/1/5 596/1/5
f 600/1/5 598/1/5 597/1/5
f 601/1/5 598/1/5 600/1/5
f 602/1/5 598/1/5 601/1/5
f 603/1/5 598/1/5 602/1/5
f 604/1/5 602/1/5 601/1/5
f 605/1/5 602/1/5 604/1/5
f 606/1/5 602/1/5 605/1/5
f 607/1/5 602/1/5 606/1/5
f 608/1/5 606/1/5 605/1/5
f 609/1/5 606/1/5 608/1/5
f 610/1/5 606/1/5 609/1/5
f 611/1/5 606/1/5 610/1/5
f 615/2/5 613/2/5 612/2/5
f 616/2/5 613/2/5 615/2/5
f 617/2/5 613/2/5 616/2/5
f 619/2/5 615/2/5 614/2/5
f 619/2/5 616/2/5 615/2/5
f 620/2/5 616/2/5 619/2/5
f 622/2/5 619/2/5 618/2/5
f 623/2/5 619/2/5 622/2/5
f 624/2/5 622/2/5 621/2/5
f 625/2/5 622/2/5 624/2/5
f 629/2/5 627/2/5 626/2/5
f 630/2/5 627/2/5 629/2/5
f 632/2/5 629/2/5 628/2/5
f 633/2/5 629/2/5 632/2/5
f 634/2/5 629/2/5 633/2/5
f 635/2/5 632/2/5 631/2/5
f 635/2/5 633/2/5 632/2/5
f 636/2/5 633/2/5 635/2/5
f 640/2/5 638/2/5 637/2/5
f 641/2/5 638/2/5 640/2/5
f 643/2/5 640/2/5 639/2/5
f 644/2/5 640/2/5 643/2/5
f 646/2/5 643/2/5 642/2/5
f 647/2/5 643/2/5 646/2/5
f 648/2/5 646/2/5 645/2/5
f 649/2/5 646/2/5 648/2/5
f 653/2/5 651/2/5 650/2/5
f 654/2/5 651/2/5 653/2/5
f 656/2/5 653/2/5 652/2/5
f 657/2/5 653/2/5 656/2/5
f 658/2/5 656/2/5 655/2/5
f 659/2/5 656/2/5 658/2/5
f 663/2/5 661/2/5 660/2/5
f 664/2/5 661/2/5 663/2/5
f 665/2/5 661/2/5 664/2/5
f 667/2/5 663/2/5 662/2/5
f 667/2/5 664/2/5 663/2/5
f 668/2/5 664/2/5 667/2/5
f 670/2/5 667/2/5 666/2/5
f 671/2/5 667/2/5 670/2/5
f 672/2/5 670/2/5 669/2/5
f 673/2/5 670/2/5 672/2/5
f 677/2/5 675/2/5 674/2/5
f 678/2/5 675/2/5 677/2/5
f 680/2/5 677/2/5 676/2/5
f 681/2/5 677/2/5 680/2/5
f 682/2/5 677/2/5 681/2/5
f 683/2/5 680/2/5 679/2/5
f 683/2/5 681/2/5 680/2/5
f 684/2/5 681/2/5 683/2/5
f 688/2/5 686/2/5 685/2/5
f 690/2/5 688/2/5 687/2/5
f 691/2/5 690/2/5 689/2/5
f 692/2/5 686/2/5 688/2/5
f 692/2/5 690/2/5 691/2/5
f 692/2/5 688/2/5 690/2/5
f 693/2/5 686/2/5 692/2/5
f 694/2/5 692/2/5 691/2/5
f 695/2/5 692/2/5 694/2/5
f 696/2/5 694/2/5 691/2/5
f 697/2/5 694/2/5 696/2/5
f 698/1/6 699/1/6 700/1/6
f 700/1/6 701/1/6 702/1/6
f 698/1/6 700/1/6 706/1/6
f 700/1/6 702/1/6 706/1/6
f 702/1/6 703/1/6 706/1/6
f 706/1/6 703/1/6 707/1/6
f 704/2/6 705/2/6 709/2/6
f 709/2/6 705/2/6 710/2/6
f 707/1/6 703/1/6 711/1/6
f 708/1/6 709/1/6 712/1/6
f 711/1/6 712/1/6 716/1/6
f 707/1/6 711/1/6 716/1/6
f 712/1/6 709/1/6 717/1/6
f 716/1/6 712/1/6 717/1/6
f 713/2/6 714/2/6 718/2/6
f 718/2/6 714/2/6 719/2/6
f 716/1/6 717/1/6 721/1/6
f 715/1/6 716/1/6 721/1/6
f 721/1/6 717/1/6 722/1/6
f 720/1/6 721/1/6 723/1/6
f 721/1/6 722/1/6 723/1/6
f 723/1/6 722/1/6 724/1/6
f 724/1/6 722/1/6 725/1/6
f 725/1/6 722/1/6 726/1/6
f 724/1/6 725/1/6 727/1/6
f 727/1/6 725/1/6 728/1/6
f 728/1/6 725/1/6 729/1/6
f 729/1/6 725/1/6 730/1/6
f 728/1/6 729/1/6 731/1/6
f 731/1/6 729/1/6 732/1/6
f 732/1/6 729/1/6 733/1/6
f 733/1/6 729/1/6 734/1/6
f 735/2/6 736/2/6 738/2/6
f 738/2/6 736/2/6 739/2/6
f 737/2/6 738/2/6 741/2/6
f 741/2/6 738/2/6 742/2/6
f 742/2/6 738/2/6 743/2/6
f 740/2/6 741/2/6 746/2/6
f 746/2/6 741/2/6 747/2/6
f 741/1/6 742/1/6 748/1/6
f 747/2/6 741/2/6 748/2/6
f 748/1/6 742/1/6 749/1/6
f 743/1/6 744/1/6 750/1/6
f 745/2/6 746/2/6 751/2/6
f 751/2/6 746/2/6 752/2/6
f 748/1/6 749/1/6 753/1/6
f 749/1/6 750/1/6 753/1/6
f 747/1/6 748/1/6 753/1/6
f 753/1/6 750/1/6 754/1/6
f 750/1/6 744/1/6 755/1/6
f 754/1/6 750/1/6 755/1/6
f 753/1/6 754/1/6 756/1/6
f 752/1/6 753/1/6 756/1/6
f 756/1/6 754/1/6 757/1/6
f 757/1/6 754/1/6 758/1/6
f 758/1/6 754/1/6 759/1/6
f 752/1/6 756/1/6 761/1/6
f 761/1/6 756/1/6 762/1/6
f 757/1/6 758/1/6 763/1/6
f 759/2/6 760/2/6 764/2/6
f 758/2/6 759/2/6 764/2/6
f 763/1/6 758/1/6 764/1/6
f 764/2/6 760/2/6 765/2/6
f 765/2/6 760/2/6 766/2/6
f 762/2/6 763/2/6 767/2/6
f 761/2/6 762/2/6 767/2/6
f 764/2/6 765/2/6 767/2/6
f 763/2/6 764/2/6 767/2/6
f 767/2/6 765/2/6 768/2/6
f 769/1/6 770/1/6 772/1/6
f 771/1/6 772/1/6 774/1/6
f 774/1/6 772/1/6 775/1/6
f 772/1/6 770/1/6 776/1/6
f 775/1/6 772/1/6 776/1/6
f 776/1/6 770/1/6 777/1/6
f 773/1/6 774/1/6 778/1/6
f 778/1/6 774/1/6 779/1/6
f 775/1/6 776/1/6 780/1/6
f 780/1/6 781/1/6 783/1/6
f 775/1/6 780/1/6 783/1/6
f 782/1/6 783/1/6 784/1/6
f 783/1/6 781/1/6 785/1/6
f 784/1/6 783/1/6 785/1/6
f 785/1/6 781/1/6 786/1/6
f 787/1/6 788/1/6 789/1/6
f 789/1/6 788/1/6 790/1/6
f 791/2/6 792/2/6 794/2/6
f 794/2/6 792/2/6 795/2/6
f 793/2/6 794/2/6 797/2/6
f 797/2/6 794/2/6 798/2/6
f 796/2/6 797/2/6 800/2/6
f 800/2/6 797/2/6 801/2/6
f 799/2/6 800/2/6 802/2/6
f 802/2/6 800/2/6 803/2/6
f 804/2/6 805/2/6 807/2/6
f 807/2/6 805/2/6 808/2/6
f 806/2/6 807/2/6 810/2/6
f 810/2/6 807/2/6 811/2/6
f 809/2/6 810/2/6 812/2/6
f 812/2/6 810/2/6 813/2/6
f 814/2/6 815/2/6 817/2/6
f 817/2/6 815/2/6 818/2/6
f 818/2/6 815/2/6 819/2/6
f 816/2/6 817/2/6 821/2/6
f 817/2/6 818/2/6 821/2/6
f 821/2/6 818/2/6 822/2/6
f 820/2/6 821/2/6 824/2/6
f 824/2/6 821/2/6 825/2/6
f 823/2/6 824/2/6 826/2/6
f 826/2/6 824/2/6 827/2/6
f 828/2/6 829/2/6 831/2/6
f 831/2/6 829/2/6 832/2/6
f 830/2/6 831/2/6 834/2/6
f 834/2/6 831/2/6 835/2/6
f 835/2/6 831/2/6 836/2/6
f 833/2/6 834/2/6 837/2/6
f 834/2/6 835/2/6 837/2/6
f 837/2/6 835/2/6 838/2/6
f 839/2/6 840/2/6 842/2/6
f 841/2/6 842/2/6 844/2/6
f 843/2/6 844/2/6 846/2/6
f 844/2/6 842/2/6 847/2/6
f 845/2/6 846/2/6 847/2/6
f 846/2/6 844/2/6 847/2/6
f 842/2/6 840/2/6 848/2/6
f 847/2/6 842/2/6 848/2/6
f 845/2/6 847/2/6 849/2/6
f 849/2/6 847/2/6 850/2/6
f 845/2/6 849/2/6 851/2/6
f 851/2/6 849/2/6 852/2/6
f 845/2/6 851/2/6 853/2/6
f 853/2/6 851/2/6 854/2/6
