# MagicaVoxel @ Ephtracy

# group
o 

# material
mtllib Surgery_Tools_Cart.vox.mtl
usemtl palette

# normals
vn -1 0 0
vn 1 0 0
vn 0 0 1
vn 0 0 -1
vn 0 -1 0
vn 0 1 0

# texcoords
vt 0.923828 0.5
vt 0.951172 0.5
vt 0.990234 0.5

# verts
v -0.5 0 0.8
v -0.5 0 0.6
v -0.5 0 -0.5
v -0.5 0 -0.7
v -0.5 0.1 0.9
v -0.5 0.1 0.8
v -0.5 0.1 0.6
v -0.5 0.1 0.5
v -0.5 0.1 -0.4
v -0.5 0.1 -0.5
v -0.5 0.1 -0.7
v -0.5 0.1 -0.8
v -0.5 0.3 0.9
v -0.5 0.3 0.8
v -0.5 0.3 0.6
v -0.5 0.3 0.5
v -0.5 0.3 -0.4
v -0.5 0.3 -0.5
v -0.5 0.3 -0.7
v -0.5 0.3 -0.8
v -0.5 0.4 0.8
v -0.5 0.4 0.6
v -0.5 0.4 -0.5
v -0.5 0.4 -0.7
v -0.4 0.2 0.5
v -0.4 0.2 -0.4
v -0.4 0.3 0.6
v -0.4 0.3 0.5
v -0.4 0.3 0.1
v -0.4 0.3 0
v -0.4 0.3 -0.4
v -0.4 0.3 -0.5
v -0.4 0.4 0.7
v -0.4 0.4 0.6
v -0.4 0.4 -0.5
v -0.4 0.4 -0.6
v -0.4 0.6 0.3
v -0.4 0.6 0.2
v -0.4 0.6 -0.1
v -0.4 0.6 -0.2
v -0.4 0.8 0.3
v -0.4 0.8 0.2
v -0.4 0.8 -0.1
v -0.4 0.8 -0.2
v -0.4 1 0.1
v -0.4 1 0
v -0.4 1.1 1
v -0.4 1.1 0.9
v -0.4 1.1 0.7
v -0.4 1.1 -0.6
v -0.4 1.1 -0.8
v -0.4 1.1 -0.9
v -0.4 1.2 1
v -0.4 1.2 0.9
v -0.4 1.2 -0.8
v -0.4 1.2 -0.9
v -0.3 0.2 0.8
v -0.3 0.2 0.7
v -0.3 0.2 -0.6
v -0.3 0.2 -0.7
v -0.3 1.1 0.8
v -0.3 1.1 0.7
v -0.3 1.1 -0.6
v -0.3 1.1 -0.7
v -0.2 1 0.9
v -0.2 1 0.8
v -0.2 1 -0.7
v -0.2 1 -0.8
v -0.2 1.1 0.9
v -0.2 1.1 0.8
v -0.2 1.1 -0.7
v -0.2 1.1 -0.8
v 0.1 1 0.9
v 0.1 1 0.8
v 0.1 1 -0.7
v 0.1 1 -0.8
v 0.1 1.1 0.9
v 0.1 1.1 0.8
v 0.1 1.1 -0.7
v 0.1 1.1 -0.8
v 0.4 0 0.8
v 0.4 0 0.6
v 0.4 0 -0.5
v 0.4 0 -0.7
v 0.4 0.1 0.9
v 0.4 0.1 0.8
v 0.4 0.1 0.6
v 0.4 0.1 0.5
v 0.4 0.1 -0.4
v 0.4 0.1 -0.5
v 0.4 0.1 -0.7
v 0.4 0.1 -0.8
v 0.4 0.2 0.7
v 0.4 0.2 0.5
v 0.4 0.2 -0.4
v 0.4 0.2 -0.6
v 0.4 0.3 0.9
v 0.4 0.3 0.8
v 0.4 0.3 -0.7
v 0.4 0.3 -0.8
v 0.4 0.4 0.8
v 0.4 0.4 0.7
v 0.4 0.4 -0.6
v 0.4 0.4 -0.7
v -0.4 0 0.8
v -0.4 0 0.6
v -0.4 0 -0.5
v -0.4 0 -0.7
v -0.4 0.1 0.9
v -0.4 0.1 0.8
v -0.4 0.1 0.6
v -0.4 0.1 0.5
v -0.4 0.1 -0.4
v -0.4 0.1 -0.5
v -0.4 0.1 -0.7
v -0.4 0.1 -0.8
v -0.4 0.2 0.7
v -0.4 0.2 0.5
v -0.4 0.2 -0.4
v -0.4 0.2 -0.6
v -0.4 0.3 0.9
v -0.4 0.3 0.8
v -0.4 0.3 -0.7
v -0.4 0.3 -0.8
v -0.4 0.4 0.8
v -0.4 0.4 0.7
v -0.4 0.4 -0.6
v -0.4 0.4 -0.7
v -0.1 1 0.9
v -0.1 1 0.8
v -0.1 1 -0.7
v -0.1 1 -0.8
v -0.1 1.1 0.9
v -0.1 1.1 0.8
v -0.1 1.1 -0.7
v -0.1 1.1 -0.8
v 0.2 1 0.9
v 0.2 1 0.8
v 0.2 1 -0.7
v 0.2 1 -0.8
v 0.2 1.1 0.9
v 0.2 1.1 0.8
v 0.2 1.1 -0.7
v 0.2 1.1 -0.8
v 0.3 0.2 0.8
v 0.3 0.2 0.7
v 0.3 0.2 -0.6
v 0.3 0.2 -0.7
v 0.3 1.1 0.8
v 0.3 1.1 0.7
v 0.3 1.1 -0.6
v 0.3 1.1 -0.7
v 0.4 0.2 0.5
v 0.4 0.2 -0.4
v 0.4 0.3 0.6
v 0.4 0.3 0.5
v 0.4 0.3 0.1
v 0.4 0.3 0
v 0.4 0.3 -0.4
v 0.4 0.3 -0.5
v 0.4 0.4 0.7
v 0.4 0.4 0.6
v 0.4 0.4 -0.5
v 0.4 0.4 -0.6
v 0.4 0.6 0.3
v 0.4 0.6 0.2
v 0.4 0.6 -0.1
v 0.4 0.6 -0.2
v 0.4 0.8 0.3
v 0.4 0.8 0.2
v 0.4 0.8 -0.1
v 0.4 0.8 -0.2
v 0.4 1 0.1
v 0.4 1 0
v 0.4 1.1 1
v 0.4 1.1 0.9
v 0.4 1.1 0.7
v 0.4 1.1 -0.6
v 0.4 1.1 -0.8
v 0.4 1.1 -0.9
v 0.4 1.2 1
v 0.4 1.2 0.9
v 0.4 1.2 -0.8
v 0.4 1.2 -0.9
v 0.5 0 0.8
v 0.5 0 0.6
v 0.5 0 -0.5
v 0.5 0 -0.7
v 0.5 0.1 0.9
v 0.5 0.1 0.8
v 0.5 0.1 0.6
v 0.5 0.1 0.5
v 0.5 0.1 -0.4
v 0.5 0.1 -0.5
v 0.5 0.1 -0.7
v 0.5 0.1 -0.8
v 0.5 0.3 0.9
v 0.5 0.3 0.8
v 0.5 0.3 0.6
v 0.5 0.3 0.5
v 0.5 0.3 -0.4
v 0.5 0.3 -0.5
v 0.5 0.3 -0.7
v 0.5 0.3 -0.8
v 0.5 0.4 0.8
v 0.5 0.4 0.6
v 0.5 0.4 -0.5
v 0.5 0.4 -0.7
v -0.4 1.1 1
v -0.4 1.2 1
v 0.4 1.1 1
v 0.4 1.2 1
v -0.5 0.1 0.9
v -0.5 0.3 0.9
v -0.4 0.1 0.9
v -0.4 0.3 0.9
v -0.2 1 0.9
v -0.2 1.1 0.9
v -0.1 1 0.9
v -0.1 1.1 0.9
v 0.1 1 0.9
v 0.1 1.1 0.9
v 0.2 1 0.9
v 0.2 1.1 0.9
v 0.4 0.1 0.9
v 0.4 0.3 0.9
v 0.5 0.1 0.9
v 0.5 0.3 0.9
v -0.5 0 0.8
v -0.5 0.1 0.8
v -0.5 0.3 0.8
v -0.5 0.4 0.8
v -0.4 0 0.8
v -0.4 0.1 0.8
v -0.4 0.3 0.8
v -0.4 0.4 0.8
v -0.3 0.2 0.8
v -0.3 1.1 0.8
v -0.2 1 0.8
v -0.2 1.1 0.8
v -0.1 1 0.8
v -0.1 1.1 0.8
v 0.1 1 0.8
v 0.1 1.1 0.8
v 0.2 1 0.8
v 0.2 1.1 0.8
v 0.3 0.2 0.8
v 0.3 1.1 0.8
v 0.4 0 0.8
v 0.4 0.1 0.8
v 0.4 0.3 0.8
v 0.4 0.4 0.8
v 0.5 0 0.8
v 0.5 0.1 0.8
v 0.5 0.3 0.8
v 0.5 0.4 0.8
v -0.4 0.2 0.7
v -0.4 0.4 0.7
v -0.4 1.1 0.7
v -0.3 0.2 0.7
v -0.3 1.1 0.7
v 0.3 0.2 0.7
v 0.3 1.1 0.7
v 0.4 0.2 0.7
v 0.4 0.4 0.7
v 0.4 1.1 0.7
v -0.5 0.1 -0.4
v -0.5 0.3 -0.4
v -0.4 0.1 -0.4
v -0.4 0.2 -0.4
v -0.4 0.3 -0.4
v 0.4 0.1 -0.4
v 0.4 0.2 -0.4
v 0.4 0.3 -0.4
v 0.5 0.1 -0.4
v 0.5 0.3 -0.4
v -0.5 0 -0.5
v -0.5 0.1 -0.5
v -0.5 0.3 -0.5
v -0.5 0.4 -0.5
v -0.4 0 -0.5
v -0.4 0.1 -0.5
v -0.4 0.3 -0.5
v -0.4 0.4 -0.5
v 0.4 0 -0.5
v 0.4 0.1 -0.5
v 0.4 0.3 -0.5
v 0.4 0.4 -0.5
v 0.5 0 -0.5
v 0.5 0.1 -0.5
v 0.5 0.3 -0.5
v 0.5 0.4 -0.5
v -0.4 1.1 -0.8
v -0.4 1.2 -0.8
v -0.2 1.1 -0.8
v -0.1 1.1 -0.8
v 0.1 1.1 -0.8
v 0.2 1.1 -0.8
v 0.4 1.1 -0.8
v 0.4 1.2 -0.8
v -0.4 1.1 0.9
v -0.4 1.2 0.9
v -0.2 1.1 0.9
v -0.1 1.1 0.9
v 0.1 1.1 0.9
v 0.2 1.1 0.9
v 0.4 1.1 0.9
v 0.4 1.2 0.9
v -0.5 0 0.6
v -0.5 0.1 0.6
v -0.5 0.3 0.6
v -0.5 0.4 0.6
v -0.4 0 0.6
v -0.4 0.1 0.6
v -0.4 0.3 0.6
v -0.4 0.4 0.6
v 0.4 0 0.6
v 0.4 0.1 0.6
v 0.4 0.3 0.6
v 0.4 0.4 0.6
v 0.5 0 0.6
v 0.5 0.1 0.6
v 0.5 0.3 0.6
v 0.5 0.4 0.6
v -0.5 0.1 0.5
v -0.5 0.3 0.5
v -0.4 0.1 0.5
v -0.4 0.2 0.5
v -0.4 0.3 0.5
v 0.4 0.1 0.5
v 0.4 0.2 0.5
v 0.4 0.3 0.5
v 0.5 0.1 0.5
v 0.5 0.3 0.5
v -0.4 0.2 -0.6
v -0.4 0.4 -0.6
v -0.4 1.1 -0.6
v -0.3 0.2 -0.6
v -0.3 1.1 -0.6
v 0.3 0.2 -0.6
v 0.3 1.1 -0.6
v 0.4 0.2 -0.6
v 0.4 0.4 -0.6
v 0.4 1.1 -0.6
v -0.5 0 -0.7
v -0.5 0.1 -0.7
v -0.5 0.3 -0.7
v -0.5 0.4 -0.7
v -0.4 0 -0.7
v -0.4 0.1 -0.7
v -0.4 0.3 -0.7
v -0.4 0.4 -0.7
v -0.3 0.2 -0.7
v -0.3 1.1 -0.7
v -0.2 1 -0.7
v -0.2 1.1 -0.7
v -0.1 1 -0.7
v -0.1 1.1 -0.7
v 0.1 1 -0.7
v 0.1 1.1 -0.7
v 0.2 1 -0.7
v 0.2 1.1 -0.7
v 0.3 0.2 -0.7
v 0.3 1.1 -0.7
v 0.4 0 -0.7
v 0.4 0.1 -0.7
v 0.4 0.3 -0.7
v 0.4 0.4 -0.7
v 0.5 0 -0.7
v 0.5 0.1 -0.7
v 0.5 0.3 -0.7
v 0.5 0.4 -0.7
v -0.5 0.1 -0.8
v -0.5 0.3 -0.8
v -0.4 0.1 -0.8
v -0.4 0.3 -0.8
v -0.2 1 -0.8
v -0.2 1.1 -0.8
v -0.1 1 -0.8
v -0.1 1.1 -0.8
v 0.1 1 -0.8
v 0.1 1.1 -0.8
v 0.2 1 -0.8
v 0.2 1.1 -0.8
v 0.4 0.1 -0.8
v 0.4 0.3 -0.8
v 0.5 0.1 -0.8
v 0.5 0.3 -0.8
v -0.4 1.1 -0.9
v -0.4 1.2 -0.9
v 0.4 1.1 -0.9
v 0.4 1.2 -0.9
v -0.5 0 0.8
v -0.4 0 0.8
v 0.4 0 0.8
v 0.5 0 0.8
v -0.5 0 0.6
v -0.4 0 0.6
v 0.4 0 0.6
v 0.5 0 0.6
v -0.5 0 -0.5
v -0.4 0 -0.5
v 0.4 0 -0.5
v 0.5 0 -0.5
v -0.5 0 -0.7
v -0.4 0 -0.7
v 0.4 0 -0.7
v 0.5 0 -0.7
v -0.5 0.1 0.9
v -0.4 0.1 0.9
v 0.4 0.1 0.9
v 0.5 0.1 0.9
v -0.5 0.1 0.8
v -0.4 0.1 0.8
v 0.4 0.1 0.8
v 0.5 0.1 0.8
v -0.5 0.1 0.6
v -0.4 0.1 0.6
v 0.4 0.1 0.6
v 0.5 0.1 0.6
v -0.5 0.1 0.5
v -0.4 0.1 0.5
v 0.4 0.1 0.5
v 0.5 0.1 0.5
v -0.5 0.1 -0.4
v -0.4 0.1 -0.4
v 0.4 0.1 -0.4
v 0.5 0.1 -0.4
v -0.5 0.1 -0.5
v -0.4 0.1 -0.5
v 0.4 0.1 -0.5
v 0.5 0.1 -0.5
v -0.5 0.1 -0.7
v -0.4 0.1 -0.7
v 0.4 0.1 -0.7
v 0.5 0.1 -0.7
v -0.5 0.1 -0.8
v -0.4 0.1 -0.8
v 0.4 0.1 -0.8
v 0.5 0.1 -0.8
v -0.3 0.2 0.8
v 0.3 0.2 0.8
v -0.4 0.2 0.7
v -0.3 0.2 0.7
v 0.3 0.2 0.7
v 0.4 0.2 0.7
v -0.4 0.2 0.5
v 0.4 0.2 0.5
v -0.4 0.2 -0.4
v 0.4 0.2 -0.4
v -0.4 0.2 -0.6
v -0.3 0.2 -0.6
v 0.3 0.2 -0.6
v 0.4 0.2 -0.6
v -0.3 0.2 -0.7
v 0.3 0.2 -0.7
v -0.2 1 0.9
v -0.1 1 0.9
v 0.1 1 0.9
v 0.2 1 0.9
v -0.2 1 0.8
v -0.1 1 0.8
v 0.1 1 0.8
v 0.2 1 0.8
v -0.2 1 -0.7
v -0.1 1 -0.7
v 0.1 1 -0.7
v 0.2 1 -0.7
v -0.2 1 -0.8
v -0.1 1 -0.8
v 0.1 1 -0.8
v 0.2 1 -0.8
v -0.4 1.1 1
v 0.4 1.1 1
v -0.4 1.1 0.9
v -0.2 1.1 0.9
v -0.1 1.1 0.9
v 0.1 1.1 0.9
v 0.2 1.1 0.9
v 0.4 1.1 0.9
v -0.4 1.1 -0.8
v -0.2 1.1 -0.8
v -0.1 1.1 -0.8
v 0.1 1.1 -0.8
v 0.2 1.1 -0.8
v 0.4 1.1 -0.8
v -0.4 1.1 -0.9
v 0.4 1.1 -0.9
v -0.5 0.3 0.9
v -0.4 0.3 0.9
v 0.4 0.3 0.9
v 0.5 0.3 0.9
v -0.5 0.3 0.8
v -0.4 0.3 0.8
v 0.4 0.3 0.8
v 0.5 0.3 0.8
v -0.5 0.3 0.6
v -0.4 0.3 0.6
v 0.4 0.3 0.6
v 0.5 0.3 0.6
v -0.5 0.3 0.5
v -0.4 0.3 0.5
v 0.4 0.3 0.5
v 0.5 0.3 0.5
v -0.5 0.3 -0.4
v -0.4 0.3 -0.4
v 0.4 0.3 -0.4
v 0.5 0.3 -0.4
v -0.5 0.3 -0.5
v -0.4 0.3 -0.5
v 0.4 0.3 -0.5
v 0.5 0.3 -0.5
v -0.5 0.3 -0.7
v -0.4 0.3 -0.7
v 0.4 0.3 -0.7
v 0.5 0.3 -0.7
v -0.5 0.3 -0.8
v -0.4 0.3 -0.8
v 0.4 0.3 -0.8
v 0.5 0.3 -0.8
v -0.5 0.4 0.8
v -0.4 0.4 0.8
v 0.4 0.4 0.8
v 0.5 0.4 0.8
v -0.4 0.4 0.7
v 0.4 0.4 0.7
v -0.5 0.4 0.6
v -0.4 0.4 0.6
v 0.4 0.4 0.6
v 0.5 0.4 0.6
v -0.5 0.4 -0.5
v -0.4 0.4 -0.5
v 0.4 0.4 -0.5
v 0.5 0.4 -0.5
v -0.4 0.4 -0.6
v 0.4 0.4 -0.6
v -0.5 0.4 -0.7
v -0.4 0.4 -0.7
v 0.4 0.4 -0.7
v 0.5 0.4 -0.7
v -0.2 1.1 0.9
v -0.1 1.1 0.9
v 0.1 1.1 0.9
v 0.2 1.1 0.9
v -0.3 1.1 0.8
v -0.2 1.1 0.8
v -0.1 1.1 0.8
v 0.1 1.1 0.8
v 0.2 1.1 0.8
v 0.3 1.1 0.8
v -0.4 1.1 0.7
v -0.3 1.1 0.7
v 0.3 1.1 0.7
v 0.4 1.1 0.7
v -0.4 1.1 -0.6
v -0.3 1.1 -0.6
v 0.3 1.1 -0.6
v 0.4 1.1 -0.6
v -0.3 1.1 -0.7
v -0.2 1.1 -0.7
v -0.1 1.1 -0.7
v 0.1 1.1 -0.7
v 0.2 1.1 -0.7
v 0.3 1.1 -0.7
v -0.2 1.1 -0.8
v -0.1 1.1 -0.8
v 0.1 1.1 -0.8
v 0.2 1.1 -0.8
v -0.4 1.2 1
v 0.4 1.2 1
v -0.4 1.2 0.9
v 0.4 1.2 0.9
v -0.4 1.2 -0.8
v 0.4 1.2 -0.8
v -0.4 1.2 -0.9
v 0.4 1.2 -0.9

# faces
f 6/2/1 2/2/1 1/2/1
f 7/2/1 2/2/1 6/2/1
f 10/2/1 4/2/1 3/2/1
f 11/2/1 4/2/1 10/2/1
f 13/2/1 8/2/1 7/2/1
f 13/2/1 6/2/1 5/2/1
f 13/2/1 7/2/1 6/2/1
f 14/2/1 8/2/1 13/2/1
f 15/2/1 8/2/1 14/2/1
f 16/2/1 8/2/1 15/2/1
f 17/2/1 12/2/1 11/2/1
f 17/2/1 11/2/1 10/2/1
f 17/2/1 10/2/1 9/2/1
f 18/2/1 12/2/1 17/2/1
f 19/2/1 12/2/1 18/2/1
f 20/2/1 12/2/1 19/2/1
f 21/2/1 15/2/1 14/2/1
f 22/2/1 15/2/1 21/2/1
f 23/2/1 19/2/1 18/2/1
f 24/2/1 19/2/1 23/2/1
f 28/1/1 26/1/1 25/1/1
f 29/1/1 26/1/1 28/1/1
f 30/1/1 26/1/1 29/1/1
f 31/1/1 26/1/1 30/1/1
f 34/1/1 28/1/1 27/1/1
f 34/1/1 29/1/1 28/1/1
f 35/1/1 32/1/1 31/1/1
f 35/1/1 31/1/1 30/1/1
f 37/1/1 34/1/1 33/1/1
f 37/1/1 29/1/1 34/1/1
f 38/1/1 29/1/1 37/1/1
f 39/1/1 36/1/1 35/1/1
f 39/1/1 35/1/1 30/1/1
f 40/1/1 36/1/1 39/1/1
f 41/3/1 38/3/1 37/3/1
f 41/1/1 37/1/1 33/1/1
f 42/1/1 29/1/1 38/1/1
f 42/3/1 38/3/1 41/3/1
f 43/3/1 40/3/1 39/3/1
f 43/1/1 39/1/1 30/1/1
f 44/1/1 36/1/1 40/1/1
f 44/3/1 40/3/1 43/3/1
f 45/3/1 30/3/1 29/3/1
f 45/1/1 29/1/1 42/1/1
f 45/1/1 42/1/1 41/1/1
f 46/1/1 43/1/1 30/1/1
f 46/3/1 30/3/1 45/3/1
f 46/1/1 44/1/1 43/1/1
f 49/1/1 41/1/1 33/1/1
f 49/1/1 45/1/1 41/1/1
f 49/1/1 46/1/1 45/1/1
f 50/1/1 44/1/1 46/1/1
f 50/1/1 46/1/1 49/1/1
f 50/1/1 36/1/1 44/1/1
f 53/1/1 48/1/1 47/1/1
f 54/1/1 48/1/1 53/1/1
f 55/1/1 52/1/1 51/1/1
f 56/1/1 52/1/1 55/1/1
f 61/1/1 58/1/1 57/1/1
f 62/1/1 58/1/1 61/1/1
f 63/1/1 60/1/1 59/1/1
f 64/1/1 60/1/1 63/1/1
f 69/1/1 66/1/1 65/1/1
f 70/1/1 66/1/1 69/1/1
f 71/1/1 68/1/1 67/1/1
f 72/1/1 68/1/1 71/1/1
f 77/1/1 74/1/1 73/1/1
f 78/1/1 74/1/1 77/1/1
f 79/1/1 76/1/1 75/1/1
f 80/1/1 76/1/1 79/1/1
f 86/2/1 82/2/1 81/2/1
f 87/2/1 82/2/1 86/2/1
f 90/2/1 84/2/1 83/2/1
f 91/2/1 84/2/1 90/2/1
f 93/2/1 88/2/1 87/2/1
f 93/2/1 86/2/1 85/2/1
f 93/2/1 87/2/1 86/2/1
f 94/2/1 88/2/1 93/2/1
f 95/2/1 92/2/1 91/2/1
f 95/2/1 91/2/1 90/2/1
f 95/2/1 90/2/1 89/2/1
f 96/2/1 92/2/1 95/2/1
f 97/2/1 93/2/1 85/2/1
f 98/2/1 93/2/1 97/2/1
f 99/2/1 92/2/1 96/2/1
f 100/2/1 92/2/1 99/2/1
f 101/2/1 93/2/1 98/2/1
f 102/2/1 93/2/1 101/2/1
f 103/2/1 99/2/1 96/2/1
f 104/2/1 99/2/1 103/2/1
f 105/2/2 106/2/2 110/2/2
f 110/2/2 106/2/2 111/2/2
f 107/2/2 108/2/2 114/2/2
f 114/2/2 108/2/2 115/2/2
f 111/2/2 112/2/2 117/2/2
f 109/2/2 110/2/2 117/2/2
f 110/2/2 111/2/2 117/2/2
f 117/2/2 112/2/2 118/2/2
f 115/2/2 116/2/2 119/2/2
f 114/2/2 115/2/2 119/2/2
f 113/2/2 114/2/2 119/2/2
f 119/2/2 116/2/2 120/2/2
f 109/2/2 117/2/2 121/2/2
f 121/2/2 117/2/2 122/2/2
f 120/2/2 116/2/2 123/2/2
f 123/2/2 116/2/2 124/2/2
f 122/2/2 117/2/2 125/2/2
f 125/2/2 117/2/2 126/2/2
f 120/2/2 123/2/2 127/2/2
f 127/2/2 123/2/2 128/2/2
f 129/1/2 130/1/2 133/1/2
f 133/1/2 130/1/2 134/1/2
f 131/1/2 132/1/2 135/1/2
f 135/1/2 132/1/2 136/1/2
f 137/1/2 138/1/2 141/1/2
f 141/1/2 138/1/2 142/1/2
f 139/1/2 140/1/2 143/1/2
f 143/1/2 140/1/2 144/1/2
f 145/1/2 146/1/2 149/1/2
f 149/1/2 146/1/2 150/1/2
f 147/1/2 148/1/2 151/1/2
f 151/1/2 148/1/2 152/1/2
f 153/1/2 154/1/2 156/1/2
f 156/1/2 154/1/2 157/1/2
f 157/1/2 154/1/2 158/1/2
f 158/1/2 154/1/2 159/1/2
f 155/1/2 156/1/2 162/1/2
f 156/1/2 157/1/2 162/1/2
f 159/1/2 160/1/2 163/1/2
f 158/1/2 159/1/2 163/1/2
f 161/1/2 162/1/2 165/1/2
f 162/1/2 157/1/2 165/1/2
f 165/1/2 157/1/2 166/1/2
f 163/1/2 164/1/2 167/1/2
f 158/1/2 163/1/2 167/1/2
f 167/1/2 164/1/2 168/1/2
f 165/3/2 166/3/2 169/3/2
f 161/1/2 165/1/2 169/1/2
f 166/1/2 157/1/2 170/1/2
f 169/3/2 166/3/2 170/3/2
f 167/3/2 168/3/2 171/3/2
f 158/1/2 167/1/2 171/1/2
f 168/1/2 164/1/2 172/1/2
f 171/3/2 168/3/2 172/3/2
f 157/3/2 158/3/2 173/3/2
f 170/1/2 157/1/2 173/1/2
f 169/1/2 170/1/2 173/1/2
f 158/1/2 171/1/2 174/1/2
f 173/3/2 158/3/2 174/3/2
f 171/1/2 172/1/2 174/1/2
f 161/1/2 169/1/2 177/1/2
f 169/1/2 173/1/2 177/1/2
f 173/1/2 174/1/2 177/1/2
f 174/1/2 172/1/2 178/1/2
f 177/1/2 174/1/2 178/1/2
f 172/1/2 164/1/2 178/1/2
f 175/1/2 176/1/2 181/1/2
f 181/1/2 176/1/2 182/1/2
f 179/1/2 180/1/2 183/1/2
f 183/1/2 180/1/2 184/1/2
f 185/2/2 186/2/2 190/2/2
f 190/2/2 186/2/2 191/2/2
f 187/2/2 188/2/2 194/2/2
f 194/2/2 188/2/2 195/2/2
f 191/2/2 192/2/2 197/2/2
f 189/2/2 190/2/2 197/2/2
f 190/2/2 191/2/2 197/2/2
f 197/2/2 192/2/2 198/2/2
f 198/2/2 192/2/2 199/2/2
f 199/2/2 192/2/2 200/2/2
f 195/2/2 196/2/2 201/2/2
f 194/2/2 195/2/2 201/2/2
f 193/2/2 194/2/2 201/2/2
f 201/2/2 196/2/2 202/2/2
f 202/2/2 196/2/2 203/2/2
f 203/2/2 196/2/2 204/2/2
f 198/2/2 199/2/2 205/2/2
f 205/2/2 199/2/2 206/2/2
f 202/2/2 203/2/2 207/2/2
f 207/2/2 203/2/2 208/2/2
f 211/1/3 210/1/3 209/1/3
f 212/1/3 210/1/3 211/1/3
f 215/2/3 214/2/3 213/2/3
f 216/2/3 214/2/3 215/2/3
f 219/1/3 218/1/3 217/1/3
f 220/1/3 218/1/3 219/1/3
f 223/1/3 222/1/3 221/1/3
f 224/1/3 222/1/3 223/1/3
f 227/2/3 226/2/3 225/2/3
f 228/2/3 226/2/3 227/2/3
f 233/2/3 230/2/3 229/2/3
f 234/2/3 230/2/3 233/2/3
f 235/2/3 232/2/3 231/2/3
f 236/2/3 232/2/3 235/2/3
f 239/1/3 238/1/3 237/1/3
f 240/1/3 238/1/3 239/1/3
f 241/1/3 239/1/3 237/1/3
f 243/1/3 241/1/3 237/1/3
f 243/1/3 242/1/3 241/1/3
f 244/1/3 242/1/3 243/1/3
f 245/1/3 243/1/3 237/1/3
f 247/1/3 245/1/3 237/1/3
f 247/1/3 246/1/3 245/1/3
f 248/1/3 246/1/3 247/1/3
f 253/2/3 250/2/3 249/2/3
f 254/2/3 250/2/3 253/2/3
f 255/2/3 252/2/3 251/2/3
f 256/2/3 252/2/3 255/2/3
f 260/1/3 258/1/3 257/1/3
f 260/1/3 259/1/3 258/1/3
f 261/1/3 259/1/3 260/1/3
f 264/1/3 263/1/3 262/1/3
f 265/1/3 263/1/3 264/1/3
f 266/1/3 263/1/3 265/1/3
f 269/2/3 268/2/3 267/2/3
f 270/2/3 268/2/3 269/2/3
f 271/2/3 268/2/3 270/2/3
f 275/2/3 273/2/3 272/2/3
f 275/2/3 274/2/3 273/2/3
f 276/2/3 274/2/3 275/2/3
f 281/2/3 278/2/3 277/2/3
f 282/2/3 278/2/3 281/2/3
f 283/2/3 280/2/3 279/2/3
f 284/2/3 280/2/3 283/2/3
f 289/2/3 286/2/3 285/2/3
f 290/2/3 286/2/3 289/2/3
f 291/2/3 288/2/3 287/2/3
f 292/2/3 288/2/3 291/2/3
f 295/1/3 294/1/3 293/1/3
f 296/1/3 294/1/3 295/1/3
f 297/1/3 294/1/3 296/1/3
f 298/1/3 294/1/3 297/1/3
f 299/1/3 294/1/3 298/1/3
f 300/1/3 294/1/3 299/1/3
f 301/1/4 302/1/4 303/1/4
f 303/1/4 302/1/4 304/1/4
f 304/1/4 302/1/4 305/1/4
f 305/1/4 302/1/4 306/1/4
f 306/1/4 302/1/4 307/1/4
f 307/1/4 302/1/4 308/1/4
f 309/2/4 310/2/4 313/2/4
f 313/2/4 310/2/4 314/2/4
f 311/2/4 312/2/4 315/2/4
f 315/2/4 312/2/4 316/2/4
f 317/2/4 318/2/4 321/2/4
f 321/2/4 318/2/4 322/2/4
f 319/2/4 320/2/4 323/2/4
f 323/2/4 320/2/4 324/2/4
f 325/2/4 326/2/4 327/2/4
f 327/2/4 326/2/4 328/2/4
f 328/2/4 326/2/4 329/2/4
f 330/2/4 331/2/4 333/2/4
f 331/2/4 332/2/4 333/2/4
f 333/2/4 332/2/4 334/2/4
f 335/1/4 336/1/4 338/1/4
f 336/1/4 337/1/4 338/1/4
f 338/1/4 337/1/4 339/1/4
f 340/1/4 341/1/4 342/1/4
f 342/1/4 341/1/4 343/1/4
f 343/1/4 341/1/4 344/1/4
f 345/2/4 346/2/4 349/2/4
f 349/2/4 346/2/4 350/2/4
f 347/2/4 348/2/4 351/2/4
f 351/2/4 348/2/4 352/2/4
f 353/1/4 354/1/4 355/1/4
f 355/1/4 354/1/4 356/1/4
f 353/1/4 355/1/4 357/1/4
f 353/1/4 357/1/4 359/1/4
f 357/1/4 358/1/4 359/1/4
f 359/1/4 358/1/4 360/1/4
f 353/1/4 359/1/4 361/1/4
f 353/1/4 361/1/4 363/1/4
f 361/1/4 362/1/4 363/1/4
f 363/1/4 362/1/4 364/1/4
f 365/2/4 366/2/4 369/2/4
f 369/2/4 366/2/4 370/2/4
f 367/2/4 368/2/4 371/2/4
f 371/2/4 368/2/4 372/2/4
f 373/2/4 374/2/4 375/2/4
f 375/2/4 374/2/4 376/2/4
f 377/1/4 378/1/4 379/1/4
f 379/1/4 378/1/4 380/1/4
f 381/1/4 382/1/4 383/1/4
f 383/1/4 382/1/4 384/1/4
f 385/2/4 386/2/4 387/2/4
f 387/2/4 386/2/4 388/2/4
f 389/1/4 390/1/4 391/1/4
f 391/1/4 390/1/4 392/1/4
f 397/2/5 394/2/5 393/2/5
f 398/2/5 394/2/5 397/2/5
f 399/2/5 396/2/5 395/2/5
f 400/2/5 396/2/5 399/2/5
f 405/2/5 402/2/5 401/2/5
f 406/2/5 402/2/5 405/2/5
f 407/2/5 404/2/5 403/2/5
f 408/2/5 404/2/5 407/2/5
f 413/2/5 410/2/5 409/2/5
f 414/2/5 410/2/5 413/2/5
f 415/2/5 412/2/5 411/2/5
f 416/2/5 412/2/5 415/2/5
f 421/2/5 418/2/5 417/2/5
f 422/2/5 418/2/5 421/2/5
f 423/2/5 420/2/5 419/2/5
f 424/2/5 420/2/5 423/2/5
f 429/2/5 426/2/5 425/2/5
f 430/2/5 426/2/5 429/2/5
f 431/2/5 428/2/5 427/2/5
f 432/2/5 428/2/5 431/2/5
f 437/2/5 434/2/5 433/2/5
f 438/2/5 434/2/5 437/2/5
f 439/2/5 436/2/5 435/2/5
f 440/2/5 436/2/5 439/2/5
f 444/1/5 442/1/5 441/1/5
f 445/1/5 442/1/5 444/1/5
f 447/1/5 444/1/5 443/1/5
f 447/1/5 446/1/5 445/1/5
f 447/1/5 445/1/5 444/1/5
f 448/1/5 446/1/5 447/1/5
f 449/1/5 448/1/5 447/1/5
f 450/1/5 448/1/5 449/1/5
f 451/1/5 450/1/5 449/1/5
f 452/1/5 450/1/5 451/1/5
f 453/1/5 450/1/5 452/1/5
f 454/1/5 450/1/5 453/1/5
f 455/1/5 453/1/5 452/1/5
f 456/1/5 453/1/5 455/1/5
f 461/1/5 458/1/5 457/1/5
f 462/1/5 458/1/5 461/1/5
f 463/1/5 460/1/5 459/1/5
f 464/1/5 460/1/5 463/1/5
f 469/1/5 466/1/5 465/1/5
f 470/1/5 466/1/5 469/1/5
f 471/1/5 468/1/5 467/1/5
f 472/1/5 468/1/5 471/1/5
f 475/1/5 474/1/5 473/1/5
f 476/1/5 474/1/5 475/1/5
f 477/1/5 474/1/5 476/1/5
f 478/1/5 474/1/5 477/1/5
f 479/1/5 474/1/5 478/1/5
f 480/1/5 474/1/5 479/1/5
f 487/1/5 482/1/5 481/1/5
f 487/1/5 486/1/5 485/1/5
f 487/1/5 485/1/5 484/1/5
f 487/1/5 484/1/5 483/1/5
f 487/1/5 483/1/5 482/1/5
f 488/1/5 486/1/5 487/1/5
f 489/2/6 490/2/6 493/2/6
f 493/2/6 490/2/6 494/2/6
f 491/2/6 492/2/6 495/2/6
f 495/2/6 492/2/6 496/2/6
f 497/2/6 498/2/6 501/2/6
f 501/2/6 498/2/6 502/2/6
f 499/2/6 500/2/6 503/2/6
f 503/2/6 500/2/6 504/2/6
f 505/2/6 506/2/6 509/2/6
f 509/2/6 506/2/6 510/2/6
f 507/2/6 508/2/6 511/2/6
f 511/2/6 508/2/6 512/2/6
f 513/2/6 514/2/6 517/2/6
f 517/2/6 514/2/6 518/2/6
f 515/2/6 516/2/6 519/2/6
f 519/2/6 516/2/6 520/2/6
f 521/2/6 522/2/6 525/2/6
f 523/2/6 524/2/6 526/2/6
f 521/2/6 525/2/6 527/2/6
f 527/2/6 525/2/6 528/2/6
f 526/2/6 524/2/6 529/2/6
f 529/2/6 524/2/6 530/2/6
f 531/2/6 532/2/6 535/2/6
f 533/2/6 534/2/6 536/2/6
f 531/2/6 535/2/6 537/2/6
f 537/2/6 535/2/6 538/2/6
f 536/2/6 534/2/6 539/2/6
f 539/2/6 534/2/6 540/2/6
f 541/1/6 542/1/6 546/1/6
f 546/1/6 542/1/6 547/1/6
f 543/1/6 544/1/6 548/1/6
f 548/1/6 544/1/6 549/1/6
f 546/1/6 547/1/6 552/1/6
f 549/1/6 550/1/6 552/1/6
f 548/1/6 549/1/6 552/1/6
f 547/1/6 548/1/6 552/1/6
f 545/1/6 546/1/6 552/1/6
f 552/1/6 550/1/6 553/1/6
f 551/1/6 552/1/6 555/1/6
f 553/1/6 554/1/6 555/1/6
f 552/1/6 553/1/6 555/1/6
f 555/1/6 554/1/6 556/1/6
f 556/1/6 554/1/6 557/1/6
f 557/1/6 554/1/6 558/1/6
f 556/1/6 557/1/6 559/1/6
f 559/1/6 557/1/6 560/1/6
f 560/1/6 557/1/6 561/1/6
f 561/1/6 557/1/6 562/1/6
f 562/1/6 557/1/6 563/1/6
f 563/1/6 557/1/6 564/1/6
f 560/1/6 561/1/6 565/1/6
f 565/1/6 561/1/6 566/1/6
f 562/1/6 563/1/6 567/1/6
f 567/1/6 563/1/6 568/1/6
f 569/1/6 570/1/6 571/1/6
f 571/1/6 570/1/6 572/1/6
f 573/1/6 574/1/6 575/1/6
f 575/1/6 574/1/6 576/1/6
