# MagicaVoxel @ Ephtracy

# group
o 

# material
mtllib Teacher_Walk1.vox.mtl
usemtl palette

# normals
vn -1 0 0
vn 1 0 0
vn 0 0 1
vn 0 0 -1
vn 0 -1 0
vn 0 1 0

# texcoords
vt 0.0839844 0.5
vt 0.146484 0.5
vt 0.287109 0.5
vt 0.291016 0.5
vt 0.310547 0.5
vt 0.365234 0.5
vt 0.373047 0.5
vt 0.748047 0.5
vt 0.958984 0.5
vt 0.994141 0.5

# verts
v -0.6 1.3 0.4
v -0.6 1.3 -0.3
v -0.6 1.5 0.4
v -0.6 1.5 -0.3
v -0.5 0.5 0.3
v -0.5 0.5 0.1
v -0.5 0.5 -0.1
v -0.5 0.7 0.3
v -0.5 0.7 0.1
v -0.5 0.7 -0.1
v -0.5 0.9 0.3
v -0.5 0.9 0
v -0.5 0.9 -0.4
v -0.5 1.3 0.3
v -0.5 1.3 0
v -0.5 1.3 -0.3
v -0.5 1.5 0.4
v -0.5 1.5 -0.3
v -0.5 1.5 -0.4
v -0.5 1.6 0.4
v -0.5 1.6 -0.3
v -0.4 0.4 0.4
v -0.4 0.4 0.1
v -0.4 0.5 0.3
v -0.4 0.5 0.1
v -0.4 0.7 0.3
v -0.4 0.7 0.1
v -0.4 0.8 0.4
v -0.4 0.8 0.3
v -0.4 0.8 0.1
v -0.4 0.8 0
v -0.4 0.8 -0.2
v -0.4 0.9 0.3
v -0.4 0.9 0
v -0.4 0.9 -0.2
v -0.4 1.6 0.3
v -0.4 1.6 -0.2
v -0.4 1.7 0.3
v -0.4 1.7 -0.2
v -0.3 0 0.2
v -0.3 0 -0.1
v -0.3 0.1 0.2
v -0.3 0.1 0.1
v -0.3 0.2 0.1
v -0.3 0.2 -0.1
v -0.3 0.3 0.2
v -0.3 0.3 0.1
v -0.3 0.3 -0.1
v -0.3 0.3 -0.2
v -0.3 0.4 0.2
v -0.3 0.4 0.1
v -0.3 0.4 -0.2
v -0.3 0.5 0.1
v -0.3 0.5 -0.1
v -0.3 0.7 0.1
v -0.3 0.7 -0.1
v -0.3 0.8 0.1
v -0.3 0.8 0
v -0.3 0.8 -0.2
v -0.3 0.8 -0.3
v -0.3 0.9 -0.2
v -0.3 0.9 -0.3
v -0.1 0.5 0.3
v -0.1 0.5 0.2
v -0.1 0.8 0.3
v -0.1 0.8 0.2
v 0.1 0.1 0.4
v 0.1 0.1 0.2
v 0.1 0.1 -0.1
v 0.1 0.3 0.3
v 0.1 0.3 0.2
v 0.1 0.3 0.1
v 0.1 0.3 -0.1
v 0.1 0.4 0.4
v 0.1 0.4 0.3
v 0.4 1.3 0.4
v 0.4 1.3 0.3
v 0.4 1.4 0.4
v 0.4 1.4 0.3
v -0.4 1.3 0.4
v -0.4 1.3 0.3
v -0.4 1.4 0.4
v -0.4 1.4 0.3
v -0.3 0.4 0.4
v -0.3 0.4 0.2
v -0.3 0.8 0.4
v -0.3 0.8 0.3
v -0.3 0.8 0.2
v -0.1 0 0.2
v -0.1 0 -0.1
v -0.1 0.1 0.2
v -0.1 0.1 0.1
v -0.1 0.2 0.1
v -0.1 0.2 -0.1
v -0.1 0.3 0.1
v -0.1 0.3 -0.1
v -5.96046e-08 0.5 0.3
v -5.96046e-08 0.5 0.2
v -5.96046e-08 0.6 0.3
v -5.96046e-08 0.6 0.2
v 0.1 0.6 0.3
v 0.1 0.6 0.2
v 0.1 0.8 0.3
v 0.1 0.8 0.2
v 0.3 0.1 0.4
v 0.3 0.1 0.2
v 0.3 0.1 -0.1
v 0.3 0.3 0.3
v 0.3 0.3 0.2
v 0.3 0.3 0.1
v 0.3 0.3 -0.1
v 0.3 0.3 -0.2
v 0.3 0.4 0.4
v 0.3 0.4 0.3
v 0.3 0.4 0.2
v 0.3 0.4 0.1
v 0.3 0.4 -0.1
v 0.3 0.4 -0.2
v 0.3 0.5 0.1
v 0.3 0.5 -0.1
v 0.3 0.7 0.1
v 0.3 0.7 -0.1
v 0.3 0.8 0.2
v 0.3 0.8 0
v 0.3 0.8 -0.2
v 0.3 0.8 -0.3
v 0.3 0.9 -0.2
v 0.3 0.9 -0.3
v 0.4 0.8 0.3
v 0.4 0.8 0
v 0.4 0.8 -0.2
v 0.4 0.9 0.3
v 0.4 0.9 0
v 0.4 0.9 -0.2
v 0.4 1.6 0.3
v 0.4 1.6 -0.2
v 0.4 1.7 0.3
v 0.4 1.7 -0.2
v 0.5 0.3 0.1
v 0.5 0.3 -0.1
v 0.5 0.5 0.1
v 0.5 0.5 -0.1
v 0.5 0.7 0.1
v 0.5 0.7 -0.1
v 0.5 0.9 0.3
v 0.5 0.9 0
v 0.5 0.9 -0.4
v 0.5 1.3 0.3
v 0.5 1.3 0
v 0.5 1.3 -0.3
v 0.5 1.5 0.4
v 0.5 1.5 -0.3
v 0.5 1.5 -0.4
v 0.5 1.6 0.4
v 0.5 1.6 -0.3
v 0.6 1.3 0.4
v 0.6 1.3 -0.3
v 0.6 1.5 0.4
v 0.6 1.5 -0.3
v -0.6 1.3 0.4
v -0.6 1.5 0.4
v -0.5 1.5 0.4
v -0.5 1.6 0.4
v -0.4 0.4 0.4
v -0.4 0.8 0.4
v -0.4 1.3 0.4
v -0.4 1.4 0.4
v -0.3 0.4 0.4
v -0.3 0.8 0.4
v 0.1 0.1 0.4
v 0.1 0.4 0.4
v 0.3 0.1 0.4
v 0.3 0.4 0.4
v 0.4 1.3 0.4
v 0.4 1.4 0.4
v 0.5 1.5 0.4
v 0.5 1.6 0.4
v 0.6 1.3 0.4
v 0.6 1.5 0.4
v -0.5 0.5 0.3
v -0.5 0.7 0.3
v -0.5 0.9 0.3
v -0.5 1.3 0.3
v -0.4 0.5 0.3
v -0.4 0.7 0.3
v -0.4 0.8 0.3
v -0.4 0.9 0.3
v -0.4 1.3 0.3
v -0.4 1.4 0.3
v -0.4 1.6 0.3
v -0.4 1.7 0.3
v -0.3 0.8 0.3
v -0.3 1.1 0.3
v -0.3 1.3 0.3
v -0.2 1.1 0.3
v -0.2 1.3 0.3
v -0.1 0.5 0.3
v -0.1 0.8 0.3
v -0.1 0.9 0.3
v -0.1 1 0.3
v -0.1 1.1 0.3
v -0.1 1.3 0.3
v -5.96046e-08 0.5 0.3
v -5.96046e-08 0.6 0.3
v 0.1 0.6 0.3
v 0.1 0.8 0.3
v 0.1 0.9 0.3
v 0.1 1 0.3
v 0.1 1.1 0.3
v 0.1 1.3 0.3
v 0.2 1.1 0.3
v 0.2 1.3 0.3
v 0.3 1.1 0.3
v 0.3 1.3 0.3
v 0.4 0.8 0.3
v 0.4 0.9 0.3
v 0.4 1.3 0.3
v 0.4 1.4 0.3
v 0.4 1.6 0.3
v 0.4 1.7 0.3
v 0.5 0.9 0.3
v 0.5 1.3 0.3
v -0.3 0 0.2
v -0.3 0.1 0.2
v -0.3 0.3 0.2
v -0.3 0.4 0.2
v -0.3 0.8 0.2
v -0.1 0 0.2
v -0.1 0.1 0.2
v -0.1 0.3 0.2
v -0.1 0.4 0.2
v -0.1 0.5 0.2
v -0.1 0.8 0.2
v -5.96046e-08 0.5 0.2
v -5.96046e-08 0.6 0.2
v 0.1 0.3 0.2
v 0.1 0.4 0.2
v 0.1 0.6 0.2
v 0.1 0.8 0.2
v 0.3 0.3 0.2
v 0.3 0.4 0.2
v 0.3 0.8 0.2
v -0.3 0.1 0.1
v -0.3 0.2 0.1
v -0.3 0.3 0.1
v -0.1 0.1 0.1
v -0.1 0.2 0.1
v -0.1 0.3 0.1
v 0.3 0.3 0.1
v 0.3 0.4 0.1
v 0.3 0.5 0.1
v 0.3 0.7 0.1
v 0.5 0.3 0.1
v 0.5 0.5 0.1
v 0.5 0.7 0.1
v 0.1 0.3 0.3
v 0.1 0.4 0.3
v 0.3 0.3 0.3
v 0.3 0.4 0.3
v -0.4 0.4 0.1
v -0.4 0.5 0.1
v -0.4 0.7 0.1
v -0.4 0.8 0.1
v -0.3 0.4 0.1
v -0.3 0.5 0.1
v -0.3 0.7 0.1
v -0.3 0.8 0.1
v -0.5 0.5 -0.1
v -0.5 0.7 -0.1
v -0.3 0 -0.1
v -0.3 0.2 -0.1
v -0.3 0.3 -0.1
v -0.3 0.5 -0.1
v -0.3 0.7 -0.1
v -0.1 0 -0.1
v -0.1 0.2 -0.1
v -0.1 0.3 -0.1
v 0.1 0.1 -0.1
v 0.1 0.3 -0.1
v 0.3 0.1 -0.1
v 0.3 0.3 -0.1
v 0.3 0.4 -0.1
v 0.3 0.5 -0.1
v 0.3 0.7 -0.1
v 0.5 0.3 -0.1
v 0.5 0.5 -0.1
v 0.5 0.7 -0.1
v -0.4 0.8 -0.2
v -0.4 0.9 -0.2
v -0.4 1.6 -0.2
v -0.4 1.7 -0.2
v -0.3 0.3 -0.2
v -0.3 0.4 -0.2
v -0.3 0.8 -0.2
v -0.3 0.9 -0.2
v 0.3 0.3 -0.2
v 0.3 0.4 -0.2
v 0.3 0.8 -0.2
v 0.3 0.9 -0.2
v 0.4 0.8 -0.2
v 0.4 0.9 -0.2
v 0.4 1.6 -0.2
v 0.4 1.7 -0.2
v -0.6 1.3 -0.3
v -0.6 1.5 -0.3
v -0.5 1.3 -0.3
v -0.5 1.5 -0.3
v -0.5 1.6 -0.3
v -0.3 0.8 -0.3
v -0.3 0.9 -0.3
v 0.3 0.8 -0.3
v 0.3 0.9 -0.3
v 0.5 1.3 -0.3
v 0.5 1.5 -0.3
v 0.5 1.6 -0.3
v 0.6 1.3 -0.3
v 0.6 1.5 -0.3
v -0.5 0.9 -0.4
v -0.5 1.5 -0.4
v 0.5 0.9 -0.4
v 0.5 1.5 -0.4
v -0.3 0 0.2
v -0.1 0 0.2
v -0.3 0 -0.1
v -0.1 0 -0.1
v 0.1 0.1 0.4
v 0.3 0.1 0.4
v 0.1 0.1 0.2
v 0.3 0.1 0.2
v 0.1 0.1 -0.1
v 0.3 0.1 -0.1
v -0.3 0.3 0.2
v -0.1 0.3 0.2
v 0.1 0.3 0.2
v -0.3 0.3 0.1
v -0.1 0.3 0.1
v 0.1 0.3 0.1
v 0.3 0.3 0.1
v 0.5 0.3 0.1
v -0.3 0.3 -0.1
v -0.1 0.3 -0.1
v 0.1 0.3 -0.1
v 0.3 0.3 -0.1
v 0.5 0.3 -0.1
v -0.3 0.3 -0.2
v 0.3 0.3 -0.2
v -0.4 0.4 0.4
v -0.3 0.4 0.4
v -0.3 0.4 0.2
v -0.4 0.4 0.1
v -0.3 0.4 0.1
v -0.5 0.5 0.3
v -0.4 0.5 0.3
v -0.1 0.5 0.3
v -5.96046e-08 0.5 0.3
v -0.1 0.5 0.2
v -5.96046e-08 0.5 0.2
v -0.5 0.5 0.1
v -0.4 0.5 0.1
v -0.3 0.5 0.1
v -0.5 0.5 -0.1
v -0.3 0.5 -0.1
v -5.96046e-08 0.6 0.3
v 0.1 0.6 0.3
v -5.96046e-08 0.6 0.2
v 0.1 0.6 0.2
v -0.3 0.8 0.3
v -0.1 0.8 0.3
v 0.1 0.8 0.3
v 0.4 0.8 0.3
v -0.3 0.8 0.2
v -0.1 0.8 0.2
v 0.1 0.8 0.2
v 0.3 0.8 0.2
v -0.4 0.8 0.1
v -0.3 0.8 0.1
v -0.4 0.8 0
v -0.3 0.8 0
v 0.3 0.8 0
v 0.4 0.8 0
v -0.4 0.8 -0.2
v -0.3 0.8 -0.2
v 0.3 0.8 -0.2
v 0.4 0.8 -0.2
v -0.3 0.8 -0.3
v 0.3 0.8 -0.3
v -0.5 0.9 0.3
v -0.4 0.9 0.3
v 0.4 0.9 0.3
v 0.5 0.9 0.3
v -0.5 0.9 0
v -0.4 0.9 0
v 0.4 0.9 0
v 0.5 0.9 0
v -0.4 0.9 -0.2
v -0.3 0.9 -0.2
v 0.3 0.9 -0.2
v 0.4 0.9 -0.2
v -0.3 0.9 -0.3
v 0.3 0.9 -0.3
v -0.5 0.9 -0.4
v 0.5 0.9 -0.4
v -0.6 1.3 0.4
v -0.4 1.3 0.4
v 0.4 1.3 0.4
v 0.6 1.3 0.4
v -0.5 1.3 0.3
v -0.4 1.3 0.3
v 0.4 1.3 0.3
v 0.5 1.3 0.3
v -0.5 1.3 0
v 0.5 1.3 0
v -0.6 1.3 -0.3
v -0.5 1.3 -0.3
v 0.5 1.3 -0.3
v 0.6 1.3 -0.3
v -0.4 1.4 0.4
v 0.4 1.4 0.4
v -0.4 1.4 0.3
v 0.4 1.4 0.3
v -0.3 0.1 0.2
v -0.1 0.1 0.2
v -0.3 0.1 0.1
v -0.1 0.1 0.1
v 0.1 0.3 0.3
v 0.3 0.3 0.3
v 0.1 0.3 0.2
v 0.3 0.3 0.2
v 0.1 0.4 0.4
v 0.3 0.4 0.4
v 0.1 0.4 0.3
v 0.3 0.4 0.3
v -0.5 0.7 0.3
v -0.4 0.7 0.3
v -0.5 0.7 0.1
v -0.4 0.7 0.1
v -0.3 0.7 0.1
v 0.3 0.7 0.1
v 0.5 0.7 0.1
v -0.5 0.7 -0.1
v -0.3 0.7 -0.1
v 0.3 0.7 -0.1
v 0.5 0.7 -0.1
v -0.4 0.8 0.4
v -0.3 0.8 0.4
v -0.4 0.8 0.3
v -0.3 0.8 0.3
v -0.6 1.5 0.4
v -0.5 1.5 0.4
v 0.5 1.5 0.4
v 0.6 1.5 0.4
v -0.6 1.5 -0.3
v -0.5 1.5 -0.3
v 0.5 1.5 -0.3
v 0.6 1.5 -0.3
v -0.5 1.5 -0.4
v 0.5 1.5 -0.4
v -0.5 1.6 0.4
v 0.5 1.6 0.4
v -0.4 1.6 0.3
v 0.4 1.6 0.3
v -0.4 1.6 -0.2
v 0.4 1.6 -0.2
v -0.5 1.6 -0.3
v 0.5 1.6 -0.3
v -0.4 1.7 0.3
v 0.4 1.7 0.3
v -0.4 1.7 -0.2
v 0.4 1.7 -0.2

# faces
f 3/5/1 2/5/1 1/5/1
f 4/5/1 2/5/1 3/5/1
f 8/3/1 6/3/1 5/3/1
f 9/8/1 7/8/1 6/8/1
f 9/3/1 6/3/1 8/3/1
f 10/8/1 7/8/1 9/8/1
f 14/3/1 12/3/1 11/3/1
f 15/5/1 13/5/1 12/5/1
f 15/3/1 12/3/1 14/3/1
f 16/5/1 13/5/1 15/5/1
f 18/5/1 13/5/1 16/5/1
f 19/5/1 13/5/1 18/5/1
f 20/5/1 18/5/1 17/5/1
f 21/5/1 18/5/1 20/5/1
f 24/5/1 23/5/1 22/5/1
f 25/5/1 23/5/1 24/5/1
f 26/5/1 24/5/1 22/5/1
f 28/5/1 26/5/1 22/5/1
f 28/5/1 27/5/1 26/5/1
f 29/5/1 27/5/1 28/5/1
f 30/5/1 27/5/1 29/5/1
f 33/3/1 30/3/1 29/3/1
f 33/3/1 31/3/1 30/3/1
f 34/5/1 32/5/1 31/5/1
f 34/3/1 31/3/1 33/3/1
f 35/5/1 32/5/1 34/5/1
f 38/5/1 37/5/1 36/5/1
f 39/5/1 37/5/1 38/5/1
f 42/6/1 41/6/1 40/6/1
f 43/6/1 41/6/1 42/6/1
f 44/6/1 41/6/1 43/6/1
f 45/6/1 41/6/1 44/6/1
f 47/4/1 45/4/1 44/4/1
f 48/4/1 45/4/1 47/4/1
f 50/6/1 48/6/1 47/6/1
f 50/6/1 49/6/1 48/6/1
f 50/6/1 47/6/1 46/6/1
f 51/6/1 49/6/1 50/6/1
f 52/6/1 49/6/1 51/6/1
f 53/8/1 52/8/1 51/8/1
f 54/8/1 52/8/1 53/8/1
f 56/8/1 52/8/1 54/8/1
f 57/8/1 56/8/1 55/8/1
f 58/8/1 56/8/1 57/8/1
f 59/8/1 52/8/1 56/8/1
f 59/8/1 56/8/1 58/8/1
f 61/5/1 60/5/1 59/5/1
f 62/5/1 60/5/1 61/5/1
f 65/2/1 64/2/1 63/2/1
f 66/2/1 64/2/1 65/2/1
f 70/6/1 68/6/1 67/6/1
f 71/4/1 69/4/1 68/4/1
f 71/6/1 68/6/1 70/6/1
f 72/4/1 69/4/1 71/4/1
f 73/4/1 69/4/1 72/4/1
f 74/6/1 70/6/1 67/6/1
f 75/6/1 70/6/1 74/6/1
f 78/5/1 77/5/1 76/5/1
f 79/5/1 77/5/1 78/5/1
f 80/5/2 81/5/2 82/5/2
f 82/5/2 81/5/2 83/5/2
f 84/5/2 85/5/2 86/5/2
f 86/5/2 85/5/2 87/5/2
f 87/5/2 85/5/2 88/5/2
f 89/6/2 90/6/2 91/6/2
f 91/6/2 90/6/2 92/6/2
f 92/6/2 90/6/2 93/6/2
f 93/6/2 90/6/2 94/6/2
f 93/4/2 94/4/2 95/4/2
f 95/4/2 94/4/2 96/4/2
f 97/2/2 98/2/2 99/2/2
f 99/2/2 98/2/2 100/2/2
f 101/2/2 102/2/2 103/2/2
f 103/2/2 102/2/2 104/2/2
f 105/6/2 106/6/2 108/6/2
f 106/4/2 107/4/2 109/4/2
f 108/6/2 106/6/2 109/6/2
f 109/4/2 107/4/2 110/4/2
f 110/4/2 107/4/2 111/4/2
f 105/6/2 108/6/2 113/6/2
f 113/6/2 108/6/2 114/6/2
f 109/6/2 110/6/2 115/6/2
f 115/6/2 110/6/2 116/6/2
f 111/6/2 112/6/2 117/6/2
f 117/6/2 112/6/2 118/6/2
f 115/8/2 116/8/2 119/8/2
f 117/8/2 118/8/2 120/8/2
f 115/8/2 119/8/2 121/8/2
f 120/8/2 118/8/2 122/8/2
f 115/8/2 121/8/2 123/8/2
f 121/8/2 122/8/2 123/8/2
f 123/8/2 122/8/2 124/8/2
f 122/8/2 118/8/2 125/8/2
f 124/8/2 122/8/2 125/8/2
f 125/5/2 126/5/2 127/5/2
f 127/5/2 126/5/2 128/5/2
f 129/3/2 130/3/2 132/3/2
f 130/5/2 131/5/2 133/5/2
f 132/3/2 130/3/2 133/3/2
f 133/5/2 131/5/2 134/5/2
f 135/5/2 136/5/2 137/5/2
f 137/5/2 136/5/2 138/5/2
f 139/3/2 140/3/2 141/3/2
f 141/3/2 140/3/2 142/3/2
f 141/8/2 142/8/2 143/8/2
f 143/8/2 142/8/2 144/8/2
f 145/3/2 146/3/2 148/3/2
f 146/5/2 147/5/2 149/5/2
f 148/3/2 146/3/2 149/3/2
f 149/5/2 147/5/2 150/5/2
f 150/5/2 147/5/2 152/5/2
f 152/5/2 147/5/2 153/5/2
f 151/5/2 152/5/2 154/5/2
f 154/5/2 152/5/2 155/5/2
f 156/5/2 157/5/2 158/5/2
f 158/5/2 157/5/2 159/5/2
f 162/5/3 161/5/3 160/5/3
f 166/5/3 162/5/3 160/5/3
f 166/5/3 163/5/3 162/5/3
f 167/5/3 163/5/3 166/5/3
f 168/5/3 165/5/3 164/5/3
f 169/5/3 165/5/3 168/5/3
f 172/6/3 171/6/3 170/6/3
f 173/6/3 171/6/3 172/6/3
f 175/5/3 163/5/3 167/5/3
f 176/5/3 163/5/3 175/5/3
f 176/5/3 175/5/3 174/5/3
f 177/5/3 163/5/3 176/5/3
f 178/5/3 176/5/3 174/5/3
f 179/5/3 176/5/3 178/5/3
f 184/3/3 181/3/3 180/3/3
f 185/3/3 181/3/3 184/3/3
f 187/3/3 183/3/3 182/3/3
f 188/3/3 183/3/3 187/3/3
f 192/3/3 187/3/3 186/3/3
f 192/3/3 189/3/3 188/3/3
f 192/3/3 188/3/3 187/3/3
f 193/3/3 189/3/3 192/3/3
f 194/3/3 189/3/3 193/3/3
f 195/3/3 193/3/3 192/3/3
f 195/9/3 194/9/3 193/9/3
f 196/3/3 189/3/3 194/3/3
f 196/9/3 194/9/3 195/9/3
f 198/3/3 195/3/3 192/3/3
f 199/3/3 195/3/3 198/3/3
f 200/3/3 195/3/3 199/3/3
f 201/10/3 196/10/3 195/10/3
f 201/3/3 195/3/3 200/3/3
f 202/3/3 189/3/3 196/3/3
f 202/10/3 196/10/3 201/10/3
f 203/2/3 198/2/3 197/2/3
f 204/2/3 198/2/3 203/2/3
f 205/2/3 198/2/3 204/2/3
f 206/3/3 199/3/3 198/3/3
f 206/2/3 198/2/3 205/2/3
f 207/1/3 200/1/3 199/1/3
f 207/3/3 199/3/3 206/3/3
f 208/3/3 201/3/3 200/3/3
f 208/1/3 200/1/3 207/1/3
f 208/3/3 202/3/3 201/3/3
f 209/3/3 202/3/3 208/3/3
f 210/3/3 189/3/3 202/3/3
f 210/3/3 202/3/3 209/3/3
f 211/3/3 207/3/3 206/3/3
f 211/10/3 210/10/3 209/10/3
f 211/3/3 208/3/3 207/3/3
f 211/3/3 209/3/3 208/3/3
f 212/3/3 189/3/3 210/3/3
f 212/10/3 210/10/3 211/10/3
f 213/3/3 211/3/3 206/3/3
f 213/9/3 212/9/3 211/9/3
f 214/3/3 189/3/3 212/3/3
f 214/9/3 212/9/3 213/9/3
f 215/3/3 213/3/3 206/3/3
f 215/3/3 214/3/3 213/3/3
f 216/3/3 214/3/3 215/3/3
f 217/3/3 189/3/3 214/3/3
f 217/3/3 214/3/3 216/3/3
f 218/3/3 189/3/3 217/3/3
f 219/5/3 191/5/3 190/5/3
f 220/5/3 191/5/3 219/5/3
f 221/3/3 217/3/3 216/3/3
f 222/3/3 217/3/3 221/3/3
f 228/6/3 224/6/3 223/6/3
f 229/6/3 224/6/3 228/6/3
f 230/6/3 226/6/3 225/6/3
f 231/8/3 227/8/3 226/8/3
f 231/6/3 226/6/3 230/6/3
f 232/8/3 227/8/3 231/8/3
f 233/8/3 227/8/3 232/8/3
f 234/8/3 232/8/3 231/8/3
f 236/7/3 231/7/3 230/7/3
f 237/8/3 235/8/3 234/8/3
f 237/7/3 231/7/3 236/7/3
f 237/8/3 234/8/3 231/8/3
f 238/8/3 235/8/3 237/8/3
f 240/6/3 237/6/3 236/6/3
f 241/8/3 239/8/3 238/8/3
f 241/6/3 237/6/3 240/6/3
f 241/8/3 238/8/3 237/8/3
f 242/8/3 239/8/3 241/8/3
f 246/6/3 244/6/3 243/6/3
f 247/4/3 245/4/3 244/4/3
f 247/6/3 244/6/3 246/6/3
f 248/4/3 245/4/3 247/4/3
f 253/3/3 250/3/3 249/3/3
f 253/3/3 251/3/3 250/3/3
f 254/8/3 252/8/3 251/8/3
f 254/3/3 251/3/3 253/3/3
f 255/8/3 252/8/3 254/8/3
f 256/6/4 257/6/4 258/6/4
f 258/6/4 257/6/4 259/6/4
f 260/5/4 261/5/4 264/5/4
f 264/5/4 261/5/4 265/5/4
f 262/5/4 263/5/4 266/5/4
f 266/5/4 263/5/4 267/5/4
f 268/8/4 269/8/4 273/8/4
f 273/8/4 269/8/4 274/8/4
f 270/6/4 271/6/4 275/6/4
f 271/4/4 272/4/4 276/4/4
f 275/6/4 271/6/4 276/6/4
f 276/4/4 272/4/4 277/4/4
f 278/4/4 279/4/4 280/4/4
f 280/4/4 279/4/4 281/4/4
f 281/3/4 282/3/4 285/3/4
f 282/3/4 283/3/4 285/3/4
f 283/8/4 284/8/4 286/8/4
f 285/3/4 283/3/4 286/3/4
f 286/8/4 284/8/4 287/8/4
f 288/5/4 289/5/4 294/5/4
f 294/5/4 289/5/4 295/5/4
f 292/6/4 293/6/4 296/6/4
f 293/8/4 294/8/4 297/8/4
f 296/6/4 293/6/4 297/6/4
f 297/8/4 294/8/4 298/8/4
f 298/5/4 299/5/4 300/5/4
f 300/5/4 299/5/4 301/5/4
f 290/5/4 291/5/4 302/5/4
f 302/5/4 291/5/4 303/5/4
f 304/5/4 305/5/4 306/5/4
f 306/5/4 305/5/4 307/5/4
f 309/5/4 310/5/4 311/5/4
f 311/5/4 310/5/4 312/5/4
f 307/5/4 308/5/4 314/5/4
f 314/5/4 308/5/4 315/5/4
f 313/5/4 314/5/4 316/5/4
f 316/5/4 314/5/4 317/5/4
f 318/5/4 319/5/4 320/5/4
f 320/5/4 319/5/4 321/5/4
f 324/6/5 323/6/5 322/6/5
f 325/6/5 323/6/5 324/6/5
f 328/6/5 327/6/5 326/6/5
f 329/6/5 327/6/5 328/6/5
f 330/4/5 329/4/5 328/4/5
f 331/4/5 329/4/5 330/4/5
f 335/6/5 333/6/5 332/6/5
f 336/7/5 334/7/5 333/7/5
f 336/6/5 333/6/5 335/6/5
f 337/7/5 334/7/5 336/7/5
f 341/8/5 337/8/5 336/8/5
f 342/8/5 337/8/5 341/8/5
f 343/3/5 339/3/5 338/3/5
f 344/3/5 339/3/5 343/3/5
f 345/6/5 342/6/5 341/6/5
f 345/6/5 341/6/5 340/6/5
f 345/6/5 343/6/5 342/6/5
f 346/6/5 343/6/5 345/6/5
f 349/5/5 348/5/5 347/5/5
f 350/5/5 349/5/5 347/5/5
f 351/5/5 349/5/5 350/5/5
f 356/2/5 355/2/5 354/2/5
f 357/2/5 355/2/5 356/2/5
f 358/3/5 353/3/5 352/3/5
f 359/3/5 353/3/5 358/3/5
f 361/8/5 359/8/5 358/8/5
f 361/8/5 360/8/5 359/8/5
f 362/8/5 360/8/5 361/8/5
f 365/2/5 364/2/5 363/2/5
f 366/2/5 364/2/5 365/2/5
f 371/3/5 368/3/5 367/3/5
f 372/3/5 368/3/5 371/3/5
f 373/3/5 370/3/5 369/3/5
f 374/3/5 370/3/5 373/3/5
f 377/3/5 376/3/5 375/3/5
f 378/3/5 376/3/5 377/3/5
f 379/3/5 370/3/5 374/3/5
f 380/3/5 370/3/5 379/3/5
f 381/5/5 378/5/5 377/5/5
f 382/5/5 378/5/5 381/5/5
f 383/5/5 380/5/5 379/5/5
f 384/5/5 380/5/5 383/5/5
f 385/5/5 383/5/5 382/5/5
f 386/5/5 383/5/5 385/5/5
f 391/3/5 388/3/5 387/3/5
f 392/3/5 388/3/5 391/3/5
f 393/3/5 390/3/5 389/3/5
f 394/3/5 390/3/5 393/3/5
f 395/5/5 392/5/5 391/5/5
f 398/5/5 394/5/5 393/5/5
f 399/5/5 396/5/5 395/5/5
f 400/5/5 398/5/5 397/5/5
f 401/5/5 399/5/5 395/5/5
f 401/5/5 400/5/5 399/5/5
f 401/5/5 395/5/5 391/5/5
f 402/5/5 398/5/5 400/5/5
f 402/5/5 400/5/5 401/5/5
f 402/5/5 394/5/5 398/5/5
f 407/5/5 404/5/5 403/5/5
f 408/5/5 404/5/5 407/5/5
f 409/5/5 406/5/5 405/5/5
f 410/5/5 406/5/5 409/5/5
f 411/5/5 407/5/5 403/5/5
f 412/5/5 406/5/5 410/5/5
f 413/5/5 411/5/5 403/5/5
f 414/5/5 411/5/5 413/5/5
f 415/5/5 406/5/5 412/5/5
f 416/5/5 406/5/5 415/5/5
f 419/5/5 418/5/5 417/5/5
f 420/5/5 418/5/5 419/5/5
f 421/6/6 422/6/6 423/6/6
f 423/6/6 422/6/6 424/6/6
f 425/6/6 426/6/6 427/6/6
f 427/6/6 426/6/6 428/6/6
f 429/6/6 430/6/6 431/6/6
f 431/6/6 430/6/6 432/6/6
f 433/3/6 434/3/6 435/3/6
f 435/3/6 434/3/6 436/3/6
f 435/8/6 436/8/6 440/8/6
f 436/8/6 437/8/6 440/8/6
f 440/8/6 437/8/6 441/8/6
f 438/8/6 439/8/6 442/8/6
f 442/8/6 439/8/6 443/8/6
f 444/5/6 445/5/6 446/5/6
f 446/5/6 445/5/6 447/5/6
f 448/5/6 449/5/6 452/5/6
f 452/5/6 449/5/6 453/5/6
f 450/5/6 451/5/6 454/5/6
f 454/5/6 451/5/6 455/5/6
f 453/5/6 454/5/6 456/5/6
f 456/5/6 454/5/6 457/5/6
f 458/5/6 459/5/6 460/5/6
f 460/5/6 459/5/6 461/5/6
f 458/5/6 460/5/6 462/5/6
f 461/5/6 459/5/6 463/5/6
f 458/5/6 462/5/6 464/5/6
f 462/5/6 463/5/6 464/5/6
f 463/5/6 459/5/6 465/5/6
f 464/5/6 463/5/6 465/5/6
f 466/5/6 467/5/6 468/5/6
f 468/5/6 467/5/6 469/5/6
