# MagicaVoxel @ Ephtracy

# group
o 

# material
mtllib Teacher_Chair.vox.mtl
usemtl palette

# normals
vn -1 0 0
vn 1 0 0
vn 0 0 1
vn 0 0 -1
vn 0 -1 0
vn 0 1 0

# texcoords
vt 0.310547 0.5
vt 0.986328 0.5
vt 0.994141 0.5

# verts
v -0.8 0 0.6
v -0.8 0 0.5
v -0.8 0 -0.4
v -0.8 0 -0.5
v -0.8 0.1 0.6
v -0.8 0.1 0.5
v -0.8 0.1 -0.4
v -0.8 0.1 -0.5
v -0.8 1.2 0.5
v -0.8 1.2 -0.5
v -0.8 1.3 0.5
v -0.8 1.3 -0.5
v -0.7 0.1 0.5
v -0.7 0.1 0.3
v -0.7 0.1 -0.3
v -0.7 0.1 -0.4
v -0.7 0.2 0.5
v -0.7 0.2 0.3
v -0.7 0.2 -0.3
v -0.7 0.2 -0.4
v -0.7 1 0.5
v -0.7 1 0.4
v -0.7 1.1 0.4
v -0.7 1.1 -0.6
v -0.7 1.2 0.6
v -0.7 1.2 0.5
v -0.7 1.2 -0.5
v -0.7 1.3 0.6
v -0.7 1.3 0.5
v -0.7 1.3 -0.5
v -0.7 1.3 -0.6
v -0.7 1.4 0.5
v -0.7 1.4 -0.5
v -0.6 0.1 -0.2
v -0.6 0.1 -0.3
v -0.6 0.2 0.4
v -0.6 0.2 0.3
v -0.6 0.2 -0.3
v -0.6 0.3 0.4
v -0.6 0.3 0.3
v -0.6 0.3 -0.2
v -0.6 0.3 -0.3
v -0.6 0.9 0.5
v -0.6 0.9 -0.6
v -0.6 1 0.5
v -0.6 1 0.4
v -0.6 1.1 0.4
v -0.6 1.1 -0.6
v -0.6 1.3 -0.5
v -0.6 1.3 -0.6
v -0.6 1.4 -0.5
v -0.6 1.9 -0.5
v -0.6 1.9 -0.6
v -0.4 0.1 0.3
v -0.4 0.1 -0.2
v -0.4 0.3 0.3
v -0.4 0.3 -0.2
v -0.2 0.5 0.1
v -0.2 0.5 0
v -0.2 0.6 0.1
v -0.2 0.6 0
v -0.1 0.3 0.1
v -0.1 0.3 0
v -0.1 0.5 0.2
v -0.1 0.5 0.1
v -0.1 0.5 0
v -0.1 0.5 -0.2
v -0.1 0.6 0.1
v -0.1 0.6 0
v -0.1 0.6 -0.1
v -0.1 0.6 -0.2
v -0.1 0.7 0.2
v -0.1 0.7 0.1
v -0.1 0.7 0
v -0.1 0.7 -0.1
v -0.1 0.9 0.1
v -0.1 0.9 0
v 0.3 0.2 0.4
v 0.3 0.2 0.3
v 0.3 0.3 0.4
v 0.3 0.3 0.3
v 0.4 0.1 0.5
v 0.4 0.1 0.4
v 0.4 0.1 -0.3
v 0.4 0.1 -0.4
v 0.4 0.2 0.5
v 0.4 0.2 0.4
v 0.4 0.2 -0.3
v 0.4 0.2 -0.4
v 0.6 1.1 0.5
v 0.6 1.1 -0.5
v 0.6 1.2 0.6
v 0.6 1.2 0.5
v 0.6 1.3 0.6
v 0.6 1.3 0.5
v 0.6 1.3 -0.5
v 0.6 1.4 0.5
v 0.6 1.4 -0.5
v 0.7 0 0.6
v 0.7 0 0.5
v 0.7 0 -0.4
v 0.7 0 -0.5
v 0.7 0.1 0.6
v 0.7 0.1 0.5
v 0.7 0.1 -0.4
v 0.7 0.1 -0.5
v -0.7 0 0.6
v -0.7 0 0.5
v -0.7 0 -0.4
v -0.7 0 -0.5
v -0.7 0.1 0.6
v -0.7 0.1 0.5
v -0.7 0.1 -0.4
v -0.7 0.1 -0.5
v -0.6 1.1 0.5
v -0.6 1.1 -0.5
v -0.6 1.2 0.6
v -0.6 1.2 0.5
v -0.6 1.3 0.6
v -0.6 1.3 0.5
v -0.6 1.3 -0.5
v -0.6 1.4 0.5
v -0.6 1.4 -0.5
v -0.4 0.1 0.5
v -0.4 0.1 0.4
v -0.4 0.1 -0.3
v -0.4 0.1 -0.4
v -0.4 0.2 0.5
v -0.4 0.2 0.4
v -0.4 0.2 0.3
v -0.4 0.2 -0.3
v -0.4 0.2 -0.4
v -0.4 0.3 0.4
v -0.4 0.3 0.3
v 0.1 0.3 0.1
v 0.1 0.3 0
v 0.1 0.5 0.2
v 0.1 0.5 0.1
v 0.1 0.5 0
v 0.1 0.5 -0.2
v 0.1 0.6 0.1
v 0.1 0.6 0
v 0.1 0.6 -0.1
v 0.1 0.6 -0.2
v 0.1 0.7 0.2
v 0.1 0.7 0.1
v 0.1 0.7 0
v 0.1 0.7 -0.1
v 0.1 0.9 0.1
v 0.1 0.9 0
v 0.2 0.5 0.1
v 0.2 0.5 0
v 0.2 0.6 0.1
v 0.2 0.6 0
v 0.3 0.2 0.3
v 0.3 0.2 -0.2
v 0.3 0.3 0.3
v 0.3 0.3 -0.2
v 0.4 0.1 0.3
v 0.4 0.1 -0.2
v 0.4 0.2 0.3
v 0.4 0.2 -0.2
v 0.6 0.1 -0.2
v 0.6 0.1 -0.3
v 0.6 0.2 0.4
v 0.6 0.2 0.3
v 0.6 0.2 -0.3
v 0.6 0.3 0.4
v 0.6 0.3 0.3
v 0.6 0.3 -0.2
v 0.6 0.3 -0.3
v 0.6 0.9 0.5
v 0.6 0.9 -0.6
v 0.6 1 0.5
v 0.6 1 0.4
v 0.6 1.1 0.4
v 0.6 1.1 -0.6
v 0.6 1.3 -0.5
v 0.6 1.3 -0.6
v 0.6 1.4 -0.5
v 0.6 1.9 -0.5
v 0.6 1.9 -0.6
v 0.7 0.1 0.5
v 0.7 0.1 0.3
v 0.7 0.1 -0.3
v 0.7 0.1 -0.4
v 0.7 0.2 0.5
v 0.7 0.2 0.3
v 0.7 0.2 -0.3
v 0.7 0.2 -0.4
v 0.7 1 0.5
v 0.7 1 0.4
v 0.7 1.1 0.4
v 0.7 1.1 -0.6
v 0.7 1.2 0.6
v 0.7 1.2 0.5
v 0.7 1.2 -0.5
v 0.7 1.3 0.6
v 0.7 1.3 0.5
v 0.7 1.3 -0.5
v 0.7 1.3 -0.6
v 0.7 1.4 0.5
v 0.7 1.4 -0.5
v 0.8 0 0.6
v 0.8 0 0.5
v 0.8 0 -0.4
v 0.8 0 -0.5
v 0.8 0.1 0.6
v 0.8 0.1 0.5
v 0.8 0.1 -0.4
v 0.8 0.1 -0.5
v 0.8 1.2 0.5
v 0.8 1.2 -0.5
v 0.8 1.3 0.5
v 0.8 1.3 -0.5
v -0.8 0 0.6
v -0.8 0.1 0.6
v -0.7 0 0.6
v -0.7 0.1 0.6
v -0.7 1.2 0.6
v -0.7 1.3 0.6
v -0.6 1.2 0.6
v -0.6 1.3 0.6
v 0.6 1.2 0.6
v 0.6 1.3 0.6
v 0.7 0 0.6
v 0.7 0.1 0.6
v 0.7 1.2 0.6
v 0.7 1.3 0.6
v 0.8 0 0.6
v 0.8 0.1 0.6
v -0.8 1.2 0.5
v -0.8 1.3 0.5
v -0.7 0.1 0.5
v -0.7 0.2 0.5
v -0.7 1 0.5
v -0.7 1.2 0.5
v -0.7 1.3 0.5
v -0.7 1.4 0.5
v -0.6 0.9 0.5
v -0.6 1 0.5
v -0.6 1.1 0.5
v -0.6 1.2 0.5
v -0.6 1.3 0.5
v -0.6 1.4 0.5
v -0.4 0.1 0.5
v -0.4 0.2 0.5
v 0.4 0.1 0.5
v 0.4 0.2 0.5
v 0.6 0.9 0.5
v 0.6 1 0.5
v 0.6 1.1 0.5
v 0.6 1.2 0.5
v 0.6 1.3 0.5
v 0.6 1.4 0.5
v 0.7 0.1 0.5
v 0.7 0.2 0.5
v 0.7 1 0.5
v 0.7 1.2 0.5
v 0.7 1.3 0.5
v 0.7 1.4 0.5
v 0.8 1.2 0.5
v 0.8 1.3 0.5
v -0.6 0.2 0.4
v -0.6 0.3 0.4
v -0.4 0.1 0.4
v -0.4 0.2 0.4
v -0.4 0.3 0.4
v 0.3 0.2 0.4
v 0.3 0.3 0.4
v 0.4 0.1 0.4
v 0.4 0.2 0.4
v 0.6 0.2 0.4
v 0.6 0.3 0.4
v -0.4 0.2 0.3
v -0.4 0.3 0.3
v 0.3 0.2 0.3
v 0.3 0.3 0.3
v -0.1 0.5 0.2
v -0.1 0.7 0.2
v 0.1 0.5 0.2
v 0.1 0.7 0.2
v -0.2 0.5 0.1
v -0.2 0.6 0.1
v -0.1 0.3 0.1
v -0.1 0.5 0.1
v -0.1 0.6 0.1
v -0.1 0.7 0.1
v -0.1 0.9 0.1
v 0.1 0.3 0.1
v 0.1 0.5 0.1
v 0.1 0.6 0.1
v 0.1 0.7 0.1
v 0.1 0.9 0.1
v 0.2 0.5 0.1
v 0.2 0.6 0.1
v -0.6 0.1 -0.2
v -0.6 0.3 -0.2
v -0.4 0.1 -0.2
v -0.4 0.3 -0.2
v 0.3 0.2 -0.2
v 0.3 0.3 -0.2
v 0.4 0.1 -0.2
v 0.4 0.2 -0.2
v 0.6 0.1 -0.2
v 0.6 0.3 -0.2
v -0.7 0.1 -0.3
v -0.7 0.2 -0.3
v -0.6 0.1 -0.3
v -0.6 0.2 -0.3
v 0.6 0.1 -0.3
v 0.6 0.2 -0.3
v 0.7 0.1 -0.3
v 0.7 0.2 -0.3
v -0.8 0 -0.4
v -0.8 0.1 -0.4
v -0.7 0 -0.4
v -0.7 0.1 -0.4
v 0.7 0 -0.4
v 0.7 0.1 -0.4
v 0.8 0 -0.4
v 0.8 0.1 -0.4
v -0.6 1.1 -0.5
v -0.6 1.3 -0.5
v -0.6 1.4 -0.5
v -0.6 1.9 -0.5
v 0.6 1.1 -0.5
v 0.6 1.3 -0.5
v 0.6 1.4 -0.5
v 0.6 1.9 -0.5
v -0.8 0 0.5
v -0.8 0.1 0.5
v -0.7 0 0.5
v -0.7 0.1 0.5
v 0.7 0 0.5
v 0.7 0.1 0.5
v 0.8 0 0.5
v 0.8 0.1 0.5
v -0.7 1 0.4
v -0.7 1.1 0.4
v -0.6 1 0.4
v -0.6 1.1 0.4
v 0.6 1 0.4
v 0.6 1.1 0.4
v 0.7 1 0.4
v 0.7 1.1 0.4
v -0.7 0.1 0.3
v -0.7 0.2 0.3
v -0.6 0.2 0.3
v -0.6 0.3 0.3
v -0.4 0.1 0.3
v -0.4 0.3 0.3
v 0.3 0.2 0.3
v 0.3 0.3 0.3
v 0.4 0.1 0.3
v 0.4 0.2 0.3
v 0.6 0.2 0.3
v 0.6 0.3 0.3
v 0.7 0.1 0.3
v 0.7 0.2 0.3
v -0.2 0.5 0
v -0.2 0.6 0
v -0.1 0.3 0
v -0.1 0.5 0
v -0.1 0.6 0
v -0.1 0.7 0
v -0.1 0.9 0
v 0.1 0.3 0
v 0.1 0.5 0
v 0.1 0.6 0
v 0.1 0.7 0
v 0.1 0.9 0
v 0.2 0.5 0
v 0.2 0.6 0
v -0.1 0.6 -0.1
v -0.1 0.7 -0.1
v 0.1 0.6 -0.1
v 0.1 0.7 -0.1
v -0.1 0.5 -0.2
v -0.1 0.6 -0.2
v 0.1 0.5 -0.2
v 0.1 0.6 -0.2
v -0.6 0.2 -0.3
v -0.6 0.3 -0.3
v -0.4 0.1 -0.3
v -0.4 0.2 -0.3
v 0.4 0.1 -0.3
v 0.4 0.2 -0.3
v 0.6 0.2 -0.3
v 0.6 0.3 -0.3
v -0.7 0.1 -0.4
v -0.7 0.2 -0.4
v -0.4 0.1 -0.4
v -0.4 0.2 -0.4
v 0.4 0.1 -0.4
v 0.4 0.2 -0.4
v 0.7 0.1 -0.4
v 0.7 0.2 -0.4
v -0.8 0 -0.5
v -0.8 0.1 -0.5
v -0.8 1.2 -0.5
v -0.8 1.3 -0.5
v -0.7 0 -0.5
v -0.7 0.1 -0.5
v -0.7 1.2 -0.5
v -0.7 1.3 -0.5
v -0.7 1.4 -0.5
v -0.6 1.3 -0.5
v -0.6 1.4 -0.5
v 0.6 1.3 -0.5
v 0.6 1.4 -0.5
v 0.7 0 -0.5
v 0.7 0.1 -0.5
v 0.7 1.2 -0.5
v 0.7 1.3 -0.5
v 0.7 1.4 -0.5
v 0.8 0 -0.5
v 0.8 0.1 -0.5
v 0.8 1.2 -0.5
v 0.8 1.3 -0.5
v -0.7 1.1 -0.6
v -0.7 1.3 -0.6
v -0.6 0.9 -0.6
v -0.6 1.1 -0.6
v -0.6 1.3 -0.6
v -0.6 1.9 -0.6
v 0.6 0.9 -0.6
v 0.6 1.1 -0.6
v 0.6 1.3 -0.6
v 0.6 1.9 -0.6
v 0.7 1.1 -0.6
v 0.7 1.3 -0.6
v -0.8 0 0.6
v -0.7 0 0.6
v 0.7 0 0.6
v 0.8 0 0.6
v -0.8 0 0.5
v -0.7 0 0.5
v 0.7 0 0.5
v 0.8 0 0.5
v -0.8 0 -0.4
v -0.7 0 -0.4
v 0.7 0 -0.4
v 0.8 0 -0.4
v -0.8 0 -0.5
v -0.7 0 -0.5
v 0.7 0 -0.5
v 0.8 0 -0.5
v -0.7 0.1 0.5
v -0.4 0.1 0.5
v 0.4 0.1 0.5
v 0.7 0.1 0.5
v -0.4 0.1 0.4
v 0.4 0.1 0.4
v -0.7 0.1 0.3
v -0.4 0.1 0.3
v 0.4 0.1 0.3
v 0.7 0.1 0.3
v -0.6 0.1 -0.2
v -0.4 0.1 -0.2
v 0.4 0.1 -0.2
v 0.6 0.1 -0.2
v -0.7 0.1 -0.3
v -0.6 0.1 -0.3
v -0.4 0.1 -0.3
v 0.4 0.1 -0.3
v 0.6 0.1 -0.3
v 0.7 0.1 -0.3
v -0.7 0.1 -0.4
v -0.4 0.1 -0.4
v 0.4 0.1 -0.4
v 0.7 0.1 -0.4
v -0.1 0.5 0.2
v 0.1 0.5 0.2
v -0.2 0.5 0.1
v -0.1 0.5 0.1
v 0.1 0.5 0.1
v 0.2 0.5 0.1
v -0.2 0.5 0
v -0.1 0.5 0
v 0.1 0.5 0
v 0.2 0.5 0
v -0.1 0.5 -0.2
v 0.1 0.5 -0.2
v -0.6 0.9 0.5
v 0.6 0.9 0.5
v -0.1 0.9 0.1
v 0.1 0.9 0.1
v -0.1 0.9 0
v 0.1 0.9 0
v -0.1 0.9 -0.2
v 0.1 0.9 -0.2
v -0.6 0.9 -0.6
v 0.6 0.9 -0.6
v -0.7 1 0.5
v -0.6 1 0.5
v 0.6 1 0.5
v 0.7 1 0.5
v -0.7 1 0.4
v -0.6 1 0.4
v 0.6 1 0.4
v 0.7 1 0.4
v -0.7 1.1 0.4
v -0.6 1.1 0.4
v 0.6 1.1 0.4
v 0.7 1.1 0.4
v -0.7 1.1 -0.6
v -0.6 1.1 -0.6
v 0.6 1.1 -0.6
v 0.7 1.1 -0.6
v -0.7 1.2 0.6
v -0.6 1.2 0.6
v 0.6 1.2 0.6
v 0.7 1.2 0.6
v -0.8 1.2 0.5
v -0.7 1.2 0.5
v -0.6 1.2 0.5
v 0.6 1.2 0.5
v 0.7 1.2 0.5
v 0.8 1.2 0.5
v -0.8 1.2 -0.5
v -0.7 1.2 -0.5
v 0.7 1.2 -0.5
v 0.8 1.2 -0.5
v -0.8 0.1 0.6
v -0.7 0.1 0.6
v 0.7 0.1 0.6
v 0.8 0.1 0.6
v -0.8 0.1 0.5
v -0.7 0.1 0.5
v 0.7 0.1 0.5
v 0.8 0.1 0.5
v -0.8 0.1 -0.4
v -0.7 0.1 -0.4
v 0.7 0.1 -0.4
v 0.8 0.1 -0.4
v -0.8 0.1 -0.5
v -0.7 0.1 -0.5
v 0.7 0.1 -0.5
v 0.8 0.1 -0.5
v -0.7 0.2 0.5
v -0.4 0.2 0.5
v 0.4 0.2 0.5
v 0.7 0.2 0.5
v -0.6 0.2 0.4
v -0.4 0.2 0.4
v 0.3 0.2 0.4
v 0.4 0.2 0.4
v 0.6 0.2 0.4
v -0.7 0.2 0.3
v -0.6 0.2 0.3
v -0.4 0.2 0.3
v 0.3 0.2 0.3
v 0.4 0.2 0.3
v 0.6 0.2 0.3
v 0.7 0.2 0.3
v 0.3 0.2 -0.2
v 0.4 0.2 -0.2
v -0.7 0.2 -0.3
v -0.6 0.2 -0.3
v -0.4 0.2 -0.3
v 0.4 0.2 -0.3
v 0.6 0.2 -0.3
v 0.7 0.2 -0.3
v -0.7 0.2 -0.4
v -0.4 0.2 -0.4
v 0.4 0.2 -0.4
v 0.7 0.2 -0.4
v -0.6 0.3 0.4
v -0.4 0.3 0.4
v 0.3 0.3 0.4
v 0.6 0.3 0.4
v -0.6 0.3 0.3
v -0.4 0.3 0.3
v 0.3 0.3 0.3
v 0.6 0.3 0.3
v -0.1 0.3 0.1
v 0.1 0.3 0.1
v -0.1 0.3 0
v 0.1 0.3 0
v -0.6 0.3 -0.2
v -0.4 0.3 -0.2
v 0.3 0.3 -0.2
v 0.6 0.3 -0.2
v -0.6 0.3 -0.3
v 0.6 0.3 -0.3
v -0.2 0.6 0.1
v -0.1 0.6 0.1
v 0.1 0.6 0.1
v 0.2 0.6 0.1
v -0.2 0.6 0
v -0.1 0.6 0
v 0.1 0.6 0
v 0.2 0.6 0
v -0.1 0.6 -0.1
v 0.1 0.6 -0.1
v -0.1 0.6 -0.2
v 0.1 0.6 -0.2
v -0.1 0.7 0.2
v 0.1 0.7 0.2
v -0.1 0.7 0.1
v 0.1 0.7 0.1
v -0.1 0.7 0
v 0.1 0.7 0
v -0.1 0.7 -0.1
v 0.1 0.7 -0.1
v -0.6 1.1 0.5
v 0.6 1.1 0.5
v -0.6 1.1 -0.5
v 0.6 1.1 -0.5
v -0.7 1.3 0.6
v -0.6 1.3 0.6
v 0.6 1.3 0.6
v 0.7 1.3 0.6
v -0.8 1.3 0.5
v -0.7 1.3 0.5
v -0.6 1.3 0.5
v 0.6 1.3 0.5
v 0.7 1.3 0.5
v 0.8 1.3 0.5
v -0.8 1.3 -0.5
v -0.7 1.3 -0.5
v -0.6 1.3 -0.5
v 0.6 1.3 -0.5
v 0.7 1.3 -0.5
v 0.8 1.3 -0.5
v -0.7 1.3 -0.6
v -0.6 1.3 -0.6
v 0.6 1.3 -0.6
v 0.7 1.3 -0.6
v -0.7 1.4 0.5
v -0.6 1.4 0.5
v 0.6 1.4 0.5
v 0.7 1.4 0.5
v -0.7 1.4 -0.5
v -0.6 1.4 -0.5
v 0.6 1.4 -0.5
v 0.7 1.4 -0.5
v -0.6 1.9 -0.5
v 0.6 1.9 -0.5
v -0.6 1.9 -0.6
v 0.6 1.9 -0.6

# faces
f 5/3/1 2/3/1 1/3/1
f 6/3/1 2/3/1 5/3/1
f 7/3/1 4/3/1 3/3/1
f 8/3/1 4/3/1 7/3/1
f 11/1/1 10/1/1 9/1/1
f 12/1/1 10/1/1 11/1/1
f 17/2/1 14/2/1 13/2/1
f 18/2/1 14/2/1 17/2/1
f 19/2/1 16/2/1 15/2/1
f 20/2/1 16/2/1 19/2/1
f 23/2/1 22/2/1 21/2/1
f 26/2/1 23/2/1 21/2/1
f 26/2/1 24/2/1 23/2/1
f 27/2/1 24/2/1 26/2/1
f 28/1/1 26/1/1 25/1/1
f 29/1/1 26/1/1 28/1/1
f 30/2/1 24/2/1 27/2/1
f 31/2/1 24/2/1 30/2/1
f 32/1/1 30/1/1 29/1/1
f 33/1/1 30/1/1 32/1/1
f 38/2/1 35/2/1 34/2/1
f 39/2/1 37/2/1 36/2/1
f 40/2/1 37/2/1 39/2/1
f 41/2/1 38/2/1 34/2/1
f 42/2/1 38/2/1 41/2/1
f 45/1/1 44/1/1 43/1/1
f 46/1/1 44/1/1 45/1/1
f 47/1/1 44/1/1 46/1/1
f 48/1/1 44/1/1 47/1/1
f 51/1/1 50/1/1 49/1/1
f 52/1/1 50/1/1 51/1/1
f 53/1/1 50/1/1 52/1/1
f 56/2/1 55/2/1 54/2/1
f 57/2/1 55/2/1 56/2/1
f 60/2/1 59/2/1 58/2/1
f 61/2/1 59/2/1 60/2/1
f 65/2/1 63/2/1 62/2/1
f 66/2/1 63/2/1 65/2/1
f 68/2/1 65/2/1 64/2/1
f 69/2/1 67/2/1 66/2/1
f 70/2/1 67/2/1 69/2/1
f 71/2/1 67/2/1 70/2/1
f 72/2/1 68/2/1 64/2/1
f 72/2/1 69/2/1 68/2/1
f 72/2/1 70/2/1 69/2/1
f 73/2/1 70/2/1 72/2/1
f 74/2/1 70/2/1 73/2/1
f 75/2/1 70/2/1 74/2/1
f 76/2/1 74/2/1 73/2/1
f 77/2/1 74/2/1 76/2/1
f 80/2/1 79/2/1 78/2/1
f 81/2/1 79/2/1 80/2/1
f 86/2/1 83/2/1 82/2/1
f 87/2/1 83/2/1 86/2/1
f 88/2/1 85/2/1 84/2/1
f 89/2/1 85/2/1 88/2/1
f 93/2/1 91/2/1 90/2/1
f 94/1/1 93/1/1 92/1/1
f 95/2/1 91/2/1 93/2/1
f 95/1/1 93/1/1 94/1/1
f 96/2/1 91/2/1 95/2/1
f 97/1/1 96/1/1 95/1/1
f 98/1/1 96/1/1 97/1/1
f 103/3/1 100/3/1 99/3/1
f 104/3/1 100/3/1 103/3/1
f 105/3/1 102/3/1 101/3/1
f 106/3/1 102/3/1 105/3/1
f 107/3/2 108/3/2 111/3/2
f 111/3/2 108/3/2 112/3/2
f 109/3/2 110/3/2 113/3/2
f 113/3/2 110/3/2 114/3/2
f 115/2/2 116/2/2 118/2/2
f 117/1/2 118/1/2 119/1/2
f 118/2/2 116/2/2 120/2/2
f 119/1/2 118/1/2 120/1/2
f 120/2/2 116/2/2 121/2/2
f 120/1/2 121/1/2 122/1/2
f 122/1/2 121/1/2 123/1/2
f 124/2/2 125/2/2 128/2/2
f 128/2/2 125/2/2 129/2/2
f 126/2/2 127/2/2 131/2/2
f 131/2/2 127/2/2 132/2/2
f 129/2/2 130/2/2 133/2/2
f 133/2/2 130/2/2 134/2/2
f 135/2/2 136/2/2 138/2/2
f 138/2/2 136/2/2 139/2/2
f 137/2/2 138/2/2 141/2/2
f 139/2/2 140/2/2 142/2/2
f 142/2/2 140/2/2 143/2/2
f 143/2/2 140/2/2 144/2/2
f 137/2/2 141/2/2 145/2/2
f 141/2/2 142/2/2 145/2/2
f 142/2/2 143/2/2 145/2/2
f 145/2/2 143/2/2 146/2/2
f 146/2/2 143/2/2 147/2/2
f 147/2/2 143/2/2 148/2/2
f 146/2/2 147/2/2 149/2/2
f 149/2/2 147/2/2 150/2/2
f 151/2/2 152/2/2 153/2/2
f 153/2/2 152/2/2 154/2/2
f 155/2/2 156/2/2 157/2/2
f 157/2/2 156/2/2 158/2/2
f 159/2/2 160/2/2 161/2/2
f 161/2/2 160/2/2 162/2/2
f 163/2/2 164/2/2 167/2/2
f 165/2/2 166/2/2 168/2/2
f 168/2/2 166/2/2 169/2/2
f 163/2/2 167/2/2 170/2/2
f 170/2/2 167/2/2 171/2/2
f 172/1/2 173/1/2 174/1/2
f 174/1/2 173/1/2 175/1/2
f 175/1/2 173/1/2 176/1/2
f 176/1/2 173/1/2 177/1/2
f 178/1/2 179/1/2 180/1/2
f 180/1/2 179/1/2 181/1/2
f 181/1/2 179/1/2 182/1/2
f 183/2/2 184/2/2 187/2/2
f 187/2/2 184/2/2 188/2/2
f 185/2/2 186/2/2 189/2/2
f 189/2/2 186/2/2 190/2/2
f 191/2/2 192/2/2 193/2/2
f 191/2/2 193/2/2 196/2/2
f 193/2/2 194/2/2 196/2/2
f 196/2/2 194/2/2 197/2/2
f 195/1/2 196/1/2 198/1/2
f 198/1/2 196/1/2 199/1/2
f 197/2/2 194/2/2 200/2/2
f 200/2/2 194/2/2 201/2/2
f 199/1/2 200/1/2 202/1/2
f 202/1/2 200/1/2 203/1/2
f 204/3/2 205/3/2 208/3/2
f 208/3/2 205/3/2 209/3/2
f 206/3/2 207/3/2 210/3/2
f 210/3/2 207/3/2 211/3/2
f 212/1/2 213/1/2 214/1/2
f 214/1/2 213/1/2 215/1/2
f 218/3/3 217/3/3 216/3/3
f 219/3/3 217/3/3 218/3/3
f 222/1/3 221/1/3 220/1/3
f 223/1/3 221/1/3 222/1/3
f 228/1/3 225/1/3 224/1/3
f 229/1/3 225/1/3 228/1/3
f 230/3/3 227/3/3 226/3/3
f 231/3/3 227/3/3 230/3/3
f 237/1/3 233/1/3 232/1/3
f 238/1/3 233/1/3 237/1/3
f 241/2/3 237/2/3 236/2/3
f 242/2/3 237/2/3 241/2/3
f 243/2/3 237/2/3 242/2/3
f 244/1/3 239/1/3 238/1/3
f 245/1/3 239/1/3 244/1/3
f 246/2/3 235/2/3 234/2/3
f 247/2/3 235/2/3 246/2/3
f 250/1/3 241/1/3 240/1/3
f 250/1/3 242/1/3 241/1/3
f 251/1/3 242/1/3 250/1/3
f 252/1/3 242/1/3 251/1/3
f 256/2/3 249/2/3 248/2/3
f 257/2/3 249/2/3 256/2/3
f 258/2/3 253/2/3 252/2/3
f 258/2/3 252/2/3 251/2/3
f 259/2/3 253/2/3 258/2/3
f 260/1/3 255/1/3 254/1/3
f 261/1/3 255/1/3 260/1/3
f 262/1/3 260/1/3 259/1/3
f 263/1/3 260/1/3 262/1/3
f 267/2/3 265/2/3 264/2/3
f 268/2/3 265/2/3 267/2/3
f 269/2/3 267/2/3 266/2/3
f 271/2/3 269/2/3 266/2/3
f 271/2/3 270/2/3 269/2/3
f 272/2/3 270/2/3 271/2/3
f 273/2/3 270/2/3 272/2/3
f 274/2/3 270/2/3 273/2/3
f 277/2/3 276/2/3 275/2/3
f 278/2/3 276/2/3 277/2/3
f 281/2/3 280/2/3 279/2/3
f 282/2/3 280/2/3 281/2/3
f 286/2/3 284/2/3 283/2/3
f 287/2/3 284/2/3 286/2/3
f 290/2/3 286/2/3 285/2/3
f 291/2/3 286/2/3 290/2/3
f 293/2/3 289/2/3 288/2/3
f 294/2/3 289/2/3 293/2/3
f 295/2/3 292/2/3 291/2/3
f 296/2/3 292/2/3 295/2/3
f 299/2/3 298/2/3 297/2/3
f 300/2/3 298/2/3 299/2/3
f 304/2/3 302/2/3 301/2/3
f 305/2/3 304/2/3 303/2/3
f 306/2/3 302/2/3 304/2/3
f 306/2/3 304/2/3 305/2/3
f 309/2/3 308/2/3 307/2/3
f 310/2/3 308/2/3 309/2/3
f 313/2/3 312/2/3 311/2/3
f 314/2/3 312/2/3 313/2/3
f 317/3/3 316/3/3 315/3/3
f 318/3/3 316/3/3 317/3/3
f 321/3/3 320/3/3 319/3/3
f 322/3/3 320/3/3 321/3/3
f 327/1/3 324/1/3 323/1/3
f 327/1/3 326/1/3 325/1/3
f 327/1/3 325/1/3 324/1/3
f 328/1/3 326/1/3 327/1/3
f 329/1/3 326/1/3 328/1/3
f 330/1/3 326/1/3 329/1/3
f 331/3/4 332/3/4 333/3/4
f 333/3/4 332/3/4 334/3/4
f 335/3/4 336/3/4 337/3/4
f 337/3/4 336/3/4 338/3/4
f 339/2/4 340/2/4 341/2/4
f 341/2/4 340/2/4 342/2/4
f 343/2/4 344/2/4 345/2/4
f 345/2/4 344/2/4 346/2/4
f 347/2/4 348/2/4 349/2/4
f 347/2/4 349/2/4 351/2/4
f 349/2/4 350/2/4 351/2/4
f 351/2/4 350/2/4 352/2/4
f 353/2/4 354/2/4 356/2/4
f 356/2/4 354/2/4 357/2/4
f 355/2/4 356/2/4 357/2/4
f 357/2/4 354/2/4 358/2/4
f 355/2/4 357/2/4 359/2/4
f 359/2/4 357/2/4 360/2/4
f 361/2/4 362/2/4 364/2/4
f 364/2/4 362/2/4 365/2/4
f 363/2/4 364/2/4 368/2/4
f 368/2/4 364/2/4 369/2/4
f 366/2/4 367/2/4 371/2/4
f 371/2/4 367/2/4 372/2/4
f 369/2/4 370/2/4 373/2/4
f 373/2/4 370/2/4 374/2/4
f 375/2/4 376/2/4 377/2/4
f 377/2/4 376/2/4 378/2/4
f 379/2/4 380/2/4 381/2/4
f 381/2/4 380/2/4 382/2/4
f 383/2/4 384/2/4 386/2/4
f 385/2/4 386/2/4 387/2/4
f 386/2/4 384/2/4 388/2/4
f 387/2/4 386/2/4 388/2/4
f 388/2/4 384/2/4 389/2/4
f 389/2/4 384/2/4 390/2/4
f 391/2/4 392/2/4 393/2/4
f 393/2/4 392/2/4 394/2/4
f 395/2/4 396/2/4 397/2/4
f 397/2/4 396/2/4 398/2/4
f 399/3/4 400/3/4 403/3/4
f 403/3/4 400/3/4 404/3/4
f 401/1/4 402/1/4 405/1/4
f 405/1/4 402/1/4 406/1/4
f 406/1/4 407/1/4 408/1/4
f 408/1/4 407/1/4 409/1/4
f 410/1/4 411/1/4 415/1/4
f 415/1/4 411/1/4 416/1/4
f 412/3/4 413/3/4 417/3/4
f 417/3/4 413/3/4 418/3/4
f 414/1/4 415/1/4 419/1/4
f 419/1/4 415/1/4 420/1/4
f 421/2/4 422/2/4 424/2/4
f 424/2/4 422/2/4 425/2/4
f 423/1/4 424/1/4 427/1/4
f 425/1/4 426/1/4 427/1/4
f 424/1/4 425/1/4 427/1/4
f 427/1/4 426/1/4 428/1/4
f 428/1/4 426/1/4 429/1/4
f 429/1/4 426/1/4 430/1/4
f 428/2/4 429/2/4 431/2/4
f 431/2/4 429/2/4 432/2/4
f 437/3/5 434/3/5 433/3/5
f 438/3/5 434/3/5 437/3/5
f 439/3/5 436/3/5 435/3/5
f 440/3/5 436/3/5 439/3/5
f 445/3/5 442/3/5 441/3/5
f 446/3/5 442/3/5 445/3/5
f 447/3/5 444/3/5 443/3/5
f 448/3/5 444/3/5 447/3/5
f 453/2/5 450/2/5 449/2/5
f 454/2/5 452/2/5 451/2/5
f 455/2/5 453/2/5 449/2/5
f 455/2/5 454/2/5 453/2/5
f 456/2/5 454/2/5 455/2/5
f 457/2/5 452/2/5 454/2/5
f 457/2/5 454/2/5 456/2/5
f 458/2/5 452/2/5 457/2/5
f 460/2/5 457/2/5 456/2/5
f 461/2/5 457/2/5 460/2/5
f 464/2/5 460/2/5 459/2/5
f 464/2/5 462/2/5 461/2/5
f 464/2/5 461/2/5 460/2/5
f 465/2/5 462/2/5 464/2/5
f 466/2/5 462/2/5 465/2/5
f 467/2/5 462/2/5 466/2/5
f 469/2/5 464/2/5 463/2/5
f 469/2/5 465/2/5 464/2/5
f 470/2/5 465/2/5 469/2/5
f 471/2/5 468/2/5 467/2/5
f 471/2/5 467/2/5 466/2/5
f 472/2/5 468/2/5 471/2/5
f 476/2/5 474/2/5 473/2/5
f 477/2/5 474/2/5 476/2/5
f 479/2/5 476/2/5 475/2/5
f 480/2/5 476/2/5 479/2/5
f 481/2/5 478/2/5 477/2/5
f 482/2/5 478/2/5 481/2/5
f 483/2/5 481/2/5 480/2/5
f 484/2/5 481/2/5 483/2/5
f 487/1/5 486/1/5 485/1/5
f 488/1/5 486/1/5 487/1/5
f 489/1/5 487/1/5 485/1/5
f 490/1/5 486/1/5 488/1/5
f 491/1/5 489/1/5 485/1/5
f 491/2/5 490/2/5 489/2/5
f 492/1/5 486/1/5 490/1/5
f 492/2/5 490/2/5 491/2/5
f 493/1/5 491/1/5 485/1/5
f 493/1/5 492/1/5 491/1/5
f 494/1/5 486/1/5 492/1/5
f 494/1/5 492/1/5 493/1/5
f 499/2/5 496/2/5 495/2/5
f 500/2/5 496/2/5 499/2/5
f 501/2/5 498/2/5 497/2/5
f 502/2/5 498/2/5 501/2/5
f 507/2/5 504/2/5 503/2/5
f 508/2/5 504/2/5 507/2/5
f 509/2/5 506/2/5 505/2/5
f 510/2/5 506/2/5 509/2/5
f 516/1/5 512/1/5 511/1/5
f 517/1/5 512/1/5 516/1/5
f 518/1/5 514/1/5 513/1/5
f 519/1/5 514/1/5 518/1/5
f 521/1/5 516/1/5 515/1/5
f 522/1/5 516/1/5 521/1/5
f 523/1/5 520/1/5 519/1/5
f 524/1/5 520/1/5 523/1/5
f 525/3/6 526/3/6 529/3/6
f 529/3/6 526/3/6 530/3/6
f 527/3/6 528/3/6 531/3/6
f 531/3/6 528/3/6 532/3/6
f 533/3/6 534/3/6 537/3/6
f 537/3/6 534/3/6 538/3/6
f 535/3/6 536/3/6 539/3/6
f 539/3/6 536/3/6 540/3/6
f 541/2/6 542/2/6 545/2/6
f 545/2/6 542/2/6 546/2/6
f 543/2/6 544/2/6 548/2/6
f 548/2/6 544/2/6 549/2/6
f 541/2/6 545/2/6 550/2/6
f 550/2/6 545/2/6 551/2/6
f 546/2/6 547/2/6 552/2/6
f 552/2/6 547/2/6 553/2/6
f 549/2/6 544/2/6 555/2/6
f 555/2/6 544/2/6 556/2/6
f 553/2/6 554/2/6 557/2/6
f 557/2/6 554/2/6 558/2/6
f 560/2/6 561/2/6 565/2/6
f 559/2/6 560/2/6 565/2/6
f 565/2/6 561/2/6 566/2/6
f 563/2/6 564/2/6 567/2/6
f 562/2/6 563/2/6 567/2/6
f 567/2/6 564/2/6 568/2/6
f 569/2/6 570/2/6 573/2/6
f 573/2/6 570/2/6 574/2/6
f 571/2/6 572/2/6 575/2/6
f 575/2/6 572/2/6 576/2/6
f 574/2/6 575/2/6 577/2/6
f 577/2/6 575/2/6 578/2/6
f 574/2/6 577/2/6 579/2/6
f 578/2/6 575/2/6 580/2/6
f 574/2/6 579/2/6 582/2/6
f 579/2/6 580/2/6 582/2/6
f 580/2/6 575/2/6 583/2/6
f 582/2/6 580/2/6 583/2/6
f 581/2/6 582/2/6 585/2/6
f 583/2/6 584/2/6 585/2/6
f 582/2/6 583/2/6 585/2/6
f 585/2/6 584/2/6 586/2/6
f 587/2/6 588/2/6 591/2/6
f 591/2/6 588/2/6 592/2/6
f 589/2/6 590/2/6 593/2/6
f 593/2/6 590/2/6 594/2/6
f 595/2/6 596/2/6 597/2/6
f 597/2/6 596/2/6 598/2/6
f 599/2/6 600/2/6 601/2/6
f 601/2/6 600/2/6 602/2/6
f 603/2/6 604/2/6 605/2/6
f 605/2/6 604/2/6 606/2/6
f 607/1/6 608/1/6 609/1/6
f 609/1/6 608/1/6 610/1/6
f 611/1/6 612/1/6 616/1/6
f 616/1/6 612/1/6 617/1/6
f 613/1/6 614/1/6 618/1/6
f 618/1/6 614/1/6 619/1/6
f 615/1/6 616/1/6 621/1/6
f 621/1/6 616/1/6 622/1/6
f 619/1/6 620/1/6 625/1/6
f 625/1/6 620/1/6 626/1/6
f 622/2/6 623/2/6 627/2/6
f 627/2/6 623/2/6 628/2/6
f 624/2/6 625/2/6 629/2/6
f 629/2/6 625/2/6 630/2/6
f 631/1/6 632/1/6 635/1/6
f 635/1/6 632/1/6 636/1/6
f 633/1/6 634/1/6 637/1/6
f 637/1/6 634/1/6 638/1/6
f 639/1/6 640/1/6 641/1/6
f 641/1/6 640/1/6 642/1/6
