# MagicaVoxel @ Ephtracy

# group
o 

# material
mtllib White_Tiles.vox.mtl
usemtl palette

# normals
vn -1 0 0
vn 1 0 0
vn 0 0 1
vn 0 0 -1
vn 0 -1 0
vn 0 1 0

# texcoords
vt 0.919922 0.5
vt 0.962891 0.5
vt 0.994141 0.5

# verts
v -0.8 0 0.8
v -0.8 0 -0.8
v -0.8 0.1 0.7
v -0.8 0.1 0.1
v -0.8 0.1 -0.1
v -0.8 0.1 -0.7
v -0.8 0.7 0.7
v -0.8 0.7 0.1
v -0.8 0.7 -0.1
v -0.8 0.7 -0.7
v -0.8 0.9 0.7
v -0.8 0.9 0.1
v -0.8 0.9 -0.1
v -0.8 0.9 -0.7
v -0.8 1.5 0.7
v -0.8 1.5 0.1
v -0.8 1.5 -0.1
v -0.8 1.5 -0.7
v -0.8 1.6 0.8
v -0.8 1.6 -0.8
v 0.8 0 0.8
v 0.8 0 -0.8
v 0.8 0.1 0.7
v 0.8 0.1 0.1
v 0.8 0.1 -0.1
v 0.8 0.1 -0.7
v 0.8 0.7 0.7
v 0.8 0.7 0.1
v 0.8 0.7 -0.1
v 0.8 0.7 -0.7
v 0.8 0.9 0.7
v 0.8 0.9 0.1
v 0.8 0.9 -0.1
v 0.8 0.9 -0.7
v 0.8 1.5 0.7
v 0.8 1.5 0.1
v 0.8 1.5 -0.1
v 0.8 1.5 -0.7
v 0.8 1.6 0.8
v 0.8 1.6 -0.8
v -0.8 0 0.8
v -0.8 1.6 0.8
v -0.7 0.1 0.8
v -0.7 0.7 0.8
v -0.7 0.9 0.8
v -0.7 1.5 0.8
v -0.1 0.1 0.8
v -0.1 0.7 0.8
v -0.1 0.9 0.8
v -0.1 1.5 0.8
v 0.1 0.1 0.8
v 0.1 0.7 0.8
v 0.1 0.9 0.8
v 0.1 1.5 0.8
v 0.7 0.1 0.8
v 0.7 0.7 0.8
v 0.7 0.9 0.8
v 0.7 1.5 0.8
v 0.8 0 0.8
v 0.8 1.6 0.8
v -0.8 0 -0.8
v -0.8 1.6 -0.8
v -0.7 0.1 -0.8
v -0.7 0.7 -0.8
v -0.7 0.9 -0.8
v -0.7 1.5 -0.8
v -0.1 0.1 -0.8
v -0.1 0.7 -0.8
v -0.1 0.9 -0.8
v -0.1 1.5 -0.8
v 0.1 0.1 -0.8
v 0.1 0.7 -0.8
v 0.1 0.9 -0.8
v 0.1 1.5 -0.8
v 0.7 0.1 -0.8
v 0.7 0.7 -0.8
v 0.7 0.9 -0.8
v 0.7 1.5 -0.8
v 0.8 0 -0.8
v 0.8 1.6 -0.8
v -0.8 0 0.8
v 0.8 0 0.8
v -0.7 0 0.7
v -0.1 0 0.7
v 0.1 0 0.7
v 0.7 0 0.7
v -0.7 0 0.1
v -0.1 0 0.1
v 0.1 0 0.1
v 0.7 0 0.1
v -0.7 0 -0.1
v -0.1 0 -0.1
v 0.1 0 -0.1
v 0.7 0 -0.1
v -0.7 0 -0.7
v -0.1 0 -0.7
v 0.1 0 -0.7
v 0.7 0 -0.7
v -0.8 0 -0.8
v 0.8 0 -0.8
v -0.8 1.6 0.8
v 0.8 1.6 0.8
v -0.7 1.6 0.7
v -0.1 1.6 0.7
v 0.1 1.6 0.7
v 0.7 1.6 0.7
v -0.7 1.6 0.1
v -0.1 1.6 0.1
v 0.1 1.6 0.1
v 0.7 1.6 0.1
v -0.7 1.6 -0.1
v -0.1 1.6 -0.1
v 0.1 1.6 -0.1
v 0.7 1.6 -0.1
v -0.7 1.6 -0.7
v -0.1 1.6 -0.7
v 0.1 1.6 -0.7
v 0.7 1.6 -0.7
v -0.8 1.6 -0.8
v 0.8 1.6 -0.8

# faces
f 3/3/1 2/3/1 1/3/1
f 4/3/1 2/3/1 3/3/1
f 5/3/1 2/3/1 4/3/1
f 6/3/1 2/3/1 5/3/1
f 7/3/1 3/3/1 1/3/1
f 7/1/1 4/1/1 3/1/1
f 8/3/1 5/3/1 4/3/1
f 8/1/1 4/1/1 7/1/1
f 9/2/1 6/2/1 5/2/1
f 9/3/1 5/3/1 8/3/1
f 10/3/1 2/3/1 6/3/1
f 10/2/1 6/2/1 9/2/1
f 11/3/1 9/3/1 8/3/1
f 11/3/1 8/3/1 7/3/1
f 11/3/1 10/3/1 9/3/1
f 11/3/1 7/3/1 1/3/1
f 12/3/1 10/3/1 11/3/1
f 13/3/1 10/3/1 12/3/1
f 14/3/1 2/3/1 10/3/1
f 14/3/1 10/3/1 13/3/1
f 15/3/1 11/3/1 1/3/1
f 15/2/1 12/2/1 11/2/1
f 16/3/1 13/3/1 12/3/1
f 16/2/1 12/2/1 15/2/1
f 17/1/1 14/1/1 13/1/1
f 17/3/1 13/3/1 16/3/1
f 18/3/1 2/3/1 14/3/1
f 18/1/1 14/1/1 17/1/1
f 19/3/1 15/3/1 1/3/1
f 19/3/1 17/3/1 16/3/1
f 19/3/1 18/3/1 17/3/1
f 19/3/1 16/3/1 15/3/1
f 20/3/1 2/3/1 18/3/1
f 20/3/1 18/3/1 19/3/1
f 21/3/2 22/3/2 23/3/2
f 23/3/2 22/3/2 24/3/2
f 24/3/2 22/3/2 25/3/2
f 25/3/2 22/3/2 26/3/2
f 21/3/2 23/3/2 27/3/2
f 23/2/2 24/2/2 27/2/2
f 24/3/2 25/3/2 28/3/2
f 27/2/2 24/2/2 28/2/2
f 25/1/2 26/1/2 29/1/2
f 28/3/2 25/3/2 29/3/2
f 26/3/2 22/3/2 30/3/2
f 29/1/2 26/1/2 30/1/2
f 28/3/2 29/3/2 31/3/2
f 27/3/2 28/3/2 31/3/2
f 29/3/2 30/3/2 31/3/2
f 21/3/2 27/3/2 31/3/2
f 31/3/2 30/3/2 32/3/2
f 32/3/2 30/3/2 33/3/2
f 30/3/2 22/3/2 34/3/2
f 33/3/2 30/3/2 34/3/2
f 21/3/2 31/3/2 35/3/2
f 31/1/2 32/1/2 35/1/2
f 32/3/2 33/3/2 36/3/2
f 35/1/2 32/1/2 36/1/2
f 33/2/2 34/2/2 37/2/2
f 36/3/2 33/3/2 37/3/2
f 34/3/2 22/3/2 38/3/2
f 37/2/2 34/2/2 38/2/2
f 21/3/2 35/3/2 39/3/2
f 36/3/2 37/3/2 39/3/2
f 37/3/2 38/3/2 39/3/2
f 35/3/2 36/3/2 39/3/2
f 38/3/2 22/3/2 40/3/2
f 39/3/2 38/3/2 40/3/2
f 43/3/3 42/3/3 41/3/3
f 44/3/3 42/3/3 43/3/3
f 45/3/3 42/3/3 44/3/3
f 46/3/3 42/3/3 45/3/3
f 47/3/3 43/3/3 41/3/3
f 47/2/3 44/2/3 43/2/3
f 48/3/3 45/3/3 44/3/3
f 48/2/3 44/2/3 47/2/3
f 49/1/3 46/1/3 45/1/3
f 49/3/3 45/3/3 48/3/3
f 50/3/3 42/3/3 46/3/3
f 50/1/3 46/1/3 49/1/3
f 51/3/3 49/3/3 48/3/3
f 51/3/3 48/3/3 47/3/3
f 51/3/3 50/3/3 49/3/3
f 51/3/3 47/3/3 41/3/3
f 52/3/3 50/3/3 51/3/3
f 53/3/3 50/3/3 52/3/3
f 54/3/3 42/3/3 50/3/3
f 54/3/3 50/3/3 53/3/3
f 55/3/3 51/3/3 41/3/3
f 55/1/3 52/1/3 51/1/3
f 56/3/3 53/3/3 52/3/3
f 56/1/3 52/1/3 55/1/3
f 57/2/3 54/2/3 53/2/3
f 57/3/3 53/3/3 56/3/3
f 58/3/3 42/3/3 54/3/3
f 58/2/3 54/2/3 57/2/3
f 59/3/3 55/3/3 41/3/3
f 59/3/3 57/3/3 56/3/3
f 59/3/3 58/3/3 57/3/3
f 59/3/3 56/3/3 55/3/3
f 60/3/3 42/3/3 58/3/3
f 60/3/3 58/3/3 59/3/3
f 61/3/4 62/3/4 63/3/4
f 63/3/4 62/3/4 64/3/4
f 64/3/4 62/3/4 65/3/4
f 65/3/4 62/3/4 66/3/4
f 61/3/4 63/3/4 67/3/4
f 63/1/4 64/1/4 67/1/4
f 64/3/4 65/3/4 68/3/4
f 67/1/4 64/1/4 68/1/4
f 65/2/4 66/2/4 69/2/4
f 68/3/4 65/3/4 69/3/4
f 66/3/4 62/3/4 70/3/4
f 69/2/4 66/2/4 70/2/4
f 68/3/4 69/3/4 71/3/4
f 67/3/4 68/3/4 71/3/4
f 69/3/4 70/3/4 71/3/4
f 61/3/4 67/3/4 71/3/4
f 71/3/4 70/3/4 72/3/4
f 72/3/4 70/3/4 73/3/4
f 70/3/4 62/3/4 74/3/4
f 73/3/4 70/3/4 74/3/4
f 61/3/4 71/3/4 75/3/4
f 71/2/4 72/2/4 75/2/4
f 72/3/4 73/3/4 76/3/4
f 75/2/4 72/2/4 76/2/4
f 73/1/4 74/1/4 77/1/4
f 76/3/4 73/3/4 77/3/4
f 74/3/4 62/3/4 78/3/4
f 77/1/4 74/1/4 78/1/4
f 61/3/4 75/3/4 79/3/4
f 76/3/4 77/3/4 79/3/4
f 77/3/4 78/3/4 79/3/4
f 75/3/4 76/3/4 79/3/4
f 78/3/4 62/3/4 80/3/4
f 79/3/4 78/3/4 80/3/4
f 83/3/5 82/3/5 81/3/5
f 84/3/5 82/3/5 83/3/5
f 85/3/5 82/3/5 84/3/5
f 86/3/5 82/3/5 85/3/5
f 87/3/5 83/3/5 81/3/5
f 87/1/5 84/1/5 83/1/5
f 88/3/5 85/3/5 84/3/5
f 88/1/5 84/1/5 87/1/5
f 89/2/5 86/2/5 85/2/5
f 89/3/5 85/3/5 88/3/5
f 90/3/5 82/3/5 86/3/5
f 90/2/5 86/2/5 89/2/5
f 91/3/5 89/3/5 88/3/5
f 91/3/5 88/3/5 87/3/5
f 91/3/5 90/3/5 89/3/5
f 91/3/5 87/3/5 81/3/5
f 92/3/5 90/3/5 91/3/5
f 93/3/5 90/3/5 92/3/5
f 94/3/5 82/3/5 90/3/5
f 94/3/5 90/3/5 93/3/5
f 95/3/5 91/3/5 81/3/5
f 95/2/5 92/2/5 91/2/5
f 96/3/5 93/3/5 92/3/5
f 96/2/5 92/2/5 95/2/5
f 97/1/5 94/1/5 93/1/5
f 97/3/5 93/3/5 96/3/5
f 98/3/5 82/3/5 94/3/5
f 98/1/5 94/1/5 97/1/5
f 99/3/5 95/3/5 81/3/5
f 99/3/5 97/3/5 96/3/5
f 99/3/5 98/3/5 97/3/5
f 99/3/5 96/3/5 95/3/5
f 100/3/5 82/3/5 98/3/5
f 100/3/5 98/3/5 99/3/5
f 101/3/6 102/3/6 103/3/6
f 103/3/6 102/3/6 104/3/6
f 104/3/6 102/3/6 105/3/6
f 105/3/6 102/3/6 106/3/6
f 101/3/6 103/3/6 107/3/6
f 103/1/6 104/1/6 107/1/6
f 104/3/6 105/3/6 108/3/6
f 107/1/6 104/1/6 108/1/6
f 105/2/6 106/2/6 109/2/6
f 108/3/6 105/3/6 109/3/6
f 106/3/6 102/3/6 110/3/6
f 109/2/6 106/2/6 110/2/6
f 108/3/6 109/3/6 111/3/6
f 107/3/6 108/3/6 111/3/6
f 109/3/6 110/3/6 111/3/6
f 101/3/6 107/3/6 111/3/6
f 111/3/6 110/3/6 112/3/6
f 112/3/6 110/3/6 113/3/6
f 110/3/6 102/3/6 114/3/6
f 113/3/6 110/3/6 114/3/6
f 101/3/6 111/3/6 115/3/6
f 111/2/6 112/2/6 115/2/6
f 112/3/6 113/3/6 116/3/6
f 115/2/6 112/2/6 116/2/6
f 113/1/6 114/1/6 117/1/6
f 116/3/6 113/3/6 117/3/6
f 114/3/6 102/3/6 118/3/6
f 117/1/6 114/1/6 118/1/6
f 101/3/6 115/3/6 119/3/6
f 116/3/6 117/3/6 119/3/6
f 117/3/6 118/3/6 119/3/6
f 115/3/6 116/3/6 119/3/6
f 118/3/6 102/3/6 120/3/6
f 119/3/6 118/3/6 120/3/6
