# MagicaVoxel @ Ephtracy

# group
o 

# material
mtllib Window.vox.mtl
usemtl palette

# normals
vn -1 0 0
vn 1 0 0
vn 0 0 1
vn 0 0 -1
vn 0 -1 0
vn 0 1 0

# texcoords
vt 0.751953 0.5
vt 0.986328 0.5

# verts
v -0.8 0 0.1
v -0.8 0 -0.1
v -0.8 1.6 0.1
v -0.8 1.6 -0.1
v -0.1 0.1 0.1
v -0.1 0.1 -1.49012e-08
v -0.1 0.7 0.1
v -0.1 0.7 -1.49012e-08
v -0.1 0.9 0.1
v -0.1 0.9 -1.49012e-08
v -0.1 1.5 0.1
v -0.1 1.5 -1.49012e-08
v 0.7 0.1 0.1
v 0.7 0.1 -1.49012e-08
v 0.7 0.7 0.1
v 0.7 0.7 -1.49012e-08
v 0.7 0.9 0.1
v 0.7 0.9 -1.49012e-08
v 0.7 1.5 0.1
v 0.7 1.5 -1.49012e-08
v -0.7 0.1 0.1
v -0.7 0.1 -1.49012e-08
v -0.7 0.7 0.1
v -0.7 0.7 -1.49012e-08
v -0.7 0.9 0.1
v -0.7 0.9 -1.49012e-08
v -0.7 1.5 0.1
v -0.7 1.5 -1.49012e-08
v 0.1 0.1 0.1
v 0.1 0.1 -1.49012e-08
v 0.1 0.7 0.1
v 0.1 0.7 -1.49012e-08
v 0.1 0.9 0.1
v 0.1 0.9 -1.49012e-08
v 0.1 1.5 0.1
v 0.1 1.5 -1.49012e-08
v 0.8 0 0.1
v 0.8 0 -0.1
v 0.8 1.6 0.1
v 0.8 1.6 -0.1
v -0.8 0 0.1
v -0.8 1.6 0.1
v -0.7 0.1 0.1
v -0.7 0.7 0.1
v -0.7 0.9 0.1
v -0.7 1.5 0.1
v -0.1 0.1 0.1
v -0.1 0.7 0.1
v -0.1 0.9 0.1
v -0.1 1.5 0.1
v 0.1 0.1 0.1
v 0.1 0.7 0.1
v 0.1 0.9 0.1
v 0.1 1.5 0.1
v 0.7 0.1 0.1
v 0.7 0.7 0.1
v 0.7 0.9 0.1
v 0.7 1.5 0.1
v 0.8 0 0.1
v 0.8 1.6 0.1
v -0.7 0.1 -1.49012e-08
v -0.7 0.7 -1.49012e-08
v -0.7 0.9 -1.49012e-08
v -0.7 1.5 -1.49012e-08
v -0.1 0.1 -1.49012e-08
v -0.1 0.7 -1.49012e-08
v -0.1 0.9 -1.49012e-08
v -0.1 1.5 -1.49012e-08
v 0.1 0.1 -1.49012e-08
v 0.1 0.7 -1.49012e-08
v 0.1 0.9 -1.49012e-08
v 0.1 1.5 -1.49012e-08
v 0.7 0.1 -1.49012e-08
v 0.7 0.7 -1.49012e-08
v 0.7 0.9 -1.49012e-08
v 0.7 1.5 -1.49012e-08
v -0.8 0 -0.1
v -0.8 1.6 -0.1
v -0.7 0.1 -0.1
v -0.7 0.7 -0.1
v -0.7 0.9 -0.1
v -0.7 1.5 -0.1
v -0.1 0.1 -0.1
v -0.1 0.7 -0.1
v -0.1 0.9 -0.1
v -0.1 1.5 -0.1
v 0.1 0.1 -0.1
v 0.1 0.7 -0.1
v 0.1 0.9 -0.1
v 0.1 1.5 -0.1
v 0.7 0.1 -0.1
v 0.7 0.7 -0.1
v 0.7 0.9 -0.1
v 0.7 1.5 -0.1
v 0.8 0 -0.1
v 0.8 1.6 -0.1
v -0.8 0 0.1
v 0.8 0 0.1
v -0.8 0 -0.1
v 0.8 0 -0.1
v -0.7 0.7 0.1
v -0.1 0.7 0.1
v 0.1 0.7 0.1
v 0.7 0.7 0.1
v -0.7 0.7 -1.49012e-08
v -0.1 0.7 -1.49012e-08
v 0.1 0.7 -1.49012e-08
v 0.7 0.7 -1.49012e-08
v -0.7 1.5 0.1
v -0.1 1.5 0.1
v 0.1 1.5 0.1
v 0.7 1.5 0.1
v -0.7 1.5 -1.49012e-08
v -0.1 1.5 -1.49012e-08
v 0.1 1.5 -1.49012e-08
v 0.7 1.5 -1.49012e-08
v -0.7 0.1 0.1
v -0.1 0.1 0.1
v 0.1 0.1 0.1
v 0.7 0.1 0.1
v -0.7 0.1 -1.49012e-08
v -0.1 0.1 -1.49012e-08
v 0.1 0.1 -1.49012e-08
v 0.7 0.1 -1.49012e-08
v -0.7 0.9 0.1
v -0.1 0.9 0.1
v 0.1 0.9 0.1
v 0.7 0.9 0.1
v -0.7 0.9 -1.49012e-08
v -0.1 0.9 -1.49012e-08
v 0.1 0.9 -1.49012e-08
v 0.7 0.9 -1.49012e-08
v -0.8 1.6 0.1
v 0.8 1.6 0.1
v -0.8 1.6 -0.1
v 0.8 1.6 -0.1

# faces
f 3/2/1 2/2/1 1/2/1
f 4/2/1 2/2/1 3/2/1
f 7/2/1 6/2/1 5/2/1
f 8/2/1 6/2/1 7/2/1
f 11/2/1 10/2/1 9/2/1
f 12/2/1 10/2/1 11/2/1
f 15/2/1 14/2/1 13/2/1
f 16/2/1 14/2/1 15/2/1
f 19/2/1 18/2/1 17/2/1
f 20/2/1 18/2/1 19/2/1
f 21/2/2 22/2/2 23/2/2
f 23/2/2 22/2/2 24/2/2
f 25/2/2 26/2/2 27/2/2
f 27/2/2 26/2/2 28/2/2
f 29/2/2 30/2/2 31/2/2
f 31/2/2 30/2/2 32/2/2
f 33/2/2 34/2/2 35/2/2
f 35/2/2 34/2/2 36/2/2
f 37/2/2 38/2/2 39/2/2
f 39/2/2 38/2/2 40/2/2
f 43/2/3 42/2/3 41/2/3
f 44/2/3 42/2/3 43/2/3
f 45/2/3 42/2/3 44/2/3
f 46/2/3 42/2/3 45/2/3
f 47/2/3 43/2/3 41/2/3
f 48/2/3 45/2/3 44/2/3
f 49/2/3 45/2/3 48/2/3
f 50/2/3 42/2/3 46/2/3
f 51/2/3 49/2/3 48/2/3
f 51/2/3 50/2/3 49/2/3
f 51/2/3 47/2/3 41/2/3
f 51/2/3 48/2/3 47/2/3
f 52/2/3 50/2/3 51/2/3
f 53/2/3 50/2/3 52/2/3
f 54/2/3 42/2/3 50/2/3
f 54/2/3 50/2/3 53/2/3
f 55/2/3 51/2/3 41/2/3
f 56/2/3 53/2/3 52/2/3
f 57/2/3 53/2/3 56/2/3
f 58/2/3 42/2/3 54/2/3
f 59/2/3 55/2/3 41/2/3
f 59/2/3 58/2/3 57/2/3
f 59/2/3 57/2/3 56/2/3
f 59/2/3 56/2/3 55/2/3
f 60/2/3 42/2/3 58/2/3
f 60/2/3 58/2/3 59/2/3
f 65/1/3 62/1/3 61/1/3
f 66/1/3 62/1/3 65/1/3
f 67/1/3 64/1/3 63/1/3
f 68/1/3 64/1/3 67/1/3
f 73/1/3 70/1/3 69/1/3
f 74/1/3 70/1/3 73/1/3
f 75/1/3 72/1/3 71/1/3
f 76/1/3 72/1/3 75/1/3
f 77/2/4 78/2/4 79/2/4
f 79/2/4 78/2/4 80/2/4
f 80/2/4 78/2/4 81/2/4
f 81/2/4 78/2/4 82/2/4
f 77/2/4 79/2/4 83/2/4
f 79/1/4 80/1/4 83/1/4
f 80/2/4 81/2/4 84/2/4
f 83/1/4 80/1/4 84/1/4
f 81/1/4 82/1/4 85/1/4
f 84/2/4 81/2/4 85/2/4
f 82/2/4 78/2/4 86/2/4
f 85/1/4 82/1/4 86/1/4
f 84/2/4 85/2/4 87/2/4
f 83/2/4 84/2/4 87/2/4
f 85/2/4 86/2/4 87/2/4
f 77/2/4 83/2/4 87/2/4
f 87/2/4 86/2/4 88/2/4
f 88/2/4 86/2/4 89/2/4
f 86/2/4 78/2/4 90/2/4
f 89/2/4 86/2/4 90/2/4
f 77/2/4 87/2/4 91/2/4
f 87/1/4 88/1/4 91/1/4
f 88/2/4 89/2/4 92/2/4
f 91/1/4 88/1/4 92/1/4
f 89/1/4 90/1/4 93/1/4
f 92/2/4 89/2/4 93/2/4
f 90/2/4 78/2/4 94/2/4
f 93/1/4 90/1/4 94/1/4
f 77/2/4 91/2/4 95/2/4
f 92/2/4 93/2/4 95/2/4
f 93/2/4 94/2/4 95/2/4
f 91/2/4 92/2/4 95/2/4
f 94/2/4 78/2/4 96/2/4
f 95/2/4 94/2/4 96/2/4
f 99/2/5 98/2/5 97/2/5
f 100/2/5 98/2/5 99/2/5
f 105/2/5 102/2/5 101/2/5
f 106/2/5 102/2/5 105/2/5
f 107/2/5 104/2/5 103/2/5
f 108/2/5 104/2/5 107/2/5
f 113/2/5 110/2/5 109/2/5
f 114/2/5 110/2/5 113/2/5
f 115/2/5 112/2/5 111/2/5
f 116/2/5 112/2/5 115/2/5
f 117/2/6 118/2/6 121/2/6
f 121/2/6 118/2/6 122/2/6
f 119/2/6 120/2/6 123/2/6
f 123/2/6 120/2/6 124/2/6
f 125/2/6 126/2/6 129/2/6
f 129/2/6 126/2/6 130/2/6
f 127/2/6 128/2/6 131/2/6
f 131/2/6 128/2/6 132/2/6
f 133/2/6 134/2/6 135/2/6
f 135/2/6 134/2/6 136/2/6
